<svg width="24" height="24" viewBox="0 0 24 24" fill="none" xmlns="http://www.w3.org/2000/svg">
<path d="M21.3496 11.5C21.353 12.8199 21.0447 14.1219 20.4496 15.3C19.744 16.7118 18.6593 17.8992 17.317 18.7293C15.9747 19.5594 14.4278 19.9994 12.8496 20C11.5297 20.0034 10.2277 19.6951 9.0496 19.1L3.34961 21L5.24961 15.3C4.65454 14.1219 4.34617 12.8199 4.34961 11.5C4.35022 9.92177 4.79022 8.37487 5.62032 7.03257C6.45043 5.69027 7.63786 4.60559 9.0496 3.90003C10.2277 3.30496 11.5297 2.99659 12.8496 3.00003H13.3496C15.4339 3.11502 17.4026 3.99479 18.8787 5.47088C20.3548 6.94698 21.2346 8.91567 21.3496 11V11.5Z" stroke="#111111" stroke-width="2" stroke-linecap="round" stroke-linejoin="round"/>
</svg>
