<svg width="18" height="18" viewBox="0 0 18 18" fill="none" xmlns="http://www.w3.org/2000/svg">
<path d="M10.4055 7.59351L8.29609 9.70288M14.8267 2.69343C14.8934 2.67041 14.9653 2.66662 15.0341 2.6825C15.1028 2.69837 15.1657 2.73328 15.2156 2.78323C15.2655 2.83317 15.3003 2.89614 15.3161 2.96493C15.3319 3.03373 15.328 3.10557 15.3048 3.17226L11.1395 15.0762C11.1146 15.1473 11.0689 15.2093 11.0083 15.2542C10.9477 15.299 10.875 15.3246 10.7996 15.3277C10.7243 15.3307 10.6498 15.311 10.5858 15.2712C10.5218 15.2314 10.4712 15.1732 10.4406 15.1043L8.17726 10.0123C8.13951 9.92735 8.07162 9.85946 7.98672 9.82171L2.89469 7.55765C2.82599 7.52698 2.76806 7.47641 2.7284 7.41248C2.68873 7.34855 2.66915 7.27419 2.67218 7.19902C2.67521 7.12384 2.70071 7.0513 2.74539 6.99077C2.79006 6.93024 2.85187 6.88449 2.92281 6.85944L14.8267 2.69343Z" stroke="white" stroke-width="1.4" stroke-linecap="round" stroke-linejoin="round"/>
</svg>
