<svg width="24" height="24" viewBox="0 0 24 24" fill="none" xmlns="http://www.w3.org/2000/svg">
<path d="M20.3383 12.6495L12.0093 21L3.68024 12.6495C3.13086 12.1083 2.69813 11.4578 2.40928 10.739C2.12044 10.0202 1.98174 9.2487 2.00193 8.47298C2.02211 7.69726 2.20074 6.93418 2.52656 6.23178C2.85239 5.52938 3.31835 4.90289 3.89511 4.39174C4.47187 3.8806 5.14693 3.49588 5.87778 3.26181C6.60863 3.02775 7.37944 2.9494 8.14167 3.03171C8.9039 3.11402 9.64104 3.35521 10.3067 3.74008C10.9723 4.12494 11.552 4.64516 12.0093 5.26797C12.4685 4.64968 13.0489 4.13401 13.714 3.75323C14.3792 3.37244 15.1149 3.13474 15.875 3.055C16.635 2.97527 17.4032 3.0552 18.1314 3.28982C18.8596 3.52443 19.5321 3.90867 20.1068 4.41848C20.6815 4.92829 21.1461 5.55271 21.4715 6.25264C21.7969 6.95258 21.976 7.71297 21.9978 8.48622C22.0195 9.25947 21.8833 10.0289 21.5978 10.7465C21.3122 11.464 20.8834 12.1141 20.3383 12.6562" stroke="#838383" stroke-width="2" stroke-linecap="round" stroke-linejoin="round"/>
</svg>
