<svg width="18" height="18" viewBox="0 0 18 18" fill="none" xmlns="http://www.w3.org/2000/svg">
<path d="M0.621228 17.9759C0.765348 17.4802 0.898291 17.0148 1.033 16.55C1.15653 16.134 1.2683 15.7135 1.41477 15.3067C1.50183 15.0588 1.44712 14.9112 1.27418 14.7437C0.41946 13.9052 -0.0652538 12.8643 0.00710031 11.5629C0.0659248 10.5385 0.492402 9.68016 1.03594 8.88447C1.84713 7.69785 2.89774 6.82569 4.01364 6.03988C4.38952 5.77619 4.40717 5.71027 4.19011 5.29429L1.56771 0.338845C1.51889 0.246553 1.47359 0.151623 1.39889 0.0019777H1.75183C5.4066 0 9.06254 0.00857002 12.7179 0C13.8909 0 14.9926 0.263693 15.9809 0.994122C17.1091 1.83266 17.7221 3.03774 17.9356 4.5164C18.1233 5.81311 17.8768 7.04521 17.5044 8.2615C17.1803 9.31627 16.9115 10.4 16.5321 11.4311C15.5774 14.0232 13.9591 15.9356 11.6791 17.1183C10.5559 17.7009 9.33253 18.0009 8.09488 17.997C5.70268 18.001 3.31049 18.001 0.918292 17.997C0.834761 17.997 0.748877 17.9852 0.621228 17.9759ZM9.09725 6.71889C8.63077 6.85074 8.22488 6.95358 7.82546 7.08147C6.70603 7.44009 5.60602 7.87057 4.58835 8.51398C4.46857 8.59549 4.37693 8.72003 4.32835 8.86733C3.65069 11.0766 2.98048 13.2879 2.31773 15.5012C2.17831 15.9626 2.04772 16.4274 1.90595 16.9198C2.03772 16.9291 2.12361 16.9403 2.21008 16.9403C4.1607 16.9403 6.11191 16.9515 8.06253 16.9324C8.56179 16.9314 9.05973 16.8749 9.54902 16.7636C12.4002 16.0886 14.3932 14.1966 15.5768 11.2478C15.9762 10.2524 16.2238 9.18178 16.5497 8.14943C16.8686 7.13091 17.1556 6.10581 17.0597 5.00357C16.9615 3.86903 16.6068 2.87227 15.7956 2.13393C14.9944 1.40482 14.0573 1.08444 13.0414 1.07916C9.79667 1.06598 6.55191 1.07191 3.30715 1.07257C3.22386 1.07869 3.14097 1.09036 3.05891 1.10751L5.24954 5.24353C5.31366 5.21584 5.36013 5.19936 5.40307 5.17761C7.4484 4.02132 9.57255 3.11751 11.8302 2.64022C12.3667 2.52684 12.9026 2.41674 13.5003 2.53277C13.4308 2.66462 13.3891 2.76086 13.3373 2.84722C12.9255 3.5348 12.3191 3.87101 11.612 3.95605C10.5805 4.08964 9.56864 4.37147 8.60136 4.79459C7.96841 5.06422 7.35663 5.3945 6.73545 5.69774L6.76192 5.77685C6.80703 5.76773 6.85162 5.75562 6.89545 5.74059C8.41168 5.11251 9.9977 4.72078 11.6091 4.57639C12.1285 4.52826 12.6502 4.38455 13.0573 4.00022C13.4391 3.63962 13.7667 3.20914 14.1473 2.77471C14.912 3.20782 15.3979 3.94023 15.4821 4.99566C15.5009 5.2343 15.4303 5.31473 15.2173 5.34769C14.0497 5.52568 13.1885 6.22513 12.7079 7.41504C12.3702 8.25029 12.132 9.13827 11.8773 10.0131C11.4067 11.6368 10.5749 12.8761 9.00842 13.2433C8.40959 13.3837 7.77782 13.3514 7.10427 13.4015L9.09725 6.71889ZM8.42371 12.2696C8.49228 12.274 8.56102 12.274 8.62959 12.2696C9.6502 12.0956 10.3532 11.439 10.7308 10.3948C11.0649 9.47184 11.319 8.51332 11.5991 7.56798C11.6938 7.28105 11.7702 6.98695 11.8279 6.68791C11.8832 6.34972 11.822 6.29237 11.5232 6.32203C11.202 6.35632 10.8814 6.4407 10.5608 6.43872C10.2002 6.43872 10.0902 6.66022 9.99373 6.99181C9.67667 8.09801 9.33843 9.19695 9.0096 10.2985C8.81783 10.9393 8.62783 11.582 8.42371 12.2696ZM3.0995 9.6327C1.74007 10.7079 0.961234 12.4898 1.80537 13.9836C2.23537 12.5406 2.65773 11.1166 3.0995 9.6327Z" fill="white"/>
<path d="M13.1289 7.93482C13.3554 6.91961 14.3819 6.0158 15.3354 5.97559C15.3395 6.7548 14.3095 8.00338 13.1289 7.93482Z" fill="white"/>
</svg>
