<svg width="24" height="24" viewBox="0 0 24 24" fill="none" xmlns="http://www.w3.org/2000/svg">
<g clip-path="url(#clip0_2028_1567)">
<rect width="24" height="24" rx="12" fill="white"/>
<g clip-path="url(#clip1_2028_1567)">
<path d="M6.51233 4.95312V8.2404L2 8.23679L3.20673 9.84355L4.17469 9.79392L4.17375 13.2455L6.51233 12.6839V16.0088L12.0771 19.9703L17.6453 16.0071V12.6902L20.068 13.3479C20.8028 13.366 20.992 12.9561 21.0405 12.6821C21.064 12.5465 21.0785 12.4011 21.0837 12.2831C21.0888 12.1994 21.0899 12.1163 21.09 12.0345C21.09 11.9225 21.0898 11.775 21.0895 11.628C21.0889 11.334 21.0879 11.0421 21.0879 11.0419V11.0417C21.0875 10.8758 21.0714 10.6858 20.9694 10.4986C20.8984 10.3684 20.7896 10.259 20.6607 10.1732L22.16 8.24283L17.6454 8.2426V4.95312H6.51233Z" fill="white"/>
<path d="M12.077 18.3393L6.91797 15.4131V15.8004L12.077 19.4703L17.2359 15.8004V15.4131L12.077 18.3393Z" fill="#06141F"/>
<path d="M11.1733 16.0399H12.9817L13.416 16.9465L17.2359 14.9813V12.7544C13.8367 12.0121 10.3171 12.0122 6.91797 12.7548V14.9813L10.7378 16.9466L11.1733 16.0399Z" fill="#06141F"/>
<path d="M10.7156 8.6543H8.16992C8.20972 8.67202 8.53357 8.78374 8.53357 9.10902L8.53153 11.318C8.52659 11.6335 8.7594 11.7851 9.20907 11.7391C9.93805 11.6668 10.6696 11.623 11.402 11.6076V10.0136C10.9214 10.0182 10.5084 10.0285 10.0283 10.045V10.5805C10.1838 10.5732 10.2667 10.5673 10.4226 10.5612V11.1155C10.1505 11.1278 9.92123 11.1438 9.64831 11.1625C9.57696 11.1672 9.54423 11.1437 9.54423 11.0872V9.26567C9.54423 9.21808 9.57846 9.19424 9.64863 9.19338C9.87241 9.1897 10.0745 9.18687 10.2982 9.18444C10.3681 9.1839 10.3966 9.20906 10.3966 9.26261V9.58155C10.7335 9.57551 11.0718 9.57112 11.4085 9.56884L11.4101 9.12196C11.4107 8.82968 11.1597 8.6543 10.7157 8.6543" fill="#EA0029"/>
<path d="M16.5946 9.34344V10.1225C16.5946 10.1802 16.5622 10.2137 16.4924 10.2084C16.2383 10.1894 16.035 10.1719 15.7799 10.1552V9.22247C16.0346 9.22874 16.2351 9.23595 16.4894 9.2423C16.5598 9.24497 16.5946 9.27594 16.5946 9.34344ZM17.6072 10.3708V9.21063C17.6004 8.86214 17.313 8.65461 16.8689 8.6543H14.4043C14.4474 8.67233 14.7807 8.77974 14.7807 9.09718L14.7817 11.7384C15.1086 11.77 15.4544 11.8083 15.7799 11.8512V10.7002C15.9436 10.7139 16.117 10.7288 16.2807 10.7447C16.4544 11.1532 16.5838 11.5573 16.7571 11.9877C17.0854 12.0433 17.443 12.1188 17.7696 12.1862C17.5924 11.7325 17.4101 11.2809 17.2228 10.8313C17.4721 10.7852 17.6112 10.6193 17.6072 10.3708Z" fill="#EA0029"/>
<path d="M3.41984 9.41894C3.81583 9.39715 4.19267 9.37621 4.58983 9.35755V12.5939C4.91581 12.5057 5.27303 12.423 5.60159 12.3458V9.31247C5.83919 9.30252 6.11626 9.29311 6.35339 9.28472V8.65438H2.83594C3.02567 8.91291 3.22034 9.16786 3.41984 9.41894ZM20.3122 10.4495C20.0084 10.3135 19.3114 9.99691 19.0964 9.89719C19.0176 9.86018 18.9883 9.79707 18.9883 9.75387V9.43541C18.9873 9.36782 19.0222 9.33474 19.0915 9.33819C19.6085 9.36155 20.2131 9.38758 20.7281 9.4162L21.3196 8.65438H17.6183C17.6692 8.68182 18.0017 8.79589 18.0017 9.1708C18.0017 9.1708 18.0045 9.573 18.0045 9.78743C18.0045 10.0025 18.1156 10.1754 18.3845 10.2982C18.6526 10.421 19.5254 10.795 19.592 10.8311C19.6792 10.8772 19.6938 10.9224 19.6938 11.0505V11.8412C19.6942 11.9486 19.6166 11.9313 19.5913 11.9256C19.4139 11.8854 19.2667 11.8554 19.0884 11.8178C19.0631 11.8124 18.9997 11.7953 18.9985 11.6933V11.1702C18.6751 11.1164 18.351 11.0665 18.0264 11.0207V11.6231C18.0326 12.0099 18.3126 12.2973 18.7559 12.4076C19.1723 12.5094 19.5726 12.6202 19.9844 12.7412C20.4227 12.8737 20.6779 12.6929 20.677 12.2237C20.6802 12.212 20.6762 11.0432 20.6762 11.0432C20.6755 10.7703 20.6159 10.5866 20.3121 10.4495M6.8792 9.14611V12.0758C7.21405 12.0146 7.55447 11.9582 7.89159 11.9083V8.6543H6.51743C6.60864 8.68095 6.87928 8.83195 6.87928 9.14618M11.5164 8.6543C11.5668 8.67735 11.9012 8.78335 11.9012 9.07782C11.9003 9.91945 11.9003 10.7606 11.8998 11.6017C12.689 11.5978 13.4648 11.6277 14.2516 11.6893V11.151C13.7961 11.1209 13.34 11.1005 12.8837 11.0897V10.414C13.2902 10.4221 13.6955 10.4311 14.1015 10.4487V9.89484C13.6956 9.88223 13.2897 9.87358 12.8837 9.86889C12.8848 9.19722 12.8837 9.19722 12.8837 9.18029C13.3377 9.1835 13.7637 9.18766 14.2174 9.19393V8.65438L11.5164 8.6543Z" fill="#EA0029"/>
<path d="M8.69309 13.8217C8.72566 13.8175 8.74882 13.8065 8.7624 13.7888C8.77574 13.7715 8.78241 13.749 8.78241 13.722C8.78241 13.6911 8.7748 13.6691 8.75816 13.6577C8.74246 13.6466 8.72079 13.6424 8.69301 13.6457C8.64654 13.6522 8.59984 13.6585 8.55298 13.6649V13.8401C8.59984 13.8339 8.64654 13.8277 8.69309 13.8217ZM8.67503 13.5443C8.70745 13.5398 8.73061 13.5291 8.74395 13.5122C8.75769 13.4955 8.76451 13.474 8.76451 13.4476C8.76404 13.4166 8.75674 13.3956 8.74136 13.3846C8.7259 13.3736 8.70384 13.3702 8.67503 13.374C8.63431 13.3792 8.59362 13.3847 8.55298 13.3905V13.5609C8.59427 13.5554 8.63422 13.5494 8.67503 13.5443ZM8.67762 13.2697C8.71609 13.2645 8.74787 13.2639 8.7748 13.268C8.8018 13.2721 8.82283 13.2807 8.84034 13.2939C8.85682 13.3077 8.86977 13.3255 8.87676 13.3481C8.88398 13.3706 8.88806 13.3983 8.88806 13.4312C8.88806 13.46 8.88343 13.4858 8.87519 13.5077C8.86655 13.5291 8.85321 13.548 8.83579 13.5653C8.85768 13.5741 8.87519 13.5893 8.88759 13.611C8.89983 13.6326 8.90604 13.6644 8.90604 13.7065C8.90604 13.7418 8.90148 13.7716 8.89112 13.7972C8.88196 13.8218 8.86727 13.8438 8.84819 13.8618C8.82809 13.8802 8.80457 13.8945 8.77896 13.9039C8.7495 13.9151 8.71879 13.9227 8.68751 13.9266C8.6029 13.9376 8.51829 13.9493 8.43359 13.9609V13.3031C8.5146 13.2917 8.59631 13.2805 8.67762 13.2697ZM9.21388 13.6C9.2667 13.5941 9.32047 13.5881 9.37337 13.5823C9.34708 13.5008 9.32102 13.4192 9.29425 13.3377C9.26772 13.4248 9.23978 13.5123 9.21388 13.6ZM9.40752 13.6832C9.3317 13.691 9.25564 13.6993 9.18036 13.7079C9.16349 13.7624 9.147 13.8168 9.13068 13.8716C9.08806 13.8765 9.04606 13.8816 9.00391 13.8865C9.07471 13.6585 9.14646 13.4312 9.21694 13.2037C9.2682 13.198 9.32008 13.1926 9.37118 13.187L9.58373 13.8237C9.54158 13.8277 9.49959 13.8319 9.4576 13.8366C9.44017 13.7852 9.42416 13.7341 9.40752 13.6832ZM10.0977 13.2432C10.0647 13.2371 10.0312 13.2337 9.99762 13.2329C9.96622 13.2316 9.93718 13.2329 9.90971 13.2345C9.89494 13.2358 9.88027 13.238 9.86575 13.2411C9.85147 13.2434 9.83969 13.2482 9.82878 13.2549C9.81842 13.2607 9.80976 13.2691 9.80367 13.2792C9.79684 13.2896 9.79401 13.3028 9.79401 13.3192C9.79307 13.3318 9.79551 13.3444 9.80108 13.3558C9.80587 13.3655 9.81366 13.3733 9.82329 13.3783C9.83396 13.3846 9.84723 13.3893 9.86426 13.393C9.88059 13.3969 9.90115 13.4004 9.92509 13.4045C9.95861 13.4104 9.98789 13.4172 10.0134 13.4247C10.0395 13.4319 10.0608 13.4425 10.0782 13.4556C10.0951 13.4689 10.1084 13.485 10.1176 13.5044C10.1262 13.5242 10.1314 13.5484 10.1314 13.5772C10.1314 13.6466 10.11 13.6993 10.0674 13.7368C10.0253 13.7743 9.96614 13.795 9.89166 13.8004C9.85908 13.8022 9.82455 13.8022 9.78789 13.7997C9.75183 13.7975 9.71598 13.7928 9.68059 13.7856V13.6887C9.72094 13.6931 9.75806 13.6957 9.79197 13.6968C9.82517 13.6988 9.8579 13.6981 9.89087 13.6956C9.9309 13.692 9.96073 13.6818 9.97862 13.6654C9.99762 13.6489 10.0063 13.6233 10.0063 13.589C10.0066 13.5782 10.0037 13.5675 9.9981 13.5582C9.99245 13.5489 9.98424 13.5415 9.97446 13.5367C9.96185 13.5305 9.94839 13.5262 9.93451 13.5239C9.91881 13.5206 9.89856 13.5171 9.87745 13.5138C9.84727 13.5094 9.81751 13.5025 9.78844 13.4933C9.76467 13.486 9.7424 13.4745 9.72266 13.4594C9.70512 13.4457 9.69119 13.4278 9.68208 13.4075C9.67239 13.3833 9.66759 13.3573 9.66795 13.3312C9.66795 13.2748 9.68632 13.2288 9.72376 13.1936C9.76065 13.1584 9.81905 13.1378 9.90115 13.1306C9.96704 13.125 10.0334 13.1301 10.0977 13.1455V13.2432ZM10.2698 13.1085C10.4182 13.0981 10.567 13.0892 10.7157 13.0808C10.7153 13.1159 10.7153 13.1509 10.7157 13.1858C10.609 13.1917 10.5018 13.1977 10.3952 13.2048V13.3731C10.4982 13.3667 10.6013 13.3605 10.7045 13.355C10.6912 13.3907 10.6771 13.4266 10.6635 13.4622C10.5743 13.4673 10.4845 13.4722 10.3952 13.4784V13.6528C10.5018 13.6458 10.609 13.6397 10.7157 13.6342C10.7153 13.6689 10.7153 13.7042 10.7157 13.7392C10.567 13.7467 10.4182 13.7561 10.2698 13.7665V13.1085ZM11.1251 13.6166C11.158 13.6158 11.181 13.6066 11.1941 13.5907C11.2078 13.5741 11.2149 13.5531 11.2149 13.5256C11.2149 13.4942 11.2072 13.472 11.1905 13.4589C11.1748 13.4463 11.1522 13.44 11.1251 13.4413C11.0778 13.4431 11.0312 13.4448 10.9839 13.4464V13.622C11.0312 13.6203 11.0777 13.6183 11.1251 13.6166ZM11.1065 13.3377C11.1394 13.3365 11.1624 13.3279 11.1763 13.3119C11.1895 13.2969 11.1963 13.2754 11.1963 13.2494C11.1963 13.2188 11.1893 13.1968 11.1732 13.1846C11.158 13.1719 11.1359 13.1663 11.1065 13.1673C11.0656 13.1689 11.0251 13.1703 10.9839 13.1722V13.3424C11.0251 13.3407 11.0655 13.3389 11.1065 13.3377ZM11.1098 13.0629C11.1476 13.0616 11.1799 13.0646 11.2072 13.0709C11.2338 13.0772 11.2564 13.0885 11.2733 13.1033C11.2898 13.1181 11.3025 13.137 11.3098 13.1604C11.3175 13.1839 11.3208 13.2117 11.3208 13.2443C11.3208 13.2738 11.3169 13.2992 11.3082 13.3199C11.2996 13.3407 11.2861 13.3585 11.2687 13.3736C11.2912 13.3846 11.3082 13.4022 11.3205 13.4247C11.3331 13.4472 11.3394 13.4796 11.3394 13.5215C11.3394 13.557 11.3343 13.5861 11.3245 13.6109C11.3152 13.6343 11.3002 13.655 11.281 13.6712C11.2604 13.688 11.2366 13.7004 11.211 13.7075C11.1813 13.7157 11.1507 13.7201 11.1199 13.7209C11.0343 13.7242 10.9485 13.7279 10.8635 13.7317V13.0736C10.9456 13.0693 11.0272 13.0662 11.1098 13.0629ZM11.6487 13.4443L11.8094 13.4416C11.7822 13.3576 11.7561 13.2735 11.7288 13.1892C11.7021 13.2742 11.6749 13.3591 11.6487 13.4443ZM11.8426 13.5454C11.7668 13.5463 11.6909 13.5477 11.6144 13.5484C11.5979 13.6017 11.5812 13.6552 11.5646 13.7082C11.5221 13.7089 11.4795 13.7099 11.4375 13.7108C11.5087 13.49 11.5806 13.2694 11.6518 13.0482C11.7032 13.0476 11.755 13.047 11.8061 13.0463C11.8776 13.2651 11.9482 13.4838 12.02 13.7032C11.9777 13.7032 11.935 13.7032 11.8924 13.7037C11.876 13.6508 11.8597 13.5983 11.8426 13.5454ZM12.1232 13.7032V13.0444C12.1649 13.0444 12.2068 13.0454 12.249 13.0454V13.5985C12.349 13.5992 12.449 13.6005 12.549 13.6024C12.5349 13.6368 12.5214 13.6717 12.5079 13.7065C12.3797 13.7044 12.2514 13.7033 12.1232 13.7032ZM12.6598 13.7089V13.0508C12.7014 13.0522 12.7426 13.0531 12.7847 13.0545V13.6072C12.885 13.6099 12.9849 13.6135 13.0845 13.6171C13.0711 13.652 13.0578 13.6861 13.044 13.7206C12.9159 13.7163 12.7873 13.7121 12.6598 13.7089ZM13.9369 13.7401C13.9034 13.7479 13.8694 13.7536 13.8352 13.7573C13.8015 13.7614 13.7687 13.762 13.7374 13.7602C13.6898 13.7569 13.6499 13.7466 13.6164 13.7279C13.584 13.7097 13.5562 13.6841 13.5354 13.6534C13.5139 13.6202 13.4985 13.5835 13.4901 13.5449C13.4802 13.5005 13.4753 13.4552 13.4757 13.4097C13.4757 13.3585 13.4805 13.3119 13.4901 13.2715C13.4995 13.2304 13.5144 13.1965 13.5354 13.1683C13.5564 13.1409 13.583 13.1199 13.6164 13.1068C13.6499 13.0933 13.6908 13.0879 13.7374 13.0909C13.7724 13.0933 13.8057 13.0982 13.8371 13.1053C13.8678 13.1123 13.9018 13.1231 13.9368 13.137V13.2316C13.9174 13.2266 13.9001 13.2217 13.8843 13.2174C13.8682 13.2137 13.8531 13.2099 13.8386 13.207C13.8246 13.2045 13.8104 13.2025 13.7964 13.2008C13.7824 13.1994 13.7673 13.1976 13.7519 13.1968C13.6988 13.1937 13.66 13.2113 13.6376 13.2494C13.6144 13.2884 13.6031 13.344 13.6031 13.4169C13.6031 13.4519 13.6053 13.4839 13.6114 13.5123C13.6164 13.5409 13.625 13.566 13.6376 13.5861C13.6499 13.6072 13.6656 13.6233 13.6847 13.6356C13.7031 13.6476 13.7257 13.6545 13.7527 13.656C13.7673 13.6571 13.7817 13.6571 13.7948 13.6571C13.8089 13.6571 13.8227 13.6571 13.8376 13.656C13.8517 13.6545 13.8667 13.6531 13.8832 13.6513C13.899 13.6495 13.9174 13.6472 13.9369 13.6433V13.7401ZM14.068 13.7789V13.1206C14.109 13.1237 14.1503 13.1271 14.193 13.1306V13.6836C14.2923 13.692 14.3922 13.7006 14.4922 13.7095C14.478 13.7432 14.4647 13.7773 14.4512 13.8108C14.3236 13.7991 14.1959 13.7885 14.068 13.7789ZM14.7322 13.6229C14.7322 13.6644 14.7433 13.6948 14.7656 13.7137C14.7879 13.7335 14.8163 13.7449 14.8527 13.7482C14.8906 13.7526 14.9203 13.7475 14.9424 13.733C14.9644 13.7185 14.9754 13.6905 14.9754 13.6487V13.2062C15.0174 13.2106 15.0592 13.2157 15.1022 13.2209V13.6642C15.1022 13.7037 15.0957 13.7371 15.0857 13.7638C15.0744 13.7903 15.0582 13.8109 15.0373 13.8261C15.0158 13.8414 14.9892 13.8507 14.9588 13.8551C14.9236 13.86 14.8879 13.8601 14.8527 13.8553C14.8167 13.852 14.7813 13.8445 14.7471 13.8328C14.7187 13.8229 14.6927 13.8072 14.6705 13.7869C14.6493 13.7666 14.6331 13.7415 14.6234 13.7137C14.6123 13.6806 14.6068 13.6459 14.6074 13.611V13.1678C14.649 13.1719 14.691 13.1758 14.7322 13.1799V13.6229ZM15.5256 13.8277C15.5578 13.8319 15.5811 13.8273 15.5943 13.8134C15.608 13.7997 15.615 13.7789 15.615 13.752C15.615 13.7206 15.607 13.6969 15.5909 13.6813C15.5742 13.6656 15.5527 13.656 15.5257 13.6522C15.4789 13.6457 15.4318 13.6397 15.385 13.6337V13.8092C15.4318 13.815 15.4789 13.8218 15.5256 13.8277ZM15.5073 13.5455C15.5394 13.55 15.563 13.5455 15.576 13.5319C15.5898 13.5191 15.5964 13.4994 15.5964 13.4722C15.597 13.4416 15.5892 13.4189 15.5739 13.4035C15.5584 13.3888 15.5365 13.3792 15.5073 13.3755C15.4665 13.3699 15.4258 13.3646 15.385 13.3597V13.5298C15.4258 13.5351 15.4663 13.5404 15.5073 13.5455ZM15.5101 13.2715C15.5482 13.277 15.5799 13.285 15.6073 13.2962C15.6339 13.3072 15.6561 13.3221 15.6724 13.3393C15.6887 13.3569 15.7015 13.3783 15.7089 13.4028C15.7165 13.4277 15.7201 13.4564 15.7205 13.4887C15.7205 13.5184 15.7154 13.5428 15.7074 13.5621C15.6982 13.5814 15.6856 13.5973 15.6679 13.6087C15.6904 13.6245 15.7074 13.6442 15.7201 13.6689C15.7318 13.6938 15.7378 13.7269 15.7378 13.7694C15.7378 13.8043 15.7331 13.8329 15.7236 13.8558C15.7144 13.8772 15.6994 13.8957 15.6803 13.909C15.661 13.9221 15.6379 13.9302 15.6107 13.933C15.5805 13.9362 15.5501 13.9355 15.5201 13.9309C15.4353 13.9198 15.3504 13.9086 15.265 13.8983V13.2403C15.3468 13.2503 15.4286 13.2609 15.5101 13.2715Z" fill="white"/>
<path d="M7.54119 7.96735V5.98082H8.79816L9.68614 7.96735H14.4307L15.3585 5.98082H16.6128V7.96735H17.236V5.3584H6.91797V7.96735H7.54119Z" fill="#06141F"/>
<path d="M12.4405 7.26571C12.4405 7.27355 12.4429 7.27802 12.4475 7.27802C12.4511 7.27753 12.4545 7.27612 12.4574 7.27394L13.7402 6.44211C13.7619 6.42698 13.7878 6.41921 13.8142 6.41992H14.0962C14.1393 6.41992 14.1686 6.44869 14.1686 6.49189V7.02972C14.1686 7.09464 14.1542 7.13243 14.0965 7.167L13.7546 7.37257C13.7512 7.37495 13.7472 7.37639 13.743 7.37673C13.7389 7.37673 13.7348 7.37343 13.7348 7.36152V6.73407C13.7348 6.72663 13.7327 6.72169 13.7278 6.72169C13.7242 6.72212 13.7207 6.72356 13.7179 6.72584L12.7805 7.33439C12.7593 7.34884 12.7341 7.35645 12.7084 7.35619H12.087C12.0434 7.35619 12.0146 7.32741 12.0146 7.28382V6.50875C12.0146 6.50295 12.0121 6.49762 12.0072 6.49762C12.0036 6.49805 12.0001 6.49946 11.9973 6.50169L11.3788 6.87261C11.3725 6.87668 11.3709 6.87966 11.3709 6.88249C11.3709 6.88492 11.3722 6.88743 11.3763 6.89189L11.8182 7.33314C11.8241 7.33886 11.8281 7.34341 11.8281 7.34835C11.8281 7.35242 11.8215 7.35572 11.8138 7.35572H11.4146C11.3832 7.35572 11.359 7.35125 11.3421 7.33439L11.0742 7.06704C11.0732 7.06583 11.0719 7.06485 11.0705 7.06415C11.0691 7.06345 11.0676 7.06304 11.066 7.06297C11.0631 7.06313 11.0602 7.06399 11.0577 7.06547L10.6099 7.33439C10.5828 7.35085 10.5643 7.35532 10.5375 7.35532H10.1256C10.0816 7.35579 10.0527 7.32655 10.0527 7.28335V6.75587C10.0527 6.69048 10.0672 6.65301 10.1252 6.61851L10.4692 6.41208C10.4719 6.4103 10.4751 6.4093 10.4783 6.40918C10.4837 6.40918 10.4865 6.41459 10.4865 6.42643V7.13282C10.4865 7.14027 10.4881 7.14356 10.4935 7.14356C10.4972 7.14298 10.5007 7.14159 10.5037 7.13949L11.666 6.44093C11.6882 6.42564 11.7154 6.4182 11.7425 6.41953H12.3681C12.4113 6.41953 12.4405 6.4483 12.4405 6.49142L12.4401 7.26571H12.4405Z" fill="white"/>
</g>
</g>
<defs>
<clipPath id="clip0_2028_1567">
<rect width="24" height="24" rx="12" fill="white"/>
</clipPath>
<clipPath id="clip1_2028_1567">
<rect width="20.16" height="15.0171" fill="white" transform="translate(2 4.95312)"/>
</clipPath>
</defs>
</svg>
