<svg width="35" height="24" viewBox="0 0 35 24" fill="none" xmlns="http://www.w3.org/2000/svg">
<path d="M17.1709 1C17.2489 1.00016 17.3641 1.00034 17.5117 1.00098C17.807 1.00224 18.2323 1.00469 18.751 1.00977C19.7887 1.01992 21.1992 1.04051 22.6914 1.08105C24.185 1.12164 25.7533 1.18203 27.1094 1.27246C28.4726 1.36338 29.5464 1.48008 30.123 1.61719C30.6786 1.77678 31.1832 2.07936 31.5859 2.49512C31.9858 2.90796 32.2705 3.41866 32.4141 3.97559C32.8899 6.63168 33.1214 9.3259 33.1045 12.0244V12.0342C33.114 14.6918 32.8824 17.3451 32.4141 19.9609C32.2706 20.5184 31.9861 21.0292 31.5859 21.4424C31.1822 21.8592 30.6763 22.162 30.1191 22.3213C29.5547 22.4713 28.4808 22.6006 27.1035 22.7012C25.7491 22.8001 24.1816 22.8667 22.6885 22.9111C21.197 22.9555 19.7873 22.9781 18.75 22.9893C18.2317 22.9948 17.8068 22.9976 17.5117 22.999C17.3642 22.9997 17.2489 22.9998 17.1709 23H16.9346C16.8566 22.9998 16.7413 22.9997 16.5938 22.999C16.2987 22.9976 15.8738 22.9948 15.3555 22.9893C14.3182 22.9781 12.9084 22.9555 11.417 22.9111C9.92385 22.8667 8.35633 22.8001 7.00195 22.7012C5.62322 22.6005 4.54837 22.4715 3.98438 22.3213H3.98535C3.43667 22.1709 2.93582 21.8814 2.53125 21.4805C2.13686 21.0896 1.84738 20.6055 1.68848 20.0732C1.21427 17.4213 0.984085 14.7312 1.00098 12.0371V12.0264C0.987762 9.3482 1.21837 6.67416 1.69043 4.03809C1.83399 3.48093 2.11952 2.9706 2.51953 2.55762C2.92383 2.14024 3.43021 1.83588 3.98828 1.67676C4.55339 1.527 5.62658 1.39929 7.00195 1.29883C8.35633 1.1999 9.92385 1.1333 11.417 1.08887C12.9084 1.04449 14.3182 1.02185 15.3555 1.01074C15.8738 1.00519 16.2987 1.00236 16.5938 1.00098C16.7413 1.00028 16.8566 1.00017 16.9346 1H17.1709Z" stroke="white" stroke-opacity="0.9" stroke-width="2" stroke-linecap="round" stroke-linejoin="round"/>
<path d="M12.6309 8.08263C12.6309 7.27878 12.6309 6.87685 12.7988 6.65247C12.9452 6.45693 13.1693 6.33458 13.413 6.31718C13.6926 6.29721 14.0306 6.51456 14.7068 6.94925L21.3474 11.2182C21.9341 11.5954 22.2275 11.784 22.3288 12.0238C22.4174 12.2333 22.4174 12.4698 22.3288 12.6793C22.2275 12.9191 21.9341 13.1077 21.3474 13.4849L14.7068 17.7538C14.0306 18.1885 13.6926 18.4059 13.413 18.3859C13.1693 18.3685 12.9452 18.2462 12.7988 18.0506C12.6309 17.8262 12.6309 17.4243 12.6309 16.6205V8.08263Z" fill="white" fill-opacity="0.9"/>
</svg>
