<svg width="45" height="37" viewBox="0 0 45 37" fill="none" xmlns="http://www.w3.org/2000/svg">
<path d="M36.9876 26.5404C36.094 27.434 34.6811 28.5643 32.9932 29.4961C30.4041 30.9243 27.3567 31.2909 24.5003 30.5272C21.0864 29.6183 15.4728 28.1137 15.4728 28.1137C14.8465 27.9457 14.3043 27.5333 13.9835 26.9681C13.6551 26.4029 13.5711 25.7308 13.7391 25.1045C13.9071 24.4783 14.3196 23.936 14.8847 23.6152C15.4499 23.2868 16.122 23.2028 16.7483 23.3708L21.0787 24.5317L8.99624 12.4493C8.53799 11.991 8.27832 11.3647 8.27832 10.7155C8.27832 10.0664 8.53799 9.44009 8.99624 8.98184C9.45449 8.52359 10.0808 8.26392 10.7299 8.26392C11.3791 8.26392 12.0054 8.52359 12.4637 8.98184L21.094 17.6122C21.0024 17.5205 17.8252 14.3357 17.7564 14.2364C17.0461 13.2741 17.1302 11.9146 18.0008 11.044C18.9631 10.0816 20.5136 10.0816 21.4759 11.044L26.0431 15.6112C25.9591 15.5272 22.7972 12.35 22.7284 12.266C21.9952 11.3036 22.0716 9.92125 22.9499 9.04294C23.9122 8.08062 25.4626 8.08062 26.425 9.04294L30.8547 13.4727C30.7783 13.3963 27.6164 10.2267 27.5553 10.1427C27.2269 9.71504 27.0436 9.18805 27.0436 8.63815C27.0436 7.98897 27.3033 7.36269 27.7615 6.90445C28.2198 6.4462 28.846 6.18652 29.4952 6.18652C30.1444 6.18652 30.7707 6.4462 31.2289 6.90445L36.9723 12.6478C38.8129 14.4885 39.8516 16.9859 39.8516 19.5979C39.8669 22.2023 38.8282 24.6998 36.9876 26.5404Z" fill="white"/>
<mask id="mask0_4334_1923" style="mask-type:luminance" maskUnits="userSpaceOnUse" x="8" y="6" width="32" height="25">
<path d="M36.9876 26.5404C36.094 27.434 34.6811 28.5643 32.9932 29.4961C30.4041 30.9243 27.3567 31.2909 24.5003 30.5272C21.0864 29.6183 15.4728 28.1137 15.4728 28.1137C14.8465 27.9457 14.3043 27.5333 13.9835 26.9681C13.6551 26.4029 13.5711 25.7308 13.7391 25.1045C13.9071 24.4783 14.3196 23.936 14.8847 23.6152C15.4499 23.2868 16.122 23.2028 16.7483 23.3708L21.0787 24.5317L8.99624 12.4493C8.53799 11.991 8.27832 11.3647 8.27832 10.7155C8.27832 10.0664 8.53799 9.44009 8.99624 8.98184C9.45449 8.52359 10.0808 8.26392 10.7299 8.26392C11.3791 8.26392 12.0054 8.52359 12.4637 8.98184L21.094 17.6122C21.0024 17.5205 17.8252 14.3357 17.7564 14.2364C17.0461 13.2741 17.1302 11.9146 18.0008 11.044C18.9631 10.0816 20.5136 10.0816 21.4759 11.044L26.0431 15.6112C25.9591 15.5272 22.7972 12.35 22.7284 12.266C21.9952 11.3036 22.0716 9.92125 22.9499 9.04294C23.9122 8.08062 25.4626 8.08062 26.425 9.04294L30.8547 13.4727C30.7783 13.3963 27.6164 10.2267 27.5553 10.1427C27.2269 9.71504 27.0436 9.18805 27.0436 8.63815C27.0436 7.98897 27.3033 7.36269 27.7615 6.90445C28.2198 6.4462 28.846 6.18652 29.4952 6.18652C30.1444 6.18652 30.7707 6.4462 31.2289 6.90445L36.9723 12.6478C38.8129 14.4885 39.8516 16.9859 39.8516 19.5979C39.8669 22.2023 38.8282 24.6998 36.9876 26.5404Z" fill="white"/>
</mask>
<g mask="url(#mask0_4334_1923)">
<path fill-rule="evenodd" clip-rule="evenodd" d="M38.8497 14.5112L44.9979 20.6594L29.1119 36.5453C29.1119 36.5453 27.7372 35.1706 26.2937 33.7271C24.4607 31.8941 24.4607 28.9155 26.2937 27.0749C30.9449 22.416 38.8497 14.5112 38.8497 14.5112Z" fill="#E22531"/>
</g>
<path d="M36.9876 26.5404C36.094 27.434 34.6811 28.5643 32.9932 29.4961C30.4041 30.9243 27.3567 31.2909 24.5003 30.5272C21.0864 29.6183 15.4728 28.1137 15.4728 28.1137C14.8465 27.9457 14.3043 27.5333 13.9835 26.9681C13.6551 26.4029 13.5711 25.7308 13.7391 25.1045C13.9071 24.4783 14.3196 23.936 14.8847 23.6152C15.4499 23.2868 16.122 23.2028 16.7483 23.3708L21.0787 24.5317L8.99624 12.4493C8.53799 11.991 8.27832 11.3647 8.27832 10.7155C8.27832 10.0664 8.53799 9.44009 8.99624 8.98184C9.45449 8.52359 10.0808 8.26392 10.7299 8.26392C11.3791 8.26392 12.0054 8.52359 12.4637 8.98184L21.094 17.6122C21.0024 17.5205 17.8252 14.3357 17.7564 14.2364C17.0461 13.2741 17.1302 11.9146 18.0008 11.044C18.9631 10.0816 20.5136 10.0816 21.4759 11.044L26.0431 15.6112C25.9591 15.5272 22.7972 12.35 22.7284 12.266C21.9952 11.3036 22.0716 9.92125 22.9499 9.04294C23.9122 8.08062 25.4626 8.08062 26.425 9.04294L30.8547 13.4727C30.7783 13.3963 27.6164 10.2267 27.5553 10.1427C27.2269 9.71504 27.0436 9.18805 27.0436 8.63815C27.0436 7.98897 27.3033 7.36269 27.7615 6.90445C28.2198 6.4462 28.846 6.18652 29.4952 6.18652C30.1444 6.18652 30.7707 6.4462 31.2289 6.90445L36.9723 12.6478C38.8129 14.4885 39.8516 16.9859 39.8516 19.5979C39.8669 22.2023 38.8282 24.6998 36.9876 26.5404Z" stroke="#1B1A17" stroke-width="2.11787" stroke-miterlimit="1.5" stroke-linecap="round" stroke-linejoin="round"/>
<path d="M3.44238 3.44482L5.25246 5.25491" stroke="#E22531" stroke-width="2.11787" stroke-miterlimit="1.5" stroke-linecap="round" stroke-linejoin="round"/>
<path d="M1.05957 9.19531H3.61812" stroke="#E22531" stroke-width="2.11787" stroke-miterlimit="1.5" stroke-linecap="round" stroke-linejoin="round"/>
<path d="M9.19434 1.06152V3.62008" stroke="#E22531" stroke-width="2.11787" stroke-miterlimit="1.5" stroke-linecap="round" stroke-linejoin="round"/>
<path d="M15.7466 2.64258L13.9365 4.45266" stroke="#E22531" stroke-width="2.11787" stroke-miterlimit="1.5" stroke-linecap="round" stroke-linejoin="round"/>
<path d="M2.64062 15.7412L4.45071 13.9312" stroke="#E22531" stroke-width="2.11787" stroke-miterlimit="1.5" stroke-linecap="round" stroke-linejoin="round"/>
</svg>
