<svg width="55" height="44" viewBox="0 0 55 44" fill="none" xmlns="http://www.w3.org/2000/svg">
<g clip-path="url(#clip0_4334_1910)">
<path d="M46.691 32.6721C45.7643 33.5988 44.2991 34.771 42.5486 35.7373C39.8636 37.2185 36.7033 37.5987 33.741 36.8066C30.2006 35.8641 24.379 34.3037 24.379 34.3037C23.7295 34.1295 23.1671 33.7018 22.8345 33.1157C22.4939 32.5295 22.4068 31.8325 22.581 31.1831C22.7553 30.5336 23.183 29.9712 23.7691 29.6386C24.3552 29.298 25.0522 29.2109 25.7017 29.3851L30.1926 30.589L17.6703 18.0588C17.1951 17.5835 16.9258 16.9341 16.9258 16.2608C16.9258 15.5876 17.1951 14.9381 17.6703 14.4629C18.1455 13.9876 18.795 13.7183 19.4683 13.7183C20.1415 13.7183 20.791 13.9876 21.2662 14.4629L30.2164 23.413C30.1213 23.318 26.8264 20.0151 26.7551 19.9122C26.0185 18.9142 26.1056 17.5043 27.0086 16.6014C28.0066 15.6034 29.6144 15.6034 30.6124 16.6014L35.3489 21.3379C35.2618 21.2507 31.9827 17.9558 31.9114 17.8687C31.151 16.8707 31.2302 15.4371 32.1411 14.5262C33.1391 13.5282 34.7469 13.5282 35.7449 14.5262L40.3388 19.1201C40.2596 19.0409 36.9805 15.7539 36.9171 15.6668C36.5766 15.2232 36.3865 14.6767 36.3865 14.1064C36.3865 13.4332 36.6558 12.7837 37.131 12.3085C37.6062 11.8333 38.2557 11.564 38.9289 11.564C39.6022 11.564 40.2517 11.8333 40.7269 12.3085L46.6831 18.2647C48.592 20.1736 49.6692 22.7636 49.6692 25.4724C49.6771 28.1733 48.6078 30.7633 46.691 32.6721Z" fill="white"/>
<mask id="mask0_4334_1910" style="mask-type:luminance" maskUnits="userSpaceOnUse" x="16" y="11" width="34" height="27">
<path d="M46.691 32.6721C45.7643 33.5988 44.2991 34.771 42.5486 35.7373C39.8636 37.2185 36.7033 37.5987 33.741 36.8066C30.2006 35.8641 24.379 34.3037 24.379 34.3037C23.7295 34.1295 23.1671 33.7018 22.8345 33.1157C22.4939 32.5295 22.4068 31.8325 22.581 31.1831C22.7553 30.5336 23.183 29.9712 23.7691 29.6386C24.3552 29.298 25.0522 29.2109 25.7017 29.3851L30.1926 30.589L17.6703 18.0588C17.1951 17.5835 16.9258 16.9341 16.9258 16.2608C16.9258 15.5876 17.1951 14.9381 17.6703 14.4629C18.1455 13.9876 18.795 13.7183 19.4683 13.7183C20.1415 13.7183 20.791 13.9876 21.2662 14.4629L30.2164 23.413C30.1213 23.318 26.8264 20.0151 26.7551 19.9122C26.0185 18.9142 26.1056 17.5043 27.0086 16.6014C28.0066 15.6034 29.6144 15.6034 30.6124 16.6014L35.3489 21.3379C35.2618 21.2507 31.9827 17.9558 31.9114 17.8687C31.151 16.8707 31.2302 15.4371 32.1411 14.5262C33.1391 13.5282 34.7469 13.5282 35.7449 14.5262L40.3388 19.1201C40.2596 19.0409 36.9805 15.7539 36.9171 15.6668C36.5766 15.2232 36.3865 14.6767 36.3865 14.1064C36.3865 13.4332 36.6558 12.7837 37.131 12.3085C37.6062 11.8333 38.2557 11.564 38.9289 11.564C39.6022 11.564 40.2517 11.8333 40.7269 12.3085L46.6831 18.2647C48.592 20.1736 49.6692 22.7636 49.6692 25.4724C49.6771 28.1733 48.6078 30.7633 46.691 32.6721Z" fill="white"/>
</mask>
<g mask="url(#mask0_4334_1910)">
<path fill-rule="evenodd" clip-rule="evenodd" d="M48.6326 20.1973L55.0086 26.5733L38.5339 43.0479C38.5339 43.0479 37.1082 41.6222 35.6112 40.1253C33.7103 38.2243 33.7103 35.1353 35.6112 33.2265C40.4348 28.395 48.6326 20.1973 48.6326 20.1973Z" fill="#E22531"/>
</g>
<path d="M46.691 32.6721C45.7643 33.5988 44.2991 34.771 42.5486 35.7373C39.8636 37.2185 36.7033 37.5987 33.741 36.8066C30.2006 35.8641 24.379 34.3037 24.379 34.3037C23.7295 34.1295 23.1671 33.7018 22.8345 33.1157C22.4939 32.5295 22.4068 31.8325 22.581 31.1831C22.7553 30.5336 23.183 29.9712 23.7691 29.6386C24.3552 29.298 25.0522 29.2109 25.7017 29.3851L30.1926 30.589L17.6703 18.0588C17.1951 17.5835 16.9258 16.9341 16.9258 16.2608C16.9258 15.5876 17.1951 14.9381 17.6703 14.4629C18.1455 13.9876 18.795 13.7183 19.4683 13.7183C20.1415 13.7183 20.791 13.9876 21.2662 14.4629L30.2164 23.413C30.1213 23.318 26.8264 20.0151 26.7551 19.9122C26.0185 18.9142 26.1056 17.5043 27.0086 16.6014C28.0066 15.6034 29.6144 15.6034 30.6124 16.6014L35.3489 21.3379C35.2618 21.2507 31.9827 17.9558 31.9114 17.8687C31.151 16.8707 31.2302 15.4371 32.1411 14.5262C33.1391 13.5282 34.7469 13.5282 35.7449 14.5262L40.3388 19.1201C40.2596 19.0409 36.9805 15.7539 36.9171 15.6668C36.5766 15.2232 36.3865 14.6767 36.3865 14.1064C36.3865 13.4332 36.6558 12.7837 37.131 12.3085C37.6062 11.8333 38.2557 11.564 38.9289 11.564C39.6022 11.564 40.2517 11.8333 40.7269 12.3085L46.6831 18.2647C48.592 20.1736 49.6692 22.7636 49.6692 25.4724C49.6771 28.1733 48.6078 30.7633 46.691 32.6721Z" stroke="#1B1A17" stroke-width="2.19636" stroke-miterlimit="1.5" stroke-linecap="round" stroke-linejoin="round"/>
<path d="M6.7627 4.4751H29.5738" stroke="#141414" stroke-width="2.19636" stroke-miterlimit="1.5" stroke-linecap="round" stroke-linejoin="round"/>
<path fill-rule="evenodd" clip-rule="evenodd" d="M1.56898 5.34622C1.27592 5.15613 1.09375 4.82346 1.09375 4.47496C1.09375 4.11854 1.268 3.7938 1.56898 3.60371C2.61449 2.92254 4.05602 1.98792 5.15697 1.26716C5.47379 1.06122 5.88566 1.04538 6.22624 1.22755C6.5589 1.40973 6.77275 1.75823 6.77275 2.14633C6.77275 3.54034 6.77275 5.4175 6.77275 6.81151C6.77275 7.1917 6.56682 7.54812 6.22624 7.73029C5.89358 7.91246 5.48171 7.89662 5.15697 7.69069C4.05602 6.962 2.61449 6.02738 1.56898 5.34622Z" fill="white" stroke="#141414" stroke-width="2.19636" stroke-miterlimit="1.5" stroke-linecap="round" stroke-linejoin="round"/>
<path fill-rule="evenodd" clip-rule="evenodd" d="M34.7623 3.6043C35.0553 3.79439 35.2375 4.12706 35.2375 4.47556C35.2375 4.83198 35.0632 5.15672 34.7623 5.34681C33.7247 6.02006 32.2831 6.9626 31.1822 7.68336C30.8654 7.8893 30.4535 7.90514 30.1129 7.72297C29.7803 7.54079 29.5664 7.19229 29.5664 6.80419C29.5664 5.41018 29.5664 3.53302 29.5664 2.13901C29.5664 1.75882 29.7723 1.4024 30.1129 1.22023C30.4456 1.03806 30.8575 1.0539 31.1822 1.25983C32.2831 1.98852 33.7247 2.92314 34.7623 3.6043Z" fill="white" stroke="#141414" stroke-width="2.19636" stroke-miterlimit="1.5" stroke-linecap="round" stroke-linejoin="round"/>
</g>
<defs>
<clipPath id="clip0_4334_1910">
<rect width="55" height="43.048" fill="white"/>
</clipPath>
</defs>
</svg>
