<svg width="50" height="50" viewBox="0 0 50 50" fill="none" xmlns="http://www.w3.org/2000/svg">
<g clip-path="url(#clip0_2258_3007)">
<mask id="mask0_2258_3007" style="mask-type:luminance" maskUnits="userSpaceOnUse" x="2" y="6" width="46" height="40">
<path d="M2.5 6H47.5286V45.2525H2.5V6Z" fill="white"/>
</mask>
<g mask="url(#mask0_2258_3007)">
<path d="M24.9996 6.453C14.6459 6.453 6.25171 14.9808 6.25171 25.5005C6.25171 36.0193 14.6459 44.5468 24.9996 44.5468C35.3547 44.5468 43.7475 36.0193 43.7475 25.5005C43.7475 14.9808 35.3547 6.453 24.9996 6.453Z" fill="#FC4E00"/>
</g>
<mask id="mask1_2258_3007" style="mask-type:luminance" maskUnits="userSpaceOnUse" x="2" y="6" width="46" height="40">
<path d="M2.5 6H47.5286V45.2525H2.5V6Z" fill="white"/>
</mask>
<g mask="url(#mask1_2258_3007)">
<path d="M24.9995 6.90599C14.9078 6.90599 6.69752 15.247 6.69752 25.5005C6.69752 35.7528 14.9078 44.0938 24.9995 44.0938C35.0911 44.0938 43.3014 35.7528 43.3014 25.5005C43.3014 15.247 35.0914 6.90599 24.9995 6.90599ZM24.9995 45.0001C14.4166 45.0001 5.80566 36.2533 5.80566 25.5005C5.80566 14.7476 14.4166 5.99994 24.9995 5.99994C35.5838 5.99994 44.1945 14.7479 44.1945 25.5005C44.1945 36.253 35.5838 45.0001 24.9995 45.0001Z" fill="white"/>
</g>
<mask id="mask2_2258_3007" style="mask-type:luminance" maskUnits="userSpaceOnUse" x="2" y="6" width="46" height="40">
<path d="M2.5 6H47.5286V45.2525H2.5V6Z" fill="white"/>
</mask>
<g mask="url(#mask2_2258_3007)">
<path d="M24.9996 6.453C14.6459 6.453 6.25171 14.9808 6.25171 25.5005C6.25171 36.0193 14.6459 44.5468 24.9996 44.5468C35.3547 44.5468 43.7475 36.0193 43.7475 25.5005C43.7475 14.9808 35.3547 6.453 24.9996 6.453Z" fill="#FC4E00"/>
</g>
<mask id="mask3_2258_3007" style="mask-type:luminance" maskUnits="userSpaceOnUse" x="2" y="6" width="46" height="40">
<path d="M2.5 6H47.5286V45.2525H2.5V6Z" fill="white"/>
</mask>
<g mask="url(#mask3_2258_3007)">
<path d="M17.0414 38.6894C17.2296 38.8128 17.3705 38.8045 17.4623 38.6617L17.5565 38.5165C17.6494 38.3715 17.6018 38.237 17.4135 38.1131L16.5975 37.5768L16.2253 38.1532L17.0414 38.6894ZM16.8735 38.9489L16.0586 38.4114L15.6908 38.981L16.5057 39.517C16.6951 39.6415 16.8348 39.6324 16.9278 39.4907L17.0164 39.3523C17.1094 39.2071 17.0629 39.0731 16.8735 38.9489ZM17.3784 39.0985C17.4338 39.2472 17.4149 39.3937 17.3217 39.5379L17.216 39.7015C17.1277 39.8387 17.0051 39.9196 16.8517 39.9426C16.7051 39.9634 16.5387 39.9123 16.3526 39.7891L15.2234 39.0468L16.4694 37.1182L17.5974 37.8616C17.7845 37.985 17.8969 38.1175 17.9356 38.2627C17.9774 38.415 17.9524 38.5602 17.8629 38.6998L17.7517 38.8704C17.6587 39.0156 17.535 39.0905 17.3784 39.0985Z" fill="#F3F3F4"/>
</g>
<mask id="mask4_2258_3007" style="mask-type:luminance" maskUnits="userSpaceOnUse" x="2" y="6" width="46" height="40">
<path d="M2.5 6H47.5286V45.2525H2.5V6Z" fill="white"/>
</mask>
<g mask="url(#mask4_2258_3007)">
<path d="M18.8036 40.1591L18.2917 39.9206C18.1273 39.8433 18.0117 39.8767 17.9481 40.0186L17.9231 40.0703C17.8595 40.2099 17.9106 40.3194 18.075 40.3955L18.5869 40.6343C18.7562 40.7136 18.8727 40.6828 18.9364 40.5419L18.959 40.4899C19.0249 40.3481 18.9731 40.2378 18.8036 40.1591ZM17.8696 40.6411C17.7188 40.5704 17.6189 40.472 17.5701 40.3459C17.519 40.2178 17.5236 40.0877 17.5861 39.9528L17.6361 39.8409C17.6994 39.7037 17.7938 39.614 17.9231 39.57C18.0503 39.5232 18.1895 39.5351 18.3405 39.6057L19.1839 39.9988L19.1871 39.9909C19.2644 39.8235 19.2109 39.6969 19.0293 39.6128L18.0933 39.1757L18.2191 38.8968L19.1508 39.3316C19.345 39.4223 19.4706 39.5413 19.5276 39.6887C19.588 39.8343 19.5763 39.9987 19.4924 40.1821L19.2394 40.7367C19.1745 40.8787 19.0761 40.9683 18.9442 41.0052C18.8239 41.0401 18.6857 41.0203 18.5291 40.9489L17.8696 40.6411Z" fill="#F3F3F4"/>
</g>
<mask id="mask5_2258_3007" style="mask-type:luminance" maskUnits="userSpaceOnUse" x="2" y="6" width="46" height="40">
<path d="M2.5 6H47.5286V45.2525H2.5V6Z" fill="white"/>
</mask>
<g mask="url(#mask5_2258_3007)">
<path d="M20.9188 40.7366C21.1028 40.7942 21.2284 40.865 21.2956 40.9488C21.3816 41.0546 21.4012 41.1853 21.3545 41.3407L21.3162 41.4641C21.2703 41.6176 21.1825 41.7141 21.0527 41.7536C20.9519 41.7822 20.8078 41.7684 20.6228 41.7108L19.54 41.3752L19.6298 41.0757L20.7122 41.4121C20.8618 41.4582 20.9522 41.4298 20.9836 41.3268L21.0039 41.2601C21.0347 41.1551 20.9769 41.0789 20.827 41.0329L20.2663 40.8576C20.0847 40.8012 19.9601 40.7333 19.8918 40.6513C19.8078 40.5445 19.7889 40.4146 19.8352 40.2617L19.8727 40.136C19.9203 39.9781 20.0078 39.8813 20.1347 39.842C20.237 39.8108 20.3799 39.8234 20.5603 39.8801L21.5986 40.2018L21.5079 40.5014L20.4763 40.1809C20.3288 40.1348 20.2391 40.1648 20.2073 40.2709L20.187 40.339C20.155 40.4438 20.2131 40.5176 20.3584 40.5625L20.9188 40.7366Z" fill="#F3F3F4"/>
</g>
<mask id="mask6_2258_3007" style="mask-type:luminance" maskUnits="userSpaceOnUse" x="2" y="6" width="46" height="40">
<path d="M2.5 6H47.5286V45.2525H2.5V6Z" fill="white"/>
</mask>
<g mask="url(#mask6_2258_3007)">
<path d="M22.4178 41.2118L22.9761 41.3051C23.1574 41.3352 23.2604 41.2741 23.285 41.1218L23.294 41.0652C23.3191 40.9109 23.2409 40.8187 23.0592 40.7886L22.5009 40.6954C22.3204 40.6653 22.2182 40.7274 22.1944 40.8819L22.1854 40.9386C22.1608 41.0906 22.2383 41.1817 22.4178 41.2118ZM23.6493 41.0941L23.6298 41.2127C23.6069 41.3597 23.5381 41.4712 23.4232 41.5471C23.3132 41.6246 23.1763 41.6496 23.0125 41.6221L22.1003 41.4701L22.0979 41.4816C22.0695 41.6622 22.1534 41.7687 22.3498 41.8009L23.4267 41.9807L23.3779 42.2861L22.3045 42.1076C22.0959 42.0727 21.9435 41.9924 21.8472 41.8665C21.7527 41.7433 21.7213 41.5827 21.7528 41.3848L21.8484 40.7945C21.8722 40.6458 21.9403 40.5328 22.0526 40.4554C22.163 40.3771 22.301 40.3517 22.4666 40.3793L23.1885 40.4994C23.3543 40.5269 23.4776 40.5961 23.5583 40.7069C23.6432 40.8163 23.6735 40.9453 23.6493 41.0941Z" fill="#F3F3F4"/>
</g>
<mask id="mask7_2258_3007" style="mask-type:luminance" maskUnits="userSpaceOnUse" x="2" y="6" width="46" height="40">
<path d="M2.5 6H47.5286V45.2525H2.5V6Z" fill="white"/>
</mask>
<g mask="url(#mask7_2258_3007)">
<path d="M24.3255 41.6336C24.323 41.7617 24.3449 41.8597 24.3912 41.9276C24.4493 42.0075 24.5401 42.0486 24.6637 42.0509L25.0823 42.0616C25.2058 42.0649 25.2993 42.0279 25.3626 41.9506C25.411 41.8861 25.4368 41.7896 25.4399 41.6614L25.4454 41.3789C25.4477 41.2476 25.4262 41.1496 25.3798 41.0814C25.3195 41 25.2276 40.9578 25.1041 40.9548L24.3403 40.9362L24.3255 41.6336ZM23.9702 41.6431L24.0022 40.037L24.356 40.0449L24.3458 40.6225L25.1369 40.6423C25.3457 40.6513 25.509 40.7185 25.627 40.8438C25.7472 40.9672 25.8053 41.1413 25.8007 41.3686L25.7952 41.6879C25.7905 41.9126 25.7258 42.0836 25.6011 42.2009C25.4774 42.3195 25.3106 42.3785 25.0994 42.375L24.634 42.3647C24.4229 42.3564 24.2584 42.2899 24.1405 42.1652C24.0225 42.0418 23.9658 41.8678 23.9702 41.6431Z" fill="#F3F3F4"/>
</g>
<mask id="mask8_2258_3007" style="mask-type:luminance" maskUnits="userSpaceOnUse" x="2" y="6" width="46" height="40">
<path d="M2.5 6H47.5286V45.2525H2.5V6Z" fill="white"/>
</mask>
<g mask="url(#mask8_2258_3007)">
<path d="M27.3574 41.4007L26.7981 41.4677C26.6176 41.4894 26.5371 41.5777 26.5564 41.7328L26.5631 41.7906C26.5823 41.9426 26.6811 42.0096 26.8615 41.9878L27.4198 41.9219C27.6048 41.9003 27.6877 41.8122 27.6685 41.6578L27.6615 41.6014C27.6435 41.4459 27.5413 41.3789 27.3574 41.4007ZM26.8138 42.3059C26.6492 42.3256 26.5131 42.2944 26.4054 42.2123C26.2963 42.1303 26.2328 42.0154 26.2148 41.8676L26.2 41.7455C26.182 41.5955 26.216 41.4689 26.3022 41.3627C26.3874 41.2555 26.5108 41.1921 26.6756 41.1726L27.5959 41.0643L27.5947 41.0548C27.5732 40.8719 27.4631 40.792 27.2644 40.8152L26.241 40.9374L26.2046 40.6319L27.2214 40.5109C27.4333 40.4857 27.6016 40.521 27.7263 40.6169C27.853 40.7093 27.9286 40.8561 27.9532 41.0572L28.027 41.6649C28.0453 41.8192 28.009 41.9485 27.9169 42.0497C27.8321 42.143 27.7046 42.2 27.5346 42.2206L26.8138 42.3059Z" fill="#F3F3F4"/>
</g>
<mask id="mask9_2258_3007" style="mask-type:luminance" maskUnits="userSpaceOnUse" x="2" y="6" width="46" height="40">
<path d="M2.5 6H47.5286V45.2525H2.5V6Z" fill="white"/>
</mask>
<g mask="url(#mask9_2258_3007)">
<path d="M28.5672 42.0395L28.0713 39.78L28.4231 39.7026L28.919 41.9625L28.5672 42.0395Z" fill="#F3F3F4"/>
</g>
<mask id="mask10_2258_3007" style="mask-type:luminance" maskUnits="userSpaceOnUse" x="2" y="6" width="46" height="40">
<path d="M2.5 6H47.5286V45.2525H2.5V6Z" fill="white"/>
</mask>
<g mask="url(#mask10_2258_3007)">
<path d="M29.363 41.8525L28.7546 39.6207L29.1041 39.5262L29.7113 41.758L29.363 41.8525Z" fill="#F3F3F4"/>
</g>
<mask id="mask11_2258_3007" style="mask-type:luminance" maskUnits="userSpaceOnUse" x="2" y="6" width="46" height="40">
<path d="M2.5 6H47.5286V45.2525H2.5V6Z" fill="white"/>
</mask>
<g mask="url(#mask11_2258_3007)">
<path d="M30.7453 40.5488L30.5036 40.0163C30.3967 39.7835 30.381 39.5574 30.4592 39.342C30.5274 39.1401 30.6872 38.9822 30.9382 38.8656L32.0421 38.3598L32.1717 38.6443L31.0823 39.1448C30.9291 39.2151 30.8303 39.3223 30.786 39.4665C30.7485 39.5955 30.7656 39.7339 30.8348 39.8815L31.0628 40.3817C31.1287 40.5289 31.2221 40.6311 31.3432 40.6884C31.4807 40.7486 31.6259 40.7436 31.7789 40.6733L32.8683 40.1742L32.9976 40.4579L31.8948 40.9652C31.6438 41.0805 31.4203 41.0989 31.2241 41.0204C31.0101 40.9358 30.8505 40.7786 30.7453 40.5488Z" fill="#F3F3F4"/>
</g>
<mask id="mask12_2258_3007" style="mask-type:luminance" maskUnits="userSpaceOnUse" x="2" y="6" width="46" height="40">
<path d="M2.5 6H47.5286V45.2525H2.5V6Z" fill="white"/>
</mask>
<g mask="url(#mask12_2258_3007)">
<path d="M33.4333 40.1755L32.2861 38.1683L32.5981 37.9885L33.7456 39.9945L33.4333 40.1755Z" fill="#F3F3F4"/>
</g>
<mask id="mask13_2258_3007" style="mask-type:luminance" maskUnits="userSpaceOnUse" x="2" y="6" width="46" height="40">
<path d="M2.5 6H47.5286V45.2525H2.5V6Z" fill="white"/>
</mask>
<g mask="url(#mask13_2258_3007)">
<path d="M34.7225 39.3486C34.5444 39.4767 34.3672 39.5263 34.188 39.495C34.0113 39.4653 33.8555 39.3566 33.7205 39.1689L33.1372 38.3584L33.4242 38.1486L33.9962 38.9428C34.0802 39.0594 34.1618 39.1308 34.2426 39.1538C34.3491 39.1802 34.4535 39.1564 34.5558 39.0824L34.8009 38.9035C34.9061 38.8276 34.9621 38.735 34.9689 38.6258C34.9744 38.5393 34.9357 38.4366 34.8506 38.3204L34.2801 37.527L34.5682 37.3172L35.1516 38.1276C35.2852 38.3156 35.3398 38.4989 35.3125 38.6778C35.2862 38.8572 35.1833 39.012 35.004 39.1423L34.7225 39.3486Z" fill="#F3F3F4"/>
</g>
<mask id="mask14_2258_3007" style="mask-type:luminance" maskUnits="userSpaceOnUse" x="2" y="6" width="46" height="40">
<path d="M2.5 6H47.5286V45.2525H2.5V6Z" fill="white"/>
</mask>
<g mask="url(#mask14_2258_3007)">
<path d="M35.7325 37.6239C35.8207 37.7163 35.905 37.7702 35.9856 37.7853C36.081 37.8003 36.1737 37.7646 36.2636 37.6782L36.5643 37.3866C36.6528 37.2986 36.6921 37.2056 36.6822 37.1074C36.671 37.0257 36.6207 36.939 36.5314 36.8471L36.3362 36.6429C36.2461 36.5484 36.1614 36.4938 36.082 36.4791C35.9823 36.4647 35.8877 36.5009 35.7982 36.5877L35.2488 37.1201L35.7325 37.6239ZM35.4897 37.8845L34.3796 36.7258L34.635 36.4782L35.0333 36.8955L35.6018 36.343C35.7552 36.2004 35.9171 36.1308 36.0875 36.1343C36.2587 36.1357 36.4229 36.2184 36.5799 36.3823L36.8001 36.6119C36.9551 36.7742 37.0304 36.9413 37.0262 37.1133C37.0238 37.2851 36.9477 37.4465 36.7969 37.5952L36.4632 37.919C36.3102 38.0656 36.1479 38.1367 35.9763 38.1324C35.8072 38.13 35.6439 38.0471 35.4897 37.8845Z" fill="#F3F3F4"/>
</g>
<mask id="mask15_2258_3007" style="mask-type:luminance" maskUnits="userSpaceOnUse" x="2" y="6" width="46" height="40">
<path d="M2.5 6H47.5286V45.2525H2.5V6Z" fill="white"/>
</mask>
<g mask="url(#mask15_2258_3007)">
<path d="M18.4994 9.67654L19.5037 11.754L19.1827 11.9142L18.6528 10.8178L17.4419 11.4231L17.9707 12.5184L17.6505 12.6786L16.6462 10.6L16.9664 10.4409L17.3034 11.1372L18.5165 10.533L18.1795 9.8368L18.4994 9.67654Z" fill="#F3F3F4"/>
</g>
<mask id="mask16_2258_3007" style="mask-type:luminance" maskUnits="userSpaceOnUse" x="2" y="6" width="46" height="40">
<path d="M2.5 6H47.5286V45.2525H2.5V6Z" fill="white"/>
</mask>
<g mask="url(#mask16_2258_3007)">
<path d="M20.5931 10.5146L20.0542 10.6888C19.8805 10.745 19.817 10.848 19.8637 10.9978L19.8817 11.0518C19.927 11.2005 20.0371 11.2454 20.212 11.1902L20.7497 11.0149C20.9279 10.9582 20.9937 10.856 20.9473 10.7082L20.9301 10.653C20.8825 10.5031 20.7715 10.4571 20.5931 10.5146ZM20.2222 11.5131C20.0634 11.5648 19.9234 11.5602 19.8024 11.4992C19.6798 11.4393 19.597 11.3389 19.5514 11.197L19.5151 11.0783C19.4701 10.9347 19.4808 10.8025 19.547 10.6817C19.6104 10.5597 19.7215 10.4728 19.8805 10.4211L20.768 10.1354L20.7645 10.1259C20.7091 9.94965 20.5863 9.89239 20.3959 9.95417L19.4096 10.2726L19.3167 9.97838L20.2983 9.6614C20.5026 9.59549 20.6747 9.59825 20.8145 9.66967C20.9563 9.73519 21.0585 9.86564 21.1187 10.0592L21.3014 10.6436C21.3479 10.7935 21.3354 10.9272 21.2616 11.0462C21.1957 11.1544 21.0808 11.235 20.9168 11.2882L20.2222 11.5131Z" fill="#F3F3F4"/>
</g>
<mask id="mask17_2258_3007" style="mask-type:luminance" maskUnits="userSpaceOnUse" x="2" y="6" width="46" height="40">
<path d="M2.5 6H47.5286V45.2525H2.5V6Z" fill="white"/>
</mask>
<g mask="url(#mask17_2258_3007)">
<path d="M22.1059 9.21982L22.4522 9.15991C22.671 9.12174 22.8541 9.15637 23.0012 9.26379C23.1475 9.37162 23.2401 9.54063 23.2793 9.77083L23.444 10.7542L23.0922 10.8141L22.9298 9.84934C22.9061 9.70669 22.8615 9.60713 22.7959 9.55066C22.7119 9.47806 22.6076 9.4515 22.4783 9.47452L22.1785 9.52528C22.0536 9.54751 21.9633 9.60713 21.9075 9.70413C21.8678 9.7789 21.8598 9.8876 21.8837 10.0303L22.0446 10.9953L21.6928 11.0564L21.5284 10.0742C21.4898 9.84383 21.5224 9.65317 21.626 9.50226C21.7292 9.35096 21.8892 9.25681 22.1059 9.21982Z" fill="#F3F3F4"/>
</g>
<mask id="mask18_2258_3007" style="mask-type:luminance" maskUnits="userSpaceOnUse" x="2" y="6" width="46" height="40">
<path d="M2.5 6H47.5286V45.2525H2.5V6Z" fill="white"/>
</mask>
<g mask="url(#mask18_2258_3007)">
<path d="M24.9733 10.4626C24.8463 10.6179 24.6885 10.6959 24.5001 10.6967H24.2802C24.0826 10.6977 23.9249 10.6346 23.807 10.5075C23.696 10.3887 23.64 10.2207 23.639 10.0037L23.6367 8.95805L23.9908 8.95717L23.9929 10.0061C23.9929 10.1326 24.0202 10.2252 24.0748 10.2841C24.1362 10.35 24.2164 10.383 24.3153 10.3832L24.4708 10.3821C24.5715 10.3821 24.6524 10.3486 24.7136 10.2817C24.769 10.2237 24.7966 10.131 24.7964 10.0037L24.7941 8.95599L25.1447 8.95481L25.1471 10.0025C25.1482 10.1294 25.1744 10.223 25.2275 10.2805C25.2901 10.3464 25.3707 10.3795 25.4692 10.3797H25.6238C25.7258 10.3785 25.8065 10.3464 25.8678 10.2794C25.9232 10.2209 25.9508 10.128 25.9506 10.0005L25.9483 8.95244L26.3024 8.95126L26.3044 9.99692C26.3044 10.2147 26.2478 10.3832 26.1322 10.5019C26.016 10.6298 25.8578 10.6935 25.6578 10.6931L25.4411 10.6943C25.2563 10.6943 25.1004 10.6171 24.9733 10.4626Z" fill="#F3F3F4"/>
</g>
<mask id="mask19_2258_3007" style="mask-type:luminance" maskUnits="userSpaceOnUse" x="2" y="6" width="46" height="40">
<path d="M2.5 6H47.5286V45.2525H2.5V6Z" fill="white"/>
</mask>
<g mask="url(#mask19_2258_3007)">
<path d="M27.4688 9.46304C27.3433 9.4414 27.2381 9.46757 27.1533 9.54155C27.0923 9.59821 27.05 9.69817 27.0263 9.8414L26.8674 10.8074L26.5156 10.7475L26.8924 8.45782L27.2442 8.51892L27.133 9.19447C27.2475 9.14238 27.3749 9.12674 27.4984 9.14961L27.8444 9.20834C28.0633 9.24573 28.2248 9.33948 28.329 9.48961C28.4328 9.64052 28.4661 9.83117 28.4289 10.0616L28.2665 11.0438L27.9147 10.985L28.0736 10.0188C28.0974 9.87593 28.0861 9.76762 28.0431 9.69266C27.9885 9.59566 27.8966 9.53604 27.7674 9.51381L27.4688 9.46304Z" fill="#F3F3F4"/>
</g>
<mask id="mask20_2258_3007" style="mask-type:luminance" maskUnits="userSpaceOnUse" x="2" y="6" width="46" height="40">
<path d="M2.5 6H47.5286V45.2525H2.5V6Z" fill="white"/>
</mask>
<g mask="url(#mask20_2258_3007)">
<path d="M29.8498 10.6551L29.3106 10.4833C29.1363 10.427 29.0259 10.474 28.9792 10.6241L28.9623 10.6793C28.917 10.8269 28.9803 10.9284 29.1552 10.985L29.6941 11.1568C29.8715 11.2143 29.9832 11.1685 30.0291 11.0196L30.0459 10.9653C30.0936 10.8153 30.0267 10.7118 29.8498 10.6551ZM28.9803 11.2548C28.8217 11.204 28.7102 11.1187 28.6457 10.9989C28.5789 10.8776 28.5672 10.7475 28.6117 10.6046L28.648 10.4869C28.6922 10.3428 28.7773 10.2401 28.8987 10.1802C29.0205 10.118 29.1605 10.1122 29.3185 10.1628L30.2072 10.4464L30.2095 10.4385C30.2651 10.2612 30.197 10.142 30.0052 10.0811L29.0178 9.76645L29.1099 9.47131L30.0915 9.78474C30.2957 9.85046 30.4352 9.95346 30.5102 10.0937C30.5886 10.2307 30.5977 10.3964 30.5375 10.5907L30.3559 11.1751C30.3094 11.325 30.222 11.4277 30.0959 11.4818C29.9803 11.5315 29.8403 11.5301 29.6761 11.4773L28.9803 11.2548Z" fill="#F3F3F4"/>
</g>
<mask id="mask21_2258_3007" style="mask-type:luminance" maskUnits="userSpaceOnUse" x="2" y="6" width="46" height="40">
<path d="M2.5 6H47.5286V45.2525H2.5V6Z" fill="white"/>
</mask>
<g mask="url(#mask21_2258_3007)">
<path d="M37.6923 25.5005C37.6923 32.6217 32.0103 38.3954 24.9995 38.3954C17.9898 38.3954 12.3081 32.6217 12.3081 25.5005C12.3081 18.3781 17.9898 12.6047 24.9995 12.6047C32.0103 12.6047 37.6923 18.3781 37.6923 25.5005Z" fill="white"/>
</g>
<mask id="mask22_2258_3007" style="mask-type:luminance" maskUnits="userSpaceOnUse" x="2" y="6" width="46" height="40">
<path d="M2.5 6H47.5286V45.2525H2.5V6Z" fill="white"/>
</mask>
<g mask="url(#mask22_2258_3007)">
<path d="M37.1975 27.0592C37.1857 27.0438 37.171 27.0309 37.1543 27.0214C37.1411 27.0141 37.1263 27.0105 37.1113 27.0108C37.0238 27.0178 37.0012 27.1377 36.9829 27.2047C36.8691 27.6272 36.7466 28.0473 36.6154 28.4646L36.6084 28.4876L36.6174 28.5085C36.7025 28.7343 36.7661 28.9684 36.8059 29.2059C36.8138 29.2567 36.8478 29.3281 36.9114 29.3131C36.9274 29.3085 36.9419 29.2997 36.9535 29.2877C37.043 29.2071 37.0738 29.0537 37.059 28.9386C37.0336 28.7355 36.9876 28.5357 36.9216 28.3424C37.025 28.0127 37.1226 27.676 37.2097 27.3475C37.2246 27.2911 37.2382 27.2392 37.2327 27.1805C37.228 27.1377 37.2202 27.0928 37.1975 27.0592Z" fill="#EBBC95"/>
</g>
<mask id="mask23_2258_3007" style="mask-type:luminance" maskUnits="userSpaceOnUse" x="2" y="6" width="46" height="40">
<path d="M2.5 6H47.5286V45.2525H2.5V6Z" fill="white"/>
</mask>
<g mask="url(#mask23_2258_3007)">
<path d="M36.3541 27.5629C36.2202 27.4776 36.1464 27.6795 36.1182 27.7739C35.9811 28.2197 35.838 28.6637 35.6891 29.1056L35.679 29.1377L35.6981 29.1655C35.8434 29.3729 35.9773 29.5943 36.0921 29.8204C36.1385 29.9116 36.2271 29.9366 36.294 29.8481C36.3576 29.764 36.4154 29.6026 36.3689 29.4987C36.2855 29.3082 36.188 29.1244 36.0772 28.9488C36.1929 28.6018 36.3065 28.242 36.4119 27.8881C36.4369 27.8064 36.4505 27.7358 36.4212 27.6529C36.4084 27.6167 36.385 27.5853 36.3541 27.5629Z" fill="#EBBC95"/>
</g>
<mask id="mask24_2258_3007" style="mask-type:luminance" maskUnits="userSpaceOnUse" x="2" y="6" width="46" height="40">
<path d="M2.5 6H47.5286V45.2525H2.5V6Z" fill="white"/>
</mask>
<g mask="url(#mask24_2258_3007)">
<path d="M34.9643 29.6945C35.0857 29.3256 35.206 28.9555 35.3196 28.5937C35.3591 28.4703 35.3672 28.3366 35.231 28.2743C35.208 28.2632 35.1826 28.2584 35.1572 28.2605C35.0459 28.2743 34.9869 28.4195 34.9596 28.5116C34.8213 28.9781 34.6734 29.4417 34.516 29.902L34.5012 29.9448L34.5343 29.9734C34.7397 30.1534 34.937 30.3494 35.1185 30.5545C35.1393 30.5801 35.1664 30.5996 35.197 30.6112C35.197 30.6112 35.2513 30.618 35.2626 30.6144C35.4172 30.5708 35.5078 30.3125 35.4059 30.1824C35.2705 30.0091 35.1229 29.8461 34.9643 29.6945Z" fill="#EBBC95"/>
</g>
<mask id="mask25_2258_3007" style="mask-type:luminance" maskUnits="userSpaceOnUse" x="2" y="6" width="46" height="40">
<path d="M2.5 6H47.5286V45.2525H2.5V6Z" fill="white"/>
</mask>
<g mask="url(#mask25_2258_3007)">
<path d="M34.2267 30.9858C34.0377 30.8387 33.8407 30.7025 33.6367 30.5777C33.7477 30.2043 33.8612 29.8319 33.9737 29.4665C33.9975 29.3904 34.0167 29.3086 33.9713 29.2348C33.9304 29.1678 33.8464 29.1401 33.7726 29.1563C33.6378 29.1852 33.5911 29.3003 33.5559 29.4202C33.4209 29.8884 33.284 30.3561 33.1451 30.8232L33.1306 30.874L33.1759 30.8994C33.4412 31.0529 33.7005 31.2167 33.9533 31.3905C34.0338 31.446 34.1303 31.446 34.2006 31.3745C34.297 31.2765 34.3505 31.0826 34.2267 30.9858Z" fill="#EBBC95"/>
</g>
<mask id="mask26_2258_3007" style="mask-type:luminance" maskUnits="userSpaceOnUse" x="2" y="6" width="46" height="40">
<path d="M2.5 6H47.5286V45.2525H2.5V6Z" fill="white"/>
</mask>
<g mask="url(#mask26_2258_3007)">
<path d="M32.8852 31.9003C32.6487 31.7828 32.4072 31.6763 32.1612 31.581C32.2609 31.2133 32.3553 30.8384 32.4413 30.4754C32.4573 30.4096 32.4756 30.3347 32.4358 30.2736C32.4169 30.2463 32.3924 30.2237 32.3639 30.2071C32.3354 30.1906 32.3037 30.1806 32.2711 30.1779C32.1078 30.1664 32.016 30.3311 31.9805 30.4683C31.8614 30.9339 31.7476 31.4008 31.6392 31.869L31.6267 31.9257L31.6799 31.9452C31.9969 32.0651 32.3113 32.1919 32.6229 32.3256C32.6612 32.3451 32.7042 32.3529 32.7468 32.3479C32.7893 32.343 32.8295 32.3256 32.8625 32.2979C32.9078 32.2579 32.9421 32.2068 32.9622 32.1494C32.9985 32.057 32.986 31.944 32.8852 31.9003Z" fill="#EBBC95"/>
</g>
<mask id="mask27_2258_3007" style="mask-type:luminance" maskUnits="userSpaceOnUse" x="2" y="6" width="46" height="40">
<path d="M2.5 6H47.5286V45.2525H2.5V6Z" fill="white"/>
</mask>
<g mask="url(#mask27_2258_3007)">
<path d="M31.5442 32.9502C31.5203 32.922 31.4886 32.9015 31.4533 32.8915C31.1788 32.797 30.8961 32.7174 30.6126 32.6563C30.6704 32.3104 30.736 31.9577 30.8066 31.6074C30.8406 31.4713 30.7668 31.342 30.6192 31.3397C30.44 31.3376 30.3447 31.4769 30.3127 31.636C30.261 31.8951 30.2118 32.1561 30.1652 32.419C30.1347 32.605 30.106 32.7914 30.0792 32.978L30.071 33.0402L30.13 33.0517C30.4966 33.1255 30.8667 33.2144 31.2276 33.3147C31.2601 33.3251 31.2911 33.3304 31.3205 33.3306C31.4216 33.3306 31.5169 33.2592 31.5599 33.1683C31.5962 33.0934 31.5907 33.0081 31.5442 32.9502Z" fill="#EBBC95"/>
</g>
<mask id="mask28_2258_3007" style="mask-type:luminance" maskUnits="userSpaceOnUse" x="2" y="6" width="46" height="40">
<path d="M2.5 6H47.5286V45.2525H2.5V6Z" fill="white"/>
</mask>
<g mask="url(#mask28_2258_3007)">
<path d="M30.089 33.9788L30.0754 33.9673C30.0438 33.9463 30.0081 33.9326 29.9708 33.9269C29.6613 33.8662 29.3499 33.8162 29.0371 33.777C29.0619 33.4546 29.0948 33.1329 29.1359 32.8122C29.1605 32.6174 28.9871 32.5227 28.8146 32.5861C28.6943 32.631 28.6228 32.7476 28.6193 32.8753C28.5697 33.2872 28.539 33.7013 28.5275 34.1161L28.5264 34.1772L28.5853 34.1828C28.986 34.2197 29.3866 34.2752 29.7747 34.3454C29.803 34.3533 29.8302 34.3571 29.8563 34.3569C29.9084 34.3559 29.9592 34.3408 30.0035 34.313C30.0478 34.2852 30.084 34.2458 30.1082 34.199C30.1252 34.1641 30.1324 34.125 30.129 34.0862C30.1256 34.0474 30.1118 34.0102 30.089 33.9788Z" fill="#EBBC95"/>
</g>
<mask id="mask29_2258_3007" style="mask-type:luminance" maskUnits="userSpaceOnUse" x="2" y="6" width="46" height="40">
<path d="M2.5 6H47.5286V45.2525H2.5V6Z" fill="white"/>
</mask>
<g mask="url(#mask29_2258_3007)">
<path d="M28.6878 35.0335C28.6558 34.9827 28.5934 34.9538 28.5289 34.9538C28.1983 34.9174 27.8668 34.8893 27.5348 34.8697C27.527 34.5789 27.5209 34.2899 27.5165 34.0029C27.5153 33.9326 27.4996 33.8633 27.4337 33.8264C27.3905 33.8046 27.3422 33.7955 27.2942 33.7998C27.1252 33.8102 27.0002 33.9279 27.0037 34.1044C27.0069 34.4674 27.0229 34.834 27.0514 35.1949L27.0557 35.2513L27.1115 35.2548C27.5336 35.2838 27.9557 35.3147 28.3723 35.346C28.3917 35.3492 28.4106 35.3506 28.429 35.3504C28.555 35.3504 28.6933 35.2675 28.7081 35.1291C28.7128 35.0958 28.7055 35.0619 28.6878 35.0335Z" fill="#EBBC95"/>
</g>
<mask id="mask30_2258_3007" style="mask-type:luminance" maskUnits="userSpaceOnUse" x="2" y="6" width="46" height="40">
<path d="M2.5 6H47.5286V45.2525H2.5V6Z" fill="white"/>
</mask>
<g mask="url(#mask30_2258_3007)">
<path d="M27.3157 35.9479C27.2748 35.919 27.2204 35.9098 27.1716 35.9098C26.8346 35.9028 26.4918 35.8936 26.1549 35.8809C26.1037 35.633 26.0628 35.3851 26.0311 35.1454C26.0186 35.0578 25.971 34.9943 25.8859 34.9737C25.7966 34.9538 25.7032 34.9694 25.625 35.0174C25.5407 35.0693 25.5125 35.1605 25.525 35.2561C25.5766 35.5729 25.6439 35.8869 25.7269 36.1967L25.7394 36.2442L25.7871 36.2451C26.2115 36.251 26.6348 36.2569 27.0525 36.2613C27.0671 36.2637 27.0842 36.2649 27.099 36.2649C27.1931 36.2649 27.3032 36.2315 27.3544 36.1439C27.3666 36.1237 27.3742 36.1009 27.3763 36.0773C27.3785 36.0537 27.3753 36.0299 27.3669 36.0078C27.3555 35.9835 27.3378 35.9628 27.3157 35.9479Z" fill="#EBBC95"/>
</g>
<mask id="mask31_2258_3007" style="mask-type:luminance" maskUnits="userSpaceOnUse" x="2" y="6" width="46" height="40">
<path d="M2.5 6H47.5286V45.2525H2.5V6Z" fill="white"/>
</mask>
<g mask="url(#mask31_2258_3007)">
<path d="M26.1084 36.7869C26.064 36.7571 26.0015 36.7548 25.9507 36.7536L24.9383 36.7329C24.8557 36.5374 24.7812 36.3385 24.7149 36.1368C24.7058 36.1052 24.6888 36.0766 24.6655 36.0538C24.6422 36.031 24.6135 36.0147 24.5821 36.0066C24.5431 35.9973 24.5028 35.9949 24.463 35.9995C24.4061 36.0031 24.3483 36.0146 24.3018 36.047C24.2315 36.0966 24.2201 36.184 24.2495 36.2625C24.3358 36.5196 24.4412 36.7734 24.565 37.0142L24.5821 37.0475L24.6196 37.0487C24.8906 37.0591 25.1631 37.065 25.433 37.065C25.5806 37.065 25.7282 37.0626 25.8723 37.0602C25.9414 37.0579 26.0222 37.0579 26.0846 37.021C26.1035 37.0103 26.1201 36.9958 26.1333 36.9784C26.1466 36.961 26.1562 36.941 26.1616 36.9198C26.1666 36.8948 26.1642 36.8688 26.1547 36.8452C26.1452 36.8216 26.1292 36.8013 26.1084 36.7869Z" fill="#EBBC95"/>
</g>
<mask id="mask32_2258_3007" style="mask-type:luminance" maskUnits="userSpaceOnUse" x="2" y="6" width="46" height="40">
<path d="M2.5 6H47.5286V45.2525H2.5V6Z" fill="white"/>
</mask>
<g mask="url(#mask32_2258_3007)">
<path d="M25.088 37.4775C25.0427 37.4247 24.9416 37.4132 24.8838 37.412C24.5581 37.4026 24.2313 37.3934 23.9056 37.3819C23.7906 37.2368 23.6877 37.0822 23.598 36.9197C23.5457 36.8238 23.4106 36.8147 23.3199 36.8238C23.281 36.8258 23.2431 36.8378 23.2098 36.8586C23.1439 36.9023 23.1337 36.9888 23.1805 37.0534C23.3063 37.2538 23.4504 37.4477 23.607 37.6251L23.6253 37.646L23.6523 37.6469C24.0398 37.6621 24.4276 37.6699 24.8155 37.6702H24.8326C24.8462 37.6719 24.8599 37.6726 24.8736 37.6723C24.9439 37.6723 25.02 37.6608 25.0743 37.6136C25.0924 37.5993 25.1049 37.5789 25.1095 37.556C25.1119 37.5421 25.1112 37.5279 25.1075 37.5143C25.1038 37.5007 25.0971 37.4882 25.088 37.4775Z" fill="#EBBC95"/>
</g>
<mask id="mask33_2258_3007" style="mask-type:luminance" maskUnits="userSpaceOnUse" x="2" y="6" width="46" height="40">
<path d="M2.5 6H47.5286V45.2525H2.5V6Z" fill="white"/>
</mask>
<g mask="url(#mask33_2258_3007)">
<path d="M24.1653 37.8844C24.113 37.8523 24.027 37.8464 23.9803 37.8487C23.6784 37.8354 23.3769 37.815 23.0759 37.7876C22.9453 37.6848 22.8178 37.5779 22.6936 37.4671C22.6187 37.3992 22.5222 37.3818 22.4258 37.3842C22.3906 37.3838 22.3562 37.3942 22.327 37.414C22.2715 37.458 22.2817 37.548 22.3418 37.5825C22.495 37.7233 22.6615 37.8483 22.8389 37.9558L22.8638 37.9641C23.2281 38.0078 23.5991 38.0379 23.9657 38.055C23.9863 38.0574 24.0074 38.0586 24.0291 38.0586C24.0904 38.0586 24.1981 38.0518 24.2086 37.9709C24.213 37.9305 24.1949 37.903 24.1653 37.8844Z" fill="#EBBC95"/>
</g>
<mask id="mask34_2258_3007" style="mask-type:luminance" maskUnits="userSpaceOnUse" x="2" y="6" width="46" height="40">
<path d="M2.5 6H47.5286V45.2525H2.5V6Z" fill="white"/>
</mask>
<g mask="url(#mask34_2258_3007)">
<path d="M16.9061 20.0164C16.7167 19.8169 16.4227 20.1469 16.5973 20.329C16.7562 20.5179 16.9264 20.7012 17.1045 20.8765C16.9591 21.1807 16.8132 21.4847 16.6667 21.7884C16.6121 21.9015 16.6133 22.0292 16.73 22.101C16.8733 22.1851 16.9924 22.0709 17.0513 21.944C17.2351 21.5526 17.4151 21.1595 17.5914 20.7646L17.612 20.7221L17.5766 20.6896C17.3474 20.4711 17.1239 20.2467 16.9061 20.0164Z" fill="#EBBC95"/>
</g>
<mask id="mask35_2258_3007" style="mask-type:luminance" maskUnits="userSpaceOnUse" x="2" y="6" width="46" height="40">
<path d="M2.5 6H47.5286V45.2525H2.5V6Z" fill="white"/>
</mask>
<g mask="url(#mask35_2258_3007)">
<path d="M18.1976 19.4805C18.0524 19.371 17.8685 19.4353 17.8278 19.621C17.7993 19.7455 17.8766 19.8125 17.9617 19.8816L18.1601 20.0418C18.1953 20.0696 18.5607 20.3278 18.5552 20.3428C18.4281 20.6697 18.2941 20.9937 18.1534 21.3147C18.1 21.4345 18.1375 21.5833 18.2647 21.634C18.4225 21.6951 18.5314 21.5706 18.588 21.4357C18.7621 21.023 18.9279 20.6067 19.0851 20.187L19.102 20.1398L19.0613 20.1109C18.7708 19.9046 18.4791 19.6927 18.1976 19.4805Z" fill="#EBBC95"/>
</g>
<mask id="mask36_2258_3007" style="mask-type:luminance" maskUnits="userSpaceOnUse" x="2" y="6" width="46" height="40">
<path d="M2.5 6H47.5286V45.2525H2.5V6Z" fill="white"/>
</mask>
<g mask="url(#mask36_2258_3007)">
<path d="M19.6159 18.8555C19.5093 18.7953 19.3833 18.7977 19.2993 18.8936C19.2119 18.9925 19.2087 19.1634 19.3356 19.2289C19.5976 19.3881 19.8628 19.5419 20.131 19.6902C20.0244 20.029 19.9166 20.3693 19.81 20.7045C19.7933 20.747 19.7855 20.7925 19.7873 20.8382C19.7897 20.9583 19.9123 21.0159 20.0166 21.0194C20.1618 21.025 20.2469 20.9191 20.2899 20.7875C20.4297 20.3634 20.5601 19.9266 20.678 19.4895L20.6917 19.4387L20.6464 19.4133C20.3016 19.2299 19.9581 19.044 19.6159 18.8555Z" fill="#EBBC95"/>
</g>
<mask id="mask37_2258_3007" style="mask-type:luminance" maskUnits="userSpaceOnUse" x="2" y="6" width="46" height="40">
<path d="M2.5 6H47.5286V45.2525H2.5V6Z" fill="white"/>
</mask>
<g mask="url(#mask37_2258_3007)">
<path d="M22.3306 18.5988L22.2818 18.579C21.8894 18.4239 21.4975 18.2675 21.1061 18.1097C20.953 18.0486 20.7474 18.1074 20.7259 18.2989C20.7055 18.4984 20.9949 18.5663 21.1311 18.6262C21.3434 18.722 21.5586 18.8116 21.7766 18.8948C21.7119 19.2389 21.6408 19.5819 21.5634 19.9233C21.5553 19.9553 21.5539 19.9887 21.5591 20.0213C21.5643 20.0539 21.576 20.0851 21.5936 20.1129C21.6112 20.1407 21.6342 20.1645 21.6612 20.1829C21.6883 20.2013 21.7188 20.2138 21.7508 20.2196C21.9152 20.2506 22.0433 20.1205 22.073 19.9646C22.1604 19.5901 22.2353 19.205 22.2943 18.8222L22.3306 18.5988Z" fill="#EBBC95"/>
</g>
<mask id="mask38_2258_3007" style="mask-type:luminance" maskUnits="userSpaceOnUse" x="2" y="6" width="46" height="40">
<path d="M2.5 6H47.5286V45.2525H2.5V6Z" fill="white"/>
</mask>
<g mask="url(#mask38_2258_3007)">
<path d="M22.2611 17.6359C22.2873 17.6612 22.3213 17.6795 22.3599 17.6899C22.6879 17.8132 23.0237 17.9239 23.361 18.0198C23.3487 18.3533 23.3247 18.6862 23.2893 19.018C23.2747 19.1564 23.3689 19.267 23.5016 19.2856C23.6719 19.3098 23.7968 19.1877 23.8125 19.0191C23.8534 18.5962 23.8714 18.165 23.8671 17.7383L23.8659 17.6887L23.8183 17.676C23.7362 17.6541 23.6545 17.6311 23.5731 17.6069C23.237 17.5047 22.9002 17.4045 22.563 17.3062C22.427 17.2669 22.2396 17.2761 22.2033 17.4526C22.1962 17.4856 22.1978 17.5199 22.208 17.5521C22.2181 17.5843 22.2365 17.6132 22.2611 17.6359Z" fill="#EBBC95"/>
</g>
<mask id="mask39_2258_3007" style="mask-type:luminance" maskUnits="userSpaceOnUse" x="2" y="6" width="46" height="40">
<path d="M2.5 6H47.5286V45.2525H2.5V6Z" fill="white"/>
</mask>
<g mask="url(#mask39_2258_3007)">
<path d="M23.7717 16.8381C24.1212 16.9119 24.4762 16.9925 24.8292 17.0754C24.8688 17.3896 24.8954 17.7054 24.9088 18.0219C24.9154 18.196 25.0677 18.2976 25.2344 18.2607C25.2953 18.2464 25.3486 18.2092 25.3835 18.1565C25.4184 18.1039 25.4324 18.0398 25.4227 17.9771C25.4012 17.5701 25.3512 17.1653 25.2731 16.7655L25.2638 16.7228L25.2231 16.7136C24.7886 16.6227 24.3536 16.5343 23.9181 16.4483C23.7761 16.4208 23.5718 16.4391 23.573 16.6351C23.5742 16.7493 23.6671 16.8231 23.7717 16.8381Z" fill="#EBBC95"/>
</g>
<mask id="mask40_2258_3007" style="mask-type:luminance" maskUnits="userSpaceOnUse" x="2" y="6" width="46" height="40">
<path d="M2.5 6H47.5286V45.2525H2.5V6Z" fill="white"/>
</mask>
<g mask="url(#mask40_2258_3007)">
<path d="M24.8269 15.8396C24.8356 15.8558 24.8468 15.8706 24.86 15.8833C24.9315 15.9559 25.0358 15.9594 25.1299 15.9757C25.2368 15.994 25.3423 16.0114 25.45 16.0285C25.5567 16.0471 25.6621 16.0633 25.7702 16.0793C25.8018 16.0852 26.0697 16.1035 26.0764 16.1244C26.1717 16.4136 26.2536 16.7088 26.3192 16.9971C26.3567 17.1538 26.5054 17.2217 26.6562 17.1895C26.7901 17.1606 26.848 17.0281 26.8073 16.9015C26.7196 16.5289 26.6036 16.1638 26.4601 15.8095L26.4465 15.775L26.4102 15.7694C25.9744 15.7021 25.5379 15.6406 25.1006 15.5849C25.0221 15.5755 24.919 15.571 24.8542 15.6262C24.7906 15.6794 24.7897 15.7703 24.8269 15.8396Z" fill="#EBBC95"/>
</g>
<mask id="mask41_2258_3007" style="mask-type:luminance" maskUnits="userSpaceOnUse" x="2" y="6" width="46" height="40">
<path d="M2.5 6H47.5286V45.2525H2.5V6Z" fill="white"/>
</mask>
<g mask="url(#mask41_2258_3007)">
<path d="M25.853 15.021C25.903 15.0788 25.98 15.1018 26.0526 15.111C26.3864 15.1514 26.7336 15.1883 27.0854 15.2205C27.2343 15.466 27.3655 15.7231 27.479 15.9917C27.5391 16.1336 27.7277 16.1879 27.8604 16.1265C27.967 16.0772 27.9694 15.9583 27.9206 15.8639C27.7673 15.529 27.5866 15.2077 27.3805 14.9035L27.3634 14.8769L27.3326 14.8746C26.9168 14.8368 26.5008 14.8022 26.0846 14.771C26.0163 14.7651 25.928 14.7583 25.8678 14.7976C25.7894 14.8471 25.7941 14.9519 25.853 15.021Z" fill="#EBBC95"/>
</g>
<mask id="mask42_2258_3007" style="mask-type:luminance" maskUnits="userSpaceOnUse" x="2" y="6" width="46" height="40">
<path d="M2.5 6H47.5286V45.2525H2.5V6Z" fill="white"/>
</mask>
<g mask="url(#mask42_2258_3007)">
<path d="M26.5997 14.227C26.6497 14.317 26.7551 14.3492 26.8504 14.3551C27.1694 14.3757 27.4895 14.3976 27.8082 14.4218C27.9935 14.6264 28.1682 14.8408 28.3314 15.064C28.4017 15.1676 28.5333 15.2254 28.6571 15.1909C28.791 15.154 28.782 15.0052 28.7013 14.9164C28.4961 14.6389 28.2688 14.379 28.0218 14.1393L28.0046 14.1231L27.982 14.1222C27.5927 14.0933 27.2022 14.0667 26.8176 14.0449C26.7153 14.0378 26.5193 14.0667 26.5997 14.227Z" fill="#EBBC95"/>
</g>
<mask id="mask43_2258_3007" style="mask-type:luminance" maskUnits="userSpaceOnUse" x="2" y="6" width="46" height="40">
<path d="M2.5 6H47.5286V45.2525H2.5V6Z" fill="white"/>
</mask>
<g mask="url(#mask43_2258_3007)">
<path d="M27.127 13.6274C27.1356 13.6364 27.1447 13.6449 27.1544 13.6528C27.2203 13.7036 27.3008 13.723 27.3812 13.7278C27.6662 13.7437 27.9567 13.7655 28.2449 13.7921C28.4605 13.9444 28.6682 14.1138 28.8622 14.2926C28.945 14.3697 29.1153 14.455 29.2207 14.3664C29.3003 14.2994 29.2265 14.1991 29.1652 14.153C28.9158 13.9253 28.6461 13.7214 28.3597 13.5442L28.3312 13.5362C27.9884 13.5076 27.6436 13.4843 27.3121 13.4672C27.2395 13.4545 27.0806 13.4556 27.0989 13.5687C27.1024 13.5905 27.1137 13.61 27.127 13.6274Z" fill="#EBBC95"/>
</g>
<mask id="mask44_2258_3007" style="mask-type:luminance" maskUnits="userSpaceOnUse" x="2" y="6" width="46" height="40">
<path d="M2.5 6H47.5286V45.2525H2.5V6Z" fill="white"/>
</mask>
<g mask="url(#mask44_2258_3007)">
<path d="M27.3985 13.1985C27.4645 13.2699 27.5734 13.2838 27.6629 13.2905C27.9081 13.3103 28.1565 13.3389 28.404 13.3758C28.6434 13.4797 28.8761 13.6031 29.0939 13.7424C29.1631 13.7864 29.3923 13.8959 29.4367 13.7713C29.4638 13.6952 29.3653 13.6364 29.3118 13.6063C29.0331 13.4453 28.7442 13.3033 28.447 13.1811L28.4336 13.1775C28.1515 13.1342 27.868 13.1007 27.5836 13.0772C27.5313 13.0716 27.3826 13.0438 27.3689 13.1223C27.3645 13.1465 27.3747 13.1707 27.3985 13.1985Z" fill="#EBBC95"/>
</g>
<mask id="mask45_2258_3007" style="mask-type:luminance" maskUnits="userSpaceOnUse" x="2" y="6" width="46" height="40">
<path d="M2.5 6H47.5286V45.2525H2.5V6Z" fill="white"/>
</mask>
<g mask="url(#mask45_2258_3007)">
<path d="M47.4345 20.1547C47.1304 18.5557 46.3631 17.1975 45.6224 15.8845L45.1671 15.0776L44.1753 15.3866C43.8349 15.4937 43.499 15.5997 43.1597 15.6932C42.742 15.8062 42.4515 16.0816 42.2972 16.5116C42.0762 17.1285 41.8328 17.7369 41.5674 18.3355C41.5255 18.2274 41.475 18.1229 41.4167 18.023C41.0411 17.3704 40.3691 16.9579 39.5737 16.8944C38.6603 16.8194 37.7978 17.0316 37.0193 17.5263C36.1309 18.09 35.4035 18.806 34.8393 19.6692L36.7619 12.8121L35.3703 13.2005C35.3114 13.2168 35.2637 13.2294 35.2184 13.2433L34.7124 13.4036C34.3048 13.5305 33.8986 13.6595 33.489 13.7805C33.0997 13.897 32.8342 14.1703 32.7218 14.5714C32.2744 16.1647 31.8269 17.758 31.3794 19.3511L29.9225 19.802C29.4638 19.9437 29.028 20.0786 28.5922 20.2194C28.2735 20.3241 28.0943 20.5779 28.017 20.7149C28.0101 20.7264 28.0045 20.7382 27.9979 20.7485C26.7347 20.4717 25.5387 20.753 24.5118 21.5716C23.9522 22.0165 23.4658 22.5487 23.0706 23.1485L23.3189 21.8656L21.729 22.3579C21.2831 22.4951 20.852 22.6288 20.424 22.7681C20.078 22.88 19.909 23.1786 19.8555 23.2731C19.8525 23.2797 19.8487 23.286 19.8442 23.2917C18.8672 23.0243 17.9082 23.1603 16.9812 23.6998L16.0301 18.9925L13.3394 19.8032C11.9517 20.2332 10.5651 20.6644 9.17705 21.0909C7.99003 21.4551 6.60112 21.9429 5.30081 22.7935C4.13645 23.5567 3.38637 24.381 2.94044 25.3874C2.21533 27.0269 2.38644 28.4748 3.45086 29.691C3.87254 30.1789 4.39796 30.5629 4.98735 30.814L6.0599 31.2543C5.62966 32.6276 4.93186 33.6431 3.93107 34.3544C3.43052 34.7083 3.13769 35.158 3.0334 35.7285C3.00725 35.8681 2.96629 36.0042 2.92562 36.1426C2.90083 36.2262 2.87662 36.3111 2.85299 36.3973L2.6203 37.4373L3.82445 37.3692L5.95997 36.7039C7.77448 36.1391 9.59015 35.5742 11.4026 34.9978C12.7143 34.5816 13.6584 33.9141 14.2894 32.9617C14.4062 32.7855 14.5119 32.6054 14.6107 32.4257C14.7953 32.5584 14.9968 32.6651 15.2097 32.7427C15.918 33.0009 16.7395 32.9502 17.4065 32.6034C17.991 32.3012 18.4916 31.8517 18.934 31.2301C19.4186 31.6557 20.1335 31.7962 20.8984 31.5946C21.3132 31.4844 21.7016 31.2899 22.0401 31.0227L22.0663 31.1206C22.1421 31.3975 22.2307 31.7133 22.4169 32.0119C23.0613 33.0473 24.2596 33.5257 25.5466 33.2559C26.568 33.0425 27.4189 32.4269 28.076 31.4261C28.5434 30.716 28.8839 29.8882 29.1462 28.8278C29.5625 28.5949 29.9916 28.3526 30.3864 28.0288C30.5305 27.9111 30.6589 27.7821 30.7757 27.6528C31.5211 28.1407 32.4937 28.1531 33.4199 27.6345C34.079 27.2644 34.5113 26.727 34.8201 26.2073C35.2059 26.4425 35.7053 26.5933 36.3703 26.5715C36.8568 26.5536 37.3396 26.4785 37.8092 26.3478C39.0949 25.9871 40.2148 25.2136 41.3339 23.9141C41.5032 23.7167 41.6667 23.5142 41.824 23.3067C41.8614 23.3492 41.8989 23.392 41.9399 23.4333C42.6173 24.1287 43.5014 24.3972 44.5725 24.2346C45.5247 24.0894 46.3463 23.5809 46.8863 22.8041C47.4197 22.0374 47.6149 21.0965 47.4345 20.1547Z" fill="white"/>
</g>
<mask id="mask46_2258_3007" style="mask-type:luminance" maskUnits="userSpaceOnUse" x="2" y="6" width="46" height="40">
<path d="M2.5 6H47.5286V45.2525H2.5V6Z" fill="white"/>
</mask>
<g mask="url(#mask46_2258_3007)">
<path d="M36.7231 21.6661C37.6614 21.4055 38.4548 21.0159 39.0346 20.2666C39.2264 20.0186 39.3658 19.7418 39.3739 19.4157C39.3818 19.0745 39.1537 18.8484 38.8304 18.9293C38.6102 18.9845 38.3798 19.0848 38.2084 19.2312C37.4685 19.8596 37.0882 20.7243 36.7231 21.6661ZM27.9477 22.8073C27.3597 22.4789 26.7334 22.578 26.2114 23.0795C25.384 23.8772 24.9462 24.8871 24.7077 25.9962C24.6046 26.4723 24.5581 26.9578 24.692 27.4386C24.8349 27.9515 25.2207 28.0967 25.6393 27.7726C25.8505 27.6091 26.0388 27.3981 26.1954 27.1791C26.655 26.5346 26.9661 25.8094 27.2235 25.0636C27.4835 24.3155 27.7092 23.5555 27.9477 22.8073ZM19.7089 25.339C19.6749 25.3021 19.6683 25.2882 19.6569 25.2814C19.6321 25.2668 19.6063 25.2541 19.5797 25.2434C18.9647 24.9978 18.4449 25.1882 17.9932 25.625C17.2306 26.3616 16.796 27.2922 16.5134 28.303C16.3658 28.8266 16.2513 29.3613 16.3318 29.9115C16.4216 30.5177 16.8358 30.7113 17.3329 30.3542C17.5824 30.1741 17.8003 29.9274 17.9807 29.6715C18.4414 29.019 18.7331 28.2755 18.9963 27.5238C19.2505 26.7952 19.4765 26.0562 19.7089 25.339ZM35.6517 13.9315C35.4963 14.4908 35.351 15.0176 35.2023 15.5456C34.3226 18.6638 33.444 21.7823 32.5662 24.901C32.5264 25.0406 32.4913 25.1834 32.4834 25.3263C32.4698 25.5592 32.597 25.6583 32.8216 25.6087C33.1983 25.527 33.4084 25.2389 33.592 24.9332C34.0562 24.1632 34.2741 23.3008 34.4873 22.434C34.9312 20.6399 35.8617 19.1805 37.4267 18.1868C38.0597 17.7845 38.7587 17.6104 39.5111 17.6715C40.6926 17.7671 41.2916 18.8924 40.7675 20.0464C40.4099 20.8362 39.7961 21.3777 39.0776 21.8136C38.322 22.2714 37.5002 22.555 36.6368 22.7129C36.4677 22.7439 36.4006 22.8156 36.4119 22.9815C36.4268 23.2191 36.4053 23.4646 36.4575 23.6927C36.5357 24.0351 36.8184 24.2346 37.1667 24.2461C37.7602 24.2647 38.2628 24.0121 38.7293 23.6756C39.5805 23.06 40.2248 22.2472 40.798 21.3733C41.7375 19.9425 42.4388 18.3907 43.0178 16.779C43.0823 16.6004 43.1674 16.4977 43.3583 16.4461C43.8393 16.3156 44.3126 16.1577 44.805 16.0054C45.5789 17.3808 46.3813 18.7286 46.6808 20.3034C46.9725 21.831 45.9772 23.2306 44.4578 23.4634C43.7077 23.5776 43.0346 23.4472 42.4856 22.8835C42.2564 22.6494 42.094 22.375 42.044 22.0314C42.2709 22.1111 42.4798 22.1976 42.6965 22.2575C43.0654 22.3614 43.4341 22.3337 43.7905 22.1976C44.3884 21.9692 44.6836 21.4633 44.5973 20.7565C44.4848 19.8306 44.1025 18.996 43.6929 18.1245C43.5988 18.3609 43.5227 18.558 43.4442 18.7528C42.7636 20.4312 41.9397 22.0247 40.7562 23.4C39.8913 24.404 38.8984 25.233 37.6048 25.596C37.1921 25.7104 36.7679 25.7761 36.3405 25.792C35.6337 25.8186 35.0117 25.6055 34.6076 24.8907C34.5385 25.0521 34.4862 25.1811 34.426 25.3068C34.1062 25.9744 33.7102 26.5806 33.0484 26.9519C32.2722 27.3866 31.2999 27.3819 30.7221 26.5242C30.4545 26.825 30.2137 27.1676 29.9052 27.4211C29.5475 27.7139 29.1368 27.9423 28.733 28.1681C28.5717 28.2581 28.4718 28.3411 28.4265 28.5326C28.2199 29.4018 27.9317 30.2423 27.4382 30.994C26.9399 31.7501 26.2953 32.3023 25.3921 32.4915C24.4274 32.6931 23.5445 32.3646 23.0657 31.5958C22.9376 31.3892 22.8705 31.1448 22.8025 30.9016C23.1192 31.1011 23.4367 31.2277 23.7943 31.2614C24.3515 31.3142 24.819 31.1265 25.2207 30.7461C25.6463 30.3435 25.947 29.8501 26.1695 29.3118C26.4189 28.7058 26.6426 28.0893 26.84 27.4639C26.5972 27.8131 26.3691 28.1728 26.1103 28.5096C25.8096 28.8992 25.4589 29.2451 24.9938 29.4339C24.2153 29.7512 23.3629 29.4605 22.9217 28.7377L22.8162 28.5624C22.6651 28.8679 22.5391 29.1654 22.3758 29.4398C21.983 30.1051 21.4746 30.6342 20.703 30.8394C20.1061 30.9973 19.5445 30.8683 19.2688 30.4451C19.1236 30.2225 19.0565 29.9484 18.96 29.7131C18.7831 30.0083 18.5992 30.3506 18.3836 30.6699C18.0362 31.1829 17.6176 31.62 17.0592 31.9092C16.2185 32.3451 14.9464 32.1512 14.4891 31.0769C14.4775 31.0516 14.4548 31.0318 14.4661 31.0457C14.2006 31.5347 13.9624 32.0556 13.6516 32.5272C13.0557 33.4277 12.1659 33.9371 11.1721 34.2529C8.68215 35.045 6.18466 35.8162 3.6892 36.5956C3.66974 36.6015 3.64824 36.5991 3.59275 36.6048C3.66189 36.3512 3.74352 36.1148 3.78797 35.8716C3.85828 35.4877 4.04769 35.2227 4.37015 34.993C5.67278 34.0684 6.43653 32.7613 6.8688 31.2301C7.59158 28.6766 8.32134 26.1252 9.04761 23.5717C9.06126 23.5245 9.0691 23.4749 9.08973 23.3837C8.76843 23.4864 8.47008 23.5717 8.17841 23.68C6.98559 24.1227 5.96561 24.8054 5.3265 25.9534C4.59355 27.2724 4.54591 28.6235 5.23702 29.9841C5.24835 30.0071 5.25852 30.0313 5.28815 30.0959C4.80361 29.89 4.37164 29.5746 4.02503 29.1736C3.09569 28.1106 3.09889 26.9324 3.64156 25.7079C4.07848 24.7213 4.83874 24.0248 5.71694 23.4495C6.85515 22.7038 8.11014 22.2333 9.39941 21.8367C11.3717 21.2313 13.3416 20.6169 15.3138 20.006C15.347 19.9956 15.381 19.9877 15.4446 19.9691L16.1549 23.4932C16.1366 23.5154 16.1299 23.5313 16.1186 23.5348C15.7621 23.6721 15.7644 23.6709 15.5535 23.3436C15.4208 23.137 15.2822 22.9354 15.1416 22.7347C14.7113 22.1203 14.126 21.9128 13.4131 22.0857C12.9503 22.1988 12.4919 22.3369 12.0331 22.4753C11.973 22.4927 11.9015 22.5677 11.8847 22.63C11.4376 24.2092 10.9972 25.7911 10.5556 27.3727C10.5489 27.3981 10.5548 27.427 10.5548 27.489C11.5384 27.1836 12.5064 26.8828 13.513 26.5691C13.3892 26.9979 13.2838 27.3866 13.158 27.7682C13.1385 27.8269 13.0331 27.8718 12.9581 27.8951C12.0991 28.1637 11.2389 28.4299 10.3775 28.687C10.2221 28.733 10.153 28.8139 10.1065 28.9706C9.87729 29.7477 9.66726 30.5315 9.38227 31.288C9.00664 32.2861 8.3623 33.0933 7.4931 33.7077C7.44988 33.7363 7.41592 33.7771 7.39549 33.8252C7.83793 33.6903 8.28038 33.5566 8.72195 33.4206C9.50051 33.1809 10.2733 32.9227 11.0562 32.7013C12.4997 32.292 13.4744 31.3744 13.9807 29.9528C14.1963 29.3475 14.3438 28.7182 14.5457 28.1082C14.987 26.7813 15.7078 25.6388 16.8007 24.765C17.8241 23.9454 18.942 23.6697 20.2028 24.2508C20.3094 24.0537 20.4102 23.8565 20.5203 23.6641C20.5534 23.6051 20.5999 23.5292 20.6566 23.5118C21.1989 23.3342 21.7448 23.1683 22.318 22.9906C22.3008 23.0783 22.293 23.1405 22.277 23.1993C21.7775 24.9748 21.2786 26.7502 20.7803 28.5255C20.7394 28.6719 20.6975 28.8207 20.6827 28.9706C20.6601 29.2209 20.803 29.3371 21.0435 29.2737C21.4125 29.1745 21.6211 28.8865 21.8015 28.5786C22.2567 27.8027 22.4984 26.9475 22.689 26.0756C23.0306 24.5194 23.733 23.1833 24.9857 22.1849C25.9447 21.4205 27.0149 21.2408 28.1769 21.6014C28.2394 21.6212 28.2995 21.6407 28.3617 21.6593C28.3663 21.6602 28.3742 21.6534 28.4027 21.6407C28.4889 21.4725 28.5807 21.2845 28.683 21.1035C28.7147 21.0457 28.7693 20.9814 28.8271 20.9616C29.3639 20.7886 29.9017 20.624 30.4838 20.4439C29.9357 22.5943 29.3968 24.713 28.8474 26.8678C29.3651 26.621 29.7169 26.2486 30.0074 25.813C30.5666 24.9724 30.8641 24.0203 31.1352 23.0564C31.9091 20.2987 32.6876 17.5422 33.4592 14.7848C33.499 14.644 33.5638 14.5714 33.7056 14.5286C34.2866 14.3568 34.8653 14.1703 35.444 13.9891C35.5021 13.9708 35.561 13.9557 35.6517 13.9315Z" fill="#07111F"/>
</g>
</g>
<defs>
<clipPath id="clip0_2258_3007">
<rect width="45" height="39" fill="white" transform="translate(2.5 6)"/>
</clipPath>
</defs>
</svg>
