<svg width="32" height="32" viewBox="0 0 32 32" fill="none" xmlns="http://www.w3.org/2000/svg">
<path d="M1.10441 30.6291C1.36062 29.8579 1.59696 29.1339 1.83644 28.411C2.05605 27.7639 2.25475 27.1097 2.51515 26.4769C2.66992 26.0914 2.57266 25.8617 2.26521 25.6012C0.745707 24.2968 -0.116007 22.6776 0.0126228 20.6533C0.1172 19.0597 0.875382 17.7245 1.84167 16.4868C3.28379 14.6409 5.15153 13.2842 7.13535 12.0619C7.8036 11.6517 7.83497 11.5491 7.44908 10.9021L2.78705 3.1936C2.70025 3.05003 2.61972 2.90236 2.48691 2.66958H3.11437C9.61173 2.6665 16.1112 2.67984 22.6096 2.6665C24.6949 2.6665 26.6536 3.07669 28.4105 4.21292C30.4163 5.51732 31.5059 7.39188 31.8856 9.69201C32.2192 11.7091 31.781 13.6257 31.119 15.5177C30.5428 17.1585 30.0649 18.8443 29.3904 20.4482C27.6931 24.4803 24.8162 27.4552 20.7628 29.2949C18.7661 30.2013 16.5912 30.6679 14.3909 30.6619C10.1381 30.668 5.88531 30.668 1.63252 30.6619C1.48402 30.6619 1.33134 30.6434 1.10441 30.6291ZM16.1729 13.1181C15.3436 13.3232 14.622 13.4832 13.9119 13.6821C11.9218 14.24 9.96625 14.9096 8.15707 15.9105C7.94413 16.0373 7.78121 16.231 7.69484 16.4601C6.49011 19.8968 5.29863 23.3366 4.1204 26.7795C3.87256 27.4973 3.64039 28.2202 3.38836 28.9863C3.62262 29.0006 3.7753 29.0181 3.92903 29.0181C7.3968 29.0181 10.8656 29.0355 14.3334 29.0058C15.221 29.0042 16.1062 28.9163 16.976 28.7432C22.0449 27.6931 25.5879 24.75 27.692 20.1631C28.4021 18.6146 28.8424 16.9493 29.4217 15.3434C29.9885 13.759 30.4989 12.1644 30.3284 10.4498C30.1538 8.685 29.5232 7.13448 28.0811 5.98596C26.6567 4.85178 24.9908 4.35341 23.1848 4.3452C17.4163 4.32469 11.6478 4.33392 5.87939 4.33495C5.73131 4.34447 5.58395 4.36261 5.43807 4.3893L9.33251 10.8231C9.4465 10.78 9.52912 10.7544 9.60546 10.7206C13.2416 8.92188 17.0179 7.51596 21.0315 6.77352C21.9853 6.59714 22.938 6.42588 24.0005 6.60637C23.8771 6.81146 23.8028 6.96118 23.7108 7.09552C22.9787 8.16508 21.9006 8.68807 20.6435 8.82036C18.8098 9.02817 17.0109 9.46657 15.2913 10.1248C14.1661 10.5442 13.0785 11.0579 11.9741 11.5297L12.0212 11.6527C12.1014 11.6385 12.1806 11.6197 12.2586 11.5963C14.9541 10.6193 17.7737 10.0099 20.6383 9.78533C21.5617 9.71047 22.4893 9.48692 23.213 8.88907C23.8917 8.32813 24.4742 7.6585 25.1508 6.98272C26.5103 7.65645 27.3741 8.79575 27.5237 10.4375C27.5571 10.8088 27.4316 10.9339 27.0531 10.9851C24.9772 11.262 23.4462 12.35 22.5918 14.201C21.9915 15.5003 21.568 16.8816 21.1152 18.2424C20.2786 20.7681 18.7999 22.696 16.015 23.2672C14.9504 23.4856 13.8272 23.4354 12.6298 23.5133L16.1729 13.1181ZM14.9755 21.7526C15.0974 21.7595 15.2196 21.7595 15.3415 21.7526C17.1559 21.4819 18.4056 20.4605 19.077 18.8361C19.671 17.4005 20.1228 15.9094 20.6205 14.4389C20.7889 13.9926 20.9249 13.5351 21.0273 13.0699C21.1256 12.5438 21.0169 12.4546 20.4856 12.5008C19.9146 12.5541 19.3447 12.6854 18.7748 12.6823C18.1337 12.6823 17.9381 13.0268 17.7666 13.5427C17.203 15.2634 16.6017 16.9729 16.0171 18.6864C15.6761 19.6832 15.3384 20.683 14.9755 21.7526ZM5.51023 17.6507C3.09346 19.3232 1.70886 22.0951 3.20954 24.4188C3.97399 22.1741 4.72486 19.959 5.51023 17.6507Z" fill="white"/>
<path d="M24 14.663C24.4106 13.2831 26.2714 12.0547 28 12C28.0074 13.0591 26.1402 14.7562 24 14.663Z" fill="white"/>
</svg>
