<svg width="70" height="70" viewBox="0 0 70 70" fill="none" xmlns="http://www.w3.org/2000/svg">
<g clip-path="url(#clip0_3277_1858)">
<path d="M36.1363 60.4839C25.3138 60.627 15.9306 54.0115 11.931 44.5201C12.1059 44.4487 12.2732 44.3559 12.4335 44.2482C16.3261 53.5622 25.5083 60.0459 36.1287 59.9046C47.6273 59.7475 57.2342 51.8882 60.2002 41.2521C60.3784 41.32 60.5635 41.3674 60.7522 41.3936C57.7158 52.2653 47.8784 60.3233 36.1363 60.4839ZM9.87346 34.6472C9.68889 20.2178 21.1655 8.31613 35.4569 8.11677C49.4868 7.94031 61.0953 19.1042 61.6953 33.1589C61.5082 33.1115 61.3151 33.0857 61.1182 33.083C60.4807 19.36 49.1742 8.52366 35.464 8.69603C21.4612 8.89131 10.2664 20.5015 10.4476 34.64C10.4555 35.2387 10.4854 35.8321 10.5334 36.4202C10.3403 36.4541 10.1516 36.5099 9.97091 36.5867C9.91472 35.9416 9.88221 35.2947 9.87346 34.6472ZM64.2811 37.2476C64.2811 35.4172 63.3733 33.8661 62.1127 33.3061C61.5875 18.9513 49.7587 7.52254 35.4515 7.70262C20.934 7.90516 9.27594 19.9949 9.46322 34.6527C9.47287 35.3744 9.51217 36.0893 9.57818 36.7958C8.50799 37.4705 7.76855 38.8933 7.76855 40.5447C7.76855 42.8463 9.20184 44.7122 10.9699 44.7122C11.1637 44.7122 11.3526 44.6861 11.5371 44.6428C15.5904 54.3055 25.1328 61.0443 36.142 60.8981C48.1045 60.7348 58.1216 52.5019 61.1743 41.409C62.8982 41.3435 64.2811 39.5077 64.2811 37.2476Z" fill="#BEC0C2"/>
<path d="M18.8041 29.3132C21.5348 19.8717 31.3305 14.4501 40.6843 17.2106C50.0347 19.9683 55.3993 29.8609 52.6688 39.3056C49.9368 48.7478 40.1406 54.166 30.7882 51.4087C21.4394 48.6489 16.0721 38.7585 18.8041 29.3132Z" fill="white"/>
<path d="M45.1822 22.2581L45.7022 20.4522L46.1852 20.2397L44.3987 19.293C44.2355 19.2041 44.1064 19.2597 44.0621 19.3466L44.0089 19.4609C43.9618 19.5536 44.015 19.6983 44.1603 19.7748L45.5484 20.5144L45.0744 20.7258L44.6868 22.1054C44.6385 22.2653 44.7025 22.4023 44.8025 22.4361L44.9165 22.4713C45.007 22.4985 45.1337 22.4388 45.1822 22.2581Z" fill="#BEC0C2"/>
<path d="M43.3565 22.8926L43.9949 21.1324L44.4889 20.9566L42.772 19.8802C42.6141 19.7806 42.4825 19.8262 42.432 19.9097L42.3714 20.0156C42.3191 20.1088 42.3606 20.2549 42.5009 20.3419L43.8361 21.1802L43.3509 21.3565L42.8667 22.7028C42.8101 22.8615 42.864 23.0033 42.9592 23.0425L43.0729 23.0856C43.1625 23.1201 43.2927 23.0686 43.3565 22.8926Z" fill="#BEC0C2"/>
<path d="M41.4889 23.3904L42.2434 21.6832L42.7513 21.5419L41.1087 20.3442C40.9592 20.2346 40.824 20.2677 40.7686 20.3483L40.6985 20.4533C40.6421 20.5392 40.6738 20.688 40.8074 20.7853L42.0824 21.7191L41.5875 21.8599L41.0138 23.1675C40.9466 23.3212 40.992 23.4659 41.0834 23.5131L41.1939 23.5639C41.2819 23.6052 41.4157 23.5632 41.4889 23.3904Z" fill="#BEC0C2"/>
<path d="M39.5922 23.755L40.461 22.1045L40.9754 22.0006L39.4177 20.6877C39.2785 20.5643 39.1406 20.5915 39.0787 20.6693L39.0025 20.7655C38.9379 20.8464 38.9617 20.9993 39.0888 21.1045L40.2993 22.1286L39.7936 22.2345L39.1334 23.4976C39.0562 23.6423 39.0908 23.7922 39.1811 23.8419L39.2875 23.9058C39.3712 23.9507 39.5069 23.9219 39.5922 23.755Z" fill="#BEC0C2"/>
<path d="M37.6749 23.9766L38.6546 22.3944L39.1749 22.3304L37.7059 20.9047C37.5748 20.773 37.438 20.7884 37.3709 20.8607L37.2885 20.9521C37.2191 21.0306 37.2332 21.1819 37.3502 21.2971L38.4898 22.4071L37.9787 22.4756L37.237 23.684C37.149 23.8285 37.1737 23.9796 37.2563 24.0365L37.3612 24.1034C37.4409 24.1574 37.5779 24.1354 37.6749 23.9766Z" fill="#BEC0C2"/>
<path d="M35.7494 24.0561L36.8293 22.5507L37.3567 22.5267L35.9872 20.9978C35.8651 20.8579 35.7222 20.8613 35.6542 20.9282L35.5639 21.0137C35.4919 21.0863 35.4937 21.24 35.6039 21.3614L36.6658 22.5544L36.1529 22.5839L35.3286 23.7365C35.2321 23.8701 35.2471 24.0218 35.3286 24.0864L35.4252 24.1624C35.5013 24.2198 35.6407 24.2105 35.7494 24.0561Z" fill="#BEC0C2"/>
<path d="M33.8194 23.9985L35.0003 22.5757L35.5266 22.5868L34.2644 20.9634C34.1508 20.8137 34.0098 20.8093 33.9364 20.8704L33.8427 20.9497C33.7637 21.0162 33.7556 21.1697 33.858 21.2992L34.835 22.566L34.3197 22.5573L33.4242 23.6472C33.3175 23.7728 33.3211 23.9259 33.3968 23.9969L33.4895 24.079C33.5598 24.1436 33.6999 24.1427 33.8194 23.9985Z" fill="#BEC0C2"/>
<path d="M31.8987 23.7983L33.173 22.466L33.6976 22.5148L32.5466 20.804C32.4448 20.6477 32.3063 20.6323 32.2293 20.687L32.1284 20.7593C32.0436 20.8185 32.0249 20.9732 32.1206 21.1095L33.0089 22.442L32.498 22.3978L31.5276 23.417C31.4126 23.5363 31.407 23.6912 31.4788 23.7683L31.5644 23.8525C31.6331 23.9233 31.771 23.9344 31.8987 23.7983Z" fill="#BEC0C2"/>
<path d="M29.9944 23.4582L31.3556 22.2246L31.8758 22.3112L30.8443 20.5199C30.7522 20.3559 30.6143 20.3301 30.5328 20.3807L30.4268 20.4426C30.3411 20.4993 30.3143 20.6497 30.3976 20.793L31.1952 22.1881L30.686 22.1051L29.6497 23.054C29.5286 23.162 29.5123 23.3144 29.5787 23.3936L29.6587 23.49C29.7211 23.5639 29.8601 23.5848 29.9944 23.4582Z" fill="#BEC0C2"/>
<path d="M28.1199 22.9795L29.5613 21.8473L30.0724 21.972L29.1632 20.112C29.0857 19.9389 28.9478 19.9049 28.8632 19.9482L28.7552 20.0047C28.6656 20.0537 28.6281 20.2 28.7013 20.3508L29.4041 21.8015L28.9009 21.6792L27.8033 22.5495C27.6735 22.6504 27.6488 22.8019 27.7086 22.8854L27.782 22.9861C27.839 23.0666 27.978 23.0965 28.1199 22.9795Z" fill="#BEC0C2"/>
<path d="M26.2813 22.3671L27.7952 21.3419L28.2982 21.5059L27.5165 19.5803C27.4473 19.4063 27.3144 19.3607 27.2264 19.3982L27.1148 19.4453C27.0227 19.4871 26.972 19.6313 27.038 19.7874L27.6398 21.2825L27.1503 21.1276L25.9938 21.9148C25.8575 22.0046 25.8189 22.1532 25.8762 22.2441L25.9426 22.3469C25.9938 22.4297 26.1301 22.4707 26.2813 22.3671Z" fill="#BEC0C2"/>
<path d="M24.4856 21.6196L26.0666 20.7067L26.5557 20.9083L25.9059 18.9338C25.8497 18.7521 25.7211 18.6958 25.6281 18.7276L25.5152 18.7677C25.4197 18.8036 25.36 18.944 25.4143 19.1014L25.9149 20.6396L25.4334 20.4463L24.2312 21.1481C24.0893 21.2277 24.0432 21.3735 24.0897 21.4642L24.1492 21.5742C24.1962 21.6638 24.3282 21.7124 24.4856 21.6196ZM25.261 46.7486L24.9929 48.4742L24.5599 48.7375L26.3678 49.3673C26.5321 49.4272 26.6482 49.3599 26.6781 49.2725L26.7167 49.1628C26.7481 49.0714 26.6826 48.948 26.5348 48.8942L25.1294 48.3991L25.5502 48.1408L25.7518 46.8237C25.7756 46.669 25.6982 46.5509 25.6018 46.5352L25.488 46.5166C25.3975 46.5037 25.2841 46.5765 25.261 46.7486Z" fill="#BEC0C2"/>
<path d="M26.9149 45.9227L26.5244 47.6272L26.0771 47.8558L27.8356 48.6138C27.9964 48.6857 28.1163 48.6265 28.1535 48.5419L28.198 48.4337C28.2375 48.3443 28.1785 48.2148 28.0357 48.1529L26.6675 47.5591L27.108 47.3325L27.3966 46.0318C27.4339 45.8808 27.3649 45.7574 27.2666 45.7326L27.1561 45.7084C27.0685 45.688 26.9513 45.7524 26.9149 45.9227Z" fill="#BEC0C2"/>
<path d="M28.6192 45.2161L28.1126 46.8868L27.6514 47.0814L29.3534 47.9646C29.5088 48.0474 29.6314 47.9963 29.6752 47.9158L29.7264 47.8138C29.7713 47.7242 29.723 47.5915 29.5847 47.5207L28.2615 46.8319L28.7146 46.6371L29.0966 45.3599C29.1419 45.2093 29.0817 45.0819 28.989 45.0524L28.8785 45.02C28.7905 44.993 28.6679 45.0492 28.6192 45.2161Z" fill="#BEC0C2"/>
<path d="M30.371 44.6336L29.7523 46.2625L29.2754 46.4271L30.913 47.4271C31.0612 47.5185 31.1876 47.4791 31.2355 47.4019L31.2965 47.2997C31.3459 47.2162 31.3062 47.081 31.1737 46.9991L29.903 46.2187L30.3665 46.0556L30.8362 44.8091C30.8921 44.6624 30.8405 44.5313 30.7511 44.4934L30.6418 44.4544C30.5567 44.4217 30.4307 44.4689 30.371 44.6336Z" fill="#BEC0C2"/>
<path d="M32.1581 44.1729L31.4272 45.7558L30.9424 45.8858L32.5039 46.9978C32.6449 47.1037 32.7749 47.0704 32.8288 46.9939L32.8955 46.9003C32.9521 46.8213 32.9209 46.6812 32.7936 46.592L31.5785 45.7236L32.0546 45.5934L32.6103 44.3802C32.6748 44.2423 32.6343 44.1051 32.5456 44.065L32.4399 44.0135C32.3577 43.9765 32.2295 44.013 32.1581 44.1729Z" fill="#BEC0C2"/>
<path d="M33.9735 43.842L33.1326 45.3696L32.6406 45.4635L34.1231 46.686C34.2569 46.7994 34.3867 46.7776 34.446 46.7041L34.519 46.6148C34.5809 46.5381 34.5589 46.3995 34.4397 46.299L33.2889 45.346L33.7721 45.2514L34.4087 44.0843C34.4837 43.9457 34.4514 43.8073 34.3692 43.7599L34.2659 43.7053C34.186 43.6599 34.0568 43.6887 33.9735 43.842Z" fill="#BEC0C2"/>
<path d="M35.8054 43.6416L34.8632 45.1057L34.3613 45.1633L35.7569 46.4874C35.8815 46.6096 36.0171 46.5967 36.0791 46.5307L36.1593 46.4461C36.2239 46.3744 36.2136 46.2306 36.1011 46.1263L35.0193 45.092L35.5052 45.031L36.2242 43.9122C36.3084 43.7818 36.2855 43.6409 36.2042 43.5879L36.1079 43.523C36.0306 43.4747 35.8995 43.4937 35.8054 43.6416Z" fill="#BEC0C2"/>
<path d="M37.648 43.5696L36.6057 44.9633L36.1016 44.9887L37.4019 46.406C37.5189 46.5378 37.6525 46.5333 37.7194 46.4716L37.8045 46.3915C37.8755 46.3257 37.8735 46.1831 37.7688 46.0694L36.7631 44.9622L37.2551 44.9354L38.0464 43.8696C38.1398 43.7472 38.1268 43.6045 38.0518 43.5435L37.9579 43.4745C37.8867 43.4183 37.7538 43.4285 37.648 43.5696Z" fill="#BEC0C2"/>
<path d="M39.4926 43.6302L38.3557 44.9459L37.8516 44.9357L39.05 46.444C39.1564 46.5808 39.29 46.5867 39.3596 46.5309L39.4526 46.4567C39.5294 46.3973 39.5377 46.2524 39.4389 46.1324L38.5129 44.9566L39.0033 44.9657L39.8691 43.9589C39.9713 43.8416 39.9677 43.6969 39.8952 43.6307L39.808 43.5581C39.7387 43.4976 39.6059 43.4962 39.4926 43.6302Z" fill="#BEC0C2"/>
<path d="M41.3263 43.8194L40.1021 45.0503L39.6016 45.0045L40.6884 46.5946C40.7863 46.74 40.9185 46.7548 40.9944 46.7022L41.0917 46.6382C41.1707 46.5808 41.1869 46.4409 41.0991 46.313L40.2559 45.0735L40.7463 45.1175L41.6795 44.1726C41.788 44.0639 41.7949 43.9224 41.7278 43.853L41.6449 43.77C41.5818 43.704 41.4482 43.6945 41.3263 43.8194Z" fill="#BEC0C2"/>
<path d="M43.143 44.1415L41.8345 45.2835L41.3398 45.1995L42.3157 46.8627C42.4002 47.0167 42.5338 47.0396 42.6124 46.9933L42.7114 46.9346C42.7945 46.8838 42.8219 46.7459 42.743 46.6112L41.9881 45.3157L42.4747 45.3948L43.4703 44.5184C43.5882 44.4175 43.6033 44.2755 43.5409 44.2009L43.4654 44.1127C43.4068 44.0421 43.2719 44.024 43.143 44.1415Z" fill="#BEC0C2"/>
<path d="M44.9332 44.5881L43.5482 45.6352L43.0596 45.5155L43.9189 47.2456C43.9946 47.4025 44.1253 47.4372 44.2059 47.3964L44.3096 47.3447C44.395 47.2995 44.4345 47.1637 44.3637 47.0242L43.7009 45.6795L44.1769 45.7899L45.233 44.9863C45.3587 44.8952 45.3857 44.755 45.3266 44.6754L45.2572 44.5835C45.2038 44.5098 45.0711 44.4815 44.9332 44.5881Z" fill="#BEC0C2"/>
<path d="M46.6879 45.1626L45.2348 46.1098L44.7559 45.9551L45.4919 47.74C45.5566 47.9047 45.6819 47.9469 45.769 47.912L45.8734 47.8677C45.9633 47.828 46.012 47.6956 45.9507 47.5527L45.3837 46.1624L45.8541 46.3089L46.9596 45.5815C47.0894 45.4987 47.1257 45.3604 47.0752 45.2794L47.0123 45.1817C46.9625 45.102 46.8327 45.0664 46.6879 45.1626Z" fill="#BEC0C2"/>
<path d="M48.3982 45.8606L46.8825 46.6984L46.415 46.5131L47.0245 48.3455C47.0781 48.5133 47.1998 48.5661 47.2863 48.5376L47.3974 48.4995C47.4888 48.4691 47.5452 48.3382 47.4958 48.1917L47.0269 46.7653L47.4837 46.9449L48.6405 46.2956C48.7755 46.2223 48.8215 46.0883 48.7748 46.0028L48.72 45.9C48.6744 45.8197 48.5482 45.773 48.3982 45.8606Z" fill="#BEC0C2"/>
<path d="M23.655 22.4023C21.846 22.7262 20.3458 24.2551 20.2394 25.8833C20.2353 25.9458 20.2334 26.0083 20.2335 26.0709C20.2335 26.7985 20.5165 27.4521 21.0419 27.9284C21.6976 28.5215 22.6578 28.7581 23.6752 28.5757C25.4832 28.2541 26.9843 26.7255 27.0919 25.0952C27.1435 24.2914 26.8597 23.5656 26.2896 23.0496C25.6332 22.4556 24.6735 22.2199 23.655 22.4023ZM6.18809 27.026L5.38488 30.1747C5.38488 30.1747 5.99924 30.0082 6.4306 29.8908C5.89707 32.2926 3.1513 44.6745 3.13334 44.7577C2.9912 45.227 2.38245 45.5719 1.85544 45.7402L1.40769 45.8831L0 50.5894L1.7353 49.8613C7.41681 47.4792 15.913 45.1798 15.9986 45.1571L16.4472 45.036L18.4167 39.5421L16.2925 40.0478C16.0042 40.1157 15.8241 40.2399 15.7071 40.381C15.441 40.7103 14.5817 41.6121 13.7735 41.8798L10.0328 42.9203L10.0148 42.9247C10.0328 42.8437 14.2781 24.1451 14.2781 24.1451L6.18809 27.026Z" fill="#A1A1A4"/>
<path d="M19.1527 29.9433L18.3793 32.9995C18.3793 32.9995 18.8455 32.8768 19.2694 32.7639C18.7705 34.6902 17.6778 38.9149 17.6778 38.9149C17.5541 39.4252 17.4941 39.9201 17.4941 40.3869C17.4941 41.4161 17.7879 42.3093 18.3557 42.9448C18.8902 43.5429 19.9217 44.202 21.8023 43.9407C23.261 43.7397 24.6157 43.0269 25.8307 41.8203L26.6505 41.0063L24.1289 39.4774L23.6378 39.9503C23.6021 39.9854 23.5655 40.0151 23.5309 40.0446C23.5448 39.9346 23.5668 39.8049 23.6021 39.655C23.5996 39.6622 26.2052 28.883 26.2052 28.883L26.5962 27.2645L19.1527 29.9433Z" fill="#A1A1A4"/>
<path d="M35.057 27.9756C35.1621 27.9636 35.275 27.9623 35.381 27.9682L33.1005 37.2792C33.0132 37.6201 32.4976 37.915 31.9032 37.9574C31.8778 37.9592 31.852 37.9526 31.8251 37.946C31.9443 37.4682 34.1837 28.4345 34.1954 28.3864C34.2794 28.2562 34.7056 28.0156 35.057 27.9756ZM35.6101 24.4819C31.3118 25.0167 28.072 27.608 27.1585 31.243L25.8786 36.4738L25.8835 36.4518C25.43 38.1221 25.606 39.4409 26.4081 40.3722C27.3346 41.4466 28.9527 41.8394 31.2186 41.5407C35.538 40.9705 38.7358 38.5952 39.5666 35.3405C39.567 35.3369 41.0138 29.5528 41.0138 29.5528C41.42 27.8679 41.2152 26.554 40.4098 25.6382C39.4833 24.5896 37.8692 24.1995 35.6101 24.4819ZM53.3257 20.7573C52.4345 20.9027 51.3971 21.2699 50.4592 21.7387C50.5402 21.4132 50.6278 21.0642 50.6278 21.0642L43.1142 23.8863L42.3945 26.9223L43.2871 26.6502L40.2874 39.0594L46.632 37.4911L49.1999 26.7581C49.3452 26.1235 49.6584 25.7259 50.2012 25.4862L48.6794 31.9552C48.6819 31.9466 48.5956 32.2859 48.5956 32.2859C48.2573 33.5959 47.7949 35.3911 48.7699 36.4992C49.3084 37.1119 50.1439 37.3452 51.2529 37.1919C53.2148 36.9198 54.9407 35.8869 56.3845 34.1196L57.0267 33.3346C57.0267 33.3346 54.8661 31.9506 54.662 31.8209C55.143 29.7937 56.3293 24.7883 56.3293 24.7883C56.4496 24.2918 56.5112 23.8355 56.5112 23.4193C56.5112 22.6239 56.2882 21.978 55.8458 21.4921C55.267 20.858 54.349 20.5913 53.3257 20.7573ZM4.8789 53.9978L4.48438 52.8518L5.82201 52.2385C12.9626 49.1596 22.8104 45.6981 32.8405 42.7398C43.1295 39.7061 52.2699 37.6151 57.9195 37.0039L58.9237 36.8946L58.8669 39.7938L58.1603 39.9324C53.2867 40.8821 36.0481 44.8911 18.8566 56.6106L18.3771 56.937L17.8867 56.6267C14.1574 54.27 8.94906 53.9466 6.17657 53.9629C5.76587 53.9565 4.8789 53.9978 4.8789 53.9978Z" fill="#A1A1A4"/>
<path d="M62.7358 19.0726C59.1002 19.8433 57.059 22.4756 57.1376 26.2982C57.1841 28.5858 58.5909 30.4726 59.9519 32.2972C61.1195 33.862 62.2223 35.3408 62.2589 36.827C62.326 39.5888 61.1204 39.9776 60.7205 40.069C60.0161 40.2287 59.4952 39.798 59.3483 39.6172C60.5719 39.0407 61.801 37.9431 61.801 36.3684C61.801 36.2657 61.7959 36.1613 61.7855 36.0547C61.6836 35.0389 61.197 34.4828 60.8072 34.1936C59.9395 33.5528 58.9113 33.7059 58.6172 33.7679C56.4766 34.2183 55.1158 36.3537 55.5189 38.6297C56.1714 42.3148 59.5816 43.4511 62.4747 42.9454C64.5684 42.5793 66.3178 41.5158 67.3997 39.9492C68.4699 38.3972 68.8318 36.4566 68.4452 34.338C68.0455 32.1437 66.8837 30.4138 65.7605 28.7393C64.5951 27.0029 63.4926 25.3615 63.4117 23.3912C63.3854 22.7628 63.5657 22.2928 63.7555 22.1064C63.8294 22.034 63.877 22.0299 63.9221 22.0329C63.9901 22.0377 64.1491 22.0492 64.3189 22.3094C64.697 22.8909 64.7489 24.0946 64.4359 24.9932L64.3317 25.2928L64.8704 26.8308L69.9999 24.408L69.9281 23.768C69.7601 22.2275 68.9989 20.893 67.7879 20.0055C66.418 19.0043 64.6243 18.6732 62.7358 19.0726Z" fill="#A1A1A4"/>
<path d="M23.7662 23.0379C22.2602 23.3069 20.9637 24.6031 20.8776 25.9268C20.8742 25.9738 20.8726 26.0209 20.8729 26.0681C20.8729 26.611 21.0813 27.0964 21.4684 27.447C21.977 27.9077 22.7405 28.0875 23.5639 27.9399C25.0704 27.6718 26.3669 26.3763 26.4543 25.0517C26.4934 24.4516 26.2832 23.9111 25.8626 23.5308C25.3545 23.0694 24.5905 22.8903 23.7662 23.0379ZM6.72239 27.5203L6.27755 29.2631C6.27755 29.2631 6.9997 29.0673 7.28532 28.9889C7.11355 29.7652 3.75543 44.9064 3.7496 44.9311C3.49563 45.8082 2.47484 46.2203 2.04797 46.3559L1.92156 46.3965L1.00293 49.4693L1.49087 49.2649C7.21212 46.8664 15.7476 44.5562 15.833 44.5335L15.9598 44.4984L17.4129 40.4446L16.6523 40.6247C16.3254 40.7025 16.2044 40.7322 16.1662 40.8329C15.9681 41.067 15.0064 42.1564 13.9634 42.4966L10.1815 43.5483C9.8043 43.6401 9.52766 43.6261 9.41202 43.5079C9.30805 43.4004 9.29682 43.1591 9.38058 42.8261C9.3826 42.8198 13.3953 25.1447 13.3953 25.1447L6.72239 27.5203ZM19.6871 30.4352L19.267 32.0973C19.267 32.0973 19.9231 31.924 20.164 31.86C19.9705 32.606 18.2998 39.0638 18.2998 39.0638C18.1871 39.5281 18.1326 39.974 18.1326 40.3911C18.1326 41.2577 18.3701 41.9969 18.8311 42.5129C19.2614 42.9944 20.1128 43.5231 21.7154 43.3015C23.0338 43.1191 24.2683 42.4659 25.383 41.3598L25.614 41.1314L24.2171 40.2843L24.0804 40.4177C23.7819 40.7041 23.484 40.8695 23.193 40.9089C23.0578 40.9284 23.0138 40.8797 22.9942 40.8588C22.873 40.7247 22.7973 40.2918 22.9801 39.5075L25.6937 28.2747L19.6871 30.4352ZM33.5814 28.2034C33.6906 27.7587 34.4846 27.3922 34.9844 27.3341C35.4052 27.2862 35.9827 27.3513 36.1226 27.5124C36.1366 27.5276 36.1442 27.5405 36.1354 27.5786L33.7209 37.4347C33.5612 38.0577 32.8326 38.5381 31.9481 38.6018C31.6809 38.6207 31.3894 38.5113 31.2351 38.336C31.1696 38.2605 31.1384 38.1832 31.1384 38.1006C31.1384 38.0795 31.1408 38.0575 31.1453 38.0346C31.1494 38.0162 33.5814 28.2034 33.5814 28.2034ZM35.6893 25.1225C31.6571 25.6249 28.6254 28.0304 27.778 31.4028L26.4994 36.6291C26.1065 38.0722 26.2378 39.1899 26.8901 39.9479C27.6565 40.8368 29.1242 41.1659 31.1363 40.901C35.191 40.365 38.1842 38.1745 38.9472 35.1796L40.3951 29.3946C40.7461 27.9335 40.5911 26.8152 39.9319 26.069C39.1547 25.1865 37.7261 24.8685 35.6893 25.1225ZM53.4288 21.3947C52.1713 21.6002 50.5514 22.3026 49.4635 23.0749L49.7089 22.0994L43.6567 24.3718L43.2752 25.9801C43.2752 25.9801 43.934 25.78 44.1736 25.7065L41.1581 38.1798L46.1029 36.9584L48.5794 26.6058C48.7883 25.6893 49.3148 25.0987 50.1872 24.7977C50.5256 24.682 50.7863 24.7308 50.8947 24.832C50.9192 24.8544 50.994 24.9243 50.9466 25.11L49.3013 32.1045C49.3029 32.1025 49.214 32.4486 49.214 32.4486C48.9129 33.6189 48.5006 35.2208 49.247 36.0707C49.6359 36.5134 50.281 36.6744 51.1664 36.552C52.9639 36.3034 54.5542 35.3469 55.892 33.7089L56.0726 33.4885L54.6409 32.5713L54.5043 32.767C54.1814 33.2261 53.8181 33.4318 53.6701 33.4114C53.6616 33.3853 53.6578 33.3579 53.6587 33.3304C53.6587 33.2882 53.6645 33.2347 53.6832 33.1753L53.6861 33.1667L55.707 24.6385C55.8168 24.1908 55.8707 23.7841 55.8707 23.4217C55.8707 22.7916 55.7066 22.2922 55.3763 21.9302C54.9458 21.4591 54.2358 21.2634 53.4288 21.3947ZM57.9873 37.6463C52.3741 38.2532 43.2745 40.3362 33.0196 43.3602C23.0138 46.3108 13.1916 49.7639 6.07344 52.8324L5.80645 52.9492L5.9102 53.3114L6.17269 53.3175C9.01502 53.2996 14.3595 53.6364 18.2262 56.0807L18.3647 56.1685L18.4986 56.0761C35.791 44.2874 53.1346 40.2539 58.0387 39.2988L58.2381 39.2598L58.27 37.6155L57.9873 37.6463Z" fill="white"/>
<path d="M62.867 19.705C59.5123 20.4154 57.7045 22.7519 57.7763 26.2849C57.8185 28.3643 59.1629 30.166 60.4626 31.9081C61.694 33.5581 62.8565 35.1179 62.8969 36.8119C62.9499 38.9845 62.2715 40.2705 60.8802 40.6338C60.3492 40.7715 59.6713 40.6338 59.1521 40.2795C58.7769 40.0241 58.5294 39.6769 58.4228 39.2893C59.5963 38.9235 61.1614 37.8972 61.1614 36.3549C61.1614 36.2771 61.1575 36.1997 61.1497 36.1204C61.0868 35.4946 60.8438 35.0215 60.4298 34.7144C59.9097 34.3306 59.2202 34.3 58.7482 34.3998C56.9185 34.7849 55.8005 36.554 56.1481 38.5145C56.7241 41.7667 59.7746 42.7608 62.3652 42.3092C64.29 41.9733 65.891 41.0042 66.8741 39.5796C67.8462 38.1718 68.1722 36.4009 67.8163 34.4545C67.4406 32.3942 66.3177 30.7208 65.2308 29.1007C64.0125 27.2862 62.8603 25.5727 62.7723 23.4185C62.7415 22.6793 62.9476 21.9992 63.3087 21.644C63.4985 21.4578 63.7201 21.3725 63.9664 21.3893C64.3266 21.4151 64.6246 21.6045 64.8525 21.9545C65.342 22.7086 65.4226 24.1064 65.0382 25.2076L65.0094 25.2915L65.2376 25.944L69.3131 24.0186L69.2931 23.8386C69.1445 22.4816 68.4762 21.3069 67.4116 20.5288C66.1906 19.6354 64.577 19.3426 62.867 19.705Z" fill="white"/>
<path d="M26.2044 25.036C26.1235 26.2519 24.9224 27.4422 23.5208 27.6905C22.118 27.9423 21.0465 27.1587 21.1267 25.943C21.2062 24.725 22.4082 23.5364 23.8105 23.2869C25.2123 23.0353 26.2836 23.8189 26.2044 25.036ZM16.3999 40.9447L17.0206 40.7968L15.7687 44.2896C15.7687 44.2896 7.19887 46.598 1.39453 49.0308L2.12341 46.598C2.91607 46.3449 3.75341 45.8233 3.99098 44.999L7.62034 28.6359L6.62717 28.9071L6.93031 27.7132L13.0499 25.5343L9.13873 42.7636C8.9097 43.6686 9.30288 44.0204 10.2487 43.7918L14.0408 42.7367C15.292 42.328 16.3999 40.9447 16.3999 40.9447ZM24.2521 40.5997C23.931 40.91 23.5877 41.1105 23.2255 41.1597C22.5923 41.2499 22.509 40.4298 22.7364 39.4495L25.3412 28.6697L19.8968 30.629L19.6155 31.7447L20.5148 31.5057L18.5419 39.1275C18.0126 41.3207 18.7287 43.4597 21.6808 43.0508C23.0268 42.8641 24.2016 42.1767 25.2076 41.1794L24.2521 40.5997ZM40.1524 29.3328C40.9448 26.0376 38.982 24.9664 35.7193 25.3728C31.9575 25.8425 28.8807 28.0444 28.0205 31.4641L26.7426 36.6898C25.8516 39.9633 27.8447 41.0794 31.1035 40.6503C34.8402 40.157 37.9244 38.1792 38.7052 35.1169L40.1524 29.3328ZM31.966 38.8546C31.4224 38.8925 30.7932 38.5124 30.8997 37.983L33.3389 28.1423C33.4808 27.5604 34.3936 27.1473 34.9563 27.0831C35.4474 27.0267 36.5059 27.0929 36.3784 27.6361L33.9641 37.4956C33.7615 38.2865 32.8869 38.7882 31.966 38.8546ZM43.8695 24.5624L43.6201 25.6103L44.52 25.3367L41.4988 37.8356L45.8956 36.7494L48.336 26.5465C48.5891 25.4442 49.2537 24.8521 50.1063 24.5574C50.769 24.3299 51.3335 24.5994 51.1893 25.1721L49.5445 32.1627C49.1702 33.6832 48.1685 36.712 51.1325 36.3017C53.3448 35.9957 54.8156 34.6292 55.6989 33.5476L54.708 32.9134C54.346 33.4285 53.8729 33.742 53.5772 33.6496C53.4018 33.5934 53.3733 33.3303 53.4449 33.0996L55.4629 24.579C56.0953 21.9929 54.6871 21.445 53.468 21.6448C51.9559 21.8906 49.9718 22.8596 49.0393 23.74L49.3501 22.5035L43.8695 24.5624Z" fill="#0066B3"/>
<path d="M62.5223 23.4278C62.4711 22.1806 63.0417 21.0717 63.9839 21.1375C65.4832 21.2429 65.8451 23.6546 65.275 25.2917L65.3808 25.5969L69.0445 23.8678C68.7369 21.0728 66.1543 19.2675 62.917 19.9522C59.4307 20.69 57.9631 23.1749 58.0257 26.2792C58.1063 30.1945 63.0589 33.1802 63.1472 36.8048C63.2132 39.5104 62.1437 40.5646 60.9423 40.8789C59.8647 41.1597 58.2954 40.4487 58.1216 39.1112C59.3712 38.8055 61.0598 37.7279 60.8997 36.1457C60.7427 34.5796 59.3916 34.5218 58.799 34.6465C57.2948 34.9629 56.21 36.38 56.3472 38.1046C43.8334 39.8601 20.1445 47.0404 6.1709 53.0653C10.094 53.0408 14.8948 53.6765 18.358 55.8663C32.2436 46.4008 47.0667 41.3781 56.6265 39.3319C57.4917 41.6614 59.9573 42.4727 62.3226 42.0606C65.8734 41.441 68.3192 38.6104 67.5699 34.5016C66.792 30.2304 62.6963 27.6312 62.5223 23.4278ZM23.7229 19.1064C22.8328 19.8014 22.2613 19.4019 21.8398 18.7714L22.5586 18.2103C22.8126 18.5419 23.0403 18.8102 23.4357 18.5018C23.6782 18.3121 23.676 18.0604 23.4957 17.825C23.0174 17.1997 21.5405 18.2901 20.7499 17.2564C20.334 16.7127 20.2601 16.0792 21.1361 15.3956C21.8365 14.8497 22.4266 14.896 22.9347 15.6592L22.2344 16.2056C22.0356 15.9456 21.7909 15.7145 21.5001 15.9413C21.267 16.123 21.2284 16.3609 21.4118 16.6013C21.9162 17.2602 23.3194 16.0736 24.1543 17.1652C24.842 18.0649 24.2706 18.6796 23.7229 19.1064ZM25.4003 13.7826L25.3895 13.7876L25.8525 15.6726L26.6283 15.2834L25.4003 13.7826ZM25.3924 17.742L24.5376 13.2716L25.6102 12.7341L28.5985 16.1337L27.7416 16.5635L27.0983 15.8009L25.9881 16.3575L26.1958 17.3391L25.3924 17.742ZM29.2697 15.849L28.3156 11.5681L29.7423 11.2446L31.0542 14.0046L31.0656 14.0019L31.122 10.9307L32.5014 10.6173L33.4552 14.8983L32.5923 15.0942L31.8565 11.7915L31.8446 11.7942L31.7642 15.2822L30.9192 15.4741L29.4084 12.348L29.3968 12.3503L30.1326 15.6528L29.2697 15.849ZM35.6926 14.9606C34.5672 14.9536 34.3611 14.2836 34.4134 13.524L35.3221 13.5304C35.3197 13.9495 35.3358 14.3018 35.8348 14.3056C36.1417 14.3072 36.2931 14.1078 36.2953 13.8096C36.2998 13.0201 34.4713 12.9593 34.4794 11.6529C34.4834 10.9661 34.812 10.4213 35.9188 10.4284C36.8032 10.4338 37.24 10.8382 37.1744 11.7552L36.2902 11.749C36.2922 11.4213 36.2399 11.0863 35.8729 11.0845C35.5777 11.0827 35.4025 11.2453 35.4007 11.5492C35.3953 12.3818 37.2252 12.3206 37.2166 13.7C37.2097 14.8368 36.3845 14.9652 35.6926 14.9606ZM41.9144 11.2927L41.2933 14.3403C41.1619 14.9831 40.6641 15.5871 39.58 15.3616C38.6014 15.1579 38.2345 14.5478 38.3996 13.7386L39.0207 10.691L39.9103 10.8761L39.3016 13.8638C39.1931 14.3938 39.3748 14.6488 39.699 14.7161C40.0879 14.7969 40.3181 14.5719 40.4153 14.0956L41.0243 11.1076L41.9144 11.2927ZM42.0523 15.903L43.8125 11.8917L44.9346 12.3939L44.772 15.6442L44.783 15.6494L46.0021 12.8717L46.7774 13.219L45.0174 17.2303L43.9225 16.7401L44.1264 13.3217L44.1152 13.3167L42.8281 16.2502L42.0523 15.903ZM49.3108 16.5086C49.5526 16.1831 49.7085 15.8538 49.3191 15.5676C48.8617 15.2317 48.4121 15.8558 47.9161 16.5435C47.116 17.6537 47.0812 17.9293 47.5003 18.2368C47.6217 18.3262 47.7742 18.3931 47.9143 18.4364L48.4809 17.6501L48.0818 17.3568L48.4748 16.8111L49.6083 17.6447L48.3129 19.4432C48.0847 19.3355 47.5272 19.0459 47.2351 18.8315C45.9994 17.9229 46.2298 17.3031 47.2005 15.9574C47.8449 15.0627 48.5435 14.1859 49.7451 15.0693C50.4652 15.5986 50.6188 16.336 50.0401 17.0454L49.3108 16.5086ZM28.8864 54.72L29.3186 54.8588C29.4601 54.9044 29.6867 54.8727 29.7819 54.5699C29.8542 54.3408 29.7529 54.1224 29.5349 54.0525L29.1367 53.9249L28.8864 54.72ZM28.4564 56.0861L28.8159 56.2015C28.9528 56.2455 29.2625 56.3403 29.3997 55.9037C29.4868 55.627 29.4372 55.4252 29.112 55.3208L28.7353 55.1997L28.4564 56.0861ZM27.6588 56.3583L28.6416 53.2374L29.7886 53.6057C30.2806 53.7636 30.6423 54.0371 30.4328 54.7028C30.3199 55.0618 30.0628 55.2644 29.69 55.2211L29.6873 55.2297C30.125 55.4417 30.1508 55.7783 30.0161 56.2065C29.767 56.9974 29.0757 56.8132 28.8017 56.7252L27.6588 56.3583ZM31.9667 54.7958L31.958 54.794L31.4022 56.1305L32.0386 56.2474L31.9667 54.7958ZM30.2123 57.1614L31.6764 54.1018L32.5555 54.2632L32.8413 57.6445L32.1387 57.5152L32.0909 56.7688L31.1806 56.6014L30.8709 57.2823L30.2123 57.1614ZM34.2165 57.7869C33.3782 57.7382 33.2498 57.2308 33.3178 56.6667L33.9948 56.7062C33.9771 57.0187 33.9755 57.282 34.3476 57.304C34.5764 57.3172 34.697 57.1741 34.7098 56.9523C34.7432 56.3637 33.3825 56.2478 33.4382 55.2744C33.4669 54.7624 33.7326 54.3692 34.5575 54.4173C35.2166 54.4556 35.5269 54.7736 35.4429 55.4547L34.7839 55.4163C34.7978 55.1718 34.7718 54.9208 34.4983 54.9047C34.2787 54.8917 34.1415 55.0065 34.1287 55.2328C34.0932 55.8532 35.4593 55.8783 35.4005 56.9065C35.3522 57.7531 34.7322 57.8169 34.2165 57.7869ZM36.0164 57.7887L35.8449 54.5184L37.6118 54.4238L37.6386 54.9269L36.5486 54.9849L36.5908 55.7915L37.5952 55.7377L37.6217 56.2403L36.6171 56.2941L36.6672 57.2498L37.7928 57.1897L37.8191 57.6926L36.0164 57.7887ZM39.0305 57.0189L39.4026 56.9557C39.5443 56.9316 39.8625 56.8729 39.787 56.4211C39.7392 56.1349 39.604 55.9786 39.2674 56.0357L38.8776 56.1022L39.0305 57.0189ZM38.7948 55.6055L39.2421 55.5295C39.3885 55.5046 39.5757 55.3712 39.5234 55.0584C39.4839 54.8214 39.2955 54.674 39.0696 54.7126L38.6576 54.7824L38.7948 55.6055ZM38.4445 57.6291L37.906 54.3996L39.0927 54.1977C39.6022 54.1113 40.0475 54.1873 40.1625 54.8763C40.2242 55.2474 40.0875 55.5467 39.7363 55.6799L39.7379 55.689C40.2229 55.6756 40.3985 55.9629 40.4721 56.4061C40.6089 57.2247 39.9105 57.3802 39.6269 57.4281L38.4445 57.6291ZM41.5704 54.2521L41.5619 54.2546L41.6705 55.6998L42.2896 55.5111L41.5704 54.2521ZM41.0766 57.1652L40.9987 53.7679L41.8544 53.5068L43.6347 56.3848L42.9511 56.5935L42.5712 55.9514L41.6856 56.2215L41.7173 56.97L41.0766 57.1652ZM44.0963 56.1779L42.8202 53.1673L43.4436 52.8979L44.5077 55.4082L45.4412 55.0047L45.6529 55.505L44.0963 56.1779ZM46.0786 55.2816L44.5257 52.4068L45.1209 52.0789L46.4159 54.476L47.3069 53.9852L47.5651 54.4626L46.0786 55.2816ZM47.9406 52.2676C47.4167 51.581 46.9182 50.9271 47.8038 50.2377C48.352 49.8115 48.8053 49.9453 49.2088 50.5189L48.6823 50.9285C48.4191 50.5835 48.2599 50.5014 48.1 50.626C47.7976 50.8612 47.9779 51.1791 48.4847 51.8437C48.9919 52.5087 49.2504 52.7656 49.5528 52.5304C49.8019 52.3365 49.5443 52.0215 49.3952 51.8112L49.9254 51.3985C50.4544 52.0918 50.3504 52.528 49.849 52.9185C48.963 53.608 48.4588 52.9466 47.9406 52.2676ZM51.042 51.8539L48.8051 49.4826L49.2962 49.0104L51.1613 50.9875L51.8962 50.2801L52.2678 50.6745L51.042 51.8539ZM51.5304 46.5226L53.29 48.0175C53.6612 48.3332 53.8767 48.8777 53.3446 49.5164C52.8647 50.0925 52.3379 50.119 51.8704 49.7219L50.1111 48.2268L50.5476 47.7029L52.2726 49.1687C52.5786 49.4284 52.8086 49.3989 52.9678 49.2077C53.1586 48.9791 53.0942 48.746 52.8191 48.5126L51.0939 47.0465L51.5304 46.5226Z" fill="#0066B3"/>
<path d="M54.4006 47.1798L54.6051 46.8598C54.683 46.738 54.855 46.4611 54.4738 46.2123C54.2321 46.0549 54.0267 46.0503 53.8414 46.3402L53.627 46.6752L54.4006 47.1798ZM53.2084 46.4021L53.4545 46.0175C53.5349 45.8913 53.5639 45.6623 53.2998 45.4899C53.0997 45.3595 52.8649 45.4003 52.7407 45.5949L52.5141 45.9492L53.2084 46.4021ZM54.4515 48.0283L51.7275 46.2511L52.3803 45.2302C52.6608 44.7922 53.0164 44.511 53.5976 44.8905C53.9106 45.0948 54.0372 45.3985 53.8978 45.7503L53.9052 45.7553C54.2225 45.3844 54.551 45.4477 54.9247 45.6911C55.6149 46.1415 55.2579 46.7673 55.1018 47.0111L54.4515 48.0283Z" fill="#0066B3"/>
</g>
<defs>
<clipPath id="clip0_3277_1858">
<rect width="70" height="53.2" fill="white" transform="translate(0 7.7002)"/>
</clipPath>
</defs>
</svg>
