<svg width="70" height="70" viewBox="0 0 70 70" fill="none" xmlns="http://www.w3.org/2000/svg">
<g clip-path="url(#clip0_3277_1897)">
<path d="M16.0547 12.6001V23.786L0.700195 23.7737L4.80643 29.2411L8.10019 29.0722L8.09698 40.8173L16.0547 38.9061V50.2203L34.9903 63.7002L53.9376 50.2144V38.9277L62.1816 41.1657C64.6821 41.2273 65.3258 39.8326 65.4909 38.9002C65.5707 38.4387 65.6201 37.9438 65.6378 37.5423C65.6551 37.2576 65.6589 36.9748 65.6591 36.6966C65.6594 36.3153 65.6586 35.8135 65.6575 35.3133C65.6556 34.3129 65.6522 33.3194 65.6522 33.3189V33.3183C65.6508 32.7536 65.5958 32.1071 65.2489 31.4701C65.0071 31.0272 64.637 30.6548 64.1984 30.3629L69.3001 23.7942L53.9379 23.7934V12.6001H16.0547Z" fill="white"/>
<path d="M34.9925 58.1512L17.4375 48.1938V49.5117L34.9925 61.9998L52.547 49.5117V48.1938L34.9925 58.1512Z" fill="#06141F"/>
<path d="M31.9175 50.3255H38.071L39.5488 53.4105L52.5473 46.7231V39.1455C40.9806 36.6197 29.004 36.6201 17.4375 39.1468V46.7234L30.4354 53.4108L31.9175 50.3255Z" fill="#06141F"/>
<path d="M30.3605 25.1938H21.6982C21.8337 25.2541 22.9357 25.6343 22.9357 26.7412L22.9287 34.258C22.9119 35.3313 23.7041 35.8472 25.2342 35.6906C27.7148 35.4448 30.204 35.2955 32.6962 35.2432V29.8193C31.0611 29.835 29.6557 29.87 28.0219 29.926V31.7481C28.551 31.7236 28.8333 31.7033 29.3637 31.6828V33.5689C28.4377 33.6105 27.6576 33.665 26.7289 33.7287C26.4861 33.7447 26.3747 33.6647 26.3747 33.4726V27.2742C26.3747 27.1123 26.4912 27.0312 26.7299 27.0282C27.4914 27.0157 28.1792 27.0061 28.9404 26.9978C29.1781 26.996 29.275 27.0816 29.275 27.2638V28.3491C30.4217 28.3285 31.5728 28.3136 32.7184 28.3059L32.724 26.7852C32.7258 25.7906 31.872 25.1938 30.361 25.1938" fill="#EA0029"/>
<path d="M50.3653 27.5389V30.1899C50.3653 30.3862 50.2549 30.5001 50.0175 30.482C49.1527 30.4174 48.4612 30.3579 47.5929 30.3011V27.1272C48.4598 27.1486 49.142 27.1731 50.0074 27.1947C50.2467 27.2038 50.3653 27.3092 50.3653 27.5389ZM53.8107 31.0348V27.0869C53.7877 25.9011 52.8099 25.1949 51.2987 25.1938H42.9121C43.0587 25.2552 44.1928 25.6207 44.1928 26.7009L44.1963 35.6885C45.3087 35.7957 46.4852 35.9262 47.5929 36.0721V32.1558C48.15 32.2022 48.74 32.2529 49.2972 32.307C49.8882 33.697 50.3284 35.0722 50.9181 36.5366C52.0354 36.726 53.2522 36.9826 54.3636 37.2121C53.7604 35.6684 53.1401 34.1315 52.5028 32.6016C53.3511 32.4447 53.8243 31.8802 53.8107 31.0348Z" fill="#EA0029"/>
<path d="M5.52985 27.7958C6.87732 27.7216 8.15962 27.6504 9.51109 27.5869V38.5996C10.6203 38.2992 11.8358 38.018 12.9539 37.7552V27.4335C13.7624 27.3996 14.7052 27.3676 15.5121 27.339V25.1941H3.54297C4.18857 26.0738 4.85099 26.9414 5.52985 27.7958ZM63.0108 31.3026C61.9772 30.8397 59.6054 29.7625 58.8736 29.4231C58.6054 29.2972 58.5058 29.0825 58.5058 28.9355V27.8518C58.5023 27.6218 58.6212 27.5092 58.857 27.521C60.6163 27.6005 62.6737 27.6891 64.4261 27.7864L66.4389 25.1941H53.844C54.0173 25.2875 55.1487 25.6757 55.1487 26.9514C55.1487 26.9514 55.1581 28.32 55.1581 29.0496C55.1581 29.7814 55.5363 30.3697 56.4513 30.7877C57.3637 31.2055 60.3335 32.478 60.5602 32.601C60.8567 32.7579 60.9064 32.9118 60.9064 33.3478V36.0382C60.9077 36.4037 60.6438 36.3448 60.5578 36.3253C59.9542 36.1887 59.4531 36.0865 58.8463 35.9585C58.7603 35.9403 58.5445 35.8819 58.5405 35.5348V33.7549C57.44 33.5717 56.3373 33.4021 55.2326 33.2461V35.2961C55.254 36.6124 56.2067 37.5901 57.7149 37.9655C59.1321 38.3117 60.4943 38.689 61.8954 39.1006C63.3869 39.5515 64.2552 38.9363 64.2522 37.3399C64.2629 37.2998 64.2496 33.3227 64.2496 33.3227C64.2469 32.3943 64.0444 31.7692 63.0108 31.3026ZM17.3013 26.8674V36.8364C18.4407 36.6281 19.5991 36.4363 20.7462 36.2666V25.1938H16.0703C16.3806 25.2846 17.3013 25.7981 17.3013 26.8674ZM33.0807 25.1938C33.2522 25.2723 34.39 25.633 34.39 26.635C34.387 29.4989 34.387 32.3612 34.3852 35.2232C37.0708 35.2099 39.7107 35.3118 42.388 35.5212V33.6895C40.838 33.5872 39.2861 33.5176 37.7331 33.4809V31.1818C39.1167 31.2092 40.4956 31.2399 41.877 31.2997V29.4151C40.4961 29.3722 39.1147 29.3428 37.7331 29.3268C37.7369 27.0413 37.7331 27.0413 37.7331 26.9837C39.2783 26.9946 40.7278 27.0088 42.2715 27.0301V25.1941L33.0807 25.1938Z" fill="#EA0029"/>
<path d="M23.4689 42.7772C23.5798 42.7628 23.6586 42.7254 23.7048 42.6651C23.7502 42.6065 23.7729 42.5299 23.7729 42.4378C23.7729 42.3327 23.747 42.258 23.6904 42.2191C23.6369 42.1812 23.5632 42.1671 23.4687 42.1783C23.3106 42.2004 23.1516 42.222 22.9922 42.2436V42.8399C23.1516 42.8185 23.3106 42.7977 23.4689 42.7772ZM23.4075 41.8333C23.5178 41.8181 23.5966 41.7816 23.642 41.7239C23.6888 41.6671 23.712 41.594 23.712 41.5041C23.7104 41.3987 23.6855 41.3272 23.6332 41.2899C23.5806 41.2525 23.5055 41.2408 23.4075 41.2539C23.2689 41.2714 23.1305 41.2901 22.9922 41.3099V41.8896C23.1327 41.8709 23.2686 41.8507 23.4075 41.8333ZM23.4163 40.8988C23.5472 40.8812 23.6554 40.879 23.747 40.8929C23.8389 40.9071 23.9104 40.9364 23.97 40.9812C24.0261 41.0282 24.0702 41.0887 24.0939 41.1656C24.1185 41.2421 24.1324 41.3363 24.1324 41.4484C24.1324 41.5465 24.1166 41.6343 24.0886 41.7087C24.0592 41.7816 24.0138 41.8459 23.9545 41.9046C24.029 41.9347 24.0886 41.9865 24.1308 42.0601C24.1725 42.1337 24.1936 42.242 24.1936 42.3853C24.1936 42.5053 24.1781 42.6067 24.1428 42.694C24.1116 42.7774 24.0616 42.8525 23.9967 42.9135C23.9283 42.9763 23.8483 43.025 23.7611 43.057C23.6609 43.0951 23.5564 43.121 23.45 43.1341C23.1621 43.1715 22.8741 43.2115 22.5859 43.2507V41.0124C22.8616 40.9738 23.1396 40.9356 23.4163 40.8988ZM25.2411 42.0227C25.4208 42.0027 25.6038 41.9822 25.7838 41.9627C25.6943 41.6853 25.6057 41.4075 25.5146 41.1301C25.4243 41.4267 25.3292 41.7242 25.2411 42.0227ZM25.9 42.3058C25.642 42.3325 25.3832 42.3607 25.127 42.3901C25.0696 42.5752 25.0135 42.7604 24.958 42.9469C24.8129 42.9637 24.67 42.981 24.5266 42.9976C24.7675 42.222 25.0116 41.4484 25.2515 40.6742C25.4259 40.6549 25.6025 40.6365 25.7763 40.6176L26.4996 42.7839C26.3562 42.7977 26.2133 42.8119 26.0704 42.8279C26.0111 42.6529 25.9566 42.4792 25.9 42.3058ZM28.2485 40.8086C28.1361 40.788 28.0222 40.7763 27.908 40.7737C27.8011 40.7691 27.7023 40.7737 27.6088 40.779C27.5586 40.7837 27.5087 40.7911 27.4593 40.8014C27.4106 40.8094 27.3706 40.8257 27.3335 40.8486C27.2982 40.8682 27.2687 40.8968 27.248 40.9313C27.2248 40.9665 27.2151 41.0114 27.2151 41.0671C27.2119 41.11 27.2202 41.153 27.2392 41.1917C27.2555 41.2247 27.282 41.2515 27.3148 41.2683C27.3511 41.2899 27.3962 41.3059 27.4542 41.3184C27.5097 41.3318 27.5797 41.3435 27.6612 41.3574C27.7752 41.3777 27.8749 41.4006 27.9617 41.4262C28.0506 41.4508 28.123 41.4868 28.182 41.5316C28.2397 41.5767 28.2848 41.6316 28.3161 41.6975C28.3455 41.765 28.3634 41.8472 28.3634 41.9451C28.3634 42.1812 28.2904 42.3607 28.1454 42.4883C28.0023 42.6158 27.8009 42.6862 27.5474 42.7046C27.4366 42.7108 27.319 42.7108 27.1943 42.7022C27.0716 42.6949 26.9496 42.6788 26.8292 42.6542V42.3245C26.9665 42.3397 27.0928 42.3485 27.2082 42.3522C27.3212 42.3591 27.4326 42.3567 27.5447 42.3479C27.6809 42.3359 27.7824 42.301 27.8433 42.2452C27.908 42.1892 27.9376 42.102 27.9376 41.9854C27.9386 41.9485 27.9288 41.912 27.9096 41.8805C27.8904 41.8489 27.8625 41.8236 27.8292 41.8074C27.7862 41.7863 27.7404 41.7716 27.6932 41.7637C27.6398 41.7525 27.5709 41.7407 27.4991 41.7295C27.3964 41.7144 27.2951 41.691 27.1962 41.6596C27.1153 41.6348 27.0395 41.5958 26.9724 41.5444C26.9127 41.4976 26.8653 41.437 26.8343 41.3678C26.8013 41.2853 26.7849 41.1971 26.7862 41.1082C26.7862 40.9161 26.8487 40.7598 26.9761 40.64C27.1016 40.52 27.3003 40.4501 27.5797 40.4255C27.8039 40.4066 28.0297 40.4237 28.2485 40.4762V40.8086ZM28.8342 40.3503C29.339 40.3151 29.8454 40.2847 30.3513 40.2561C30.35 40.3756 30.35 40.4946 30.3513 40.6133C29.9883 40.6333 29.6235 40.6539 29.2608 40.6782V41.2507C29.6115 41.2291 29.9622 41.208 30.3134 41.189C30.268 41.3104 30.2202 41.4326 30.1737 41.5537C29.8703 41.5713 29.5647 41.5879 29.2608 41.609V42.2025C29.6235 42.1785 29.9883 42.158 30.3513 42.1391C30.35 42.2572 30.35 42.3773 30.3513 42.4965C29.8454 42.5219 29.339 42.5539 28.8342 42.5894V40.3503ZM31.7444 42.0793C31.8564 42.0766 31.9346 42.0454 31.9795 41.9913C32.026 41.9347 32.05 41.8632 32.05 41.7696C32.05 41.6628 32.0238 41.5871 31.9672 41.5425C31.9138 41.4998 31.8369 41.4785 31.7444 41.4828C31.5837 41.4889 31.425 41.4948 31.264 41.5001V42.0977C31.425 42.0918 31.5834 42.0852 31.7444 42.0793ZM31.6811 41.1304C31.7931 41.1261 31.8716 41.097 31.9189 41.0426C31.9637 40.9914 31.987 40.9183 31.987 40.8297C31.987 40.7256 31.9629 40.6509 31.9082 40.6093C31.8564 40.5661 31.7813 40.5472 31.6811 40.5504C31.542 40.5557 31.4042 40.5608 31.264 40.5672V41.1461C31.4042 41.1405 31.5417 41.1344 31.6811 41.1304ZM31.6924 40.195C31.8211 40.1907 31.9311 40.2009 32.0238 40.2225C32.1144 40.2438 32.1913 40.2823 32.2487 40.3327C32.3048 40.3828 32.3481 40.4474 32.3732 40.5269C32.3991 40.6069 32.4106 40.7014 32.4106 40.8123C32.4106 40.9127 32.3972 40.9991 32.3676 41.0698C32.3382 41.1405 32.2923 41.201 32.2332 41.2523C32.3099 41.2899 32.3676 41.3496 32.4095 41.4262C32.4522 41.5028 32.4736 41.613 32.4736 41.7557C32.4736 41.8765 32.4565 41.9755 32.4231 42.0598C32.3914 42.1394 32.3405 42.21 32.2749 42.2652C32.2049 42.3223 32.1239 42.3643 32.0369 42.3888C31.9358 42.4163 31.8316 42.4316 31.7268 42.4341C31.4354 42.4453 31.1438 42.4579 30.8542 42.4709V40.2316C31.1336 40.2169 31.4114 40.2065 31.6924 40.195ZM33.5262 41.4929L34.0729 41.4838C33.9805 41.1978 33.8919 40.9119 33.7989 40.6248C33.7078 40.9143 33.6154 41.2029 33.5262 41.4929ZM34.1859 41.8371C33.9282 41.84 33.6699 41.8448 33.4095 41.8472C33.3534 42.0286 33.2965 42.2105 33.2402 42.3909C33.0954 42.3933 32.9504 42.3968 32.8075 42.3997C33.0497 41.6484 33.2946 40.8977 33.5369 40.1451C33.7118 40.143 33.8881 40.1411 34.062 40.1387C34.305 40.883 34.5454 41.6274 34.7898 42.3741C34.6456 42.3741 34.5006 42.3741 34.3555 42.3757C34.2997 42.1956 34.2441 42.0169 34.1859 41.8371ZM35.1408 42.3741V40.1323C35.2829 40.1323 35.4255 40.1355 35.5689 40.1355V42.0177C35.9092 42.0199 36.2495 42.0244 36.5897 42.031C36.5419 42.1479 36.4957 42.2668 36.45 42.3853C36.0136 42.3782 35.5772 42.3744 35.1408 42.3741ZM36.9669 42.3933V40.1539C37.1084 40.1587 37.2486 40.1619 37.3918 40.1667V42.0473C37.7331 42.0566 38.0729 42.0686 38.4118 42.0809C38.3664 42.1996 38.321 42.3157 38.274 42.433C37.8381 42.4186 37.4006 42.4042 36.9669 42.3933ZM41.3124 42.4995C41.1984 42.526 41.0829 42.5456 40.9665 42.5582C40.8517 42.572 40.74 42.5742 40.6337 42.568C40.4716 42.5568 40.3359 42.5216 40.2219 42.4579C40.1115 42.3959 40.0172 42.3091 39.9462 42.2044C39.873 42.0916 39.8208 41.9665 39.7921 41.8352C39.7583 41.6843 39.7418 41.5299 39.743 41.3753C39.743 41.201 39.7595 41.0426 39.7921 40.9049C39.8242 40.7651 39.8749 40.6499 39.9462 40.5538C40.0176 40.4605 40.1081 40.3892 40.2219 40.3444C40.3359 40.2985 40.4751 40.2804 40.6337 40.2905C40.7526 40.2985 40.8661 40.3153 40.9729 40.3393C41.0774 40.3634 41.193 40.3999 41.3121 40.4474V40.7691C41.2462 40.7523 41.1874 40.7355 41.1335 40.7208C41.0787 40.7083 41.0272 40.6955 40.978 40.6856C40.9302 40.6771 40.8819 40.6702 40.8343 40.6643C40.7868 40.6597 40.7355 40.6536 40.6829 40.6509C40.5023 40.6403 40.3704 40.7 40.294 40.8297C40.2152 40.9625 40.1765 41.1517 40.1765 41.3998C40.1765 41.5188 40.184 41.6276 40.2048 41.7242C40.2219 41.8218 40.2513 41.9072 40.294 41.9755C40.3359 42.0473 40.3893 42.1022 40.4543 42.1439C40.517 42.1847 40.5937 42.2084 40.6855 42.2132C40.7355 42.217 40.7844 42.217 40.829 42.217C40.8771 42.217 40.9238 42.217 40.9745 42.2132C41.0226 42.2084 41.0736 42.2036 41.1297 42.1972C41.1837 42.1913 41.2462 42.1833 41.3124 42.17V42.4995ZM41.7587 42.6315V40.3916C41.8981 40.402 42.0386 40.4135 42.1839 40.4255V42.3074C42.5218 42.3359 42.8618 42.3653 43.2021 42.3954C43.1537 42.5101 43.1083 42.6262 43.0626 42.7401C42.6283 42.7003 42.1937 42.6642 41.7587 42.6315ZM44.0186 42.1006C44.0186 42.242 44.0565 42.3453 44.1323 42.4096C44.2082 42.4771 44.3049 42.516 44.4288 42.527C44.5578 42.5419 44.6588 42.5248 44.7338 42.4755C44.8089 42.4261 44.8463 42.3306 44.8463 42.1887V40.6827C44.9892 40.6979 45.1315 40.715 45.2776 40.7328V42.2412C45.2776 42.3757 45.2555 42.4893 45.2215 42.58C45.1831 42.6702 45.1281 42.7404 45.0567 42.7921C44.9838 42.8442 44.8933 42.8759 44.7897 42.8908C44.67 42.9075 44.5486 42.9078 44.4288 42.8916C44.3064 42.8804 44.1857 42.8547 44.0693 42.8151C43.9728 42.7812 43.8842 42.728 43.8089 42.6587C43.7365 42.5896 43.6816 42.5043 43.6486 42.4098C43.6106 42.2972 43.5921 42.1789 43.5942 42.0601V40.552C43.7357 40.5661 43.8786 40.5792 44.0186 40.5933V42.1006ZM46.7186 42.7977C46.8281 42.8119 46.9074 42.7961 46.9523 42.7489C46.9988 42.7022 47.0228 42.6315 47.0228 42.54C47.0228 42.433 46.9953 42.3525 46.9405 42.2994C46.8839 42.246 46.8107 42.2132 46.7188 42.2004C46.5597 42.1783 46.3991 42.1577 46.24 42.1375V42.7348C46.3991 42.7545 46.5597 42.7775 46.7186 42.7977ZM46.6561 41.8373C46.7656 41.8525 46.8457 41.8373 46.89 41.7912C46.9368 41.7474 46.9595 41.6805 46.9595 41.5879C46.9614 41.4838 46.9349 41.4065 46.8828 41.3542C46.83 41.3043 46.7554 41.2715 46.6561 41.2589C46.5175 41.2399 46.3788 41.2219 46.24 41.2051V41.784C46.3788 41.8018 46.5167 41.82 46.6561 41.8373ZM46.6657 40.9049C46.7955 40.9236 46.9034 40.9508 46.9964 40.989C47.0869 41.0263 47.1625 41.077 47.218 41.1357C47.2736 41.1957 47.3171 41.2683 47.3422 41.3518C47.3681 41.4364 47.3802 41.5343 47.3818 41.6439C47.3818 41.745 47.3644 41.828 47.3372 41.8939C47.3059 41.9595 47.2629 42.0137 47.2028 42.0523C47.2792 42.1062 47.3372 42.1732 47.3802 42.2572C47.4202 42.3418 47.4405 42.4547 47.4405 42.5992C47.4405 42.718 47.4245 42.8153 47.3922 42.8932C47.361 42.9662 47.3099 43.029 47.2447 43.0744C47.1793 43.1189 47.1005 43.1464 47.0081 43.1558C46.9054 43.1669 46.8017 43.1645 46.6996 43.1488C46.4112 43.1109 46.1224 43.0731 45.8316 43.0378V40.7987C46.1099 40.8329 46.3885 40.8689 46.6657 40.9049Z" fill="white"/>
<path d="M19.5582 22.8572V16.0975H23.8354L26.857 22.8572H43.0017L46.1587 16.0975H50.4268V22.8572H52.5475V13.9795H17.4375V22.8572H19.5582Z" fill="#06141F"/>
<path d="M36.2277 20.4683C36.2277 20.495 36.2357 20.5102 36.2515 20.5102C36.2637 20.5085 36.2753 20.5037 36.2851 20.4963L40.6502 17.6658C40.7239 17.6143 40.812 17.5879 40.902 17.5903H41.8614C42.0083 17.5903 42.1079 17.6882 42.1079 17.8352V19.6653C42.1079 19.8862 42.0588 20.0148 41.8627 20.1324L40.699 20.8319C40.6874 20.84 40.6739 20.8449 40.6598 20.8461C40.6459 20.8461 40.6317 20.8349 40.6317 20.7943V18.6593C40.6317 18.6339 40.6248 18.6171 40.608 18.6171C40.5956 18.6186 40.584 18.6235 40.5743 18.6312L37.3844 20.702C37.3122 20.7512 37.2267 20.777 37.1393 20.7762H35.0247C34.8762 20.7762 34.7782 20.6783 34.7782 20.5299V17.8925C34.7782 17.8728 34.7699 17.8546 34.7531 17.8546C34.7408 17.8561 34.7292 17.8609 34.7194 17.8685L32.6148 19.1307C32.5934 19.1445 32.588 19.1547 32.588 19.1643C32.588 19.1725 32.5923 19.1811 32.6062 19.1963L34.1102 20.6977C34.13 20.7172 34.1438 20.7327 34.1438 20.7495C34.1438 20.7634 34.1214 20.7746 34.095 20.7746H32.7365C32.63 20.7746 32.5474 20.7594 32.49 20.702L31.5784 19.7923C31.575 19.7882 31.5707 19.7848 31.5659 19.7824C31.561 19.78 31.5558 19.7787 31.5504 19.7784C31.5405 19.779 31.5309 19.7819 31.5224 19.7869L29.9986 20.702C29.9062 20.758 29.8432 20.7732 29.7521 20.7732H28.3504C28.2008 20.7748 28.1025 20.6753 28.1025 20.5283V18.7334C28.1025 18.5109 28.1517 18.3834 28.3491 18.266L29.5197 17.5636C29.529 17.5575 29.5397 17.5541 29.5507 17.5537C29.5689 17.5537 29.5785 17.5721 29.5785 17.6124V20.0161C29.5785 20.0414 29.5841 20.0527 29.6025 20.0527C29.615 20.0507 29.6268 20.0459 29.6372 20.0388L33.592 17.6618C33.6676 17.6097 33.7603 17.5844 33.8524 17.5889H35.9812C36.1281 17.5889 36.2277 17.6868 36.2277 17.8336L36.2263 20.4683H36.2277Z" fill="white"/>
</g>
<defs>
<clipPath id="clip0_3277_1897">
<rect width="68.6" height="51.1" fill="white" transform="translate(0.700195 12.6001)"/>
</clipPath>
</defs>
</svg>
