<svg width="50" height="50" viewBox="0 0 50 50" fill="none" xmlns="http://www.w3.org/2000/svg">
<g clip-path="url(#clip0_3277_1846)">
<path d="M11.4675 9V16.9899L0.5 16.9811L3.43303 20.8864L5.78571 20.7658L5.78342 29.1551L11.4675 27.79V35.8715L24.9929 45.5001L38.5267 35.8673V27.8054L44.4153 29.404C46.2014 29.448 46.6611 28.4518 46.779 27.7858C46.8361 27.4561 46.8714 27.1026 46.884 26.8158C46.8964 26.6125 46.899 26.4105 46.8992 26.2118C46.8994 25.9395 46.8988 25.581 46.8981 25.2237C46.8967 24.5091 46.8943 23.7995 46.8943 23.7991V23.7987C46.8933 23.3953 46.854 22.9336 46.6062 22.4786C46.4335 22.1622 46.1691 21.8962 45.8559 21.6877L49.4999 16.9958L38.5269 16.9952V9H11.4675Z" fill="white"/>
<path d="M24.9944 41.5362L12.4551 34.4238V35.3652L24.9944 44.2852L37.5333 35.3652V34.4238L24.9944 41.5362Z" fill="#06141F"/>
<path d="M22.7979 35.9465H27.1933L28.2489 38.1501L37.5335 33.3734V27.9608C29.2715 26.1566 20.7169 26.157 12.4551 27.9617V33.3736L21.7393 38.1503L22.7979 35.9465Z" fill="#06141F"/>
<path d="M21.6864 17.9956H15.499C15.5957 18.0387 16.3829 18.3102 16.3829 19.1008L16.3779 24.47C16.3659 25.2366 16.9318 25.6052 18.0247 25.4933C19.7966 25.3177 21.5746 25.2111 23.3547 25.1737V21.2995C22.1868 21.3107 21.1829 21.3357 20.0159 21.3757V22.6772C20.3938 22.6597 20.5955 22.6452 20.9744 22.6305V23.9778C20.3129 24.0075 19.7557 24.0464 19.0923 24.0919C18.9189 24.1034 18.8394 24.0462 18.8394 23.909V19.4816C18.8394 19.3659 18.9225 19.308 19.0931 19.3059C19.637 19.2969 20.1283 19.2901 20.672 19.2842C20.8418 19.2828 20.911 19.344 20.911 19.4741V20.2493C21.73 20.2347 22.5523 20.224 23.3705 20.2185L23.3746 19.1323C23.3759 18.4219 22.766 17.9956 21.6867 17.9956" fill="#EA0029"/>
<path d="M35.975 19.6706V21.5642C35.975 21.7044 35.8962 21.7858 35.7266 21.7728C35.1089 21.7267 34.615 21.6842 33.9948 21.6436V19.3766C34.614 19.3918 35.1013 19.4094 35.7194 19.4248C35.8903 19.4313 35.975 19.5065 35.975 19.6706ZM38.4361 22.1677V19.3478C38.4197 18.5008 37.7212 17.9964 36.6418 17.9956H30.6514C30.7561 18.0394 31.5661 18.3005 31.5661 19.0721L31.5686 25.4918C32.3632 25.5684 33.2036 25.6616 33.9948 25.7658V22.9684C34.3927 23.0016 34.8142 23.0378 35.2121 23.0765C35.6343 24.0693 35.9487 25.0516 36.37 26.0976C37.168 26.2329 38.0372 26.4162 38.831 26.5801C38.4001 25.4774 37.957 24.3796 37.5018 23.2868C38.1078 23.1748 38.4458 22.7716 38.4361 22.1677Z" fill="#EA0029"/>
<path d="M3.95045 19.8541C4.91293 19.8011 5.82886 19.7503 6.79419 19.7049V27.5711C7.5865 27.3566 8.45473 27.1557 9.25333 26.968V19.5953C9.83082 19.5711 10.5043 19.5483 11.0806 19.5279V17.9958H2.53125C2.9924 18.6242 3.46555 19.2438 3.95045 19.8541ZM45.0083 22.359C44.27 22.0284 42.5758 21.2589 42.0531 21.0165C41.8616 20.9266 41.7904 20.7732 41.7904 20.6682V19.8941C41.7879 19.7299 41.8728 19.6495 42.0413 19.6578C43.2979 19.7146 44.7675 19.7779 46.0192 19.8474L47.4569 17.9958H38.4606C38.5844 18.0625 39.3925 18.3398 39.3925 19.251C39.3925 19.251 39.3992 20.2286 39.3992 20.7497C39.3992 21.2724 39.6693 21.6926 40.3229 21.9912C40.9746 22.2896 43.0959 23.1986 43.2579 23.2864C43.4696 23.3985 43.5051 23.5085 43.5051 23.8198V25.7416C43.5061 26.0027 43.3176 25.9606 43.2562 25.9466C42.825 25.8491 42.4671 25.7761 42.0336 25.6846C41.9722 25.6717 41.8181 25.6299 41.8152 25.382V24.1106C41.0291 23.9798 40.2415 23.8587 39.4524 23.7472V25.2115C39.4677 26.1517 40.1482 26.8501 41.2255 27.1182C42.2378 27.3655 43.2107 27.635 44.2116 27.929C45.2769 28.2511 45.8971 27.8116 45.895 26.6713C45.9026 26.6427 45.8931 23.8019 45.8931 23.8019C45.8912 23.1388 45.7464 22.6923 45.0081 22.359M12.3586 19.191V26.3117C13.1725 26.1629 13.9999 26.0259 14.8193 25.9047V17.9956H11.4793C11.701 18.0604 12.3588 18.4274 12.3588 19.1912M23.6296 17.9956C23.7521 18.0516 24.5648 18.3093 24.5648 19.025C24.5627 21.0706 24.5627 23.1151 24.5614 25.1594C26.4797 25.1499 28.3653 25.2227 30.2777 25.3723V24.0639C29.1706 23.9909 28.062 23.9412 26.9528 23.9149V22.2727C27.941 22.2923 28.926 22.3142 29.9127 22.3569V21.0108C28.9263 20.9802 27.9396 20.9591 26.9528 20.9477C26.9555 19.3152 26.9528 19.3152 26.9528 19.2741C28.0565 19.2819 29.0918 19.292 30.1945 19.3072V17.9958L23.6296 17.9956Z" fill="#EA0029"/>
<path d="M16.7635 30.5547C16.8427 30.5444 16.899 30.5178 16.932 30.4747C16.9644 30.4328 16.9806 30.3781 16.9806 30.3123C16.9806 30.2372 16.9621 30.1839 16.9217 30.1561C16.8835 30.129 16.8309 30.1189 16.7633 30.1269C16.6504 30.1427 16.5369 30.1582 16.423 30.1736V30.5995C16.5369 30.5843 16.6504 30.5694 16.7635 30.5547ZM16.7196 29.8805C16.7984 29.8697 16.8547 29.8436 16.8872 29.8024C16.9205 29.7618 16.9371 29.7096 16.9371 29.6454C16.936 29.5701 16.9182 29.519 16.8809 29.4924C16.8433 29.4657 16.7897 29.4573 16.7196 29.4666C16.6207 29.4792 16.5218 29.4925 16.423 29.5066V29.9207C16.5233 29.9074 16.6204 29.8929 16.7196 29.8805ZM16.7259 29.213C16.8194 29.2004 16.8967 29.1989 16.9621 29.2088C17.0278 29.2189 17.0789 29.2399 17.1214 29.2719C17.1615 29.3054 17.193 29.3487 17.2099 29.4036C17.2275 29.4582 17.2374 29.5255 17.2374 29.6055C17.2374 29.6757 17.2262 29.7384 17.2061 29.7915C17.1851 29.8436 17.1527 29.8895 17.1104 29.9314C17.1636 29.9529 17.2061 29.9899 17.2363 30.0425C17.266 30.0951 17.2811 30.1725 17.2811 30.2748C17.2811 30.3605 17.27 30.433 17.2449 30.4953C17.2226 30.5548 17.1869 30.6085 17.1405 30.6521C17.0916 30.6969 17.0345 30.7317 16.9722 30.7546C16.9006 30.7818 16.826 30.8003 16.75 30.8097C16.5443 30.8364 16.3387 30.8649 16.1328 30.893V29.2942C16.3297 29.2665 16.5283 29.2393 16.7259 29.213ZM18.0293 30.0158C18.1577 30.0015 18.2884 29.9869 18.417 29.9729C18.3531 29.7748 18.2898 29.5764 18.2247 29.3782C18.1602 29.5901 18.0923 29.8026 18.0293 30.0158ZM18.5 30.218C18.3157 30.2371 18.1308 30.2573 17.9479 30.2782C17.9069 30.4105 17.8668 30.5427 17.8271 30.6759C17.7235 30.6879 17.6215 30.7003 17.519 30.7121C17.6911 30.1582 17.8655 29.6055 18.0368 29.0526C18.1614 29.0388 18.2875 29.0257 18.4117 29.0122L18.9283 30.5595C18.8258 30.5694 18.7238 30.5795 18.6217 30.5909C18.5794 30.4659 18.5404 30.3419 18.5 30.218ZM20.1775 29.1486C20.0972 29.1339 20.0159 29.1255 19.9343 29.1236C19.858 29.1204 19.7874 29.1236 19.7206 29.1274C19.6847 29.1308 19.649 29.1361 19.6138 29.1434C19.579 29.1492 19.5504 29.1608 19.5239 29.1772C19.4987 29.1912 19.4777 29.2116 19.4629 29.2362C19.4463 29.2614 19.4394 29.2934 19.4394 29.3332C19.4371 29.3639 19.443 29.3946 19.4566 29.4222C19.4682 29.4458 19.4871 29.465 19.5105 29.4769C19.5365 29.4924 19.5687 29.5038 19.6101 29.5127C19.6498 29.5223 19.6998 29.5307 19.758 29.5406C19.8394 29.5551 19.9106 29.5714 19.9726 29.5897C20.0361 29.6073 20.0878 29.633 20.13 29.665C20.1712 29.6972 20.2035 29.7365 20.2258 29.7835C20.2468 29.8317 20.2595 29.8904 20.2595 29.9604C20.2595 30.129 20.2075 30.2573 20.1039 30.3483C20.0016 30.4394 19.8578 30.4897 19.6767 30.5029C19.5975 30.5073 19.5136 30.5073 19.4245 30.5012C19.3369 30.4959 19.2497 30.4845 19.1637 30.4669V30.2313C19.2618 30.2422 19.352 30.2485 19.4344 30.2512C19.5151 30.2561 19.5947 30.2544 19.6748 30.2481C19.7721 30.2395 19.8446 30.2146 19.8881 30.1747C19.9343 30.1347 19.9554 30.0724 19.9554 29.9891C19.9561 29.9628 19.9492 29.9368 19.9354 29.9142C19.9217 29.8917 19.9018 29.8736 19.878 29.862C19.8473 29.847 19.8146 29.8364 19.7809 29.8308C19.7427 29.8228 19.6935 29.8144 19.6422 29.8064C19.5688 29.7956 19.4965 29.7789 19.4258 29.7565C19.3681 29.7387 19.3139 29.7109 19.266 29.6742C19.2233 29.6407 19.1895 29.5974 19.1673 29.548C19.1438 29.4891 19.1321 29.426 19.133 29.3626C19.133 29.2254 19.1776 29.1137 19.2686 29.0282C19.3583 28.9424 19.5002 28.8925 19.6998 28.875C19.8599 28.8615 20.0212 28.8737 20.1775 28.9112V29.1486ZM20.5959 28.8212C20.9565 28.7961 21.3182 28.7743 21.6795 28.7539C21.6786 28.8393 21.6786 28.9243 21.6795 29.0091C21.4202 29.0234 21.1596 29.0381 20.9006 29.0554V29.4643C21.151 29.4489 21.4015 29.4339 21.6524 29.4203C21.62 29.507 21.5858 29.5943 21.5526 29.6808C21.3359 29.6934 21.1177 29.7052 20.9006 29.7203V30.1443C21.1596 30.1271 21.4202 30.1124 21.6795 30.0989C21.6786 30.1833 21.6786 30.2691 21.6795 30.3543C21.3182 30.3724 20.9565 30.3952 20.5959 30.4206V28.8212ZM22.6746 30.0562C22.7545 30.0543 22.8104 30.032 22.8425 29.9933C22.8757 29.9529 22.8929 29.9019 22.8929 29.835C22.8929 29.7588 22.8742 29.7046 22.8337 29.6728C22.7956 29.6423 22.7406 29.6271 22.6746 29.6301C22.5598 29.6345 22.4464 29.6387 22.3314 29.6425V30.0694C22.4464 30.0652 22.5596 30.0604 22.6746 30.0562ZM22.6294 29.3784C22.7093 29.3754 22.7654 29.3546 22.7992 29.3157C22.8312 29.2791 22.8478 29.2269 22.8478 29.1636C22.8478 29.0893 22.8307 29.036 22.7916 29.0062C22.7545 28.9754 22.7009 28.9618 22.6294 28.9641C22.53 28.9679 22.4316 28.9716 22.3314 28.9761V29.3896C22.4316 29.3856 22.5298 29.3813 22.6294 29.3784ZM22.6374 28.7103C22.7294 28.7073 22.808 28.7145 22.8742 28.7299C22.9388 28.7452 22.9938 28.7726 23.0348 28.8086C23.0749 28.8445 23.1058 28.8906 23.1237 28.9474C23.1422 29.0045 23.1504 29.072 23.1504 29.1513C23.1504 29.2229 23.1409 29.2847 23.1197 29.3351C23.0987 29.3856 23.0659 29.4289 23.0237 29.4655C23.0785 29.4924 23.1197 29.535 23.1496 29.5897C23.1802 29.6444 23.1954 29.7231 23.1954 29.8251C23.1954 29.9114 23.1832 29.9821 23.1594 30.0423C23.1367 30.0992 23.1003 30.1496 23.0535 30.189C23.0035 30.2298 22.9456 30.2598 22.8835 30.2773C22.8113 30.297 22.7369 30.3078 22.662 30.3097C22.4539 30.3177 22.2455 30.3266 22.0387 30.336V28.7364C22.2383 28.7259 22.4367 28.7185 22.6374 28.7103ZM23.9473 29.6374L24.3378 29.6309C24.2718 29.4266 24.2085 29.2223 24.1421 29.0173C24.077 29.2241 24.011 29.4302 23.9473 29.6374ZM24.4185 29.8832C24.2344 29.8853 24.0499 29.8887 23.8639 29.8904C23.8239 30.02 23.7832 30.15 23.743 30.2788C23.6396 30.2805 23.536 30.283 23.4339 30.2851C23.6069 29.7485 23.7819 29.2122 23.9549 28.6747C24.0799 28.6731 24.2058 28.6718 24.33 28.6701C24.5036 29.2018 24.6753 29.7334 24.8499 30.2668C24.7468 30.2668 24.6433 30.2668 24.5397 30.2679C24.4998 30.1393 24.4601 30.0116 24.4185 29.8832ZM25.1005 30.2668V28.6655C25.202 28.6655 25.3039 28.6678 25.4064 28.6678V30.0122C25.6494 30.0138 25.8925 30.017 26.1355 30.0217C26.1014 30.1052 26.0684 30.1902 26.0357 30.2748C25.724 30.2697 25.4123 30.267 25.1005 30.2668ZM26.4049 30.2805V28.681C26.506 28.6844 26.6062 28.6867 26.7084 28.6901V30.0334C26.9522 30.04 27.1949 30.0486 27.437 30.0574C27.4046 30.1422 27.3721 30.2251 27.3386 30.3089C27.0272 30.2986 26.7147 30.2883 26.4049 30.2805ZM29.5089 30.3563C29.4274 30.3753 29.3449 30.3893 29.2618 30.3983C29.1798 30.4082 29.1 30.4097 29.0241 30.4053C28.9083 30.3973 28.8114 30.3722 28.7299 30.3266C28.6511 30.2824 28.5837 30.2204 28.533 30.1456C28.4807 30.065 28.4434 29.9757 28.423 29.8819C28.3988 29.774 28.387 29.6638 28.3878 29.5533C28.3878 29.4289 28.3997 29.3157 28.423 29.2174C28.4458 29.1175 28.4821 29.0352 28.533 28.9666C28.584 28.8999 28.6486 28.849 28.7299 28.817C28.8114 28.7842 28.9108 28.7713 29.0241 28.7785C29.109 28.7842 29.1901 28.7962 29.2664 28.8134C29.341 28.8305 29.4236 28.8567 29.5087 28.8906V29.1204C29.4615 29.1084 29.4196 29.0964 29.381 29.0859C29.3419 29.0769 29.3051 29.0678 29.27 29.0607C29.2359 29.0546 29.2013 29.0497 29.1674 29.0455C29.1334 29.0423 29.0968 29.0379 29.0592 29.036C28.9302 29.0283 28.836 29.071 28.7814 29.1636C28.7251 29.2585 28.6975 29.3936 28.6975 29.5709C28.6975 29.6559 28.7028 29.7336 28.7177 29.8026C28.7299 29.8723 28.7509 29.9333 28.7814 29.9821C28.8114 30.0334 28.8495 30.0726 28.8959 30.1023C28.9407 30.1315 28.9955 30.1484 29.0611 30.1519C29.0968 30.1545 29.1317 30.1545 29.1636 30.1545C29.1979 30.1545 29.2313 30.1545 29.2675 30.1519C29.3019 30.1484 29.3383 30.145 29.3784 30.1404C29.4169 30.1363 29.4616 30.1305 29.5089 30.121V30.3563ZM29.8277 30.4507V28.8507C29.9272 28.8582 30.0276 28.8664 30.1314 28.875V30.2191C30.3727 30.2395 30.6156 30.2605 30.8586 30.282C30.8241 30.364 30.7917 30.4469 30.759 30.5282C30.4488 30.4998 30.1383 30.474 29.8277 30.4507ZM31.4418 30.0715C31.4418 30.1725 31.4689 30.2462 31.5231 30.2921C31.5773 30.3403 31.6463 30.3682 31.7349 30.376C31.827 30.3866 31.8991 30.3745 31.9527 30.3392C32.0063 30.3039 32.0331 30.2357 32.0331 30.1343V29.0586C32.1351 29.0695 32.2368 29.0817 32.3412 29.0945V30.1719C32.3412 30.2679 32.3253 30.3491 32.3011 30.4139C32.2736 30.4783 32.2343 30.5284 32.1834 30.5654C32.1313 30.6025 32.0666 30.6252 31.9926 30.6359C31.9071 30.6478 31.8204 30.648 31.7349 30.6365C31.6474 30.6284 31.5612 30.6101 31.4781 30.5818C31.4091 30.5576 31.3458 30.5196 31.2921 30.4701C31.2404 30.4207 31.2012 30.3598 31.1776 30.2923C31.1504 30.2119 31.1372 30.1274 31.1387 30.0425V28.9653C31.2398 28.9754 31.3419 28.9847 31.4418 28.9948V30.0715ZM33.3704 30.5694C33.4486 30.5795 33.5053 30.5682 33.5373 30.5345C33.5705 30.5012 33.5877 30.4507 33.5877 30.3853C33.5877 30.3089 33.5681 30.2513 33.5289 30.2134C33.4885 30.1753 33.4362 30.1519 33.3706 30.1427C33.2569 30.1269 33.1422 30.1122 33.0285 30.0978V30.5244C33.1422 30.5385 33.2569 30.5549 33.3704 30.5694ZM33.3258 29.8834C33.404 29.8942 33.4612 29.8834 33.4929 29.8504C33.5263 29.8192 33.5425 29.7713 33.5425 29.7052C33.5438 29.6309 33.5249 29.5756 33.4877 29.5383C33.45 29.5026 33.3967 29.4792 33.3258 29.4703C33.2268 29.4566 33.1277 29.4438 33.0285 29.4318V29.8453C33.1277 29.858 33.2262 29.871 33.3258 29.8834ZM33.3326 29.2174C33.4254 29.2307 33.5024 29.2502 33.5688 29.2774C33.6335 29.3041 33.6875 29.3403 33.7272 29.3822C33.7669 29.4251 33.7979 29.4769 33.8159 29.5366C33.8344 29.597 33.843 29.6669 33.8441 29.7452C33.8441 29.8174 33.8317 29.8767 33.8123 29.9238C33.7899 29.9707 33.7592 30.0093 33.7163 30.037C33.7709 30.0755 33.8123 30.1233 33.843 30.1833C33.8716 30.2437 33.8861 30.3243 33.8861 30.4276C33.8861 30.5124 33.8746 30.582 33.8516 30.6376C33.8293 30.6897 33.7928 30.7346 33.7462 30.767C33.6995 30.7988 33.6432 30.8185 33.5772 30.8251C33.5039 30.8331 33.4298 30.8314 33.3569 30.8202C33.1508 30.7931 32.9446 30.766 32.7368 30.7409V29.1415C32.9356 29.1659 33.1346 29.1917 33.3326 29.2174Z" fill="white"/>
<path d="M13.9699 16.3261V11.4977H17.025L19.1833 16.3261H30.7152L32.9703 11.4977H36.0189V16.3261H37.5337V9.98486H12.4551V16.3261H13.9699Z" fill="#06141F"/>
<path d="M25.8769 14.6204C25.8769 14.6395 25.8826 14.6503 25.8939 14.6503C25.9026 14.6491 25.9109 14.6457 25.9179 14.6404L29.0358 12.6186C29.0885 12.5818 29.1514 12.563 29.2157 12.5647H29.901C30.0059 12.5647 30.0771 12.6346 30.0771 12.7396V14.0468C30.0771 14.2046 30.042 14.2965 29.902 14.3805L29.0707 14.8802C29.0624 14.8859 29.0528 14.8894 29.0427 14.8903C29.0328 14.8903 29.0227 14.8822 29.0227 14.8533V13.3282C29.0227 13.3101 29.0177 13.2981 29.0057 13.2981C28.9969 13.2992 28.9885 13.3027 28.9816 13.3082L26.7032 14.7873C26.6516 14.8225 26.5905 14.841 26.528 14.8403H25.0176C24.9116 14.8403 24.8416 14.7704 24.8416 14.6644V12.7806C24.8416 12.7665 24.8356 12.7535 24.8236 12.7535C24.8149 12.7546 24.8065 12.758 24.7996 12.7634L23.2963 13.665C23.281 13.6749 23.2772 13.6821 23.2772 13.689C23.2772 13.6949 23.2802 13.701 23.2901 13.7118L24.3644 14.7843C24.3785 14.7982 24.3885 14.8093 24.3885 14.8213C24.3885 14.8312 24.3724 14.8392 24.3535 14.8392H23.3832C23.3071 14.8392 23.2482 14.8283 23.2072 14.7873L22.556 14.1375C22.5536 14.1346 22.5505 14.1322 22.547 14.1305C22.5436 14.1288 22.5398 14.1278 22.536 14.1276C22.5289 14.128 22.5221 14.1301 22.516 14.1337L21.4276 14.7873C21.3616 14.8274 21.3165 14.8382 21.2515 14.8382H20.2503C20.1434 14.8394 20.0732 14.7683 20.0732 14.6633V13.3812C20.0732 13.2223 20.1083 13.1312 20.2493 13.0474L21.0855 12.5456C21.0921 12.5413 21.0998 12.5389 21.1076 12.5386C21.1206 12.5386 21.1275 12.5517 21.1275 12.5805V14.2974C21.1275 14.3155 21.1315 14.3235 21.1447 14.3235C21.1536 14.3221 21.162 14.3187 21.1695 14.3136L23.9943 12.6158C24.0483 12.5786 24.1145 12.5605 24.1803 12.5637H25.7008C25.8058 12.5637 25.8769 12.6337 25.8769 12.7385L25.876 14.6204H25.8769Z" fill="white"/>
</g>
<defs>
<clipPath id="clip0_3277_1846">
<rect width="49" height="36.5" fill="white" transform="translate(0.5 9)"/>
</clipPath>
</defs>
</svg>
