<svg width="18" height="18" viewBox="0 0 18 18" fill="none" xmlns="http://www.w3.org/2000/svg">
<path d="M14.4857 14.6896H9.5189M3 15L6.44524 13.6749C6.66561 13.5901 6.77579 13.5478 6.87887 13.4924C6.97044 13.4433 7.05773 13.3866 7.13983 13.3228C7.23226 13.2511 7.31574 13.1676 7.48268 13.0007L14.4857 5.99772C15.1714 5.31195 15.1714 4.2001 14.4857 3.51433C13.7999 2.82856 12.6881 2.82856 12.0023 3.51433L4.9993 10.5173C4.83235 10.6843 4.74888 10.7677 4.67715 10.8602C4.61344 10.9423 4.55671 11.0296 4.50756 11.1211C4.45223 11.2242 4.40985 11.3344 4.32509 11.5548L3 15ZM3 15L4.27778 11.6778C4.36921 11.4401 4.41493 11.3212 4.49335 11.2668C4.56188 11.2192 4.64667 11.2012 4.72862 11.2168C4.82239 11.2348 4.91244 11.3248 5.09255 11.5049L6.4951 12.9075C6.67521 13.0876 6.76526 13.1776 6.78317 13.2714C6.79882 13.3533 6.78082 13.4381 6.73324 13.5067C6.67879 13.5851 6.55993 13.6308 6.32219 13.7222L3 15Z" stroke="white" stroke-width="1.4" stroke-linecap="round" stroke-linejoin="round"/>
</svg>
