<svg width="230" height="115" viewBox="0 0 230 115" fill="none" xmlns="http://www.w3.org/2000/svg">
<path d="M8.62476 115C3.8613 115 -0.0338823 111.133 0.323045 106.383C1.23613 94.2314 4.07633 82.2833 8.75362 70.9914C14.5329 57.0389 23.0037 44.3614 33.6825 33.6827C44.3612 23.004 57.0387 14.5331 70.9912 8.75383C84.9436 2.97454 99.8978 -1.20077e-05 115 -1.00273e-05C130.102 -8.04695e-06 145.056 2.97456 159.008 8.75385C172.961 14.5331 185.638 23.004 196.317 33.6827C206.996 44.3615 215.467 57.039 221.246 70.9914C225.923 82.2834 228.763 94.2314 229.676 106.383C230.033 111.133 226.138 115 221.375 115V115C216.611 115 212.789 111.131 212.37 106.386C211.495 96.5018 209.119 86.7912 205.309 77.5927C200.397 65.7331 193.196 54.9572 184.119 45.8803C175.043 36.8034 164.267 29.6032 152.407 24.6908C140.548 19.7784 127.836 17.25 115 17.25C102.163 17.25 89.452 19.7784 77.5925 24.6908C65.7329 29.6031 54.957 36.8034 45.8801 45.8803C36.8031 54.9572 29.6029 65.7331 24.6905 77.5927C20.8804 86.7911 18.5044 96.5018 17.63 106.386C17.2103 111.131 13.3882 115 8.62476 115V115Z" fill="#4C4C4C"/>
<path d="M8.62499 115C3.86154 115 -0.0336532 111.133 0.323264 106.383C1.64474 88.7958 6.99776 71.707 16.0147 56.4602C26.4985 38.733 41.5506 24.1466 59.5983 14.2247C77.6461 4.3029 98.0272 -0.590162 118.612 0.0567508C136.317 0.613146 153.614 5.25009 169.171 13.5579C173.373 15.8018 174.551 21.1627 171.999 25.1846V25.1846C169.446 29.2065 164.131 30.3604 159.9 28.1724C146.975 21.4886 132.686 17.7576 118.07 17.2982C100.573 16.7484 83.2492 20.9075 67.9086 29.341C52.568 37.7746 39.7737 50.1731 30.8625 65.2412C23.4186 77.828 18.9125 91.8918 17.6302 106.386C17.2105 111.131 13.3885 115 8.62499 115V115Z" fill="#AC0000"/>
</svg>
