<svg width="24" height="24" viewBox="0 0 24 24" fill="none" xmlns="http://www.w3.org/2000/svg">
<g clip-path="url(#clip0_3029_1473)">
<mask id="mask0_3029_1473" style="mask-type:luminance" maskUnits="userSpaceOnUse" x="0" y="0" width="24" height="24">
<path d="M23.7695 9.77372H12.2556V14.3873H18.8716C18.7652 15.0403 18.5264 15.6826 18.1767 16.2683C17.776 16.9393 17.2807 17.4502 16.7729 17.8392C15.2521 19.0046 13.479 19.2429 12.2476 19.2429C9.13691 19.2429 6.47903 17.2325 5.45011 14.5006C5.40859 14.4014 5.38102 14.299 5.34744 14.1978C5.12007 13.5025 4.99584 12.7661 4.99584 12.0008C4.99584 11.2042 5.13037 10.4417 5.37566 9.7216C6.34319 6.88141 9.06099 4.76006 12.2498 4.76006C12.8912 4.76006 13.5089 4.83641 14.0946 4.98869C15.4333 5.3367 16.3801 6.02212 16.9603 6.56428L20.4613 3.13576C18.3317 1.18317 15.5555 2.95218e-09 12.244 2.95218e-09C9.59665 -5.69793e-05 7.1525 0.824781 5.1496 2.21878C3.52531 3.34928 2.19316 4.86288 1.29412 6.62075C0.457891 8.25066 0 10.0569 0 11.999C0 13.9411 0.458591 15.7661 1.29483 17.381V17.3918C2.1781 19.1062 3.46975 20.5823 5.0396 21.7076C6.41104 22.6907 8.87017 24 12.244 24C14.1842 24 15.9038 23.6502 17.4203 22.9946C18.5142 22.5217 19.4835 21.9049 20.3611 21.1122C21.5206 20.0647 22.4288 18.7691 23.0486 17.2785C23.6684 15.7878 24 14.1022 24 12.2747C24 11.4236 23.9145 10.5592 23.7695 9.77363V9.77372Z" fill="white"/>
</mask>
<g mask="url(#mask0_3029_1473)">
<g filter="url(#filter0_f_3029_1473)">
<path d="M-0.176514 12.0806C-0.163787 13.9921 0.380886 15.9642 1.20534 17.5563V17.5673C1.80105 18.7235 2.61521 19.6368 3.54252 20.5417L9.14327 18.4982C8.08364 17.9599 7.92195 17.6301 7.16237 17.0282C6.38615 16.2455 5.80762 15.347 5.44734 14.2934H5.43282L5.44734 14.2824C5.21031 13.5866 5.18693 12.8481 5.17819 12.0806H-0.176514Z" fill="url(#paint0_radial_3029_1473)"/>
</g>
<g filter="url(#filter1_f_3029_1473)">
<path d="M12.2559 -0.0874023C11.7023 1.85739 11.914 3.74779 12.2559 4.84771C12.8952 4.84819 13.511 4.92439 14.0949 5.07619C15.4335 5.42421 16.3803 6.10964 16.9605 6.6518L20.551 3.13569C18.424 1.18543 15.8642 -0.0843296 12.2559 -0.0874023Z" fill="url(#paint1_radial_3029_1473)"/>
</g>
<g filter="url(#filter2_f_3029_1473)">
<path d="M12.2439 -0.102539C9.52858 -0.102598 7.0217 0.743416 4.96738 2.17321C4.20461 2.7041 3.50463 3.31735 2.88135 3.99931C2.71806 5.53117 4.10367 7.41398 6.84759 7.3984C8.17893 5.84975 10.1479 4.84778 12.3395 4.84778C12.3415 4.84778 12.3434 4.84795 12.3454 4.84796L12.2559 -0.102189C12.2519 -0.102191 12.2479 -0.102539 12.2439 -0.102539Z" fill="url(#paint2_radial_3029_1473)"/>
</g>
<g filter="url(#filter3_f_3029_1473)">
<path d="M21.2059 12.635L18.7822 14.2999C18.6759 14.9529 18.4369 15.5952 18.0872 16.1809C17.6865 16.8519 17.1912 17.3628 16.6835 17.7519C15.1658 18.9149 13.3974 19.1543 12.1663 19.1553C10.8939 21.3225 10.6708 22.408 12.2558 24.1571C14.2171 24.1557 15.9559 23.8017 17.4896 23.1387C18.5982 22.6594 19.5805 22.0343 20.4698 21.2309C21.6449 20.1694 22.5654 18.8564 23.1935 17.3458C23.8217 15.8351 24.1576 14.1269 24.1576 12.2749L21.2059 12.635Z" fill="url(#paint3_radial_3029_1473)"/>
</g>
<g filter="url(#filter4_f_3029_1473)">
<path d="M12.0769 9.59863V14.5628H23.7374C23.84 13.883 24.1792 13.0032 24.1792 12.2749C24.1792 11.4238 24.0938 10.3842 23.9488 9.59863H12.0769Z" fill="#3086FF"/>
</g>
<g filter="url(#filter5_f_3029_1473)">
<path d="M2.93687 3.82422C2.21729 4.61153 1.60255 5.49276 1.11514 6.4458C0.278915 8.0757 -0.178955 10.0572 -0.178955 11.9993C-0.178955 12.0266 -0.17669 12.0534 -0.176507 12.0807C0.193829 12.7908 4.93902 12.6548 5.1782 12.0807C5.1779 12.054 5.17488 12.0278 5.17488 12.001C5.17488 11.2044 5.30945 10.6173 5.55474 9.8972C5.85733 9.00893 6.33113 8.19095 6.93699 7.48619C7.07433 7.31085 7.44067 6.9339 7.54754 6.7078C7.58826 6.62168 7.47363 6.57334 7.46722 6.54303C7.46005 6.50912 7.30636 6.53639 7.27193 6.51114C7.16261 6.43095 6.94613 6.38907 6.81467 6.35185C6.5337 6.2723 6.06804 6.09685 5.80941 5.91498C4.99186 5.3401 3.716 4.65341 2.93687 3.82422Z" fill="url(#paint4_radial_3029_1473)"/>
</g>
<g filter="url(#filter6_f_3029_1473)">
<path d="M5.82694 6.54615C7.72274 7.69454 8.26794 5.9665 9.52839 5.42575L7.3358 0.878906C6.52924 1.2179 5.76721 1.63907 5.06016 2.13117C4.00424 2.86608 3.07179 3.76289 2.30151 4.78347L5.82694 6.54615Z" fill="url(#paint5_radial_3029_1473)"/>
</g>
<g filter="url(#filter7_f_3029_1473)">
<path d="M6.59868 18.1469C4.05381 19.0657 3.6554 19.0986 3.42114 20.6758C3.86879 21.1126 4.34976 21.5167 4.86086 21.883C6.2323 22.8661 8.87036 24.1754 12.2442 24.1754C12.2482 24.1754 12.252 24.1751 12.2559 24.1751V19.0676C12.2534 19.0676 12.2504 19.0678 12.2479 19.0678C10.9845 19.0678 9.97492 18.736 8.93979 18.1589C8.68457 18.0166 8.22154 18.3987 7.98616 18.2279C7.66153 17.9923 6.88026 18.4309 6.59868 18.1469Z" fill="url(#paint6_radial_3029_1473)"/>
</g>
<g opacity="0.5" filter="url(#filter8_f_3029_1473)">
<path d="M10.7654 18.9067V24.0866C11.2374 24.1419 11.7287 24.1754 12.2441 24.1754C12.7607 24.1754 13.2605 24.1489 13.7462 24.1001V18.9417C13.2019 19.0347 12.6893 19.0678 12.2477 19.0678C11.7392 19.0678 11.2446 19.0086 10.7654 18.9067Z" fill="url(#paint7_linear_3029_1473)"/>
</g>
</g>
</g>
<defs>
<filter id="filter0_f_3029_1473" x="-0.646593" y="11.6105" width="10.26" height="9.4011" filterUnits="userSpaceOnUse" color-interpolation-filters="sRGB">
<feFlood flood-opacity="0" result="BackgroundImageFix"/>
<feBlend mode="normal" in="SourceGraphic" in2="BackgroundImageFix" result="shape"/>
<feGaussianBlur stdDeviation="0.23504" result="effect1_foregroundBlur_3029_1473"/>
</filter>
<filter id="filter1_f_3029_1473" x="11.4454" y="-0.557482" width="9.57566" height="7.67942" filterUnits="userSpaceOnUse" color-interpolation-filters="sRGB">
<feFlood flood-opacity="0" result="BackgroundImageFix"/>
<feBlend mode="normal" in="SourceGraphic" in2="BackgroundImageFix" result="shape"/>
<feGaussianBlur stdDeviation="0.23504" result="effect1_foregroundBlur_3029_1473"/>
</filter>
<filter id="filter2_f_3029_1473" x="2.39833" y="-0.572618" width="10.4172" height="8.44114" filterUnits="userSpaceOnUse" color-interpolation-filters="sRGB">
<feFlood flood-opacity="0" result="BackgroundImageFix"/>
<feBlend mode="normal" in="SourceGraphic" in2="BackgroundImageFix" result="shape"/>
<feGaussianBlur stdDeviation="0.23504" result="effect1_foregroundBlur_3029_1473"/>
</filter>
<filter id="filter3_f_3029_1473" x="10.6688" y="11.8048" width="13.959" height="12.8225" filterUnits="userSpaceOnUse" color-interpolation-filters="sRGB">
<feFlood flood-opacity="0" result="BackgroundImageFix"/>
<feBlend mode="normal" in="SourceGraphic" in2="BackgroundImageFix" result="shape"/>
<feGaussianBlur stdDeviation="0.23504" result="effect1_foregroundBlur_3029_1473"/>
</filter>
<filter id="filter4_f_3029_1473" x="11.6068" y="9.12855" width="13.0425" height="5.90451" filterUnits="userSpaceOnUse" color-interpolation-filters="sRGB">
<feFlood flood-opacity="0" result="BackgroundImageFix"/>
<feBlend mode="normal" in="SourceGraphic" in2="BackgroundImageFix" result="shape"/>
<feGaussianBlur stdDeviation="0.23504" result="effect1_foregroundBlur_3029_1473"/>
</filter>
<filter id="filter5_f_3029_1473" x="-0.649034" y="3.35414" width="8.67527" height="9.67942" filterUnits="userSpaceOnUse" color-interpolation-filters="sRGB">
<feFlood flood-opacity="0" result="BackgroundImageFix"/>
<feBlend mode="normal" in="SourceGraphic" in2="BackgroundImageFix" result="shape"/>
<feGaussianBlur stdDeviation="0.23504" result="effect1_foregroundBlur_3029_1473"/>
</filter>
<filter id="filter6_f_3029_1473" x="-1.00334" y="-2.42594" width="13.8365" height="12.6629" filterUnits="userSpaceOnUse" color-interpolation-filters="sRGB">
<feFlood flood-opacity="0" result="BackgroundImageFix"/>
<feBlend mode="normal" in="SourceGraphic" in2="BackgroundImageFix" result="shape"/>
<feGaussianBlur stdDeviation="1.65243" result="effect1_foregroundBlur_3029_1473"/>
</filter>
<filter id="filter7_f_3029_1473" x="2.95106" y="17.6564" width="9.77488" height="6.98899" filterUnits="userSpaceOnUse" color-interpolation-filters="sRGB">
<feFlood flood-opacity="0" result="BackgroundImageFix"/>
<feBlend mode="normal" in="SourceGraphic" in2="BackgroundImageFix" result="shape"/>
<feGaussianBlur stdDeviation="0.23504" result="effect1_foregroundBlur_3029_1473"/>
</filter>
<filter id="filter8_f_3029_1473" x="10.2953" y="18.4367" width="3.92087" height="6.20871" filterUnits="userSpaceOnUse" color-interpolation-filters="sRGB">
<feFlood flood-opacity="0" result="BackgroundImageFix"/>
<feBlend mode="normal" in="SourceGraphic" in2="BackgroundImageFix" result="shape"/>
<feGaussianBlur stdDeviation="0.23504" result="effect1_foregroundBlur_3029_1473"/>
</filter>
<radialGradient id="paint0_radial_3029_1473" cx="0" cy="0" r="1" gradientTransform="matrix(-0.498722 -11.9519 17.9311 -0.717223 9.03115 20.3617)" gradientUnits="userSpaceOnUse">
<stop offset="0.141612" stop-color="#1ABD4D"/>
<stop offset="0.247515" stop-color="#6EC30D"/>
<stop offset="0.311547" stop-color="#8AC502"/>
<stop offset="0.366013" stop-color="#A2C600"/>
<stop offset="0.445673" stop-color="#C8C903"/>
<stop offset="0.540305" stop-color="#EBCB03"/>
<stop offset="0.615636" stop-color="#F7CD07"/>
<stop offset="0.699345" stop-color="#FDCD04"/>
<stop offset="0.771242" stop-color="#FDCE05"/>
<stop offset="0.860566" stop-color="#FFCE0A"/>
</radialGradient>
<radialGradient id="paint1_radial_3029_1473" cx="0" cy="0" r="1" gradientTransform="matrix(8.46967 -2.03557e-05 -1.19045e-05 10.7093 20.2151 6.3974)" gradientUnits="userSpaceOnUse">
<stop offset="0.408458" stop-color="#FB4E5A"/>
<stop offset="1" stop-color="#FF4540"/>
</radialGradient>
<radialGradient id="paint2_radial_3029_1473" cx="0" cy="0" r="1" gradientTransform="matrix(-11.8666 6.43492 8.91875 15.766 15.5898 -1.65274)" gradientUnits="userSpaceOnUse">
<stop offset="0.231273" stop-color="#FF4541"/>
<stop offset="0.311547" stop-color="#FF4540"/>
<stop offset="0.457516" stop-color="#FF4640"/>
<stop offset="0.540305" stop-color="#FF473F"/>
<stop offset="0.699346" stop-color="#FF5138"/>
<stop offset="0.771242" stop-color="#FF5B33"/>
<stop offset="0.860566" stop-color="#FF6C29"/>
<stop offset="1" stop-color="#FF8C18"/>
</radialGradient>
<radialGradient id="paint3_radial_3029_1473" cx="0" cy="0" r="1" gradientTransform="matrix(-21.5204 -27.5047 -10.3696 7.77752 12.4322 22.6038)" gradientUnits="userSpaceOnUse">
<stop offset="0.131546" stop-color="#0CBA65"/>
<stop offset="0.209784" stop-color="#0BB86D"/>
<stop offset="0.297297" stop-color="#09B479"/>
<stop offset="0.396257" stop-color="#08AD93"/>
<stop offset="0.477124" stop-color="#0AA6A9"/>
<stop offset="0.568425" stop-color="#0D9CC6"/>
<stop offset="0.667385" stop-color="#1893DD"/>
<stop offset="0.768727" stop-color="#258BF1"/>
<stop offset="0.858506" stop-color="#3086FF"/>
</radialGradient>
<radialGradient id="paint4_radial_3029_1473" cx="0" cy="0" r="1" gradientTransform="matrix(-1.52295 12.8522 18.1501 2.06168 11.2041 2.16435)" gradientUnits="userSpaceOnUse">
<stop offset="0.366013" stop-color="#FF4E3A"/>
<stop offset="0.457516" stop-color="#FF8A1B"/>
<stop offset="0.540305" stop-color="#FFA312"/>
<stop offset="0.615636" stop-color="#FFB60C"/>
<stop offset="0.771242" stop-color="#FFCD0A"/>
<stop offset="0.860566" stop-color="#FECF0A"/>
<stop offset="0.915033" stop-color="#FECF08"/>
<stop offset="1" stop-color="#FDCD01"/>
</radialGradient>
<radialGradient id="paint5_radial_3029_1473" cx="0" cy="0" r="1" gradientTransform="matrix(-4.40212 4.76677 -13.7322 -12.1566 9.06244 2.03076)" gradientUnits="userSpaceOnUse">
<stop offset="0.315904" stop-color="#FF4C3C"/>
<stop offset="0.603818" stop-color="#FF692C"/>
<stop offset="0.726837" stop-color="#FF7825"/>
<stop offset="0.884534" stop-color="#FF8D1B"/>
<stop offset="1" stop-color="#FF9F13"/>
</radialGradient>
<radialGradient id="paint6_radial_3029_1473" cx="0" cy="0" r="1" gradientTransform="matrix(-11.8666 -6.43492 8.91876 -15.766 15.5898 25.6527)" gradientUnits="userSpaceOnUse">
<stop offset="0.231273" stop-color="#0FBC5F"/>
<stop offset="0.311547" stop-color="#0FBC5F"/>
<stop offset="0.366013" stop-color="#0FBC5E"/>
<stop offset="0.457516" stop-color="#0FBC5D"/>
<stop offset="0.540305" stop-color="#12BC58"/>
<stop offset="0.699346" stop-color="#28BF3C"/>
<stop offset="0.771242" stop-color="#38C02B"/>
<stop offset="0.860566" stop-color="#52C218"/>
<stop offset="0.915033" stop-color="#67C30F"/>
<stop offset="1" stop-color="#86C504"/>
</radialGradient>
<linearGradient id="paint7_linear_3029_1473" x1="10.7654" y1="21.5411" x2="13.7462" y2="21.5411" gradientUnits="userSpaceOnUse">
<stop stop-color="#0FBC5C"/>
<stop offset="1" stop-color="#0CBA65"/>
</linearGradient>
<clipPath id="clip0_3029_1473">
<rect width="24" height="24" fill="white"/>
</clipPath>
</defs>
</svg>
