<svg width="117" height="105" viewBox="0 0 117 105" fill="none" xmlns="http://www.w3.org/2000/svg">
<g clip-path="url(#clip0_3243_1426)">
<path d="M4.03743 104.873C4.97419 101.981 5.83831 99.2656 6.7139 96.5542C7.51684 94.1273 8.24331 91.6736 9.19537 89.3006C9.76125 87.8545 9.40566 86.993 8.28155 86.0161C2.72596 81.1239 -0.424631 75.0511 0.045663 67.4591C0.428016 61.4824 3.20008 56.4749 6.73302 51.8327C12.0057 44.9099 18.8345 39.8216 26.0877 35.2372C28.531 33.6988 28.6457 33.3142 27.2348 30.8873L10.1895 1.97685C9.87213 1.43841 9.57772 0.884583 9.09213 0.011538H11.3863C35.1418 0 58.9051 0.0499982 82.6645 0C90.2886 0 97.4501 1.53841 103.874 5.79979C111.207 10.6919 115.191 17.7224 116.579 26.349C117.799 33.9141 116.197 41.1023 113.777 48.1982C111.67 54.3519 109.922 60.6747 107.456 66.6899C101.251 81.8124 90.7321 92.9697 75.9121 99.8694C68.6118 103.269 60.6599 105.019 52.6154 104.996C37.0663 105.019 21.5173 105.019 5.96831 104.996C5.42537 104.996 4.86713 104.927 4.03743 104.873ZM59.1307 39.1986C56.0986 39.9678 53.4604 40.5677 50.8642 41.3139C43.588 43.4061 36.438 45.9175 29.8233 49.6713C29.0448 50.1468 28.4491 50.8733 28.1333 51.7327C23.7286 64.622 19.3723 77.5228 15.0645 90.4351C14.1583 93.1274 13.3095 95.8388 12.388 98.7118C13.2445 98.7656 13.8027 98.831 14.3648 98.831C27.0436 98.831 39.7263 98.8964 52.4051 98.7848C55.6502 98.7792 58.8868 98.4494 62.0671 97.8003C80.5998 93.8619 93.5539 82.8239 101.247 65.6207C103.843 59.8132 105.453 53.5673 107.571 47.5444C109.643 41.6023 111.509 35.6218 110.886 29.1912C110.247 22.5723 107.942 16.7571 102.669 12.4495C97.4615 8.19585 91.3707 6.32669 84.7674 6.29592C63.6768 6.219 42.5863 6.25362 21.4957 6.25746C20.9543 6.29317 20.4155 6.36123 19.8821 6.4613L34.121 30.5912C34.5377 30.4297 34.8398 30.3335 35.1189 30.2066C48.4133 23.4607 62.2201 18.1878 76.8948 15.4033C80.3818 14.7418 83.8651 14.0995 87.7498 14.7764C87.2986 15.5456 87.0271 16.1071 86.6907 16.6109C84.0142 20.6223 80.0721 22.5838 75.4762 23.0799C68.7717 23.8593 62.1947 25.5035 55.9074 27.9721C51.7933 29.5451 47.8168 31.4719 43.7792 33.2411L43.9513 33.7026C44.2445 33.6494 44.5343 33.5788 44.8192 33.4911C54.6745 29.8268 64.9835 27.5414 75.4571 26.699C78.8333 26.4183 82.2248 25.5798 84.8707 23.3376C87.3521 21.2338 89.4818 18.7224 91.9557 16.1879C96.9263 18.7147 100.084 22.9876 100.631 29.1451C100.754 30.5373 100.295 31.0066 98.9107 31.1989C91.321 32.2373 85.7233 36.3179 82.5995 43.26C80.4048 48.1329 78.8563 53.3134 77.2007 58.4171C74.1418 67.8898 68.7354 75.1203 58.5533 77.2626C54.661 78.0818 50.5545 77.8933 46.1765 78.1856L59.1307 39.1986ZM54.7527 71.582C55.1984 71.6078 55.6452 71.6078 56.091 71.582C62.7248 70.5666 67.2939 66.736 69.7486 60.6439C71.9204 55.2595 73.5721 49.6674 75.3921 44.1522C76.0078 42.4782 76.5048 40.7624 76.8795 39.0178C77.2389 37.0448 76.8413 36.7102 74.8989 36.8833C72.8113 37.0833 70.7274 37.5755 68.6436 37.564C66.2998 37.564 65.5848 38.8563 64.9577 40.7908C62.8968 47.2444 60.6983 53.6557 58.561 60.0824C57.3145 63.8207 56.0795 67.5706 54.7527 71.582ZM20.146 56.1979C11.3098 62.4708 6.24743 72.8666 11.7342 81.5816C14.5292 73.1627 17.2745 64.8553 20.146 56.1979Z" fill="white"/>
<path d="M54.7529 71.5818C56.0797 67.5704 57.3147 63.8205 58.5765 60.0745C60.7138 53.6478 62.9123 47.2365 64.9732 40.7829C65.5888 38.8599 66.3153 37.5484 68.6591 37.5561C70.7429 37.5561 72.8268 37.0754 74.9144 36.8754C76.8568 36.6869 77.2544 37.0369 76.895 39.0099C76.5203 40.7546 76.0233 42.4703 75.4076 44.1443C73.5723 49.6595 71.9359 55.2555 69.7641 60.636C67.3094 66.7281 62.7403 70.5588 56.1065 71.5741C55.6558 71.603 55.2039 71.6056 54.7529 71.5818Z" fill="black"/>
<path d="M85.3296 46.2907C86.8016 40.3678 93.4737 35.095 99.6716 34.8604C99.6984 39.4063 93.0034 46.6907 85.3296 46.2907Z" fill="white"/>
</g>
<defs>
<clipPath id="clip0_3243_1426">
<rect width="117" height="105" fill="white"/>
</clipPath>
</defs>
</svg>
