<svg width="24" height="24" viewBox="0 0 24 24" fill="none" xmlns="http://www.w3.org/2000/svg">
<path d="M16.7578 6.284L16.201 5.85975V5.85975L16.7578 6.284ZM11.4665 3.22908L10.8207 2.95901V2.95901L11.4665 3.22908ZM7.89895 12.5182C7.56414 12.3249 7.13603 12.4396 6.94273 12.7744C6.74943 13.1092 6.86414 13.5373 7.19895 13.7306L7.54895 13.1244L7.89895 12.5182ZM9.79702 15.2306C10.1318 15.4239 10.5599 15.3092 10.7532 14.9744C10.9465 14.6396 10.8318 14.2115 10.497 14.0182L10.147 14.6244L9.79702 15.2306ZM2 19.7358L1.39378 19.3858C1.20048 19.7206 1.3152 20.1487 1.65 20.342L2 19.7358ZM6.09808 18.6378L5.74808 19.244V19.244L6.09808 18.6378ZM7.19615 22.7358L6.84615 23.342C7.00693 23.4349 7.198 23.46 7.37733 23.412C7.55665 23.3639 7.70954 23.2466 7.80237 23.0858L7.19615 22.7358ZM16.7578 6.284L16.201 5.85975L6.40722 18.7133L6.96401 19.1376L7.5208 19.5618L17.3146 6.70825L16.7578 6.284ZM5.23196 18.1376L5.87776 18.4076L12.1124 3.49915L11.4665 3.22908L10.8207 2.95901L4.58615 17.8675L5.23196 18.1376ZM7.54895 13.1244L7.19895 13.7306L9.79702 15.2306L10.147 14.6244L10.497 14.0182L7.89895 12.5182L7.54895 13.1244ZM15.848 1.75006L15.498 2.35628C16.7403 3.07354 17.0705 4.71871 16.201 5.85975L16.7578 6.284L17.3146 6.70825C18.6955 4.89598 18.1711 2.28304 16.198 1.14384L15.848 1.75006ZM15.848 1.75006L16.198 1.14384C14.2248 0.00463855 11.6998 0.857004 10.8207 2.95901L11.4665 3.22908L12.1124 3.49915C12.6658 2.17568 14.2556 1.63901 15.498 2.35628L15.848 1.75006ZM2 19.7358L2.60622 20.0858C3.24135 18.9858 4.648 18.6088 5.74808 19.244L6.09808 18.6378L6.44808 18.0315C4.67839 17.0098 2.41551 17.6161 1.39378 19.3858L2 19.7358ZM6.09808 18.6378L5.74808 19.244C6.84815 19.8791 7.22506 21.2858 6.58993 22.3858L7.19615 22.7358L7.80237 23.0858C8.8241 21.3161 8.21776 19.0533 6.44808 18.0315L6.09808 18.6378ZM7.19615 22.7358L7.54615 22.1296L2.35 19.1296L2 19.7358L1.65 20.342L6.84615 23.342L7.19615 22.7358ZM21 18.0001H20.3C20.3 19.2703 19.2703 20.3001 18 20.3001V21.0001V21.7001C20.0435 21.7001 21.7 20.0435 21.7 18.0001H21ZM18 21.0001V20.3001C16.7297 20.3001 15.7 19.2703 15.7 18.0001H15H14.3C14.3 20.0435 15.9565 21.7001 18 21.7001V21.0001ZM15 18.0001H15.7C15.7 16.7298 16.7297 15.7001 18 15.7001V15.0001V14.3001C15.9565 14.3001 14.3 15.9566 14.3 18.0001H15ZM18 15.0001V15.7001C19.2703 15.7001 20.3 16.7298 20.3 18.0001H21H21.7C21.7 15.9566 20.0435 14.3001 18 14.3001V15.0001Z" fill="#BEC0C2"/>
</svg>
