<svg width="24" height="24" viewBox="0 0 24 24" fill="none" xmlns="http://www.w3.org/2000/svg">
<g clip-path="url(#clip0_3173_1497)">
<path d="M3 11V19.5556C3 20.7044 5.82375 21.7372 9.75 22V18.3333H14.25V22C18.1144 21.725 21 20.6922 21 19.5556V11" fill="white"/>
<path d="M12 8.5C14.4107 8.5 16.7386 8.71232 18.4727 9.09766C19.3361 9.28955 20.0459 9.52255 20.5518 9.79395C20.8042 9.92941 21.0295 10.087 21.1973 10.2734C21.3676 10.4628 21.5 10.7081 21.5 11C21.5 11.2919 21.3676 11.5372 21.1973 11.7266C21.0295 11.913 20.8042 12.0706 20.5518 12.2061C20.0459 12.4774 19.3361 12.7105 18.4727 12.9023C16.7386 13.2877 14.4107 13.5 12 13.5C9.58928 13.5 7.26135 13.2877 5.52734 12.9023C4.66389 12.7105 3.95411 12.4774 3.44824 12.2061C3.1958 12.0706 2.9705 11.913 2.80273 11.7266C2.63244 11.5372 2.5 11.2919 2.5 11L2.50586 10.8926C2.53358 10.6476 2.65376 10.4391 2.80273 10.2734C2.9705 10.087 3.1958 9.92941 3.44824 9.79395C3.95411 9.52255 4.66389 9.28955 5.52734 9.09766C7.26135 8.71232 9.58928 8.5 12 8.5Z" fill="white" stroke="#111111" stroke-linecap="round" stroke-linejoin="round"/>
<path d="M10 5H15V2H10V9" fill="#111111"/>
<path d="M10 5H15V2H10V9" stroke="white" stroke-width="1.4" stroke-linecap="round" stroke-linejoin="round"/>
</g>
<defs>
<clipPath id="clip0_3173_1497">
<rect width="24" height="24" fill="white"/>
</clipPath>
</defs>
</svg>
