<svg width="24" height="24" viewBox="0 0 24 24" fill="none" xmlns="http://www.w3.org/2000/svg">
<path fill-rule="evenodd" clip-rule="evenodd" d="M7.8844 18.5597L10.2808 15.3367L6.52706 13.1694L6.07523 14.1981L4.99027 16.8521C5.49566 16.9574 6.01269 17.1508 6.53131 17.4502C7.08293 17.7687 7.52971 18.1456 7.8844 18.5597ZM6.952 19.8137C6.67607 19.41 6.2922 19.0442 5.78131 18.7492C5.31644 18.4808 4.85334 18.3329 4.4064 18.2804C3.11471 18.129 1.95765 18.776 1.28273 19.6192C1.11017 19.8348 1.19425 20.143 1.4334 20.2811L6.62955 23.2811C6.8687 23.4192 7.17765 23.3379 7.27807 23.0806C7.65751 22.1087 7.65319 20.839 6.952 19.8137ZM17.182 6.05532L11.1819 14.1248L7.13391 11.7877L11.1834 2.56797C12.0197 0.663836 14.3248 -0.0915457 16.1259 0.948304C17.9342 1.99235 18.4279 4.37967 17.182 6.05532ZM22.0002 18.5002C22.0002 20.4332 20.4332 22.0002 18.5002 22.0002C16.5672 22.0002 15.0002 20.4332 15.0002 18.5002C15.0002 16.5672 16.5672 15.0002 18.5002 15.0002C20.4332 15.0002 22.0002 16.5672 22.0002 18.5002Z" fill="#F2F2F2"/>
</svg>
