<svg width="24" height="24" viewBox="0 0 24 24" fill="none" xmlns="http://www.w3.org/2000/svg">
<g clip-path="url(#clip0_3173_1489)">
<path d="M18.6803 7.22998V22.5H5.32031V7.22998" stroke="#BEC0C2" stroke-width="1.4" stroke-miterlimit="10" stroke-linecap="round" stroke-linejoin="round"/>
<path d="M5.32 12H1.5V8C1.50547 6.27779 2.19211 4.6277 3.41 3.41C4.6277 2.19211 6.27779 1.50547 8 1.5H9.14C9.14 2.5 10.42 3.41 12 3.41C13.58 3.41 14.86 2.55 14.86 1.5H16C17.7291 1.50018 19.3874 2.18722 20.61 3.41C21.8206 4.63095 22.4998 6.28065 22.5 8V12H18.68" stroke="#BEC0C2" stroke-width="1.4" stroke-miterlimit="10" stroke-linecap="round" stroke-linejoin="round"/>
<path d="M10 13V10L9 10.75" stroke="#BEC0C2" stroke-width="1.4" stroke-linecap="round" stroke-linejoin="round"/>
<circle cx="13.5" cy="11.5" r="1.5" stroke="#BEC0C2" stroke-width="1.4"/>
</g>
<defs>
<clipPath id="clip0_3173_1489">
<rect width="24" height="24" fill="white"/>
</clipPath>
</defs>
</svg>
