<svg width="24" height="24" viewBox="0 0 24 24" fill="none" xmlns="http://www.w3.org/2000/svg">
<g clip-path="url(#clip0_3173_1482)">
<path d="M3 11C3 11.5304 3.94821 12.0391 5.63604 12.4142C7.32387 12.7893 9.61305 13 12 13C14.3869 13 16.6761 12.7893 18.364 12.4142C20.0518 12.0391 21 11.5304 21 11C21 10.4696 20.0518 9.96086 18.364 9.58579C16.6761 9.21071 14.3869 9 12 9C9.61305 9 7.32387 9.21071 5.63604 9.58579C3.94821 9.96086 3 10.4696 3 11Z" stroke="#BEC0C2" stroke-width="1.4" stroke-linecap="round" stroke-linejoin="round"/>
<path d="M3 11V19.5556C3 20.7044 5.82375 21.7372 9.75 22V18.3333H14.25V22C18.1144 21.725 21 20.6922 21 19.5556V11" stroke="#BEC0C2" stroke-width="1.4" stroke-linecap="round" stroke-linejoin="round"/>
<path d="M10 5H15V2H10V9" stroke="#BEC0C2" stroke-width="1.4" stroke-linecap="round" stroke-linejoin="round"/>
</g>
<defs>
<clipPath id="clip0_3173_1482">
<rect width="24" height="24" fill="white"/>
</clipPath>
</defs>
</svg>
