<svg width="24" height="24" viewBox="0 0 24 24" fill="none" xmlns="http://www.w3.org/2000/svg">
<path d="M8 16.943H16M11.0177 2.50424L4.23539 7.85451C3.78202 8.21215 3.55534 8.39097 3.39203 8.61492C3.24737 8.81329 3.1396 9.03677 3.07403 9.27438C3 9.54261 3 9.83388 3 10.4164V17.7544C3 18.8905 3 19.4585 3.21799 19.8924C3.40973 20.2741 3.71569 20.5844 4.09202 20.7789C4.51984 21 5.07989 21 6.2 21H17.8C18.9201 21 19.4802 21 19.908 20.7789C20.2843 20.5844 20.5903 20.2741 20.782 19.8924C21 19.4585 21 18.8905 21 17.7544V10.4164C21 9.83388 21 9.54261 20.926 9.27438C20.8604 9.03677 20.7526 8.81329 20.608 8.61492C20.4447 8.39097 20.218 8.21215 19.7646 7.85451L12.9823 2.50424C12.631 2.22709 12.4553 2.08852 12.2613 2.03525C12.0902 1.98825 11.9098 1.98825 11.7387 2.03525C11.5447 2.08852 11.369 2.22709 11.0177 2.50424Z" stroke="#BEC0C2" stroke-width="1.4" stroke-linecap="round" stroke-linejoin="round"/>
</svg>
