<svg width="50" height="50" viewBox="0 0 50 50" fill="none" xmlns="http://www.w3.org/2000/svg">
<g clip-path="url(#clip0_2258_3245)">
<mask id="mask0_2258_3245" style="mask-type:luminance" maskUnits="userSpaceOnUse" x="-1" y="7" width="51" height="36">
<path d="M-0.000244141 7.67132H49.9498V42.3054H-0.000244141V7.67132Z" fill="white"/>
</mask>
<g mask="url(#mask0_2258_3245)">
<path d="M37.7914 24.9882C37.7914 31.49 32.5647 36.761 26.1173 36.761C19.6697 36.761 14.4426 31.49 14.4426 24.9882C14.4426 18.4861 19.6697 13.2151 26.1173 13.2151C32.5647 13.2151 37.7914 18.4861 37.7914 24.9882Z" fill="white"/>
<path d="M31.5916 20.2757C31.5916 20.2757 32.228 20.0625 32.5149 20.1328L32.6013 19.9044C32.3548 19.7836 31.7365 19.929 31.7365 19.929C31.7365 19.929 31.4424 19.3874 31.2312 19.3399L31.1274 19.5982C31.4218 19.7687 31.5916 20.2757 31.5916 20.2757Z" fill="#C7A079"/>
<path d="M29.1846 35.4786C29.1846 35.4786 28.9252 35.1172 28.7626 35.0836L28.6863 35.2744C28.9144 35.4183 29.0598 35.7199 29.0598 35.7199C29.0598 35.7199 29.6319 35.6006 29.8592 35.6682L29.9407 35.4816C29.747 35.3762 29.1846 35.4786 29.1846 35.4786Z" fill="#C7A079"/>
<path d="M30.3467 32.6112C30.3467 32.6112 29.8472 32.1176 29.6386 32.1284L29.6101 32.3922C29.9349 32.4925 30.273 32.9565 30.273 32.9565C30.273 32.9565 30.8659 32.5377 31.1597 32.5425L31.2027 32.2808C30.935 32.2187 30.3467 32.6112 30.3467 32.6112Z" fill="#C7A079"/>
<path d="M32.0256 19.4353C32.0256 19.4353 32.6593 19.3344 32.9507 19.3735L33.0822 19.1085C32.8246 19.0149 32.1677 19.1194 32.1677 19.1194C32.1677 19.1194 31.8872 18.6014 31.6734 18.5763L31.5693 18.8329C31.8784 18.9725 32.0256 19.4353 32.0256 19.4353Z" fill="#C7A079"/>
<path d="M32.5371 18.6048C32.5371 18.6048 33.0372 18.5797 33.3232 18.6363L33.4723 18.3783C33.2235 18.2686 32.7074 18.2847 32.7074 18.2847C32.7074 18.2847 32.3743 17.8652 32.18 17.7861L32.0608 18.0163C32.3584 18.1723 32.5371 18.6048 32.5371 18.6048Z" fill="#C7A079"/>
<path d="M32.9923 17.8501C32.9923 17.8501 33.4707 17.7992 33.7508 17.8755L33.9212 17.6084C33.6823 17.4848 33.1837 17.5417 33.1837 17.5417C33.1837 17.5417 32.9179 17.0823 32.7114 17.0305L32.5869 17.241C32.8713 17.4164 32.9923 17.8501 32.9923 17.8501Z" fill="#C7A079"/>
<path d="M33.4687 17.1407C33.4687 17.1407 33.8906 17.1755 34.1634 17.2694L34.3176 17.0631C34.0872 16.922 33.6262 16.8978 33.6262 16.8978C33.6262 16.8978 33.389 16.4523 33.1869 16.3865L33.0574 16.5792C33.3292 16.7712 33.4687 17.1407 33.4687 17.1407Z" fill="#C7A079"/>
<path d="M28.8753 36.0371C28.8753 36.0371 28.6125 35.6812 28.462 35.6473L28.3918 35.8372C28.603 35.9814 28.7597 36.2797 28.7597 36.2797C28.7597 36.2797 29.2698 36.1634 29.4813 36.2315L29.5559 36.0443C29.3775 35.9392 28.8753 36.0371 28.8753 36.0371Z" fill="#C7A079"/>
<path d="M29.4922 34.8613C29.4922 34.8613 29.1343 34.4046 28.9451 34.3779L28.8752 34.6178C29.1503 34.772 29.3718 35.1675 29.3718 35.1675C29.3718 35.1675 29.9884 34.9425 30.2545 35.0049L30.3312 34.7683C30.1001 34.6593 29.4922 34.8613 29.4922 34.8613Z" fill="#C7A079"/>
<path d="M29.8228 34.2207C29.8228 34.2207 29.3775 33.6946 29.1697 33.6886L29.1213 33.9506C29.4342 34.0833 29.726 34.5615 29.726 34.5615C29.726 34.5615 30.3533 34.182 30.6458 34.215L30.7039 33.9557C30.444 33.8676 29.8228 34.2207 29.8228 34.2207Z" fill="#C7A079"/>
<path d="M30.1077 33.3957C30.1077 33.3957 29.6375 32.8823 29.4299 32.8839L29.3899 33.1464C29.7078 33.2643 30.0223 33.7373 30.0223 33.7373C30.0223 33.7373 30.6345 33.3406 30.9278 33.3612L30.9785 33.0995C30.7153 33.0235 30.1077 33.3957 30.1077 33.3957Z" fill="#C7A079"/>
<path d="M20.9606 16.5041L21.1765 16.3181C20.9956 16.2139 20.804 15.6105 20.804 15.6105C20.804 15.6105 20.3854 15.5978 20.1942 15.5388L19.9187 15.7381L20.5784 15.8159C20.5784 15.8159 20.732 16.3878 20.9606 16.5041Z" fill="#C7A079"/>
<path d="M21.7056 15.9716L21.9322 15.7984C21.7026 15.6817 21.5479 15.1045 21.5479 15.1045C21.5479 15.1045 21.1178 15.0617 20.9574 14.9673L20.7349 15.1399C20.881 15.2547 21.3305 15.3016 21.3305 15.3016C21.3305 15.3016 21.4682 15.8707 21.7056 15.9716Z" fill="#C7A079"/>
<path d="M20.2473 17.108C20.3109 17.0436 20.3767 16.9814 20.4444 16.9214C20.2353 16.6579 20.1623 16.1597 20.1623 16.1597C20.1623 16.1597 19.6737 16.1385 19.4392 16.1243C19.3673 16.1893 19.2656 16.3163 19.2656 16.3163L19.9086 16.3923C19.9086 16.3923 20.0377 16.8684 20.2473 17.108Z" fill="#C7A079"/>
<path d="M19.6528 17.7764C19.7112 17.7168 19.7792 17.6405 19.8484 17.5802C19.6386 17.3154 19.5359 16.7769 19.5359 16.7769C19.5359 16.7769 19.0662 16.7564 18.834 16.7409C18.7599 16.8066 18.6968 16.8605 18.6597 16.9341L19.2899 17.0041C19.2899 17.0041 19.4419 17.5381 19.6528 17.7764Z" fill="#C7A079"/>
<path d="M22.4272 15.437L22.669 15.2765C22.3866 15.218 22.2445 14.595 22.2445 14.595C22.2445 14.595 21.8657 14.5905 21.7391 14.5063C21.6417 14.5593 21.5396 14.5959 21.4419 14.6598C21.5856 14.7295 22.0096 14.7625 22.0096 14.7625C22.0096 14.7625 22.2109 15.3401 22.4272 15.437Z" fill="#C7A079"/>
<path d="M19.1965 18.2774C18.999 18.0602 18.8249 17.5045 18.8249 17.5045C18.8249 17.5045 18.3812 17.5266 18.1466 17.5208L17.9404 17.7413C18.1732 17.7801 18.5971 17.7592 18.5971 17.7592C18.5971 17.7592 18.7417 18.2416 19.0113 18.5206L19.1965 18.2774Z" fill="#C7A079"/>
<path d="M23.1194 14.8655C23.181 14.8198 23.3429 14.7317 23.3429 14.7317C23.0842 14.6305 23.0666 14.1768 23.0666 14.1768C23.0666 14.1768 22.4983 14.1674 22.3659 14.1047C22.285 14.1586 22.1983 14.1877 22.1208 14.254C22.2292 14.3467 22.8047 14.3727 22.8047 14.3727C22.8047 14.3727 22.8646 14.8113 23.1194 14.8655Z" fill="#C7A079"/>
<path d="M17.6031 18.2989C17.5366 18.39 17.4864 18.4478 17.4226 18.5384L18.0263 18.5678C18.0263 18.5678 18.1543 19.1275 18.3579 19.3265L18.5276 19.0733C18.3551 18.8685 18.2447 18.2964 18.2447 18.2964C18.2447 18.2964 17.806 18.3149 17.6031 18.2989Z" fill="#C7A079"/>
<path d="M17.596 19.1485C17.596 19.1485 17.212 19.2021 17.0118 19.1533L16.8406 19.3665C16.9989 19.4244 17.4205 19.4252 17.4205 19.4252C17.4205 19.4252 17.6395 20.1579 17.8119 20.2479L17.9685 19.9732C17.7472 19.7893 17.596 19.1485 17.596 19.1485Z" fill="#C7A079"/>
<path d="M16.4923 20.0695L16.3352 20.3185L16.9006 20.3179C16.9006 20.3179 17.037 20.9176 17.2828 21.1078L17.431 20.8431C17.2678 20.6677 17.0981 20.0553 17.0981 20.0553L16.4923 20.0695Z" fill="#C7A079"/>
<path d="M15.9934 21.0381L15.8765 21.3035L16.4288 21.2737C16.4288 21.2737 16.6485 21.8226 16.853 22.0146C16.9079 21.9234 16.9351 21.799 16.9843 21.7096C16.7427 21.4734 16.5886 21.01 16.5886 21.01L15.9934 21.0381Z" fill="#C7A079"/>
<path d="M23.4883 13.9456C23.5148 14.1813 23.753 14.4245 23.753 14.4245L23.9557 14.2873C23.7729 14.1322 23.699 13.8048 23.699 13.8048L23.3312 13.7633C23.1466 13.753 22.7551 13.8905 22.7551 13.8905C22.9386 13.8841 23.4883 13.9456 23.4883 13.9456Z" fill="#C7A079"/>
<path d="M44.5831 26.0277L44.5568 26.1712C44.5368 26.2761 43.3848 26.4829 42.2331 26.724C42.2696 26.3745 42.2935 26.0213 42.3079 25.6661C43.4889 25.8535 44.5831 26.0277 44.5831 26.0277ZM34.8238 23.7062L34.4005 27.2137C34.3661 27.4288 34.2912 27.6971 34.1098 27.7498L32.9588 27.8722L33.382 24.3655C33.4141 24.1468 33.4918 23.88 33.6713 23.8276L34.8238 23.7062ZM26.1168 37.0363C22.527 37.036 19.3094 35.4377 17.1192 32.9099C17.2505 32.8966 17.3484 32.8856 17.3992 32.8805C17.4273 32.8781 17.443 32.8569 17.4477 32.8191C17.549 31.981 18.7245 22.2657 18.7267 22.2466C18.7272 22.226 18.703 22.2181 18.685 22.2215C18.6675 22.2242 18.0455 22.338 17.4641 22.4489C17.1338 22.5131 16.8078 22.6303 16.4945 22.789C16.4978 22.7754 16.5009 22.7621 16.504 22.7518C16.2616 22.5189 16.2173 21.9949 16.2173 21.9949L15.5516 22.0915L15.4719 22.3502L16.0018 22.2727C16.0018 22.2727 16.0334 22.6352 16.2428 22.9281C15.3445 23.4614 14.5798 24.3419 14.1782 25.3359C14.1749 25.2199 14.1695 25.1045 14.1695 24.9876C14.1695 18.3331 19.5186 12.9404 26.1168 12.9392C31.0378 12.9392 35.2622 15.9398 37.0931 20.2252C35.2328 20.423 32.992 20.6619 32.992 20.6619C32.7107 20.6916 32.4354 20.7562 32.1671 20.8443L32.1991 20.7498C31.9479 20.6462 31.3383 20.8346 31.3383 20.8346C31.3383 20.8346 30.9968 20.3033 30.7851 20.2703L30.6912 20.5296C30.9929 20.6801 31.2088 21.1811 31.2088 21.1811C31.2088 21.1811 31.4622 21.0815 31.7203 21.0221C31.4195 21.1612 31.1345 21.3327 30.8702 21.5336C30.7388 21.3852 30.5607 21.2108 30.4395 21.2002L30.3574 21.4622C30.467 21.5085 30.5705 21.6018 30.6589 21.7021C29.7864 22.4462 29.1651 23.5111 29.026 24.6663C29.026 24.6663 28.2042 31.4749 28.1995 31.5243C28.1938 31.5737 28.1909 31.6154 28.2588 31.6115C28.2793 31.61 28.933 31.5406 29.819 31.4464L29.8154 31.5185C30.1453 31.5964 30.5184 32.0434 30.5184 32.0434C30.5184 32.0434 31.0833 31.5951 31.3766 31.5785L31.4062 31.3168C31.1357 31.272 30.5714 31.696 30.5714 31.696C30.5714 31.696 30.3857 31.5349 30.1905 31.4068C32.1164 31.2023 34.7886 30.9167 34.7886 30.9167C35.5875 30.8322 36.3459 30.4921 36.9849 29.9859C36.9428 30.0723 36.9036 30.1599 36.8673 30.2489C34.9302 34.2668 30.8445 37.036 26.1168 37.0363ZM49.9004 18.7847C47.7829 19.01 45.6655 19.235 43.548 19.4598C42.8565 19.5331 42.1957 19.7987 41.6154 20.1958C39.5844 13.5075 33.4148 8.64325 26.116 8.64325C18.9476 8.64325 12.8704 13.3381 10.7322 19.8439C8.97876 20.0229 4.53975 20.4911 4.53975 20.4911C1.30923 20.8346 0.394196 23.3675 0.137453 24.8486C-0.0843757 26.1179 0.025715 27.0135 0.0389518 27.2646C0.0405502 27.3073 0.0567852 27.3594 0.0845574 27.3682C0.122869 27.3803 0.174517 27.3603 0.241051 27.2834C0.312529 27.2007 1.51708 25.6966 1.69505 25.4979C1.87257 25.2996 2.6422 24.3716 4.14425 24.2129L9.23376 23.6716C9.22342 23.7803 8.56568 29.5789 8.56568 29.5789C8.45164 30.3428 7.95204 30.8164 7.01972 30.9848C7.01972 30.9848 7.81897 23.9657 7.81972 23.9542C7.82302 23.9424 7.81972 23.9278 7.80069 23.9315C7.78041 23.9354 6.64839 24.1302 6.64839 24.1302C4.86433 24.5176 3.35174 26.1936 3.13131 28.0261L2.7431 31.4343C1.67027 31.5445 0.967574 31.4449 0.527114 31.411C0.378163 31.4004 0.238352 31.3816 0.118971 31.3674C0.0694208 31.3613 0.0314112 31.4083 0.0590336 31.4498C0.240452 31.7341 0.674166 32.5071 1.23491 33.1041C1.9921 33.914 3.09739 34.3159 4.46892 34.3159L7.88011 34.0051C9.91827 33.7882 11.1383 33.3649 11.8848 32.8142C14.6351 37.8901 19.9766 41.3335 26.116 41.3335C33.2885 41.3335 39.3677 36.6341 41.5036 30.124C43.5665 29.9054 45.526 29.6967 45.526 29.6967C48.6691 29.3626 48.7892 27.8686 48.8541 27.0663C48.8606 26.9909 49.0087 25.6851 49.0279 25.3187C49.09 24.347 48.3837 23.4732 47.3536 23.2437C46.936 23.1501 45.2383 22.8523 44.1498 22.6639C44.1694 22.6487 44.1918 22.6376 44.2157 22.6312L47.2766 22.302C48.3414 22.189 49.1698 21.4007 49.5529 20.1383L49.9494 18.8317C49.9494 18.8317 49.9576 18.7775 49.9004 18.7847Z" fill="#C7A079"/>
<path d="M29.0957 21.1498C29.047 21.1546 22.5693 21.8422 22.5693 21.8422C20.5897 22.0545 18.8476 23.8136 18.6008 25.8492C18.6008 25.8492 17.7691 32.7442 17.7667 32.7599C17.7651 32.7756 17.7809 32.7917 17.8028 32.7887C17.8205 32.7869 21.6401 32.3879 22.0959 32.3416C22.1242 32.3386 22.141 32.3075 22.1453 32.288C22.1482 32.268 22.9712 25.4315 22.9712 25.4315C23.0097 25.2683 23.0853 25.0606 23.2292 25.0145L24.4003 24.8903C24.4003 24.8903 23.5439 31.9891 23.5304 32.093C23.5228 32.1505 23.5516 32.1857 23.6088 32.1805C24.2272 32.1145 27.8173 31.7328 27.8353 31.7305C27.8537 31.7293 27.8962 31.7087 27.8983 31.6759C27.992 30.913 29.1568 21.2728 29.1598 21.2189C29.1675 21.1628 29.1494 21.1435 29.0957 21.1498Z" fill="#C7A079"/>
<path d="M13.0102 20.8373C12.5384 20.3463 11.8773 20.1174 11.1142 20.1994L4.55629 20.8984C2.26812 21.1401 1.01912 22.7357 0.643998 24.0286C0.410932 24.8373 0.366177 25.331 0.338954 25.6602C0.338954 25.6602 0.293649 26.415 0.304038 26.6504C0.304038 26.6834 0.30234 26.6982 0.321271 26.7076C0.33211 26.7124 0.347994 26.7088 0.370672 26.6843C0.4926 26.5473 0.799543 26.1179 0.873169 26.0237C1.12427 25.7099 1.58621 25.1163 1.89115 24.851C2.27187 24.5205 3.06588 23.9484 4.13131 23.8357L9.42677 23.2736C9.52107 23.2615 9.58206 23.2802 9.58875 23.2918C9.67017 23.3759 9.62362 23.5356 9.62362 23.5356L8.94904 29.6124C8.80294 30.6107 8.05159 31.2083 6.63336 31.3922L7.40319 24.4282C7.40554 24.3945 7.38711 24.3758 7.35134 24.3833C7.31473 24.39 6.70574 24.5175 6.70574 24.5175C5.08716 24.8682 3.71712 26.3856 3.51533 28.0448L3.17836 31.0169L3.08101 31.7674L2.8888 31.7892C2.50029 31.8301 2.00759 31.8592 1.02362 31.7892C0.85274 31.7771 0.766825 31.7572 0.746995 31.7829C0.732759 31.8083 0.740851 31.8395 0.789952 31.9228C0.809932 31.9582 1.19799 32.6981 2.0394 33.3212C2.56278 33.707 3.3914 33.9233 4.43885 33.9233C5.01418 33.9233 5.62347 33.8675 6.19909 33.8055L7.07891 33.7119C11.1739 33.276 12.4214 32.7278 12.7802 29.9271L13.6127 22.8308C13.7084 22.0451 13.4946 21.3379 13.0102 20.8373Z" fill="#071D3D"/>
<path d="M11.1344 20.5853L4.57536 21.2834C1.22965 21.6384 0.818766 24.8243 0.797137 24.9531C0.773261 25.0818 0.719066 25.5967 0.715619 25.6351C0.708527 25.6718 0.723411 25.6869 0.752232 25.6494C0.782252 25.6087 1.16412 25.1027 1.16412 25.1027C1.17271 25.0888 2.25473 23.6752 4.11042 23.4784L9.40808 22.9153C9.60983 22.8938 9.76402 22.9335 9.86282 23.0395C10.0605 23.2497 9.99784 23.6649 9.9363 24.1044C9.92021 24.211 9.31532 29.6609 9.31532 29.6609C9.06107 31.4449 7.10493 31.6535 6.46037 31.7211L6.27501 31.7414C6.27501 31.7414 7.01902 24.8458 7.02036 24.8159C7.02196 24.7855 6.99334 24.7741 6.96447 24.7804C6.93745 24.7868 6.75528 24.8258 6.75528 24.8258C5.26782 25.1499 4.00803 26.5417 3.82496 28.0636L3.32851 32.0536C2.96417 32.0882 2.56242 32.1209 2.21837 32.1209C2.00992 32.1209 1.35878 32.0754 1.30923 32.0706C1.26272 32.0661 1.24993 32.0918 1.27876 32.1255C1.30743 32.1603 1.51377 32.4216 1.51377 32.4216C2.19044 33.2312 3.19214 33.6504 4.37341 33.5913C5.55358 33.5341 6.41667 33.4124 7.26152 33.3378C9.71852 33.118 12.0363 32.8687 12.4187 29.9202L13.2493 22.8172C13.3307 22.146 13.1491 21.5418 12.7425 21.1207C12.3503 20.7128 11.7664 20.5169 11.1344 20.5853Z" fill="#1D467D"/>
<path d="M44.1661 22.2565L47.2628 21.9252C48.0402 21.8423 48.7517 21.1877 49.043 20.4529C49.1547 20.1685 49.3596 19.4341 49.4064 19.2647C49.4121 19.2415 49.3944 19.2321 49.3674 19.2333C49.3401 19.2391 43.5633 19.866 43.5633 19.866C41.7995 20.0537 40.1845 21.6829 39.967 23.4969C39.967 23.4969 39.8159 24.8359 39.8142 24.8495C39.8142 24.8622 39.8193 24.8695 39.8283 24.8707C39.8343 24.8719 45.0146 25.7581 45.0146 25.7581C45.0146 25.7581 44.9762 25.9774 44.9268 26.3139C44.8742 26.6485 42.6365 26.9181 41.732 27.1795C40.3645 27.5735 38.9904 27.9164 37.716 29.4486C37.5221 29.6843 37.3736 30.015 37.294 30.141C37.2778 30.1683 37.288 30.2019 37.3275 30.1988C37.3703 30.1955 45.6452 29.306 45.6452 29.306C47.3441 29.1258 48.2789 28.4752 48.4217 27.3737L48.4384 27.2395C48.5009 26.7791 48.613 25.9201 48.6446 25.3356C48.6919 24.5605 48.0918 23.8318 47.2491 23.6416C46.7396 23.5293 44.3132 23.1089 43.5845 22.9841C43.6761 22.5734 43.8761 22.328 44.1661 22.2565Z" fill="#071D3D"/>
<path d="M44.1314 21.9037L47.2443 21.5699C48.2403 21.4627 48.6675 20.5289 48.8354 19.9834C48.8354 19.9834 48.9063 19.7418 48.9098 19.7187C48.9145 19.6954 48.8978 19.6882 48.8658 19.6909C48.8348 19.6937 43.5846 20.2527 43.5846 20.2527C41.9877 20.4215 40.5311 21.8976 40.3318 23.5444C40.3318 23.5444 40.2117 24.5747 40.211 24.5869C40.211 24.5987 40.2165 24.6072 40.2269 24.6096C40.2381 24.6102 45.4109 25.5355 45.4109 25.5355C45.4081 25.5699 45.4045 25.6042 45.4002 25.6385L45.339 26.1449C45.2238 26.8575 44.7196 26.9538 42.6228 27.3481C42.1287 27.4412 39.2254 28.1035 38.2156 29.398C38.1078 29.5404 38.0312 29.6497 37.9902 29.717C37.9623 29.7624 37.9736 29.7836 38.0199 29.78C38.5586 29.7188 44.343 29.0909 45.1265 29.0073C46.9532 28.8135 47.8583 28.5006 48.0601 27.2385C48.175 26.5107 48.2489 25.8741 48.2791 25.3474C48.3153 24.7431 47.8321 24.1759 47.153 24.0229C46.5695 23.8927 43.2982 23.3302 43.2667 23.3263C43.2385 23.3221 43.1738 23.2878 43.1789 23.2224C43.2818 22.2871 43.7503 21.9882 44.1314 21.9037Z" fill="#1D467D"/>
<path d="M43.8402 20.7037L48.5388 20.2031C48.5789 20.102 48.6132 20.0053 48.638 19.9229L43.6083 20.4584C42.1 20.6177 40.722 22.0137 40.5367 23.5671L40.4368 24.4361L40.6932 24.4827L40.7699 23.8112C40.9707 22.1697 42.3337 20.8637 43.8402 20.7037Z" fill="white"/>
<path d="M43.4662 23.7767C43.8062 23.8333 46.8011 24.3491 47.3434 24.4705C47.552 24.5166 47.7391 24.6086 47.8909 24.7307C47.7183 24.4872 47.4436 24.2898 47.1097 24.2237C46.5389 24.1132 43.5716 23.5892 43.2313 23.5292C43.2249 23.5292 43.2184 23.5265 43.2151 23.5256C43.2365 23.6592 43.348 23.7555 43.4662 23.7767Z" fill="white"/>
<path d="M45.7751 26.4232L45.8328 25.9547C45.8525 25.7971 45.8923 25.6185 45.7408 25.5891L45.6147 25.5658C45.6113 25.613 45.5411 26.1773 45.5411 26.1773C45.3914 27.0983 45.0158 27.1219 42.6596 27.5508C41.7566 27.7171 38.9812 28.59 38.3911 29.5095C38.5606 29.491 38.7279 29.4752 38.891 29.4577C39.7987 28.6514 42.0882 27.9437 42.894 27.797C45.2528 27.3694 45.6266 27.3421 45.7751 26.4232Z" fill="white"/>
<path d="M17.154 22.9489C15.7622 23.363 14.4688 24.9022 14.2847 26.4263C14.2847 26.4263 13.5162 32.7918 13.5116 32.8454C13.5093 32.8996 13.5449 32.912 13.5784 32.9105C13.6089 32.9057 16.7788 32.5695 17.0772 32.5377C17.0908 32.5346 17.1001 32.5256 17.1024 32.5098C17.1715 31.9489 18.2834 22.7181 18.2844 22.696C18.2852 22.6791 18.2659 22.6576 18.2393 22.6655C18.2149 22.6706 17.7068 22.7842 17.154 22.9489Z" fill="#071D3D"/>
<path d="M17.5788 23.2284C16.0934 23.5516 14.8353 24.9428 14.6509 26.4668C14.6509 26.4668 13.934 32.4216 13.9299 32.4564C13.9216 32.4934 13.9329 32.5131 13.9873 32.5085C14.0366 32.5013 16.5027 32.239 16.7516 32.2135C16.7658 32.2111 16.7715 32.2032 16.7735 32.1896C16.8337 31.6965 17.8552 23.2233 17.8566 23.2051C17.8606 23.1869 17.8462 23.17 17.8232 23.1749C17.8001 23.1806 17.5788 23.2284 17.5788 23.2284Z" fill="#1D467D"/>
<path d="M17.586 23.7497L17.6251 23.4293C16.2323 23.7349 15.0298 25.0542 14.8566 26.4916L14.1572 32.2817L14.425 32.2532L15.0893 26.7355C15.2477 25.2859 16.3134 24.1537 17.586 23.7497Z" fill="white"/>
<path d="M22.5835 22.2496C20.8173 22.4377 19.2028 24.0681 18.9827 25.885C18.9827 25.885 18.2065 32.3178 18.2049 32.3369C18.2019 32.359 18.2109 32.375 18.2358 32.3723C18.2603 32.3696 21.377 32.0394 21.759 31.9958C21.7848 31.9955 21.7998 31.9689 21.8028 31.9489C21.8044 31.9313 22.5919 25.405 22.5919 25.405C22.6886 24.9691 22.8911 24.712 23.1776 24.6405L24.8408 24.4624C24.8408 24.4624 23.9832 31.6097 23.9689 31.6708C23.9562 31.7293 23.9857 31.7623 24.0387 31.7562C24.5654 31.7002 27.4951 31.3867 27.515 31.3852C27.5256 31.385 27.5357 31.3806 27.5432 31.3732C27.5508 31.3657 27.5553 31.3556 27.5558 31.3449C27.6358 30.6971 28.7211 21.739 28.7211 21.6814C28.7247 21.6205 28.6735 21.6014 28.636 21.6057C28.5974 21.6115 22.5835 22.2496 22.5835 22.2496Z" fill="#071D3D"/>
<path d="M22.6025 22.6354C21.0083 22.806 19.5485 24.2816 19.3514 25.9256C19.3514 25.9256 18.6293 31.9037 18.6264 31.9331C18.6237 31.9607 18.6282 31.9728 18.6518 31.9701C18.6756 31.9674 21.0964 31.7093 21.4312 31.6739C21.4582 31.6708 21.473 31.6517 21.4775 31.6275C21.4785 31.613 22.2294 25.3735 22.2294 25.3735C22.4029 24.5711 22.8714 24.3476 23.1416 24.2861L25.1512 24.0705C25.1712 24.0705 25.1984 24.0705 25.2249 24.0947C25.2446 24.1147 25.2512 24.1417 25.2457 24.1726C25.2457 24.1726 24.3904 31.2232 24.3904 31.2762C24.3865 31.3277 24.4093 31.358 24.4661 31.3513C24.939 31.3016 27.1567 31.0645 27.1782 31.0639C27.2159 31.0615 27.2303 31.0254 27.2329 31.0048C27.3001 30.4466 28.3048 22.0969 28.3131 22.0709C28.3136 22.0449 28.293 22.0312 28.2709 22.033C28.2456 22.0361 22.6025 22.6354 22.6025 22.6354Z" fill="#1D467D"/>
<path d="M22.8594 23.0868L28.0488 22.5365L28.0794 22.2632L22.625 22.842C21.1155 23.0028 19.7412 24.3955 19.5533 25.9508L18.8564 31.7411L19.1235 31.712L19.79 26.1967C19.9754 24.6423 21.3526 23.247 22.8594 23.0868Z" fill="white"/>
<path d="M25.6051 24.1968C25.5656 24.1525 25.5086 24.1247 25.4492 24.1153C25.4529 24.1427 25.4534 24.1704 25.4507 24.198L24.6123 31.1283L24.8803 31.0996L25.6844 24.4454C25.6964 24.3503 25.6662 24.2613 25.6051 24.1968Z" fill="white"/>
<path d="M3.74659 32.4883L4.26197 28.335C4.42601 26.9875 5.49015 25.7469 6.76962 25.3453C6.79199 25.1296 6.79904 25.0284 6.79904 25.0284C5.40513 25.3311 4.20268 26.6519 4.02686 28.0887L3.51297 32.2427C2.81957 32.3135 2.0899 32.3262 1.67017 32.2881C1.75648 32.3917 1.89105 32.5201 1.90398 32.534C2.34279 32.6122 3.05563 32.5573 3.74659 32.4883Z" fill="white"/>
<path d="M4.8313 21.7338L11.3912 21.0369C11.9058 20.9821 12.3688 21.1124 12.7144 21.4037C12.6778 21.3548 12.6381 21.3084 12.5956 21.2647C12.2422 20.8991 11.7309 20.7304 11.1586 20.791L4.59643 21.4897C1.37595 21.8323 1.00098 24.9767 1.00098 24.9767C1.00098 24.9767 1.13704 24.7959 1.39713 24.5512C1.70707 23.6047 2.56261 21.9752 4.8313 21.7338Z" fill="white"/>
<path d="M6.71752 32.1727C7.38365 32.1015 9.47381 31.8807 9.75253 29.9363C9.75253 29.9363 10.3564 24.4848 10.3738 24.3824C10.4453 23.8909 10.5105 23.4244 10.2466 23.143C10.2057 23.1005 10.1589 23.0642 10.1077 23.0352C10.2568 23.3205 10.1994 23.717 10.1407 24.135C10.1223 24.2404 9.51812 29.6912 9.51812 29.6912C9.24059 31.6366 7.15163 31.8568 6.48205 31.9267L6.2808 31.9446L6.24854 32.2196L6.71752 32.1727Z" fill="white"/>
<path d="M34.1675 28.1502L32.5225 28.3252L33.0006 24.3536C33.054 23.9993 33.2046 23.555 33.6162 23.4568L35.2634 23.2818L34.7812 27.25C34.73 27.6068 34.5775 28.0518 34.1675 28.1502ZM33.0071 21.0672C31.243 21.2543 29.6273 22.8847 29.4085 24.7022C29.4085 24.7022 28.6366 31.1065 28.6349 31.1347C28.6314 31.1626 28.6421 31.1932 28.6805 31.188C28.7184 31.1844 34.7791 30.5402 34.7791 30.5402C36.5396 30.3518 38.1553 28.7211 38.3756 26.9045C38.3756 26.9045 39.146 20.512 39.1508 20.475C39.1534 20.4351 39.1156 20.4166 39.0841 20.4215C39.0486 20.4238 33.0071 21.0672 33.0071 21.0672Z" fill="#071D3D"/>
<path d="M35.1519 27.2728L35.1459 27.3046C35.0216 28.1732 34.5703 28.4546 34.2112 28.5358L32.2145 28.7481C32.1935 28.7508 32.1682 28.7499 32.1411 28.7223C32.1218 28.7038 32.1148 28.6766 32.1187 28.6448L32.638 24.3355C32.7653 23.4581 33.2212 23.18 33.5753 23.1028L33.6024 23.0994L35.5693 22.8892C35.5995 22.8868 35.6253 22.8959 35.6445 22.9138C35.6631 22.9335 35.671 22.9613 35.6666 22.9938L35.1519 27.2728ZM38.6927 20.8509C38.672 20.8533 33.0269 21.453 33.0269 21.453C31.4333 21.6229 29.9707 23.1 29.7763 24.7438C29.7763 24.7438 29.0556 30.698 29.0535 30.7292C29.0496 30.7622 29.0836 30.787 29.1116 30.784C29.1387 30.7822 34.7567 30.1849 34.7567 30.1849C36.3518 30.0144 37.8133 28.5391 38.0133 26.8932C38.0133 26.8932 38.7288 20.9127 38.7348 20.8857C38.7378 20.8585 38.7138 20.8479 38.6927 20.8509Z" fill="#1D467D"/>
<path d="M35.8717 23.0167L35.3507 27.3336C35.1985 28.381 34.591 28.6642 34.2419 28.7396L32.2339 28.9543C32.2057 28.9572 32.1773 28.955 32.1499 28.948C32.1598 29.0104 32.1852 29.0682 32.2284 29.1133C32.2899 29.1775 32.3797 29.2093 32.4713 29.1999L34.4775 28.9864C34.8254 28.9119 35.4315 28.6269 35.5844 27.5798L36.1055 23.2615C36.1199 23.17 36.089 23.0795 36.0246 23.0146C35.9836 22.9716 35.9294 22.9438 35.87 22.9326C35.8717 22.9607 35.8748 22.9895 35.8717 23.0167Z" fill="white"/>
<path d="M33.2828 21.9055L38.4701 21.354L38.5031 21.0811L33.0487 21.6593C31.5413 21.8186 30.1647 23.2133 29.9788 24.7692L29.2805 30.5583L29.5481 30.5296L30.2126 25.0133C30.399 23.4599 31.7779 22.0648 33.2828 21.9055Z" fill="white"/>
<path d="M42.9457 25.7672C42.7402 25.7347 42.5256 25.7005 42.3079 25.666V25.6663C42.3022 25.7987 42.295 25.9309 42.2862 26.0631C42.2783 26.1879 42.2689 26.3126 42.2579 26.4371C42.2497 26.5326 42.2431 26.6286 42.2332 26.724C42.4544 26.6773 42.6755 26.6325 42.889 26.5892C42.9141 26.3163 42.9336 26.0422 42.9457 25.7672Z" fill="#071D3D"/>
<path d="M10.7322 19.8438C10.9964 19.0402 11.3225 18.2586 11.7074 17.5062C11.7108 17.4999 11.714 17.4932 11.7173 17.4869C11.8116 17.3035 11.9091 17.1218 12.0099 16.942C12.0121 16.938 12.0144 16.9344 12.0163 16.9305C12.4176 16.2183 12.8713 15.5374 13.3736 14.8937C13.3933 14.8685 13.4125 14.8434 13.4322 14.8182C13.5458 14.6746 13.6616 14.5327 13.7797 14.3927C13.8035 14.3645 13.8279 14.3367 13.8519 14.3088C14.2294 13.8679 14.6298 13.4475 15.0515 13.0494C15.0698 13.0322 15.0877 13.0146 15.106 12.9971C15.2239 12.8868 15.3445 12.7799 15.4655 12.6733C15.5199 12.6251 15.5741 12.5776 15.6289 12.5303C15.7433 12.4322 15.859 12.3358 15.9761 12.2411C16.04 12.1893 16.1045 12.1383 16.1695 12.0881C16.2852 11.997 16.401 11.9058 16.519 11.8182C16.5819 11.7716 16.6465 11.7265 16.7103 11.681C16.9187 11.5311 17.1305 11.3861 17.3457 11.2461C17.4346 11.188 17.5227 11.1295 17.6127 11.0735C17.7177 11.008 17.8243 10.9457 17.9308 10.8824C18.1324 10.7624 18.3367 10.6472 18.5436 10.5368C18.6553 10.4773 18.7678 10.4193 18.8809 10.3626C18.9785 10.3135 19.0757 10.2633 19.1745 10.2164C19.3349 10.1388 19.4975 10.0661 19.661 9.99433C19.7604 9.95071 19.8602 9.90799 19.9607 9.86649C20.1264 9.79742 20.2932 9.73109 20.4611 9.66752C20.5497 9.63423 20.6393 9.6033 20.7286 9.57152C20.8701 9.5212 21.0125 9.47214 21.1559 9.4258C21.2483 9.39618 21.3405 9.36681 21.4333 9.33861C21.5844 9.29257 21.7363 9.24985 21.889 9.2081C21.9724 9.18533 22.0552 9.16201 22.1389 9.1405C22.3669 9.08221 22.596 9.0289 22.8263 8.98062C22.8488 8.97579 22.8713 8.97151 22.894 8.96727C23.1201 8.92163 23.3471 8.88064 23.5749 8.84432C23.6548 8.83188 23.735 8.8216 23.8152 8.81012C23.9846 8.78554 24.1548 8.76343 24.3256 8.74464C24.4138 8.73497 24.5023 8.7256 24.5908 8.71714C24.765 8.70072 24.9398 8.68802 25.1152 8.67714C25.1945 8.67226 25.2733 8.66621 25.353 8.66289C25.6059 8.6508 25.8601 8.64319 26.1159 8.64319C26.3735 8.64319 26.6293 8.6508 26.8837 8.66289C26.9642 8.66651 27.0441 8.67256 27.1243 8.67775C27.299 8.688 27.4735 8.70131 27.6478 8.71769C27.9053 8.74256 28.1623 8.77337 28.4185 8.81012C28.5041 8.82251 28.59 8.83399 28.6751 8.84765C28.8661 8.87846 29.0565 8.91269 29.2462 8.9503C29.3007 8.96123 29.3562 8.9703 29.4107 8.98153C29.6509 9.03161 29.89 9.08735 30.1277 9.14871C30.1935 9.16568 30.2583 9.18442 30.3236 9.2023C30.496 9.2493 30.6674 9.29745 30.8373 9.34949C30.9229 9.376 31.0082 9.40327 31.0932 9.43129C31.2432 9.48022 31.3925 9.53121 31.541 9.58426C31.6279 9.61495 31.7144 9.64654 31.8006 9.67901C31.9534 9.73706 32.1053 9.79744 32.2563 9.86014C32.3306 9.89107 32.406 9.92043 32.4801 9.95227C32.6977 10.0458 32.9133 10.144 33.1267 10.2469C33.1727 10.269 33.2176 10.2942 33.2632 10.3166C33.4325 10.4008 33.6005 10.4865 33.7663 10.5762C33.8484 10.6207 33.9291 10.6673 34.0102 10.7128C34.1386 10.7852 34.2662 10.8592 34.393 10.9347C34.4791 10.9867 34.5648 11.0393 34.6501 11.0926C34.7715 11.1686 34.8918 11.2463 35.011 11.3258C35.0931 11.3803 35.1758 11.4342 35.2568 11.4902C35.3907 11.5829 35.522 11.678 35.6528 11.774C35.7148 11.8197 35.7782 11.8634 35.8394 11.91C36.0198 12.0467 36.1972 12.1873 36.3717 12.3316C36.4501 12.3964 36.5261 12.4634 36.6034 12.5297C36.7064 12.6181 36.8093 12.7063 36.9099 12.7974C36.9931 12.8719 37.0749 12.9485 37.1564 13.0249C37.2483 13.1115 37.3393 13.199 37.4294 13.2875C37.5111 13.3674 37.592 13.4481 37.6722 13.5295C37.7609 13.6206 37.8476 13.7139 37.9342 13.8069C38.0101 13.8884 38.087 13.9693 38.1613 14.0526C38.2921 14.1992 38.4203 14.3482 38.5457 14.4996C38.6324 14.6055 38.718 14.7123 38.8024 14.8201C38.8781 14.9158 38.9541 15.0112 39.0273 15.109C39.102 15.2077 39.1741 15.308 39.2464 15.4088C39.3127 15.5007 39.3779 15.5932 39.4421 15.6866C39.5138 15.7907 39.5844 15.8957 39.6537 16.0015C39.7142 16.0944 39.7738 16.1879 39.8323 16.2821C39.9002 16.3908 39.9685 16.4989 40.0338 16.6091C40.09 16.7042 40.1434 16.8008 40.1978 16.8972C40.3143 17.1025 40.4262 17.3106 40.5333 17.5211C40.5821 17.6159 40.6321 17.7104 40.6788 17.8073C40.7368 17.9266 40.7914 18.0481 40.8467 18.1689C40.8908 18.2658 40.9351 18.3628 40.9775 18.4609C41.0304 18.5838 41.0818 18.7072 41.1318 18.8313C41.1715 18.9301 41.2103 19.0292 41.2481 19.1287C41.2962 19.2544 41.343 19.3806 41.3884 19.5073C41.4235 19.6076 41.4563 19.7088 41.4898 19.8099C41.5322 19.9383 41.5761 20.0658 41.6154 20.1954C41.7967 20.0723 41.9862 19.962 42.1827 19.8654C42.0248 19.3623 41.8454 18.865 41.6399 18.3752C40.7911 16.3514 39.5773 14.5344 38.0302 12.9749C36.4822 11.4151 34.681 10.1885 32.675 9.33407C30.597 8.44816 28.3892 7.99991 26.1159 7.99991C23.8427 7.99991 21.6368 8.44816 19.5588 9.33407C17.5532 10.1885 15.751 11.4151 14.2036 12.9749C12.657 14.5344 11.4424 16.3514 10.5933 18.3752C10.3824 18.8794 10.1958 19.3936 10.0342 19.9159C10.2946 19.889 10.5316 19.8648 10.7322 19.8438Z" fill="#071D3D"/>
<path d="M41.5035 30.1241C41.2401 30.9267 40.915 31.7073 40.5311 32.4589C40.5263 32.468 40.5218 32.4772 40.5173 32.4865C40.4238 32.6687 40.3269 32.8491 40.2267 33.0277C40.2243 33.0319 40.2218 33.0365 40.2192 33.0407C39.8187 33.7524 39.3659 34.4327 38.8645 35.0761C38.8441 35.1024 38.8234 35.1291 38.8023 35.1554C38.6896 35.2988 38.5744 35.4402 38.4568 35.5795C38.4326 35.6079 38.4078 35.6364 38.3834 35.6651C38.0092 36.1018 37.6127 36.5185 37.1953 36.9133C37.1726 36.9348 37.1508 36.9569 37.1279 36.9781C37.011 37.0872 36.8917 37.1935 36.772 37.2992C36.7164 37.348 36.6612 37.397 36.605 37.4448C36.4913 37.5424 36.3763 37.6383 36.2599 37.7326C36.1951 37.7851 36.1298 37.8369 36.0639 37.8879C35.949 37.9783 35.8342 38.0688 35.7167 38.156C35.652 38.2042 35.5855 38.2496 35.5203 38.2968C35.3149 38.4445 35.1062 38.5875 34.8945 38.7258C34.8033 38.7848 34.7131 38.8451 34.6206 38.9026C34.5162 38.9669 34.4111 39.03 34.3052 39.0919C34.2048 39.1518 34.1037 39.2105 34.0018 39.2679C33.899 39.3259 33.7955 39.3828 33.6914 39.4384C33.5789 39.4982 33.4657 39.5566 33.3518 39.6135C33.2547 39.6628 33.1583 39.7122 33.0603 39.7595C32.895 39.8383 32.7284 39.9141 32.5604 39.9869C32.465 40.0288 32.3691 40.0697 32.2728 40.1096C32.1073 40.178 31.9408 40.2455 31.7723 40.3085C31.6838 40.3416 31.5942 40.3725 31.5052 40.4039C31.3635 40.4552 31.2209 40.504 31.0774 40.5502C30.9854 40.5803 30.8931 40.6093 30.8005 40.6372C30.6486 40.6831 30.4961 40.7267 30.3429 40.768C30.2601 40.7907 30.1779 40.8144 30.0945 40.8355C29.8652 40.8943 29.6346 40.948 29.4029 40.9967C29.3798 41.0015 29.3567 41.0052 29.3337 41.01C29.1093 41.0553 28.884 41.0959 28.6579 41.1317C28.5779 41.1445 28.4974 41.1551 28.4172 41.1663C28.2476 41.191 28.0775 41.2128 27.9071 41.2317C27.8186 41.2413 27.7301 41.2505 27.6416 41.2593C27.4671 41.2752 27.2923 41.2885 27.1174 41.2989C27.0382 41.3038 26.9588 41.3099 26.8793 41.3138C26.6262 41.3253 26.3721 41.3335 26.1159 41.3335C25.8671 41.3335 25.6198 41.3253 25.3735 41.3144C25.3086 41.3111 25.2439 41.308 25.1792 41.3044C24.9612 41.2917 24.7444 41.2753 24.5291 41.2544C24.4993 41.2514 24.4693 41.2496 24.4397 41.2465C24.2007 41.2214 23.9622 41.1908 23.7246 41.1548C23.6627 41.1454 23.6008 41.1351 23.539 41.1254C23.3418 41.0936 23.1452 41.0583 22.9493 41.0194C22.9037 41.01 22.8579 41.0021 22.8126 40.9925C22.5829 40.9444 22.3543 40.8912 22.127 40.8328C22.0694 40.8186 22.0126 40.8026 21.9553 40.7874C21.7708 40.738 21.5876 40.6853 21.4057 40.6296C21.3515 40.6132 21.2968 40.5972 21.2433 40.5802C21.0235 40.5107 20.8052 40.4363 20.5888 40.357C20.538 40.3382 20.4882 40.3183 20.4377 40.2995C20.2626 40.2336 20.0888 40.1645 19.9161 40.0923C19.8571 40.0678 19.7978 40.0432 19.7394 40.0178C19.5308 39.928 19.3242 39.8338 19.1196 39.7352C19.0778 39.7149 19.037 39.6937 18.9953 39.6725C18.8263 39.5892 18.6589 39.5028 18.4932 39.4133C18.4318 39.3803 18.3704 39.3475 18.3097 39.3133C18.1133 39.2049 17.9191 39.0924 17.7273 38.9759C17.6991 38.9587 17.6718 38.9405 17.6438 38.9232C17.4134 38.7795 17.1864 38.6305 16.963 38.4761C16.8065 38.3681 16.652 38.2574 16.4994 38.1439C16.4665 38.1191 16.433 38.0963 16.4006 38.0715C16.2258 37.9392 16.055 37.8025 15.8858 37.6635C15.8263 37.6146 15.7673 37.5652 15.7087 37.5152C15.5782 37.4047 15.4494 37.2923 15.3225 37.1777C15.277 37.1369 15.2308 37.0969 15.1857 37.0551C15.0274 36.909 14.8721 36.7598 14.7198 36.6074C14.6646 36.5523 14.6105 36.4963 14.5558 36.4402C14.4434 36.325 14.3328 36.208 14.2241 36.0892C14.1744 36.035 14.1239 35.9817 14.075 35.9265C13.9328 35.768 13.7939 35.6065 13.6585 35.442C13.6091 35.3823 13.5612 35.3211 13.5127 35.2608C13.4147 35.1387 13.3184 35.0151 13.224 34.8901C13.1749 34.825 13.1256 34.7611 13.0774 34.6954C12.9519 34.5242 12.8295 34.3508 12.7104 34.175C12.6692 34.1135 12.6297 34.0511 12.5895 33.9897C12.5027 33.8575 12.4178 33.724 12.3349 33.5893C12.29 33.5162 12.2451 33.4433 12.2015 33.3697C12.0924 33.1866 11.9868 33.0014 11.8847 32.8142C11.7255 32.9317 11.5431 33.0432 11.3372 33.1483C12.1033 34.5588 13.0622 35.8506 14.2035 37.0024C15.7509 38.5625 17.5531 39.787 19.5587 40.6423C21.6367 41.5282 23.8426 41.9768 26.1159 41.9768C28.3891 41.9768 30.5969 41.5282 32.6749 40.6423C34.681 39.7873 36.4822 38.5625 38.0301 37.0024C39.5773 35.4414 40.7911 33.6247 41.6398 31.6018C41.8538 31.0921 42.0407 30.5738 42.203 30.0499C41.9729 30.0741 41.7392 30.0989 41.5035 30.1241Z" fill="#071D3D"/>
<path d="M16.5067 14.2664L16.4109 14.161C16.3472 14.0923 16.2885 14.0492 16.2342 14.0332C16.1788 14.0166 16.1319 14.0262 16.094 14.0608C16.0382 14.1144 16.0119 14.1628 16.0158 14.2104C16.0209 14.2582 16.049 14.3113 16.1023 14.3706L16.8443 15.186C16.888 15.2335 16.9331 15.2617 16.9772 15.265C17.0218 15.2707 17.0682 15.2501 17.1157 15.2056C17.1466 15.1781 17.1651 15.1481 17.1716 15.1142C17.1773 15.0822 17.1743 15.0492 17.1628 15.0188C17.1516 14.9858 17.1353 14.9548 17.1145 14.927C17.093 14.8982 17.0693 14.8676 17.0414 14.8389L16.9038 14.6874L17.2877 14.3324L17.4721 14.5339C17.6082 14.6832 17.6701 14.8434 17.6592 15.0118C17.6477 15.1814 17.547 15.3546 17.3587 15.5288C17.1866 15.6878 17.0218 15.7587 16.8636 15.7423C16.7051 15.7257 16.5467 15.6315 16.3884 15.4589L15.7718 14.7822C15.6081 14.6038 15.5305 14.4333 15.5351 14.2701C15.5414 14.1071 15.6312 13.9427 15.806 13.7809C15.9742 13.6237 16.1397 13.5428 16.2992 13.5356C16.4597 13.5295 16.6146 13.6076 16.7637 13.7728L16.8906 13.9099L16.5067 14.2664Z" fill="#071D3D"/>
<path d="M18.6275 14.3958L17.4441 12.5022L17.8843 12.222L18.3391 12.9492L18.6455 12.7554L18.1898 12.0284L18.6315 11.7474L19.8141 13.6428L19.3738 13.9212L18.8802 13.1337L18.5751 13.3269L19.0681 14.1156L18.6275 14.3958Z" fill="#071D3D"/>
<path d="M20.6471 11.2398L20.6417 11.2422L20.8683 12.2308L21.1499 12.1175L20.6471 11.2398ZM20.5762 13.2415L20.2063 10.9802L20.7896 10.7473L22.0594 12.6463L21.5691 12.842L21.3412 12.4658L20.9613 12.6182L21.0633 13.0458L20.5762 13.2415Z" fill="#071D3D"/>
<path d="M23.094 11.0901L23.0895 11.0968L23.3755 12.3116L22.8911 12.408L22.4619 10.2115L22.987 10.1076L23.6214 11.2561L23.631 11.2549L23.3419 10.0371L23.8254 9.94014L24.2551 12.1366L23.7323 12.2411L23.094 11.0901Z" fill="#071D3D"/>
<path d="M26.2497 12.027L26.2255 11.8289H26.2186C26.1656 11.9225 26.1072 11.9882 26.0416 12.026C25.9761 12.0633 25.8857 12.0821 25.7719 12.0836C25.6661 12.0839 25.5742 12.0694 25.4989 12.0352C25.4262 12.003 25.3632 11.9523 25.316 11.888C25.2684 11.8238 25.2347 11.7499 25.2128 11.6641C25.1925 11.5775 25.182 11.484 25.1803 11.377L25.1695 10.4584C25.1673 10.2155 25.2207 10.0362 25.3333 9.91774C25.4458 9.79997 25.621 9.73998 25.8598 9.73696C26.0892 9.73328 26.2643 9.78451 26.3874 9.88686C26.5101 9.98987 26.5723 10.1534 26.5757 10.376L26.5775 10.5429L26.0555 10.5495L26.0537 10.4257C26.0537 10.3236 26.0416 10.2494 26.0195 10.2049C25.9969 10.1631 25.9536 10.1416 25.8886 10.1389C25.8114 10.1416 25.7585 10.1601 25.7307 10.1979C25.7032 10.2358 25.6888 10.2954 25.6908 10.3748L25.7032 11.4818C25.704 11.5475 25.7201 11.5963 25.7508 11.6299C25.7839 11.6644 25.8324 11.6811 25.8974 11.6799C25.9387 11.6786 25.972 11.6708 25.9988 11.6548C26.0234 11.6387 26.0416 11.6166 26.0537 11.5924C26.0644 11.5644 26.0723 11.536 26.0747 11.5061C26.0768 11.4742 26.0782 11.4364 26.0782 11.3906L26.0765 11.2141L25.8897 11.2168L25.8839 10.8137L26.5917 10.8058L26.6055 12.0231L26.2497 12.027Z" fill="#071D3D"/>
<path d="M29.1588 11.7065L29.1657 11.708L29.6264 10.2012L30.11 10.2972L29.3193 12.421L28.744 12.3059L28.8888 10.73L28.8835 10.7282L28.4124 12.2411L27.8467 12.1281L27.909 9.86016L28.4034 9.95773L28.2558 11.5314L28.2627 11.5254L28.7691 10.0295L29.2625 10.1279L29.1588 11.7065Z" fill="#071D3D"/>
<path d="M31.932 11.6841C31.9492 11.6445 31.9635 11.609 31.9721 11.5766C31.9809 11.5465 31.9852 11.5153 31.985 11.4839C31.985 11.4533 31.9776 11.4249 31.962 11.3976C31.9454 11.3718 31.9195 11.3522 31.8808 11.3352C31.8443 11.3186 31.8121 11.3149 31.7806 11.321C31.7501 11.3282 31.7246 11.3407 31.7022 11.3628C31.6793 11.3859 31.6592 11.4117 31.6425 11.4397C31.6235 11.4714 31.6066 11.5043 31.5917 11.5381L31.2343 12.3838C31.2202 12.4176 31.2076 12.452 31.1967 12.487C31.1881 12.5212 31.1831 12.5563 31.1817 12.5915C31.1817 12.626 31.1895 12.6567 31.2054 12.6857C31.2213 12.7148 31.2475 12.7363 31.2825 12.7521C31.3194 12.7672 31.3533 12.7714 31.3848 12.7639C31.4155 12.7561 31.4431 12.7389 31.4639 12.7148C31.4868 12.6901 31.5067 12.6627 31.5233 12.6333C31.5405 12.6031 31.5573 12.5688 31.5739 12.5303L31.932 11.6841ZM32.0701 12.6957C31.9677 12.9368 31.8434 13.0934 31.6971 13.1652C31.5508 13.2391 31.3604 13.2236 31.1257 13.1228C30.8913 13.0201 30.7461 12.8908 30.6959 12.7321C30.6458 12.5743 30.671 12.3746 30.7722 12.1351L31.1267 11.2992C31.2105 11.1005 31.3323 10.9745 31.4906 10.9169C31.6489 10.8587 31.8313 10.8751 32.0404 10.9663C32.2495 11.055 32.3872 11.1771 32.4516 11.3316C32.5175 11.4848 32.5085 11.6608 32.4256 11.8589L32.0701 12.6957Z" fill="#071D3D"/>
<path d="M33.6984 13.0216L33.6905 13.0231L33.0442 14.0874L32.6323 13.8124L33.8631 11.9494L34.3084 12.2477L33.9563 13.5137L33.9632 13.5195L34.6092 12.4504L35.021 12.7274L33.7897 14.5898L33.347 14.2909L33.6984 13.0216Z" fill="#071D3D"/>
<path d="M15.0407 15.5215L15.2198 16.0455L15.6788 15.7427L15.4819 16.2591L16.0272 16.3248L15.5461 16.5931L15.9224 16.9965L15.3834 16.8906L15.4136 17.4436L15.0682 17.0123L14.7389 17.4551L14.7495 16.9012L14.215 17.0293L14.5752 16.611L14.0847 16.3605L14.6277 16.2745L14.4119 15.766L14.8826 16.0516L15.0407 15.5215Z" fill="#071D3D"/>
<path d="M35.731 13.8842L35.9092 14.4081L36.3691 14.1056L36.1719 14.6217L36.7171 14.6874L36.2362 14.9564L36.6123 15.3592L36.0729 15.2535L36.1038 15.8062L35.7578 15.3749L35.4295 15.8184L35.4394 15.265L34.9053 15.3916L35.2652 14.9736L34.7756 14.7238L35.3185 14.6365L35.1018 14.1283L35.5716 14.4142L35.731 13.8842Z" fill="#071D3D"/>
<path d="M18.7462 37.0127L19.2281 36.7437L18.6815 36.6773L18.8791 36.1606L18.4202 36.4648L18.2421 35.9414L18.0826 36.4696L17.6124 36.1843L17.8288 36.694L17.2861 36.7806L17.7756 37.0299L17.4156 37.4482L17.9499 37.3213L17.9399 37.8752L18.2683 37.4315L18.6141 37.8622L18.5837 37.3095L19.1228 37.4152L18.7462 37.0127Z" fill="#071D3D"/>
<path d="M36.4603 34.8334L36.6591 34.3179L36.1984 34.6208L36.0193 34.0968L35.8611 34.6269L35.3916 34.34L35.6076 34.8501L35.0647 34.937L35.5539 35.1863L35.1934 35.603L35.7277 35.4767L35.7183 36.0304L36.0473 35.5873L36.3924 36.018L36.3623 35.4649L36.9009 35.5712L36.5252 35.1678L37.0062 34.8995L36.4603 34.8334Z" fill="#071D3D"/>
<path d="M20.3673 36.7686L21.5458 37.2765L21.3652 37.7032L20.7047 37.4192L20.5597 37.7617L21.1784 38.0282L21.0045 38.4383L20.3857 38.1718L20.2171 38.571L20.9023 38.8662L20.7217 39.2933L19.5181 38.7745L20.3673 36.7686Z" fill="#071D3D"/>
<path d="M22.87 38.3162L22.8825 38.2653C22.9134 38.1412 22.8891 38.0249 22.7834 37.9979C22.6656 37.9682 22.5899 38.047 22.5664 38.1418C22.4628 38.56 23.4073 38.5809 23.2153 39.3551C23.1032 39.8061 22.7915 39.9412 22.3092 39.8197C21.8565 39.7052 21.6425 39.4844 21.7513 39.0453L21.7699 38.9714L22.299 39.1049L22.2866 39.1549C22.2417 39.336 22.299 39.4202 22.4049 39.4469C22.5167 39.475 22.6034 39.4023 22.6321 39.2866C22.7359 38.8684 21.8256 38.8593 22.0119 38.1091C22.1179 37.682 22.4025 37.5045 22.8642 37.6211C23.3406 37.7417 23.4943 37.9912 23.3816 38.4452L22.87 38.3162Z" fill="#071D3D"/>
<path d="M24.4867 38.455L24.0642 38.4153L24.1084 37.9346L25.5146 38.0654L25.4708 38.5464L25.048 38.507L24.8929 40.1992L24.3314 40.1471L24.4867 38.455Z" fill="#071D3D"/>
<path d="M25.873 39.6368L26.3825 39.6283L26.3925 40.2338L25.8829 40.2419L25.873 39.6368Z" fill="#071D3D"/>
<path d="M27.7689 38.7166C27.7325 38.4967 27.7272 38.3147 27.8062 38.1696C27.8852 38.0248 28.0448 37.9212 28.3316 37.8692C28.8858 37.7683 29.0576 38.0073 29.1147 38.3259C29.1664 38.6145 29.095 38.8169 28.9656 39.005L28.6949 39.3863C28.6557 39.4432 28.5985 39.5186 28.5891 39.5855L29.3165 39.4532L29.3919 39.8745L28.0023 40.1268C27.9499 39.8324 27.9761 39.548 28.1726 39.2548L28.4747 38.8084C28.5625 38.6809 28.5902 38.5921 28.5611 38.4328C28.5289 38.2526 28.4622 38.2056 28.3758 38.2214C28.2983 38.2353 28.2282 38.2914 28.2712 38.5321L28.2876 38.6221L27.7689 38.7166Z" fill="#071D3D"/>
<path d="M30.6256 38.7796C30.7268 39.071 30.7995 39.1324 30.911 39.0931C31.0229 39.054 31.0413 38.9598 30.9402 38.6684L30.7058 37.9937C30.6047 37.7023 30.5319 37.6405 30.4205 37.6799C30.3088 37.7192 30.2901 37.8131 30.3912 38.1045L30.6256 38.7796ZM30.3044 37.3452C30.7788 37.1774 31.0683 37.3182 31.355 38.143C31.6414 38.9683 31.5022 39.2602 31.0271 39.4281C30.5526 39.5955 30.2631 39.4547 29.9765 38.63C29.69 37.805 29.8295 37.513 30.3044 37.3452Z" fill="#071D3D"/>
<path d="M32.9785 38.5337L32.285 37.2368L31.9276 37.4315L31.7607 37.1189C32.0635 36.9509 32.1586 36.8194 32.0989 36.5532L32.4562 36.3591L33.475 38.2641L32.9785 38.5337Z" fill="#071D3D"/>
<path d="M34.7244 37.4627L33.8643 36.2718L33.5362 36.5129L33.3291 36.2264C33.6066 36.0189 33.6833 35.8753 33.5888 35.62L33.9169 35.3786L35.1805 37.1277L34.7244 37.4627Z" fill="#071D3D"/>
<path d="M36.9849 29.9859C36.842 30.0984 36.6929 30.2027 36.5383 30.2982C36.066 31.2388 35.4708 32.1112 34.7686 32.8923C34.6396 33.0357 34.5073 33.1761 34.3718 33.3133C34.2511 33.434 34.128 33.5523 34.0026 33.668C33.9905 33.6795 33.9789 33.691 33.9665 33.7022C33.9278 33.7383 33.8867 33.7713 33.8474 33.8064C31.7882 35.6436 29.0826 36.761 26.1173 36.761H26.117C22.8921 36.761 19.9753 35.4431 17.8613 33.3133C17.7146 33.1652 17.5731 33.0123 17.4345 32.8566C17.4261 32.87 17.4153 32.879 17.3992 32.8805C17.3484 32.8857 17.2505 32.8966 17.1196 32.9099C17.1198 32.9105 17.1204 32.9112 17.1207 32.9117C18.0759 34.0136 19.2267 34.9389 20.5185 35.6322C20.5344 35.6403 20.5508 35.6485 20.5667 35.6567C20.7286 35.7427 20.8925 35.825 21.0581 35.9035C21.0971 35.922 21.1369 35.939 21.1759 35.9568C21.32 36.0233 21.4654 36.0868 21.612 36.1473C21.6658 36.1695 21.7202 36.1904 21.7743 36.2119C21.909 36.265 22.0447 36.3157 22.1812 36.3639C22.2447 36.3863 22.3086 36.4078 22.3727 36.4293C22.5026 36.4724 22.6333 36.5131 22.7645 36.5517C22.8353 36.5726 22.906 36.5935 22.9774 36.6128C23.1044 36.6477 23.2326 36.6798 23.3611 36.7104C23.4373 36.7286 23.513 36.7468 23.5894 36.7634C23.7164 36.7912 23.8447 36.8155 23.9731 36.8391C24.0518 36.8533 24.1302 36.8688 24.2093 36.8815C24.3403 36.9024 24.4721 36.9197 24.6043 36.9364C24.6822 36.9466 24.7594 36.9581 24.8375 36.9666C24.9803 36.9818 25.1246 36.9927 25.2688 37.0023C25.3373 37.0075 25.4048 37.0145 25.4736 37.0184C25.6866 37.0299 25.901 37.0363 26.1168 37.0363C26.3011 37.0363 26.484 37.0302 26.6663 37.022C26.7177 37.0199 26.7687 37.0169 26.8198 37.0139C26.964 37.0051 27.1075 36.9942 27.25 36.9806C27.2916 36.9769 27.3334 36.9739 27.3747 36.9693C27.552 36.9506 27.7284 36.9278 27.9033 36.9015C27.9434 36.8954 27.9832 36.8881 28.0231 36.8818C28.1628 36.8591 28.3015 36.8339 28.4394 36.807C28.4905 36.7964 28.5411 36.7864 28.5917 36.7758C28.7524 36.742 28.9123 36.7048 29.0715 36.6644C29.0838 36.6613 29.0965 36.6586 29.1086 36.655C29.2768 36.6117 29.4427 36.5629 29.6082 36.5123C29.784 36.4575 29.9587 36.3991 30.1321 36.3369C30.1766 36.3206 30.2216 36.3054 30.2656 36.2888C30.4237 36.23 30.5805 36.1676 30.7357 36.1016C30.7766 36.0849 30.8165 36.0662 30.8572 36.0486C30.9763 35.9966 31.0945 35.9426 31.2119 35.8869C31.2637 35.8621 31.3155 35.8372 31.3669 35.8121C31.4937 35.7494 31.6194 35.6843 31.7439 35.617C31.7712 35.6024 31.799 35.5888 31.826 35.574C31.9696 35.4947 32.1115 35.4124 32.2516 35.3272C32.3026 35.2962 32.3531 35.2645 32.4035 35.2333C32.5028 35.1708 32.6012 35.1071 32.6988 35.0422C32.7469 35.0097 32.7952 34.9789 32.8425 34.9462C32.9746 34.8554 33.1049 34.7619 33.2334 34.666C33.277 34.6336 33.3193 34.5993 33.3623 34.566C33.4539 34.4955 33.5446 34.4236 33.6341 34.3504C33.6859 34.3086 33.7374 34.2662 33.7885 34.2225C33.8792 34.1457 33.9687 34.0675 34.057 33.9878C34.0997 33.9497 34.1433 33.9118 34.1855 33.8728C34.2952 33.7712 34.4029 33.6675 34.5087 33.5617C34.5578 33.5129 34.606 33.4633 34.6544 33.4136C34.7259 33.3396 34.7966 33.2649 34.8666 33.1894C34.9132 33.138 34.9607 33.0877 35.0068 33.0359C35.1091 32.9211 35.2095 32.8042 35.3075 32.6854C35.3487 32.6355 35.3883 32.5846 35.4287 32.5338C35.4935 32.4527 35.5573 32.3708 35.62 32.2881C35.6654 32.2281 35.7102 32.1676 35.7545 32.1067C35.8155 32.0225 35.8755 31.9376 35.9345 31.852C35.9786 31.7877 36.0229 31.7241 36.0659 31.659C36.1428 31.5425 36.2178 31.4247 36.2908 31.3056C36.3302 31.2408 36.3684 31.175 36.4069 31.1097C36.4553 31.027 36.5028 30.9438 36.5494 30.8601C36.5864 30.7931 36.6236 30.7265 36.6592 30.6592C36.7269 30.5315 36.7924 30.4026 36.8556 30.2725C36.8593 30.2646 36.8634 30.257 36.8673 30.2489C36.9037 30.16 36.9429 30.0723 36.9849 29.9859Z" fill="#071D3D"/>
<path d="M14.7427 22.3414C15.241 20.1537 16.3398 18.1981 17.8612 16.6634C18.9181 15.5975 20.1761 14.7362 21.5727 14.1407C22.9695 13.5446 24.5051 13.2151 26.1171 13.2151C30.8948 13.2151 34.9996 16.1109 36.8062 20.2555C36.9027 20.2452 36.9985 20.2352 37.093 20.2252C36.9964 19.9989 36.892 19.7776 36.7825 19.5589C36.7519 19.4986 36.7217 19.438 36.6905 19.378C36.6441 19.2894 36.5966 19.2013 36.5479 19.1139C36.515 19.0547 36.4815 18.9958 36.4473 18.9373C36.3378 18.7475 36.2234 18.5607 36.1042 18.377C36.0912 18.357 36.0786 18.3361 36.0653 18.3162C36.0118 18.2347 35.9558 18.1553 35.9001 18.075C35.8595 18.0163 35.8184 17.9579 35.7767 17.9C35.7206 17.8226 35.6638 17.7457 35.606 17.6695C35.561 17.6104 35.5152 17.5519 35.4688 17.4939C35.3888 17.3919 35.307 17.2913 35.2237 17.1922C35.1531 17.1086 35.0824 17.0247 35.0097 16.9429C34.9506 16.8772 34.8903 16.8127 34.8299 16.7479C34.7746 16.6881 34.7186 16.6289 34.662 16.5704C34.6012 16.5074 34.5397 16.4451 34.4775 16.3835C34.4147 16.3217 34.3512 16.2607 34.2869 16.2006C34.2263 16.1427 34.166 16.0849 34.1042 16.0285C33.9942 15.9291 33.8826 15.8316 33.7694 15.7359C33.7098 15.6863 33.6493 15.6378 33.5892 15.5891C33.5156 15.5296 33.4414 15.4708 33.3666 15.4128C33.305 15.3652 33.2437 15.3186 33.1812 15.2722C33.0951 15.2086 33.0082 15.1462 32.9203 15.0851C32.869 15.049 32.8186 15.0124 32.7667 14.977C32.6348 14.8879 32.501 14.8014 32.3656 14.7177C32.3088 14.6826 32.251 14.649 32.1935 14.6144C32.1007 14.5588 32.0072 14.5046 31.9129 14.4518C31.8536 14.4183 31.7939 14.3853 31.7341 14.3527C31.6217 14.2926 31.5084 14.2341 31.3943 14.1773C31.3543 14.1574 31.3154 14.1368 31.2753 14.1174C31.1253 14.045 30.9738 13.9758 30.8209 13.9099C30.767 13.8869 30.7125 13.8648 30.6584 13.8421C30.5475 13.7962 30.436 13.752 30.3238 13.7094C30.2674 13.6879 30.2112 13.6664 30.1543 13.6458C30.0151 13.5954 29.8749 13.5476 29.7339 13.5026C29.7084 13.4944 29.6829 13.4853 29.6575 13.4768C29.4917 13.4256 29.3248 13.3779 29.1569 13.3338C29.105 13.3199 29.0528 13.3075 29.0003 13.2945C28.8752 13.263 28.7496 13.2336 28.6228 13.2063C28.5683 13.1946 28.5142 13.183 28.4595 13.1718C28.2965 13.1391 28.1325 13.1091 27.9673 13.0834C27.9549 13.0813 27.9432 13.0789 27.9309 13.077C27.7542 13.0497 27.5756 13.028 27.3963 13.0086C27.3434 13.0025 27.2903 12.9986 27.2375 12.9931C27.103 12.9804 26.968 12.9701 26.8321 12.9626C26.7781 12.9589 26.7237 12.9556 26.6694 12.9528C26.4861 12.9447 26.302 12.9392 26.1167 12.9392C19.5185 12.9404 14.1694 18.3331 14.1694 24.9876C14.1694 25.1045 14.1749 25.2199 14.1782 25.3359C14.2544 25.1469 14.3477 24.9637 14.4488 24.7843C14.4633 23.946 14.5633 23.1286 14.7427 22.3414Z" fill="#071D3D"/>
<path d="M27.4143 17.2285L29.5749 16.9902C29.6303 16.9841 29.6808 16.9329 29.6877 16.8758L29.8375 15.6347C29.8444 15.5777 29.8051 15.5363 29.7497 15.5424L26.9235 15.8541C26.8797 15.859 26.8355 15.8821 26.8013 15.9182L25.9092 16.8591L25.2234 16.0922C25.1971 16.0628 25.1574 16.0489 25.1135 16.0537L22.4987 16.3421C22.4547 16.3469 22.4104 16.3701 22.3762 16.4063L21.5344 17.2965C21.5024 17.3303 21.4818 17.3728 21.4766 17.415L21.0562 20.8972C21.0494 20.9542 21.0886 20.9956 21.1441 20.9894L22.3488 20.8566C22.4041 20.8505 22.4547 20.7993 22.4616 20.7422L22.8017 17.925C22.8131 17.8308 22.8964 17.7463 22.9878 17.7363L24.2712 17.5947C24.3626 17.5847 24.4275 17.6528 24.4161 17.747L24.0759 20.5642C24.069 20.6212 24.1083 20.6625 24.1638 20.6564L25.3685 20.5236C25.4239 20.5175 25.4744 20.4662 25.4813 20.4092L25.5778 19.6093L26.2632 20.3744C26.2895 20.4038 26.3292 20.4176 26.3731 20.4128L29.1993 20.1012C29.2546 20.0951 29.3051 20.0438 29.312 19.9868L29.4619 18.7456C29.4688 18.6886 29.4295 18.6473 29.374 18.6534L27.2135 18.8916C27.1221 18.9017 27.0572 18.8335 27.0686 18.7394L27.2282 17.4172C27.2396 17.323 27.3229 17.2386 27.4143 17.2285Z" fill="#071D3D"/>
</g>
</g>
<defs>
<clipPath id="clip0_2258_3245">
<rect width="50" height="34" fill="white" transform="translate(0 8)"/>
</clipPath>
</defs>
</svg>
