<svg width="95" height="90" viewBox="0 0 95 90" fill="none" xmlns="http://www.w3.org/2000/svg">
<g clip-path="url(#clip0_3029_3086)">
<path d="M45.6724 12.6001C28.9421 12.6001 15.1662 25.2766 13.1422 41.6514C12.8233 43.0527 12.6229 44.4357 12.4845 45.8042H10.8906C10.8906 65.2419 26.4606 80.9998 45.6724 80.9998C64.884 80.9998 80.4589 65.2419 80.4589 45.8042H78.4906C78.4906 47.2441 78.3686 48.6531 78.1928 50.0447C77.8644 48.6205 77.3252 47.2018 76.5222 45.8042H78.4905C78.4906 27.4642 63.7961 12.6001 45.6724 12.6001Z" fill="#042445"/>
<path d="M45.6742 79.0079C63.7979 79.0079 78.4901 64.1429 78.4901 45.8062H76.5237C76.5237 63.042 62.7098 77.0151 45.6742 77.0151C28.6387 77.0151 14.8247 63.042 14.8247 45.8062H12.8584C12.8584 64.1429 27.5506 79.0079 45.6742 79.0079Z" fill="#D01031"/>
<path d="M45.6741 14.5938C37.4923 14.5938 29.6456 17.8822 23.8602 23.7356C18.0748 29.5891 14.8246 37.5281 14.8246 45.8061H16.7943C16.7943 38.0566 19.837 30.6245 25.253 25.1448C30.669 19.6651 38.0146 16.5866 45.674 16.5866C49.4666 16.5865 53.222 17.3423 56.7259 18.8107C60.2298 20.2791 63.4135 22.4314 66.0953 25.1447C68.777 27.858 70.9043 31.0791 72.3557 34.6242C73.8071 38.1693 74.5541 41.9689 74.5541 45.8061H76.5237C76.5237 41.7072 75.7257 37.6485 74.1754 33.8616C72.6251 30.0748 70.3527 26.6339 67.4881 23.7356C64.6234 20.8373 61.2226 18.5382 57.4797 16.9696C53.7369 15.4011 49.7253 14.5937 45.6741 14.5938Z" fill="#62B1E3"/>
<path d="M65.3645 45.8062C65.3645 51.0898 63.29 56.157 59.5974 59.893C55.9048 63.6291 50.8965 65.728 45.6743 65.728C40.4521 65.728 35.4439 63.6291 31.7512 59.893C28.0586 56.157 25.9841 51.0898 25.9841 45.8062C25.9841 40.5226 28.0586 35.4554 31.7512 31.7194C35.4438 27.9833 40.4521 25.8844 45.6743 25.8844C50.8964 25.8844 55.9047 27.9833 59.5973 31.7194C63.2899 35.4554 65.3645 40.5226 65.3645 45.8062ZM25.2893 29.4821L28.2454 32.095L30.1136 29.9297L29.5597 29.439L28.2684 30.9312L25.8694 28.809L25.2893 29.4821ZM31.5785 28.6896C30.5494 29.5584 29.7334 29.2168 28.9599 28.2785C28.1897 27.3434 27.9997 26.458 29.0255 25.5926C30.0742 24.7072 30.887 25.0787 31.6506 26.0037C32.4306 26.9521 32.6239 27.8076 31.5786 28.6896M29.5072 26.1795C28.8616 26.7233 29.2024 27.1776 29.6416 27.7082C30.1168 28.2884 30.4839 28.6299 31.0967 28.1126C31.6538 27.6385 31.5785 27.3036 30.9788 26.5741C30.4379 25.9176 30.0939 25.6821 29.5072 26.1795Z" fill="white"/>
<path d="M33.3383 23.5466L34.9442 26.3187L34.1609 26.7862L32.555 24.0107L31.5522 24.6044L31.1752 23.9511L33.9676 22.2966L34.3444 22.9497L33.3383 23.5466ZM37.0417 21.8223L38.1822 24.8232L37.3366 25.1548L36.1928 22.154L35.1113 22.575L34.8393 21.8688L37.861 20.6917L38.1297 21.3979L37.0417 21.8223ZM39.8537 24.2529L39.0539 20.3634L41.8691 19.7731L42.02 20.5159L40.0765 20.9238L40.2469 21.7527L41.9282 21.4012L42.0789 22.1307L40.3977 22.4855L40.5714 23.3377L42.5148 22.9298L42.6655 23.6626L39.8537 24.2529ZM48.3222 22.3728C48.2894 23.1487 47.5684 23.5997 46.6704 23.5599C46.1166 23.5367 45.5955 23.3343 45.3595 23.0293C45.0843 22.6712 44.9597 22.0744 44.9957 21.4742C45.0154 20.9801 45.1137 20.4396 45.3399 20.1412C45.7298 19.6206 46.1461 19.5012 46.8081 19.5311C47.6045 19.5643 48.3091 20.0251 48.3649 20.9569L47.4702 20.9171C47.4505 20.559 47.2243 20.3169 46.7818 20.297C46.4607 20.2838 46.2182 20.3634 46.1231 20.5424C45.9637 20.8398 45.8793 21.1723 45.8774 21.5106C45.8577 21.9417 45.9363 22.3529 46.097 22.5618C46.1986 22.6911 46.4345 22.784 46.6967 22.7873C47.126 22.8006 47.3882 22.6248 47.4013 22.3231L47.4144 22.0312L46.6245 21.9981L46.654 21.3183L48.3614 21.388L48.3222 22.3728ZM49.0629 23.7654L49.9413 23.9246L50.623 20.0118L49.7446 19.8527L49.0629 23.7654ZM53.3661 24.8829L53.3071 24.0108L51.9568 23.5731L51.4292 24.2562L50.5345 23.9644L53.225 20.6652L53.9558 20.9039L54.2508 25.1682L53.3661 24.8829ZM53.1891 22.0478L52.4385 22.9629L53.2743 23.2315L53.1891 22.0478ZM56.9744 26.6403L56.5975 23.6891L55.4603 25.8113L54.677 25.3802L56.545 21.8886L57.1514 22.2202L57.5315 25.178L58.6688 23.0525L59.4586 23.4836L57.5872 26.9752L56.9744 26.6403ZM61.7069 26.1131L59.7307 28.6298L59.0195 28.0595L60.9957 25.5428L60.0845 24.8099L60.5499 24.2164L63.0866 26.2557L62.6213 26.8459L61.7069 26.1131ZM61.8249 30.752C61.4611 30.3309 61.307 29.8302 61.3431 29.1504L62.1428 29.1339C62.0936 29.6511 62.1689 29.9363 62.4246 30.2281C62.713 30.5696 62.9949 30.6492 63.2112 30.4635C63.3357 30.3574 63.3881 30.112 63.1914 29.8203L62.9457 29.4256C62.6278 28.9282 62.5262 28.2485 63.0473 27.7909C63.6077 27.3035 64.3582 27.4096 64.948 28.096C65.2826 28.4998 65.4567 29.0152 65.4365 29.5417L64.6598 29.5682C64.6859 29.0046 64.5089 28.7724 64.3583 28.5966C64.1157 28.3116 63.8732 28.2751 63.6404 28.474C63.4799 28.6166 63.5028 28.799 63.6602 29.0576C63.7061 29.1371 63.8502 29.3527 63.8896 29.4091C64.2992 30.0158 64.3189 30.7288 63.8175 31.1632C63.2537 31.6605 62.441 31.4749 61.8249 30.752ZM86.0607 45.113L92.2877 38.8129H70.477L71.6208 34.5056H64.8498L63.7093 38.8129H21.1664L25.4268 34.5022H11.0131C9.91006 34.5039 8.83827 34.8732 7.96334 35.5528C7.08841 36.2325 6.45905 37.1847 6.17249 38.2625L2.42984 52.398C2.26563 53.0065 2.24351 53.6453 2.36521 54.2639C2.48692 54.8825 2.74913 55.4641 3.13112 55.9626C3.90458 56.9872 5.08115 57.5708 6.35276 57.5708H81.207C82.3099 57.5704 83.3819 57.2021 84.257 56.5229C85.1321 55.8437 85.7614 54.8916 86.0476 53.8139L88.2828 45.375H85.8017L86.0607 45.113Z" fill="white"/>
<path d="M22.1918 56.5757L26.6325 39.8073H27.2552L22.8144 56.5757H22.1918ZM35.5993 54.7255H32.1909C31.942 54.728 31.696 54.6719 31.4722 54.5618C31.2484 54.4516 31.053 54.2903 30.9014 54.0906C30.7498 53.8909 30.6462 53.6583 30.5986 53.4111C30.5511 53.1639 30.561 52.909 30.6276 52.6663L33.0921 43.362C33.2219 42.8731 33.5074 42.4411 33.9043 42.133C34.3013 41.8249 34.7876 41.6578 35.2879 41.6576H43.0093L39.0569 56.5757H38.4341L42.2227 42.2645H35.2879C34.9199 42.2651 34.5624 42.3886 34.2709 42.6158C33.9793 42.843 33.7701 43.1612 33.6755 43.5211L31.211 52.8255C31.1693 52.9775 31.1632 53.1373 31.193 53.2921C31.2228 53.447 31.2878 53.5927 31.3829 53.7178C31.4779 53.8428 31.6003 53.9439 31.7406 54.0129C31.8808 54.0819 32.0349 54.1169 32.1909 54.1153H36.199L35.5993 54.7255ZM46.457 56.5757L49.9146 43.5211C50.0099 43.1614 50.22 42.8435 50.5121 42.6168C50.8043 42.3902 51.1622 42.2675 51.5304 42.2677H58.4651L54.6733 56.5757H55.2993L59.2485 41.6576H51.5304C51.0298 41.6582 50.5432 41.8254 50.1458 42.1334C49.7484 42.4414 49.4622 42.8731 49.3312 43.362L45.8344 56.5757H46.457ZM69.5655 54.7255H64.6758C64.4277 54.7269 64.1827 54.6698 63.9603 54.5588C63.7378 54.4477 63.544 54.2857 63.3943 54.0856C63.2416 53.8874 63.1367 53.6559 63.0878 53.4096C63.0388 53.1633 63.0473 52.9088 63.1125 52.6663L67.6613 35.5H68.2841L66.652 41.6576H73.7376L73.1346 42.2677H66.4913L63.6958 52.8255C63.6541 52.9775 63.648 53.1373 63.6778 53.2921C63.7076 53.447 63.7726 53.5927 63.8677 53.7178C63.9627 53.8429 64.0852 53.9439 64.2254 54.0129C64.3657 54.0819 64.5198 54.117 64.6758 54.1153H69.7261L69.5655 54.7255ZM72.3873 54.1153H80.9903C81.3579 54.1149 81.7151 53.9918 82.0066 53.7653C82.298 53.5387 82.5076 53.2212 82.6027 52.862L83.7596 48.4949H75.9301L77.2869 43.362C77.4172 42.8725 77.7032 42.44 78.1006 42.1314C78.4981 41.8227 78.9849 41.6551 79.486 41.6543H88.0824L87.4794 42.2644H79.486C79.1181 42.2652 78.7607 42.3884 78.4687 42.6148C78.1768 42.8413 77.9665 43.1586 77.8703 43.5179L76.7133 47.8848H84.5462L83.186 53.0178C83.0564 53.507 82.7711 53.9394 82.3742 54.2481C81.9773 54.5568 81.4909 54.7246 80.9903 54.7255H72.2267L72.3873 54.1153ZM11.2323 37.3503C10.732 37.3505 10.2457 37.5176 9.84875 37.8257C9.45178 38.1338 9.1663 38.5658 9.03653 39.0546L5.4315 52.6664C5.3664 52.9087 5.35767 53.1629 5.406 53.4091C5.45433 53.6554 5.5584 53.8869 5.71005 54.0856C5.86014 54.2853 6.054 54.4471 6.27635 54.5581C6.49871 54.6692 6.7435 54.7265 6.99146 54.7256H15.9058L18.3114 45.6434H13.0284L12.4253 46.2502H17.5281L15.4437 54.1188H6.99146C6.83605 54.1194 6.68261 54.0835 6.54325 54.0139C6.4039 53.9443 6.28245 53.8428 6.18848 53.7176C6.09241 53.5931 6.02638 53.4476 5.99566 53.2928C5.96494 53.1379 5.97038 52.9779 6.01155 52.8256L9.61658 39.2139C9.71187 38.8541 9.9219 38.5362 10.2141 38.3096C10.5062 38.0829 10.8642 37.9602 11.2323 37.9605H20.6218L21.2216 37.3504L11.2323 37.3503Z" fill="white"/>
<path d="M41.3286 32.6587C39.939 32.6587 39.2245 33.5208 39.2245 34.4957C39.2245 35.4673 39.9751 36.3329 41.3287 36.3329C42.6559 36.3329 43.4358 35.4673 43.4358 34.4957C43.4358 33.5208 42.7215 32.6587 41.3286 32.6587ZM43.9765 32.8014V33.2058H45.2875V36.1835H46.3134V33.2059H47.6277V32.8014H43.9765ZM48.0865 32.8014V33.2058H49.3974V36.1835H50.4231V33.2059H51.7343V32.8014H48.0865ZM35.826 32.8047V35.7392C35.826 36.0442 35.9831 36.1868 36.2585 36.1868H38.7657V35.7791H37.045C36.8746 35.7791 36.8419 35.6828 36.8419 35.547V32.8047H35.826ZM52.8253 32.8047C52.5829 32.8047 52.3502 32.8543 52.3502 33.2954V35.6962C52.3502 36.1439 52.5698 36.1902 52.8583 36.1902H55.5194V35.7824H53.6021C53.3728 35.7824 53.3663 35.6796 53.3663 35.5436V34.5886H55.4867V34.1875L53.3663 34.1873V33.4512C53.3663 33.2356 53.4449 33.2091 53.6285 33.2091H55.5194V32.8047H52.8253ZM41.3286 33.0369C41.961 33.0369 42.4429 33.6999 42.4429 34.4957C42.4429 35.2948 41.9611 35.9448 41.3287 35.9448C40.6961 35.9448 40.2143 35.2948 40.2143 34.4957C40.2143 33.6999 40.696 33.0369 41.3286 33.0369ZM11.0166 35.5003C10.1296 35.5003 9.26729 35.7963 8.56339 36.3424C7.85949 36.8886 7.35329 37.6543 7.12324 38.5211L3.3805 52.6535C3.25835 53.1152 3.24281 53.5992 3.33507 54.068C3.42733 54.5368 3.62493 54.9779 3.91258 55.3571C4.20023 55.7363 4.57023 56.0434 4.99396 56.2548C5.41769 56.4663 5.88381 56.5762 6.35626 56.5763H17.4697L20.77 44.1152H14.5333L13.0289 45.6404H18.3118L15.9062 54.726H6.99211C6.74352 54.7279 6.49788 54.6715 6.27452 54.5611C6.05117 54.4507 5.85619 54.2893 5.70496 54.0897C5.55372 53.8901 5.45036 53.6577 5.403 53.4108C5.35564 53.1639 5.36559 52.9092 5.43205 52.6669L9.03708 39.055C9.1669 38.5661 9.45242 38.1342 9.84942 37.8261C10.2464 37.518 10.7327 37.351 11.2331 37.3508H21.2222L23.0508 35.5005L11.0166 35.5003ZM65.6071 35.5005L61.0614 52.6568C60.9399 53.1184 60.9248 53.602 61.0174 54.0703C61.11 54.5387 61.3077 54.9793 61.5953 55.358C61.8829 55.7368 62.2527 56.0436 62.6761 56.2548C63.0995 56.466 63.5652 56.5759 64.0373 56.5761H69.0746L69.5629 54.7258H64.6732C64.4252 54.7267 64.1804 54.6695 63.958 54.5585C63.7356 54.4475 63.5417 54.2858 63.3916 54.0861C63.2399 53.8874 63.1359 53.6558 63.0876 53.4096C63.0393 53.1633 63.048 52.9091 63.1131 52.6669L67.6587 35.5005H65.6071ZM68.2813 35.5005L66.6491 41.658H73.7315L75.5603 39.8079H69.1923L70.333 35.5005H68.2813ZM11.2328 37.9576C10.8647 37.9573 10.5067 38.08 10.2146 38.3066C9.92241 38.5332 9.71237 38.851 9.61704 39.2108L9.61722 39.211L6.01219 52.8227C5.97103 52.975 5.96558 53.1349 5.99629 53.2898C6.02699 53.4446 6.09299 53.5901 6.18904 53.7146C6.283 53.8398 6.40445 53.9413 6.54381 54.0109C6.68316 54.0805 6.8366 54.1164 6.99202 54.1158H15.4443L17.5287 46.2472H12.4259L10.9183 47.7725H15.0707L13.881 52.2655H8.21448L11.5148 39.8079H18.7936L20.6224 37.9576H11.2328ZM24.5814 39.8045L20.1406 56.5729H22.1955L26.6363 39.8045H24.5814ZM27.2589 39.8045L22.8181 56.5729H24.8699L29.3106 39.8045H27.2589ZM35.0722 39.8079C34.1857 39.8085 33.3242 40.1048 32.6209 40.6509C31.9176 41.197 31.4119 41.9624 31.182 42.8286L28.5799 52.6535C28.4578 53.1149 28.4422 53.5986 28.5343 54.0672C28.6264 54.5357 28.8237 54.9766 29.111 55.3557C29.3983 55.7349 29.7678 56.0421 30.1911 56.2537C30.6144 56.4654 31.0802 56.5757 31.5523 56.5763H33.771L35.5998 54.726H32.1913C31.9425 54.7284 31.6965 54.6724 31.4727 54.5622C31.2489 54.452 31.0535 54.2907 30.9019 54.091C30.7503 53.8913 30.6467 53.6587 30.5991 53.4116C30.5516 53.1644 30.5615 52.9095 30.628 52.6669L33.0925 43.3623C33.2223 42.8734 33.5078 42.4415 33.9048 42.1333C34.3017 41.8252 34.7881 41.6581 35.2884 41.658H43.0098L39.0573 56.5761H41.1122L45.553 39.8079H35.0722ZM51.3114 39.8079C50.4248 39.8085 49.5633 40.1048 48.86 40.6509C48.1567 41.197 47.651 41.9624 47.4211 42.8286L43.78 56.576H45.8315L49.3319 43.3625V43.3622C49.4617 42.8734 49.7471 42.4415 50.144 42.1333C50.541 41.8252 51.0272 41.6581 51.5275 41.6579H59.2491L55.2965 56.576H57.3513L61.7921 39.8078L51.3114 39.8079ZM79.2702 39.8079C78.3837 39.8085 77.5221 40.1048 76.8189 40.6509C76.1156 41.197 75.6099 41.9624 75.38 42.8286L73.476 50.014H81.3087L80.7123 52.2688H72.8795L72.3912 54.1191H80.991C81.3595 54.1192 81.7178 53.9959 82.0099 53.7686C82.3021 53.5413 82.5118 53.2227 82.6065 52.8623L83.7635 48.4987H75.9307L77.2907 43.3658C77.4203 42.8765 77.7057 42.4441 78.1026 42.1354C78.4996 41.8267 78.986 41.6589 79.4866 41.658H88.0863L89.9151 39.8079H79.2702ZM51.5275 42.2648C51.1599 42.2653 50.8027 42.3883 50.5112 42.6149C50.2198 42.8415 50.0102 43.1591 49.9151 43.5183L46.4575 56.5727H48.5092L51.8095 44.1152H55.9226L52.6223 56.5729H54.6738L58.4625 42.2649L51.5275 42.2648ZM35.2886 42.2682C34.9207 42.269 34.5633 42.3921 34.2714 42.6186C33.9794 42.845 33.7691 43.1623 33.6728 43.5215C33.0599 45.8492 31.2082 52.826 31.2082 52.826C31.1673 52.9782 31.1618 53.1379 31.1919 53.2926C31.222 53.4473 31.287 53.5929 31.3818 53.718C31.4767 53.8431 31.5988 53.9444 31.7386 54.014C31.8785 54.0836 32.0323 54.1196 32.1882 54.1191H36.1997L37.3368 52.9684L36.3798 56.5763H38.4347L42.2233 42.2683L35.2886 42.2682ZM66.492 42.2682L63.6963 52.826C63.6548 52.9782 63.6487 53.1381 63.6785 53.2931C63.7084 53.4481 63.7733 53.594 63.8683 53.7193C63.9633 53.8447 64.0857 53.946 64.2259 54.0153C64.3661 54.0847 64.5203 54.1202 64.6764 54.1191H69.7267L70.2182 52.2688H65.8987L68.0552 44.1186H71.3063L73.1351 42.2683L66.492 42.2682ZM79.4866 42.2682C79.119 42.2686 78.7619 42.3917 78.4704 42.6182C78.1789 42.8448 77.9693 43.1623 77.8742 43.5215L76.7171 47.8887H84.5468L83.1866 53.0214C83.0569 53.5103 82.7714 53.9423 82.3745 54.2504C81.9776 54.5586 81.4913 54.7257 80.991 54.726H72.2272L71.7389 56.5761H81.207C82.0941 56.5761 82.9564 56.2802 83.6603 55.734C84.3642 55.1879 84.8704 54.4222 85.1004 53.5554L87.0012 46.37H79.1719L79.7683 44.1186H85.6543L87.4831 42.2683L79.4866 42.2682ZM35.5702 44.1185H39.6801L37.5203 52.269H33.4106L35.5702 44.1185Z" fill="#D01031"/>
<path d="M23.6637 62.6111L26.6755 60.0645L28.5174 62.2961L27.9438 62.7802L26.6722 61.2383L26.0266 61.7821L27.1278 63.1151L26.5608 63.5959L25.4629 62.2629L24.8008 62.8233L26.0725 64.3619L25.5055 64.8426L23.6637 62.6111ZM27.0819 66.4608C26.6787 66.0795 26.4756 65.5953 26.446 64.9156L27.2425 64.8194C27.2425 65.3367 27.3474 65.6153 27.6292 65.8773C27.9471 66.1922 28.2355 66.2419 28.4354 66.0364C28.5468 65.917 28.5731 65.6684 28.3535 65.3964L28.0684 65.0283C27.7013 64.5675 27.5374 63.901 28.0093 63.3936C28.5174 62.8498 29.2777 62.883 29.9299 63.5064C30.3024 63.8747 30.5266 64.3698 30.5591 64.8957L29.7857 65.0018C29.7595 64.4382 29.5596 64.2226 29.3924 64.0635C29.1204 63.8015 28.8778 63.7916 28.6648 64.0137C28.5206 64.1695 28.56 64.3486 28.7402 64.5907C28.826 64.7023 28.9146 64.8118 29.0057 64.919C29.471 65.4826 29.5628 66.1889 29.1072 66.6697C28.5927 67.2202 27.7669 67.1174 27.0819 66.4608ZM32.4632 66.5239L30.6903 69.1898L29.9364 68.6758L31.7094 66.0098L30.746 65.3533L31.1654 64.7266L33.8496 66.5569L33.4301 67.1837L32.4632 66.5239ZM31.7127 70.2011L32.6435 70.7217L33.1351 69.8132L32.2043 69.2926L31.7127 70.2011ZM36.2191 68.4337L35.8848 69.329L36.8647 69.1035L35.8389 71.859L36.655 72.1707L38.0576 68.4072L37.3924 68.1552L36.2191 68.4337ZM40.0863 68.9709C40.9351 69.1798 41.3514 69.906 41.1875 70.5824C41.0833 70.9289 40.9055 71.2481 40.6664 71.5176L39.3883 72.96L38.4181 72.7212L39.575 71.4645C39.3869 71.4667 39.2007 71.4257 39.0304 71.3447C38.8602 71.2636 38.7103 71.1446 38.592 70.9965C38.4738 70.8485 38.3902 70.6752 38.3476 70.4898C38.305 70.3043 38.3045 70.1115 38.3461 69.9259C38.5165 69.2229 39.1883 68.7487 40.0863 68.9709ZM39.6373 70.7548C40.0536 70.8577 40.2502 70.662 40.319 70.3703C40.3878 70.0884 40.2502 69.8066 39.9061 69.7204C39.539 69.6308 39.2932 69.8099 39.2178 70.1282C39.1424 70.4365 39.2965 70.6719 39.6373 70.7548ZM42.7705 73.6198C41.7938 73.517 41.3416 72.9002 41.4136 72.194C41.4354 72.0105 41.5057 71.8364 41.617 71.69C41.7283 71.5435 41.8765 71.4301 42.0462 71.3617C41.9147 71.2677 41.8109 71.1395 41.7457 70.9906C41.6805 70.8417 41.6564 70.6778 41.6758 70.5161C41.7479 69.8165 42.3444 69.4186 43.1802 69.5081C44.0814 69.601 44.5369 70.1414 44.4714 70.8013C44.4608 70.9652 44.4056 71.1229 44.3119 71.2569C44.2182 71.3909 44.0896 71.4961 43.9404 71.5607C44.0874 71.6651 44.2056 71.8058 44.2836 71.9695C44.3616 72.1332 44.3969 72.3143 44.3862 72.4957C44.3174 73.1688 43.7668 73.7259 42.7705 73.6198ZM42.9376 71.8623C42.6132 71.8259 42.351 72.0481 42.3247 72.2901C42.2985 72.5455 42.4427 72.7941 42.8426 72.8339C43.2588 72.8804 43.4456 72.6648 43.4719 72.4095C43.498 72.1641 43.2948 71.8988 42.9376 71.8623ZM43.1014 70.2542C42.7803 70.221 42.587 70.3769 42.5607 70.6256C42.5378 70.8543 42.7278 71.0567 43.0163 71.0898C43.3375 71.1229 43.5505 70.9571 43.5799 70.7217C43.6095 70.4797 43.4358 70.2907 43.1015 70.2542M45.081 73.6927L45.0613 73.0462L46.6083 71.3616C46.7852 71.1595 46.8802 70.9571 46.877 70.7947C46.8703 70.5725 46.7065 70.3901 46.3853 70.4001C46.0085 70.41 45.8446 70.6985 45.8249 71.0401L44.9564 71.0666C44.9466 70.1879 45.6381 69.6574 46.3591 69.6374C47.1031 69.6176 47.7586 70.022 47.7783 70.7747C47.7881 71.1064 47.6733 71.4413 47.3391 71.8093L46.3362 72.8903L47.87 72.8472L47.8928 73.6132L45.081 73.6927ZM52.4714 72.8074L50.741 73.2318L49.8134 69.3722L51.4456 68.971C52.2944 68.7621 52.9236 69.0902 53.0908 69.7833C53.1298 70.0636 53.0732 70.3491 52.9302 70.5924C53.1826 70.7482 53.448 70.9969 53.5233 71.312C53.7003 72.0414 53.2907 72.6051 52.4714 72.8074ZM51.7045 69.6871L50.849 69.8993L51.0425 70.7018L51.9273 70.483C52.1895 70.42 52.2682 70.1679 52.2256 69.9889C52.2116 69.9341 52.1868 69.8827 52.1529 69.8377C52.1189 69.7927 52.0764 69.7551 52.0279 69.7269C51.9793 69.6988 51.9257 69.6808 51.8702 69.674C51.8146 69.6671 51.7583 69.6716 51.7045 69.6871ZM52.1043 71.1992L51.2129 71.4181L51.4259 72.2968L52.3403 72.0712C52.6123 72.0049 52.691 71.7595 52.6385 71.5407C52.5861 71.3185 52.3927 71.1295 52.1043 71.1992ZM57.4103 69.6408C57.7511 70.4598 57.2366 71.1462 56.3713 71.5142C55.5291 71.8757 54.6672 71.7762 54.3263 70.9571L53.294 68.4835L54.1297 68.1287L55.1719 70.6255C55.3161 70.9638 55.6897 70.9803 56.0797 70.8112C56.4763 70.6422 56.7253 70.3603 56.5844 70.022L55.5422 67.5252L56.3779 67.1671L57.4103 69.6408ZM60.0322 69.6673C59.557 69.9525 59.0424 70.0121 58.387 69.853L58.518 69.0505C59.0129 69.1964 59.3046 69.1732 59.6323 68.9742C60.019 68.7521 60.1502 68.4834 60.0092 68.2348C59.9273 68.0889 59.6978 67.9961 59.3799 68.1353L58.9507 68.3078C58.4098 68.5332 57.7282 68.5067 57.3808 67.9066C57.0104 67.26 57.253 66.5338 58.0264 66.0728C58.48 65.8136 59.0128 65.7344 59.5209 65.8507L59.4061 66.6299C58.8621 66.5006 58.6033 66.6332 58.4066 66.7492C58.0822 66.9416 58.0002 67.1737 58.1542 67.4424C58.2623 67.628 58.4426 67.6412 58.7245 67.5319C58.8535 67.4794 58.9813 67.4242 59.1079 67.3661C59.7733 67.0709 60.468 67.1837 60.799 67.7606C61.1792 68.4106 60.8482 69.1865 60.0322 69.6673ZM64.1813 66.4542L63.4209 66.0397L62.3361 66.9649L62.6245 67.7806L61.9068 68.3939L60.5762 64.332L61.1628 63.8314L64.8924 65.8507L64.1813 66.4542ZM61.7135 65.098L62.0805 66.2254L62.7523 65.6517L61.7135 65.098ZM67.2029 63.1947L64.2731 62.946L66.0821 64.5177L65.502 65.2008L62.5229 62.6177L62.9686 62.0905L65.9084 62.3359L64.0928 60.7641L64.6762 60.0745L67.6585 62.6575L67.2029 63.1947Z" fill="white"/>
</g>
<defs>
<clipPath id="clip0_3029_3086">
<rect width="90" height="68.4" fill="white" transform="translate(2.28784 12.6001)"/>
</clipPath>
</defs>
</svg>
