<svg width="95" height="90" viewBox="0 0 95 90" fill="none" xmlns="http://www.w3.org/2000/svg">
<g clip-path="url(#clip0_3029_3047)">
<path d="M49.4133 77.7648C35.4986 77.9488 23.4345 69.4432 18.2921 57.24C18.517 57.1481 18.7321 57.0288 18.9383 56.8903C23.9429 68.8655 35.7486 77.2017 49.4035 77.02C64.1874 76.818 76.5391 66.7131 80.3526 53.0382C80.5816 53.1255 80.8197 53.1865 81.0622 53.2201C77.1583 67.1981 64.5102 77.5584 49.4133 77.7648ZM15.6467 44.5462C15.4094 25.9941 30.1651 10.692 48.5397 10.4356C66.5782 10.2088 81.5033 24.5623 82.2748 42.6327C82.0343 42.5718 81.786 42.5385 81.5328 42.535C80.7132 24.8913 66.1763 10.9588 48.5489 11.1804C30.5453 11.4315 16.152 26.3589 16.385 44.5369C16.3951 45.3068 16.4335 46.0696 16.4952 46.8257C16.247 46.8693 16.0043 46.9411 15.772 47.0398C15.6998 46.2105 15.658 45.3787 15.6467 44.5462ZM85.5995 47.8895C85.5995 45.5363 84.4322 43.5419 82.8114 42.822C82.1362 24.3658 66.9278 9.67163 48.5327 9.90317C29.8674 10.1636 14.8785 25.7075 15.1193 44.5532C15.1317 45.4811 15.1822 46.4003 15.2671 47.3086C13.8911 48.1762 12.9404 50.0054 12.9404 52.1286C12.9404 55.0879 14.7832 57.4869 17.0565 57.4869C17.3056 57.4869 17.5484 57.4534 17.7857 57.3977C22.9971 69.8211 35.2659 78.4854 49.4205 78.2973C64.8009 78.0873 77.68 67.5022 81.605 53.24C83.8214 53.1557 85.5995 50.7954 85.5995 47.8895Z" fill="#BEC0C2"/>
<path d="M27.1287 37.6879C30.6397 25.5488 43.2341 18.5782 55.2604 22.1274C67.2823 25.673 74.1797 38.3921 70.6691 50.5353C67.1564 62.6752 54.5614 69.6415 42.5369 66.0964C30.517 62.5481 23.6161 49.8319 27.1287 37.6879Z" fill="white"/>
<path d="M61.0433 28.6172L61.7119 26.2955L62.3329 26.0222L60.036 24.805C59.8261 24.6907 59.6601 24.7622 59.6032 24.8739L59.5348 25.0208C59.4742 25.1401 59.5426 25.3261 59.7294 25.4244L61.5142 26.3753L60.9047 26.6471L60.4064 28.421C60.3443 28.6266 60.4266 28.8027 60.5551 28.8462L60.7017 28.8914C60.8181 28.9263 60.9809 28.8497 61.0433 28.6172Z" fill="#BEC0C2"/>
<path d="M58.6966 29.4327L59.5174 27.1696L60.1526 26.9436L57.9451 25.5596C57.7422 25.4316 57.573 25.4902 57.508 25.5975L57.4301 25.7337C57.3628 25.8535 57.4162 26.0413 57.5967 26.1533L59.3133 27.2311L58.6894 27.4577L58.067 29.1887C57.9942 29.3928 58.0635 29.575 58.1859 29.6255L58.332 29.6809C58.4472 29.7252 58.6146 29.659 58.6966 29.4327Z" fill="#BEC0C2"/>
<path d="M56.2949 30.0735L57.2649 27.8785L57.918 27.6968L55.8061 26.1569C55.6138 26.016 55.44 26.0586 55.3687 26.1621L55.2786 26.2971C55.2062 26.4076 55.2469 26.5989 55.4186 26.724L57.0579 27.9246L56.4216 28.1057L55.684 29.7868C55.5976 29.9845 55.656 30.1706 55.7735 30.2312L55.9155 30.2965C56.0287 30.3496 56.2007 30.2957 56.2949 30.0735Z" fill="#BEC0C2"/>
<path d="M53.8562 30.5414L54.9732 28.4194L55.6346 28.2858L53.6319 26.5977C53.4529 26.4391 53.2756 26.4741 53.1959 26.5741L53.098 26.6977C53.0149 26.8019 53.0455 26.9984 53.2089 27.1337L54.7653 28.4503L54.1151 28.5865L53.2664 30.2105C53.167 30.3965 53.2115 30.5893 53.3276 30.6531L53.4644 30.7354C53.5721 30.7931 53.7465 30.7561 53.8562 30.5414Z" fill="#BEC0C2"/>
<path d="M51.3914 30.8269L52.651 28.7926L53.3199 28.7104L51.4312 26.8773C51.2626 26.7079 51.0868 26.7277 51.0005 26.8207L50.8945 26.9383C50.8053 27.0392 50.8235 27.2337 50.9739 27.3818L52.4391 28.8089L51.782 28.897L50.8284 30.4507C50.7152 30.6364 50.747 30.8306 50.8532 30.9038L50.9881 30.9899C51.0906 31.0593 51.2667 31.031 51.3914 30.8269Z" fill="#BEC0C2"/>
<path d="M48.9159 30.929L50.3042 28.9936L50.9824 28.9627L49.2216 26.997C49.0645 26.817 48.8809 26.8214 48.7934 26.9074L48.6774 27.0174C48.5847 27.1107 48.587 27.3084 48.7288 27.4644L50.0941 28.9983L49.4347 29.0362L48.3748 30.5181C48.2507 30.6899 48.27 30.885 48.3748 30.9681L48.499 31.0658C48.5968 31.1396 48.7761 31.1276 48.9159 30.929Z" fill="#BEC0C2"/>
<path d="M46.4348 30.8548L47.9531 29.0256L48.6298 29.0399L47.007 26.9525C46.8609 26.7601 46.6796 26.7545 46.5852 26.833L46.4648 26.935C46.3632 27.0205 46.3528 27.2179 46.4845 27.3844L47.7406 29.013L47.078 29.0019L45.9267 30.4031C45.7896 30.5647 45.7942 30.7615 45.8915 30.8528L46.0107 30.9584C46.1011 31.0415 46.2812 31.0403 46.4348 30.8548Z" fill="#BEC0C2"/>
<path d="M43.9648 30.5972L45.6032 28.8843L46.2776 28.947L44.7977 26.7474C44.6669 26.5465 44.4888 26.5267 44.3898 26.597L44.2601 26.69C44.151 26.7661 44.1271 26.965 44.25 27.1402L45.3922 28.8534L44.7354 28.7966L43.4876 30.107C43.3398 30.2604 43.3325 30.4596 43.4249 30.5587L43.5349 30.6669C43.6233 30.7579 43.8005 30.7722 43.9648 30.5972Z" fill="#BEC0C2"/>
<path d="M41.5169 30.1597L43.267 28.5736L43.9359 28.685L42.6096 26.3819C42.4912 26.1711 42.314 26.1378 42.2092 26.2029L42.0729 26.2825C41.9626 26.3554 41.9283 26.5487 42.0354 26.733L43.0609 28.5267L42.4061 28.42L41.0737 29.6401C40.9181 29.7789 40.897 29.9748 40.9825 30.0766L41.0853 30.2005C41.1655 30.2956 41.3442 30.3224 41.5169 30.1597Z" fill="#BEC0C2"/>
<path d="M39.1063 29.5447L40.9595 28.089L41.6166 28.2494L40.4476 25.8579C40.348 25.6354 40.1707 25.5917 40.0619 25.6474L39.923 25.72C39.8078 25.783 39.7596 25.9711 39.8537 26.165L40.7574 28.0301L40.1104 27.8729L38.6992 28.9918C38.5323 29.1216 38.5006 29.3164 38.5774 29.4237L38.6718 29.5532C38.7451 29.6567 38.9238 29.6952 39.1063 29.5447Z" fill="#BEC0C2"/>
<path d="M36.7426 28.7576L38.689 27.4396L39.3357 27.6504L38.3307 25.1747C38.2418 24.951 38.0709 24.8924 37.9577 24.9405L37.8142 25.0011C37.6959 25.0548 37.6306 25.2403 37.7155 25.4409L38.4892 27.3632L37.8599 27.164L36.373 28.1762C36.1978 28.2917 36.1481 28.4827 36.2218 28.5996L36.3072 28.7317C36.373 28.8381 36.5483 28.8909 36.7426 28.7576Z" fill="#BEC0C2"/>
<path d="M34.4343 27.796L36.467 26.6223L37.0958 26.8815L36.2603 24.3428C36.1882 24.1092 36.0227 24.0369 35.9032 24.0777L35.758 24.1293C35.6353 24.1754 35.5585 24.3559 35.6284 24.5583L36.2719 26.536L35.6529 26.2875L34.1072 27.1898C33.9247 27.2921 33.8655 27.4796 33.9253 27.5963L34.0018 27.7377C34.0621 27.8529 34.2319 27.9153 34.4343 27.796ZM35.4312 60.1048L35.0865 62.3233L34.5298 62.6619L36.8542 63.4717C37.0655 63.5487 37.2148 63.462 37.2532 63.3498L37.3028 63.2086C37.3433 63.0911 37.259 62.9325 37.069 62.8634L35.262 62.2268L35.803 61.8947L36.0623 60.2013C36.0929 60.0024 35.9933 59.8505 35.8694 59.8304L35.723 59.8064C35.6067 59.7898 35.4609 59.8834 35.4312 60.1048Z" fill="#BEC0C2"/>
<path d="M37.5565 59.0431L37.0545 61.2345L36.4794 61.5284L38.7402 62.503C38.9469 62.5954 39.1011 62.5193 39.149 62.4106L39.2062 62.2715C39.257 62.1566 39.1811 61.9901 38.9974 61.9105L37.2384 61.147L37.8048 60.8557L38.1758 59.1833C38.2237 58.9891 38.1351 58.8305 38.0086 58.7987L37.8666 58.7675C37.754 58.7413 37.6033 58.8241 37.5565 59.0431Z" fill="#BEC0C2"/>
<path d="M39.7477 58.1346L39.0964 60.2826L38.5034 60.5328L40.6918 61.6683C40.8916 61.7748 41.0492 61.7092 41.1055 61.6056L41.1713 61.4744C41.2291 61.3592 41.167 61.1886 40.9892 61.0977L39.2878 60.212L39.8704 59.9616L40.3615 58.3195C40.4198 58.1259 40.3425 57.962 40.2232 57.9241L40.0812 57.8824C39.968 57.8477 39.8104 57.92 39.7477 58.1346Z" fill="#BEC0C2"/>
<path d="M41.9999 57.3857L41.2045 59.48L40.5913 59.6918L42.6968 60.9775C42.8874 61.095 43.0499 61.0442 43.1114 60.9451L43.1899 60.8136C43.2534 60.7063 43.2023 60.5325 43.032 60.4272L41.3982 59.4238L41.9941 59.2141L42.5981 57.6114C42.67 57.4227 42.6036 57.2542 42.4887 57.2055L42.3481 57.1553C42.2387 57.1133 42.0767 57.174 41.9999 57.3857Z" fill="#BEC0C2"/>
<path d="M44.298 56.7934L43.3583 58.8285L42.735 58.9956L44.7426 60.4254C44.9239 60.5616 45.0911 60.5187 45.1604 60.4204L45.2461 60.3C45.3189 60.1985 45.2788 60.0183 45.1151 59.9037L43.5529 58.7871L44.1649 58.6197L44.8795 57.0599C44.9623 56.8826 44.9104 56.7062 44.7963 56.6546L44.6604 56.5884C44.5547 56.5409 44.3898 56.5878 44.298 56.7934Z" fill="#BEC0C2"/>
<path d="M46.632 56.3677L45.5508 58.3317L44.9182 58.4524L46.8242 60.0242C46.9963 60.17 47.1632 60.142 47.2394 60.0475L47.3332 59.9326C47.4129 59.8341 47.3846 59.6559 47.2313 59.5267L45.7517 58.3014L46.373 58.1798L47.1915 56.6792C47.2879 56.501 47.2463 56.3231 47.1407 56.2622L47.0078 56.1919C46.9051 56.1336 46.7391 56.1706 46.632 56.3677Z" fill="#BEC0C2"/>
<path d="M48.9879 56.1102L47.7765 57.9925L47.1312 58.0666L48.9255 59.769C49.0858 59.9261 49.2601 59.9095 49.3398 59.8247L49.4429 59.7159C49.526 59.6238 49.5128 59.4389 49.3681 59.3047L47.9771 57.975L48.6019 57.8966L49.5263 56.458C49.6346 56.2904 49.6051 56.1093 49.5006 56.0411L49.3768 55.9577C49.2775 55.8955 49.1088 55.92 48.9879 56.1102Z" fill="#BEC0C2"/>
<path d="M51.3572 56.0181L50.017 57.81L49.3689 57.8427L51.0408 59.6649C51.1912 59.8344 51.363 59.8285 51.449 59.7492L51.5584 59.6463C51.6497 59.5617 51.6471 59.3783 51.5125 59.2322L50.2194 57.8086L50.852 57.7742L51.8694 56.4039C51.9895 56.2464 51.9727 56.063 51.8763 55.9846L51.7556 55.8959C51.6641 55.8236 51.4932 55.8367 51.3572 56.0181Z" fill="#BEC0C2"/>
<path d="M53.7279 56.0953L52.2662 57.7869L51.618 57.7738L53.1588 59.7129C53.2957 59.8888 53.4675 59.8964 53.557 59.8246L53.6765 59.7293C53.7752 59.6529 53.7859 59.4665 53.6589 59.3123L52.4683 57.8006L53.0988 57.8122L54.212 56.5178C54.3434 56.367 54.3388 56.181 54.2455 56.0958L54.1335 56.0025C54.0443 55.9247 53.8737 55.9229 53.7279 56.0953Z" fill="#BEC0C2"/>
<path d="M56.0864 56.3389L54.5124 57.9215L53.8689 57.8626L55.2662 59.9071C55.3921 60.094 55.5621 60.1129 55.6597 60.0453L55.7847 59.963C55.8864 59.8893 55.9071 59.7093 55.7943 59.5449L54.7102 57.9512L55.3407 58.0078L56.5406 56.793C56.68 56.6533 56.689 56.4713 56.6026 56.3821L56.4961 56.2754C56.415 56.1905 56.2432 56.1783 56.0864 56.3389Z" fill="#BEC0C2"/>
<path d="M58.4223 56.7527L56.74 58.221L56.104 58.1131L57.3587 60.2514C57.4673 60.4494 57.639 60.4789 57.7401 60.4194L57.8674 60.3439C57.9742 60.2786 58.0094 60.1012 57.9081 59.928L56.9375 58.2624L57.5631 58.3641L58.8432 57.2374C58.9948 57.1076 59.0141 56.9251 58.9339 56.8291L58.8369 56.7157C58.7615 56.625 58.588 56.6017 58.4223 56.7527Z" fill="#BEC0C2"/>
<path d="M60.7234 57.3271L58.9427 58.6734L58.3145 58.5195L59.4193 60.7439C59.5166 60.9457 59.6846 60.9903 59.7883 60.9378L59.9217 60.8713C60.0314 60.8133 60.0822 60.6386 59.9912 60.4593L59.139 58.7303L59.751 58.8723L61.1088 57.8392C61.2705 57.7219 61.3051 57.5417 61.2292 57.4394L61.14 57.3213C61.0713 57.2265 60.9007 57.19 60.7234 57.3271Z" fill="#BEC0C2"/>
<path d="M62.979 58.0657L61.1108 59.2835L60.495 59.0846L61.4414 61.3796C61.5245 61.5913 61.6856 61.6455 61.7976 61.6006L61.9319 61.5437C62.0474 61.4927 62.11 61.3224 62.0312 61.1387L61.3022 59.3511L61.9071 59.5395L63.3283 58.6043C63.4952 58.4979 63.542 58.32 63.477 58.2159L63.3962 58.0902C63.3321 57.9879 63.1652 57.9421 62.979 58.0657Z" fill="#BEC0C2"/>
<path d="M65.1789 58.9628L63.2301 60.04L62.629 59.8017L63.4126 62.1576C63.4816 62.3734 63.6381 62.4414 63.7492 62.4046L63.8921 62.3556C64.0096 62.3165 64.0821 62.1483 64.0186 61.9599L63.4157 60.126L64.003 60.3569L65.4904 59.5221C65.6639 59.4279 65.7231 59.2555 65.663 59.1456L65.5926 59.0135C65.534 58.9103 65.3717 58.8502 65.1789 58.9628Z" fill="#BEC0C2"/>
<path d="M33.3657 28.8025C31.0399 29.2189 29.1111 31.1846 28.9742 33.2781C28.969 33.3583 28.9665 33.4388 28.9667 33.5192C28.9667 34.4547 29.3305 35.2951 30.006 35.9075C30.8491 36.6701 32.0836 36.9742 33.3917 36.7398C35.7163 36.3263 37.6463 34.3608 37.7846 32.2647C37.851 31.2313 37.4861 30.2981 36.7531 29.6347C35.9092 28.871 34.6753 28.568 33.3657 28.8025ZM10.9083 34.7472L9.87557 38.7956C9.87557 38.7956 10.6655 38.5815 11.2201 38.4305C10.5341 41.5186 7.00383 57.4381 6.98073 57.5451C6.79798 58.1485 6.0153 58.592 5.33771 58.8084L4.76204 58.9921L2.95215 65.043L5.18325 64.1069C12.488 61.0441 23.4118 58.0878 23.5217 58.0587L24.0986 57.9029L26.6308 50.8393L23.8997 51.4896C23.529 51.5768 23.2974 51.7366 23.147 51.918C22.8049 52.3414 21.7 53.5008 20.661 53.8449L15.8514 55.1828L15.8284 55.1884C15.8515 55.0842 21.3097 31.0432 21.3097 31.0432L10.9083 34.7472Z" fill="#A1A1A4"/>
<path d="M27.5766 38.4981L26.5823 42.4275C26.5823 42.4275 27.1816 42.2697 27.7267 42.1245C27.0852 44.6012 25.6804 50.0329 25.6804 50.0329C25.5213 50.6891 25.4442 51.3254 25.4442 51.9255C25.4442 53.2488 25.8218 54.3972 26.552 55.2142C27.2391 55.9832 28.5654 56.8306 30.9833 56.4947C32.8587 56.2363 34.6005 55.3198 36.1626 53.7684L37.2167 52.7219L33.9746 50.7561L33.3432 51.3641C33.2973 51.4093 33.2502 51.4475 33.2057 51.4854C33.2236 51.344 33.2519 51.1772 33.2973 50.9845C33.2941 50.9938 36.6442 37.1348 36.6442 37.1348L37.1468 35.0539L27.5766 38.4981Z" fill="#A1A1A4"/>
<path d="M48.0254 35.9685C48.1605 35.9531 48.3058 35.9513 48.442 35.9589L45.5099 47.9303C45.3976 48.3686 44.7348 48.7477 43.9706 48.8022C43.938 48.8046 43.9048 48.7961 43.8701 48.7876C44.0234 48.1732 46.9027 36.5585 46.9177 36.4966C47.0256 36.3293 47.5736 36.0199 48.0254 35.9685ZM48.7365 31.4766C43.2101 32.1642 39.0447 35.4958 37.8703 40.1694L36.2246 46.8948L36.231 46.8665C35.6478 49.0139 35.8742 50.7096 36.9054 51.907C38.0966 53.2883 40.177 53.7934 43.0903 53.4093C48.6438 52.6762 52.7553 49.6222 53.8235 45.4376C53.824 45.433 55.6842 37.9964 55.6842 37.9964C56.2064 35.83 55.9431 34.1407 54.9076 32.9632C53.7164 31.6151 51.6412 31.1135 48.7365 31.4766ZM71.5138 26.6878C70.368 26.8747 69.0341 27.3468 67.8282 27.9496C67.9324 27.5311 68.045 27.0824 68.045 27.0824L58.3847 30.7108L57.4594 34.6143L58.607 34.2644L54.7502 50.2191L62.9075 48.2027L66.2092 34.4032C66.396 33.5873 66.7987 33.0761 67.4965 32.7678L65.54 41.0851C65.5431 41.074 65.4323 41.5103 65.4323 41.5103C64.9972 43.1946 64.4028 45.5027 65.6563 46.9275C66.3486 47.7151 67.4229 48.0152 68.8488 47.818C71.3712 47.4681 73.5902 46.1401 75.4466 43.8679L76.2722 42.8587C76.2722 42.8587 73.4943 41.0793 73.2319 40.9125C73.8503 38.3061 75.3755 31.8706 75.3755 31.8706C75.5303 31.2322 75.6094 30.6455 75.6094 30.1104C75.6094 29.0877 75.3227 28.2572 74.7539 27.6326C74.0097 26.8173 72.8295 26.4743 71.5138 26.6878ZM9.22502 69.4256L8.71777 67.9521L10.4376 67.1636C19.6184 63.205 32.2798 58.7545 45.1756 54.9511C58.4043 51.0505 70.1563 48.3622 77.4201 47.5763L78.7112 47.4357L78.6382 51.1634L77.7296 51.3415C71.4636 52.5625 49.2998 57.717 27.1963 72.785L26.5799 73.2046L25.9494 72.8057C21.1546 69.7756 14.4581 69.3597 10.8935 69.3807C10.3654 69.3726 9.22502 69.4256 9.22502 69.4256Z" fill="#A1A1A4"/>
<path d="M83.6119 24.5211C78.9375 25.512 76.3132 28.8964 76.4143 33.8111C76.474 36.7523 78.2828 39.1782 80.0326 41.5242C81.5338 43.536 82.9517 45.4373 82.9987 47.3482C83.0851 50.8991 81.535 51.3989 81.0208 51.5164C80.1151 51.7217 79.4454 51.168 79.2566 50.9356C80.8297 50.1943 82.4101 48.7832 82.4101 46.7586C82.4101 46.6265 82.4034 46.4923 82.3902 46.3553C82.2591 45.0492 81.6334 44.3341 81.1323 43.9623C80.0167 43.1385 78.6947 43.3354 78.3165 43.415C75.5643 43.9941 73.8148 46.7396 74.333 49.6659C75.172 54.404 79.5565 55.8649 83.2762 55.2146C85.9681 54.744 88.2173 53.3766 89.6083 51.3625C90.9843 49.367 91.4497 46.872 90.9525 44.1481C90.4386 41.3268 88.9449 39.1027 87.5008 36.9497C86.0024 34.7172 84.5849 32.6068 84.4809 30.0736C84.4472 29.2656 84.679 28.6613 84.9229 28.4216C85.0179 28.3286 85.0791 28.3234 85.1372 28.3272C85.2246 28.3333 85.429 28.3482 85.6473 28.6826C86.1335 29.4303 86.2002 30.9779 85.7977 32.1332L85.6638 32.5185L86.3564 34.4959L92.9515 31.3809L92.8591 30.558C92.6432 28.5774 91.6645 26.8615 90.1075 25.7205C88.3461 24.4333 86.0399 24.0076 83.6119 24.5211Z" fill="#A1A1A4"/>
<path d="M33.5086 29.6194C31.5722 29.9653 29.9052 31.6318 29.7947 33.3336C29.7902 33.3941 29.7882 33.4547 29.7886 33.5153C29.7886 34.2134 30.0565 34.8375 30.5542 35.2883C31.2082 35.8805 32.1898 36.1118 33.2484 35.922C35.1853 35.5773 36.8523 33.9116 36.9646 32.2086C37.0149 31.437 36.7446 30.7421 36.2039 30.2531C35.5506 29.66 34.5684 29.4296 33.5086 29.6194ZM11.595 35.3825L11.0231 37.6232C11.0231 37.6232 11.9516 37.3715 12.3188 37.2706C12.098 38.2688 7.78039 57.736 7.77288 57.7678C7.44636 58.8954 6.13391 59.4253 5.58508 59.5997L5.42254 59.6519L4.24146 63.6026L4.86881 63.3398C12.2247 60.2561 23.1989 57.2858 23.3086 57.2566L23.4718 57.2114L25.34 51.9995L24.3621 52.231C23.9418 52.331 23.7862 52.3692 23.7371 52.4987C23.4824 52.7997 22.2459 54.2003 20.9049 54.6377L16.0425 55.9899C15.5575 56.108 15.2018 56.0899 15.0531 55.938C14.9195 55.7997 14.905 55.4895 15.0127 55.0614C15.0153 55.0532 20.1745 32.3282 20.1745 32.3282L11.595 35.3825ZM28.264 39.1302L27.7238 41.2671C27.7238 41.2671 28.5674 41.0443 28.8772 40.9621C28.6283 41.9212 26.4803 50.2242 26.4803 50.2242C26.3354 50.8211 26.2653 51.3944 26.2653 51.9307C26.2653 53.0449 26.5707 53.9953 27.1634 54.6587C27.7166 55.2778 28.8113 55.9575 30.8718 55.6726C32.5668 55.4381 34.1541 54.5983 35.5872 53.1761L35.8843 52.8825L34.0883 51.7933L33.9125 51.9648C33.5288 52.3331 33.1457 52.5457 32.7715 52.5964C32.5977 52.6215 32.5411 52.5588 32.516 52.532C32.3601 52.3596 32.2628 51.8029 32.4978 50.7946L35.9868 36.3524L28.264 39.1302ZM46.1281 36.2608C46.2684 35.689 47.2893 35.2177 47.9319 35.1431C48.473 35.0815 49.2155 35.1652 49.3954 35.3723C49.4133 35.3918 49.4231 35.4084 49.4118 35.4574L46.3074 48.1296C46.1021 48.9306 45.1653 49.5482 44.0281 49.6302C43.6845 49.6544 43.3098 49.5138 43.1114 49.2884C43.0271 49.1913 42.987 49.0919 42.987 48.9857C42.987 48.9586 42.9902 48.9303 42.996 48.9009C43.0011 48.8772 46.1281 36.2608 46.1281 36.2608ZM48.8382 32.2996C43.6539 32.9455 39.7561 36.0383 38.6665 40.3742L37.0227 47.0938C36.5174 48.9493 36.6863 50.3863 37.525 51.3609C38.5104 52.5037 40.3973 52.9268 42.9844 52.5862C48.1975 51.8971 52.046 49.0808 53.027 45.2301L54.8885 37.7923C55.3398 35.9138 55.1406 34.4759 54.2929 33.5165C53.2937 32.3818 51.457 31.973 48.8382 32.2996ZM71.6461 27.5067C70.0294 27.7709 67.9466 28.674 66.5479 29.667L66.8634 28.4127L59.082 31.3344L58.5915 33.4022C58.5915 33.4022 59.4385 33.145 59.7466 33.0505L55.8696 49.0875L62.2271 47.5172L65.4112 34.2067C65.6797 33.0283 66.3567 32.269 67.4784 31.882C67.9134 31.7333 68.2486 31.796 68.3881 31.926C68.4195 31.9549 68.5157 32.0447 68.4548 32.2836L66.3394 41.2765C66.3414 41.2738 66.2271 41.7188 66.2271 41.7188C65.84 43.2235 65.3099 45.2832 66.2696 46.3758C66.7696 46.945 67.599 47.1521 68.7374 46.9946C71.0485 46.675 73.0931 45.4453 74.8132 43.3393L75.0453 43.0559L73.2045 41.8766L73.029 42.1283C72.6138 42.7185 72.1467 42.983 71.9565 42.9567C71.9455 42.9232 71.9405 42.8879 71.9417 42.8526C71.9417 42.7984 71.9492 42.7296 71.9732 42.6532L71.9769 42.6421L74.5753 31.6773C74.7165 31.1017 74.7858 30.5788 74.7858 30.1128C74.7858 29.3027 74.5747 28.6606 74.15 28.1952C73.5966 27.5895 72.6837 27.3379 71.6461 27.5067ZM77.5071 48.4016C70.29 49.182 58.5906 51.8601 45.4058 55.7481C32.5411 59.5416 19.9126 63.9814 10.7607 67.9266L10.4174 68.0767L10.5508 68.5424L10.8883 68.5503C14.5427 68.5273 21.4142 68.9603 26.3856 72.103L26.5638 72.2158L26.7358 72.0971C48.969 56.9402 71.2679 51.7542 77.5732 50.5263L77.8296 50.4761L77.8706 48.362L77.5071 48.4016Z" fill="white"/>
<path d="M83.781 25.3344C79.4677 26.2478 77.1434 29.2519 77.2358 33.7943C77.29 36.4678 79.0185 38.7843 80.6895 41.0241C82.2728 43.1456 83.7674 45.151 83.8194 47.329C83.8875 50.1223 83.0153 51.7758 81.2265 52.2429C80.5437 52.4199 79.6721 52.2429 79.0046 51.7874C78.5222 51.4591 78.2041 51.0126 78.0669 50.5143C79.5757 50.0439 81.588 48.7244 81.588 46.7414C81.588 46.6414 81.583 46.542 81.5729 46.4399C81.4921 45.6354 81.1797 45.0271 80.6474 44.6322C79.9787 44.1388 79.0921 44.0995 78.4853 44.2278C76.1329 44.7229 74.6954 46.9975 75.1423 49.5181C75.8829 53.6995 79.8049 54.9776 83.1357 54.397C85.6105 53.9651 87.6689 52.7191 88.9329 50.8875C90.1827 49.0775 90.6019 46.8006 90.1443 44.298C89.6613 41.6491 88.2175 39.4976 86.8202 37.4146C85.2536 35.0817 83.7723 32.8787 83.6591 30.109C83.6196 29.1586 83.8846 28.2841 84.3488 27.8274C84.5928 27.588 84.8777 27.4783 85.1944 27.4999C85.6575 27.5332 86.0407 27.7767 86.3337 28.2266C86.9631 29.1962 87.0667 30.9934 86.5724 32.4092L86.5355 32.5171L86.8288 33.356L92.0688 30.8806L92.0431 30.649C91.852 28.9043 90.9928 27.3941 89.624 26.3936C88.0541 25.2449 85.9794 24.8685 83.781 25.3344Z" fill="white"/>
<path d="M36.643 32.1886C36.539 33.752 34.9948 35.2823 33.1927 35.6016C31.3891 35.9253 30.0114 34.9178 30.1145 33.3548C30.2167 31.7889 31.7622 30.2605 33.5651 29.9398C35.3675 29.6164 36.7449 30.6239 36.643 32.1886ZM24.0373 52.6426L24.8353 52.4525L23.2257 56.9433C23.2257 56.9433 12.2073 59.9113 4.74463 63.0391L5.68176 59.9113C6.70089 59.5858 7.77747 58.9151 8.08292 57.8554L12.7492 36.8171L11.4723 37.1658L11.8621 35.6308L19.7301 32.8293L14.7015 54.9813C14.407 56.1449 14.9125 56.5971 16.1285 56.3032L21.0042 54.9466C22.6128 54.4212 24.0373 52.6426 24.0373 52.6426ZM34.133 52.1991C33.7201 52.598 33.2787 52.8558 32.813 52.9191C31.9989 53.0351 31.8918 51.9807 32.1842 50.7204L35.5332 36.8605L28.5333 39.3797L28.1715 40.8141L29.3278 40.5068L26.7912 50.3063C26.1108 53.1261 27.0314 55.8763 30.827 55.3505C32.5575 55.1105 34.068 54.2267 35.3614 52.9445L34.133 52.1991ZM54.5761 37.7132C55.595 33.4764 53.0714 32.0991 48.8765 32.6217C44.0399 33.2256 40.084 36.0565 38.978 40.4534L37.335 47.1721C36.1894 51.3809 38.752 52.8159 42.9419 52.2641C47.7463 51.6299 51.7116 49.0871 52.7154 45.1498L54.5761 37.7132ZM44.0508 49.9555C43.3519 50.0042 42.5429 49.5154 42.6798 48.8348L45.816 36.1825C45.9984 35.4342 47.172 34.9032 47.8955 34.8207C48.5269 34.7481 49.8879 34.8332 49.7239 35.5316L46.6197 48.2081C46.3593 49.225 45.2348 49.87 44.0508 49.9555ZM59.3553 31.5798L59.0346 32.927L60.1917 32.5753L56.3072 48.6453L61.9603 47.2488L65.098 34.1308C65.4233 32.7135 66.2779 31.9522 67.3741 31.5734C68.2261 31.2809 68.9519 31.6273 68.7665 32.3636L66.6518 41.3516C66.1705 43.3065 64.8826 47.2006 68.6935 46.6731C71.5378 46.2797 73.4288 44.5228 74.5646 43.1321L73.2905 42.3168C72.8251 42.979 72.2168 43.382 71.8366 43.2633C71.6111 43.191 71.5745 42.8528 71.6666 42.5562L74.2611 31.6011C75.0741 28.2761 73.2637 27.5716 71.6963 27.8285C69.7522 28.1446 67.2012 29.3904 66.0022 30.5224L66.4017 28.9325L59.3553 31.5798Z" fill="#0066B3"/>
<path d="M83.3385 30.1205C83.2727 28.517 84.0063 27.0913 85.2177 27.1758C87.1453 27.3114 87.6107 30.4121 86.8777 32.5169L87.0137 32.9095L91.7242 30.6862C91.3287 27.0927 88.0083 24.7715 83.846 25.6519C79.3636 26.6005 77.4766 29.7954 77.5572 33.7866C77.6608 38.8206 84.0285 42.6594 84.1419 47.3196C84.2268 50.7982 82.8517 52.1536 81.3072 52.5577C79.9217 52.9187 77.9039 52.0046 77.6805 50.2849C79.2871 49.8918 81.4581 48.5064 81.2523 46.4722C81.0505 44.4586 79.3134 44.3842 78.5515 44.5446C76.6174 44.9514 75.2227 46.7734 75.3991 48.9908C59.3099 51.2478 28.8528 60.4796 10.8867 68.2259C15.9307 68.1944 22.1032 69.0117 26.5559 71.8272C44.4087 59.6572 63.467 53.1996 75.7583 50.5687C76.8706 53.5638 80.0406 54.6069 83.0818 54.077C87.6471 53.2803 90.7917 49.6411 89.8283 44.3583C88.8282 38.8667 83.5622 35.5249 83.3385 30.1205ZM33.4536 24.5645C32.3092 25.458 31.5744 24.9445 31.0325 24.1338L31.9566 23.4123C32.2832 23.8387 32.5759 24.1837 33.0843 23.7871C33.3961 23.5433 33.3932 23.2196 33.1614 22.9169C32.5465 22.1129 30.6477 23.515 29.6311 22.1858C29.0964 21.4869 29.0015 20.6724 30.1277 19.7935C31.0282 19.0916 31.7869 19.1511 32.4402 20.1323L31.5397 20.8348C31.2842 20.5006 30.9696 20.2035 30.5957 20.4951C30.296 20.7287 30.2464 21.0346 30.4822 21.3437C31.1307 22.1908 32.9348 20.6651 34.0082 22.0686C34.8925 23.2254 34.1577 24.0157 33.4536 24.5645ZM35.6102 17.7196L35.5963 17.726L36.1916 20.1495L37.1891 19.6491L35.6102 17.7196ZM35.6001 22.8102L34.501 17.0626L35.8801 16.3715L39.7222 20.7424L38.6205 21.295L37.7934 20.3146L36.366 21.0302L36.6331 22.2923L35.6001 22.8102ZM40.5851 20.3764L39.3584 14.8723L41.1929 14.4565L42.8795 18.0051L42.8942 18.0016L42.9667 14.0529L44.7402 13.6499L45.9666 19.154L44.8571 19.4059L43.911 15.1595L43.8957 15.163L43.7924 19.6477L42.706 19.8944L40.7636 15.8751L40.7485 15.8781L41.6946 20.1242L40.5851 20.3764ZM48.8432 19.2342C47.3963 19.2252 47.1312 18.3637 47.1985 17.3871L48.3669 17.3953C48.3637 17.9342 48.3845 18.3871 49.026 18.392C49.4206 18.3941 49.6152 18.1377 49.6181 17.7543C49.6239 16.7392 47.273 16.661 47.2834 14.9814C47.2886 14.0984 47.7109 13.3979 49.134 13.407C50.2712 13.414 50.8327 13.9339 50.7484 15.1129L49.6115 15.105C49.6141 14.6836 49.5468 14.2529 49.0751 14.2506C48.6954 14.2483 48.4702 14.4573 48.4679 14.8481C48.461 15.9186 50.8136 15.8399 50.8027 17.6134C50.7937 19.075 49.7327 19.24 48.8432 19.2342ZM56.8426 14.5183L56.0441 18.4366C55.8752 19.2631 55.2351 20.0396 53.8413 19.7497C52.5831 19.4879 52.1114 18.7035 52.3236 17.663L53.1221 13.7447L54.266 13.9826L53.4833 17.824C53.3438 18.5055 53.5774 18.8332 53.9943 18.9198C54.4943 19.0236 54.7903 18.7344 54.9153 18.122L55.6982 14.2803L56.8426 14.5183ZM57.0199 20.4458L59.2831 15.2884L60.7257 15.9341L60.5167 20.1131L60.5309 20.1198L62.0982 16.5485L63.0951 16.9949L60.8323 22.1523L59.4245 21.5221L59.6867 17.127L59.6722 17.1206L58.0174 20.8923L57.0199 20.4458ZM66.3523 21.2244C66.6632 20.806 66.8636 20.3825 66.363 20.0145C65.7749 19.5827 65.1969 20.3852 64.5591 21.2693C63.5305 22.6967 63.4857 23.051 64.0245 23.4465C64.1806 23.5614 64.3767 23.6474 64.5568 23.7031L65.2852 22.6921L64.7722 22.315L65.2774 21.6134L66.7348 22.6851L65.0693 24.9975C64.776 24.859 64.0591 24.4866 63.6835 24.2111C62.0948 23.0429 62.391 22.2459 63.639 20.5158C64.4676 19.3654 65.3658 18.238 66.9106 19.3739C67.8365 20.0545 68.034 21.0025 67.29 21.9146L66.3523 21.2244ZM40.0923 70.3534L40.6481 70.5319C40.83 70.5905 41.1213 70.5497 41.2437 70.1604C41.3366 69.8659 41.2064 69.585 40.9261 69.4952L40.4142 69.331L40.0923 70.3534ZM39.5395 72.1098L40.0017 72.2582C40.1778 72.3148 40.5759 72.4367 40.7523 71.8753C40.8643 71.5196 40.8005 71.26 40.3825 71.1259L39.898 70.9702L39.5395 72.1098ZM38.514 72.4597L39.7776 68.4472L41.2523 68.9208C41.8849 69.1237 42.35 69.4754 42.0806 70.3313C41.9354 70.7929 41.6048 71.0533 41.1256 70.9976L41.1221 71.0087C41.6848 71.2813 41.718 71.7141 41.5448 72.2646C41.2246 73.2815 40.3357 73.0447 39.9835 72.9315L38.514 72.4597ZM44.0528 70.4508L44.0415 70.4485L43.327 72.1669L44.1452 72.3171L44.0528 70.4508ZM41.7971 73.4923L43.6795 69.5585L44.8097 69.7661L45.1773 74.1134L44.2739 73.9472L44.2124 72.9875L43.042 72.7723L42.6439 73.6477L41.7971 73.4923ZM46.9453 74.2966C45.8676 74.2339 45.7024 73.5815 45.7899 72.8563L46.6603 72.907C46.6375 73.3089 46.6355 73.6474 47.1139 73.6757C47.4081 73.6926 47.5631 73.5086 47.5796 73.2234C47.6226 72.4667 45.8731 72.3177 45.9446 71.0661C45.9816 70.408 46.3231 69.9023 47.3838 69.9641C48.2312 70.0134 48.6302 70.4222 48.5222 71.2979L47.6748 71.2487C47.6927 70.9343 47.6593 70.6115 47.3076 70.5908C47.0253 70.5742 46.8489 70.7217 46.8324 71.0128C46.7868 71.8103 48.5433 71.8427 48.4676 73.1645C48.4056 74.2531 47.6085 74.335 46.9453 74.2966ZM49.2595 74.2989L49.039 70.0942L51.3108 69.9726L51.3451 70.6194L49.9438 70.694L49.9981 71.731L51.2894 71.6619L51.3235 72.3081L50.0318 72.3772L50.0962 73.606L51.5435 73.5288L51.5773 74.1752L49.2595 74.2989ZM53.1348 73.3092L53.6132 73.2278C53.7954 73.1969 54.2045 73.1214 54.1075 72.5405C54.046 72.1725 53.8722 71.9716 53.4394 72.045L52.9382 72.1305L53.1348 73.3092ZM52.8317 71.4919L53.4068 71.3942C53.595 71.3621 53.8358 71.1906 53.7685 70.7885C53.7177 70.4838 53.4755 70.2942 53.1851 70.3438L52.6553 70.4336L52.8317 71.4919ZM52.3813 74.0936L51.689 69.9414L53.2148 69.6819C53.8699 69.5707 54.4424 69.6684 54.5902 70.5543C54.6696 71.0314 54.4938 71.4163 54.0422 71.5875L54.0442 71.5992C54.6678 71.582 54.8936 71.9514 54.9883 72.5212C55.1641 73.5737 54.2663 73.7737 53.9016 73.8352L52.3813 74.0936ZM56.4004 69.7518L56.3894 69.755L56.5291 71.6132L57.3251 71.3706L56.4004 69.7518ZM55.7655 73.4973L55.6653 69.1293L56.7656 68.7936L59.0544 72.4938L58.1756 72.7621L57.6871 71.9366L56.5485 72.2839L56.5892 73.2462L55.7655 73.4973ZM59.648 72.2279L58.0073 68.3571L58.8087 68.0106L60.1769 71.2382L61.377 70.7194L61.6493 71.3627L59.648 72.2279ZM62.1967 71.0755L60.2 67.3793L60.9653 66.9576L62.6303 70.0397L63.7759 69.4086L64.1079 70.0225L62.1967 71.0755ZM64.5906 67.2003C63.9171 66.3176 63.2761 65.4769 64.4148 64.5904C65.1195 64.0424 65.7024 64.2145 66.2212 64.952L65.5442 65.4786C65.2058 65.0351 65.0011 64.9295 64.7956 65.0896C64.4067 65.392 64.6385 65.8008 65.2901 66.6552C65.9423 67.5102 66.2746 67.8406 66.6635 67.5382C66.9837 67.2889 66.6525 66.8839 66.4608 66.6135L67.1425 66.0828C67.8226 66.9743 67.689 67.535 67.0443 68.0372C65.9051 68.9237 65.2569 68.0733 64.5906 67.2003ZM68.5782 66.6684L65.7021 63.6196L66.3335 63.0125L68.7315 65.5544L69.6764 64.6449L70.1542 65.152L68.5782 66.6684ZM69.2061 59.8138L71.4684 61.7358C71.9456 62.1417 72.2228 62.8419 71.5386 63.6631C70.9216 64.4037 70.2443 64.4379 69.6432 63.9273L67.3812 62.005L67.9425 61.3314L70.1603 63.216C70.5538 63.5499 70.8494 63.512 71.0541 63.2662C71.2995 62.9722 71.2167 62.6725 70.863 62.3724L68.6449 60.4874L69.2061 59.8138Z" fill="#0066B3"/>
<path d="M72.8957 60.6591L73.1587 60.2476C73.2589 60.091 73.4801 59.735 72.9898 59.4151C72.6792 59.2127 72.415 59.2069 72.1768 59.5796L71.9011 60.0103L72.8957 60.6591ZM71.363 59.6592L71.6794 59.1646C71.7828 59.0025 71.82 58.7079 71.4805 58.4863C71.2233 58.3186 70.9213 58.3711 70.7616 58.6213L70.4703 59.0768L71.363 59.6592ZM72.9613 61.75L69.459 59.465L70.2982 58.1524C70.6588 57.5893 71.1161 57.2277 71.8633 57.7156C72.2658 57.9783 72.4286 58.3688 72.2493 58.8211L72.2588 58.8275C72.6668 58.3507 73.0892 58.4321 73.5696 58.745C74.457 59.3241 73.998 60.1287 73.7973 60.4421L72.9613 61.75Z" fill="#0066B3"/>
</g>
<defs>
<clipPath id="clip0_3029_3047">
<rect width="90" height="68.4" fill="white" transform="translate(2.95215 9.8999)"/>
</clipPath>
</defs>
</svg>
