<svg width="86" height="52" viewBox="0 0 86 52" fill="none" xmlns="http://www.w3.org/2000/svg">
<g clip-path="url(#clip0_3029_2860)">
<path d="M80.7896 28.5604C81.225 27.936 81.5417 27.211 81.7396 26.4657L82.175 24.794C82.3333 24.1898 82.4125 23.5654 82.4125 22.9611C82.4125 22.5583 82.3729 22.1555 82.2937 21.7728L82.9865 21.7124L84.7875 14.8643L81.5417 10.9367L69.1125 12.0445C68.4 11.1583 67.6083 10.2922 66.7573 9.48657C66.4208 5.76042 63.3333 2.81979 59.5729 2.81979C58.6823 2.81979 57.851 2.98092 57.0594 3.28304C52.1312 1.18834 46.4312 0 40.3354 0C29.6875 0 20.1875 3.64558 14.1312 9.3053L2.19687 10.3929L7.97604 15.7102L0 46.0028L3.52292 49.9102L26.7979 45.6604C30.9344 47.0099 35.5062 47.7551 40.3354 47.7551C48.6875 47.7551 56.3271 45.5194 62.1656 41.8134L63.8083 51.3L70.2802 36.476L85.4802 29.6481L80.7896 28.5604Z" fill="#D5D5D6"/>
<path d="M83.6198 15.1461L81.0865 12.0644L68.6375 13.1722C67.7865 12.0443 66.7969 10.9567 65.7083 9.94959C65.6094 6.58599 62.8979 3.88705 59.5531 3.88705C58.6625 3.88705 57.8115 4.08846 57.0396 4.43086C52.1709 2.31602 46.4511 1.0874 40.3354 1.0874C29.7667 1.0874 20.3854 4.73299 14.5469 10.3524L4.69064 11.2588L9.14377 15.3676L1.16772 45.7005L3.91877 48.7418L26.8771 44.5524C30.974 45.9019 35.5458 46.6673 40.3552 46.6673C49.1625 46.6673 57.1583 44.1294 62.9573 40.0206L64.2833 47.634L69.5083 35.6499L82.1354 29.9701L78.7906 29.2047C79.7011 28.4393 80.4136 27.3719 80.7104 26.1835L81.1458 24.5118C81.2844 23.9881 81.3438 23.4644 81.3438 22.9609C81.3438 22.4171 81.2448 21.8934 81.0865 21.41C81.0271 21.2086 80.9281 21.0072 80.849 20.8259L82.1552 20.7051L83.6198 15.1461Z" fill="#CF0022"/>
<path d="M60.8595 37.3623C56.8616 40.1418 51.8741 41.9948 46.4314 42.8005C49.1824 41.7732 51.7356 40.4641 54.0116 38.893C54.1502 38.7923 54.3085 38.6916 54.447 38.5909L49.8554 39.4167C44.7689 42.0754 38.4554 43.6464 31.5877 43.6464C30.9345 43.6464 30.2814 43.6262 29.6481 43.6061C32.9731 44.4722 36.5752 44.9556 40.3158 44.9556C49.1231 44.9556 57.0397 42.3573 62.5814 38.2082L62.2449 36.3149C61.8293 36.6573 61.3543 37.0199 60.8595 37.3623Z" fill="white"/>
<path d="M3.99792 44.9555L4.84897 45.9223L63.7094 35.2676L63.5313 34.2001L3.99792 44.9555ZM67.5688 33.6764L64.6198 40.4237L65.4313 41.2495L68.3802 34.5022L74.8323 31.6018L74.0208 30.776L67.5688 33.6764ZM79.9781 14.7637L79.3052 17.2813L75.0104 17.664C74.8323 17.6842 74.6542 17.8453 74.6146 18.0266L74.1396 19.799C74.1 19.9803 74.199 20.1213 74.3573 20.1011L75.1687 20.0206L75.4458 18.9732C75.4854 18.7919 75.624 18.7114 75.7625 18.6912L80.1167 18.3085L80.7896 15.7909L79.9781 14.7637ZM53.2 26.3248L54.0115 26.2442L54.3479 24.935L60.1073 24.4315L61.1167 20.5845C61.1958 20.2824 61.2354 20.0004 61.2354 19.7386C61.2354 19.4767 61.1958 19.2149 61.1167 18.9934C61.0375 18.7718 60.9385 18.5704 60.7802 18.3891C60.6417 18.228 60.1271 17.6036 59.9688 17.4223C60.3646 17.946 60.5031 18.7114 60.2656 19.5775L59.2563 23.4244L53.4969 23.928L52.9427 26.0227C52.9229 26.204 53.0219 26.3449 53.2 26.3248Z" fill="#970022"/>
<path d="M67.1135 19.4561L70.8937 19.1137L71.4676 16.8982C71.4874 16.7975 71.527 16.7169 71.5666 16.6162L70.6957 15.5688L70.0426 18.0865L66.3614 18.4088C66.1832 18.4289 66.0051 18.59 65.9655 18.7713L63.5707 27.8551L60.0676 28.1773L60.3843 26.989L59.3749 28.2579L51.6957 28.9427C50.528 29.0434 49.6968 28.4392 49.4791 27.4522L48.0145 29.2851L45.8968 29.4664C45.3624 29.5067 44.927 29.3657 44.6697 29.0635C44.4322 29.3858 44.0562 29.6275 43.6999 29.6476L40.3353 29.9498C39.1676 30.0505 38.3364 29.4462 38.1187 28.4593L36.6541 30.2922L34.7343 30.4734C33.9426 30.5339 33.3093 30.2922 32.9135 29.8088C33.0718 30.0102 33.5864 30.6346 33.7249 30.7957C33.8635 30.9568 34.0218 31.0978 34.1999 31.2187C34.378 31.3194 34.5957 31.4201 34.8135 31.4604C35.051 31.5007 35.2885 31.5208 35.5655 31.5006L37.1885 31.3597L38.6728 29.5067C38.8905 29.7685 39.227 30.1713 39.326 30.2922C39.4645 30.4533 39.6228 30.5943 39.801 30.7151C39.9791 30.8158 40.1968 30.9166 40.4145 30.9568C40.652 30.9971 40.8895 31.0173 41.1666 30.9971L44.5312 30.695C44.8874 30.6547 45.2635 30.4332 45.501 30.1109C45.7582 30.3929 46.1739 30.554 46.728 30.5137L48.5489 30.3526L50.0332 28.4996C50.251 28.7614 50.5874 29.1643 50.6864 29.2851C50.8249 29.4462 50.9832 29.5872 51.1614 29.7081C51.3395 29.8088 51.5572 29.9095 51.7749 29.9498C52.0124 29.99 52.2499 30.0102 52.527 29.99L60.2062 29.3052L60.5426 28.8823L60.8989 29.2448L64.402 28.9226L66.8166 19.7582C66.8562 19.577 66.9947 19.4763 67.1135 19.4561ZM78.3551 21.6515C78.2166 21.4904 77.702 20.866 77.5437 20.6847C77.9395 21.2084 78.078 21.9738 77.8405 22.8399L77.2072 25.2568C77.0093 26.0423 76.2572 26.7473 75.5645 26.8077L67.826 27.4925L68.1624 29.4462L69.2905 29.7081L69.0728 28.4794L75.6437 27.8954C76.7916 27.7946 77.8999 26.7674 78.2166 25.5388L78.652 23.8671C78.7312 23.565 78.7707 23.283 78.7707 23.0211C78.7707 22.7593 78.7312 22.4975 78.652 22.2759C78.5926 22.0342 78.4937 21.8328 78.3551 21.6515Z" fill="#970022"/>
<path d="M67.4104 25.0556L68.4792 24.975L68.4 24.5521L67.0938 23.2227L67.4104 25.0556ZM71.1709 21.5309C71.3094 21.7121 71.8636 22.3566 72.0021 22.5379C72.1406 22.6991 72.299 22.84 72.4771 22.9609C72.6552 23.0616 72.8729 23.1623 73.0906 23.2026C73.3281 23.2429 73.5656 23.263 73.8427 23.2429L74.3375 23.2026L74.5552 22.4171C74.5948 22.2358 74.4959 22.0948 74.3375 22.115L73.0313 22.2358C72.2 22.2761 71.5667 22.0142 71.1709 21.5309ZM47.5792 26.828L48.3906 26.7475L52.6459 10.574L51.8146 9.56689L47.3417 26.5259C47.3021 26.7072 47.4011 26.8482 47.5792 26.828ZM55.4365 20.8058C55.4761 20.6245 55.6542 20.4634 55.8323 20.4432L56.624 20.3627L56.8417 19.5771C56.8813 19.3959 56.7823 19.2549 56.624 19.275L55.0011 19.416C54.8229 19.4362 54.6448 19.5973 54.6052 19.7786L54.0511 21.8733L55.1792 21.7725L55.4365 20.8058ZM17.3771 13.7966L16.5459 12.7694L10.5094 35.6902L11.6375 35.5895L17.3771 13.7966ZM21.949 31.0779C21.7115 31.4001 21.3354 31.6418 20.9792 31.6619L17.6146 31.9641C16.8625 32.0245 16.2292 31.8029 15.8334 31.3397L16.6052 32.2863C16.7438 32.4475 16.9021 32.5884 17.0802 32.7093C17.2584 32.81 17.4761 32.9107 17.6938 32.951C17.9313 32.9913 18.1688 33.0114 18.4459 32.9913L21.8104 32.6892C22.1667 32.6489 22.5427 32.4273 22.7802 32.1051C23.0375 32.387 23.4531 32.5482 24.0073 32.5079L26.125 32.3266L26.5011 31.8634L26.8177 32.2662L30.3209 31.9439L32.7948 22.5379L33.9031 22.4372L34.1209 21.6517C34.1604 21.4704 34.0615 21.3294 33.9031 21.3496L31.9834 21.5309L29.4896 30.8966L25.9865 31.2188L26.3031 30.0305L25.2938 31.2793L23.1761 31.4605C22.6219 31.521 22.1865 31.3598 21.949 31.0779ZM22.5625 23.4241L22.7802 22.6386C22.8198 22.4574 22.7209 22.3164 22.5625 22.3365L17.1198 22.8199L17.9511 23.827L22.5625 23.4241Z" fill="#970022"/>
<path d="M19.1188 29.3657L19.9302 29.2852L20.2271 28.1975C20.2667 28.0162 20.4448 27.8551 20.6229 27.835L21.4146 27.7544L21.7115 26.6466L19.7917 26.8279C19.6136 26.848 19.4354 27.0092 19.3958 27.1905L18.9011 29.0837C18.8417 29.2449 18.9406 29.3859 19.1188 29.3657ZM41.8396 27.3314L42.651 27.2509L44.076 21.8127C44.1156 21.6314 44.2938 21.4703 44.4719 21.4502L45.2635 21.3696L45.5604 20.2618L43.6406 20.4431C43.4625 20.4632 43.2844 20.6244 43.2448 20.8056L41.6021 27.0293C41.5625 27.2106 41.6615 27.3516 41.8396 27.3314ZM24.8583 28.842L25.6698 28.7615L27.0354 23.6053C27.1146 23.3032 27.1542 23.0212 27.1542 22.7594C27.1542 22.4975 27.1146 22.2357 27.0354 22.0141C26.9563 21.7926 26.8573 21.5912 26.699 21.4099C26.5604 21.2488 26.0458 20.6244 25.8875 20.4431C26.2833 20.9668 26.4219 21.7321 26.1844 22.5982L24.6208 28.5399C24.5813 28.7212 24.6802 28.8622 24.8583 28.842ZM36.2188 27.835L37.0302 27.7544L38.3958 22.5982C38.475 22.2961 38.5146 22.0141 38.5146 21.7523C38.5146 21.4905 38.475 21.2286 38.3958 21.0071C38.3167 20.7855 38.2177 20.5841 38.0594 20.4028C37.9208 20.2417 37.4063 19.6173 37.2479 19.436C37.6438 19.9597 37.7823 20.7251 37.5448 21.5912L35.9813 27.5329C35.9417 27.7141 36.0406 27.8551 36.2188 27.835Z" fill="#970022"/>
<path d="M74.6146 18.0264C74.6542 17.8451 74.8323 17.684 75.0104 17.6639L79.3052 17.2812L79.9781 14.7635L73.1302 15.3678C72.4177 15.4282 71.6854 16.1331 71.4875 16.9186L70.8542 19.3356C70.399 21.0678 71.3688 22.3568 73.0115 22.1957L74.3177 22.0748C74.4958 22.0547 74.5948 22.1957 74.5354 22.377L74.0604 24.1494C74.0208 24.3307 73.8427 24.4918 73.6646 24.5119L67.3906 25.0759L67.074 23.2229L64.125 29.9702L61.4927 31.1586L10.5094 35.6904L16.5458 12.7695L10.1333 13.3536L11.8948 14.9851L3.99792 44.9554L63.5313 34.1999L64.6198 40.4236L67.5688 33.6762L74.0406 30.7759L68.1823 29.4466L67.8458 27.4929L75.5844 26.808C76.2969 26.7476 77.0292 26.0427 77.2271 25.2572L77.8604 22.8402C78.3156 21.108 77.3458 19.819 75.7031 19.96L74.3969 20.0808C74.2188 20.101 74.1198 19.96 74.1792 19.7787L74.6146 18.0264Z" fill="white"/>
<path d="M59.5533 15.3273C62.3624 15.3273 64.6397 13.0097 64.6397 10.1509C64.6397 7.29213 62.3624 4.97461 59.5533 4.97461C56.7441 4.97461 54.4668 7.29213 54.4668 10.1509C54.4668 13.0097 56.7441 15.3273 59.5533 15.3273Z" fill="white"/>
<path d="M56.4657 6.02242C51.7948 3.98814 46.273 2.7998 40.3355 2.7998C38.198 2.7998 36.1198 2.96094 34.1209 3.24291C42.1563 3.60546 49.3407 6.14327 54.4667 10.0305C54.5063 8.3991 55.2782 6.94892 56.4657 6.02242ZM70.0428 18.1072L70.6959 15.5896L64.4813 16.1535C63.7688 16.2139 63.0365 16.9189 62.8386 17.7044L60.7407 25.6804L53.2001 26.345C53.0219 26.3652 52.923 26.2242 52.9824 26.0429L53.5365 23.9482L59.2959 23.4447L60.3053 19.5977C60.7605 17.8655 59.7907 16.5765 58.148 16.7175L53.1407 17.1606C52.4282 17.221 51.6959 17.926 51.498 18.7115L49.5584 26.0832C49.499 26.2846 49.4792 26.486 49.4594 26.6874L47.6188 26.8486C47.4407 26.8687 47.3417 26.7277 47.4011 26.5464L51.874 9.58744L46.1146 10.1111L47.8761 11.7426L46.2928 17.785L41.8198 18.1878C41.1073 18.2482 40.3751 18.9532 40.1771 19.7387L38.2376 27.1104C38.1782 27.3118 38.1584 27.5132 38.1386 27.7146L36.298 27.8758C36.1198 27.8959 36.0209 27.7549 36.0803 27.5737L37.6438 21.632C38.099 19.8998 37.1292 18.6108 35.4865 18.7517L29.2126 19.3157L26.7386 28.7217L24.9376 28.8828C24.7594 28.903 24.6605 28.762 24.7198 28.5807L26.2834 22.639C26.7386 20.9069 25.7688 19.6178 24.1261 19.7588L17.8521 20.3228L17.1792 22.8404L22.6219 22.357C22.8001 22.3369 22.899 22.4779 22.8396 22.6592L22.3251 24.633L17.8917 25.0358C17.1792 25.0963 16.4271 25.7609 16.2292 26.5263L15.5563 29.1245C15.1011 30.8567 16.0709 32.1457 17.7136 32.0048L21.0782 31.7026C21.4344 31.6624 21.8105 31.4408 22.048 31.1185C22.3053 31.4005 22.7209 31.5616 23.2751 31.5214L25.3928 31.3401L26.4021 30.0913L26.0855 31.2797L29.5886 30.9574L32.0626 21.5514L33.9823 21.3701C34.1605 21.35 34.2594 21.491 34.2001 21.6722L32.6365 27.6139C32.1813 29.3461 33.1511 30.6351 34.7938 30.4942L36.7136 30.3129L38.1782 28.48C38.3959 29.4669 39.2271 30.0712 40.3949 29.9705L43.7594 29.6684C44.1157 29.6281 44.4917 29.4065 44.7292 29.0843C44.9865 29.3662 45.4021 29.5274 45.9563 29.4871L48.074 29.3058L49.5386 27.4729C49.7563 28.4599 50.5876 29.0641 51.7553 28.9634L59.4344 28.2786L60.4438 27.0097L60.1271 28.198L63.6303 27.8758L66.0251 18.792C66.0646 18.6108 66.2428 18.4496 66.4209 18.4295L70.0428 18.1072ZM54.6053 19.7991C54.6448 19.6178 54.823 19.4567 55.0011 19.4366L56.624 19.2956C56.8021 19.2754 56.9011 19.4164 56.8417 19.5977L56.2876 21.6924L54.0511 21.8938L54.6053 19.7991ZM21.1178 28.8627C21.0782 29.044 20.9001 29.2051 20.7219 29.2253L19.099 29.3662C18.9209 29.3864 18.8219 29.2454 18.8813 29.0641L19.3761 27.1708C19.4157 26.9896 19.5938 26.8284 19.7719 26.8083L21.6917 26.627L21.1178 28.8627ZM43.8386 26.8486C43.799 27.0298 43.6209 27.191 43.4428 27.2111L41.8198 27.3521C41.6417 27.3722 41.5428 27.2313 41.6021 27.05L43.2448 20.8263C43.2844 20.645 43.4626 20.4839 43.6407 20.4638L45.5605 20.2825L43.8386 26.8486Z" fill="white"/>
<path d="M18.3668 30.6546C17.4564 30.7352 16.922 30.0303 17.1793 29.0635L17.773 26.8278C17.8324 26.5861 17.9907 26.3645 18.1689 26.2034L16.7835 25.4783C16.4866 25.7402 16.2491 26.1027 16.1501 26.4854L15.4772 29.0836C15.022 30.8158 15.9918 32.1048 17.6345 31.9638L20.9991 31.6617C21.3553 31.6214 21.7314 31.3999 21.9689 31.0776C22.2262 31.3596 22.6418 31.5207 23.196 31.4804L25.2741 31.2992L24.7991 30.1108L18.3668 30.6546ZM30.5585 20.3826L29.1335 19.2748L25.9866 31.2186L29.4897 30.8963L28.0647 29.7886L30.5585 20.3826ZM46.0751 10.0903L47.8366 11.7016L46.2335 17.7642L47.6585 18.872L49.7168 11.0571L46.0751 10.0903ZM57.772 22.5578L52.0324 23.0614L53.5168 23.9274L59.2762 23.4239L57.772 22.5578ZM63.472 16.6363C63.1751 16.9182 62.9376 17.2808 62.8387 17.6836L60.0678 28.1773L63.571 27.855L62.146 26.7472L64.3824 18.2274C64.4418 17.9857 64.6001 17.7642 64.7782 17.5829L63.472 16.6363ZM65.4314 17.2808C65.2137 17.3009 64.996 17.4218 64.798 17.5829L66.1241 18.5296C66.2032 18.4691 66.2824 18.4288 66.3616 18.4087L70.0428 18.0864L68.9345 16.9585L65.4314 17.2808ZM36.1595 29.0836L35.4668 29.144C34.5564 29.2246 34.022 28.5197 34.2793 27.5529L35.8428 21.6112C36.1001 20.6645 35.5657 19.9395 34.6553 20.02L30.5585 20.3826L31.9835 21.4903L33.9032 21.3091C34.0814 21.2889 34.1803 21.4299 34.121 21.6112L32.5574 27.5529C32.1022 29.285 33.072 30.5741 34.7147 30.4331L36.6345 30.2518L36.1595 29.0836Z" fill="#D5D5D6"/>
<path d="M23.7302 25.4788L18.7823 25.9219C18.5646 25.942 18.3271 26.0629 18.1489 26.224L19.5343 26.9491C19.6135 26.8887 19.6927 26.8484 19.7719 26.8282L21.6916 26.647L21.1177 28.8625C21.0979 28.9431 21.0385 29.0438 20.9594 29.1042L21.9885 30.3328C22.2458 30.3127 22.5031 30.071 22.5625 29.8092L23.7302 25.4788ZM23.2948 21.0275L18.8812 21.4102L17.7729 20.2823L17.1 22.8L22.5427 22.3166C22.7208 22.2964 22.8198 22.4374 22.7604 22.6187L22.2458 24.5925L23.7302 25.4586L24.4823 22.5985C24.7396 21.672 24.2052 20.947 23.2948 21.0275ZM57.376 18.0063L54.0708 18.3084C53.8531 18.3286 53.6354 18.4494 53.4375 18.6106L54.7635 19.5572C54.8427 19.4968 54.9219 19.4565 55.001 19.4364L56.6239 19.2954C56.8021 19.2752 56.901 19.4162 56.8416 19.5975L56.2875 21.6922L57.7719 22.5583L58.5635 19.5773C58.8208 18.6307 58.2864 17.9258 57.376 18.0063ZM78.1969 16.1533L74.0604 16.5159C73.8427 16.536 73.625 16.6569 73.4271 16.818L74.7531 17.7646C74.8323 17.7042 74.9114 17.6639 74.9906 17.6438L79.2854 17.2611L78.1969 16.1533Z" fill="#D5D5D6"/>
<path d="M72.1209 15.8711L73.447 16.8177C73.2689 16.999 73.1105 17.2206 73.0512 17.4623L72.497 19.557C72.2397 20.5036 72.7741 21.2287 73.6845 21.1481L74.9907 21.0273C75.9012 20.9467 76.4355 21.6517 76.1782 22.6184L75.6241 24.7131C75.5647 24.9548 75.4064 25.1764 75.2282 25.3577L73.9022 24.411C73.9814 24.3506 74.0209 24.27 74.0605 24.1693L74.5355 22.3969C74.5751 22.2156 74.4762 22.0746 74.3178 22.0948L73.0116 22.2156C71.3689 22.3566 70.3991 21.0877 70.8543 19.3555L71.4876 16.9184" fill="#D5D5D6"/>
<path d="M75.248 25.3375C75.0699 25.5188 74.8324 25.6195 74.6147 25.6397L68.7366 26.1633L67.3908 25.0556L67.8064 27.4927L75.5449 26.8079C75.9012 26.7676 76.2574 26.5863 76.5543 26.3043L75.248 25.3375ZM47.5199 28.0566L41.0876 28.6206C40.1772 28.7012 39.6428 27.9962 39.9001 27.0294L41.6814 20.2418C41.7408 20.0001 41.8991 19.7785 42.0772 19.5973L40.7512 18.6506C40.4543 18.9326 40.2168 19.2951 40.1178 19.698L38.1783 27.0697C37.723 28.8019 38.6928 30.0909 40.3355 29.9499L43.7001 29.6478C44.0564 29.6075 44.4324 29.386 44.6699 29.0637C44.9272 29.3457 45.3428 29.5068 45.897 29.4665L48.0147 29.2852L47.5199 28.0566ZM58.8803 27.0496L52.448 27.6135C51.5376 27.6941 51.0033 26.9891 51.2605 26.0224L53.0418 19.2347C53.1012 18.993 53.2595 18.7715 53.4376 18.5902L52.1116 17.6436C51.8147 17.9255 51.5772 18.2881 51.4783 18.6909L49.5387 26.0626C49.0835 27.7948 50.0533 29.0838 51.696 28.9428L59.3751 28.258L58.8803 27.0496Z" fill="#D5D5D6"/>
<path d="M63.5312 34.1998L60.701 33.5553L6.70938 42.4175L14.0719 14.421L10.1333 13.3535L11.8948 14.985L3.99792 44.9553L63.5312 34.1998Z" fill="#D5D5D6"/>
<path d="M42.7104 19.3154C42.4927 19.3356 42.2749 19.4564 42.077 19.6175L43.4031 20.5642C43.4822 20.5038 43.5614 20.4635 43.6406 20.4433L45.5604 20.2621L43.8385 26.808C43.8187 26.8886 43.7593 26.9893 43.6801 27.0497L44.7093 28.2783C44.9666 28.2582 45.2239 28.0165 45.2833 27.7546L47.6385 18.832L42.7104 19.3154Z" fill="#D5D5D6"/>
<path d="M67.4303 30.2121L66.698 25.9824L64.699 30.5545L61.6115 31.9443L9.26257 37.9262L11.2022 39.7188L61.2355 32.7499L64.2834 33.4347L65.0157 37.6644L67.0147 33.0923L71.4084 31.1185L67.4303 30.2121Z" fill="#FAC109"/>
<path d="M66.2427 29.084L66.7573 30.8967L68.4594 31.4808L66.5198 32.5483L65.4708 34.5624L64.9562 32.7296L63.2542 32.1455L65.1937 31.0981L66.2427 29.084Z" fill="#004537"/>
<path d="M55.4959 7.009C53.0417 5.9818 50.3896 5.19628 47.599 4.71289C50.1917 5.7401 52.5865 7.02915 54.7042 8.55989C54.8823 7.99593 55.1594 7.47225 55.4959 7.009Z" fill="#FAC109"/>
<path d="M60.6616 13.7565C58.0887 13.7565 56.0105 11.6416 56.0105 9.02327C56.0105 7.49252 56.723 6.12291 57.8314 5.25684C55.872 5.98192 54.4668 7.89535 54.4668 10.131C54.4668 12.9911 56.7428 15.3074 59.5533 15.3074C61.7501 15.3074 63.6303 13.8773 64.3428 11.8833C63.4918 13.0314 62.1658 13.7565 60.6616 13.7565Z" fill="#D5D5D6"/>
<path d="M60.8395 11.9237L60.5427 11.2389L60.325 11.5008L60.5823 12.105L60.3843 12.3266L61.1364 12.6287L61.3343 12.387L60.6812 12.105L60.8395 11.9237ZM61.552 11.2188L61.4135 10.4937L61.1364 10.7153L61.275 11.3396L61.0375 11.5411L61.7104 11.9842L61.9677 11.7828L61.3739 11.3799L61.552 11.2188ZM62.4031 10.6951L62.3833 9.94989L62.1062 10.0909V10.7555L61.8291 10.8965L62.4031 11.4605L62.7 11.2994L62.1854 10.7958L62.4031 10.6951ZM63.3333 10.3326L63.4718 9.60749L63.1552 9.68805L63.0364 10.3326L62.7395 10.4131L63.175 11.0778L63.4916 10.9972L63.0958 10.393L63.3333 10.3326ZM64.3229 10.1714L64.5802 9.48664L64.2635 9.50678L64.026 10.111L63.7093 10.1312L64.026 10.8764L64.3427 10.8562L64.0854 10.1916L64.3229 10.1714ZM60.2656 12.7495L59.85 12.1453L59.6916 12.4474L60.0479 12.9711L59.9093 13.2531L60.6812 13.3941L60.8395 13.0919L60.1468 12.9711L60.2656 12.7495ZM59.8698 13.676L59.3354 13.1725L59.2364 13.4948L59.7114 13.9379L59.6125 14.24L60.4041 14.2199L60.5031 13.8976L59.7906 13.9177L59.8698 13.676ZM59.652 14.663L59.0385 14.2803L58.9989 14.6025L59.5333 14.9449L59.5135 15.2672L60.2854 15.0859L60.325 14.7637L59.6322 14.9047L59.652 14.663ZM58.6625 7.79476L57.9302 7.49264L57.7323 7.75448L58.3854 8.03646L58.227 8.21773L58.5239 8.8824L58.7416 8.6407L58.4645 8.03646L58.6625 7.79476ZM57.3562 8.15731L57.0989 8.35872L57.6927 8.76155L57.4948 8.90254L57.6531 9.62763L57.9104 9.42621L57.7718 8.78169L58.0291 8.60042L57.3562 8.15731ZM56.6635 8.68098L56.3666 8.82197L56.8812 9.34565L56.6635 9.44635V10.1916L56.9604 10.0305V9.38593L57.2375 9.24494L56.6635 8.68098ZM55.8916 9.04353L55.5552 9.14423L55.951 9.74847L55.7333 9.8089L55.5947 10.534L55.9114 10.4534L56.0302 9.8089L56.327 9.72833L55.8916 9.04353ZM55.1 9.26508L54.7635 9.28522L55.0406 9.94989L54.8031 9.97003L54.526 10.6548L54.8625 10.6347L55.1 10.0305L55.3968 10.0103L55.1 9.26508ZM59.2166 7.99618L59.375 7.69406L58.9989 7.17038L59.1572 6.8884L58.3854 6.74741L58.2073 7.02939L58.9198 7.17038L58.801 7.39194L59.2166 7.99618ZM59.177 6.52586L59.7114 7.04953L59.8104 6.72727L59.3354 6.26402L59.4343 5.98204H58.6427L58.5437 6.3043H59.2562L59.177 6.52586ZM59.4145 5.59936L60.0281 5.98204L60.0677 5.65978L59.5135 5.31738L59.5531 4.99512L58.7812 5.17639L58.7416 5.49865L59.4343 5.35766L59.4145 5.59936Z" fill="#CF0022"/>
<path d="M19.7324 15.1259L20.5637 14.0987C21.1376 14.5821 21.7512 14.9043 22.4835 14.9043C23.0574 14.9043 23.4137 14.6627 23.4137 14.28V14.2598C23.4137 13.8973 23.196 13.716 22.1074 13.434C20.8012 13.0916 19.9699 12.7291 19.9699 11.4199V11.3998C19.9699 10.2114 20.9001 9.4259 22.2262 9.4259C23.1564 9.4259 23.9678 9.72802 24.621 10.2517L23.8887 11.3393C23.3147 10.9365 22.7605 10.6948 22.2064 10.6948C21.672 10.6948 21.3751 10.9566 21.3751 11.2588V11.2789C21.3751 11.7019 21.6522 11.8429 22.7605 12.145C24.0668 12.4874 24.7991 12.9708 24.7991 14.1188V14.139C24.7991 15.4482 23.8293 16.1733 22.4241 16.1733C21.4939 16.1733 20.5043 15.8308 19.7324 15.1259ZM25.2345 15.1259L26.0658 14.0987C26.6397 14.5821 27.2533 14.9043 27.9855 14.9043C28.5595 14.9043 28.9158 14.6627 28.9158 14.28V14.2598C28.9158 13.8973 28.698 13.716 27.6095 13.434C26.3033 13.0916 25.472 12.7291 25.472 11.4199V11.3998C25.472 10.2114 26.4022 9.4259 27.7283 9.4259C28.6585 9.4259 29.4699 9.72802 30.123 10.2517L29.3908 11.3393C28.8168 10.9365 28.2626 10.6948 27.7085 10.6948C27.1543 10.6948 26.8772 10.9566 26.8772 11.2588V11.2789C26.8772 11.7019 27.1543 11.8429 28.2626 12.145C29.5689 12.4874 30.3012 12.9708 30.3012 14.1188V14.139C30.3012 15.4482 29.3314 16.1733 27.9262 16.1733C26.996 16.1733 26.0064 15.8308 25.2345 15.1259ZM30.8949 12.8096C30.8949 10.9365 32.3199 9.40576 34.2793 9.40576C35.447 9.40576 36.1397 9.72802 36.8126 10.3121L35.922 11.3998C35.4272 10.9768 34.9918 10.7351 34.2397 10.7351C33.2105 10.7351 32.3991 11.6616 32.3991 12.7694V12.7895C32.3991 13.998 33.2105 14.8641 34.3585 14.8641C34.873 14.8641 35.3283 14.7231 35.6845 14.4612V13.5146H34.2397V12.2658H37.0303V15.1058C36.3772 15.6697 35.447 16.1531 34.2793 16.1531C32.2803 16.1934 30.8949 14.7634 30.8949 12.8096Z" fill="white"/>
</g>
<defs>
<clipPath id="clip0_3029_2860">
<rect width="85.5" height="51.3" fill="white"/>
</clipPath>
</defs>
</svg>
