<svg width="90" height="62" viewBox="0 0 90 62" fill="none" xmlns="http://www.w3.org/2000/svg">
<g clip-path="url(#clip0_3029_2969)">
<mask id="mask0_3029_2969" style="mask-type:luminance" maskUnits="userSpaceOnUse" x="-1" y="-1" width="91" height="63">
<path d="M-0.000488281 -0.591807H89.9096V61.7495H-0.000488281V-0.591807Z" fill="white"/>
</mask>
<g mask="url(#mask0_3029_2969)">
<path d="M68.0246 30.5786C68.0246 42.2818 58.6165 51.7695 47.0112 51.7695C35.4056 51.7695 25.9968 42.2818 25.9968 30.5786C25.9968 18.8748 35.4056 9.38704 47.0112 9.38704C58.6165 9.38704 68.0246 18.8748 68.0246 30.5786Z" fill="white"/>
<path d="M56.8648 22.0962C56.8648 22.0962 58.0104 21.7124 58.5266 21.8389L58.6822 21.4279C58.2386 21.2103 57.1257 21.472 57.1257 21.472C57.1257 21.472 56.5962 20.4973 56.216 20.4117L56.0293 20.8767C56.5591 21.1836 56.8648 22.0962 56.8648 22.0962Z" fill="#C7A079"/>
<path d="M52.5322 49.4615C52.5322 49.4615 52.0654 48.8111 51.7726 48.7506L51.6353 49.094C52.0459 49.353 52.3075 49.896 52.3075 49.896C52.3075 49.896 53.3374 49.6812 53.7464 49.8028L53.8933 49.467C53.5445 49.2772 52.5322 49.4615 52.5322 49.4615Z" fill="#C7A079"/>
<path d="M54.6242 44.3C54.6242 44.3 53.7251 43.4113 53.3497 43.4309L53.2983 43.9057C53.8829 44.0863 54.4916 44.9214 54.4916 44.9214C54.4916 44.9214 55.5587 44.1675 56.0876 44.1762L56.1649 43.7051C55.6832 43.5934 54.6242 44.3 54.6242 44.3Z" fill="#C7A079"/>
<path d="M57.6459 20.5835C57.6459 20.5835 58.7867 20.402 59.3112 20.4722L59.5478 19.9953C59.0842 19.8268 57.9017 20.0149 57.9017 20.0149C57.9017 20.0149 57.3968 19.0826 57.0121 19.0374L56.8247 19.4992C57.3811 19.7505 57.6459 20.5835 57.6459 20.5835Z" fill="#C7A079"/>
<path d="M58.5669 19.0888C58.5669 19.0888 59.467 19.0436 59.9819 19.1455L60.2502 18.6811C59.8024 18.4837 58.8734 18.5127 58.8734 18.5127C58.8734 18.5127 58.2738 17.7576 57.9241 17.6152L57.7095 18.0296C58.2452 18.3104 58.5669 19.0888 58.5669 19.0888Z" fill="#C7A079"/>
<path d="M59.3861 17.7301C59.3861 17.7301 60.2473 17.6385 60.7515 17.7759L61.0583 17.2951C60.6281 17.0727 59.7307 17.1751 59.7307 17.1751C59.7307 17.1751 59.2523 16.3482 58.8806 16.2549L58.6565 16.6338C59.1684 16.9495 59.3861 17.7301 59.3861 17.7301Z" fill="#C7A079"/>
<path d="M60.2435 16.4533C60.2435 16.4533 61.003 16.516 61.494 16.6851L61.7715 16.3137C61.3569 16.0597 60.527 16.016 60.527 16.016C60.527 16.016 60.1002 15.2142 59.7364 15.0959L59.5032 15.4426C59.9924 15.7882 60.2435 16.4533 60.2435 16.4533Z" fill="#C7A079"/>
<path d="M51.9754 50.4667C51.9754 50.4667 51.5024 49.8261 51.2315 49.765L51.1052 50.1068C51.4854 50.3664 51.7673 50.9033 51.7673 50.9033C51.7673 50.9033 52.6855 50.694 53.0662 50.8166L53.2005 50.4797C52.8793 50.2905 51.9754 50.4667 51.9754 50.4667Z" fill="#C7A079"/>
<path d="M53.0859 48.3502C53.0859 48.3502 52.4417 47.528 52.1011 47.4801L51.9753 47.9119C52.4704 48.1894 52.8691 48.9014 52.8691 48.9014C52.8691 48.9014 53.9791 48.4963 54.458 48.6086L54.5961 48.1827C54.1801 47.9865 53.0859 48.3502 53.0859 48.3502Z" fill="#C7A079"/>
<path d="M53.6812 47.1972C53.6812 47.1972 52.8796 46.2502 52.5056 46.2394L52.4185 46.7109C52.9816 46.9498 53.5068 47.8105 53.5068 47.8105C53.5068 47.8105 54.6359 47.1274 55.1625 47.1869L55.2671 46.7202C54.7992 46.5615 53.6812 47.1972 53.6812 47.1972Z" fill="#C7A079"/>
<path d="M54.194 45.7122C54.194 45.7122 53.3475 44.7882 52.9738 44.7909L52.9019 45.2635C53.4741 45.4756 54.0401 46.3271 54.0401 46.3271C54.0401 46.3271 55.1422 45.613 55.6701 45.65L55.7613 45.179C55.2876 45.0422 54.194 45.7122 54.194 45.7122Z" fill="#C7A079"/>
<path d="M37.7291 15.3071L38.1178 14.9724C37.7921 14.7849 37.4472 13.6988 37.4472 13.6988C37.4472 13.6988 36.6938 13.6759 36.3497 13.5696L35.8538 13.9284L37.0412 14.0684C37.0412 14.0684 37.3177 15.0978 37.7291 15.3071Z" fill="#C7A079"/>
<path d="M39.0701 14.3491L39.478 14.0373C39.0647 13.8273 38.7862 12.7883 38.7862 12.7883C38.7862 12.7883 38.0121 12.7114 37.7234 12.5413L37.3228 12.8521C37.5857 13.0588 38.3948 13.1432 38.3948 13.1432C38.3948 13.1432 38.6427 14.1676 39.0701 14.3491Z" fill="#C7A079"/>
<path d="M36.4452 16.3945C36.5597 16.2786 36.6781 16.1666 36.8001 16.0587C36.4236 15.5844 36.2922 14.6875 36.2922 14.6875C36.2922 14.6875 35.4127 14.6494 34.9907 14.6238C34.8612 14.741 34.6782 14.9694 34.6782 14.9694L35.8356 15.1062C35.8356 15.1062 36.0679 15.9633 36.4452 16.3945Z" fill="#C7A079"/>
<path d="M35.375 17.5977C35.4801 17.4903 35.6026 17.3529 35.7272 17.2444C35.3496 16.7679 35.1647 15.7986 35.1647 15.7986C35.1647 15.7986 34.3192 15.7616 33.9012 15.7337C33.7678 15.8521 33.6542 15.9491 33.5874 16.0815L34.7219 16.2075C34.7219 16.2075 34.9954 17.1686 35.375 17.5977Z" fill="#C7A079"/>
<path d="M40.3689 13.3867L40.8042 13.0978C40.2959 12.9925 40.0402 11.8711 40.0402 11.8711C40.0402 11.8711 39.3583 11.863 39.1304 11.7114C38.9552 11.8068 38.7713 11.8728 38.5955 11.9877C38.8541 12.1132 39.6173 12.1726 39.6173 12.1726C39.6173 12.1726 39.9797 13.2123 40.3689 13.3867Z" fill="#C7A079"/>
<path d="M34.5536 18.4992C34.1981 18.1082 33.8849 17.1079 33.8849 17.1079C33.8849 17.1079 33.0861 17.1477 32.6638 17.1373L32.2927 17.5342C32.7117 17.604 33.4748 17.5664 33.4748 17.5664C33.4748 17.5664 33.7351 18.4348 34.2203 18.937L34.5536 18.4992Z" fill="#C7A079"/>
<path d="M41.6149 12.3579C41.726 12.2756 42.0174 12.117 42.0174 12.117C41.5516 11.9349 41.52 11.1182 41.52 11.1182C41.52 11.1182 40.4971 11.1013 40.2587 10.9885C40.1131 11.0855 39.9571 11.1378 39.8176 11.2572C40.0127 11.424 41.0486 11.4709 41.0486 11.4709C41.0486 11.4709 41.1564 12.2604 41.6149 12.3579Z" fill="#C7A079"/>
<path d="M31.6855 18.5379C31.5658 18.702 31.4755 18.8061 31.3606 18.9691L32.4472 19.022C32.4472 19.022 32.6776 20.0296 33.0441 20.3877L33.3496 19.9319C33.039 19.5634 32.8403 18.5336 32.8403 18.5336C32.8403 18.5336 32.0507 18.5668 31.6855 18.5379Z" fill="#C7A079"/>
<path d="M31.6727 20.0669C31.6727 20.0669 30.9816 20.1634 30.6212 20.0756L30.313 20.4594C30.5979 20.5636 31.3569 20.5651 31.3569 20.5651C31.3569 20.5651 31.7511 21.884 32.0614 22.0459L32.3433 21.5514C31.9449 21.2205 31.6727 20.0669 31.6727 20.0669Z" fill="#C7A079"/>
<path d="M29.6861 21.7249L29.4033 22.173L30.4211 22.172C30.4211 22.172 30.6665 23.2514 31.109 23.5938L31.3758 23.1173C31.0819 22.8016 30.7765 21.6993 30.7765 21.6993L29.6861 21.7249Z" fill="#C7A079"/>
<path d="M28.7882 23.4684L28.5776 23.946L29.5719 23.8925C29.5719 23.8925 29.9673 24.8805 30.3355 25.2261C30.4342 25.062 30.4831 24.8379 30.5718 24.6771C30.1369 24.2519 29.8595 23.4177 29.8595 23.4177L28.7882 23.4684Z" fill="#C7A079"/>
<path d="M42.2792 10.7021C42.3269 11.1262 42.7557 11.564 42.7557 11.564L43.1206 11.317C42.7914 11.0379 42.6584 10.4486 42.6584 10.4486L41.9964 10.3739C41.6642 10.3554 40.9595 10.6028 40.9595 10.6028C41.2898 10.5914 42.2792 10.7021 42.2792 10.7021Z" fill="#C7A079"/>
<path d="M80.2495 32.4501L80.2022 32.7085C80.1662 32.8971 78.0927 33.2695 76.0196 33.7034C76.0853 33.0743 76.1283 32.4386 76.1542 31.7992C78.28 32.1365 80.2495 32.4501 80.2495 32.4501ZM62.6829 28.2713L61.921 34.585C61.8589 34.972 61.7242 35.4551 61.3976 35.55L59.3259 35.7702L60.0876 29.4582C60.1454 29.0646 60.2852 28.5842 60.6083 28.4899L62.6829 28.2713ZM47.0102 52.2655C40.5486 52.265 34.7569 49.388 30.8146 44.8381C31.0509 44.8141 31.2271 44.7944 31.3185 44.7852C31.3691 44.7808 31.3974 44.7427 31.4058 44.6746C31.5883 43.166 33.704 25.6784 33.7081 25.6441C33.7089 25.607 33.6654 25.5929 33.6329 25.5989C33.6015 25.6038 32.4819 25.8087 31.4353 26.0083C30.8409 26.1239 30.254 26.3349 29.6901 26.6205C29.6961 26.596 29.7017 26.572 29.7072 26.5535C29.2708 26.1342 29.1912 25.191 29.1912 25.191L27.9929 25.3649L27.8494 25.8306L28.8032 25.691C28.8032 25.691 28.86 26.3436 29.2371 26.8708C27.6201 27.8308 26.2437 29.4156 25.5208 31.2049C25.5148 30.996 25.5051 30.7884 25.5051 30.578C25.5051 18.5999 35.1334 8.89305 47.0102 8.89087C55.868 8.89087 63.4719 14.292 66.7676 22.0056C63.419 22.3616 59.3856 22.7917 59.3856 22.7917C58.8793 22.8452 58.3836 22.9613 57.9008 23.1199L57.9584 22.9499C57.5062 22.7634 56.4089 23.1025 56.4089 23.1025C56.4089 23.1025 55.7943 22.1463 55.4132 22.0869L55.2442 22.5535C55.7873 22.8244 56.1759 23.7262 56.1759 23.7262C56.1759 23.7262 56.632 23.5469 57.0966 23.44C56.5551 23.6904 56.042 23.9991 55.5664 24.3608C55.3298 24.0936 55.0092 23.7796 54.7912 23.7606L54.6433 24.2321C54.8406 24.3155 55.0268 24.4835 55.186 24.664C53.6155 26.0034 52.4972 27.9203 52.2467 29.9995C52.2467 29.9995 50.7675 42.255 50.7592 42.344C50.7489 42.4328 50.7437 42.508 50.8659 42.5009C50.9027 42.4982 52.0794 42.3733 53.6742 42.2038L53.6678 42.3335C54.2615 42.4737 54.9331 43.2784 54.9331 43.2784C54.9331 43.2784 55.95 42.4714 56.4778 42.4415L56.5311 41.9704C56.0443 41.8898 55.0285 42.6531 55.0285 42.6531C55.0285 42.6531 54.6942 42.363 54.3429 42.1324C57.8095 41.7643 62.6194 41.2504 62.6194 41.2504C64.0574 41.0982 65.4226 40.4859 66.5727 39.5749C66.4971 39.7303 66.4265 39.8881 66.3611 40.0482C62.8743 47.2805 55.5202 52.265 47.0102 52.2655ZM89.8207 19.4127C86.0093 19.8182 82.1979 20.2233 78.3864 20.6279C77.1418 20.7599 75.9523 21.238 74.9078 21.9528C71.2518 9.91368 60.1466 1.1581 47.0088 1.1581C34.1057 1.1581 23.1667 9.60886 19.318 21.3193C16.1618 21.6414 8.17155 22.4843 8.17155 22.4843C2.35662 23.1025 0.709552 27.6618 0.247415 30.3277C-0.151876 32.6125 0.046287 34.2246 0.0701132 34.6766C0.0729903 34.7534 0.102213 34.8472 0.152203 34.8631C0.221164 34.8848 0.314131 34.8488 0.433891 34.7104C0.562553 34.5616 2.73074 31.8542 3.05108 31.4965C3.37063 31.1395 4.75596 29.4691 7.45964 29.1834L16.6208 28.2091C16.6022 28.4049 15.4182 38.8422 15.4182 38.8422C15.213 40.2172 14.3137 41.0698 12.6355 41.3729C12.6355 41.3729 14.0741 28.7385 14.0755 28.7178C14.0814 28.6966 14.0755 28.6704 14.0412 28.6769C14.0047 28.684 11.9671 29.0346 11.9671 29.0346C8.75579 29.7319 6.03313 32.7488 5.63636 36.0472L4.93758 42.182C3.00649 42.3804 1.74163 42.2011 0.948805 42.1401C0.680694 42.121 0.429033 42.0871 0.214148 42.0615C0.124957 42.0507 0.0565402 42.1352 0.106261 42.2099C0.432814 42.7217 1.2135 44.113 2.22283 45.1876C3.58578 46.6454 5.57531 47.3688 8.04406 47.3688L14.1842 46.8094C17.8529 46.4191 20.0489 45.657 21.3927 44.6659C26.3431 53.8024 35.9578 60.0005 47.0088 60.0005C59.9192 60.0005 70.8618 51.5416 74.7065 39.8235C78.4197 39.4299 81.9468 39.0543 81.9468 39.0543C87.6044 38.453 87.8207 35.7637 87.9374 34.3195C87.9491 34.1838 88.2156 31.8334 88.2502 31.1738C88.3619 29.4249 87.0906 27.8521 85.2365 27.4388C84.4847 27.2704 81.4289 26.7344 79.4696 26.3953C79.5049 26.368 79.5453 26.348 79.5883 26.3365L85.0978 25.7439C87.0146 25.5405 88.5056 24.1214 89.1952 21.8491L89.9089 19.4972C89.9089 19.4972 89.9237 19.3997 89.8207 19.4127Z" fill="#C7A079"/>
<path d="M52.3723 23.6695C52.2847 23.6782 40.6248 24.9158 40.6248 24.9158C37.0616 25.2978 33.9258 28.4643 33.4815 32.1284C33.4815 32.1284 31.9845 44.5393 31.9802 44.5677C31.9772 44.596 32.0056 44.6249 32.0451 44.6195C32.077 44.6162 38.9524 43.8981 39.7728 43.8147C39.8236 43.8093 39.8539 43.7532 39.8617 43.7182C39.8668 43.6822 41.3482 31.3766 41.3482 31.3766C41.4176 31.0827 41.5535 30.7088 41.8126 30.6259L43.9207 30.4024C43.9207 30.4024 42.3792 43.1802 42.3548 43.3672C42.3411 43.4707 42.393 43.534 42.4959 43.5247C43.609 43.4059 50.0712 42.7189 50.1036 42.7146C50.1368 42.7125 50.2133 42.6754 50.2171 42.6164C50.3858 41.2432 52.4824 23.8908 52.4877 23.7938C52.5015 23.6929 52.4691 23.658 52.3723 23.6695Z" fill="#C7A079"/>
<path d="M23.4183 23.1068C22.569 22.2231 21.3791 21.811 20.0056 21.9586L8.20127 23.2169C4.08258 23.652 1.83437 26.5239 1.15915 28.8512C0.739628 30.3069 0.659069 31.1955 0.610068 31.7881C0.610068 31.7881 0.528519 33.1468 0.54722 33.5704C0.54722 33.6298 0.544163 33.6564 0.578239 33.6734C0.59775 33.6821 0.626341 33.6755 0.66716 33.6314C0.886631 33.3849 1.43913 32.6119 1.57166 32.4424C2.02363 31.8775 2.85512 30.8091 3.40402 30.3315C4.08932 29.7367 5.51853 28.7068 7.43631 28.504L16.9681 27.4922C17.1379 27.4704 17.2477 27.5041 17.2597 27.5249C17.4063 27.6764 17.3225 27.9638 17.3225 27.9638L16.1082 38.9021C15.8452 40.699 14.4928 41.7747 11.94 42.1056L13.3257 29.5704C13.3299 29.5098 13.2967 29.4761 13.2324 29.4897C13.1665 29.5017 12.0703 29.7312 12.0703 29.7312C9.15683 30.3625 6.69078 33.0938 6.32754 36.0803L5.72101 41.4301L5.54577 42.7811L5.1998 42.8203C4.50048 42.8939 3.6136 42.9463 1.84247 42.8203C1.53488 42.7985 1.38024 42.7626 1.34454 42.8089C1.31892 42.8547 1.33348 42.9108 1.42187 43.0607C1.45783 43.1245 2.15634 44.4563 3.67088 45.5778C4.61295 46.2724 6.10447 46.6616 7.98989 46.6616C9.02547 46.6616 10.1222 46.5613 11.1583 46.4496L12.742 46.2811C20.1129 45.4966 22.3584 44.5097 23.0042 39.4686L24.5029 26.6951C24.675 25.2809 24.2903 24.0079 23.4183 23.1068Z" fill="#071D3D"/>
<path d="M20.0418 22.6535L8.2356 23.9101C2.21333 24.549 1.47373 30.2837 1.4348 30.5154C1.39182 30.7471 1.29427 31.6739 1.28807 31.7432C1.2753 31.8091 1.30209 31.8364 1.35397 31.7688C1.408 31.6957 2.09537 30.7847 2.09537 30.7847C2.11083 30.7597 4.05846 28.2153 7.39871 27.861L16.9345 26.8474C17.2976 26.8087 17.5752 26.8802 17.753 27.071C18.1088 27.4494 17.9961 28.1968 17.8853 28.9879C17.8563 29.1797 16.7675 38.9896 16.7675 38.9896C16.3099 42.2007 12.7888 42.5763 11.6286 42.698L11.295 42.7344C11.295 42.7344 12.6342 30.3224 12.6366 30.2685C12.6395 30.2139 12.588 30.1932 12.536 30.2046C12.4874 30.2162 12.1595 30.2864 12.1595 30.2864C9.48202 30.8698 7.2144 33.3749 6.88488 36.1144L5.99126 43.2965C5.33546 43.3587 4.61231 43.4175 3.99301 43.4175C3.61782 43.4175 2.44575 43.3357 2.35656 43.327C2.27285 43.3188 2.24983 43.3652 2.30171 43.4257C2.35332 43.4884 2.72474 43.9589 2.72474 43.9589C3.94275 45.4161 5.74581 46.1707 7.87209 46.0643C9.9964 45.9613 11.55 45.7422 13.0707 45.608C17.4933 45.2122 21.6653 44.7635 22.3536 39.4563L23.8487 26.6709C23.9951 25.4627 23.6683 24.3751 22.9365 23.6173C22.2305 22.8829 21.1795 22.5302 20.0418 22.6535Z" fill="#1D467D"/>
<path d="M79.499 25.6615L85.0732 25.0651C86.4723 24.9158 87.7531 23.7377 88.2775 22.415C88.4786 21.9031 88.8473 20.5811 88.9317 20.2763C88.9418 20.2344 88.91 20.2174 88.8613 20.2196C88.8122 20.23 78.414 21.3585 78.414 21.3585C75.2392 21.6965 72.3322 24.629 71.9406 27.8941C71.9406 27.8941 71.6686 30.3043 71.6657 30.3289C71.6657 30.3517 71.6748 30.3649 71.691 30.3669C71.7018 30.3692 81.0263 31.9644 81.0263 31.9644C81.0263 31.9644 80.9572 32.3591 80.8682 32.9647C80.7736 33.5671 76.7457 34.0524 75.1176 34.5228C72.6561 35.2321 70.1827 35.8493 67.8888 38.6073C67.5399 39.0314 67.2726 39.6268 67.1293 39.8536C67.1 39.9026 67.1185 39.9631 67.1896 39.9577C67.2666 39.9517 82.1613 38.3505 82.1613 38.3505C85.2194 38.0262 86.9021 36.8551 87.1592 34.8724L87.1891 34.6308C87.3016 33.8021 87.5035 32.256 87.5603 31.2038C87.6454 29.8087 86.5653 28.497 85.0483 28.1547C84.1314 27.9524 79.7639 27.1957 78.4521 26.9711C78.617 26.2318 78.977 25.7902 79.499 25.6615Z" fill="#071D3D"/>
<path d="M79.4366 25.0266L85.0399 24.4258C86.8327 24.2328 87.6016 22.552 87.9039 21.5701C87.9039 21.5701 88.0314 21.1352 88.0376 21.0937C88.0461 21.0517 88.0161 21.0386 87.9584 21.0435C87.9028 21.0485 78.4524 22.0548 78.4524 22.0548C75.5779 22.3586 72.9561 25.0156 72.5974 27.9798C72.5974 27.9798 72.3811 29.8345 72.3799 29.8563C72.3799 29.8775 72.3898 29.8929 72.4085 29.8972C72.4287 29.8982 81.7396 31.5638 81.7396 31.5638C81.7346 31.6257 81.7281 31.6875 81.7204 31.7492L81.6102 32.6607C81.4028 33.9435 80.4953 34.1168 76.721 34.8266C75.8316 34.994 70.6057 36.1863 68.7882 38.5163C68.594 38.7727 68.4562 38.9694 68.3825 39.0904C68.3321 39.1722 68.3525 39.2104 68.4359 39.2039C69.4056 39.0937 79.8174 37.9636 81.2277 37.8131C84.5158 37.4643 86.1449 36.901 86.5083 34.6293C86.7151 33.3192 86.848 32.1733 86.9023 31.2252C86.9675 30.1376 86.0979 29.1165 84.8755 28.8412C83.8252 28.6068 77.9369 27.5944 77.88 27.5873C77.8293 27.5797 77.7128 27.518 77.7221 27.4003C77.9074 25.7168 78.7506 25.1786 79.4366 25.0266Z" fill="#1D467D"/>
<path d="M78.9122 22.8668L87.3698 21.9656C87.442 21.7836 87.5037 21.6096 87.5483 21.4613L78.4949 22.4252C75.7799 22.7119 73.2995 25.2246 72.966 28.0209L72.7861 29.585L73.2476 29.6689L73.3857 28.4603C73.7472 25.5054 76.2006 23.1546 78.9122 22.8668Z" fill="white"/>
<path d="M78.2391 28.3979C78.8511 28.4998 84.2419 29.4283 85.218 29.6469C85.5935 29.7298 85.9303 29.8955 86.2036 30.1152C85.893 29.6769 85.3984 29.3214 84.7974 29.2026C83.77 29.0036 78.4288 28.0605 77.8163 27.9525C77.8047 27.9525 77.793 27.9476 77.7871 27.9459C77.8257 28.1864 78.0264 28.3597 78.2391 28.3979Z" fill="white"/>
<path d="M82.3952 33.1615L82.499 32.3181C82.5344 32.0346 82.6061 31.713 82.3334 31.66L82.1065 31.6181C82.1003 31.7032 81.974 32.7188 81.974 32.7188C81.7045 34.3767 81.0285 34.4192 76.7874 35.1912C75.1619 35.4904 70.1662 37.0617 69.104 38.7168C69.4091 38.6835 69.7103 38.6551 70.0038 38.6236C71.6376 37.1723 75.7588 35.8983 77.2092 35.6344C81.455 34.8646 82.1278 34.8155 82.3952 33.1615Z" fill="white"/>
<path d="M30.8772 26.9079C28.3719 27.6531 26.0437 30.4236 25.7123 33.167C25.7123 33.167 24.3291 44.625 24.3207 44.7215C24.3167 44.8191 24.3807 44.8414 24.441 44.8387C24.4959 44.8299 30.2017 44.2248 30.7388 44.1676C30.7633 44.1621 30.7801 44.1458 30.7842 44.1174C30.9085 43.1077 32.9099 26.4924 32.9118 26.4526C32.9132 26.4222 32.8786 26.3834 32.8307 26.3976C32.7867 26.4068 31.8721 26.6113 30.8772 26.9079Z" fill="#071D3D"/>
<path d="M31.642 27.4114C28.9682 27.9931 26.7037 30.4971 26.3717 33.2404C26.3717 33.2404 25.0813 43.959 25.074 44.0218C25.0591 44.0883 25.0794 44.1238 25.1772 44.1155C25.2659 44.1025 29.705 43.6304 30.1529 43.5845C30.1786 43.5802 30.1888 43.566 30.1924 43.5415C30.3008 42.6539 32.1395 27.4021 32.1419 27.3694C32.1491 27.3367 32.1232 27.3062 32.0818 27.3149C32.0402 27.3252 31.642 27.4114 31.642 27.4114Z" fill="#1D467D"/>
<path d="M31.6547 28.3495L31.725 27.7726C29.218 28.3228 27.0535 30.6975 26.7417 33.2849L25.4829 43.707L25.9648 43.6558L27.1607 33.7238C27.4457 31.1146 29.3641 29.0767 31.6547 28.3495Z" fill="white"/>
<path d="M40.6506 25.6492C37.4715 25.9878 34.5653 28.9225 34.1691 32.193C34.1691 32.193 32.772 43.772 32.7691 43.8063C32.7637 43.8461 32.7799 43.875 32.8247 43.8701C32.8688 43.8652 38.4789 43.2709 39.1665 43.1924C39.2128 43.1919 39.2398 43.1439 39.2452 43.1079C39.2482 43.0763 40.6657 31.3289 40.6657 31.3289C40.8398 30.5443 41.2042 30.0815 41.72 29.9528L44.7136 29.6323C44.7136 29.6323 43.17 42.4974 43.1442 42.6074C43.1215 42.7127 43.1744 42.7721 43.2699 42.7611C44.2179 42.6604 49.4914 42.0961 49.5272 42.0934C49.5463 42.0929 49.5645 42.0851 49.5781 42.0716C49.5917 42.0582 49.5998 42.04 49.6007 42.0208C49.7446 40.8548 51.6983 24.7301 51.6983 24.6265C51.7048 24.5169 51.6126 24.4825 51.545 24.4902C51.4755 24.5006 40.6506 25.6492 40.6506 25.6492Z" fill="#071D3D"/>
<path d="M40.6845 26.344C37.8151 26.6509 35.1874 29.3069 34.8325 32.2662C34.8325 32.2662 33.5328 43.0269 33.5276 43.0798C33.5228 43.1293 33.5309 43.1512 33.5733 43.1463C33.6161 43.1414 37.9735 42.6769 38.5762 42.6131C38.6249 42.6076 38.6514 42.5733 38.6595 42.5297C38.6614 42.5035 40.0129 31.2724 40.0129 31.2724C40.3252 29.8282 41.1685 29.4258 41.6549 29.3152L45.2721 28.927C45.3082 28.927 45.3571 28.927 45.4049 28.9707C45.4403 29.0067 45.4522 29.0552 45.4422 29.1107C45.4422 29.1107 43.9028 41.8019 43.9028 41.8973C43.8958 41.9899 43.9369 42.0445 44.0391 42.0326C44.8902 41.9431 48.8822 41.5162 48.9209 41.5151C48.9887 41.5108 49.0146 41.4458 49.0193 41.4089C49.1401 40.4041 50.9488 25.3746 50.9636 25.3278C50.9645 25.2809 50.9275 25.2563 50.8876 25.2596C50.8421 25.2651 40.6845 26.344 40.6845 26.344Z" fill="#1D467D"/>
<path d="M41.147 27.1561L50.4879 26.1656L50.543 25.6738L40.725 26.7155C38.008 27.005 35.5341 29.5118 35.196 32.3113L33.9417 42.7339L34.4224 42.6816L35.622 32.754C35.9558 29.9561 38.4348 27.4445 41.147 27.1561Z" fill="white"/>
<path d="M46.0892 29.154C46.0182 29.0744 45.9156 29.0243 45.8087 29.0073C45.8152 29.0567 45.8161 29.1066 45.8114 29.1562L44.3022 41.6309L44.7847 41.5791L46.232 29.6017C46.2536 29.4304 46.1993 29.2702 46.0892 29.154Z" fill="white"/>
<path d="M6.74391 44.0788L7.6716 36.6028C7.96687 34.1773 9.88231 31.9443 12.1854 31.2213C12.2256 30.8332 12.2383 30.651 12.2383 30.651C9.72928 31.1958 7.56488 33.5732 7.2484 36.1595L6.3234 43.6367C5.07527 43.7642 3.76186 43.7871 3.00635 43.7184C3.16171 43.9049 3.40393 44.136 3.42722 44.1611C4.21708 44.3017 5.50018 44.2031 6.74391 44.0788Z" fill="white"/>
<path d="M8.69633 24.7209L20.5041 23.4664C21.4305 23.3678 22.2639 23.6022 22.8859 24.1267C22.82 24.0387 22.7485 23.9552 22.672 23.8764C22.036 23.2184 21.1156 22.9148 20.0854 23.0238L8.27358 24.2815C2.47671 24.8981 1.80176 30.5581 1.80176 30.5581C1.80176 30.5581 2.04667 30.2326 2.51483 29.7922C3.07273 28.0884 4.61271 25.1554 8.69633 24.7209Z" fill="white"/>
<path d="M12.0915 43.5107C13.2905 43.3826 17.0528 42.9852 17.5545 39.4852C17.5545 39.4852 18.6414 29.6725 18.6728 29.4882C18.8015 28.6035 18.9188 27.7639 18.4438 27.2574C18.3701 27.1809 18.2859 27.1155 18.1938 27.0633C18.4621 27.5769 18.3589 28.2905 18.2533 29.0429C18.22 29.2326 17.1326 39.0441 17.1326 39.0441C16.633 42.5457 12.8729 42.9421 11.6676 43.068L11.3054 43.1003L11.2473 43.5952L12.0915 43.5107Z" fill="white"/>
<path d="M61.5015 36.2701L58.5406 36.5852L59.4012 29.4363C59.4973 28.7985 59.7683 27.9987 60.5091 27.8221L63.4741 27.507L62.6062 34.6498C62.5141 35.292 62.2396 36.093 61.5015 36.2701ZM59.4128 23.5207C56.2374 23.8576 53.3293 26.7922 52.9353 30.0638C52.9353 30.0638 51.546 41.5915 51.5428 41.6422C51.5366 41.6924 51.5558 41.7475 51.6249 41.7382C51.6932 41.7317 62.6024 40.5721 62.6024 40.5721C65.7713 40.233 68.6796 37.2977 69.0761 34.0278C69.0761 34.0278 70.4629 22.5213 70.4715 22.4548C70.4761 22.3829 70.4081 22.3496 70.3515 22.3584C70.2875 22.3627 59.4128 23.5207 59.4128 23.5207Z" fill="#071D3D"/>
<path d="M63.2736 34.6911L63.2628 34.7483C63.039 36.3118 62.2267 36.8183 61.5803 36.9645L57.9862 37.3466C57.9484 37.3515 57.9028 37.3499 57.8542 37.3003C57.8193 37.267 57.8068 37.218 57.8138 37.1607L58.7486 29.4039C58.9776 27.8246 59.7982 27.3241 60.4357 27.1851L60.4845 27.1791L64.0248 26.8007C64.0792 26.7964 64.1257 26.8127 64.1602 26.8449C64.1937 26.8803 64.2078 26.9305 64.2 26.9889L63.2736 34.6911ZM69.647 23.1317C69.6097 23.1361 59.4484 24.2155 59.4484 24.2155C56.5801 24.5214 53.9473 27.1802 53.5974 30.1389C53.5974 30.1389 52.3002 40.8564 52.2965 40.9126C52.2894 40.972 52.3506 41.0167 52.401 41.0113C52.4497 41.008 62.5621 39.9329 62.5621 39.9329C65.4334 39.626 68.0641 36.9704 68.4241 34.0079C68.4241 34.0079 69.7119 23.2429 69.7227 23.1944C69.7281 23.1453 69.6849 23.1263 69.647 23.1317Z" fill="#1D467D"/>
<path d="M64.5691 27.03L63.6313 34.8004C63.3573 36.6856 62.2639 37.1953 61.6354 37.3311L58.021 37.7176C57.9704 37.7228 57.9192 37.7189 57.8699 37.7062C57.8877 37.8185 57.9334 37.9226 58.0111 38.0038C58.1219 38.1194 58.2835 38.1766 58.4484 38.1597L62.0595 37.7754C62.6858 37.6412 63.7768 37.1282 64.052 35.2436L64.99 27.4705C65.0159 27.3059 64.9603 27.1428 64.8443 27.0262C64.7705 26.9487 64.6729 26.8986 64.5661 26.8785C64.5691 26.9291 64.5747 26.9809 64.5691 27.03Z" fill="white"/>
<path d="M59.909 25.0299L69.2461 24.0372L69.3056 23.546L59.4876 24.5867C56.7742 24.8734 54.2964 27.384 53.9618 30.1846L52.7048 40.605L53.1865 40.5532L54.3826 30.6239C54.7181 27.8277 57.2001 25.3167 59.909 25.0299Z" fill="white"/>
<path d="M77.3024 31.9809C76.9325 31.9225 76.5461 31.861 76.1544 31.7989V31.7994C76.1441 32.0376 76.1311 32.2757 76.1153 32.5136C76.1011 32.7382 76.0841 32.9626 76.0644 33.1868C76.0495 33.3586 76.0378 33.5314 76.0198 33.7031C76.418 33.6192 76.8159 33.5385 77.2003 33.4605C77.2454 32.9693 77.2806 32.4759 77.3024 31.9809Z" fill="#071D3D"/>
<path d="M19.3179 21.3188C19.7936 19.8723 20.3805 18.4654 21.0733 17.1111C21.0794 17.0996 21.0853 17.0877 21.0912 17.0762C21.2609 16.7462 21.4364 16.4192 21.6177 16.0955C21.6218 16.0883 21.6259 16.0818 21.6293 16.0747C22.3516 14.7927 23.1683 13.5672 24.0725 12.4084C24.1079 12.3632 24.1425 12.318 24.1779 12.2727C24.3824 12.0141 24.5909 11.7587 24.8034 11.5067C24.8463 11.456 24.8902 11.4059 24.9334 11.3557C25.6129 10.5621 26.3337 9.80542 27.0927 9.08887C27.1256 9.05786 27.1578 9.02613 27.1908 8.99458C27.403 8.79611 27.62 8.60362 27.8379 8.41177C27.9358 8.3251 28.0334 8.23951 28.1321 8.15446C28.3379 7.9779 28.5462 7.80435 28.757 7.63385C28.8719 7.54067 28.988 7.44888 29.1052 7.3585C29.3133 7.19439 29.5217 7.03028 29.7342 6.87271C29.8474 6.78875 29.9636 6.70751 30.0785 6.62573C30.4536 6.3558 30.835 6.09479 31.2222 5.84291C31.3823 5.73819 31.5409 5.63302 31.7029 5.53211C31.8919 5.41433 32.0837 5.30209 32.2754 5.18812C32.6383 4.97228 33.0061 4.7649 33.3785 4.56615C33.5796 4.45906 33.782 4.35454 33.9857 4.25262C34.1614 4.16422 34.3362 4.07373 34.5142 3.98932C34.8029 3.84979 35.0955 3.71887 35.3897 3.58967C35.5686 3.51115 35.7484 3.43426 35.9292 3.35955C36.2275 3.23523 36.5277 3.11583 36.8299 3.00142C36.9894 2.94149 37.1508 2.88582 37.3115 2.82861C37.5663 2.73803 37.8225 2.64973 38.0806 2.56631C38.2469 2.513 38.4129 2.46014 38.5799 2.40937C38.8519 2.3265 39.1254 2.24961 39.4002 2.17445C39.5503 2.13347 39.6993 2.09149 39.8501 2.05278C40.2604 1.94785 40.6729 1.8519 41.0873 1.765C41.1279 1.75629 41.1683 1.74859 41.2092 1.74097C41.6162 1.65881 42.0248 1.58503 42.4348 1.51966C42.5787 1.49726 42.723 1.47876 42.8674 1.45809C43.1722 1.41385 43.4786 1.37404 43.7862 1.34023C43.9448 1.32282 44.1041 1.30595 44.2635 1.29072C44.5771 1.26117 44.8917 1.23832 45.2074 1.21873C45.3501 1.20994 45.492 1.19906 45.6353 1.19307C46.0905 1.17131 46.5482 1.15762 47.0087 1.15762C47.4724 1.15762 47.9328 1.17131 48.3906 1.19307C48.5356 1.1996 48.6793 1.21048 48.8237 1.21982C49.1382 1.23827 49.4523 1.26224 49.766 1.29172C50.2296 1.33648 50.6922 1.39195 51.1533 1.45809C51.3073 1.4804 51.462 1.50107 51.6152 1.52564C51.9589 1.58111 52.3016 1.64271 52.6432 1.71042C52.7413 1.73009 52.8411 1.74641 52.9392 1.76663C53.3717 1.85677 53.8021 1.95711 54.2299 2.06755C54.3483 2.09811 54.4649 2.13184 54.5825 2.16402C54.8928 2.24861 55.2014 2.33529 55.5072 2.42895C55.6611 2.47668 55.8147 2.52576 55.9678 2.57619C56.2377 2.66427 56.5064 2.75606 56.7738 2.85155C56.9301 2.90679 57.0859 2.96364 57.241 3.02209C57.5161 3.12658 57.7896 3.23527 58.0614 3.34813C58.1951 3.4038 58.3308 3.45666 58.4642 3.51396C58.8559 3.68231 59.244 3.85915 59.6281 4.04436C59.7108 4.08416 59.7917 4.1294 59.8738 4.16975C60.1785 4.32135 60.4809 4.47557 60.7794 4.63696C60.9272 4.71711 61.0724 4.80106 61.2183 4.88284C61.4495 5.01333 61.6792 5.14653 61.9074 5.28241C62.0623 5.37591 62.2166 5.4706 62.3702 5.56647C62.5887 5.70328 62.8052 5.84322 63.0197 5.98626C63.1675 6.08445 63.3165 6.18137 63.4622 6.28229C63.7033 6.44911 63.9396 6.62029 64.175 6.7931C64.2866 6.87543 64.4007 6.95394 64.511 7.0379C64.8356 7.284 65.155 7.53702 65.469 7.79678C65.6101 7.91347 65.747 8.03397 65.8861 8.15328C66.0715 8.31249 66.2567 8.47116 66.4377 8.63527C66.5876 8.76936 66.7349 8.90727 66.8814 9.04472C67.0469 9.20054 67.2107 9.3581 67.3729 9.51736C67.52 9.66116 67.6657 9.80639 67.8099 9.95302C67.9696 10.117 68.1257 10.2849 68.2816 10.4523C68.4182 10.599 68.5566 10.7445 68.6903 10.8945C68.9259 11.1584 69.1565 11.4267 69.3823 11.6992C69.5384 11.8897 69.6924 12.082 69.8443 12.276C69.9806 12.4483 70.1173 12.62 70.2492 12.7961C70.3836 12.9738 70.5134 13.1543 70.6436 13.3358C70.7629 13.5011 70.8803 13.6677 70.9957 13.8357C71.1249 14.0232 71.2519 14.2122 71.3767 14.4027C71.4856 14.5698 71.5928 14.7381 71.6981 14.9076C71.8203 15.1032 71.9434 15.2979 72.0609 15.4963C72.162 15.6675 72.2582 15.8414 72.3561 16.0148C72.5658 16.3845 72.7671 16.7589 72.9599 17.1378C73.0478 17.3085 73.1378 17.4785 73.2218 17.653C73.3262 17.8678 73.4246 18.0864 73.5241 18.304C73.6035 18.4784 73.6832 18.6529 73.7596 18.8296C73.8547 19.0507 73.9472 19.2729 74.0372 19.4962C74.1088 19.674 74.1786 19.8525 74.2466 20.0316C74.3332 20.2578 74.4174 20.485 74.4991 20.7131C74.5623 20.8936 74.6214 21.0756 74.6816 21.2577C74.758 21.4888 74.837 21.7184 74.9077 21.9517C75.234 21.73 75.5752 21.5315 75.9288 21.3575C75.6447 20.4519 75.3217 19.5568 74.9518 18.6752C73.424 15.0323 71.2391 11.7618 68.4543 8.95478C65.668 6.1471 62.4259 3.93919 58.815 2.40121C55.0746 0.806562 51.1005 -0.000280182 47.0087 -0.000280182C42.9168 -0.000280182 38.9462 0.806562 35.2059 2.40121C31.5958 3.93919 28.3518 6.1471 25.5665 8.95478C22.7825 11.7618 20.5963 15.0323 19.0679 18.6752C18.6883 19.5828 18.3524 20.5083 18.0615 21.4486C18.5303 21.4 18.9568 21.3564 19.3179 21.3188Z" fill="#071D3D"/>
<path d="M74.7064 39.8232C74.2324 41.268 73.6471 42.6732 72.9561 44.026C72.9475 44.0424 72.9393 44.0589 72.9313 44.0756C72.763 44.4036 72.5886 44.7284 72.4082 45.0498C72.4039 45.0574 72.3993 45.0657 72.3947 45.0733C71.6738 46.3542 70.8587 47.5789 69.9562 48.7369C69.9195 48.7843 69.8822 48.8322 69.8443 48.8798C69.6414 49.1378 69.434 49.3922 69.2223 49.643C69.1788 49.6942 69.1341 49.7455 69.0901 49.7972C68.4167 50.5833 67.7029 51.3332 66.9516 52.0439C66.9108 52.0827 66.8716 52.1225 66.8303 52.1605C66.62 52.3568 66.4051 52.5482 66.1896 52.7384C66.0896 52.8263 65.9902 52.9145 65.8891 53.0007C65.6845 53.1763 65.4774 53.349 65.2679 53.5186C65.1513 53.6131 65.0338 53.7064 64.9152 53.7982C64.7084 53.9608 64.5016 54.1237 64.2901 54.2808C64.1737 54.3674 64.0539 54.4492 63.9366 54.5343C63.5669 54.8001 63.1913 55.0575 62.8102 55.3063C62.6461 55.4126 62.4837 55.5211 62.3171 55.6246C62.1293 55.7404 61.94 55.854 61.7495 55.9654C61.5688 56.0732 61.3867 56.1788 61.2034 56.2821C61.0183 56.3866 60.832 56.489 60.6445 56.5891C60.4421 56.6967 60.2384 56.8018 60.0333 56.9042C59.8586 56.9931 59.6851 57.0819 59.5086 57.167C59.2112 57.3089 58.9112 57.4454 58.6088 57.5763C58.437 57.6519 58.2645 57.7255 58.0911 57.7972C57.7932 57.9204 57.4935 58.0419 57.1902 58.1553C57.0309 58.2148 56.8696 58.2704 56.7095 58.327C56.4544 58.4194 56.1977 58.5072 55.9395 58.5903C55.7739 58.6445 55.6077 58.6966 55.441 58.7468C55.1676 58.8296 54.893 58.9081 54.6172 58.9824C54.4683 59.0233 54.3203 59.0658 54.1702 59.1039C53.7574 59.2097 53.3424 59.3064 52.9254 59.394C52.8837 59.4027 52.8421 59.4092 52.8007 59.4179C52.3968 59.4995 51.9913 59.5725 51.5844 59.6371C51.4403 59.66 51.2954 59.6792 51.1511 59.6993C50.8457 59.7438 50.5396 59.783 50.2329 59.8171C50.0736 59.8344 49.9143 59.8509 49.7549 59.8667C49.4408 59.8954 49.1263 59.9192 48.8115 59.938C48.6688 59.9468 48.526 59.9577 48.3829 59.9648C47.9273 59.9854 47.4699 60.0002 47.0087 60.0002C46.5609 60.0002 46.1157 59.9854 45.6723 59.9658C45.5556 59.9599 45.439 59.9544 45.3226 59.9479C44.9303 59.925 44.54 59.8955 44.1524 59.858C44.0988 59.8525 44.0448 59.8492 43.9916 59.8437C43.5613 59.7984 43.1321 59.7434 42.7043 59.6785C42.5929 59.6617 42.4816 59.6432 42.3702 59.6257C42.0153 59.5685 41.6615 59.5049 41.3089 59.4349C41.2268 59.4179 41.1444 59.4038 41.0627 59.3864C40.6493 59.2999 40.2379 59.2041 39.8287 59.0991C39.725 59.0734 39.6227 59.0446 39.5197 59.0173C39.1875 58.9284 38.8578 58.8335 38.5304 58.7332C38.4328 58.7038 38.3344 58.6748 38.238 58.6444C37.8423 58.5193 37.4495 58.3853 37.0599 58.2425C36.9685 58.2087 36.8788 58.1728 36.788 58.139C36.4728 58.0203 36.1599 57.896 35.8491 57.7661C35.7429 57.7219 35.6362 57.6778 35.531 57.6319C35.1556 57.4704 34.7837 57.3008 34.4154 57.1234C34.3401 57.0868 34.2667 57.0486 34.1916 57.0104C33.8875 56.8606 33.5861 56.705 33.2878 56.5438C33.1774 56.4844 33.0669 56.4255 32.9576 56.3638C32.604 56.1687 32.2545 55.9663 31.9092 55.7566C31.8586 55.7255 31.8094 55.6928 31.7589 55.6616C31.3442 55.4031 30.9356 55.1348 30.5335 54.857C30.2518 54.6626 29.9736 54.4632 29.699 54.2589C29.6398 54.2143 29.5795 54.1733 29.5212 54.1286C29.2065 53.8905 28.8991 53.6445 28.5945 53.3943C28.4874 53.3063 28.3812 53.2173 28.2758 53.1272C28.0409 52.9285 27.8091 52.726 27.5805 52.5198C27.4987 52.4463 27.4155 52.3743 27.3344 52.2991C27.0495 52.0362 26.7699 51.7675 26.4958 51.4932C26.3963 51.3941 26.2991 51.2932 26.2006 51.1924C25.9983 50.985 25.7992 50.7743 25.6035 50.5604C25.5141 50.4629 25.4232 50.3671 25.3351 50.2677C25.0791 49.9824 24.8292 49.6916 24.5855 49.3955C24.4965 49.288 24.4103 49.178 24.323 49.0694C24.1466 48.8495 23.9733 48.6271 23.8032 48.4021C23.7149 48.285 23.6262 48.1699 23.5394 48.0516C23.3135 47.7436 23.0932 47.4313 22.8788 47.115C22.8046 47.0043 22.7336 46.892 22.6612 46.7814C22.5049 46.5434 22.3522 46.3032 22.2029 46.0607C22.1221 45.9292 22.0413 45.7978 21.9629 45.6654C21.7664 45.3359 21.5763 45.0025 21.3926 44.6656C21.106 44.8771 20.7776 45.0777 20.407 45.2669C21.7861 47.8057 23.5121 50.131 25.5665 52.2042C28.3518 55.0124 31.5958 57.2166 35.2058 58.7561C38.9462 60.3507 42.9168 61.1582 47.0087 61.1582C51.1005 61.1582 55.0746 60.3507 58.815 58.7561C62.4258 57.2171 65.668 55.0124 68.4543 52.2042C71.2392 49.3944 73.424 46.1244 74.9517 42.4832C75.337 41.5657 75.6734 40.6328 75.9656 39.6897C75.5514 39.7333 75.1306 39.778 74.7064 39.8232Z" fill="#071D3D"/>
<path d="M29.7122 11.2797L29.5397 11.09C29.4251 10.9662 29.3194 10.8888 29.2215 10.86C29.1218 10.83 29.0375 10.8474 28.9693 10.9096C28.8688 11.006 28.8214 11.0932 28.8285 11.1788C28.8377 11.265 28.8882 11.3604 28.9843 11.4672L30.3199 12.9349C30.3985 13.0205 30.4796 13.0711 30.559 13.0771C30.6393 13.0875 30.7229 13.0504 30.8083 12.9703C30.864 12.9207 30.8972 12.8667 30.9089 12.8057C30.9193 12.7481 30.9138 12.6887 30.8931 12.6339C30.8729 12.5746 30.8436 12.5188 30.8061 12.4688C30.7674 12.417 30.7247 12.3619 30.6745 12.3101L30.4269 12.0375L31.1178 11.3985L31.4498 11.7611C31.6949 12.0298 31.8063 12.3182 31.7866 12.6213C31.766 12.9267 31.5846 13.2385 31.2457 13.552C30.9359 13.8383 30.6393 13.9657 30.3545 13.9363C30.0692 13.9064 29.7841 13.7368 29.4991 13.4261L28.3893 12.2081C28.0946 11.887 27.9549 11.5801 27.9632 11.2863C27.9746 10.993 28.1362 10.6969 28.4509 10.4057C28.7536 10.1228 29.0515 9.97723 29.3386 9.96418C29.6276 9.9533 29.9063 10.0939 30.1747 10.3911L30.403 10.638L29.7122 11.2797Z" fill="#071D3D"/>
<path d="M33.5295 11.5122L31.3994 8.10377L32.1917 7.59949L33.0105 8.90844L33.5619 8.55956L32.7418 7.25105L33.5368 6.74522L35.6655 10.1569L34.8729 10.6579L33.9844 9.24046L33.4352 9.58835L34.3226 11.0079L33.5295 11.5122Z" fill="#071D3D"/>
<path d="M37.1649 5.83148L37.1552 5.83583L37.5632 7.61525L38.07 7.41134L37.1649 5.83148ZM37.0374 9.43457L36.3716 5.36427L37.4215 4.94503L39.7072 8.36325L38.8247 8.71549L38.4143 8.0383L37.7307 8.31257L37.9142 9.08233L37.0374 9.43457Z" fill="#071D3D"/>
<path d="M41.5692 5.56246L41.561 5.57443L42.0758 7.76112L41.204 7.93457L40.4314 3.98087L41.3766 3.79391L42.5185 5.8612L42.5358 5.85903L42.0154 3.66689L42.8856 3.49245L43.6592 7.44606L42.7182 7.63419L41.5692 5.56246Z" fill="#071D3D"/>
<path d="M47.2494 7.24867L47.2059 6.89208H47.1934C47.098 7.06053 46.9928 7.17885 46.8748 7.24695C46.7569 7.31404 46.5942 7.34786 46.3894 7.35058C46.1989 7.35112 46.0336 7.32501 45.8979 7.26336C45.7672 7.20548 45.6537 7.11416 45.5687 6.99843C45.483 6.88283 45.4224 6.74982 45.3829 6.59551C45.3464 6.43956 45.3275 6.27119 45.3245 6.07871L45.3051 4.42513C45.301 3.98793 45.3972 3.66525 45.6 3.452C45.8024 3.24002 46.1177 3.13204 46.5476 3.1266C46.9605 3.11998 47.2757 3.21219 47.4973 3.39642C47.7182 3.58184 47.8301 3.87614 47.8363 4.27689L47.8394 4.57727L46.8999 4.58923L46.8966 4.36628C46.8966 4.18259 46.8748 4.04895 46.8351 3.96889C46.7944 3.89364 46.7164 3.85492 46.5994 3.85003C46.4604 3.85492 46.3652 3.8882 46.3152 3.95629C46.2657 4.02447 46.2398 4.13182 46.2434 4.27471L46.2657 6.26729C46.2671 6.38561 46.296 6.47338 46.3514 6.53394C46.4109 6.59605 46.4983 6.62606 46.6152 6.62388C46.6896 6.62162 46.7496 6.60747 46.7977 6.57864C46.8422 6.54972 46.8748 6.50992 46.8966 6.46631C46.9159 6.41608 46.9302 6.36485 46.9345 6.31099C46.9383 6.25369 46.9407 6.18551 46.9407 6.10319L46.9377 5.7854L46.6015 5.79029L46.5909 5.06469L47.865 5.05055L47.8898 7.2416L47.2494 7.24867Z" fill="#071D3D"/>
<path d="M52.4858 6.67141L52.4983 6.67413L53.3275 3.96193L54.1979 4.13474L52.7748 7.95752L51.7392 7.75035L51.9998 4.91375L51.9903 4.91058L51.1423 7.63366L50.124 7.43029L50.2361 3.34803L51.1261 3.52365L50.8604 6.35635L50.8729 6.34547L51.7843 3.65285L52.6725 3.83001L52.4858 6.67141Z" fill="#071D3D"/>
<path d="M57.4774 6.63143C57.5085 6.56008 57.5342 6.49625 57.5496 6.43786C57.5654 6.38372 57.5733 6.32755 57.5729 6.27112C57.5729 6.21599 57.5596 6.16477 57.5316 6.11572C57.5015 6.0693 57.4551 6.03394 57.3853 6.00338C57.3196 5.97346 57.2617 5.96684 57.205 5.97781C57.1501 5.99087 57.1042 6.01326 57.0639 6.05298C57.0226 6.09461 56.9865 6.1411 56.9563 6.19142C56.9222 6.24852 56.8917 6.30772 56.865 6.36868L56.2216 7.89079C56.1962 7.95165 56.1736 8.01367 56.154 8.07666C56.1386 8.13827 56.1295 8.20131 56.1269 8.26479C56.1269 8.3269 56.141 8.38202 56.1697 8.43434C56.1983 8.48665 56.2454 8.52537 56.3083 8.55374C56.3748 8.58094 56.4359 8.58856 56.4925 8.57496C56.5478 8.56095 56.5975 8.53012 56.6349 8.48665C56.6761 8.44216 56.712 8.39296 56.7419 8.34004C56.7727 8.28555 56.803 8.2239 56.833 8.15463L57.4774 6.63143ZM57.7261 8.45229C57.5418 8.88631 57.318 9.1681 57.0547 9.29739C56.7913 9.4304 56.4487 9.40248 56.0261 9.22105C55.6042 9.03618 55.3428 8.80344 55.2525 8.51775C55.1623 8.23369 55.2077 7.87438 55.3898 7.44326L56.028 5.93855C56.1789 5.58087 56.3981 5.35412 56.683 5.25049C56.9679 5.14577 57.2963 5.17523 57.6726 5.33934C58.0491 5.49909 58.2968 5.71878 58.4128 5.99685C58.5315 6.27266 58.5152 6.58945 58.366 6.94604L57.7261 8.45229Z" fill="#071D3D"/>
<path d="M60.6572 9.03891L60.6429 9.04163L59.4797 10.9574L58.7383 10.4624L60.9538 7.10898L61.7553 7.646L61.1213 9.92481L61.1338 9.93524L62.2967 8.01075L63.038 8.50951L60.8216 11.8618L60.0247 11.3238L60.6572 9.03891Z" fill="#071D3D"/>
<path d="M27.0733 13.5386L27.3957 14.4818L28.2218 13.9366L27.8675 14.8662L28.8491 14.9845L27.9829 15.4675L28.6603 16.1936L27.6901 16.0029L27.7445 16.9984L27.1228 16.222L26.53 17.019L26.5492 16.022L25.5871 16.2525L26.2354 15.4997L25.3525 15.0488L26.33 14.894L25.9415 13.9786L26.7887 14.4927L27.0733 13.5386Z" fill="#071D3D"/>
<path d="M64.3159 10.5917L64.6365 11.5348L65.4644 10.9903L65.1095 11.9193L66.0908 12.0375L65.2253 12.5217L65.9022 13.2467L64.9312 13.0565L64.9869 14.0514L64.3641 13.2751L63.7732 14.0732L63.791 13.0772L62.8295 13.3051L63.4775 12.5527L62.5962 12.103L63.5733 11.9459L63.1833 11.0311L64.0289 11.5457L64.3159 10.5917Z" fill="#071D3D"/>
<path d="M33.7432 52.2227L34.6106 51.7387L33.6267 51.6192L33.9824 50.6891L33.1563 51.2365L32.8358 50.2944L32.5486 51.2452L31.7023 50.7317L32.0918 51.6492L31.115 51.8051L31.9961 52.2537L31.3479 53.0066L32.3097 52.7782L32.2918 53.7754L32.8828 52.9767L33.5053 53.7519L33.4507 52.757L34.4211 52.9472L33.7432 52.2227Z" fill="#071D3D"/>
<path d="M65.6287 48.3L65.9865 47.3721L65.1573 47.9173L64.8351 46.9741L64.5502 47.9282L63.7052 47.4119L64.0939 48.33L63.1167 48.4865L63.9972 48.9351L63.3484 49.6853L64.3102 49.4579L64.2932 50.4546L64.8853 49.657L65.5066 50.4322L65.4525 49.4367L66.4218 49.6281L65.7456 48.9018L66.6113 48.4189L65.6287 48.3Z" fill="#071D3D"/>
<path d="M36.6611 51.7835L38.7826 52.6977L38.4574 53.4659L37.2686 52.9546L37.0075 53.5711L38.1212 54.0509L37.8081 54.7891L36.6944 54.3093L36.3909 55.0279L37.6242 55.5594L37.2991 56.3281L35.1326 55.3942L36.6611 51.7835Z" fill="#071D3D"/>
<path d="M41.166 54.569L41.1884 54.4774C41.2441 54.2539 41.2003 54.0445 41.0101 53.996C40.7981 53.9426 40.6618 54.0843 40.6194 54.255C40.4329 55.0079 42.1331 55.0455 41.7874 56.439C41.5858 57.2508 41.0246 57.494 40.1565 57.2753C39.3416 57.0692 38.9564 56.6718 39.1523 55.8813L39.1857 55.7483L40.1382 55.9887L40.1158 56.0786C40.035 56.4047 40.1382 56.5562 40.3287 56.6041C40.5299 56.6548 40.6861 56.524 40.7377 56.3157C40.9246 55.5628 39.2859 55.5465 39.6214 54.1961C39.8122 53.4275 40.3245 53.108 41.1554 53.3178C42.0131 53.5348 42.2897 53.984 42.0869 54.8012L41.166 54.569Z" fill="#071D3D"/>
<path d="M44.0761 54.8189L43.3157 54.7474L43.3952 53.8822L45.9264 54.1178L45.8475 54.9835L45.0865 54.9126L44.8073 57.9585L43.7966 57.8647L44.0761 54.8189Z" fill="#071D3D"/>
<path d="M46.5715 56.9459L47.4886 56.9307L47.5065 58.0205L46.5893 58.0352L46.5715 56.9459Z" fill="#071D3D"/>
<path d="M49.9841 55.2897C49.9185 54.894 49.9091 54.5663 50.0513 54.3052C50.1935 54.0445 50.4808 53.8581 50.9969 53.7644C51.9945 53.5828 52.3038 54.013 52.4065 54.5864C52.4996 55.106 52.3712 55.4702 52.1381 55.8088L51.651 56.4951C51.5804 56.5976 51.4775 56.7334 51.4604 56.8538L52.7698 56.6156L52.9055 57.374L50.4043 57.8281C50.31 57.2982 50.357 56.7863 50.7108 56.2586L51.2545 55.4549C51.4126 55.2254 51.4624 55.0656 51.4101 54.7789C51.352 54.4545 51.232 54.37 51.0766 54.3984C50.9371 54.4235 50.8109 54.5243 50.8883 54.9577L50.9177 55.1196L49.9841 55.2897Z" fill="#071D3D"/>
<path d="M55.1262 55.4035C55.3083 55.928 55.4391 56.0386 55.6398 55.9678C55.8414 55.8975 55.8744 55.7279 55.6925 55.2034L55.2705 53.9888C55.0886 53.4643 54.9575 53.3532 54.757 53.424C54.5559 53.4949 54.5222 53.6639 54.7042 54.1884L55.1262 55.4035ZM54.548 52.8216C55.4019 52.5196 55.923 52.7731 56.4391 54.2576C56.9546 55.7431 56.704 56.2686 55.849 56.5708C54.9948 56.8722 54.4736 56.6187 53.9579 55.1342C53.4422 53.6492 53.6932 53.1236 54.548 52.8216Z" fill="#071D3D"/>
<path d="M59.3614 54.9604L58.1131 52.626L57.4698 52.9766L57.1694 52.4139C57.7145 52.1113 57.8856 51.8747 57.778 51.3955L58.4213 51.0461L60.2551 54.4752L59.3614 54.9604Z" fill="#071D3D"/>
<path d="M62.5039 53.0327L60.9558 50.8891L60.3652 51.323L59.9924 50.8073C60.492 50.4338 60.6301 50.1754 60.4599 49.7159L61.0505 49.2814L63.3249 52.4298L62.5039 53.0327Z" fill="#071D3D"/>
<path d="M66.5729 39.5745C66.3156 39.7769 66.0472 39.9646 65.7691 40.1367C64.9189 41.8296 63.8475 43.4001 62.5836 44.806C62.3514 45.0641 62.1132 45.3168 61.8693 45.5638C61.652 45.7811 61.4305 45.9939 61.2048 46.2023C61.1829 46.2229 61.1621 46.2437 61.1399 46.2638C61.0702 46.3287 60.9962 46.3881 60.9253 46.4514C57.2188 49.7584 52.3488 51.7696 47.0112 51.7696H47.0107C41.2059 51.7696 35.9557 49.3974 32.1505 45.5638C31.8863 45.2972 31.6317 45.022 31.3822 44.7417C31.3671 44.7657 31.3476 44.7821 31.3187 44.7848C31.2273 44.794 31.0511 44.8137 30.8154 44.8376C30.8157 44.8387 30.8168 44.8399 30.8173 44.8409C32.5368 46.8243 34.6082 48.4899 36.9334 49.7377C36.962 49.7524 36.9915 49.7671 37.0202 49.7819C37.3116 49.9368 37.6065 50.0849 37.9047 50.2261C37.9749 50.2594 38.0465 50.29 38.1168 50.3222C38.3761 50.4417 38.6378 50.5561 38.9018 50.6651C38.9986 50.7049 39.0964 50.7425 39.1938 50.7812C39.4363 50.8768 39.6805 50.9681 39.9263 51.0548C40.0406 51.0952 40.1556 51.1339 40.271 51.1726C40.5048 51.2501 40.7399 51.3235 40.9763 51.3928C41.1036 51.4305 41.2309 51.4681 41.3595 51.5029C41.5881 51.5656 41.8188 51.6235 42.0501 51.6785C42.1872 51.7113 42.3235 51.744 42.461 51.7739C42.6897 51.824 42.9206 51.8677 43.1517 51.9102C43.2933 51.9358 43.4344 51.9637 43.5768 51.9865C43.8126 52.0241 44.0499 52.0552 44.2878 52.0853C44.4281 52.1037 44.567 52.1244 44.7076 52.1397C44.9647 52.167 45.2244 52.1866 45.4839 52.204C45.6072 52.2134 45.7288 52.2259 45.8526 52.233C46.236 52.2536 46.622 52.2651 47.0104 52.2651C47.3421 52.2651 47.6712 52.2543 47.9995 52.2395C48.0919 52.2357 48.1838 52.2302 48.2757 52.2248C48.5353 52.209 48.7937 52.1893 49.0502 52.1649C49.125 52.1582 49.2002 52.1528 49.2746 52.1446C49.5938 52.1108 49.9112 52.0699 50.2261 52.0225C50.2981 52.0115 50.3698 51.9985 50.4417 51.9871C50.6931 51.9463 50.9429 51.9009 51.191 51.8524C51.2829 51.8334 51.374 51.8153 51.4652 51.7963C51.7544 51.7354 52.0423 51.6685 52.3288 51.5957C52.351 51.5902 52.3737 51.5853 52.3956 51.5788C52.6984 51.5008 52.997 51.4131 53.2948 51.3219C53.6113 51.2233 53.9257 51.1181 54.2378 51.0063C54.318 50.9769 54.3989 50.9496 54.4782 50.9196C54.7628 50.8138 55.0449 50.7015 55.3244 50.5827C55.3979 50.5527 55.4699 50.5189 55.5431 50.4873C55.7574 50.3936 55.9703 50.2966 56.1816 50.1962C56.2748 50.1515 56.3681 50.1068 56.4605 50.0616C56.6888 49.9487 56.915 49.8316 57.139 49.7104C57.1882 49.6842 57.2383 49.6597 57.2869 49.633C57.5453 49.4903 57.8007 49.3422 58.053 49.1887C58.1449 49.1331 58.2357 49.0758 58.3265 49.0197C58.5051 48.9073 58.6822 48.7927 58.8579 48.6757C58.9444 48.6173 59.0315 48.5618 59.1166 48.5029C59.3544 48.3395 59.589 48.1713 59.8202 47.9986C59.8986 47.9402 59.9748 47.8786 60.0522 47.8187C60.2172 47.6917 60.3803 47.5623 60.5415 47.4305C60.6346 47.3553 60.7273 47.2789 60.8193 47.2004C60.9826 47.0621 61.1437 46.9212 61.3027 46.7779C61.3796 46.7093 61.458 46.6411 61.534 46.5708C61.7315 46.3879 61.9254 46.2013 62.1157 46.0109C62.2041 45.9231 62.2909 45.8337 62.378 45.7443C62.5067 45.6111 62.634 45.4766 62.7599 45.3408C62.8439 45.2482 62.9294 45.1577 63.0123 45.0645C63.1965 44.8579 63.3773 44.6474 63.5536 44.4336C63.6278 44.3438 63.699 44.2521 63.7717 44.1606C63.8884 44.0147 64.0032 43.8673 64.1161 43.7184C64.1978 43.6103 64.2785 43.5015 64.3583 43.3919C64.468 43.2403 64.5759 43.0875 64.6821 42.9334C64.7616 42.8178 64.8413 42.7032 64.9187 42.5861C65.0571 42.3763 65.1921 42.1642 65.3235 41.9499C65.3944 41.8332 65.4633 41.7149 65.5325 41.5972C65.6196 41.4484 65.7051 41.2986 65.789 41.148C65.8555 41.0275 65.9226 40.9075 65.9866 40.7865C66.1086 40.5565 66.2265 40.3244 66.3402 40.0902C66.3469 40.0761 66.3543 40.0624 66.3613 40.0478C66.4267 39.8878 66.4973 39.7299 66.5729 39.5745Z" fill="#071D3D"/>
<path d="M26.5367 25.8144C27.4336 21.8765 29.4115 18.3564 32.15 15.594C34.0525 13.6755 36.3169 12.1251 38.8308 11.0532C41.345 9.98025 44.1092 9.38711 47.0107 9.38711C55.6105 9.38711 62.9992 14.5995 66.2511 22.0598C66.4247 22.0412 66.5971 22.0232 66.7673 22.0052C66.5933 21.598 66.4054 21.1995 66.2084 20.8058C66.1532 20.6973 66.0989 20.5883 66.0427 20.4804C65.9592 20.3208 65.8737 20.1623 65.7861 20.005C65.7269 19.8983 65.6665 19.7924 65.605 19.6871C65.408 19.3454 65.2021 19.0091 64.9874 18.6785C64.9641 18.6425 64.9414 18.6049 64.9174 18.569C64.8211 18.4223 64.7203 18.2795 64.62 18.135C64.547 18.0292 64.473 17.9242 64.3979 17.8199C64.297 17.6805 64.1947 17.5422 64.0908 17.405C64.0096 17.2987 63.9273 17.1933 63.8437 17.0889C63.6997 16.9054 63.5526 16.7243 63.4025 16.5458C63.2755 16.3954 63.1482 16.2443 63.0174 16.0972C62.9109 15.9788 62.8024 15.8627 62.6937 15.7461C62.5941 15.6385 62.4934 15.532 62.3916 15.4266C62.2821 15.3133 62.1713 15.2011 62.0594 15.0902C61.9464 14.9789 61.8321 14.8692 61.7163 14.7609C61.6072 14.6568 61.4987 14.5527 61.3874 14.4513C61.1895 14.2723 60.9886 14.0967 60.7848 13.9246C60.6775 13.8352 60.5687 13.748 60.4605 13.6602C60.328 13.5531 60.1944 13.4473 60.0598 13.3429C59.949 13.2573 59.8385 13.1733 59.726 13.0899C59.5712 12.9753 59.4146 12.863 59.2565 12.753C59.1641 12.6882 59.0734 12.6222 58.98 12.5584C58.7425 12.3981 58.5018 12.2424 58.2581 12.0917C58.1558 12.0286 58.0517 11.968 57.9481 11.9058C57.7812 11.8058 57.6129 11.7082 57.4432 11.6131C57.3363 11.5528 57.229 11.4934 57.1212 11.4348C56.9189 11.3265 56.715 11.2213 56.5096 11.1191C56.4376 11.0832 56.3676 11.0461 56.2954 11.0112C56.0254 10.8809 55.7528 10.7564 55.4776 10.6378C55.3805 10.5963 55.2824 10.5565 55.185 10.5156C54.9854 10.4331 54.7847 10.3535 54.5828 10.2769C54.4812 10.2382 54.38 10.1995 54.2776 10.1624C54.027 10.0716 53.7747 9.98566 53.521 9.90454C53.475 9.88976 53.4291 9.87344 53.3834 9.85821C53.0849 9.76595 52.7845 9.68013 52.4824 9.60081C52.3889 9.57578 52.2949 9.55348 52.2004 9.53C51.9753 9.47333 51.7491 9.42047 51.5209 9.37133C51.4228 9.35011 51.3255 9.32935 51.2271 9.30922C50.9336 9.25029 50.6383 9.19634 50.341 9.15001C50.3188 9.1462 50.2977 9.14185 50.2756 9.13859C49.9575 9.08945 49.636 9.05028 49.3133 9.01537C49.2179 9.00449 49.1225 8.99742 49.0273 8.98754C48.7853 8.96469 48.5424 8.9461 48.2977 8.9325C48.2004 8.92588 48.1025 8.91999 48.0049 8.915C47.6749 8.90032 47.3435 8.89052 47.0099 8.89052C35.1333 8.8927 25.5049 18.5996 25.5049 30.5775C25.5049 30.788 25.5147 30.9957 25.5206 31.2046C25.6579 30.8643 25.8258 30.5346 26.0077 30.2117C26.0339 28.7026 26.2139 27.2313 26.5367 25.8144Z" fill="#071D3D"/>
<path d="M49.3456 16.611L53.2347 16.1822C53.3344 16.1711 53.4253 16.079 53.4377 15.9763L53.7074 13.7422C53.7197 13.6395 53.6491 13.5652 53.5493 13.5761L48.4623 14.1371C48.3833 14.1459 48.3037 14.1876 48.2422 14.2525L46.6365 15.9461L45.4021 14.5657C45.3547 14.5127 45.2832 14.4878 45.2043 14.4964L40.4975 15.0155C40.4184 15.0242 40.3386 15.066 40.2771 15.1312L38.7618 16.7335C38.7043 16.7944 38.6671 16.8707 38.6578 16.9468L37.9011 23.2146C37.8887 23.3174 37.9594 23.3918 38.0592 23.3807L40.2277 23.1416C40.3274 23.1306 40.4184 23.0385 40.4308 22.9357L41.043 17.8647C41.0635 17.6952 41.2133 17.5432 41.3779 17.525L43.6881 17.2703C43.8526 17.2521 43.9694 17.3748 43.9489 17.5443L43.3366 22.6152C43.3242 22.718 43.3949 22.7923 43.4947 22.7813L45.6632 22.5422C45.7629 22.5312 45.8538 22.439 45.8662 22.3363L46.04 20.8965L47.2737 22.2737C47.321 22.3266 47.3925 22.3515 47.4714 22.3428L52.5586 21.7818C52.6583 21.7709 52.7492 21.6787 52.7616 21.5759L53.0313 19.3419C53.0437 19.2392 52.973 19.1648 52.8732 19.1758L48.9842 19.6047C48.8197 19.6228 48.7029 19.5001 48.7234 19.3307L49.0107 16.9508C49.0312 16.7812 49.1812 16.6292 49.3456 16.611Z" fill="#071D3D"/>
</g>
</g>
<defs>
<clipPath id="clip0_3029_2969">
<rect width="90" height="61.2" fill="white"/>
</clipPath>
</defs>
</svg>
