<svg width="89" height="66" viewBox="0 0 89 66" fill="none" xmlns="http://www.w3.org/2000/svg">
<g clip-path="url(#clip0_3029_2956)">
<path d="M19.7414 0V14.3818L0 14.3661L5.27945 21.3956L9.51427 21.1785L9.51015 36.2792L19.7414 33.822V48.3688L44.0872 65.7001L68.4481 48.3612V33.8497L79.0475 36.7272C82.2625 36.8064 83.09 35.0132 83.3023 33.8144C83.4049 33.221 83.4685 32.5847 83.4911 32.0685C83.5135 31.7025 83.5183 31.3389 83.5186 30.9812C83.519 30.491 83.5179 29.8458 83.5165 29.2027C83.5141 27.9164 83.5097 26.6391 83.5097 26.6384V26.6377C83.508 25.9116 83.4372 25.0805 82.9911 24.2614C82.6804 23.692 82.2044 23.2132 81.6405 22.8379L88.1999 14.3925L68.4484 14.3914V0H19.7414Z" fill="white"/>
<path d="M44.0904 58.5655L21.5197 45.7632V47.4576L44.0904 63.5137L66.6604 47.4576V45.7632L44.0904 58.5655Z" fill="#06141F"/>
<path d="M40.1368 48.5038H48.0484L49.9485 52.4703L66.6608 43.8722V34.1295C51.7893 30.882 36.3909 30.8826 21.5197 34.1312V43.8725L38.2313 52.4706L40.1368 48.5038Z" fill="#06141F"/>
<path d="M38.1349 16.1924H26.9977C27.1718 16.2699 28.5887 16.7587 28.5887 18.1818L28.5797 27.8463C28.5581 29.2262 29.5766 29.8896 31.544 29.6882C34.7333 29.3721 37.9337 29.1802 41.1379 29.113V22.1394C39.0356 22.1596 37.2286 22.2046 35.128 22.2766V24.6193C35.8083 24.5878 36.1713 24.5617 36.8533 24.5353V26.9603C35.6627 27.0138 34.6597 27.0838 33.4656 27.1658C33.1535 27.1864 33.0103 27.0835 33.0103 26.8365V18.8671C33.0103 18.6589 33.16 18.5547 33.467 18.5509C34.4461 18.5348 35.3303 18.5224 36.309 18.5118C36.6146 18.5094 36.7393 18.6195 36.7393 18.8538V20.2491C38.2135 20.2227 39.6936 20.2035 41.1664 20.1935L41.1736 18.2384C41.176 16.9597 40.0782 16.1924 38.1356 16.1924" fill="#EA0029"/>
<path d="M63.8556 19.2074V22.6158C63.8556 22.8683 63.7137 23.0147 63.4085 22.9914C62.2965 22.9084 61.4075 22.8319 60.2911 22.7589V18.6781C61.4057 18.7056 62.2828 18.7371 63.3954 18.7649C63.7031 18.7766 63.8556 18.9121 63.8556 19.2074ZM68.2854 23.7021V18.6263C68.2559 17.1017 66.9987 16.1938 65.0558 16.1924H54.2729C54.4615 16.2713 55.9196 16.7412 55.9196 18.13L55.924 29.6855C57.3543 29.8234 58.867 29.9911 60.2911 30.1787V25.1434C61.0074 25.2031 61.766 25.2683 62.4823 25.3379C63.2422 27.125 63.8082 28.8932 64.5664 30.7759C66.0029 31.0194 67.5674 31.3494 68.9963 31.6444C68.2207 29.6597 67.4232 27.6836 66.6038 25.7166C67.6944 25.5149 68.303 24.7891 68.2854 23.7021Z" fill="#EA0029"/>
<path d="M6.2102 19.5377C7.94266 19.4423 9.59133 19.3508 11.3289 19.2691V33.4284C12.7551 33.0421 14.3179 32.6806 15.7554 32.3427V19.0719C16.7949 19.0283 18.0071 18.9872 19.0445 18.9505V16.1927H3.65564C4.4857 17.3238 5.33738 18.4392 6.2102 19.5377ZM80.1143 24.0465C78.7853 23.4514 75.7359 22.0663 74.795 21.63C74.4502 21.4681 74.3221 21.192 74.3221 21.003V19.6097C74.3177 19.3141 74.4705 19.1693 74.7737 19.1844C77.0357 19.2866 79.6809 19.4005 81.9339 19.5257L84.5218 16.1927H68.3284C68.5513 16.3128 70.0059 16.8118 70.0059 18.4521C70.0059 18.4521 70.0179 20.2117 70.0179 21.1498C70.0179 22.0907 70.5042 22.847 71.6807 23.3845C72.8537 23.9216 76.672 25.5578 76.9636 25.7159C77.3447 25.9176 77.4086 26.1155 77.4086 26.676V30.1352C77.4103 30.6051 77.071 30.5293 76.9605 30.5042C76.1844 30.3286 75.5402 30.1973 74.76 30.0326C74.6494 30.0093 74.3719 29.9342 74.3668 29.4879V27.1994C72.9518 26.9639 71.534 26.7459 70.1137 26.5453V29.1809C70.1412 30.8733 71.3661 32.1304 73.3053 32.613C75.1274 33.0583 76.8787 33.5433 78.6802 34.0725C80.5978 34.6522 81.7142 33.8612 81.7104 31.8087C81.7241 31.7572 81.707 26.6437 81.707 26.6437C81.7035 25.4501 81.4429 24.6464 80.1139 24.0465M21.3449 18.344V31.1614C22.8099 30.8936 24.2992 30.6469 25.7741 30.4288V16.1924H19.7622C20.1612 16.309 21.3453 16.9696 21.3453 18.3444M41.6327 16.1924C41.8532 16.2932 43.3161 16.757 43.3161 18.0453C43.3123 21.7274 43.3123 25.4075 43.3099 29.0873C46.7628 29.0701 50.157 29.2012 53.5992 29.4704V27.1154C51.6064 26.9838 49.611 26.8944 47.6144 26.8471V23.8911C49.3932 23.9264 51.1662 23.9659 52.9423 24.0427V21.6197C51.1668 21.5646 49.3907 21.5268 47.6144 21.5062C47.6192 18.5677 47.6144 18.5677 47.6144 18.4936C49.601 18.5077 51.4646 18.5258 53.4495 18.5533V16.1927L41.6327 16.1924Z" fill="#EA0029"/>
<path d="M29.2747 38.7995C29.4172 38.7809 29.5185 38.7329 29.5779 38.6554C29.6363 38.5799 29.6655 38.4815 29.6655 38.3632C29.6655 38.228 29.6322 38.132 29.5594 38.0819C29.4907 38.0332 29.3959 38.015 29.2743 38.0294C29.0711 38.0579 28.8667 38.0857 28.6617 38.1135V38.8801C28.8667 38.8526 29.0711 38.8259 29.2747 38.7995ZM29.1957 37.5859C29.3375 37.5664 29.4388 37.5194 29.4972 37.4453C29.5573 37.3722 29.5872 37.2782 29.5872 37.1627C29.5851 37.0272 29.5532 36.9352 29.4859 36.8872C29.4182 36.8392 29.3217 36.8241 29.1957 36.8409C29.0175 36.8635 28.8395 36.8875 28.6617 36.9129V37.6583C28.8423 37.6343 29.0171 37.6082 29.1957 37.5859ZM29.207 36.3844C29.3753 36.3617 29.5144 36.359 29.6322 36.3768C29.7503 36.395 29.8423 36.4327 29.9189 36.4904C29.991 36.5507 30.0477 36.6286 30.0782 36.7274C30.1098 36.8258 30.1277 36.9469 30.1277 37.091C30.1277 37.2172 30.1074 37.33 30.0714 37.4257C30.0336 37.5194 29.9752 37.602 29.899 37.6775C29.9948 37.7163 30.0714 37.7828 30.1256 37.8775C30.1792 37.9721 30.2063 38.1114 30.2063 38.2956C30.2063 38.45 30.1864 38.5803 30.1411 38.6925C30.101 38.7997 30.0367 38.8963 29.9532 38.9747C29.8653 39.0554 29.7624 39.1181 29.6504 39.1593C29.5215 39.2082 29.3872 39.2415 29.2503 39.2584C28.8801 39.3064 28.5099 39.3579 28.1394 39.4083V36.5305C28.4938 36.4808 28.8513 36.4317 29.207 36.3844ZM31.5532 37.8295C31.7843 37.8037 32.0195 37.7773 32.2509 37.7523C32.1359 37.3956 32.0219 37.0385 31.9048 36.6818C31.7887 37.0632 31.6665 37.4456 31.5532 37.8295ZM32.4003 38.1934C32.0686 38.2277 31.7358 38.264 31.4065 38.3018C31.3327 38.5398 31.2606 38.7779 31.1891 39.0176C31.0027 39.0392 30.819 39.0615 30.6346 39.0828C30.9443 38.0857 31.2582 37.091 31.5665 36.0956C31.7908 36.0709 32.0178 36.0472 32.2413 36.0229L33.1713 38.808C32.9869 38.8259 32.8031 38.8441 32.6194 38.8646C32.5432 38.6396 32.4731 38.4163 32.4003 38.1934ZM35.4199 36.2684C35.2753 36.242 35.1289 36.2269 34.982 36.2235C34.8447 36.2177 34.7176 36.2235 34.5974 36.2304C34.5328 36.2364 34.4686 36.246 34.4051 36.2592C34.3426 36.2695 34.2911 36.2904 34.2434 36.3199C34.198 36.3451 34.1601 36.3818 34.1335 36.4262C34.1036 36.4715 34.0912 36.5291 34.0912 36.6008C34.0871 36.656 34.0978 36.7113 34.1221 36.761C34.1431 36.8034 34.1772 36.8379 34.2193 36.8594C34.266 36.8872 34.3241 36.9078 34.3986 36.9239C34.47 36.9411 34.56 36.9562 34.6647 36.974C34.8113 37.0001 34.9394 37.0296 35.051 37.0625C35.1654 37.0941 35.2585 37.1404 35.3343 37.198C35.4085 37.256 35.4666 37.3266 35.5067 37.4113C35.5445 37.4981 35.5675 37.6038 35.5675 37.7296C35.5675 38.0332 35.4738 38.264 35.2873 38.428C35.1032 38.592 34.8443 38.6825 34.5184 38.7062C34.3759 38.7141 34.2248 38.7141 34.0644 38.7031C33.9067 38.6936 33.7498 38.673 33.595 38.6413V38.2174C33.7715 38.2369 33.934 38.2483 34.0823 38.2531C34.2276 38.262 34.3708 38.2589 34.515 38.2476C34.6901 38.2321 34.8206 38.1872 34.8989 38.1155C34.982 38.0435 35.0201 37.9313 35.0201 37.7814C35.0213 37.734 35.0088 37.6871 34.9841 37.6466C34.9594 37.606 34.9235 37.5734 34.8807 37.5527C34.8255 37.5255 34.7666 37.5065 34.7059 37.4964C34.6372 37.482 34.5486 37.4669 34.4563 37.4525C34.3243 37.433 34.194 37.403 34.0669 37.3626C33.9629 37.3307 33.8654 37.2805 33.7791 37.2144C33.7023 37.1543 33.6414 37.0763 33.6015 36.9874C33.5591 36.8813 33.5381 36.7679 33.5397 36.6536C33.5397 36.4067 33.6201 36.2057 33.7839 36.0517C33.9453 35.8973 34.2008 35.8074 34.56 35.7759C34.8482 35.7516 35.1386 35.7736 35.4199 35.8411V36.2684ZM36.1729 35.6792C36.822 35.6339 37.473 35.5948 38.1235 35.5581C38.1217 35.7117 38.1217 35.8647 38.1235 36.0174C37.6568 36.0431 37.1877 36.0695 36.7213 36.1007V36.8368C37.1722 36.809 37.6231 36.7819 38.0747 36.7576C38.0163 36.9136 37.9548 37.0707 37.8951 37.2265C37.505 37.2491 37.1121 37.2704 36.7213 37.2975V38.0606C37.1877 38.0298 37.6568 38.0034 38.1235 37.979C38.1217 38.131 38.1217 38.2853 38.1235 38.4386C37.473 38.4712 36.822 38.5124 36.1729 38.558V35.6792ZM39.9146 37.9022C40.0585 37.8987 40.1591 37.8586 40.2168 37.789C40.2766 37.7163 40.3075 37.6243 40.3075 37.5039C40.3075 37.3667 40.2738 37.2693 40.201 37.212C40.1324 37.1572 40.0335 37.1297 39.9146 37.1352C39.7079 37.1431 39.5039 37.1506 39.2969 37.1575V37.9258C39.5039 37.9183 39.7076 37.9097 39.9146 37.9022ZM39.8332 36.6821C39.9771 36.6766 40.0781 36.6392 40.1389 36.5693C40.1966 36.5034 40.2264 36.4094 40.2264 36.2955C40.2264 36.1618 40.1955 36.0657 40.1251 36.0122C40.0585 35.9566 39.962 35.9323 39.8332 35.9364C39.6543 35.9433 39.4771 35.9498 39.2969 35.958V36.7023C39.4771 36.6951 39.654 36.6872 39.8332 36.6821ZM39.8477 35.4795C40.0132 35.474 40.1547 35.4871 40.2738 35.5149C40.3902 35.5423 40.4891 35.5917 40.563 35.6565C40.6351 35.721 40.6907 35.804 40.723 35.9062C40.7563 36.0091 40.7711 36.1306 40.7711 36.2732C40.7711 36.4022 40.7539 36.5133 40.7158 36.6042C40.678 36.6951 40.619 36.773 40.5431 36.8389C40.6416 36.8872 40.7158 36.9641 40.7697 37.0625C40.8246 37.1609 40.8521 37.3026 40.8521 37.4861C40.8521 37.6415 40.8301 37.7687 40.7872 37.8771C40.7464 37.9795 40.681 38.0702 40.5966 38.1412C40.5066 38.2146 40.4025 38.2686 40.2907 38.3001C40.1606 38.3355 40.0267 38.3551 39.892 38.3584C39.5173 38.3728 39.1423 38.3889 38.7701 38.4057V35.5265C39.1293 35.5077 39.4864 35.4943 39.8477 35.4795ZM42.2055 37.1482L42.9084 37.1366C42.7896 36.7689 42.6756 36.4012 42.5561 36.0321C42.439 36.4043 42.3202 36.7754 42.2055 37.1482ZM43.0537 37.5907C42.7223 37.5945 42.3902 37.6007 42.0554 37.6038C41.9833 37.837 41.9101 38.0709 41.8377 38.3028C41.6516 38.3059 41.4651 38.3103 41.2814 38.3141C41.5928 37.3482 41.9077 36.383 42.2192 35.4154C42.4441 35.4126 42.6708 35.4102 42.8943 35.4072C43.2068 36.3641 43.5159 37.3211 43.8301 38.2812C43.6447 38.2812 43.4582 38.2812 43.2717 38.2832C43.2 38.0517 43.1285 37.8219 43.0537 37.5907ZM44.2813 38.2812V35.3989C44.464 35.3989 44.6474 35.403 44.8318 35.403V37.8229C45.2693 37.8258 45.7068 37.8316 46.1443 37.8401C46.0828 37.9903 46.0234 38.1433 45.9647 38.2956C45.4036 38.2864 44.8425 38.2816 44.2813 38.2812ZM46.6292 38.3059V35.4267C46.8112 35.4329 46.9914 35.437 47.1755 35.4432V37.861C47.6144 37.873 48.0512 37.8884 48.487 37.9042C48.4286 38.0569 48.3702 38.2061 48.3098 38.357C47.7493 38.3385 47.1868 38.32 46.6292 38.3059ZM52.2163 38.4424C52.0697 38.4765 51.9212 38.5017 51.7716 38.5179C51.6239 38.5357 51.4804 38.5384 51.3437 38.5306C51.1353 38.5161 50.9608 38.4709 50.8142 38.3889C50.6723 38.3093 50.551 38.1977 50.4598 38.063C50.3657 37.918 50.2985 37.7572 50.2617 37.5883C50.2181 37.3943 50.1969 37.1959 50.1985 36.997C50.1985 36.773 50.2198 36.5693 50.2617 36.3923C50.3029 36.2125 50.3681 36.0644 50.4598 35.9409C50.5515 35.8208 50.6679 35.7292 50.8142 35.6716C50.9608 35.6126 51.1397 35.5893 51.3437 35.6023C51.4965 35.6126 51.6425 35.6342 51.7798 35.6651C51.9141 35.696 52.0628 35.743 52.216 35.804V36.2177C52.1311 36.1961 52.0556 36.1745 51.9862 36.1556C51.9158 36.1395 51.8495 36.123 51.7864 36.1103C51.7249 36.0993 51.6627 36.0904 51.6016 36.0829C51.5405 36.077 51.4746 36.0692 51.4069 36.0657C51.1748 36.052 51.0051 36.1288 50.9069 36.2955C50.8056 36.4664 50.7558 36.7095 50.7558 37.0285C50.7558 37.1815 50.7654 37.3215 50.7922 37.4456C50.8142 37.5712 50.852 37.6809 50.9069 37.7687C50.9608 37.861 51.0295 37.9317 51.113 37.9852C51.1937 38.0377 51.2922 38.0682 51.4103 38.0744C51.4746 38.0792 51.5374 38.0792 51.5947 38.0792C51.6566 38.0792 51.7166 38.0792 51.7819 38.0744C51.8437 38.0682 51.9093 38.062 51.9814 38.0538C52.0508 38.0462 52.1311 38.0359 52.2163 38.0188V38.4424ZM52.7901 38.6122V35.7323C52.9694 35.7457 53.15 35.7605 53.3368 35.7759V38.1954C53.7712 38.2321 54.2084 38.2699 54.6459 38.3086C54.5837 38.4561 54.5253 38.6053 54.4666 38.7518C53.9082 38.7006 53.3493 38.6543 52.7901 38.6122ZM55.6956 37.9296C55.6956 38.1114 55.7444 38.2441 55.8419 38.3268C55.9395 38.4136 56.0638 38.4637 56.2231 38.4777C56.389 38.4969 56.5188 38.475 56.6153 38.4115C56.7118 38.3481 56.7598 38.2253 56.7598 38.0428V36.1065C56.9436 36.1261 57.1266 36.148 57.3144 36.171V38.1104C57.3144 38.2832 57.2859 38.4294 57.2423 38.546C57.1929 38.6619 57.1221 38.7521 57.0304 38.8187C56.9367 38.8856 56.8203 38.9264 56.687 38.9456C56.5332 38.9671 56.3771 38.9674 56.2231 38.9466C56.0657 38.9322 55.9105 38.8991 55.7609 38.8482C55.6368 38.8046 55.5228 38.7362 55.4261 38.6472C55.333 38.5583 55.2624 38.4486 55.22 38.3272C55.1711 38.1824 55.1474 38.0303 55.15 37.8775V35.9385C55.332 35.9567 55.5157 35.9735 55.6956 35.9916V37.9296ZM59.1671 38.8259C59.3079 38.8441 59.4099 38.8238 59.4676 38.7631C59.5273 38.7031 59.5582 38.6122 59.5582 38.4945C59.5582 38.357 59.5228 38.2534 59.4525 38.1851C59.3796 38.1165 59.2856 38.0744 59.1674 38.0579C58.9628 38.0294 58.7564 38.003 58.5517 37.9769V38.7449C58.7564 38.7703 58.9628 38.7998 59.1671 38.8259ZM59.0867 37.5911C59.2275 37.6106 59.3305 37.5911 59.3875 37.5317C59.4476 37.4755 59.4768 37.3894 59.4768 37.2704C59.4792 37.1366 59.4452 37.0371 59.3783 36.9699C59.3103 36.9057 59.2145 36.8636 59.0867 36.8474C58.9086 36.8229 58.7302 36.7998 58.5517 36.7781V37.5225C58.7303 37.5454 58.9075 37.5688 59.0867 37.5911ZM59.0991 36.3923C59.266 36.4163 59.4047 36.4513 59.5242 36.5003C59.6406 36.5483 59.7378 36.6135 59.8092 36.689C59.8807 36.7661 59.9366 36.8594 59.9689 36.9668C60.0022 37.0755 60.0177 37.2014 60.0197 37.3424C60.0197 37.4724 59.9974 37.5791 59.9624 37.6638C59.9222 37.7482 59.8669 37.8178 59.7897 37.8675C59.8879 37.9368 59.9624 38.0229 60.0177 38.131C60.0692 38.2397 60.0953 38.3848 60.0953 38.5707C60.0953 38.7233 60.0747 38.8485 60.0331 38.9487C59.993 39.0425 59.9273 39.1232 59.8436 39.1816C59.7594 39.2389 59.6581 39.2742 59.5393 39.2862C59.4073 39.3005 59.274 39.2975 59.1427 39.2773C58.7718 39.2286 58.4006 39.1799 58.0266 39.1346V36.2557C58.3845 36.2997 58.7426 36.346 59.0991 36.3923Z" fill="white"/>
<path d="M24.2459 13.1876V4.49655H29.7451L33.63 13.1876H54.3876L58.4466 4.49655H63.9341V13.1876H66.6608V1.77344H21.5193V13.1876H24.2459Z" fill="#06141F"/>
<path d="M45.679 10.1165C45.679 10.1508 45.6893 10.1703 45.7096 10.1703C45.7253 10.1682 45.7402 10.162 45.7529 10.1525L51.3651 6.5132C51.4598 6.447 51.5732 6.41304 51.6889 6.41613H52.9224C53.1113 6.41613 53.2394 6.54201 53.2394 6.73101V9.08402C53.2394 9.36803 53.1762 9.53336 52.9241 9.68462L51.4279 10.584C51.413 10.5944 51.3956 10.6007 51.3774 10.6022C51.3596 10.6022 51.3414 10.5878 51.3414 10.5356V7.79055C51.3414 7.75797 51.3324 7.73636 51.3108 7.73636C51.295 7.73825 51.28 7.74455 51.2675 7.75454L47.1663 10.4169C47.0734 10.4802 46.9634 10.5134 46.8511 10.5123H44.1324C43.9414 10.5123 43.8154 10.3864 43.8154 10.1957V6.80476C43.8154 6.77937 43.8047 6.75605 43.7831 6.75605C43.7673 6.75793 43.7524 6.7641 43.7398 6.77389L41.0338 8.39664C41.0064 8.41448 40.9995 8.42751 40.9995 8.43986C40.9995 8.45049 41.005 8.46147 41.0229 8.48102L42.9565 10.4114C42.982 10.4365 42.9998 10.4564 42.9998 10.478C42.9998 10.4958 42.971 10.5102 42.937 10.5102H41.1904C41.0534 10.5102 40.9473 10.4907 40.8735 10.4169L39.7014 9.24729C39.697 9.24201 39.6915 9.2377 39.6853 9.23463C39.6791 9.23156 39.6723 9.2298 39.6654 9.22946C39.6527 9.23018 39.6403 9.23394 39.6293 9.24043L37.6702 10.4169C37.5514 10.489 37.4704 10.5085 37.3533 10.5085H35.5511C35.3588 10.5106 35.2324 10.3826 35.2324 10.1936V7.88591C35.2324 7.59984 35.2956 7.43588 35.5494 7.28496L37.0545 6.38183C37.0664 6.37406 37.0802 6.36967 37.0943 6.36914C37.1177 6.36914 37.1301 6.39281 37.1301 6.4446V9.53507C37.1301 9.56766 37.1373 9.58206 37.161 9.58206C37.177 9.57952 37.1922 9.57342 37.2056 9.56423L42.2903 6.50806C42.3875 6.44117 42.5067 6.40859 42.6252 6.41442H45.3621C45.5509 6.41442 45.679 6.5403 45.679 6.72895L45.6773 10.1165H45.679Z" fill="white"/>
</g>
<defs>
<clipPath id="clip0_3029_2956">
<rect width="88.2" height="65.7" fill="white"/>
</clipPath>
</defs>
</svg>
