<svg width="95" height="90" viewBox="0 0 95 90" fill="none" xmlns="http://www.w3.org/2000/svg">
<g clip-path="url(#clip0_3029_2941)">
<path d="M80.9548 50.2839L88.9 37.2796H75.8245C76.9289 33.5166 78.4848 29.9709 80.5768 26.8863C68.9692 26.5241 56.6008 23.7831 47.9502 15.2383C39.2992 23.7831 26.9312 26.5241 15.3232 26.8863C17.4152 29.9709 18.9711 33.5166 20.076 37.2796H7L14.9457 50.2839L9.60483 60.5366H21.8542C21.5642 63.1255 21.125 65.584 20.5608 67.8257C20.5608 67.8257 36.4274 70.7214 47.9502 80.9999C59.4726 70.7214 75.3397 67.8257 75.3397 67.8257C74.7755 65.5836 74.3358 63.125 74.0454 60.5366H86.2952L80.9548 50.2839Z" fill="#E2E3E4"/>
<path d="M77.8329 50.2839L83.0534 40.3607H70.4776C71.182 36.5365 72.2909 32.9793 73.8973 30.1066C65.7784 30.0215 53.3622 26.5334 47.9505 20.75C42.5388 26.5334 30.1231 30.0215 22.0037 30.1066C23.6097 32.9793 24.7186 36.5365 25.423 40.3607H12.8472L18.0681 50.2839L13.511 58.6399H26.0954C25.8415 61.3228 25.4438 63.8013 24.9364 65.9073C24.9364 65.9073 36.324 68.4359 47.9505 78.4474C59.5771 68.4359 70.9646 65.9073 70.9646 65.9073C70.4568 63.8013 70.0591 61.3228 69.8056 58.6399H82.3896L77.8329 50.2839Z" fill="#111111"/>
<path d="M47.9503 66.4351C43.5379 66.4377 39.7349 68.9934 37.9819 72.6792L47.9503 79.2496L57.9186 72.6792C56.1652 68.9934 52.3621 66.4377 47.9503 66.4351Z" fill="#E2E3E4"/>
<path d="M31.0004 55.9717L26.0667 50.4041L30.3027 45.8032H27.2347L23.8763 49.3892V42.6304H19.8672C20.6248 43.2591 21.2684 44.0926 21.2684 45.2162V55.9717H23.8763V51.6678L27.7493 55.9717H31.0004ZM64.791 45.8032V55.9717H62.1834V48.3894C62.1834 47.2663 61.5394 46.4332 60.7813 45.8032H64.791ZM75.7415 53.8284L76.9893 55.9717H66.7333L72.0043 47.946H67.0824V45.8032H76.7657L71.0496 53.8284H75.7415ZM35.9322 53.0383V47.946H37.7636L39.0124 45.8032H35.9322V42.6304L33.3252 44.0975V45.8036H31.404V47.9465H33.3252V53.1784C33.3251 53.5452 33.3985 53.9085 33.5413 54.2475C33.684 54.5864 33.8933 54.8944 34.1571 55.1538C34.421 55.4132 34.7342 55.619 35.0789 55.7594C35.4237 55.8998 35.7931 55.9721 36.1663 55.9721H38.234V53.8288H36.7359C36.5227 53.8287 36.3183 53.7453 36.1676 53.5971C36.0169 53.4489 35.9322 53.2478 35.9322 53.0383ZM56.8096 45.8032L54.2224 51.1592L51.2157 45.5363L48.2073 51.1601L45.621 45.8032H41.5635C42.4849 46.3122 43.532 47.1697 44.1621 48.4271C44.7921 49.6845 48.081 56.2155 48.081 56.2155L51.2153 50.3292L54.3491 56.2155L59.6115 45.8032H56.8096Z" fill="white"/>
<path d="M66.1493 34.4815C63.1259 32.9958 61.8289 31.581 61.8289 31.581C58.1819 10.3116 32.2063 5.11209 20.6041 9.57514C27.9806 11.4387 34.5603 14.1162 39.0272 18.9242C32.8466 17.387 24.3516 17.0425 19.377 18.5545C25.6013 19.3517 34.9635 23.5035 40.6516 31.3969C45.0604 37.5156 47.5087 40.1262 52.3779 42.7856C55.4747 41.6146 58.1255 38.7269 58.9923 36.6204C61.5272 36.7304 64.6349 35.676 66.1493 34.4815Z" fill="#E2E3E4"/>
<path d="M64.5128 34.542C52.5137 32.1557 51.7507 19.7446 32.0521 19.7446C43.0847 25.7028 43.2061 36.0167 52.5336 41.2778C52.5336 41.2778 53.5906 40.1875 54.6058 37.7995L56.3456 38.2047C56.6667 36.0885 56.2703 33.9611 56.2703 33.9611C57.4753 34.4373 61.0727 35.6322 64.5128 34.542Z" fill="#ED1B23"/>
<path d="M42.4411 19.8429C49.9353 22.1382 55.6893 26.005 59.16 29.3773C56.3383 15.5066 38.7931 6.87269 23.8591 9.50149C23.8591 9.50149 35.4934 11.1314 42.4411 19.8429Z" fill="#111111"/>
<path d="M50.4004 34.2474C50.1645 32.4526 48.8707 30.41 47.0284 28.9246C49.0145 29.6119 50.7336 29.2811 51.5098 28.0601C51.7456 29.8553 53.0395 31.8975 54.8817 33.3828C52.8961 32.6951 51.1765 33.0272 50.4004 34.2474Z" fill="white"/>
<path d="M59.6286 58.9262C59.0757 58.9262 58.6238 59.1342 58.3339 59.4942L58.1918 59.0193H56.8087C57.0973 59.2588 57.3417 59.5758 57.3417 60.0041V62.8892H58.3339V60.5632C58.4475 60.2023 58.907 59.7664 59.367 59.7664C59.892 59.7664 60.1495 60.2333 60.1495 60.7902V62.8892H61.1412V60.6789C61.1412 59.453 60.3493 58.9262 59.6286 58.9262ZM42.4722 61.1068C42.4722 61.7466 42.1967 62.158 41.6172 62.158C41.0377 62.158 40.7617 61.7466 40.7617 61.1068V59.0118H39.2356C39.5237 59.2526 39.7691 59.5696 39.7691 59.9974V61.2739H39.7749C39.7749 62.6191 40.9457 62.9818 41.6172 62.9818C42.2878 62.9818 43.4594 62.6196 43.4594 61.2739V59.0118H42.4722V61.1068ZM49.999 59.0193L49.0149 61.0873L47.8704 58.8872L46.7258 61.0881L45.7413 59.0193H44.1972C44.548 59.2135 44.9463 59.5394 45.1862 60.0183C45.4256 60.4962 46.6775 63.0412 46.6775 63.0412L47.8699 60.7113L49.0627 63.0412L51.0655 59.0193H49.999ZM53.8755 58.9072C52.6606 58.9072 51.6969 59.7549 51.6969 60.9538C51.6969 62.1523 52.6606 63.0004 53.8755 63.0004C55.0909 63.0004 56.0537 62.1523 56.0537 60.9538C56.0537 59.7549 55.0909 58.9072 53.8755 58.9072ZM53.8755 62.2143C53.2505 62.2143 52.7436 61.6858 52.7436 60.9538C52.7436 60.2236 53.2505 59.6933 53.8755 59.6933C54.5006 59.6933 55.0075 60.2231 55.0075 60.9538C55.0075 61.6854 54.5006 62.2143 53.8755 62.2143ZM36.4391 62.2152C35.828 62.2152 35.2927 61.7944 35.2584 61.4983L34.7583 62.5114C35.0916 62.7956 35.7062 62.984 36.472 62.984C37.6635 62.984 38.3711 62.4728 38.3711 61.7692C38.3602 61.1932 38.017 60.8341 37.0362 60.5783C36.3453 60.4018 35.9466 60.3326 35.9466 60.0852C35.9466 59.8103 36.2921 59.6658 36.7349 59.6658C37.1074 59.6658 37.4605 59.7527 37.7798 59.9611L38.1672 59.28C37.9327 59.0889 37.217 58.9231 36.7457 58.9231C35.5935 58.9231 34.8873 59.4867 34.8873 60.1739C34.8765 60.6297 35.2084 61.0172 36.2668 61.2819C36.9361 61.4495 37.3081 61.5293 37.3081 61.7931C37.3086 62.0804 36.95 62.2152 36.4391 62.2152Z" fill="#E2E3E4"/>
<path d="M53.4236 72.7111C53.2464 72.555 53.1719 72.1515 53.268 71.8332L53.2694 71.8301L53.2685 71.8305L53.268 71.8314C53.1241 72.0088 52.8693 72.1174 52.698 72.113C52.5573 72.1094 51.6513 72.0974 51.6513 72.0974C51.579 72.0963 51.5092 72.1235 51.4572 72.173C51.4053 72.2224 51.3755 72.2902 51.3744 72.3612C51.3732 72.4323 51.4009 72.501 51.4512 72.552C51.5015 72.6031 51.5704 72.6324 51.6427 72.6335C51.6427 72.6335 52.4445 72.6481 52.5713 72.6468C52.7219 72.6468 52.9199 72.5625 53.0186 72.4437L53.0741 72.3067C53.0367 72.402 53.001 72.4983 52.9654 72.594C52.9122 72.8441 52.9735 72.9829 53.1688 73.146C53.3753 73.3229 53.6888 73.5894 53.6888 73.5894C53.7391 73.632 53.805 73.6533 53.8712 73.6485C53.9374 73.6436 53.999 73.6131 54.0423 73.5637C54.0857 73.5142 54.1073 73.4499 54.1024 73.3848C54.0975 73.3197 54.0665 73.2592 54.0162 73.2165C54.0162 73.2165 53.5201 72.7958 53.4236 72.7111ZM54.0577 71.2572C53.8998 71.0825 53.8719 70.6733 54.004 70.3674L54.0058 70.3643L54.0044 70.3652L54.004 70.3656C53.8407 70.5265 53.5751 70.6046 53.4056 70.5811C53.2667 70.5629 52.367 70.4498 52.367 70.4498C52.3315 70.4454 52.2954 70.4478 52.2609 70.457C52.2263 70.4662 52.1939 70.482 52.1656 70.5036C52.1373 70.5251 52.1135 70.5519 52.0957 70.5824C52.0779 70.6129 52.0664 70.6466 52.0619 70.6815C52.0573 70.7164 52.0598 70.7519 52.0692 70.7858C52.0785 70.8198 52.0946 70.8516 52.1165 70.8795C52.1384 70.9073 52.1656 70.9307 52.1967 70.9482C52.2277 70.9657 52.262 70.977 52.2975 70.9815C52.2975 70.9815 53.0921 71.0848 53.2184 71.0985C53.3677 71.1149 53.5747 71.0528 53.6856 70.9464L53.7569 70.8161C53.71 70.9047 53.6649 70.9939 53.6198 71.0825C53.5323 71.318 53.5805 71.4758 53.7546 71.6607L54.2205 72.1591C54.2654 72.207 54.3284 72.2355 54.3947 72.2382C54.461 72.2408 54.5257 72.2175 54.5745 72.1733C54.6233 72.129 54.6522 72.0676 54.6549 72.0024C54.6576 71.9372 54.6339 71.8736 54.5889 71.8256C54.5889 71.8261 54.1438 71.3521 54.0577 71.2572ZM52.1248 76.5827C52.0495 76.7968 51.8452 76.9822 51.6828 77.0354C51.5493 77.0779 50.6902 77.363 50.6902 77.363C50.6241 77.3875 50.5701 77.4363 50.5398 77.4991C50.5095 77.5619 50.5052 77.6338 50.5277 77.6997C50.5503 77.7656 50.598 77.8203 50.6608 77.8523C50.7236 77.8842 50.7966 77.891 50.8643 77.8711C50.8643 77.8711 51.6256 77.6219 51.7446 77.5807C51.8862 77.5306 52.0815 77.3772 52.0968 77.2424L52.1252 76.5849V76.5822L52.1248 76.5827ZM55.3168 70.507C55.3168 70.507 54.9294 69.9874 54.8545 69.8836C54.7174 69.6921 54.7373 69.2829 54.9037 68.9933L54.9055 68.9898L54.9046 68.9907L54.9041 68.9916C54.7237 69.133 54.4505 69.1813 54.284 69.1397C54.1479 69.1055 53.2676 68.8936 53.2676 68.8936C53.1975 68.8766 53.1234 68.8877 53.0616 68.9244C52.9998 68.9611 52.9554 69.0204 52.9381 69.0893C52.9208 69.1582 52.9321 69.2311 52.9694 69.2918C53.0068 69.3526 53.0671 69.3962 53.1372 69.4132C53.1372 69.4132 53.9156 69.6048 54.0387 69.6318C54.1857 69.6646 54.3981 69.6256 54.5208 69.5325L54.606 69.4123C54.5501 69.4944 54.4956 69.5759 54.4414 69.658C54.3323 69.8708 54.3562 70.0472 54.5073 70.2503L54.9127 70.797C54.9315 70.8244 54.9558 70.8478 54.984 70.8657C55.0123 70.8837 55.0439 70.8958 55.077 70.9015C55.1101 70.9072 55.1441 70.9063 55.1768 70.8988C55.2095 70.8913 55.2404 70.8774 55.2676 70.8579C55.2947 70.8384 55.3176 70.8137 55.3349 70.7853C55.3521 70.757 55.3634 70.7255 55.368 70.6927C55.3725 70.66 55.3704 70.6267 55.3616 70.5948C55.3528 70.5629 55.3376 70.533 55.3168 70.507ZM53.3686 76.145C53.3686 76.145 52.7877 75.844 52.675 75.7828C52.4666 75.6702 52.3016 75.2933 52.3228 74.9617L52.3232 74.9581L52.3228 74.9586V74.959L52.3223 74.9599C52.2231 75.1647 51.9985 75.3261 51.8312 75.3598C51.6937 75.3873 50.8079 75.5753 50.8079 75.5753C50.7716 75.5813 50.7368 75.5945 50.7058 75.614C50.6748 75.6336 50.6481 75.6591 50.6273 75.6891C50.6066 75.719 50.5923 75.7528 50.5852 75.7884C50.5781 75.824 50.5785 75.8606 50.5862 75.896C50.5939 75.9315 50.6088 75.965 50.6301 75.9946C50.6514 76.0242 50.6785 76.0493 50.7099 76.0683C50.7413 76.0873 50.7763 76.0998 50.8127 76.1052C50.8492 76.1105 50.8864 76.1086 50.922 76.0994V76.0998C50.922 76.0998 51.7067 75.9367 51.8299 75.9083C51.9764 75.8746 52.1505 75.7482 52.2186 75.6117L52.242 75.464C52.2276 75.5633 52.2154 75.6627 52.2028 75.7615C52.2114 76.008 52.2993 76.145 52.5257 76.263L53.1341 76.5796C53.1632 76.596 53.1953 76.6064 53.2287 76.6104C53.262 76.6143 53.2958 76.6116 53.328 76.6025C53.3602 76.5933 53.3903 76.5779 53.4163 76.5571C53.4423 76.5363 53.4639 76.5105 53.4796 76.4814C53.4953 76.4523 53.5049 76.4203 53.5078 76.3874C53.5108 76.3546 53.5069 76.3215 53.4966 76.2901C53.4862 76.2587 53.4695 76.2297 53.4476 76.2048C53.4256 76.1799 53.3987 76.1596 53.3686 76.145ZM52.9609 74.2265C52.7665 74.0909 52.647 73.6985 52.7056 73.3708L52.7065 73.3668L52.7056 73.3682L52.7052 73.369C52.5825 73.5624 52.3413 73.6967 52.1708 73.7118C52.031 73.7242 51.129 73.8133 51.129 73.8133C51.0595 73.8231 50.9965 73.8588 50.9532 73.9132C50.9099 73.9675 50.8896 74.0361 50.8965 74.1048C50.9034 74.1735 50.937 74.2369 50.9904 74.2818C51.0437 74.3267 51.1126 74.3497 51.1827 74.3458C51.1827 74.3458 51.9809 74.2713 52.1068 74.2571C52.256 74.2398 52.4436 74.1339 52.5275 74.0057L52.5672 73.863C52.5415 73.961 52.5176 74.0594 52.4932 74.1574C52.4657 74.391 52.546 74.5453 52.7575 74.6868L53.3257 75.069C53.3805 75.1058 53.4479 75.1198 53.5132 75.1078C53.5455 75.1018 53.5763 75.0897 53.6038 75.072C53.6314 75.0544 53.6551 75.0316 53.6737 75.0049C53.6922 74.9782 53.7053 74.9482 53.712 74.9166C53.7188 74.885 53.7192 74.8524 53.7131 74.8206C53.7071 74.7888 53.6947 74.7586 53.6768 74.7315C53.6588 74.7044 53.6356 74.6811 53.6085 74.6628C53.6085 74.6628 53.066 74.2997 52.9609 74.2265ZM42.4758 72.7111C42.653 72.555 42.7274 72.1515 42.6313 71.8332L42.63 71.8301L42.6309 71.8305L42.6313 71.8314C42.7752 72.0088 43.03 72.1174 43.2014 72.113C43.3421 72.1094 44.2481 72.0974 44.2481 72.0974C44.3204 72.0963 44.3902 72.1235 44.4421 72.173C44.494 72.2224 44.5238 72.2902 44.525 72.3612C44.5261 72.4323 44.4985 72.501 44.4482 72.552C44.3978 72.6031 44.3289 72.6324 44.2566 72.6335C44.2566 72.6335 43.4548 72.6481 43.3281 72.6468C43.1775 72.6468 42.9795 72.5625 42.8807 72.4437L42.8253 72.3067C42.8622 72.402 42.8983 72.4983 42.9335 72.594C42.9876 72.8441 42.9258 72.9829 42.7306 73.146C42.524 73.3229 42.2106 73.5894 42.2106 73.5894H42.2101C42.1598 73.632 42.0944 73.6533 42.0282 73.6485C41.9619 73.6436 41.9004 73.6131 41.857 73.5637C41.8137 73.5142 41.7921 73.4499 41.797 73.3848C41.8019 73.3197 41.8329 73.2592 41.8832 73.2165C41.8832 73.2165 42.3792 72.7958 42.4758 72.7111ZM41.8417 71.2572C42 71.0825 42.0275 70.6733 41.8953 70.3674L41.8935 70.3643L41.8949 70.3652V70.3656C42.0586 70.5265 42.3242 70.6046 42.4942 70.5811C42.6331 70.5629 43.5324 70.4498 43.5324 70.4498C43.5687 70.4437 43.6059 70.4448 43.6417 70.4531C43.6775 70.4614 43.7113 70.4768 43.7409 70.4983C43.7706 70.5198 43.7955 70.547 43.8141 70.5782C43.8328 70.6095 43.8448 70.6441 43.8495 70.68C43.8542 70.7159 43.8515 70.7524 43.8414 70.7872C43.8314 70.8221 43.8143 70.8545 43.7911 70.8827C43.768 70.9109 43.7393 70.9342 43.7068 70.9511C43.6742 70.9681 43.6385 70.9784 43.6018 70.9815C43.6018 70.9815 42.8072 71.0848 42.6805 71.0985C42.5317 71.1149 42.3247 71.0528 42.2137 70.9464L42.1425 70.8161C42.1894 70.9047 42.2345 70.9939 42.28 71.0825C42.3671 71.318 42.3184 71.4758 42.1447 71.6607L41.6789 72.1591C41.6566 72.1829 41.6298 72.2021 41.6 72.2157C41.5701 72.2293 41.5379 72.237 41.505 72.2383C41.4722 72.2397 41.4394 72.2346 41.4085 72.2235C41.3776 72.2124 41.3493 72.1954 41.3251 72.1735C41.3009 72.1516 41.2813 72.1252 41.2675 72.0959C41.2537 72.0666 41.2459 72.0348 41.2445 72.0025C41.2431 71.9702 41.2483 71.938 41.2596 71.9076C41.2709 71.8773 41.2882 71.8494 41.3104 71.8256C41.3104 71.8261 41.756 71.3521 41.8417 71.2572ZM43.7746 76.5827C43.8499 76.7968 44.0542 76.9822 44.2165 77.0354C44.35 77.0779 45.2091 77.363 45.2091 77.363C45.2753 77.3875 45.3292 77.4363 45.3595 77.4991C45.3898 77.5619 45.3942 77.6338 45.3716 77.6997C45.349 77.7656 45.3013 77.8203 45.2385 77.8523C45.1757 77.8842 45.1028 77.891 45.035 77.8711C45.035 77.8711 44.2738 77.6219 44.1547 77.5807C44.0131 77.5306 43.8179 77.3772 43.8025 77.2424L43.7741 76.5849V76.5822L43.7746 76.5827ZM40.5826 70.507C40.5826 70.507 40.9699 69.9874 41.0444 69.8836C41.1815 69.6921 41.1621 69.2829 40.9957 68.9933L40.9939 68.9898L40.9943 68.9907L40.9952 68.9916C41.1756 69.133 41.4484 69.1813 41.6153 69.1397C41.9538 69.0571 42.2925 68.9751 42.6313 68.8936C42.666 68.8851 42.7021 68.8835 42.7374 68.8888C42.7728 68.894 42.8067 68.9061 42.8374 68.9242C42.868 68.9424 42.8946 68.9663 42.9159 68.9946C42.9371 69.0229 42.9524 69.055 42.961 69.0891C42.9696 69.1232 42.9713 69.1587 42.9659 69.1934C42.9606 69.2282 42.9483 69.2616 42.9298 69.2917C42.9114 69.3218 42.8871 69.348 42.8583 69.3688C42.8295 69.3897 42.7968 69.4048 42.7621 69.4132C42.7621 69.4132 41.9837 69.6048 41.8602 69.6318C41.7132 69.6646 41.5012 69.6256 41.3785 69.5325L41.2933 69.4123C41.3492 69.4944 41.4029 69.5759 41.4579 69.658C41.5666 69.8708 41.5427 70.0472 41.3921 70.2503L40.9862 70.797C40.9668 70.8231 40.9424 70.8451 40.9144 70.8619C40.8864 70.8787 40.8552 70.8899 40.8228 70.8948C40.7904 70.8998 40.7573 70.8984 40.7254 70.8908C40.6935 70.8832 40.6634 70.8695 40.6369 70.8504C40.6104 70.8314 40.588 70.8074 40.5709 70.7798C40.5538 70.7523 40.5424 70.7217 40.5374 70.6898C40.5323 70.6579 40.5337 70.6254 40.5415 70.594C40.5492 70.5626 40.5632 70.5331 40.5826 70.507ZM42.5308 76.145C42.5308 76.145 43.1116 75.844 43.2244 75.7828C43.4332 75.6702 43.5978 75.2933 43.5766 74.9617L43.5761 74.9581L43.5766 74.9586V74.959L43.5775 74.9599C43.6762 75.1647 43.9008 75.3261 44.0686 75.3598C44.2057 75.3873 45.0914 75.5753 45.0914 75.5753C45.1278 75.5813 45.1625 75.5945 45.1935 75.614C45.2246 75.6336 45.2513 75.6591 45.272 75.6891C45.2927 75.719 45.3071 75.7528 45.3141 75.7884C45.3212 75.824 45.3209 75.8606 45.3132 75.896C45.3054 75.9315 45.2905 75.965 45.2692 75.9946C45.248 76.0242 45.2208 76.0493 45.1894 76.0683C45.1581 76.0873 45.1231 76.0998 45.0866 76.1052C45.0502 76.1105 45.013 76.1086 44.9773 76.0994V76.0998C44.9773 76.0998 44.1926 75.9367 44.0695 75.9083C43.9229 75.8746 43.7488 75.7482 43.6812 75.6117L43.6573 75.464C43.6713 75.5633 43.6839 75.6627 43.6961 75.7615C43.688 76.008 43.6005 76.145 43.3736 76.263C43.1319 76.3894 42.7653 76.5796 42.7653 76.5796C42.7362 76.596 42.704 76.6064 42.6707 76.6104C42.6374 76.6143 42.6036 76.6116 42.5714 76.6025C42.5391 76.5933 42.5091 76.5779 42.483 76.5571C42.457 76.5363 42.4355 76.5105 42.4197 76.4814C42.404 76.4523 42.3944 76.4203 42.3915 76.3874C42.3886 76.3546 42.3924 76.3215 42.4028 76.2901C42.4131 76.2587 42.4298 76.2297 42.4518 76.2048C42.4738 76.1799 42.5006 76.1596 42.5308 76.145ZM42.9389 74.2265C43.1328 74.0909 43.2528 73.6985 43.1942 73.3708L43.1932 73.3668L43.1942 73.3682L43.1946 73.369C43.3168 73.5624 43.5581 73.6967 43.729 73.7118C43.8688 73.7242 44.7708 73.8133 44.7708 73.8133C44.8403 73.8231 44.9033 73.8588 44.9466 73.9132C44.9899 73.9675 45.0102 74.0361 45.0033 74.1048C44.9964 74.1735 44.9628 74.2369 44.9094 74.2818C44.8561 74.3267 44.7872 74.3497 44.7171 74.3458C44.7171 74.3458 43.9184 74.2713 43.793 74.2571C43.6438 74.2398 43.4562 74.1339 43.3723 74.0057L43.3322 73.863C43.3579 73.961 43.3818 74.0594 43.4061 74.1574C43.4336 74.391 43.3533 74.5453 43.1423 74.6868L42.5736 75.069C42.5465 75.0872 42.516 75.1 42.4838 75.1066C42.4517 75.1133 42.4185 75.1136 42.3862 75.1076C42.3539 75.1017 42.3232 75.0895 42.2957 75.0718C42.2681 75.0542 42.2444 75.0313 42.2259 75.0047C42.2074 74.978 42.1944 74.948 42.1876 74.9164C42.1809 74.8848 42.1805 74.8522 42.1866 74.8204C42.1927 74.7887 42.205 74.7584 42.223 74.7314C42.241 74.7044 42.2642 74.6811 42.2913 74.6628C42.2913 74.6628 42.8334 74.2997 42.9389 74.2265Z" fill="#ED1B23"/>
</g>
<defs>
<clipPath id="clip0_3029_2941">
<rect width="81.9" height="72.9" fill="white" transform="translate(7 8.1001)"/>
</clipPath>
</defs>
</svg>
