<svg width="90" height="66" viewBox="0 0 90 66" fill="none" xmlns="http://www.w3.org/2000/svg">
<g clip-path="url(#clip0_3029_2885)">
<path d="M44.7585 0C26.6688 0 12.0027 14.7069 12.0027 32.8501C12.0027 50.9914 26.6688 65.6993 44.7585 65.6993C62.8492 65.6993 77.5153 50.9923 77.5153 32.8501C77.5153 14.7069 62.8492 0 44.7585 0Z" fill="#570514"/>
<path d="M44.7585 64.4964C27.3299 64.4964 13.201 50.3292 13.201 32.849C13.201 15.3717 27.3299 1.20166 44.7585 1.20166C62.189 1.20166 76.3179 15.3717 76.3179 32.849C76.3179 50.3302 62.189 64.4964 44.7585 64.4964Z" fill="#7D0521"/>
<path d="M23.7244 18.4544L20.5398 16.0346L21.1066 15.2857L22.3803 16.2534L22.3869 16.2438L21.5305 14.724L22.1097 13.9578L22.9994 15.707L25.3257 16.3336L24.7275 17.1265L23.3071 16.6967L23.5034 17.1074L24.2883 17.7045L23.7244 18.4544ZM26.3249 15.2694L23.4815 12.457L24.1388 11.7864L26.9822 14.5998L26.3249 15.2694ZM29.5371 10.9209L29.5466 10.9151L28.1082 8.48485L28.8217 7.95465L30.6726 11.5657L29.8276 12.1962L27.9167 10.107L27.9091 10.1136L29.3409 12.5592L28.5064 13.1821L25.5848 10.3706L26.3107 9.82896L28.213 11.9173V11.901L26.847 9.42774L27.5747 8.88321L29.5371 10.9209ZM32.5625 7.26779C32.5352 7.21199 32.5053 7.15748 32.473 7.10443C32.4437 7.05214 32.4057 7.00529 32.3606 6.96591C32.3205 6.9283 32.27 6.90367 32.2158 6.89522C32.1518 6.88598 32.0865 6.89806 32.03 6.92961C31.9748 6.9527 31.9283 6.99283 31.8973 7.04418C31.8663 7.09553 31.8524 7.15545 31.8576 7.21525C31.8596 7.27539 31.8715 7.33479 31.8928 7.39102C31.9157 7.44834 31.9386 7.50852 31.9662 7.56298L32.6921 9.03797C32.7159 9.08765 32.7473 9.1421 32.7845 9.20037C32.8197 9.25769 32.8607 9.30641 32.9064 9.34749C32.9503 9.38791 33.0043 9.41564 33.0626 9.42774C33.1263 9.44048 33.1924 9.43033 33.2493 9.39908C33.3085 9.37292 33.3564 9.32654 33.3846 9.2682C33.4075 9.21499 33.4164 9.15675 33.4103 9.09911C33.4038 9.03518 33.3884 8.97248 33.3646 8.91283C33.3409 8.85478 33.3155 8.79744 33.2884 8.74087L32.5625 7.26779ZM34.0933 8.25366C34.1934 8.45428 34.261 8.64343 34.2991 8.81538C34.3372 8.98925 34.3362 9.14974 34.2991 9.2959C34.2559 9.44859 34.1746 9.58768 34.0629 9.7C33.9466 9.82514 33.7809 9.93978 33.5675 10.0449C33.3541 10.1499 33.1627 10.212 32.9921 10.2311C32.8207 10.2503 32.6654 10.2311 32.5254 10.1757C32.375 10.112 32.2423 10.0127 32.1386 9.88628C32.0108 9.73204 31.9023 9.56264 31.8157 9.38188L31.0974 7.92217C30.926 7.57253 30.8945 7.25823 31.0003 6.97642C31.1079 6.69651 31.347 6.46438 31.7147 6.28191C32.0834 6.09849 32.4101 6.05264 32.694 6.13862C32.9778 6.22841 33.2036 6.44622 33.3741 6.79396L34.0933 8.25366ZM36.7472 5.65523C36.7282 5.59791 36.7091 5.53773 36.6844 5.4785C36.6635 5.42319 36.6339 5.37158 36.5967 5.32565C36.5614 5.28264 36.5154 5.2497 36.4634 5.23012C36.4008 5.21103 36.3337 5.21372 36.2729 5.23776C36.2119 5.25355 36.1576 5.28834 36.1176 5.33711C36.0864 5.38262 36.0667 5.4351 36.0604 5.48996C36.0529 5.54975 36.0548 5.61037 36.0661 5.66956C36.0785 5.73356 36.0947 5.79375 36.1109 5.85107L36.5939 7.42255C36.611 7.47796 36.6339 7.53623 36.6606 7.59928C36.6847 7.65776 36.7171 7.71245 36.7568 7.76168C36.7958 7.81136 36.8435 7.8467 36.8987 7.86867C36.9596 7.89103 37.0264 7.89103 37.0873 7.86867C37.1501 7.85322 37.2053 7.81557 37.2426 7.76264C37.2734 7.71344 37.2915 7.65727 37.295 7.59928C37.2975 7.5348 37.2918 7.47026 37.2778 7.40726C37.2647 7.34608 37.2488 7.28551 37.2302 7.22575L36.7472 5.65523ZM38.1018 6.8742C38.1685 7.08723 38.2066 7.28498 38.2161 7.46076C38.2257 7.64036 38.199 7.79703 38.139 7.93459C38.073 8.07885 37.9713 8.20381 37.8437 8.29761C37.6782 8.41484 37.4939 8.50273 37.2988 8.55745C37.1065 8.62269 36.9045 8.65404 36.7015 8.65011C36.5423 8.64436 36.3869 8.59941 36.249 8.51924C36.1106 8.4325 35.9955 8.31312 35.9137 8.17151C35.8117 7.9998 35.7317 7.81589 35.6756 7.62412L35.1974 6.06697C35.0831 5.69535 35.1021 5.38106 35.2507 5.12121C35.4022 4.85946 35.6737 4.66744 36.0661 4.54612C36.4596 4.4248 36.7901 4.43053 37.0549 4.56236C37.3217 4.69515 37.5103 4.94639 37.6246 5.31705L38.1018 6.8742ZM39.9699 7.72825L39.505 3.75035L40.8167 3.59559L41.5731 5.89024L41.5826 5.88737L41.8065 3.48L43.1077 3.32715L43.5726 7.30409L42.6838 7.40917L42.4142 4.27863L42.4047 4.28055L42.1123 7.477L41.4197 7.5582L40.4147 4.51459H40.4052L40.8529 7.62412L39.9699 7.72825ZM47.5734 7.46649L48.206 3.51152L49.1319 3.66055L48.889 5.17853L49.531 5.28266L49.773 3.76372L50.6989 3.9118L50.0664 7.86677L49.1405 7.71774L49.4034 6.07174L48.7623 5.96953L48.4984 7.61456L47.5734 7.46649ZM51.5696 8.24125L52.7984 4.43339L54.8408 5.09542L54.5931 5.85776L53.4433 5.48327L53.2176 6.18543L54.3321 6.54749L54.0854 7.30791L52.9708 6.94585L52.706 7.76932L53.9158 8.16291L53.6719 8.92524L51.5696 8.24125ZM56.9498 7.8639L57.2337 8.00719C57.2855 8.03656 57.3448 8.04986 57.4042 8.04541C57.4553 8.04014 57.5042 8.02171 57.5461 7.99191C57.5925 7.95933 57.6325 7.91854 57.6643 7.87154C57.6987 7.82242 57.7293 7.77067 57.7557 7.71678C57.8017 7.63467 57.833 7.54511 57.8481 7.45216C57.8588 7.38717 57.8453 7.3205 57.81 7.26492C57.77 7.20497 57.7156 7.15603 57.6519 7.12258C57.5667 7.07366 57.4796 7.02809 57.3909 6.98597L56.9498 7.8639ZM55.9143 9.91876L55.078 9.49461L56.8784 5.91985L58.0986 6.53698C58.4454 6.7118 58.6645 6.91719 58.7578 7.15411C58.8522 7.39293 58.8083 7.68908 58.6302 8.04445C58.533 8.23551 58.4206 8.38359 58.293 8.48867C58.1625 8.59566 57.992 8.64343 57.7767 8.63483L57.7728 8.64534C57.8719 8.72283 57.9456 8.8283 57.9843 8.94817C58.0189 9.07066 58.0084 9.20152 57.9548 9.31692L57.8357 9.59205L57.689 9.91876L57.55 10.2369C57.5145 10.3175 57.4846 10.4005 57.4604 10.4853C57.4556 10.5411 57.4624 10.5974 57.4804 10.6505L57.4557 10.6983L56.5411 10.2359C56.5488 10.1948 56.5535 10.1557 56.5631 10.1175C56.5723 10.0797 56.5844 10.0426 56.5993 10.0067C56.6717 9.84425 56.7469 9.69331 56.8203 9.55384C56.8936 9.41436 56.9536 9.28635 56.9965 9.16694C57.0361 9.07001 57.0556 8.96598 57.0537 8.86124C57.047 8.77526 56.9965 8.70266 56.9012 8.64725L56.625 8.50778L55.9143 9.91876ZM61.5775 10.0611C61.6128 10.0105 61.647 9.95984 61.6794 9.90443C61.7111 9.85404 61.7346 9.7989 61.749 9.74108C61.7615 9.68745 61.7598 9.63147 61.7442 9.57867C61.7218 9.51703 61.68 9.46438 61.6251 9.42869C61.5755 9.38954 61.5148 9.36714 61.4518 9.36468C61.396 9.36698 61.3415 9.38235 61.2927 9.40958C61.2422 9.44124 61.1963 9.47982 61.1565 9.52422C61.1126 9.57199 61.0736 9.61975 61.0383 9.66847L60.0772 11.0021C60.0448 11.0479 60.0105 11.1014 59.9762 11.1607C59.9433 11.2159 59.9189 11.2758 59.9038 11.3383C59.8895 11.3962 59.8905 11.4568 59.9067 11.5141C59.9257 11.5767 59.9662 11.6305 60.021 11.666C60.0707 11.7064 60.1333 11.7274 60.1972 11.7252C60.2552 11.7202 60.3109 11.7005 60.3592 11.6679C60.4129 11.6331 60.4611 11.5902 60.502 11.5409C60.5449 11.4883 60.584 11.4406 60.6163 11.3928L61.5775 10.0611ZM61.4222 11.8791C61.2908 12.0606 61.1574 12.2096 61.0221 12.3252C60.9008 12.4321 60.7558 12.5084 60.5992 12.5478C60.4446 12.5821 60.2837 12.5755 60.1324 12.5287C59.9396 12.4678 59.7587 12.3737 59.598 12.2507C59.4308 12.1344 59.284 11.9911 59.1636 11.8265C59.0718 11.6955 59.0145 11.5434 58.9969 11.3842C58.9807 11.2342 59.0065 11.0747 59.0684 10.9085C59.1351 10.7413 59.2341 10.5674 59.3637 10.3859L60.3163 9.06567C60.543 8.75042 60.804 8.5756 61.1022 8.54026C61.4013 8.50395 61.7166 8.60713 62.05 8.84882C62.3844 9.09051 62.5777 9.358 62.633 9.64937C62.6882 9.94073 62.6015 10.2455 62.3739 10.5598L61.4222 11.8791ZM61.8442 13.9244L64.6487 11.0718L66.1766 12.5831L65.6165 13.1534L64.7554 12.3013L64.2391 12.8267L65.0745 13.6511L64.5124 14.2224L63.6789 13.397L63.0721 14.0132L63.978 14.9093L63.4189 15.4806L61.8442 13.9244ZM65.928 16.4101L65.7032 16.5801C65.6595 16.6129 65.6196 16.6504 65.5841 16.6919C65.5497 16.7288 65.5237 16.7728 65.5079 16.8209C65.492 16.8693 65.4896 16.9212 65.5012 16.9708C65.5151 17.0328 65.5432 17.0907 65.5831 17.1399C65.6498 17.2259 65.7289 17.266 65.8251 17.2565C65.9204 17.2469 66.009 17.2116 66.0899 17.1485C66.1524 17.1054 66.2026 17.0468 66.2357 16.9785C66.2651 16.9178 66.2838 16.8525 66.2909 16.7855C66.2979 16.7162 66.2963 16.6462 66.2862 16.5772C66.2786 16.5054 66.2722 16.4334 66.2671 16.3614C66.2457 16.2073 66.2311 16.0524 66.2233 15.8971C66.2162 15.7573 66.2277 15.6172 66.2576 15.4806C66.289 15.3487 66.3405 15.2264 66.411 15.1118C66.4834 14.9972 66.5891 14.8873 66.7329 14.7803C67.033 14.5539 67.3207 14.4651 67.5998 14.5195C67.877 14.5721 68.1266 14.7459 68.3457 15.0382C68.4676 15.2007 68.5495 15.3631 68.5915 15.5255C68.6334 15.6879 68.6372 15.8426 68.6048 15.9916C68.5733 16.1416 68.5095 16.2821 68.4105 16.4158C68.3029 16.555 68.1728 16.6752 68.0256 16.7712L67.5083 16.0795L67.6474 15.9601C67.6963 15.9213 67.7392 15.8756 67.7751 15.8245C67.8086 15.7785 67.8293 15.7244 67.8351 15.6678C67.8372 15.6031 67.8185 15.5395 67.7817 15.4863C67.7293 15.4041 67.6674 15.3554 67.596 15.3411C67.5187 15.3269 67.4389 15.3429 67.3731 15.386C67.2683 15.4462 67.2035 15.5216 67.1806 15.6086C67.1564 15.7056 67.1468 15.8058 67.1521 15.9057C67.1673 16.1177 67.1902 16.3069 67.213 16.4731C67.2378 16.6403 67.2416 16.7979 67.2264 16.947C67.2097 17.0987 67.1613 17.2451 67.0845 17.3768C67.0054 17.5106 66.8682 17.652 66.6739 17.8C66.3643 18.0331 66.0661 18.1296 65.7794 18.0885C65.4926 18.0456 65.2307 17.8679 64.9973 17.5536C64.8814 17.4069 64.7912 17.2415 64.7306 17.0645C64.6826 16.9226 64.6653 16.7721 64.6801 16.6231C64.6938 16.4926 64.7368 16.3668 64.8059 16.2553C64.8754 16.1455 64.9621 16.0509 65.0669 15.9716L65.4069 15.7137L65.928 16.4101ZM21.3705 46.4841C21.5963 46.358 21.8049 46.2137 21.6582 45.9587C21.5696 45.801 21.4486 45.737 21.28 45.8316C21.0895 45.9405 21.0838 46.1029 21.0752 46.3026C21.0657 46.5127 21.0409 46.9035 20.9866 47.105C20.9219 47.3544 20.799 47.4919 20.5837 47.6152C20.1102 47.8855 19.6863 47.7107 19.4263 47.2521C19.1081 46.6914 19.3082 46.3121 19.754 46.058L19.9369 45.9529L20.2017 46.421L20.055 46.5041C19.8073 46.6331 19.672 46.807 19.8026 47.0391C19.915 47.2349 20.0712 47.2684 20.2598 47.1633C20.4084 47.0773 20.4694 46.9541 20.4846 46.7859C20.5351 46.4325 20.4999 46.0513 20.6418 45.7198C20.7099 45.5772 20.8195 45.4586 20.9561 45.3797C21.3839 45.138 21.7525 45.2441 22.0326 45.7389C22.4555 46.4841 21.8716 46.7917 21.6268 46.935L21.3705 46.4841ZM20.4132 48.7625L22.7804 47.1289L23.6358 48.3737L23.29 48.6154L22.7375 47.811L22.1412 48.2218L22.6489 48.9631L22.3021 49.2029L21.7944 48.4606L21.0647 48.966L21.6172 49.7684L21.2705 50.0072L20.4132 48.7625ZM22.9137 50.5126C22.7299 50.6664 22.445 50.9291 22.6794 51.2119C22.9242 51.508 23.2309 51.2596 23.4433 51.0829L24.0101 50.61C24.1864 50.4639 24.5865 50.1467 24.3321 49.8391C24.0625 49.5143 23.6987 49.862 23.5272 50.0034L22.9137 50.5126ZM23.0833 49.6547C23.6615 49.2029 24.1178 48.8991 24.6646 49.5611C25.2142 50.2231 24.8303 50.6167 24.2816 51.1039L23.9673 51.3657C23.3767 51.8558 22.909 52.1701 22.3479 51.4899C21.7839 50.8107 22.1774 50.4066 22.767 49.9165L23.0833 49.6547ZM26.605 51.7583L26.987 52.1385L25.5772 53.5658C25.1295 54.0195 24.7694 54.0893 24.2702 53.5935C23.7653 53.0948 23.832 52.7346 24.2797 52.2799L25.6896 50.8508L26.0725 51.2291L24.6941 52.6238C24.4998 52.8216 24.3188 53.0298 24.5789 53.2887C24.8256 53.5352 25.0342 53.3508 25.2285 53.155L26.605 51.7583ZM25.7181 54.8592L27.5509 52.6391L27.9625 52.983L26.4002 54.8764L27.167 55.5136L26.9003 55.8384L25.7181 54.8592ZM28.7398 57.1692L30.2496 54.7179L30.705 54.9997L30.1077 55.9712L30.7469 56.3658L31.3441 55.3952L31.8014 55.677L30.2915 58.1312L29.8343 57.8465L30.5249 56.7269L29.8867 56.3314L29.1951 57.4519L28.7398 57.1692ZM31.1613 58.605L32.4454 56.0276L33.7961 56.7039L33.6085 57.0832L32.7387 56.6457L32.413 57.2953L33.216 57.6984L33.0274 58.0767L32.2253 57.6745L31.83 58.4693L32.7007 58.905L32.5111 59.2833L31.1613 58.605ZM34.4353 58.2993L34.8297 58.4541C34.9973 58.5076 35.1679 58.4493 35.2717 58.1808C35.3889 57.8799 35.2841 57.7806 35.0964 57.7041L34.7249 57.5599L34.4353 58.2993ZM34.2829 58.6929L33.8333 59.8507L33.3332 59.653L34.3782 56.9695L35.3241 57.3421C35.7566 57.5083 36.0271 57.7873 35.8337 58.2821C35.7194 58.5744 35.5241 58.8534 35.1707 58.7693L35.1679 58.776C35.4479 58.9317 35.4651 59.1562 35.3631 59.4132C35.3203 59.525 35.0497 60.1774 35.1402 60.3045L35.1212 60.3532L34.5706 60.1383C34.5772 59.9424 34.7163 59.6176 34.7821 59.438C34.844 59.2709 34.9345 59.0473 34.7821 58.9288C34.6611 58.8381 34.5144 58.7836 34.3715 58.7282L34.2829 58.6929ZM36.7816 59.8373C36.7158 60.0666 36.6291 60.4459 36.9835 60.5443C37.3541 60.6484 37.4627 60.2691 37.5379 60.0026L37.738 59.2919C37.7999 59.0712 37.9485 58.5811 37.5655 58.4751C37.1597 58.3585 37.0568 58.8524 36.9968 59.0674L36.7816 59.8373ZM36.4338 59.033C36.6539 58.3308 36.8568 57.8216 37.6836 58.0576C38.5086 58.2888 38.4172 58.8304 38.24 59.5422L38.1295 59.9376C37.9228 60.6771 37.7151 61.2025 36.8673 60.9627C36.0176 60.7239 36.1147 60.1679 36.3224 59.4275L36.4338 59.033ZM38.7325 61.3601L39.2545 58.5257L40.7405 58.8008L40.6633 59.2154L39.706 59.0378L39.5736 59.7533L40.4557 59.9176L40.3795 60.3322L39.4993 60.1698L39.3373 61.042L40.2947 61.2197L40.2185 61.6343L38.7325 61.3601ZM42.3971 59.8717C42.4256 59.6176 42.4275 59.3616 42.1332 59.3329C41.9551 59.3177 41.8331 59.3778 41.8141 59.5718C41.7931 59.7896 41.9217 59.8889 42.0798 60.0112C42.2446 60.1383 42.5466 60.3847 42.6819 60.5443C42.8477 60.742 42.8896 60.9178 42.8648 61.169C42.8124 61.7117 42.4266 61.9591 41.9046 61.9094C41.2635 61.8464 41.0692 61.4652 41.1187 60.9522L41.1396 60.742L41.6731 60.7927L41.6569 60.9627C41.6188 61.2397 41.6836 61.4528 41.9455 61.4766C42.1704 61.4986 42.2894 61.3907 42.3104 61.1719C42.3266 61.0047 42.2608 60.8815 42.1332 60.7735C41.876 60.5271 41.5445 60.3379 41.354 60.0294C41.2788 59.891 41.2457 59.7336 41.2587 59.5765C41.3063 59.0855 41.6074 58.8457 42.1713 58.9002C43.022 58.9843 42.9353 59.6396 42.9115 59.9214L42.3971 59.8717ZM45.7416 61.5397C45.854 61.5359 45.9683 61.5416 46.0626 61.4958C46.2055 61.426 46.217 61.2369 46.2103 61.0888C46.1989 60.7783 46.1341 60.6494 45.8007 60.6637L45.5921 60.6723L45.6264 61.5445L45.7416 61.5397ZM45.6749 60.2453C45.8055 60.2414 45.9731 60.2414 46.0541 60.1306C46.1017 60.0561 46.1046 59.9539 46.0989 59.8154C46.0912 59.6004 46.0417 59.4963 45.7959 59.4992L45.5483 59.5087L45.5749 60.2491L45.6749 60.2453ZM45.1072 61.9868L44.9938 59.1065L45.8588 59.0721C46.0903 59.0626 46.316 59.0693 46.478 59.2594C46.6056 59.4132 46.6304 59.5765 46.639 59.7724C46.6485 60.0208 46.6056 60.2701 46.3179 60.3886V60.3972C46.6218 60.4268 46.7476 60.6761 46.7618 61.0487C46.7657 61.169 46.7647 61.2875 46.7371 61.4021C46.6371 61.7728 46.4351 61.9342 46.0531 61.9505L45.1072 61.9868ZM48.1583 60.6207L48.6146 60.5615L48.367 59.7686C48.3231 59.6386 48.2936 59.5106 48.2612 59.3788C48.2486 59.3155 48.2337 59.2528 48.2165 59.1906L48.2098 59.1925C48.2098 59.2537 48.2098 59.3196 48.2155 59.3855C48.2165 59.5192 48.2222 59.6511 48.2127 59.7886L48.1583 60.6207ZM47.5116 61.8683L47.823 58.9212L48.5403 58.8276L49.5567 61.6028L48.9852 61.6754L48.7518 60.9703L48.1288 61.0506L48.0831 61.7938L47.5116 61.8683ZM50.9618 59.2584C50.9104 59.0062 50.8313 58.7645 50.5436 58.8276C50.3684 58.8668 50.2722 58.9632 50.315 59.1543C50.3617 59.3683 50.515 59.4218 50.7027 59.4896C50.898 59.5593 51.2647 59.6998 51.4419 59.8087C51.6601 59.9453 51.7544 60.102 51.8077 60.3456C51.9258 60.8786 51.6363 61.234 51.1238 61.3486C50.4941 61.4891 50.1921 61.1862 50.0807 60.6837L50.035 60.4755L50.5589 60.3609L50.5951 60.5261C50.6456 60.8013 50.7713 60.9808 51.0295 60.9245C51.2505 60.8748 51.3286 60.7363 51.2819 60.5204C51.2466 60.358 51.1457 60.2596 50.9904 60.1965C50.6684 60.0437 50.295 59.9673 50.0178 59.7323C49.9039 59.6238 49.8241 59.4844 49.7882 59.331C49.6834 58.8515 49.893 58.5286 50.4455 58.4044C51.28 58.2181 51.401 58.8687 51.4667 59.1447L50.9618 59.2584ZM52.8527 60.8414L51.9859 58.093L53.4224 57.6363L53.551 58.0404L52.6232 58.3356L52.8413 59.0272L53.6967 58.754L53.8244 59.1591L52.9689 59.4304L53.2356 60.2768L54.1654 59.9816L54.2921 60.3847L52.8527 60.8414ZM55.5762 59.4371C55.6781 59.3931 55.7886 59.3606 55.86 59.2842C55.9696 59.1686 55.9153 58.9852 55.86 58.8524C55.741 58.5639 55.6343 58.4684 55.3266 58.5954L55.1342 58.6747L55.4695 59.4801L55.5762 59.4371ZM55.0666 58.2458C55.1866 58.1971 55.3447 58.1407 55.3809 58.007C55.4 57.921 55.3695 57.8245 55.3161 57.6965C55.2342 57.4959 55.1504 57.4166 54.9208 57.5035L54.6912 57.601L54.9741 58.285L55.0666 58.2458ZM55.1342 60.0781L54.033 57.4166L54.8331 57.0832C55.0456 56.9934 55.2609 56.9208 55.4771 57.044C55.6486 57.1434 55.7305 57.2876 55.8067 57.4672C55.902 57.6984 55.9467 57.9477 55.7191 58.157L55.7219 58.1636C56.0182 58.0872 56.2192 58.2783 56.364 58.6212C56.4097 58.7311 56.4478 58.8457 56.463 58.9613C56.4973 59.3444 56.3649 59.566 56.0106 59.7151L55.1342 60.0781ZM57.5195 57.7366L57.9262 57.5207L57.4175 56.8663C57.3318 56.7593 57.2623 56.6466 57.1851 56.5368C57.1518 56.4814 57.1137 56.4259 57.0803 56.3763L57.0727 56.3791C57.0937 56.4365 57.1184 56.4985 57.1442 56.5578C57.1927 56.6839 57.2442 56.8062 57.2832 56.9361L57.5195 57.7366ZM57.3461 59.1304L56.6164 56.2588L57.2575 55.9206L59.1693 58.1694L58.6607 58.435L58.1968 57.856L57.6405 58.1512L57.8529 58.862L57.3461 59.1304ZM59.8409 57.7586L58.2863 55.335L58.7378 55.0427L60.0619 57.1138L60.9012 56.574L61.1298 56.9294L59.8409 57.7586ZM61.8347 56.4259L60.0896 54.137L60.5154 53.8094L62.0043 55.7658L62.7968 55.1573L63.0512 55.4926L61.8347 56.4259ZM65.2288 52.064C65.2631 52.1061 65.3031 52.1481 65.3364 52.1882C65.6898 52.578 65.8508 52.9907 65.4288 53.4129C64.8049 54.0405 64.3686 53.6852 63.8275 53.1416L63.536 52.8512C63.034 52.3162 62.6892 51.8902 63.2941 51.2807C63.6399 50.9444 64.0028 50.9291 64.3772 51.2491C64.4351 51.2939 64.4896 51.3431 64.5401 51.3963L64.1657 51.7717C64.0199 51.6571 63.7894 51.3991 63.6018 51.5883C63.3046 51.8873 63.6846 52.2188 63.8399 52.3754L64.4058 52.94C64.5725 53.1072 64.8621 53.368 65.1221 53.1063C65.3307 52.8961 64.9697 52.5866 64.8468 52.4471L65.2288 52.064ZM66.5634 52.1099L64.3619 50.2566L64.7068 49.8429L66.5853 51.4249L67.2254 50.6607L67.5493 50.9329L66.5634 52.1099ZM66.4605 47.5282L66.7682 47.0878L68.4123 48.239C68.9334 48.6039 69.0639 48.9459 68.6629 49.5258C68.258 50.1075 67.8913 50.1056 67.3693 49.7398L65.7232 48.5896L66.0309 48.1482L67.6379 49.2717C67.8637 49.4293 68.1018 49.5726 68.3104 49.2726C68.5105 48.986 68.2942 48.8141 68.0675 48.6526L66.4605 47.5282ZM69.6079 47.1098C69.6641 47.0124 69.7288 46.9187 69.7422 46.8137C69.7555 46.6541 69.6021 46.5433 69.4754 46.4726C69.2039 46.3188 69.0611 46.3102 68.8972 46.5987L68.7963 46.7802L69.5535 47.2101L69.6079 47.1098ZM68.4771 46.4841C68.5428 46.3713 68.6315 46.229 68.5791 46.1019C68.54 46.0207 68.4571 45.9672 68.338 45.8985C68.1513 45.7924 68.0342 45.7771 67.9084 45.9911L67.7846 46.207L68.4285 46.5729L68.4771 46.4841ZM69.6555 47.8865L67.154 46.4688L67.5807 45.7122C67.6932 45.5116 67.8189 45.3205 68.0637 45.2852C68.2618 45.2546 68.4143 45.3196 68.5829 45.4141C68.802 45.5383 68.9877 45.7055 68.9363 46.0131L68.9439 46.0169C69.1287 45.7724 69.4059 45.7982 69.7288 45.9816C69.8336 46.0408 69.9336 46.1058 70.0175 46.1898C70.2775 46.4688 70.3109 46.7267 70.1203 47.0611L69.6555 47.8865Z" fill="white"/>
<path d="M44.7587 56.4778C31.7463 56.4778 21.1982 45.8988 21.1982 32.8493C21.1982 19.7998 31.7463 9.22168 44.7587 9.22168C57.7711 9.22168 68.3211 19.8007 68.3211 32.8493C68.3211 45.8988 57.772 56.4778 44.7587 56.4778Z" fill="#570514"/>
<path d="M53.3138 53.5485C41.9075 58.2849 28.8332 52.855 24.1083 41.4161C19.3854 29.9801 24.8009 16.8667 36.2053 12.1293C47.6097 7.39384 60.6869 12.8228 65.4079 24.2598C70.1328 35.6986 64.7183 48.8111 53.3138 53.5485Z" fill="white"/>
<path d="M25.5486 23.3191C25.6001 23.1299 25.7506 22.9532 25.882 22.9207C25.9754 22.8978 26.0345 22.9541 26.0449 23.0545C26.047 23.1071 26.0418 23.1598 26.0297 23.2111C25.8773 23.7432 25.5667 25.4198 25.5667 25.4198C25.5667 25.4198 24.677 26.355 24.2559 26.7792C24.1464 26.8881 24.0283 26.8537 23.993 26.7037C23.9795 26.6185 23.9848 26.5314 24.0087 26.4485C24.0326 26.3656 24.0744 26.289 24.1312 26.2242C24.4636 25.885 24.8018 25.5373 25.1505 25.1619C25.2457 24.538 25.3791 23.9219 25.5486 23.3191ZM26.3964 23.7127C26.4298 23.5149 26.586 23.3124 26.7403 23.2608C26.8641 23.2207 26.9499 23.2809 26.9689 23.4012C26.9737 23.4426 26.9724 23.4844 26.9651 23.5254C26.8651 24.0919 26.7422 25.8325 26.7422 25.8325C26.7422 25.8325 25.7839 26.9511 25.3229 27.4527C25.2009 27.5845 25.0504 27.5711 24.9895 27.4202C24.9275 27.2674 24.9742 27.0381 25.0961 26.9043C25.4534 26.5088 25.8201 26.0828 26.1964 25.6405C26.2183 24.9937 26.284 24.3537 26.3964 23.7127ZM27.5948 24.0145C27.6052 23.9091 27.642 23.808 27.7018 23.7207C27.7616 23.6333 27.8424 23.5625 27.9368 23.5149C28.093 23.4519 28.2149 23.5111 28.2416 23.6525C28.2475 23.6807 28.2501 23.7096 28.2492 23.7385C28.2216 24.3021 28.3264 26.0618 28.3264 26.0618C28.3264 26.0618 27.329 27.34 26.8403 27.9408C26.7136 28.0994 26.5308 28.1128 26.4307 27.9714C26.3364 27.831 26.3602 27.5883 26.4879 27.4288C26.8737 26.9464 27.2557 26.4668 27.6405 25.9615C27.5792 25.3144 27.5642 24.6637 27.5957 24.0145M29.0751 24.1158C29.0589 23.9171 29.2056 23.6735 29.4057 23.5741C29.5905 23.4824 29.7562 23.5426 29.7962 23.7079L29.8067 23.7556C29.8582 24.325 30.2296 26.0598 30.2296 26.0598C30.2296 26.0598 29.2218 27.509 28.7122 28.1883C28.5798 28.3698 28.3616 28.408 28.2302 28.2781C28.1006 28.1491 28.1035 27.8959 28.234 27.7163C28.6246 27.1852 29.017 26.6244 29.4066 26.056C29.2447 25.4121 29.1323 24.7664 29.0742 24.1158M30.9041 24.283C30.8774 24.1941 30.853 24.1046 30.8307 24.0145C30.7783 23.8235 30.9127 23.5627 31.1318 23.4404C31.3509 23.3095 31.5738 23.3668 31.6252 23.5598C31.649 23.6496 31.6738 23.7365 31.7005 23.8216C31.8367 24.2801 32.453 25.7819 32.453 25.7819C32.453 25.7819 31.468 27.3772 30.9641 28.1548C30.8308 28.3602 30.5831 28.4347 30.4068 28.3258C30.2363 28.215 30.2039 27.96 30.3344 27.7517C30.7296 27.1381 31.1167 26.5193 31.4956 25.8955C31.2575 25.3606 31.0613 24.8189 30.9031 24.283M33.8762 25.4561C33.4761 24.8734 33.1293 24.2792 32.8464 23.6735C32.7578 23.4872 32.8779 23.2207 33.1055 23.0716C33.3427 22.9255 33.6009 22.9503 33.6914 23.1347C33.9438 23.6592 34.9478 25.2335 34.9478 25.2335C34.9478 25.2335 34.0496 26.9578 33.559 27.8004C33.4275 28.0259 33.1494 28.1338 32.9379 28.0421C32.7283 27.9504 32.6616 27.6934 32.7912 27.467C33.1694 26.8107 33.5304 26.1325 33.8771 25.4561M36.4958 24.7406C35.9894 24.2284 35.5184 23.6823 35.086 23.106C34.9612 22.9369 35.0479 22.6609 35.2841 22.4927C35.5223 22.3227 35.8195 22.3208 35.9471 22.4908C36.3091 22.9666 37.6427 24.4024 37.6427 24.4024C37.6427 24.4024 36.8825 26.2012 36.451 27.1088C36.331 27.3543 36.0376 27.4985 35.789 27.4336C35.5413 27.3696 35.4346 27.1212 35.5461 26.8795C35.8862 26.1563 36.2033 25.4475 36.4958 24.7406ZM38.5144 25.9576C38.7906 25.2134 39.0383 24.4826 39.2516 23.7604C38.6358 23.3115 38.0456 22.8283 37.4836 22.3131C37.3198 22.1593 37.3722 21.8852 37.6037 21.6989C37.8323 21.5116 38.159 21.483 38.3238 21.6358C38.7925 22.0562 40.4214 23.0936 40.4214 23.0936C40.4214 23.0936 39.8727 25.1609 39.5203 26.0971C39.425 26.3512 39.123 26.5232 38.8449 26.4869C38.5705 26.4487 38.42 26.2117 38.5144 25.9576ZM41.9703 25.2488C41.6779 25.2335 41.4931 25.0147 41.5607 24.7578C41.7489 24.0358 41.9037 23.3055 42.0247 22.5692C41.313 22.1857 40.6191 21.77 39.9451 21.3234C39.7479 21.1897 39.7603 20.9241 39.9794 20.7311C40.1976 20.5363 40.5319 20.4828 40.7301 20.6156C41.2959 20.9862 43.1611 21.8899 43.1611 21.8899C43.1611 21.8899 42.8763 23.877 42.6296 24.8122C42.5591 25.0682 42.2676 25.2612 41.9703 25.2488ZM44.5385 23.3544C44.6217 22.6465 44.6706 21.9349 44.6852 21.2222C43.9047 20.9044 43.1334 20.5641 42.3723 20.2019C42.1456 20.0911 42.1123 19.8389 42.3 19.6392C42.4857 19.4396 42.8248 19.366 43.0534 19.474C43.6821 19.7692 45.7293 20.541 45.7293 20.541C45.7293 20.541 45.7198 22.3886 45.6216 23.3095C45.5931 23.5598 45.3282 23.7719 45.031 23.7843C44.7329 23.7986 44.5109 23.6047 44.5385 23.3544ZM47.2868 21.7753C47.2687 21.0865 47.1963 20.4159 47.0915 19.7749C46.2656 19.5264 45.4461 19.2569 44.6338 18.9667C44.3833 18.8788 44.3099 18.6457 44.4671 18.447C44.6233 18.2521 44.9462 18.1642 45.193 18.2521C45.875 18.4957 48.0193 19.1262 48.0193 19.1262C48.0193 19.1262 48.3022 20.8123 48.3298 21.6769C48.3337 21.9148 48.1088 22.1278 47.8202 22.1546C47.5316 22.1842 47.2925 22.0132 47.2868 21.7753ZM49.6825 20.1398C49.5526 19.5155 49.3794 18.901 49.1643 18.3008C48.3175 18.106 47.4801 17.9044 46.6618 17.6942C46.4037 17.6254 46.2808 17.4172 46.3999 17.2261C46.5113 17.0379 46.8124 16.9367 47.0667 17.0055C47.7659 17.1831 49.9464 17.6952 49.9464 17.6952C49.9464 17.6952 50.4703 19.1807 50.6447 19.9822C50.6932 20.2019 50.518 20.4149 50.2541 20.4598C49.9874 20.5019 49.7302 20.3614 49.6825 20.1398ZM51.6373 18.4881C51.4137 17.9169 51.1455 17.3643 50.8352 16.8354C50.0178 16.7055 49.1967 16.5631 48.3718 16.4103C48.1088 16.3625 47.9564 16.1762 48.0298 15.9957C48.1041 15.819 48.3699 15.7129 48.6261 15.7645C49.331 15.8973 51.4648 16.2718 51.4648 16.2718C51.4648 16.2718 51.8668 16.9462 52.0469 17.3035C52.2107 17.6254 52.3612 17.9598 52.4955 18.3037C52.5765 18.4996 52.4479 18.704 52.2126 18.7546C51.9764 18.8062 51.7173 18.6906 51.6373 18.4881ZM53.1414 16.8965C52.8288 16.3862 52.4819 15.8979 52.1031 15.4349C51.3171 15.35 50.5319 15.2592 49.7473 15.1627C49.4939 15.1292 49.3101 14.9716 49.3415 14.8054C49.3701 14.643 49.5987 14.5379 49.8483 14.5666C50.5256 14.6525 52.5613 14.8961 52.5613 14.8961C52.5613 14.8961 53.4796 16.0425 53.8759 16.6845C53.8825 16.6921 53.8854 16.6988 53.8892 16.7084C53.9768 16.8765 53.8987 17.0504 53.7082 17.1077C53.6037 17.1353 53.4932 17.1299 53.3919 17.0921C53.2906 17.0543 53.2034 16.986 53.1423 16.8965M54.1826 15.3786C53.813 14.9296 53.4014 14.5064 52.9709 14.1118C52.2564 14.0736 51.521 14.0259 50.7628 13.9714C50.5227 13.9542 50.3198 13.8166 50.3151 13.6657C50.3055 13.5167 50.4961 13.4106 50.7342 13.4317C51.382 13.4794 53.2776 13.6132 53.2776 13.6132C53.2776 13.6132 54.335 14.6038 54.7999 15.1636C54.814 15.1795 54.8264 15.1968 54.837 15.2152C54.918 15.3537 54.8751 15.498 54.7265 15.5505C54.5531 15.6078 54.3131 15.5352 54.1835 15.3786M54.8237 13.9781C54.3855 13.5816 53.9435 13.2234 53.4767 12.89C52.8251 12.8833 52.1469 12.8718 51.4572 12.8575C51.2286 12.8546 51.0114 12.74 50.9695 12.6044C50.9304 12.4716 51.0781 12.3703 51.3029 12.3741C51.8944 12.3885 53.6377 12.4267 53.6377 12.4267C53.6377 12.4267 54.7856 13.2673 55.3181 13.7526C55.3438 13.7764 55.3668 13.803 55.3867 13.8319C55.4591 13.9408 55.4467 14.0526 55.3371 14.1051C55.199 14.1682 54.9694 14.1109 54.8227 13.9771M63.9705 42.3602C63.9181 42.5484 63.7685 42.7261 63.6361 42.7596C63.5437 42.7806 63.4846 42.7252 63.4742 42.6249C63.4724 42.5721 63.4779 42.5194 63.4903 42.4682C63.6409 41.938 63.9523 40.2576 63.9523 40.2576C63.9523 40.2576 64.8421 39.3233 65.2631 38.9011C65.3708 38.7883 65.4908 38.8247 65.526 38.9775C65.5398 39.0621 65.5345 39.1487 65.5106 39.231C65.4867 39.3133 65.4448 39.3892 65.3879 39.4532C65.0545 39.7943 64.7173 40.142 64.3667 40.5174C64.2715 41.1384 64.1381 41.7574 63.9705 42.3602ZM63.1227 41.9667C63.0893 42.1625 62.9331 42.3669 62.7769 42.4166C62.6549 42.4577 62.5682 42.3984 62.5482 42.279C62.5445 42.2366 62.5464 42.1939 62.5539 42.152C62.6521 41.5864 62.7749 39.8459 62.7749 39.8459C62.7749 39.8459 63.7352 38.7272 64.1953 38.2257C64.3191 38.0919 64.4677 38.1082 64.5287 38.2591C64.5896 38.411 64.5449 38.6412 64.421 38.775C64.0657 39.1695 63.698 39.5965 63.3227 40.0379C63.3012 40.6847 63.2344 41.3292 63.1227 41.9667ZM61.9243 41.6648C61.9137 41.7702 61.8768 41.8712 61.8171 41.9585C61.7573 42.0458 61.6766 42.1166 61.5823 42.1644C61.4261 42.2275 61.3042 42.1682 61.2775 42.0259C61.2699 41.9991 61.2689 41.9705 61.2699 41.939C61.2984 41.3753 61.1927 39.6156 61.1927 39.6156C61.1927 39.6156 62.1901 38.3384 62.6787 37.7385C62.8064 37.5789 62.9874 37.5665 63.0884 37.7079C63.1817 37.8474 63.1588 38.09 63.0312 38.2486C62.6403 38.7335 62.2554 39.2233 61.8767 39.7179C61.9405 40.3694 61.9538 41.0266 61.9243 41.6648ZM60.444 41.5626C60.4592 41.7632 60.3135 42.0049 60.1125 42.1052C59.9286 42.1969 59.7619 42.1348 59.7219 41.9733L59.7124 41.9237C59.66 41.3533 59.2875 39.6185 59.2875 39.6185C59.2875 39.6185 60.2973 38.1684 60.805 37.4891C60.9384 37.3076 61.1575 37.2694 61.287 37.4012C61.4185 37.5302 61.4147 37.7815 61.2832 37.963C60.8945 38.4941 60.5021 39.053 60.1115 39.6223C60.2734 40.2662 60.3868 40.912 60.4449 41.5616M58.615 41.3954C58.6416 41.4852 58.6655 41.574 58.6883 41.6648C58.7388 41.8558 58.6064 42.1166 58.3873 42.2389C58.1673 42.3669 57.9453 42.3115 57.8939 42.1176C57.8691 42.0316 57.8453 41.9428 57.8186 41.8558C57.6814 41.3992 57.0661 39.8956 57.0661 39.8956C57.0661 39.8956 58.0501 38.3021 58.555 37.5245C58.6883 37.32 58.935 37.2436 59.1122 37.3535C59.2818 37.4633 59.3142 37.7194 59.1827 37.9267C58.7864 38.5476 58.4016 39.1561 58.0225 39.7828C58.2606 40.3159 58.4578 40.8595 58.6159 41.3954M55.641 40.2232C56.043 40.806 56.3897 41.3992 56.6717 42.0058C56.7593 42.1902 56.6403 42.4577 56.4116 42.6077C56.1754 42.7548 55.9163 42.7261 55.8277 42.5437C55.5743 42.0192 54.5731 40.4448 54.5731 40.4448C54.5731 40.4448 55.4686 38.7215 55.9601 37.8779C56.0916 37.6525 56.3688 37.5436 56.5812 37.6372C56.7908 37.728 56.8575 37.9859 56.7279 38.2104C56.3507 38.873 55.9877 39.5441 55.641 40.2232ZM53.0252 40.9368C53.5295 41.4506 53.9998 41.997 54.4331 42.5723C54.5569 42.7424 54.4712 43.0156 54.234 43.1856C53.9959 43.3576 53.7006 43.3595 53.572 43.1885C53.21 42.7118 51.8764 41.2769 51.8764 41.2769C51.8764 41.2769 52.6356 39.48 53.068 38.5677C53.1862 38.3241 53.4815 38.1789 53.7301 38.2429C53.9778 38.3078 54.0825 38.5581 53.9711 38.7989C53.632 39.522 53.3167 40.2318 53.0252 40.9368ZM51.0038 39.7198C50.7275 40.4659 50.4808 41.1967 50.2655 41.9179C50.9076 42.3841 51.5039 42.878 52.0354 43.3662C52.1974 43.519 52.1478 43.7913 51.9154 43.9776C51.6868 44.1667 51.361 44.1954 51.1933 44.0425C50.7256 43.6222 49.0976 42.5866 49.0976 42.5866C49.0976 42.5866 49.6444 40.5184 49.9978 39.5813C50.0931 39.3262 50.3941 39.1542 50.6742 39.1924C50.9466 39.2326 51.0981 39.4666 51.0038 39.7198ZM47.5468 40.4324C47.8412 40.4448 48.026 40.6646 47.9564 40.9196C47.7689 41.6424 47.6144 42.3733 47.4935 43.1102C48.2308 43.5133 48.9205 43.9136 49.573 44.3549C49.7711 44.4877 49.7587 44.7533 49.5387 44.9482C49.3215 45.1421 48.9862 45.1937 48.7881 45.0628C48.2222 44.6921 46.358 43.7903 46.358 43.7903C46.358 43.7903 46.6409 41.8023 46.8895 40.8661C46.96 40.6111 47.2515 40.4181 47.5468 40.4324ZM44.9796 42.3239C44.896 43.0318 44.8474 43.7435 44.8338 44.4562C45.6426 44.7829 46.4208 45.1344 47.1467 45.4784C47.3725 45.5873 47.4049 45.8366 47.2191 46.0401C47.0334 46.2388 46.6943 46.3133 46.4637 46.2053C45.8369 45.9082 43.7888 45.1383 43.7888 45.1383C43.7888 45.1383 43.7993 43.2907 43.8993 42.3679C43.927 42.1205 44.1889 41.9074 44.4871 41.896C44.7881 41.8797 45.0082 42.0727 44.9796 42.3239ZM42.2323 43.904C42.2514 44.5918 42.3209 45.2634 42.4266 45.9006C43.2668 46.1566 44.087 46.426 44.8843 46.7107C45.1339 46.7995 45.2092 47.0355 45.0529 47.2294C44.8957 47.4281 44.5728 47.516 44.3261 47.4281C43.644 47.1836 41.5007 46.5531 41.5007 46.5531C41.5007 46.5531 41.2169 44.867 41.1883 44.0005C41.1845 43.7636 41.4102 43.5506 41.6979 43.5209C41.9865 43.4951 42.2275 43.6642 42.2323 43.904ZM39.8346 45.5385C39.9737 46.1901 40.1433 46.7976 40.3548 47.3785C41.1997 47.5743 42.038 47.7749 42.8572 47.9841C43.1154 48.0529 43.2382 48.2612 43.1192 48.4522C43.0068 48.6414 42.7086 48.7407 42.4514 48.6739C41.7513 48.4952 39.5708 47.9841 39.5708 47.9841C39.5708 47.9841 39.0487 46.4996 38.8744 45.6971C38.8239 45.4774 39.0002 45.2644 39.265 45.2204C39.5317 45.1765 39.7889 45.3169 39.8346 45.5385ZM37.8799 47.1912C38.1046 47.7613 38.3728 48.3132 38.682 48.842C39.5003 48.9738 40.3224 49.1152 41.1473 49.269C41.4093 49.3168 41.5607 49.5021 41.4893 49.6836C41.415 49.8584 41.1492 49.9654 40.892 49.9139C39.9468 49.7424 39.0012 49.573 38.0552 49.4056C38.0552 49.4056 37.6523 48.7331 37.4722 48.3749C37.3084 48.0529 37.1578 47.7186 37.0216 47.3756C36.9426 47.1788 37.0702 46.9744 37.3055 46.9228C37.5437 46.8731 37.8008 46.9897 37.8799 47.1912ZM36.3777 48.7818C36.7006 49.3063 37.0416 49.7868 37.416 50.2444C38.2017 50.3283 38.9867 50.4187 39.7708 50.5157C40.0242 50.5472 40.2081 50.7068 40.1776 50.872C40.149 51.0373 39.9204 51.1433 39.6698 51.1137C38.9935 51.0268 36.9559 50.7832 36.9559 50.7832C36.9559 50.7832 36.0386 49.6368 35.6413 48.9939C35.6356 48.987 35.6316 48.9788 35.6299 48.97C35.5423 48.8028 35.6185 48.628 35.809 48.5697C35.914 48.5424 36.0249 48.5481 36.1266 48.586C36.2283 48.6239 36.316 48.6923 36.3777 48.7818ZM35.3365 50.2998C35.7061 50.7488 36.1176 51.1729 36.5463 51.5665C37.2617 51.6057 37.9971 51.6525 38.7563 51.707C38.9973 51.7242 39.1993 51.8608 39.2059 52.0127C39.2126 52.1626 39.0221 52.2677 38.7868 52.2477C38.1362 52.198 36.2405 52.0652 36.2405 52.0652C36.2405 52.0652 35.1831 51.0736 34.7192 50.5147C34.705 50.4988 34.6922 50.4815 34.6811 50.4631C34.6001 50.3265 34.643 50.1813 34.7926 50.1269C34.9659 50.0705 35.206 50.146 35.3356 50.2998M34.6954 51.7022C35.1336 52.0977 35.5756 52.4569 36.0414 52.7865C36.692 52.7941 37.3722 52.8056 38.0609 52.8218C38.2895 52.8247 38.5067 52.9393 38.5486 53.075C38.5877 53.2068 38.441 53.309 38.2181 53.3042C37.6246 53.2889 35.8814 53.2517 35.8814 53.2517C35.8814 53.2517 34.7335 52.411 34.201 51.9257C34.176 51.902 34.1528 51.8764 34.1315 51.8493C34.0591 51.7375 34.0743 51.6258 34.182 51.5742C34.3191 51.5121 34.5497 51.5675 34.6964 51.7022" fill="#7D0521"/>
<path d="M79.8005 21.6885L79.7415 21.6932L76.8932 24.862L76.4055 21.9989L69.2868 22.6562L68.9038 23.451C68.3132 23.0928 67.5912 22.9046 66.8015 22.9046C66.6443 22.9046 66.4842 22.9141 66.3271 22.9265L61.8451 23.3392C60.401 23.473 58.7711 24.2181 57.4556 25.3377C56.7202 24.4053 55.4523 23.9277 54.0215 24.0605L49.5386 24.4722L24.5788 26.7716L27.3556 23.686L14.849 24.84L14.1231 26.3417L6.95773 27.0009L3.75416 33.6059L5.24023 33.4702L0.000976562 44.2375L8.12085 43.4924L9.76693 40.1087L11.7502 45.98L19.3757 45.2778L18.4527 42.5409L21.2723 42.282L24.7998 35.0331L24.4549 41.9868L30.9773 41.3869L31.0469 41.3802L32.07 39.8651L32.0004 41.2904L38.5199 40.6905L38.5895 40.6847L40.1622 38.3557C40.2098 38.4531 40.2613 38.5467 40.3175 38.6375C41.0234 39.7695 42.3208 40.3379 43.944 40.1899L48.3945 39.7829C49.8539 39.6473 51.4952 38.8993 52.8117 37.7739C53.468 38.6203 54.5054 39.0827 55.759 39.0827C55.9171 39.0827 56.0819 39.075 56.2496 39.0588L60.7001 38.6499C61.587 38.5678 62.5195 38.2754 63.4197 37.8035L63.1168 38.4283L71.2358 37.6803L71.6835 36.7641L72.1645 39.5947L74.125 37.4166L81.3551 36.7479L89.1016 20.8315L79.8005 21.6885Z" fill="#570514"/>
<path d="M13.4087 29.9529L14.3536 29.865L12.378 32.0603L13.4087 29.9529ZM16.2007 38.8917L15.0576 35.5061L21.138 28.7473L16.2007 38.8917ZM50.9779 29.3186L48.5869 34.2336L46.9866 34.3817L49.3776 29.4657L50.9779 29.3186ZM63.2835 28.1865L60.8906 33.1035L59.2921 33.2497L61.6822 28.3337L63.2835 28.1865ZM80.3044 22.4241L80.2473 22.4308L76.2207 26.9055L75.5329 22.8626L69.9745 23.3756L69.1886 25.0035C69.1518 24.9204 69.1088 24.8403 69.06 24.7637C68.6266 24.0663 67.8283 23.6823 66.8148 23.6823C66.689 23.6823 66.5547 23.689 66.4223 23.7014L61.9403 24.1141C60.2238 24.2707 58.29 25.4181 57.085 26.9523C57.0648 26.5779 56.9512 26.2146 56.7544 25.8957C56.321 25.1983 55.5227 24.8162 54.5063 24.8162C54.3806 24.8162 54.2491 24.8229 54.1167 24.8334L49.6338 25.248C48.767 25.3273 47.7991 25.676 46.8961 26.2262L47.42 25.4505L41.5797 25.9893L38.7286 30.2118L38.9267 26.231L34.0351 26.6838L31.185 30.9034L31.3822 26.9265L21.9953 27.7939L24.7712 24.7092L15.5368 25.5614L14.808 27.0612L7.64168 27.7203L5.51358 32.1119L7.00439 31.9762L1.76514 42.7425L7.43496 42.2209L9.94217 37.0671L12.478 44.5796L17.9516 44.0742L17.0266 41.3373L20.5855 41.0115L25.117 31.7021L26.0067 31.618L25.5647 40.5501L30.4543 40.1002L33.3026 35.8825L33.1082 39.8537L37.997 39.4047L42.0359 33.4235L41.2853 34.9683C40.7642 36.0401 40.7366 37.047 41.2091 37.8046C41.6435 38.501 42.4408 38.886 43.4515 38.886C43.5801 38.886 43.7125 38.8783 43.8468 38.8669L48.2983 38.457C50.0387 38.2975 51.9867 37.1444 53.1851 35.6007C53.207 35.9952 53.3184 36.3554 53.5156 36.6725C54.0043 37.4559 54.9521 37.8447 56.1534 37.7348L60.6029 37.325C62.7462 37.1272 65.1858 35.4087 66.1565 33.4111L68.9524 27.6659L69.4096 27.6239L64.88 36.9314L70.5499 36.4117L72.1693 33.0892L72.8351 36.9983L76.4893 32.9382L74.9994 36.0019L80.6693 35.4793L87.3364 21.7793L80.3044 22.4241Z" fill="#EB008A"/>
<path d="M23.0508 25.5728L15.9931 26.2243L14.5813 29.139L16.0731 29.0033L10.1727 35.5605L12.9648 43.8287L17.0038 43.4562L14.2622 35.3408L23.0508 25.5728ZM80.5835 23.1043L75.7739 28.4512L74.9528 23.6211L70.4318 24.0376L69.0267 26.9542L70.5851 26.8061L66.0546 36.1194L70.0936 35.7468L72.4961 30.8241L73.2829 35.4526L79.2985 28.7683L76.174 35.188L80.213 34.8154L86.1619 22.5913L80.5835 23.1043Z" fill="white"/>
<path d="M22.0402 28.4937L16.0913 40.7188L20.1293 40.3472L26.0792 28.1212L22.0402 28.4937ZM8.09904 28.3848L6.68635 31.2985L8.17907 31.1638L2.93982 41.9282L6.97784 41.5585L13.6365 27.8747L8.09904 28.3848ZM49.0433 34.8972L45.8121 35.1943L48.9214 28.8023L52.1516 28.5062L49.0433 34.8972ZM54.1816 25.5332L49.6987 25.945C47.9107 26.1102 45.8369 27.5279 44.8824 29.1739L41.9142 35.2764C41.053 37.0466 41.8903 38.3429 43.7822 38.1672L48.2337 37.7573C50.1284 37.5825 52.3612 36.0072 53.2224 34.2361L56.0497 28.424C56.9118 26.6519 56.0754 25.3594 54.1816 25.5332ZM61.348 33.7642L58.1158 34.0622L61.227 27.6712L64.4572 27.3732L61.348 33.7642ZM66.4872 24.3993L62.0043 24.8129C60.2173 24.9773 58.1416 26.394 57.188 28.0419L54.2197 34.1463C53.3586 35.9146 54.1959 37.2071 56.0887 37.0351L60.5392 36.6253C62.432 36.4505 64.6659 34.8742 65.527 33.104L68.3552 27.291C69.2173 25.5199 68.381 24.2264 66.4872 24.3993ZM41.9732 26.6567L37.9056 32.6818L38.1876 27.0054L34.4297 27.3512L30.3621 33.3753L30.6431 27.7008L26.5946 28.0763L25.1809 30.9909L26.747 30.8447L26.305 39.7759L30.0601 39.431L34.1248 33.4107L33.8486 39.0833L37.6046 38.7356L46.0113 26.2851L41.9732 26.6567Z" fill="white"/>
<path d="M8.17913 31.1642L10.9083 29.5201L7.39323 29.8421L6.6864 31.2999L8.17913 31.1642ZM16.0732 29.0033L19.656 27.2866L15.2874 27.6821L14.5815 29.139L16.0732 29.0033Z" fill="#D1D1D1"/>
<path d="M23.0509 25.5728L19.6559 27.2866L12.2428 35.5271L14.9863 43.6443L12.9649 43.8287L17.0039 43.4562L14.2623 35.3408L23.0509 25.5728ZM71.996 27.8952L68.7829 34.4772L66.0547 36.1194L70.0937 35.7468L72.4961 30.8241L71.996 27.8952ZM74.0498 30.3685L75.774 28.4512L74.9529 23.6211L73.1267 24.9528L74.0498 30.3685ZM83.4328 24.2354L78.9033 33.5458L76.1751 35.1889L80.2121 34.8164L86.162 22.5913L83.4328 24.2354ZM81.4791 24.286L74.4966 32.0412L73.283 35.4526L79.2986 28.7683L81.4791 24.286Z" fill="#D1D1D1"/>
<path d="M23.3424 29.7846L18.8176 39.0807L16.0923 40.719L20.1303 40.3474L26.0802 28.1214L23.3424 29.7846ZM10.9082 29.52L5.66898 40.2824L2.93982 41.9284L6.97784 41.5587L13.6365 27.8749L10.9082 29.52ZM35.7357 35.8947L37.9056 32.682L38.1876 27.0056L36.0967 28.5943L35.7357 35.8947ZM34.2715 30.3874L29.0408 38.1349L26.305 39.7761L30.0601 39.4313L34.1248 33.4109L34.2715 30.3874ZM42.9877 27.958L36.5844 37.4423L33.8476 39.0826L37.6046 38.7358L46.0112 26.2853L42.9877 27.958ZM26.747 30.845L28.555 29.2878L25.8887 29.5314L25.1809 30.9911L26.747 30.845ZM70.5852 26.8059L73.1268 24.9526L69.826 25.2574L69.0192 26.954L70.5852 26.8059Z" fill="#D1D1D1"/>
<path d="M28.191 36.5893L30.3629 33.3756L30.643 27.7011L28.5549 29.2879L28.191 36.5893ZM49.6291 27.3476L46.9009 28.9879L43.0801 36.8434L45.8121 35.1964L48.9213 28.8026L52.1516 28.5064L54.8798 26.8643L49.6291 27.3476Z" fill="#D1D1D1"/>
<path d="M56.0743 26.146L54.8798 26.8644L51.0561 34.7228L48.344 36.3602L43.08 36.8435L41.894 37.56C42.2541 38.0119 42.9038 38.2488 43.7821 38.1676L48.2335 37.7578C48.3259 37.7501 48.4212 37.7348 48.5155 37.7196C50.3435 37.4253 52.4021 35.9207 53.2213 34.2365L56.0495 28.4244C56.5106 27.4768 56.4849 26.6686 56.0743 26.146ZM61.9356 26.2158L59.2074 27.856L55.3866 35.7115L58.1157 34.0627L61.2269 27.6717L64.4571 27.3736L67.1863 25.7305L61.9356 26.2158Z" fill="#D1D1D1"/>
<path d="M68.381 25.0137L67.1864 25.7321L63.3618 33.5904L60.6507 35.2278L55.3867 35.7112L54.2017 36.4277C54.5608 36.8795 55.2114 37.1145 56.0888 37.0352L60.5393 36.6254C60.6326 36.6178 60.7269 36.6015 60.8212 36.5872C62.6483 36.2939 64.7078 34.7884 65.527 33.1042L68.3553 27.2911C68.8173 26.3444 68.7906 25.5343 68.381 25.0137Z" fill="#D1D1D1"/>
</g>
<defs>
<clipPath id="clip0_3029_2885">
<rect width="89.1" height="65.7" fill="white"/>
</clipPath>
</defs>
</svg>
