<svg width="95" height="90" viewBox="0 0 95 90" fill="none" xmlns="http://www.w3.org/2000/svg">
<g clip-path="url(#clip0_3029_3259)">
<mask id="mask0_3029_3259" style="mask-type:luminance" maskUnits="userSpaceOnUse" x="7" y="10" width="82" height="72">
<path d="M7 10.7998H88.0515V81.4544H7V10.7998Z" fill="white"/>
</mask>
<g mask="url(#mask0_3029_3259)">
<path d="M47.499 11.6152C28.8624 11.6152 13.7528 26.9653 13.7528 45.9008C13.7528 64.8346 28.8624 80.1842 47.499 80.1842C66.1382 80.1842 81.2452 64.8346 81.2452 45.9008C81.2452 26.9653 66.1382 11.6152 47.499 11.6152Z" fill="#FC4E00"/>
</g>
<mask id="mask1_3029_3259" style="mask-type:luminance" maskUnits="userSpaceOnUse" x="7" y="10" width="82" height="72">
<path d="M7 10.7998H88.0515V81.4544H7V10.7998Z" fill="white"/>
</mask>
<g mask="url(#mask1_3029_3259)">
<path d="M47.4991 12.4307C29.3341 12.4307 14.5555 27.4445 14.5555 45.9008C14.5555 64.3549 29.3341 79.3687 47.4991 79.3687C65.664 79.3687 80.4426 64.3549 80.4426 45.9008C80.4426 27.4445 65.6645 12.4307 47.4991 12.4307ZM47.4991 81.0002C28.4499 81.0002 12.9502 65.2559 12.9502 45.9008C12.9502 26.5457 28.4499 10.7998 47.4991 10.7998C66.5509 10.7998 82.05 26.5462 82.05 45.9008C82.05 65.2553 66.5509 81.0002 47.4991 81.0002Z" fill="white"/>
</g>
<mask id="mask2_3029_3259" style="mask-type:luminance" maskUnits="userSpaceOnUse" x="7" y="10" width="82" height="72">
<path d="M7 10.7998H88.0515V81.4544H7V10.7998Z" fill="white"/>
</mask>
<g mask="url(#mask2_3029_3259)">
<path d="M47.499 11.6152C28.8624 11.6152 13.7528 26.9653 13.7528 45.9008C13.7528 64.8346 28.8624 80.1842 47.499 80.1842C66.1382 80.1842 81.2452 64.8346 81.2452 45.9008C81.2452 26.9653 66.1382 11.6152 47.499 11.6152Z" fill="#FC4E00"/>
</g>
<mask id="mask3_3029_3259" style="mask-type:luminance" maskUnits="userSpaceOnUse" x="7" y="10" width="82" height="72">
<path d="M7 10.7998H88.0515V81.4544H7V10.7998Z" fill="white"/>
</mask>
<g mask="url(#mask3_3029_3259)">
<path d="M33.1742 69.6408C33.5131 69.8629 33.7667 69.848 33.9319 69.5909L34.1014 69.3295C34.2687 69.0685 34.1829 68.8264 33.8441 68.6033L32.3752 67.638L31.7054 68.6755L33.1742 69.6408ZM32.872 70.1078L31.4052 69.1404L30.7432 70.1657L32.21 71.1304C32.5509 71.3546 32.8025 71.3381 32.9698 71.0831L33.1293 70.834C33.2966 70.5726 33.2129 70.3314 32.872 70.1078ZM33.7808 70.3771C33.8805 70.6448 33.8465 70.9085 33.6789 71.1681L33.4885 71.4624C33.3295 71.7094 33.1089 71.855 32.8328 71.8964C32.5689 71.934 32.2694 71.8419 31.9344 71.6202L29.9019 70.2841L32.1446 66.8125L34.1751 68.1507C34.5119 68.3727 34.7142 68.6113 34.7838 68.8726C34.8591 69.1468 34.8141 69.4081 34.653 69.6594L34.4528 69.9665C34.2854 70.2278 34.0627 70.3628 33.7808 70.3771Z" fill="#F3F3F4"/>
</g>
<mask id="mask4_3029_3259" style="mask-type:luminance" maskUnits="userSpaceOnUse" x="7" y="10" width="82" height="72">
<path d="M7 10.7998H88.0515V81.4544H7V10.7998Z" fill="white"/>
</mask>
<g mask="url(#mask4_3029_3259)">
<path d="M36.3464 72.2863L35.4251 71.857C35.1291 71.7178 34.921 71.7779 34.8065 72.0334L34.7615 72.1264C34.647 72.3776 34.739 72.5747 35.035 72.7118L35.9564 73.1416C36.261 73.2843 36.4707 73.2289 36.5854 72.9753L36.6262 72.8818C36.7447 72.6264 36.6515 72.4279 36.3464 72.2863ZM34.6653 73.1538C34.3937 73.0266 34.214 72.8496 34.1262 72.6225C34.0341 72.392 34.0425 72.1577 34.1549 71.9149L34.2449 71.7136C34.3589 71.4666 34.5288 71.3051 34.7615 71.2259C34.9905 71.1416 35.241 71.163 35.5129 71.2902L37.0309 71.9978L37.0367 71.9835C37.1758 71.6822 37.0796 71.4543 36.7527 71.3029L35.0679 70.5162L35.2943 70.0142L36.9713 70.7967C37.321 70.9599 37.5471 71.1742 37.6495 71.4395C37.7583 71.7016 37.7372 71.9976 37.5863 72.3277L37.1308 73.3259C37.014 73.5816 36.8369 73.7427 36.5995 73.8093C36.383 73.872 36.1341 73.8364 35.8523 73.7079L34.6653 73.1538Z" fill="#F3F3F4"/>
</g>
<mask id="mask5_3029_3259" style="mask-type:luminance" maskUnits="userSpaceOnUse" x="7" y="10" width="82" height="72">
<path d="M7 10.7998H88.0515V81.4544H7V10.7998Z" fill="white"/>
</mask>
<g mask="url(#mask5_3029_3259)">
<path d="M40.1539 73.3258C40.485 73.4295 40.7111 73.5569 40.8321 73.7077C40.9869 73.8983 41.0223 74.1334 40.9382 74.4132L40.8692 74.6353C40.7866 74.9115 40.6285 75.0852 40.3949 75.1564C40.2135 75.2079 39.9541 75.183 39.621 75.0794L37.6721 74.4754L37.8337 73.9362L39.7821 74.5418C40.0512 74.6246 40.214 74.5735 40.2705 74.3882L40.3071 74.2682C40.3625 74.0791 40.2584 73.942 39.9886 73.8591L38.9794 73.5436C38.6526 73.4421 38.4283 73.3199 38.3054 73.1722C38.1541 72.9799 38.1201 72.7462 38.2034 72.471L38.2709 72.2447C38.3566 71.9605 38.514 71.7862 38.7425 71.7156C38.9266 71.6593 39.1839 71.6821 39.5086 71.7841L41.3775 72.3632L41.2143 72.9024L39.3575 72.3255C39.0918 72.2426 38.9304 72.2966 38.8733 72.4875L38.8366 72.6102C38.7791 72.7988 38.8837 72.9316 39.1452 73.0123L40.1539 73.3258Z" fill="#F3F3F4"/>
</g>
<mask id="mask6_3029_3259" style="mask-type:luminance" maskUnits="userSpaceOnUse" x="7" y="10" width="82" height="72">
<path d="M7 10.7998H88.0515V81.4544H7V10.7998Z" fill="white"/>
</mask>
<g mask="url(#mask6_3029_3259)">
<path d="M42.8521 74.1811L43.8571 74.3489C44.1834 74.4031 44.3687 74.2931 44.413 74.019L44.4292 73.917C44.4745 73.6394 44.3337 73.4735 44.0067 73.4193L43.0016 73.2514C42.6767 73.1972 42.4928 73.3091 42.45 73.5871L42.4337 73.6891C42.3895 73.9629 42.5289 74.1269 42.8521 74.1811ZM45.0687 73.9691L45.0337 74.1827C44.9925 74.4472 44.8686 74.6478 44.6619 74.7845C44.4639 74.9241 44.2174 74.9691 43.9225 74.9195L42.2805 74.6459L42.2763 74.6666C42.2251 74.9917 42.3762 75.1833 42.7297 75.2414L44.6682 75.5649L44.5803 76.1148L42.6481 75.7934C42.2727 75.7307 41.9983 75.586 41.8251 75.3593C41.655 75.1376 41.5983 74.8486 41.6551 74.4924L41.8272 73.4299C41.87 73.1621 41.9926 72.9587 42.1948 72.8195C42.3935 72.6785 42.6419 72.6329 42.9399 72.6824L44.2394 72.8987C44.5378 72.9482 44.7597 73.0727 44.905 73.2721C45.0577 73.469 45.1123 73.7014 45.0687 73.9691Z" fill="#F3F3F4"/>
</g>
<mask id="mask7_3029_3259" style="mask-type:luminance" maskUnits="userSpaceOnUse" x="7" y="10" width="82" height="72">
<path d="M7 10.7998H88.0515V81.4544H7V10.7998Z" fill="white"/>
</mask>
<g mask="url(#mask7_3029_3259)">
<path d="M46.286 74.9404C46.2814 75.171 46.3208 75.3473 46.4041 75.4695C46.5087 75.6133 46.6722 75.6873 46.8946 75.6916L47.6481 75.7107C47.8706 75.7167 48.0388 75.6501 48.1528 75.5109C48.2399 75.3948 48.2863 75.2212 48.2919 74.9903L48.3018 74.4819C48.306 74.2455 48.2673 74.0692 48.1836 73.9465C48.0752 73.7998 47.9098 73.7239 47.6874 73.7186L46.3126 73.6851L46.286 74.9404ZM45.6464 74.9574L45.704 72.0664L46.3409 72.0807L46.3226 73.1204L47.7465 73.156C48.1223 73.1723 48.4163 73.2932 48.6286 73.5188C48.8451 73.7409 48.9497 74.0543 48.9413 74.4633L48.9314 75.0381C48.923 75.4426 48.8066 75.7504 48.5821 75.9614C48.3593 76.175 48.0592 76.2812 47.679 76.2749L46.8413 76.2563C46.4613 76.2414 46.1652 76.1217 45.9529 75.8972C45.7406 75.6751 45.6384 75.3618 45.6464 74.9574Z" fill="#F3F3F4"/>
</g>
<mask id="mask8_3029_3259" style="mask-type:luminance" maskUnits="userSpaceOnUse" x="7" y="10" width="82" height="72">
<path d="M7 10.7998H88.0515V81.4544H7V10.7998Z" fill="white"/>
</mask>
<g mask="url(#mask8_3029_3259)">
<path d="M51.7434 74.5211L50.7368 74.6417C50.4119 74.6807 50.2669 74.8397 50.3018 75.1187L50.3138 75.2229C50.3483 75.4965 50.5261 75.6171 50.8508 75.5777L51.8559 75.4593C52.1888 75.4203 52.338 75.2618 52.3035 74.9838L52.2909 74.8823C52.2585 74.6024 52.0744 74.4818 51.7434 74.5211ZM50.7651 76.1504C50.4688 76.1858 50.2237 76.1297 50.0299 75.982C49.8336 75.8343 49.7192 75.6275 49.6868 75.3615L49.6602 75.1416C49.6277 74.8717 49.6889 74.6438 49.8442 74.4526C49.9974 74.2597 50.2197 74.1455 50.5162 74.1105L52.1728 73.9155L52.1707 73.8985C52.132 73.5691 51.9338 73.4253 51.5761 73.4671L49.7339 73.6871L49.6685 73.1372L51.4987 72.9194C51.8801 72.8741 52.183 72.9377 52.4075 73.1101C52.6355 73.2766 52.7717 73.5408 52.8159 73.9027L52.9488 74.9966C52.9817 75.2744 52.9163 75.5071 52.7506 75.6893C52.5979 75.8572 52.3685 75.9597 52.0624 75.9969L50.7651 76.1504Z" fill="#F3F3F4"/>
</g>
<mask id="mask9_3029_3259" style="mask-type:luminance" maskUnits="userSpaceOnUse" x="7" y="10" width="82" height="72">
<path d="M7 10.7998H88.0515V81.4544H7V10.7998Z" fill="white"/>
</mask>
<g mask="url(#mask9_3029_3259)">
<path d="M53.9209 75.6707L53.0283 71.6035L53.6616 71.4644L54.5542 75.532L53.9209 75.6707Z" fill="#F3F3F4"/>
</g>
<mask id="mask10_3029_3259" style="mask-type:luminance" maskUnits="userSpaceOnUse" x="7" y="10" width="82" height="72">
<path d="M7 10.7998H88.0515V81.4544H7V10.7998Z" fill="white"/>
</mask>
<g mask="url(#mask10_3029_3259)">
<path d="M55.3533 75.3347L54.2583 71.3175L54.8874 71.1475L55.9803 75.1647L55.3533 75.3347Z" fill="#F3F3F4"/>
</g>
<mask id="mask11_3029_3259" style="mask-type:luminance" maskUnits="userSpaceOnUse" x="7" y="10" width="82" height="72">
<path d="M7 10.7998H88.0515V81.4544H7V10.7998Z" fill="white"/>
</mask>
<g mask="url(#mask11_3029_3259)">
<path d="M57.8413 72.9875L57.4062 72.0292C57.2138 71.6101 57.1856 71.2031 57.3262 70.8153C57.4491 70.452 57.7367 70.1677 58.1885 69.9579L60.1756 69.0474L60.4088 69.5595L58.4479 70.4605C58.1721 70.5869 57.9943 70.7799 57.9145 71.0395C57.8471 71.2717 57.8779 71.5208 58.0024 71.7864L58.4129 72.6869C58.5314 72.9518 58.6996 73.1358 58.9175 73.2388C59.165 73.3472 59.4264 73.3382 59.7018 73.2117L61.6628 72.3134L61.8955 72.8239L59.9105 73.7371C59.4587 73.9447 59.0562 73.9778 58.7031 73.8365C58.3179 73.6842 58.0306 73.4012 57.8413 72.9875Z" fill="#F3F3F4"/>
</g>
<mask id="mask12_3029_3259" style="mask-type:luminance" maskUnits="userSpaceOnUse" x="7" y="10" width="82" height="72">
<path d="M7 10.7998H88.0515V81.4544H7V10.7998Z" fill="white"/>
</mask>
<g mask="url(#mask12_3029_3259)">
<path d="M62.6799 72.3154L60.6149 68.7024L61.1765 68.3789L63.242 71.9897L62.6799 72.3154Z" fill="#F3F3F4"/>
</g>
<mask id="mask13_3029_3259" style="mask-type:luminance" maskUnits="userSpaceOnUse" x="7" y="10" width="82" height="72">
<path d="M7 10.7998H88.0515V81.4544H7V10.7998Z" fill="white"/>
</mask>
<g mask="url(#mask13_3029_3259)">
<path d="M65.0005 70.8274C64.68 71.058 64.361 71.1472 64.0384 71.0909C63.7204 71.0374 63.44 70.8417 63.197 70.5039L62.147 69.0451L62.6636 68.6674L63.6932 70.097C63.8443 70.3068 63.9913 70.4354 64.1367 70.4768C64.3284 70.5242 64.5163 70.4814 64.7004 70.3482L65.1417 70.0263C65.331 69.8896 65.4317 69.723 65.4439 69.5264C65.4539 69.3708 65.3843 69.1859 65.2311 68.9766L64.2041 67.5486L64.7228 67.1709L65.7729 68.6297C66.0134 68.9681 66.1117 69.298 66.0625 69.6199C66.0151 69.9429 65.83 70.2216 65.5072 70.4561L65.0005 70.8274Z" fill="#F3F3F4"/>
</g>
<mask id="mask14_3029_3259" style="mask-type:luminance" maskUnits="userSpaceOnUse" x="7" y="10" width="82" height="72">
<path d="M7 10.7998H88.0515V81.4544H7V10.7998Z" fill="white"/>
</mask>
<g mask="url(#mask14_3029_3259)">
<path d="M66.8185 67.7229C66.9771 67.8893 67.1289 67.9862 67.274 68.0135C67.4458 68.0404 67.6126 67.9761 67.7744 67.8206L68.3156 67.2958C68.4749 67.1375 68.5457 66.9699 68.5279 66.7932C68.5077 66.6462 68.4172 66.4901 68.2565 66.3247L67.9051 65.9571C67.743 65.7871 67.5905 65.6888 67.4476 65.6622C67.268 65.6364 67.0977 65.7015 66.9367 65.8577L65.9479 66.8161L66.8185 67.7229ZM66.3814 68.192L64.3833 66.1063L64.8429 65.6606L65.5599 66.4118L66.5832 65.4173C66.8593 65.1606 67.1507 65.0354 67.4575 65.0417C67.7657 65.0442 68.0611 65.193 68.3438 65.488L68.7402 65.9013C69.0191 66.1935 69.1547 66.4943 69.147 66.8038C69.1429 67.113 69.0059 67.4036 68.7345 67.6714L68.1336 68.2541C67.8582 68.518 67.5661 68.646 67.2572 68.6382C66.9529 68.634 66.659 68.4847 66.3814 68.192Z" fill="#F3F3F4"/>
</g>
<mask id="mask15_3029_3259" style="mask-type:luminance" maskUnits="userSpaceOnUse" x="7" y="10" width="82" height="72">
<path d="M7 10.7998H88.0515V81.4544H7V10.7998Z" fill="white"/>
</mask>
<g mask="url(#mask15_3029_3259)">
<path d="M35.7989 17.4175L37.6066 21.1569L37.0288 21.4453L36.075 19.4718L33.8955 20.5613L34.8472 22.5328L34.271 22.8212L32.4633 19.0797L33.0395 18.7934L33.6461 20.0466L35.8298 18.9591L35.2232 17.7059L35.7989 17.4175Z" fill="#F3F3F4"/>
</g>
<mask id="mask16_3029_3259" style="mask-type:luminance" maskUnits="userSpaceOnUse" x="7" y="10" width="82" height="72">
<path d="M7 10.7998H88.0515V81.4544H7V10.7998Z" fill="white"/>
</mask>
<g mask="url(#mask16_3029_3259)">
<path d="M39.5677 18.9259L38.5977 19.2393C38.285 19.3406 38.1706 19.526 38.2547 19.7955L38.2871 19.8928C38.3687 20.1605 38.5668 20.2413 38.8816 20.1419L39.8495 19.8264C40.1703 19.7244 40.2888 19.5404 40.2051 19.2744L40.1743 19.1751C40.0885 18.9052 39.8888 18.8223 39.5677 18.9259ZM38.8999 20.7231C38.6141 20.8162 38.3622 20.8079 38.1443 20.6981C37.9237 20.5903 37.7746 20.4097 37.6925 20.1541L37.6272 19.9406C37.5463 19.682 37.5655 19.444 37.6847 19.2266C37.7987 19.007 37.9988 18.8506 38.285 18.7575L39.8825 18.2433L39.8762 18.2263C39.7765 17.9089 39.5553 17.8059 39.2126 17.9171L37.4374 18.4903L37.27 17.9606L39.0369 17.3901C39.4047 17.2715 39.7145 17.2764 39.9662 17.405C40.2213 17.5229 40.4054 17.7577 40.5136 18.1062L40.8426 19.1581C40.9262 19.4279 40.9037 19.6686 40.7709 19.8827C40.6524 20.0775 40.4455 20.2227 40.1502 20.3183L38.8999 20.7231Z" fill="#F3F3F4"/>
</g>
<mask id="mask17_3029_3259" style="mask-type:luminance" maskUnits="userSpaceOnUse" x="7" y="10" width="82" height="72">
<path d="M7 10.7998H88.0515V81.4544H7V10.7998Z" fill="white"/>
</mask>
<g mask="url(#mask17_3029_3259)">
<path d="M42.2904 16.5953L42.9137 16.4875C43.3077 16.4188 43.6371 16.4811 43.902 16.6745C44.1652 16.8685 44.332 17.1728 44.4025 17.5871L44.699 19.3572L44.0657 19.4651L43.7734 17.7284C43.7309 17.4717 43.6505 17.2925 43.5323 17.1908C43.3812 17.0601 43.1935 17.0123 42.9608 17.0538L42.4211 17.1451C42.1963 17.1852 42.0337 17.2925 41.9333 17.4671C41.8618 17.6016 41.8475 17.7973 41.8904 18.0541L42.1801 19.7912L41.5468 19.9012L41.2509 18.1332C41.1815 17.7185 41.2401 17.3753 41.4266 17.1037C41.6124 16.8314 41.9003 16.6619 42.2904 16.5953Z" fill="#F3F3F4"/>
</g>
<mask id="mask18_3029_3259" style="mask-type:luminance" maskUnits="userSpaceOnUse" x="7" y="10" width="82" height="72">
<path d="M7 10.7998H88.0515V81.4544H7V10.7998Z" fill="white"/>
</mask>
<g mask="url(#mask18_3029_3259)">
<path d="M47.4521 18.8328C47.2234 19.1122 46.9394 19.2526 46.6002 19.254H46.2044C45.8488 19.2558 45.5649 19.1423 45.3526 18.9135C45.1528 18.6996 45.0521 18.3973 45.0503 18.0067L45.0461 16.1245L45.6836 16.1229L45.6872 18.0109C45.6872 18.2387 45.7364 18.4055 45.8347 18.5114C45.9452 18.63 46.0895 18.6895 46.2677 18.6899L46.5474 18.6877C46.7287 18.6877 46.8744 18.6275 46.9846 18.5071C47.0843 18.4026 47.134 18.2358 47.1336 18.0067L47.1294 16.1208L47.7606 16.1187L47.7648 18.0046C47.7669 18.233 47.8139 18.4014 47.9096 18.505C48.0222 18.6236 48.1672 18.6831 48.3447 18.6835H48.6229C48.8064 18.6814 48.9518 18.6235 49.0621 18.5029C49.1618 18.3977 49.2115 18.2303 49.2111 18.0009L49.207 16.1144L49.8444 16.1123L49.8481 17.9945C49.8481 18.3865 49.7461 18.6899 49.538 18.9034C49.3288 19.1336 49.0442 19.2484 48.684 19.2477L48.294 19.2498C47.9614 19.2498 47.6808 19.1108 47.4521 18.8328Z" fill="#F3F3F4"/>
</g>
<mask id="mask19_3029_3259" style="mask-type:luminance" maskUnits="userSpaceOnUse" x="7" y="10" width="82" height="72">
<path d="M7 10.7998H88.0515V81.4544H7V10.7998Z" fill="white"/>
</mask>
<g mask="url(#mask19_3029_3259)">
<path d="M51.9438 17.0335C51.7179 16.9946 51.5286 17.0417 51.3759 17.1748C51.2661 17.2768 51.19 17.4567 51.1474 17.7146L50.8614 19.4533L50.2281 19.3455L50.9064 15.2241L51.5396 15.3341L51.3393 16.5501C51.5456 16.4563 51.7749 16.4282 51.9972 16.4693L52.62 16.5751C53.0139 16.6423 53.3046 16.8111 53.4922 17.0813C53.679 17.353 53.739 17.6961 53.6721 18.1109L53.3797 19.8788L52.7465 19.7731L53.0325 18.0338C53.0754 17.7767 53.055 17.5818 52.9776 17.4468C52.8793 17.2722 52.7139 17.1649 52.4814 17.1249L51.9438 17.0335Z" fill="#F3F3F4"/>
</g>
<mask id="mask20_3029_3259" style="mask-type:luminance" maskUnits="userSpaceOnUse" x="7" y="10" width="82" height="72">
<path d="M7 10.7998H88.0515V81.4544H7V10.7998Z" fill="white"/>
</mask>
<g mask="url(#mask20_3029_3259)">
<path d="M56.2299 19.1791L55.2594 18.87C54.9457 18.7687 54.7468 18.8531 54.6628 19.1234L54.6324 19.2227C54.5509 19.4883 54.6649 19.6711 54.9796 19.7731L55.9497 20.0822C56.269 20.1857 56.47 20.1033 56.5526 19.8352L56.5829 19.7375C56.6687 19.4676 56.5484 19.2811 56.2299 19.1791ZM54.6649 20.2586C54.3793 20.1672 54.1785 20.0137 54.0625 19.798C53.9422 19.5797 53.9213 19.3454 54.0013 19.0883L54.0666 18.8763C54.1461 18.6171 54.2993 18.4322 54.5179 18.3244C54.7372 18.2125 54.9891 18.202 55.2735 18.293L56.8731 18.8035L56.8773 18.7892C56.9774 18.4701 56.8548 18.2557 56.5097 18.1459L54.7323 17.5796L54.8981 17.0483L56.665 17.6125C57.0324 17.7308 57.2836 17.9162 57.4185 18.1687C57.5597 18.4152 57.5761 18.7134 57.4677 19.0633L57.1408 20.1152C57.0572 20.385 56.8998 20.5699 56.6728 20.6671C56.4647 20.7567 56.2129 20.7541 55.9172 20.6592L54.6649 20.2586Z" fill="#F3F3F4"/>
</g>
<mask id="mask21_3029_3259" style="mask-type:luminance" maskUnits="userSpaceOnUse" x="7" y="10" width="82" height="72">
<path d="M7 10.7998H88.0515V81.4544H7V10.7998Z" fill="white"/>
</mask>
<g mask="url(#mask21_3029_3259)">
<path d="M70.3462 45.9009C70.3462 58.7191 60.1185 69.1117 47.499 69.1117C34.8817 69.1117 24.6545 58.7191 24.6545 45.9009C24.6545 33.0805 34.8817 22.6885 47.499 22.6885C60.1185 22.6885 70.3462 33.0805 70.3462 45.9009Z" fill="white"/>
</g>
<mask id="mask22_3029_3259" style="mask-type:luminance" maskUnits="userSpaceOnUse" x="7" y="10" width="82" height="72">
<path d="M7 10.7998H88.0515V81.4544H7V10.7998Z" fill="white"/>
</mask>
<g mask="url(#mask22_3029_3259)">
<path d="M69.4556 48.7063C69.4343 48.6786 69.4078 48.6555 69.3777 48.6383C69.3539 48.6253 69.3273 48.6187 69.3003 48.6192C69.1429 48.6319 69.1021 48.8476 69.0692 48.9682C68.8645 49.7288 68.6439 50.4849 68.4077 51.236L68.3951 51.2775L68.4114 51.3152C68.5646 51.7216 68.6791 52.1429 68.7507 52.5705C68.7648 52.6619 68.826 52.7904 68.9405 52.7633C68.9693 52.755 68.9954 52.7393 69.0164 52.7177C69.1774 52.5726 69.2328 52.2964 69.2062 52.0892C69.1606 51.7238 69.0777 51.3641 68.9588 51.0161C69.145 50.4227 69.3207 49.8166 69.4776 49.2253C69.5042 49.1238 69.5288 49.0303 69.5189 48.9246C69.5105 48.8476 69.4964 48.7669 69.4556 48.7063Z" fill="#EBBC95"/>
</g>
<mask id="mask23_3029_3259" style="mask-type:luminance" maskUnits="userSpaceOnUse" x="7" y="10" width="82" height="72">
<path d="M7 10.7998H88.0515V81.4544H7V10.7998Z" fill="white"/>
</mask>
<g mask="url(#mask23_3029_3259)">
<path d="M67.9375 49.6132C67.6965 49.4596 67.5637 49.823 67.5129 49.993C67.2661 50.7955 67.0086 51.5945 66.7406 52.3899L66.7223 52.4478L66.7568 52.4978C67.0183 52.8712 67.2593 53.2697 67.4659 53.6766C67.5495 53.8407 67.709 53.8859 67.8293 53.7265C67.9438 53.5751 68.0479 53.2845 67.9642 53.0975C67.814 52.7547 67.6385 52.4238 67.4392 52.1078C67.6473 51.4831 67.8518 50.8355 68.0416 50.1986C68.0866 50.0514 68.1111 49.9245 68.0583 49.7752C68.0353 49.7099 67.9931 49.6534 67.9375 49.6132Z" fill="#EBBC95"/>
</g>
<mask id="mask24_3029_3259" style="mask-type:luminance" maskUnits="userSpaceOnUse" x="7" y="10" width="82" height="72">
<path d="M7 10.7998H88.0515V81.4544H7V10.7998Z" fill="white"/>
</mask>
<g mask="url(#mask24_3029_3259)">
<path d="M65.4355 53.4503C65.654 52.7862 65.8705 52.12 66.075 51.4687C66.1461 51.2467 66.1607 51.006 65.9155 50.8939C65.8741 50.8739 65.8283 50.8653 65.7827 50.869C65.5824 50.8939 65.4762 51.1553 65.4271 51.3211C65.178 52.1608 64.9118 52.9952 64.6286 53.8237L64.6019 53.9007L64.6615 53.9523C65.0312 54.2763 65.3863 54.6291 65.7131 54.9983C65.7506 55.0443 65.7992 55.0795 65.8543 55.1003C65.8543 55.1003 65.9521 55.1125 65.9725 55.1061C66.2507 55.0275 66.4138 54.5627 66.2303 54.3284C65.9866 54.0165 65.7209 53.7231 65.4355 53.4503Z" fill="#EBBC95"/>
</g>
<mask id="mask25_3029_3259" style="mask-type:luminance" maskUnits="userSpaceOnUse" x="7" y="10" width="82" height="72">
<path d="M7 10.7998H88.0515V81.4544H7V10.7998Z" fill="white"/>
</mask>
<g mask="url(#mask25_3029_3259)">
<path d="M64.1078 55.7744C63.7676 55.5096 63.413 55.2643 63.0458 55.0397C63.2456 54.3677 63.45 53.6973 63.6524 53.0396C63.6953 52.9026 63.7298 52.7554 63.6482 52.6226C63.5745 52.502 63.4233 52.4521 63.2905 52.4813C63.0479 52.5333 62.9637 52.7405 62.9004 52.9562C62.6574 53.7991 62.4109 54.6409 62.161 55.4817L62.1349 55.5731L62.2165 55.6188C62.6939 55.8951 63.1607 56.19 63.6158 56.5028C63.7606 56.6026 63.9342 56.6026 64.0608 56.4741C64.2344 56.2977 64.3306 55.9487 64.1078 55.7744Z" fill="#EBBC95"/>
</g>
<mask id="mask26_3029_3259" style="mask-type:luminance" maskUnits="userSpaceOnUse" x="7" y="10" width="82" height="72">
<path d="M7 10.7998H88.0515V81.4544H7V10.7998Z" fill="white"/>
</mask>
<g mask="url(#mask26_3029_3259)">
<path d="M61.6936 57.4202C61.268 57.2087 60.8332 57.0169 60.3905 56.8454C60.5699 56.1835 60.7398 55.5088 60.8946 54.8554C60.9234 54.7369 60.9563 54.602 60.8847 54.492C60.8507 54.443 60.8065 54.4022 60.7553 54.3724C60.704 54.3427 60.647 54.3247 60.5882 54.3199C60.2943 54.2992 60.129 54.5956 60.0653 54.8426C59.8508 55.6806 59.646 56.5211 59.4508 57.3639L59.4283 57.4659L59.524 57.5009C60.0946 57.7168 60.6605 57.9451 61.2214 58.1857C61.2903 58.2208 61.3678 58.2347 61.4444 58.2259C61.521 58.217 61.5934 58.1857 61.6528 58.1358C61.7342 58.0638 61.796 57.9718 61.8322 57.8685C61.8975 57.7023 61.8751 57.4988 61.6936 57.4202Z" fill="#EBBC95"/>
</g>
<mask id="mask27_3029_3259" style="mask-type:luminance" maskUnits="userSpaceOnUse" x="7" y="10" width="82" height="72">
<path d="M7 10.7998H88.0515V81.4544H7V10.7998Z" fill="white"/>
</mask>
<g mask="url(#mask27_3029_3259)">
<path d="M59.2794 59.3101C59.2363 59.2593 59.1793 59.2225 59.1157 59.2044C58.6216 59.0344 58.1128 58.891 57.6024 58.781C57.7065 58.1584 57.8246 57.5236 57.9517 56.893C58.0129 56.6481 57.8801 56.4154 57.6144 56.4112C57.2918 56.4075 57.1203 56.6582 57.0627 56.9445C56.9697 57.411 56.8811 57.8808 56.7971 58.3539C56.7423 58.6888 56.6907 59.0242 56.6423 59.3601L56.6277 59.4722L56.7338 59.4929C57.3938 59.6257 58.0599 59.7856 58.7094 59.9662C58.768 59.985 58.8237 59.9945 58.8767 59.9949C59.0587 59.9949 59.2302 59.8663 59.3076 59.7027C59.373 59.5678 59.363 59.4143 59.2794 59.3101Z" fill="#EBBC95"/>
</g>
<mask id="mask28_3029_3259" style="mask-type:luminance" maskUnits="userSpaceOnUse" x="7" y="10" width="82" height="72">
<path d="M7 10.7998H88.0515V81.4544H7V10.7998Z" fill="white"/>
</mask>
<g mask="url(#mask28_3029_3259)">
<path d="M56.6604 61.1618L56.6358 61.1411C56.579 61.1033 56.5148 61.0785 56.4476 61.0683C55.8905 60.9591 55.33 60.8691 54.7669 60.7984C54.8116 60.2181 54.8708 59.639 54.9447 59.0618C54.9892 58.7112 54.677 58.5407 54.3664 58.6549C54.1499 58.7356 54.0213 58.9455 54.015 59.1755C53.9256 59.9169 53.8705 60.6622 53.8498 61.4088L53.8477 61.5188L53.9538 61.5289C54.6749 61.5953 55.396 61.6952 56.0946 61.8216C56.1455 61.8358 56.1945 61.8427 56.2416 61.8423C56.3353 61.8406 56.4268 61.8133 56.5065 61.7633C56.5863 61.7133 56.6514 61.6424 56.6949 61.5581C56.7255 61.4952 56.7385 61.4249 56.7324 61.355C56.7263 61.2851 56.7014 61.2183 56.6604 61.1618Z" fill="#EBBC95"/>
</g>
<mask id="mask29_3029_3259" style="mask-type:luminance" maskUnits="userSpaceOnUse" x="7" y="10" width="82" height="72">
<path d="M7 10.7998H88.0515V81.4544H7V10.7998Z" fill="white"/>
</mask>
<g mask="url(#mask29_3029_3259)">
<path d="M54.138 63.0604C54.0805 62.969 53.9681 62.9169 53.852 62.9169C53.2568 62.8514 52.6602 62.8009 52.0626 62.7655C52.0486 62.2421 52.0377 61.722 52.0296 61.2053C52.0275 61.0789 51.9993 60.954 51.8806 60.8876C51.8029 60.8485 51.716 60.8319 51.6296 60.8398C51.3253 60.8584 51.1004 61.0704 51.1067 61.388C51.1124 62.0415 51.1412 62.7013 51.1925 63.351L51.2003 63.4524L51.3007 63.4588C52.0605 63.5109 52.8203 63.5666 53.5701 63.623C53.605 63.6286 53.639 63.6313 53.6721 63.6309C53.8991 63.6309 54.148 63.4816 54.1746 63.2325C54.1829 63.1725 54.17 63.1115 54.138 63.0604Z" fill="#EBBC95"/>
</g>
<mask id="mask30_3029_3259" style="mask-type:luminance" maskUnits="userSpaceOnUse" x="7" y="10" width="82" height="72">
<path d="M7 10.7998H88.0515V81.4544H7V10.7998Z" fill="white"/>
</mask>
<g mask="url(#mask30_3029_3259)">
<path d="M51.6683 64.7058C51.5945 64.6537 51.4967 64.6372 51.4089 64.6372C50.8023 64.6245 50.1853 64.608 49.5787 64.5852C49.4867 64.1389 49.4129 63.6927 49.3559 63.2613C49.3335 63.1035 49.2477 62.9893 49.0945 62.9521C48.9338 62.9164 48.7658 62.9445 48.6249 63.0308C48.4733 63.1243 48.4225 63.2884 48.445 63.4605C48.5378 64.0308 48.6591 64.5959 48.8084 65.1536L48.8309 65.2391L48.9167 65.2407C49.6807 65.2513 50.4426 65.262 51.1945 65.2699C51.2206 65.2742 51.2515 65.2763 51.2782 65.2763C51.4476 65.2763 51.6458 65.2163 51.7378 65.0585C51.7599 65.0222 51.7735 64.9812 51.7774 64.9387C51.7813 64.8962 51.7754 64.8534 51.7603 64.8136C51.7399 64.7698 51.708 64.7325 51.6683 64.7058Z" fill="#EBBC95"/>
</g>
<mask id="mask31_3029_3259" style="mask-type:luminance" maskUnits="userSpaceOnUse" x="7" y="10" width="82" height="72">
<path d="M7 10.7998H88.0515V81.4544H7V10.7998Z" fill="white"/>
</mask>
<g mask="url(#mask31_3029_3259)">
<path d="M49.495 66.2164C49.415 66.1627 49.3026 66.1585 49.2111 66.1563L47.3887 66.1191C47.2401 65.7673 47.1059 65.4093 46.9866 65.046C46.9703 64.9892 46.9397 64.9378 46.8977 64.8967C46.8558 64.8556 46.8041 64.8263 46.7476 64.8118C46.6774 64.795 46.6049 64.7907 46.5332 64.799C46.4307 64.8054 46.3267 64.8261 46.243 64.8846C46.1165 64.9738 46.0961 65.131 46.1489 65.2724C46.3042 65.7351 46.494 66.1919 46.7168 66.6254L46.7476 66.6854L46.8151 66.6876C47.303 66.7062 47.7935 66.7168 48.2792 66.7168C48.5449 66.7168 48.8105 66.7125 49.0699 66.7083C49.1943 66.704 49.3397 66.704 49.4521 66.6376C49.4862 66.6184 49.516 66.5923 49.5398 66.561C49.5637 66.5297 49.581 66.4937 49.5907 66.4554C49.5996 66.4104 49.5953 66.3638 49.5783 66.3213C49.5613 66.2788 49.5323 66.2423 49.495 66.2164Z" fill="#EBBC95"/>
</g>
<mask id="mask32_3029_3259" style="mask-type:luminance" maskUnits="userSpaceOnUse" x="7" y="10" width="82" height="72">
<path d="M7 10.7998H88.0515V81.4544H7V10.7998Z" fill="white"/>
</mask>
<g mask="url(#mask32_3029_3259)">
<path d="M47.6586 67.4595C47.577 67.3644 47.395 67.3437 47.2909 67.3416C46.7048 67.3246 46.1165 67.3081 45.5303 67.2874C45.3234 67.0261 45.1381 66.7479 44.9765 66.4555C44.8824 66.2828 44.6393 66.2663 44.4761 66.2828C44.4059 66.2865 44.3378 66.308 44.2779 66.3455C44.1592 66.4241 44.1409 66.5798 44.2251 66.6961C44.4515 67.0568 44.7109 67.4058 44.9927 67.7251L45.0257 67.7628L45.0743 67.7644C45.7719 67.7918 46.47 67.8058 47.1681 67.8064H47.1989C47.2234 67.8094 47.248 67.8106 47.2726 67.8101C47.3992 67.8101 47.5362 67.7894 47.634 67.7044C47.6666 67.6787 47.689 67.6419 47.6973 67.6008C47.7016 67.5758 47.7004 67.5501 47.6937 67.5257C47.687 67.5012 47.675 67.4786 47.6586 67.4595Z" fill="#EBBC95"/>
</g>
<mask id="mask33_3029_3259" style="mask-type:luminance" maskUnits="userSpaceOnUse" x="7" y="10" width="82" height="72">
<path d="M7 10.7998H88.0515V81.4544H7V10.7998Z" fill="white"/>
</mask>
<g mask="url(#mask33_3029_3259)">
<path d="M45.9978 68.1918C45.9037 68.1339 45.7489 68.1233 45.6647 68.1276C45.1213 68.1036 44.5786 68.0669 44.0369 68.0176C43.8018 67.8324 43.5723 67.64 43.3487 67.4407C43.2138 67.3185 43.0402 67.2871 42.8666 67.2914C42.8033 67.2907 42.7414 67.3094 42.6888 67.345C42.5889 67.4242 42.6072 67.5862 42.7155 67.6484C42.9912 67.9018 43.2909 68.1269 43.6102 68.3204L43.6551 68.3353C44.3109 68.4139 44.9786 68.4681 45.6385 68.4989C45.6755 68.5031 45.7135 68.5053 45.7525 68.5053C45.8629 68.5053 46.0569 68.493 46.0757 68.3475C46.0835 68.2747 46.0511 68.2253 45.9978 68.1918Z" fill="#EBBC95"/>
</g>
<mask id="mask34_3029_3259" style="mask-type:luminance" maskUnits="userSpaceOnUse" x="7" y="10" width="82" height="72">
<path d="M7 10.7998H88.0515V81.4544H7V10.7998Z" fill="white"/>
</mask>
<g mask="url(#mask34_3029_3259)">
<path d="M32.9311 36.0291C32.5902 35.67 32.061 36.2639 32.3753 36.5917C32.6613 36.9317 32.9677 37.2616 33.2883 37.5771C33.0266 38.1248 32.764 38.672 32.5003 39.2186C32.402 39.4221 32.404 39.6521 32.6143 39.7812C32.8721 39.9326 33.0865 39.727 33.1926 39.4986C33.5233 38.7942 33.8474 38.0865 34.1647 37.3758L34.2018 37.2993L34.138 37.2409C33.7256 36.8475 33.3231 36.4435 32.9311 36.0291Z" fill="#EBBC95"/>
</g>
<mask id="mask35_3029_3259" style="mask-type:luminance" maskUnits="userSpaceOnUse" x="7" y="10" width="82" height="72">
<path d="M7 10.7998H88.0515V81.4544H7V10.7998Z" fill="white"/>
</mask>
<g mask="url(#mask35_3029_3259)">
<path d="M35.2557 35.0646C34.9943 34.8675 34.6633 34.9833 34.59 35.3174C34.5388 35.5416 34.6779 35.6622 34.8311 35.7865L35.1883 36.075C35.2515 36.1249 35.9094 36.5897 35.8994 36.6168C35.6706 37.2051 35.4295 37.7883 35.1762 38.3662C35.08 38.5819 35.1475 38.8496 35.3765 38.941C35.6604 39.051 35.8565 38.8268 35.9585 38.584C36.2719 37.8411 36.5702 37.0917 36.8532 36.3363L36.8835 36.2513L36.8103 36.1993C36.2874 35.8279 35.7624 35.4465 35.2557 35.0646Z" fill="#EBBC95"/>
</g>
<mask id="mask36_3029_3259" style="mask-type:luminance" maskUnits="userSpaceOnUse" x="7" y="10" width="82" height="72">
<path d="M7 10.7998H88.0515V81.4544H7V10.7998Z" fill="white"/>
</mask>
<g mask="url(#mask36_3029_3259)">
<path d="M37.809 33.9401C37.6171 33.8317 37.3901 33.836 37.239 34.0086C37.0816 34.1866 37.0759 34.4942 37.3044 34.6121C37.776 34.8988 38.2533 35.1756 38.7361 35.4424C38.5442 36.0523 38.3502 36.6648 38.1583 37.2683C38.1282 37.3447 38.1143 37.4267 38.1175 37.5089C38.1217 37.7252 38.3423 37.8287 38.5301 37.8351C38.7915 37.8452 38.9447 37.6545 39.0221 37.4176C39.2737 36.6542 39.5084 35.868 39.7207 35.0812L39.7453 34.9898L39.6637 34.9441C39.0431 34.614 38.4248 34.2793 37.809 33.9401Z" fill="#EBBC95"/>
</g>
<mask id="mask37_3029_3259" style="mask-type:luminance" maskUnits="userSpaceOnUse" x="7" y="10" width="82" height="72">
<path d="M7 10.7998H88.0515V81.4544H7V10.7998Z" fill="white"/>
</mask>
<g mask="url(#mask37_3029_3259)">
<path d="M42.6951 33.4771L42.6072 33.4415C41.9009 33.1623 41.1955 32.8808 40.491 32.5968C40.2154 32.4869 39.8452 32.5926 39.8065 32.9374C39.7699 33.2965 40.2907 33.4187 40.536 33.5265C40.9181 33.699 41.3054 33.8601 41.6979 34.0099C41.5814 34.6294 41.4534 35.2467 41.3141 35.8613C41.2996 35.9189 41.2969 35.979 41.3063 36.0377C41.3156 36.0964 41.3368 36.1525 41.3684 36.2026C41.4001 36.2526 41.4415 36.2955 41.4902 36.3286C41.5389 36.3616 41.5937 36.3841 41.6514 36.3947C41.9473 36.4504 42.1779 36.2162 42.2313 35.9357C42.3887 35.2615 42.5236 34.5683 42.6297 33.8793L42.6951 33.4771Z" fill="#EBBC95"/>
</g>
<mask id="mask38_3029_3259" style="mask-type:luminance" maskUnits="userSpaceOnUse" x="7" y="10" width="82" height="72">
<path d="M7 10.7998H88.0515V81.4544H7V10.7998Z" fill="white"/>
</mask>
<g mask="url(#mask38_3029_3259)">
<path d="M42.57 31.7444C42.6171 31.7901 42.6783 31.823 42.7478 31.8416C43.3382 32.0637 43.9427 32.2629 44.5498 32.4355C44.5276 33.0358 44.4845 33.635 44.4206 34.2322C44.3945 34.4813 44.5639 34.6805 44.8029 34.714C45.1093 34.7576 45.3342 34.5376 45.3624 34.2343C45.4361 33.473 45.4686 32.6969 45.4607 31.9287L45.4586 31.8395L45.3729 31.8166C45.2252 31.7772 45.0781 31.7357 44.9315 31.6923C44.3265 31.5083 43.7204 31.3279 43.1133 31.151C42.8686 31.0803 42.5313 31.0968 42.466 31.4145C42.4532 31.4739 42.4561 31.5357 42.4743 31.5936C42.4926 31.6516 42.5256 31.7036 42.57 31.7444Z" fill="#EBBC95"/>
</g>
<mask id="mask39_3029_3259" style="mask-type:luminance" maskUnits="userSpaceOnUse" x="7" y="10" width="82" height="72">
<path d="M7 10.7998H88.0515V81.4544H7V10.7998Z" fill="white"/>
</mask>
<g mask="url(#mask39_3029_3259)">
<path d="M45.2893 30.3083C45.9184 30.4411 46.5574 30.5861 47.1927 30.7354C47.2641 31.301 47.312 31.8694 47.336 32.4391C47.348 32.7525 47.622 32.9352 47.9222 32.8688C48.0318 32.8431 48.1277 32.7761 48.1905 32.6814C48.2534 32.5866 48.2786 32.4712 48.261 32.3583C48.2225 31.6258 48.1325 30.8971 47.9917 30.1776L47.975 30.1006L47.9018 30.0841C47.1197 29.9205 46.3367 29.7613 45.5529 29.6065C45.2972 29.5571 44.9296 29.59 44.9316 29.9428C44.9337 30.1484 45.1011 30.2812 45.2893 30.3083Z" fill="#EBBC95"/>
</g>
<mask id="mask40_3029_3259" style="mask-type:luminance" maskUnits="userSpaceOnUse" x="7" y="10" width="82" height="72">
<path d="M7 10.7998H88.0515V81.4544H7V10.7998Z" fill="white"/>
</mask>
<g mask="url(#mask40_3029_3259)">
<path d="M47.1884 28.5113C47.2041 28.5405 47.2242 28.567 47.248 28.5899C47.3766 28.7206 47.5643 28.727 47.7338 28.7562C47.9262 28.7891 48.116 28.8205 48.31 28.8513C48.5019 28.8847 48.6917 28.914 48.8863 28.9427C48.9433 28.9533 49.4254 28.9862 49.4374 29.0239C49.6089 29.5445 49.7564 30.0758 49.8746 30.5948C49.942 30.8769 50.2098 30.9991 50.4812 30.9412C50.7222 30.8891 50.8263 30.6506 50.7531 30.4227C50.5953 29.752 50.3864 29.0948 50.1282 28.4571L50.1036 28.3949L50.0382 28.3849C49.2539 28.2637 48.4681 28.153 47.6809 28.0528C47.5398 28.0358 47.3541 28.0279 47.2375 28.1272C47.123 28.2228 47.1214 28.3864 47.1884 28.5113Z" fill="#EBBC95"/>
</g>
<mask id="mask41_3029_3259" style="mask-type:luminance" maskUnits="userSpaceOnUse" x="7" y="10" width="82" height="72">
<path d="M7 10.7998H88.0515V81.4544H7V10.7998Z" fill="white"/>
</mask>
<g mask="url(#mask41_3029_3259)">
<path d="M49.0355 27.0377C49.1254 27.1418 49.264 27.1833 49.3947 27.1997C49.9955 27.2725 50.6204 27.3389 51.2537 27.3968C51.5218 27.8388 51.7579 28.3015 51.9622 28.785C52.0705 29.0405 52.4098 29.1382 52.6488 29.0277C52.8407 28.939 52.8449 28.7249 52.757 28.5549C52.4811 27.9521 52.1559 27.3739 51.785 26.8263L51.7541 26.7785L51.6987 26.7742C50.9504 26.7062 50.2015 26.644 49.4522 26.5878C49.3294 26.5771 49.1704 26.5649 49.0621 26.6356C48.921 26.7248 48.9293 26.9134 49.0355 27.0377Z" fill="#EBBC95"/>
</g>
<mask id="mask42_3029_3259" style="mask-type:luminance" maskUnits="userSpaceOnUse" x="7" y="10" width="82" height="72">
<path d="M7 10.7998H88.0515V81.4544H7V10.7998Z" fill="white"/>
</mask>
<g mask="url(#mask42_3029_3259)">
<path d="M50.3793 25.6078C50.4692 25.7699 50.659 25.8278 50.8305 25.8384C51.4047 25.8756 51.9809 25.9149 52.5546 25.9585C52.8881 26.3268 53.2025 26.7127 53.4963 27.1144C53.6229 27.3009 53.8598 27.405 54.0825 27.3429C54.3236 27.2765 54.3074 27.0087 54.162 26.8488C53.7926 26.3494 53.3836 25.8815 52.9389 25.4501L52.9081 25.4208L52.8673 25.4192C52.1666 25.3672 51.4638 25.3194 50.7714 25.2801C50.5874 25.2673 50.2344 25.3194 50.3793 25.6078Z" fill="#EBBC95"/>
</g>
<mask id="mask43_3029_3259" style="mask-type:luminance" maskUnits="userSpaceOnUse" x="7" y="10" width="82" height="72">
<path d="M7 10.7998H88.0515V81.4544H7V10.7998Z" fill="white"/>
</mask>
<g mask="url(#mask43_3029_3259)">
<path d="M51.3289 24.5291C51.3443 24.5454 51.3607 24.5607 51.378 24.5748C51.4967 24.6662 51.6416 24.7012 51.7864 24.7097C52.2994 24.7384 52.8223 24.7777 53.341 24.8255C53.729 25.0997 54.1029 25.4046 54.4522 25.7265C54.6012 25.8652 54.9077 26.0187 55.0975 25.8593C55.2408 25.7387 55.1079 25.5581 54.9976 25.4753C54.5486 25.0652 54.0632 24.6984 53.5476 24.3793L53.4963 24.365C52.8793 24.3134 52.2586 24.2715 51.662 24.2407C51.5312 24.2178 51.2452 24.2199 51.2781 24.4234C51.2844 24.4627 51.3048 24.4978 51.3289 24.5291Z" fill="#EBBC95"/>
</g>
<mask id="mask44_3029_3259" style="mask-type:luminance" maskUnits="userSpaceOnUse" x="7" y="10" width="82" height="72">
<path d="M7 10.7998H88.0515V81.4544H7V10.7998Z" fill="white"/>
</mask>
<g mask="url(#mask44_3029_3259)">
<path d="M51.8173 23.7571C51.936 23.8857 52.1321 23.9106 52.2932 23.9228C52.7345 23.9584 53.1816 24.01 53.6271 24.0764C54.058 24.2634 54.4768 24.4854 54.869 24.7362C54.9935 24.8153 55.4061 25.0124 55.4861 24.7882C55.5347 24.6512 55.3574 24.5454 55.2612 24.4913C54.7595 24.2015 54.2395 23.9457 53.7045 23.7258L53.6805 23.7194C53.1726 23.6414 52.6623 23.5812 52.1504 23.5388C52.0563 23.5287 51.7886 23.4787 51.764 23.62C51.7561 23.6636 51.7744 23.7072 51.8173 23.7571Z" fill="#EBBC95"/>
</g>
<mask id="mask45_3029_3259" style="mask-type:luminance" maskUnits="userSpaceOnUse" x="7" y="10" width="82" height="72">
<path d="M7 10.7998H88.0515V81.4544H7V10.7998Z" fill="white"/>
</mask>
<g mask="url(#mask45_3029_3259)">
<path d="M87.8822 36.2787C87.3347 33.4004 85.9537 30.9557 84.6203 28.5922L83.8009 27.1398L82.0156 27.696C81.4028 27.8888 80.7983 28.0795 80.1875 28.248C79.4356 28.4514 78.9127 28.9471 78.635 29.7211C78.2373 30.8315 77.7991 31.9266 77.3215 33.0041C77.2459 32.8096 77.1551 32.6214 77.0501 32.4415C76.3739 31.267 75.1644 30.5243 73.7327 30.4101C72.0887 30.2752 70.5361 30.6571 69.1347 31.5475C67.5357 32.5621 66.2263 33.8509 65.2108 35.4048L68.6714 23.062L66.1667 23.7611C66.0605 23.7903 65.9748 23.8132 65.8932 23.8381L64.9823 24.1266C64.2486 24.355 63.5176 24.5872 62.7803 24.805C62.0796 25.0148 61.6016 25.5068 61.3993 26.2287C60.594 29.0967 59.7885 31.9645 58.9829 34.8321L56.3605 35.6438C55.5348 35.8988 54.7504 36.1416 53.9661 36.395C53.3924 36.5836 53.0698 37.0405 52.9307 37.287C52.9181 37.3077 52.9082 37.3289 52.8962 37.3475C50.6226 36.8492 48.4697 37.3555 46.6212 38.8291C45.6141 39.6298 44.7384 40.5879 44.0271 41.6675L44.4741 39.3582L41.6122 40.2443C40.8096 40.4914 40.0336 40.732 39.2633 40.9828C38.6405 41.1841 38.3362 41.7217 38.24 41.8917C38.2346 41.9037 38.2277 41.9149 38.2196 41.9252C36.461 41.4439 34.7349 41.6888 33.0663 42.6599L31.3543 34.1867L26.511 35.646C24.0131 36.42 21.5172 37.1961 19.0187 37.9637C16.8821 38.6193 14.3821 39.4974 12.0415 41.0285C9.94567 42.4022 8.59551 43.886 7.79283 45.6975C6.48764 48.6485 6.79564 51.2548 8.71159 53.444C9.47061 54.3222 10.4164 55.0134 11.4773 55.4654L13.4079 56.258C12.6334 58.7298 11.3774 60.5578 9.57597 61.8381C8.67499 62.475 8.14789 63.2846 7.96017 64.3115C7.9131 64.5628 7.83937 64.8077 7.76617 65.0568C7.72154 65.2074 7.67797 65.3602 7.63544 65.5153L7.21658 67.3874L9.38406 67.2647L13.228 66.0673C16.4941 65.0505 19.7623 64.0337 23.0248 62.9962C25.3857 62.2471 27.0852 61.0455 28.221 59.3312C28.4312 59.014 28.6215 58.69 28.7993 58.3664C29.1316 58.6053 29.4944 58.7973 29.8775 58.937C31.1524 59.4018 32.6312 59.3105 33.8318 58.6862C34.8839 58.1423 35.7849 57.3332 36.5813 56.2144C37.4535 56.9804 38.7404 57.2333 40.1172 56.8705C40.8638 56.6722 41.5629 56.3219 42.1723 55.8409L42.2193 56.0173C42.3558 56.5156 42.5153 57.084 42.8505 57.6217C44.0103 59.4852 46.1673 60.3464 48.4838 59.8608C50.3224 59.4767 51.854 58.3686 53.0368 56.5671C53.8782 55.289 54.4911 53.7989 54.9633 51.8901C55.7126 51.471 56.4849 51.0348 57.1956 50.4521C57.4549 50.2401 57.6861 50.008 57.8963 49.7753C59.2381 50.6534 60.9888 50.6757 62.6558 49.7423C63.8423 49.0762 64.6204 48.1088 65.1763 47.1733C65.8707 47.5967 66.7696 47.8681 67.9665 47.8288C68.8423 47.7966 69.7114 47.6615 70.5565 47.4261C72.8709 46.777 74.8868 45.3846 76.901 43.0456C77.2059 42.6903 77.5001 42.3257 77.7832 41.9523C77.8506 42.0288 77.9181 42.1058 77.9918 42.1802C79.2113 43.4318 80.8025 43.9152 82.7305 43.6225C84.4446 43.3611 85.9234 42.4458 86.8955 41.0476C87.8555 39.6674 88.2069 37.9738 87.8822 36.2787Z" fill="white"/>
</g>
<mask id="mask46_3029_3259" style="mask-type:luminance" maskUnits="userSpaceOnUse" x="7" y="10" width="82" height="72">
<path d="M7 10.7998H88.0515V81.4544H7V10.7998Z" fill="white"/>
</mask>
<g mask="url(#mask46_3029_3259)">
<path d="M68.6017 38.9988C70.2908 38.5297 71.7188 37.8285 72.7626 36.4797C73.1077 36.0334 73.3587 35.5351 73.3733 34.9481C73.3875 34.334 72.977 33.9271 72.395 34.0726C71.9986 34.172 71.5839 34.3526 71.2754 34.6161C69.9435 35.7471 69.2591 37.3036 68.6017 38.9988ZM52.8061 41.0531C51.7477 40.4618 50.6203 40.6403 49.6807 41.5429C48.1914 42.9788 47.4034 44.7967 46.9741 46.7931C46.7884 47.65 46.7048 48.5239 46.9458 49.3893C47.2031 50.3126 47.8975 50.5739 48.651 49.9906C49.0312 49.6963 49.3701 49.3165 49.6519 48.9223C50.4792 47.7621 51.0392 46.4568 51.5025 45.1144C51.9705 43.7677 52.3768 42.3998 52.8061 41.0531ZM37.9763 45.61C37.9151 45.5436 37.9031 45.5187 37.8827 45.5065C37.8381 45.4802 37.7916 45.4572 37.7436 45.4379C36.6366 44.9959 35.7011 45.3386 34.888 46.1248C33.5153 47.4508 32.733 49.1258 32.2243 50.9453C31.9586 51.8877 31.7526 52.8503 31.8974 53.8405C32.059 54.9317 32.8047 55.2802 33.6994 54.6374C34.1486 54.3133 34.5408 53.8692 34.8655 53.4086C35.6948 52.234 36.2198 50.8959 36.6936 49.5428C37.1511 48.2312 37.558 46.9009 37.9763 45.61ZM66.6732 25.0767C66.3935 26.0834 66.132 27.0316 65.8643 27.982C64.281 33.5947 62.6993 39.208 61.1194 44.8217C61.0477 45.073 60.9845 45.3301 60.9704 45.5872C60.9458 46.0063 61.1748 46.1848 61.579 46.0956C62.2572 45.9484 62.6353 45.43 62.9658 44.8796C63.8014 43.4936 64.1936 41.9413 64.5774 40.3811C65.3764 37.1517 67.0513 34.5247 69.8682 32.736C71.0077 32.012 72.2658 31.6985 73.6201 31.8085C75.7468 31.9806 76.8251 34.0062 75.8818 36.0834C75.238 37.505 74.1331 38.4798 72.84 39.2644C71.4799 40.0884 70.0005 40.5989 68.4464 40.8831C68.1421 40.9389 68.0213 41.068 68.0417 41.3665C68.0684 41.7942 68.0297 42.2362 68.1238 42.6468C68.2645 43.263 68.7733 43.6222 69.4002 43.6429C70.4686 43.6763 71.3732 43.2216 72.213 42.616C73.7451 41.5078 74.9049 40.0448 75.9367 38.4718C77.6278 35.8964 78.8901 33.1031 79.9322 30.202C80.0483 29.8806 80.2015 29.6958 80.5451 29.6028C81.411 29.368 82.2629 29.0838 83.1492 28.8097C84.5422 31.2852 85.9865 33.7114 86.5257 36.5461C87.0507 39.2958 85.2591 41.8149 82.5243 42.234C81.1741 42.4396 79.9626 42.2048 78.9743 41.1901C78.5617 40.7689 78.2694 40.2748 78.1794 39.6565C78.5878 39.7999 78.9638 39.9556 79.3539 40.0634C80.018 40.2504 80.6816 40.2005 81.3232 39.9556C82.3993 39.5444 82.9306 38.6338 82.7753 37.3615C82.5729 35.695 81.8848 34.1927 81.1475 32.6239C80.9781 33.0495 80.8411 33.4043 80.6999 33.755C79.4747 36.7761 77.9917 39.6442 75.8614 42.1198C74.3046 43.9271 72.5173 45.4193 70.1888 46.0728C69.446 46.2786 68.6824 46.3969 67.9131 46.4255C66.6408 46.4733 65.5213 46.0898 64.7939 44.8031C64.6694 45.0937 64.5753 45.3258 64.4671 45.5521C63.8913 46.7538 63.1786 47.845 61.9874 48.5133C60.5902 49.2958 58.84 49.2873 57.7999 47.7435C57.3183 48.2848 56.8848 48.9016 56.3295 49.3579C55.6858 49.8849 54.9464 50.2961 54.2196 50.7025C53.9293 50.8645 53.7495 51.0138 53.6679 51.3586C53.2961 52.9231 52.7774 54.436 51.8889 55.7891C50.9921 57.1501 49.8318 58.1441 48.2061 58.4846C46.4695 58.8474 44.8803 58.2561 44.0186 56.8723C43.788 56.5004 43.6672 56.0605 43.5448 55.6228C44.1148 55.9819 44.6863 56.2098 45.33 56.2704C46.333 56.3655 47.1743 56.0276 47.8975 55.3428C48.6636 54.6182 49.2048 53.73 49.6054 52.761C50.0542 51.6703 50.4568 50.5606 50.8122 49.4349C50.3751 50.0634 49.9646 50.711 49.4987 51.3171C48.9575 52.0184 48.3263 52.641 47.4891 52.981C46.0877 53.552 44.5535 53.0288 43.7592 51.7278L43.5694 51.4122C43.2975 51.962 43.0705 52.4975 42.7766 52.9916C42.0697 54.189 41.1546 55.1415 39.7657 55.5107C38.6911 55.7949 37.6803 55.5628 37.1841 54.801C36.9226 54.4004 36.8018 53.9069 36.6282 53.4835C36.3098 54.0147 35.9788 54.631 35.5908 55.2058C34.9654 56.1291 34.2118 56.9158 33.2068 57.4364C31.6935 58.2211 29.4037 57.8721 28.5806 55.9384C28.5597 55.8927 28.5189 55.8571 28.5393 55.882C28.0613 56.7623 27.6326 57.6999 27.073 58.5489C26.0005 60.1697 24.3989 61.0866 22.61 61.655C18.1281 63.0808 13.6326 64.469 9.14078 65.872C9.10574 65.8826 9.06705 65.8783 8.96717 65.8884C9.09163 65.4321 9.23856 65.0066 9.31857 64.5688C9.44511 63.8777 9.78605 63.4006 10.3665 62.9873C12.7112 61.323 14.086 58.9701 14.8641 56.2141C16.1651 51.6178 17.4786 47.0253 18.7859 42.429C18.8105 42.344 18.8246 42.2547 18.8617 42.0906C18.2834 42.2755 17.7464 42.429 17.2214 42.624C15.0743 43.4208 13.2383 44.6496 12.0879 46.7161C10.7686 49.0902 10.6829 51.5222 11.9269 53.9712C11.9473 54.0126 11.9656 54.0562 12.0189 54.1725C11.1467 53.8018 10.3692 53.2341 9.74527 52.5124C8.07247 50.5989 8.07822 48.4782 9.05502 46.2741C9.84148 44.4982 11.2099 43.2444 12.7907 42.2091C14.8395 40.8666 17.0985 40.0198 19.4192 39.3059C22.9692 38.2163 26.5151 37.1102 30.0651 36.0106C30.1248 35.992 30.1859 35.9776 30.3005 35.9442L31.579 42.2877C31.546 42.3275 31.534 42.3562 31.5136 42.3626C30.872 42.6096 30.8762 42.6075 30.4965 42.0183C30.2576 41.6465 30.0081 41.2836 29.7551 40.9224C28.9806 39.8164 27.927 39.4429 26.6437 39.7542C25.8107 39.9577 24.9856 40.2063 24.1599 40.4554C24.0516 40.4868 23.923 40.6217 23.8927 40.7338C23.0879 43.5765 22.2952 46.4239 21.5004 49.2708C21.4883 49.3165 21.4988 49.3685 21.4988 49.4801C23.2694 48.9303 25.0117 48.3889 26.8236 47.8242C26.6008 48.5961 26.411 49.2958 26.1846 49.9827C26.1496 50.0884 25.9598 50.1691 25.8248 50.2111C24.2786 50.6945 22.7302 51.1737 21.1798 51.6364C20.9 51.7193 20.7756 51.8648 20.6919 52.1469C20.2794 53.5457 19.9013 54.9566 19.3883 56.3182C18.7122 58.1148 17.5524 59.5678 15.9878 60.6738C15.91 60.7252 15.8489 60.7987 15.8121 60.8852C16.6085 60.6425 17.4049 60.4018 18.1997 60.1569C19.6011 59.7255 20.9921 59.2607 22.4013 58.8623C24.9997 58.1255 26.7541 56.4738 27.6655 53.9149C28.0535 52.8253 28.3191 51.6927 28.6826 50.5946C29.4769 48.2062 30.7742 46.1498 32.7414 44.5768C34.5836 43.1015 36.5958 42.6054 38.8653 43.6514C39.0572 43.2965 39.2386 42.9416 39.4368 42.5953C39.4964 42.489 39.5801 42.3525 39.682 42.3212C40.6583 42.0013 41.6409 41.7028 42.6726 41.383C42.6417 41.5408 42.6276 41.6529 42.5989 41.7586C41.6998 44.9545 40.8018 48.1502 39.9048 51.3458C39.8311 51.6093 39.7558 51.877 39.7291 52.1469C39.6883 52.5974 39.9456 52.8067 40.3786 52.6925C41.0427 52.514 41.4181 51.9955 41.7428 51.4414C42.5622 50.0448 42.9973 48.5053 43.3403 46.936C43.9553 44.1348 45.2197 41.7299 47.4745 39.9327C49.2006 38.5568 51.127 38.2333 53.2187 38.8825C53.3311 38.918 53.4394 38.9531 53.5513 38.9866C53.5596 38.9882 53.5738 38.976 53.625 38.9531C53.7803 38.6503 53.9455 38.3119 54.1296 37.9863C54.1866 37.8821 54.2849 37.7663 54.389 37.7307C55.3553 37.4194 56.3232 37.123 57.3711 36.7989C56.3844 40.6695 55.4144 44.4833 54.4256 48.3619C55.3574 47.9177 55.9907 47.2473 56.5136 46.4632C57.5202 44.9502 58.0556 43.2365 58.5435 41.5015C59.9366 36.5376 61.338 31.5758 62.7268 26.6125C62.7985 26.3591 62.9151 26.2284 63.1702 26.1514C64.2161 25.8422 65.2577 25.5064 66.2994 25.1803C66.4039 25.1473 66.5101 25.1202 66.6732 25.0767Z" fill="#07111F"/>
</g>
</g>
<defs>
<clipPath id="clip0_3029_3259">
<rect width="81" height="70.2" fill="white" transform="translate(7 10.7998)"/>
</clipPath>
</defs>
</svg>
