<svg width="95" height="90" viewBox="0 0 95 90" fill="none" xmlns="http://www.w3.org/2000/svg">
<g clip-path="url(#clip0_3029_2858)">
<path d="M85.7417 47.4603C86.1771 46.8359 86.4938 46.1109 86.6917 45.3656L87.1271 43.6939C87.2855 43.0897 87.3646 42.4653 87.3646 41.861C87.3646 41.4582 87.3251 41.0554 87.2459 40.6727L87.9386 40.6123L89.7396 33.7642L86.4938 29.8367L74.0646 30.9444C73.3521 30.0582 72.5605 29.1921 71.7094 28.3865C71.373 24.6603 68.2855 21.7197 64.5251 21.7197C63.6344 21.7197 62.8032 21.8808 62.0115 22.1829C57.0834 20.0882 51.3834 18.8999 45.2876 18.8999C34.6396 18.8999 25.1396 22.5455 19.0834 28.2052L7.14902 29.2928L12.9282 34.6101L4.95215 64.9027L8.47506 68.8102L31.7501 64.5603C35.8865 65.9098 40.4584 66.655 45.2876 66.655C53.6396 66.655 61.2792 64.4193 67.1178 60.7133L68.7605 70.1999L75.2324 55.3759L90.4324 48.548L85.7417 47.4603Z" fill="#D5D5D6"/>
<path d="M88.572 34.046L86.0386 30.9643L73.5897 32.0721C72.7386 30.9442 71.749 29.8566 70.6605 28.8495C70.5615 25.4859 67.8501 22.787 64.5053 22.787C63.6147 22.787 62.7636 22.9884 61.9917 23.3308C57.123 21.2159 51.4032 19.9873 45.2876 19.9873C34.7188 19.9873 25.3376 23.6329 19.499 29.2523L9.64279 30.1587L14.0959 34.2675L6.11987 64.6004L8.87091 67.6417L31.8292 63.4523C35.9261 64.8018 40.498 65.5672 45.3074 65.5672C54.1147 65.5672 62.1105 63.0294 67.9095 58.9205L69.2355 66.5339L74.4605 54.5498L87.0876 48.87L83.7428 48.1046C84.6532 47.3392 85.3657 46.2718 85.6626 45.0834L86.098 43.4117C86.2365 42.888 86.2959 42.3643 86.2959 41.8608C86.2959 41.317 86.197 40.7933 86.0386 40.3099C85.9792 40.1085 85.8803 39.9071 85.8011 39.7258L87.1074 39.605L88.572 34.046Z" fill="#CF0022"/>
<path d="M65.8117 56.2622C61.8138 59.0417 56.8263 60.8947 51.3836 61.7004C54.1346 60.6731 56.6877 59.364 58.9638 57.7929C59.1023 57.6922 59.2606 57.5915 59.3992 57.4908L54.8075 58.3166C49.7211 60.9753 43.4075 62.5463 36.5398 62.5463C35.8867 62.5463 35.2336 62.5262 34.6002 62.506C37.9252 63.3721 41.5273 63.8555 45.2679 63.8555C54.0752 63.8555 61.9919 61.2572 67.5336 57.1081L67.1971 55.2148C66.7815 55.5572 66.3065 55.9198 65.8117 56.2622Z" fill="white"/>
<path d="M8.95007 63.8554L9.80111 64.8222L68.6615 54.1675L68.4834 53.1L8.95007 63.8554ZM72.5209 52.5763L69.5719 59.3236L70.3834 60.1494L73.3324 53.4021L79.7844 50.5017L78.973 49.6759L72.5209 52.5763ZM84.9303 33.6636L84.2574 36.1812L79.9626 36.5639C79.7844 36.5841 79.6063 36.7452 79.5667 36.9265L79.0917 38.6989C79.0522 38.8802 79.1511 39.0212 79.3094 39.001L80.1209 38.9205L80.398 37.8731C80.4376 37.6918 80.5761 37.6113 80.7146 37.5911L85.0688 37.2085L85.7417 34.6908L84.9303 33.6636ZM58.1522 45.2247L58.9636 45.1441L59.3001 43.835L65.0594 43.3314L66.0688 39.4844C66.148 39.1823 66.1876 38.9003 66.1876 38.6385C66.1876 38.3766 66.148 38.1148 66.0688 37.8933C65.9897 37.6717 65.8907 37.4703 65.7324 37.289C65.5938 37.1279 65.0792 36.5035 64.9209 36.3222C65.3167 36.8459 65.4553 37.6113 65.2178 38.4774L64.2084 42.3244L58.449 42.8279L57.8949 44.9226C57.8751 45.1039 57.974 45.2448 58.1522 45.2247Z" fill="#970022"/>
<path d="M72.0656 38.356L75.8458 38.0136L76.4198 35.7981C76.4396 35.6974 76.4791 35.6168 76.5187 35.5161L75.6479 34.4688L74.9948 36.9864L71.3135 37.3087C71.1354 37.3288 70.9573 37.49 70.9177 37.6712L68.5229 46.755L65.0198 47.0772L65.3364 45.8889L64.3271 47.1578L56.6479 47.8426C55.4802 47.9433 54.6489 47.3391 54.4312 46.3521L52.9666 48.185L50.8489 48.3663C50.3146 48.4066 49.8791 48.2656 49.6219 47.9635C49.3843 48.2857 49.0083 48.5274 48.6521 48.5475L45.2875 48.8497C44.1198 48.9504 43.2885 48.3461 43.0708 47.3592L41.6062 49.1921L39.6864 49.3733C38.8948 49.4338 38.2614 49.1921 37.8656 48.7087C38.0239 48.9101 38.5385 49.5345 38.6771 49.6956C38.8156 49.8567 38.9739 49.9977 39.1521 50.1186C39.3302 50.2193 39.5479 50.32 39.7656 50.3603C40.0031 50.4006 40.2406 50.4207 40.5177 50.4006L42.1406 50.2596L43.625 48.4066C43.8427 48.6684 44.1791 49.0712 44.2781 49.1921C44.4166 49.3532 44.575 49.4942 44.7531 49.615C44.9312 49.7157 45.1489 49.8165 45.3666 49.8567C45.6041 49.897 45.8416 49.9172 46.1187 49.897L49.4833 49.5949C49.8396 49.5546 50.2156 49.3331 50.4531 49.0108C50.7104 49.2928 51.126 49.4539 51.6802 49.4136L53.501 49.2525L54.9854 47.3995C55.2031 47.6613 55.5396 48.0642 55.6385 48.185C55.7771 48.3461 55.9354 48.4871 56.1135 48.608C56.2916 48.7087 56.5094 48.8094 56.7271 48.8497C56.9646 48.89 57.2021 48.9101 57.4791 48.89L65.1583 48.2051L65.4948 47.7822L65.851 48.1447L69.3541 47.8225L71.7687 38.6581C71.8083 38.4769 71.9469 38.3762 72.0656 38.356ZM83.3073 40.5514C83.1687 40.3903 82.6541 39.7659 82.4958 39.5847C82.8916 40.1083 83.0302 40.8737 82.7927 41.7398L82.1594 44.1567C81.9614 44.9422 81.2093 45.6472 80.5166 45.7076L72.7781 46.3924L73.1146 48.3461L74.2427 48.608L74.025 47.3794L80.5958 46.7953C81.7437 46.6945 82.8521 45.6673 83.1687 44.4387L83.6041 42.767C83.6833 42.4649 83.7229 42.1829 83.7229 41.921C83.7229 41.6592 83.6833 41.3974 83.6041 41.1758C83.5448 40.9341 83.4458 40.7327 83.3073 40.5514Z" fill="#970022"/>
<path d="M72.3626 43.9555L73.4313 43.8749L73.3522 43.452L72.0459 42.1226L72.3626 43.9555ZM76.123 40.4308C76.2615 40.612 76.8157 41.2566 76.9543 41.4378C77.0928 41.599 77.2511 41.7399 77.4293 41.8608C77.6074 41.9615 77.8251 42.0622 78.0428 42.1025C78.2803 42.1428 78.5178 42.1629 78.7949 42.1428L79.2897 42.1025L79.5074 41.317C79.547 41.1357 79.448 40.9947 79.2897 41.0149L77.9834 41.1357C77.1522 41.176 76.5188 40.9141 76.123 40.4308ZM52.5313 45.7279L53.3428 45.6474L57.598 29.4739L56.7668 28.4668L52.2938 45.4258C52.2543 45.6071 52.3532 45.7481 52.5313 45.7279ZM60.3886 39.7057C60.4282 39.5244 60.6063 39.3633 60.7845 39.3431L61.5761 39.2626L61.7938 38.477C61.8334 38.2958 61.7345 38.1548 61.5761 38.1749L59.9532 38.3159C59.7751 38.3361 59.597 38.4972 59.5574 38.6785L59.0032 40.7732L60.1313 40.6725L60.3886 39.7057ZM22.3293 32.6965L21.498 31.6693L15.4615 54.5901L16.5897 54.4894L22.3293 32.6965ZM26.9011 49.9778C26.6636 50.3 26.2876 50.5417 25.9313 50.5618L22.5668 50.864C21.8147 50.9244 21.1813 50.7028 20.7855 50.2396L21.5574 51.1862C21.6959 51.3474 21.8543 51.4884 22.0324 51.6092C22.2105 51.7099 22.4282 51.8106 22.6459 51.8509C22.8834 51.8912 23.1209 51.9113 23.398 51.8912L26.7626 51.5891C27.1188 51.5488 27.4949 51.3272 27.7324 51.005C27.9897 51.2869 28.4053 51.4481 28.9595 51.4078L31.0772 51.2265L31.4532 50.7633L31.7699 51.1661L35.273 50.8438L37.747 41.4378L38.8553 41.3371L39.073 40.5516C39.1126 40.3703 39.0136 40.2293 38.8553 40.2495L36.9355 40.4308L34.4418 49.7965L30.9386 50.1187L31.2553 48.9304L30.2459 50.1792L28.1282 50.3604C27.574 50.4209 27.1386 50.2597 26.9011 49.9778ZM27.5147 42.324L27.7324 41.5385C27.772 41.3573 27.673 41.2163 27.5147 41.2364L22.072 41.7198L22.9032 42.7269L27.5147 42.324Z" fill="#970022"/>
<path d="M24.0709 48.2656L24.8824 48.1851L25.1792 47.0974C25.2188 46.9162 25.3969 46.755 25.5751 46.7349L26.3667 46.6543L26.6636 45.5465L24.7438 45.7278C24.5657 45.748 24.3876 45.9091 24.348 46.0904L23.8532 47.9836C23.7938 48.1448 23.8928 48.2858 24.0709 48.2656ZM46.7917 46.2313L47.6032 46.1508L49.0282 40.7126C49.0678 40.5313 49.2459 40.3702 49.424 40.3501L50.2157 40.2695L50.5126 39.1617L48.5928 39.343C48.4147 39.3631 48.2365 39.5243 48.1969 39.7055L46.5542 45.9292C46.5147 46.1105 46.6136 46.2515 46.7917 46.2313ZM29.8105 47.7419L30.6219 47.6614L31.9876 42.5052C32.0667 42.2031 32.1063 41.9211 32.1063 41.6593C32.1063 41.3974 32.0667 41.1356 31.9876 40.914C31.9084 40.6925 31.8094 40.4911 31.6511 40.3098C31.5126 40.1487 30.998 39.5243 30.8397 39.343C31.2355 39.8667 31.374 40.6321 31.1365 41.4981L29.573 47.4398C29.5334 47.6211 29.6324 47.7621 29.8105 47.7419ZM41.1709 46.7349L41.9824 46.6543L43.348 41.4981C43.4272 41.196 43.4667 40.914 43.4667 40.6522C43.4667 40.3904 43.4272 40.1285 43.348 39.907C43.2688 39.6854 43.1699 39.484 43.0115 39.3027C42.873 39.1416 42.3584 38.5172 42.2001 38.3359C42.5959 38.8596 42.7344 39.625 42.4969 40.4911L40.9334 46.4328C40.8938 46.614 40.9928 46.755 41.1709 46.7349Z" fill="#970022"/>
<path d="M79.5667 36.9263C79.6063 36.7451 79.7844 36.5839 79.9626 36.5638L84.2574 36.1811L84.9303 33.6634L78.0824 34.2677C77.3699 34.3281 76.6376 35.033 76.4397 35.8186L75.8063 38.2355C75.3511 39.9677 76.3209 41.2567 77.9636 41.0956L79.2699 40.9747C79.448 40.9546 79.547 41.0956 79.4876 41.2769L79.0126 43.0493C78.973 43.2306 78.7949 43.3917 78.6167 43.4118L72.3428 43.9758L72.0261 42.1228L69.0772 48.8701L66.4449 50.0585L15.4615 54.5903L21.498 31.6694L15.0855 32.2535L16.8469 33.885L8.95007 63.8553L68.4834 53.0998L69.5719 59.3235L72.5209 52.5761L78.9928 49.6758L73.1344 48.3465L72.798 46.3928L80.5365 45.708C81.249 45.6475 81.9813 44.9426 82.1792 44.1571L82.8126 41.7401C83.2678 40.008 82.298 38.7189 80.6553 38.8599L79.349 38.9807C79.1709 39.0009 79.0719 38.8599 79.1313 38.6786L79.5667 36.9263Z" fill="white"/>
<path d="M64.5054 34.2272C67.3146 34.2272 69.5919 31.9096 69.5919 29.0508C69.5919 26.192 67.3146 23.8745 64.5054 23.8745C61.6962 23.8745 59.4189 26.192 59.4189 29.0508C59.4189 31.9096 61.6962 34.2272 64.5054 34.2272Z" fill="white"/>
<path d="M61.4178 24.9223C56.747 22.888 51.2251 21.6997 45.2876 21.6997C43.1501 21.6997 41.072 21.8608 39.073 22.1428C47.1085 22.5054 54.2928 25.0432 59.4189 28.9304C59.4585 27.299 60.2303 25.8488 61.4178 24.9223ZM74.9949 37.0071L75.648 34.4895L69.4335 35.0534C68.721 35.1138 67.9887 35.8188 67.7907 36.6043L65.6928 44.5803L58.1522 45.2449C57.9741 45.2651 57.8751 45.1241 57.9345 44.9428L58.4887 42.8481L64.248 42.3446L65.2574 38.4976C65.7126 36.7654 64.7428 35.4764 63.1001 35.6174L58.0928 36.0605C57.3803 36.1209 56.648 36.8259 56.4501 37.6114L54.5105 44.9831C54.4512 45.1845 54.4314 45.3859 54.4116 45.5873L52.571 45.7485C52.3928 45.7686 52.2939 45.6276 52.3532 45.4464L56.8262 28.4873L51.0668 29.011L52.8282 30.6425L51.2449 36.6849L46.772 37.0877C46.0595 37.1481 45.3272 37.8531 45.1293 38.6386L43.1897 46.0103C43.1303 46.2117 43.1105 46.4131 43.0907 46.6145L41.2501 46.7757C41.072 46.7958 40.973 46.6548 41.0324 46.4736L42.596 40.5319C43.0512 38.7997 42.0814 37.5107 40.4387 37.6517L34.1647 38.2156L31.6907 47.6216L29.8897 47.7827C29.7116 47.8029 29.6126 47.6619 29.672 47.4806L31.2355 41.5389C31.6907 39.8068 30.721 38.5177 29.0782 38.6587L22.8043 39.2227L22.1314 41.7403L27.5741 41.257C27.7522 41.2368 27.8512 41.3778 27.7918 41.5591L27.2772 43.5329L22.8439 43.9358C22.1314 43.9962 21.3793 44.6608 21.1814 45.4262L20.5085 48.0244C20.0532 49.7566 21.023 51.0456 22.6657 50.9047L26.0303 50.6025C26.3866 50.5623 26.7626 50.3407 27.0001 50.0184C27.2574 50.3004 27.673 50.4615 28.2272 50.4213L30.3449 50.24L31.3543 48.9912L31.0376 50.1796L34.5407 49.8573L37.0147 40.4513L38.9345 40.27C39.1126 40.2499 39.2116 40.3909 39.1522 40.5721L37.5887 46.5138C37.1335 48.246 38.1032 49.535 39.746 49.3941L41.6657 49.2128L43.1303 47.3799C43.348 48.3668 44.1793 48.9711 45.347 48.8704L48.7116 48.5683C49.0678 48.528 49.4439 48.3064 49.6814 47.9842C49.9387 48.2661 50.3543 48.4273 50.9085 48.387L53.0262 48.2057L54.4907 46.3729C54.7085 47.3598 55.5397 47.964 56.7074 47.8633L64.3866 47.1785L65.396 45.9096L65.0793 47.0979L68.5824 46.7757L70.9772 37.6919C71.0168 37.5107 71.1949 37.3495 71.373 37.3294L74.9949 37.0071ZM59.5574 38.699C59.597 38.5177 59.7751 38.3566 59.9532 38.3365L61.5762 38.1955C61.7543 38.1753 61.8532 38.3163 61.7939 38.4976L61.2397 40.5923L59.0032 40.7937L59.5574 38.699ZM26.0699 47.7626C26.0303 47.9439 25.8522 48.105 25.6741 48.1252L24.0512 48.2661C23.873 48.2863 23.7741 48.1453 23.8335 47.964L24.3282 46.0707C24.3678 45.8895 24.546 45.7283 24.7241 45.7082L26.6439 45.5269L26.0699 47.7626ZM48.7907 45.7485C48.7512 45.9297 48.573 46.0909 48.3949 46.111L46.772 46.252C46.5939 46.2721 46.4949 46.1312 46.5543 45.9499L48.197 39.7262C48.2366 39.5449 48.4147 39.3838 48.5928 39.3637L50.5126 39.1824L48.7907 45.7485Z" fill="white"/>
<path d="M23.3189 49.5545C22.4085 49.6351 21.8741 48.9302 22.1314 47.9634L22.7252 45.7277C22.7846 45.486 22.9429 45.2644 23.121 45.1033L21.7356 44.3782C21.4387 44.6401 21.2012 45.0026 21.1023 45.3853L20.4294 47.9835C19.9741 49.7157 20.9439 51.0047 22.5866 50.8637L25.9512 50.5616C26.3075 50.5213 26.6835 50.2998 26.921 49.9775C27.1783 50.2595 27.5939 50.4206 28.1481 50.3803L30.2262 50.1991L29.7512 49.0107L23.3189 49.5545ZM35.5106 39.2825L34.0856 38.1747L30.9387 50.1185L34.4419 49.7962L33.0169 48.6885L35.5106 39.2825ZM51.0273 28.9902L52.7887 30.6015L51.1856 36.6641L52.6106 37.7719L54.6689 29.957L51.0273 28.9902ZM62.7241 41.4577L56.9846 41.9613L58.4689 42.8273L64.2283 42.3238L62.7241 41.4577ZM68.4241 35.5362C68.1273 35.8182 67.8898 36.1807 67.7908 36.5835L65.02 47.0772L68.5231 46.7549L67.0981 45.6471L69.3346 37.1273C69.3939 36.8856 69.5523 36.6641 69.7304 36.4828L68.4241 35.5362ZM70.3835 36.1807C70.1658 36.2008 69.9481 36.3217 69.7502 36.4828L71.0762 37.4295C71.1554 37.369 71.2346 37.3288 71.3137 37.3086L74.995 36.9863L73.8866 35.8584L70.3835 36.1807ZM41.1116 47.9835L40.4189 48.0439C39.5085 48.1245 38.9741 47.4196 39.2314 46.4528L40.795 40.5111C41.0523 39.5644 40.5179 38.8394 39.6075 38.9199L35.5106 39.2825L36.9356 40.3902L38.8554 40.209C39.0335 40.1888 39.1325 40.3298 39.0731 40.5111L37.5096 46.4528C37.0544 48.1849 38.0241 49.474 39.6669 49.333L41.5866 49.1517L41.1116 47.9835Z" fill="#D5D5D6"/>
<path d="M28.6823 44.3787L23.7344 44.8218C23.5167 44.8419 23.2792 44.9628 23.1011 45.1239L24.4865 45.849C24.5657 45.7886 24.6448 45.7483 24.724 45.7281L26.6438 45.5469L26.0698 47.7624C26.05 47.843 25.9907 47.9437 25.9115 48.0041L26.9407 49.2327C27.198 49.2126 27.4552 48.9709 27.5146 48.7091L28.6823 44.3787ZM28.2469 39.9274L23.8334 40.3101L22.725 39.1822L22.0521 41.6999L27.4948 41.2165C27.673 41.1963 27.7719 41.3373 27.7125 41.5186L27.198 43.4924L28.6823 44.3585L29.4344 41.4985C29.6917 40.572 29.1573 39.8469 28.2469 39.9274ZM62.3282 36.9062L59.023 37.2083C58.8053 37.2285 58.5875 37.3493 58.3896 37.5105L59.7157 38.4571C59.7948 38.3967 59.874 38.3564 59.9532 38.3363L61.5761 38.1953C61.7542 38.1751 61.8532 38.3161 61.7938 38.4974L61.2396 40.5921L62.724 41.4582L63.5157 38.4773C63.773 37.5306 63.2386 36.8257 62.3282 36.9062ZM83.149 35.0532L79.0125 35.4158C78.7948 35.4359 78.5771 35.5568 78.3792 35.7179L79.7053 36.6645C79.7844 36.6041 79.8636 36.5638 79.9427 36.5437L84.2375 36.161L83.149 35.0532Z" fill="#D5D5D6"/>
<path d="M77.0731 34.771L78.3991 35.7176C78.221 35.8989 78.0627 36.1205 78.0033 36.3622L77.4491 38.4569C77.1918 39.4035 77.7262 40.1286 78.6366 40.048L79.9429 39.9272C80.8533 39.8466 81.3877 40.5516 81.1304 41.5183L80.5762 43.613C80.5168 43.8547 80.3585 44.0763 80.1804 44.2576L78.8543 43.3109C78.9335 43.2505 78.9731 43.1699 79.0127 43.0692L79.4877 41.2968C79.5273 41.1155 79.4283 40.9745 79.27 40.9947L77.9637 41.1155C76.321 41.2565 75.3512 39.9876 75.8064 38.2554L76.4398 35.8183" fill="#D5D5D6"/>
<path d="M80.2002 44.2375C80.0221 44.4187 79.7846 44.5194 79.5669 44.5396L73.6887 45.0632L72.3429 43.9555L72.7585 46.3926L80.4971 45.7078C80.8533 45.6675 81.2096 45.4862 81.5064 45.2042L80.2002 44.2375ZM52.4721 46.9565L46.0398 47.5205C45.1294 47.6011 44.595 46.8961 44.8523 45.9293L46.6335 39.1417C46.6929 38.9 46.8512 38.6784 47.0294 38.4972L45.7033 37.5505C45.4064 37.8325 45.1689 38.195 45.07 38.5979L43.1304 45.9696C42.6752 47.7018 43.645 48.9908 45.2877 48.8498L48.6523 48.5477C49.0085 48.5074 49.3846 48.2859 49.6221 47.9636C49.8794 48.2456 50.295 48.4067 50.8492 48.3664L52.9669 48.1852L52.4721 46.9565ZM63.8325 45.9495L57.4002 46.5134C56.4898 46.594 55.9554 45.889 56.2127 44.9223L57.9939 38.1346C58.0533 37.8929 58.2117 37.6714 58.3898 37.4901L57.0637 36.5435C56.7669 36.8254 56.5294 37.188 56.4304 37.5908L54.4908 44.9625C54.0356 46.6947 55.0054 47.9837 56.6481 47.8427L64.3273 47.1579L63.8325 45.9495Z" fill="#D5D5D6"/>
<path d="M68.4834 53.0997L65.6532 52.4552L11.6615 61.3174L19.024 33.3209L15.0855 32.2534L16.8469 33.8849L8.95007 63.8552L68.4834 53.0997Z" fill="#D5D5D6"/>
<path d="M47.6625 38.2153C47.4448 38.2355 47.2271 38.3563 47.0292 38.5174L48.3552 39.4641C48.4344 39.4037 48.5135 39.3634 48.5927 39.3432L50.5125 39.162L48.7906 45.7079C48.7708 45.7885 48.7115 45.8892 48.6323 45.9496L49.6615 47.1782C49.9188 47.1581 50.176 46.9164 50.2354 46.6545L52.5906 37.7319L47.6625 38.2153Z" fill="#D5D5D6"/>
<path d="M72.3824 49.112L71.6501 44.8823L69.6512 49.4544L66.5637 50.8442L14.2147 56.8261L16.1543 58.6187L66.1876 51.6498L69.2355 52.3346L69.9678 56.5643L71.9668 51.9922L76.3605 50.0184L72.3824 49.112Z" fill="#FAC109"/>
<path d="M71.1948 47.9839L71.7094 49.7966L73.4115 50.3807L71.4719 51.4482L70.423 53.4623L69.9084 51.6295L68.2063 51.0454L70.1459 49.998L71.1948 47.9839Z" fill="#004537"/>
<path d="M60.448 25.9089C57.9939 24.8817 55.3418 24.0962 52.5511 23.6128C55.1439 24.64 57.5386 25.929 59.6564 27.4598C59.8345 26.8958 60.1116 26.3722 60.448 25.9089Z" fill="#FAC109"/>
<path d="M65.6137 32.6564C63.0408 32.6564 60.9627 30.5415 60.9627 27.9232C60.9627 26.3924 61.6752 25.0228 62.7835 24.1567C60.8242 24.8818 59.4189 26.7953 59.4189 29.0309C59.4189 31.891 61.695 34.2073 64.5054 34.2073C66.7023 34.2073 68.5825 32.7772 69.295 30.7832C68.4439 31.9313 67.1179 32.6564 65.6137 32.6564Z" fill="#D5D5D6"/>
<path d="M65.7917 30.8236L65.4948 30.1388L65.2771 30.4007L65.5344 31.0049L65.3365 31.2265L66.0886 31.5286L66.2865 31.2869L65.6334 31.0049L65.7917 30.8236ZM66.5042 30.1187L66.3656 29.3936L66.0886 29.6152L66.2271 30.2395L65.9896 30.441L66.6625 30.8841L66.9198 30.6827L66.3261 30.2798L66.5042 30.1187ZM67.3552 29.595L67.3354 28.8498L67.0584 28.9908V29.6554L66.7813 29.7964L67.3552 30.3604L67.6521 30.1993L67.1375 29.6957L67.3552 29.595ZM68.2854 29.2325L68.424 28.5074L68.1073 28.588L67.9886 29.2325L67.6917 29.313L68.1271 29.9777L68.4438 29.8971L68.0479 29.2929L68.2854 29.2325ZM69.275 29.0713L69.5323 28.3865L69.2157 28.4067L68.9781 29.0109L68.6615 29.0311L68.9781 29.7763L69.2948 29.7562L69.0375 29.0915L69.275 29.0713ZM65.2177 31.6494L64.8021 31.0452L64.6438 31.3473L65 31.871L64.8615 32.153L65.6334 32.294L65.7917 31.9918L65.099 31.871L65.2177 31.6494ZM64.8219 32.5759L64.2875 32.0724L64.1886 32.3947L64.6636 32.8378L64.5646 33.1399L65.3563 33.1198L65.4552 32.7975L64.7427 32.8176L64.8219 32.5759ZM64.6042 33.5629L63.9906 33.1802L63.9511 33.5024L64.4854 33.8448L64.4657 34.1671L65.2375 33.9858L65.2771 33.6636L64.5844 33.8046L64.6042 33.5629ZM63.6146 26.6947L62.8823 26.3925L62.6844 26.6544L63.3375 26.9364L63.1792 27.1176L63.4761 27.7823L63.6938 27.5406L63.4167 26.9364L63.6146 26.6947ZM62.3084 27.0572L62.0511 27.2586L62.6448 27.6615L62.4469 27.8024L62.6052 28.5275L62.8625 28.3261L62.724 27.6816L62.9813 27.5003L62.3084 27.0572ZM61.6156 27.5809L61.3188 27.7219L61.8334 28.2456L61.6156 28.3463V29.0915L61.9125 28.9304V28.2858L62.1896 28.1448L61.6156 27.5809ZM60.8438 27.9434L60.5073 28.0441L60.9032 28.6484L60.6854 28.7088L60.5469 29.4339L60.8636 29.3533L60.9823 28.7088L61.2792 28.6282L60.8438 27.9434ZM60.0521 28.165L59.7157 28.1851L59.9927 28.8498L59.7552 28.8699L59.4781 29.5547L59.8146 29.5346L60.0521 28.9304L60.349 28.9102L60.0521 28.165ZM64.1688 26.8961L64.3271 26.594L63.9511 26.0703L64.1094 25.7883L63.3375 25.6473L63.1594 25.9293L63.8719 26.0703L63.7532 26.2918L64.1688 26.8961ZM64.1292 25.4258L64.6636 25.9494L64.7625 25.6272L64.2875 25.1639L64.3865 24.8819H63.5948L63.4959 25.2042H64.2084L64.1292 25.4258ZM64.3667 24.4993L64.9802 24.8819L65.0198 24.5597L64.4657 24.2173L64.5052 23.895L63.7334 24.0763L63.6938 24.3986L64.3865 24.2576L64.3667 24.4993Z" fill="#CF0022"/>
<path d="M24.6846 34.0258L25.5158 32.9986C26.0898 33.482 26.7033 33.8043 27.4356 33.8043C28.0096 33.8043 28.3658 33.5626 28.3658 33.1799V33.1597C28.3658 32.7972 28.1481 32.6159 27.0596 32.3339C25.7533 31.9915 24.9221 31.629 24.9221 30.3198V30.2997C24.9221 29.1113 25.8523 28.3258 27.1783 28.3258C28.1085 28.3258 28.92 28.6279 29.5731 29.1516L28.8408 30.2392C28.2669 29.8364 27.7127 29.5947 27.1585 29.5947C26.6242 29.5947 26.3273 29.8565 26.3273 30.1587V30.1788C26.3273 30.6018 26.6044 30.7428 27.7127 31.0449C29.0189 31.3873 29.7512 31.8707 29.7512 33.0187V33.0389C29.7512 34.3481 28.7814 35.0732 27.3762 35.0732C26.446 35.0732 25.4564 34.7308 24.6846 34.0258ZM30.1867 34.0258L31.0179 32.9986C31.5919 33.482 32.2054 33.8043 32.9377 33.8043C33.5117 33.8043 33.8679 33.5626 33.8679 33.1799V33.1597C33.8679 32.7972 33.6502 32.6159 32.5617 32.3339C31.2554 31.9915 30.4242 31.629 30.4242 30.3198V30.2997C30.4242 29.1113 31.3544 28.3258 32.6804 28.3258C33.6106 28.3258 34.4221 28.6279 35.0752 29.1516L34.3429 30.2392C33.7689 29.8364 33.2148 29.5947 32.6606 29.5947C32.1064 29.5947 31.8294 29.8565 31.8294 30.1587V30.1788C31.8294 30.6018 32.1064 30.7428 33.2148 31.0449C34.521 31.3873 35.2533 31.8707 35.2533 33.0187V33.0389C35.2533 34.3481 34.2835 35.0732 32.8783 35.0732C31.9481 35.0732 30.9585 34.7308 30.1867 34.0258ZM35.8471 31.7096C35.8471 29.8364 37.2721 28.3057 39.2314 28.3057C40.3992 28.3057 41.0919 28.6279 41.7648 29.212L40.8742 30.2997C40.3794 29.8767 39.9439 29.635 39.1919 29.635C38.1627 29.635 37.3512 30.5615 37.3512 31.6693V31.6894C37.3512 32.8979 38.1627 33.764 39.3106 33.764C39.8252 33.764 40.2804 33.623 40.6367 33.3611V32.4145H39.1919V31.1657H41.9825V34.0057C41.3294 34.5696 40.3992 35.053 39.2314 35.053C37.2325 35.0933 35.8471 33.6633 35.8471 31.7096Z" fill="white"/>
</g>
<defs>
<clipPath id="clip0_3029_2858">
<rect width="85.5" height="51.3" fill="white" transform="translate(4.95215 18.8999)"/>
</clipPath>
</defs>
</svg>
