<svg width="95" height="90" viewBox="0 0 95 90" fill="none" xmlns="http://www.w3.org/2000/svg">
<g clip-path="url(#clip0_3029_3097)">
<mask id="mask0_3029_3097" style="mask-type:luminance" maskUnits="userSpaceOnUse" x="-17" y="-360" width="464" height="511">
<path d="M-16.7046 -359.036H446.457V150.441H-16.7046V-359.036Z" fill="white"/>
</mask>
<g mask="url(#mask0_3029_3097)">
<path d="M79.4102 40.0857C81.0785 40.3406 82.509 41.0048 83.4444 41.9868C83.8535 42.407 84.1736 42.9054 84.3857 43.4521C84.5978 43.9988 84.6975 44.5827 84.6788 45.1689C84.669 45.703 84.5798 46.2328 84.4141 46.7407L86.6044 44.5513L84.5399 42.4868L78.7632 36.7092C79.2223 38.0547 79.3743 39.2369 79.4102 40.0857Z" fill="#1A1B2E"/>
<path d="M40.2664 65.8543C39.3989 65.5556 38.5508 65.2031 37.7272 64.7988C37.5356 65.3066 37.3989 65.8336 37.3196 66.3706C38.3068 66.228 39.2895 66.0558 40.2664 65.8543Z" fill="#1A1B2E"/>
<path d="M11.758 44.5463L10.8814 43.249C10.7531 43.0597 10.6337 42.8645 10.5236 42.664L8.63721 44.5512L14.5373 50.4521L15.1974 41.1028L11.758 44.5463Z" fill="#1A1B2E"/>
<path d="M68.0944 53.9407C66.6417 57.0928 64.4835 59.8685 61.7866 62.0532C64.3641 62.2819 66.2391 63.0351 67.4466 63.71L73.8369 57.3197L80.2272 50.9285C77.2493 52.4857 72.9464 53.3214 68.0944 53.9407Z" fill="#1A1B2E"/>
<path d="M26.5975 52.6738C25.3917 53.2015 23.9636 53.5689 22.3133 53.7758L18.3372 54.2521L27.497 63.4111C27.9275 61.6285 28.7192 59.9497 29.8531 58.4072C28.4898 56.6679 27.3927 54.7356 26.5975 52.6738Z" fill="#1A1B2E"/>
<path d="M56.7483 74.4082C54.2018 74.6802 51.6006 75.4621 48.8025 76.3068C46.6351 76.9612 44.4227 77.627 42.1426 78.0567L47.6211 83.5361L56.7483 74.4082Z" fill="#1A1B2E"/>
<path d="M84.415 46.7415C84.5797 46.2325 84.6688 45.7021 84.6797 45.1672C84.7099 43.9671 84.2826 42.8658 83.4452 41.9868C82.509 41.004 81.0801 40.3373 79.4111 40.0857C79.357 38.9351 79.1389 37.7981 78.7632 36.7092L86.6053 44.5496L84.415 46.7415ZM67.4458 63.7099C66.2391 63.0334 64.3642 62.281 61.7867 62.0523C64.4831 59.8677 66.6411 57.0923 68.0936 53.9406C72.9464 53.3214 77.2494 52.484 80.228 50.9285L67.4458 63.7099ZM54.2191 22.9997C56.4927 22.4768 58.1765 22.1696 59.4109 21.994L59.4085 21.9973C62.3389 21.5806 63.3209 21.9221 63.3209 21.9221C63.3209 21.9221 63.102 20.1738 59.5939 20.6632C58.473 20.82 56.9543 20.8511 47.9767 23.2962L47.6662 23.3722C47.5992 23.3886 47.532 23.4049 47.4644 23.4212C46.983 23.5394 46.5004 23.6571 46.0168 23.7742C45.1631 23.981 44.3072 24.1782 43.4491 24.3657L43.0406 24.4563C42.0991 24.6586 41.1534 24.8403 40.2041 25.0013L39.8046 25.065C38.2082 25.3141 36.6552 25.4694 35.1756 25.4694L35.1136 25.4686C34.966 25.4686 34.8203 25.4661 34.6765 25.4612C34.6476 25.4601 34.6187 25.4585 34.5899 25.4563C34.4564 25.4525 34.3244 25.4473 34.1937 25.4408L34.1716 25.4391C29.4438 25.154 27.1857 22.9376 27.1849 22.9376L27.1874 22.936C27.189 22.9343 27.195 22.9313 27.2053 22.927L27.2601 22.8902C27.2786 22.8777 27.3006 22.8633 27.3262 22.8469L27.3679 22.8191L27.488 22.7374L27.5746 22.6794C27.6171 22.6511 27.6626 22.6201 27.711 22.5863C27.9014 22.454 28.131 22.2906 28.3842 22.1059L28.5215 22.003C29.2657 21.4466 30.1619 20.7138 30.7681 20.0047C30.2804 18.7474 30.0402 17.4076 29.9258 16.5073C29.9149 16.4256 29.9054 16.3471 29.8972 16.272C29.882 16.1358 29.8692 16.0144 29.8588 15.9076C29.8501 15.8134 29.8433 15.733 29.8384 15.6666L29.8376 15.6544L29.8245 15.4566L29.7567 14.0457L31.059 14.5907C31.2093 14.6533 31.3596 14.7127 31.5099 14.7688C31.5524 14.7851 31.5946 14.8012 31.6366 14.817C31.7553 14.86 31.8737 14.9017 31.9919 14.942L32.0965 14.9787C32.2463 15.0283 32.3952 15.0751 32.5434 15.1192C32.5736 15.129 32.6038 15.1348 32.6341 15.1446C32.7561 15.1794 32.8778 15.2129 32.9992 15.245C33.0417 15.257 33.0839 15.2677 33.1259 15.2769C33.4215 15.351 33.7193 15.4164 34.0188 15.473C34.0583 15.4784 34.0975 15.4852 34.1365 15.4934C34.2536 15.5136 34.3704 15.5321 34.4869 15.549L34.5989 15.5677C34.7467 15.5874 34.893 15.6086 35.0417 15.6233C35.064 15.626 35.0863 15.6285 35.1087 15.6307C35.2361 15.6448 35.3625 15.6568 35.4877 15.6666L35.6144 15.6764C35.7385 15.6857 35.8627 15.6933 35.9869 15.6993L36.0621 15.7042C36.2086 15.7102 36.3548 15.7143 36.5008 15.7164L36.6143 15.7173L36.7981 15.7197L36.8921 15.7181L37.3145 15.7123L37.4705 15.7075C37.6959 15.6969 37.9211 15.6836 38.1461 15.6674C38.3041 15.656 38.4612 15.6424 38.6175 15.6266L38.8022 15.607C38.9372 15.5933 39.0726 15.5776 39.2082 15.5596L39.3912 15.5367C39.5524 15.5138 39.7139 15.4901 39.8756 15.4656C39.9056 15.4618 39.935 15.4572 39.9639 15.4517C40.1556 15.4218 40.347 15.3891 40.5382 15.3537C40.5899 15.3439 40.6425 15.3341 40.6959 15.3243C40.8375 15.2981 40.9794 15.2701 41.1215 15.2402C41.1836 15.2276 41.246 15.2151 41.3086 15.2026L41.731 15.1102C41.7849 15.0994 41.8383 15.0874 41.8911 15.0743C42.0834 15.0324 42.2759 14.9872 42.4687 14.9387C42.4867 14.9343 42.5049 14.9302 42.5234 14.9264C42.6977 14.8823 42.8726 14.8382 43.0479 14.7941C43.1078 14.7777 43.1683 14.7617 43.2293 14.7459L43.6435 14.6356C43.705 14.6193 43.7666 14.6026 43.8281 14.5858C43.9823 14.5438 44.1367 14.5005 44.2913 14.4559C44.3306 14.4461 44.3698 14.4349 44.409 14.4224C44.6029 14.3695 44.7968 14.314 44.9907 14.2557C45.043 14.2426 45.0952 14.2247 45.1475 14.2116C45.2929 14.1691 45.4389 14.1255 45.5854 14.0809C45.654 14.0618 45.7221 14.0414 45.7897 14.0196L46.2079 13.8962C46.2695 13.8777 46.3308 13.8595 46.3918 13.8415L46.9122 13.6838C46.9258 13.6789 46.9402 13.6748 46.9555 13.6716C47.285 13.5703 47.6156 13.4703 47.9473 13.3717L48.279 13.2729L49.2054 13.0025C49.3416 12.9627 49.4785 12.9243 49.6163 12.8873C49.7274 12.8546 49.8391 12.8227 49.9513 12.7917C52.528 12.0793 55.1684 11.514 57.8783 11.514C59.7541 11.514 61.3994 12.0352 62.6216 12.9469C62.8902 13.1476 63.1416 13.3704 63.3732 13.6128C63.9463 14.214 64.3726 14.9396 64.6191 15.7328C64.8388 15.9011 65.0946 16.111 65.3503 16.3708C65.4636 16.4879 65.5749 16.6148 65.6844 16.7515C66.204 17.4051 66.6419 18.307 66.6509 19.5578C66.6509 20.2024 66.5104 20.8511 66.244 21.4728C66.0433 21.9375 65.7907 22.3779 65.4908 22.7856C65.3998 22.9107 65.3045 23.0325 65.2048 23.1508L73.7732 31.7175L70.3378 32.1595L70.1328 33.0304C70.1295 33.0418 69.931 33.8841 69.6083 35.0556L66.7612 32.6562C65.7399 31.0184 64.5126 29.5184 63.1093 28.1931C60.5888 25.7959 57.5452 24.0179 54.2191 22.9997ZM47.6213 83.5336L42.1427 78.0558C44.4221 77.6277 46.6336 76.9586 48.8026 76.3059C51.6007 75.4611 54.2011 74.6777 56.7484 74.4064L47.6213 83.5336ZM37.3185 66.3691C37.3992 65.8321 37.535 65.3087 37.7262 64.7989C38.5503 65.2033 39.3989 65.5558 40.267 65.8544C39.2897 66.0565 38.3064 66.2281 37.3185 66.3691ZM33.893 26.685C32.4831 27.7738 31.2051 29.0235 30.0851 30.4087C29.8482 30.073 29.5835 29.7462 29.291 29.4382C28.3973 28.4962 27.287 27.7365 26.0044 27.1842L28.0141 25.1744C29.3572 25.8934 31.2599 26.5282 33.8946 26.685H33.893ZM27.4978 63.4093L18.338 54.2503L22.3133 53.774C23.9647 53.5665 25.3928 53.1996 26.5975 52.6735C27.3931 54.7349 28.4905 56.6666 29.8539 58.4053C28.7192 59.9494 27.9275 61.6283 27.4978 63.4093ZM47.6213 5.5681L52.8523 10.7983H52.854C50.7143 11.2248 48.6343 11.8546 46.5919 12.4698C43.9204 13.2745 41.3642 14.0449 38.8504 14.339L47.6213 5.5681ZM14.5383 50.4514L8.63734 44.5496L10.5245 42.664C10.6487 42.8863 10.7677 43.0815 10.8815 43.2498L11.7573 44.5455L15.1984 41.1028L14.5383 50.4514ZM88.5709 44.5496L87.5881 43.566L66.9286 22.9065C67.3919 22.1598 67.9074 21.0047 67.9074 19.5562V19.5488C67.8967 18.2817 67.4997 16.4746 65.6844 14.973C65.1599 13.5907 64.1885 12.4232 62.8667 11.594C61.4729 10.7191 59.7492 10.2591 57.8783 10.2591C56.7576 10.2623 55.6385 10.345 54.5296 10.5067L48.6049 4.58283L47.6213 3.60002L46.6377 4.58283L36.7573 14.464C32.7542 14.4493 28.4071 12.1234 28.4063 12.1218C28.4063 12.1234 28.1873 16.1919 29.3278 19.691C28.2372 20.6844 25.1515 22.6541 25.1498 22.6557C25.1498 22.6557 25.5935 23.4964 26.8165 24.413L26.8116 24.4098L24.5543 26.667C23.9774 26.5003 23.3901 26.3723 22.7962 26.2839C16.8372 25.3852 10.683 29.5477 9.62178 35.1913C9.12425 37.8366 9.42734 39.8594 9.92242 41.2997L7.65453 43.566L6.6709 44.5496L7.65453 45.5332L14.4076 52.2879L14.2352 54.7421L16.5823 54.4602L27.2037 65.0808C27.1623 65.4402 27.1353 65.8013 27.1228 66.1641C27.0174 69.2228 27.8712 71.7782 29.6619 73.7676C30.7575 76.6653 33.7982 78.5182 37.5056 78.5182C38.4991 78.5182 39.4794 78.4496 40.4459 78.3246L46.6377 84.5172L47.6213 85.5L48.6049 84.5172L58.8145 74.3068C60.5366 74.325 62.2387 74.6771 63.8266 75.3435L67.0144 76.6751L66.8486 73.2226C66.8363 72.9841 66.7236 71.0569 66.0937 69.0545C67.2334 67.9622 68.8755 66.9026 68.8943 66.8903L70.2463 66.0252L69.1116 64.8904C69.0846 64.8651 68.9278 64.709 68.6369 64.4868L87.5881 45.5332L88.5709 44.5496Z" fill="white"/>
<path d="M17.0137 33.7298L15.6323 53.2749L22.1533 52.4955C27.3288 51.8477 29.4275 49.6182 29.9643 46.8862C30.8801 41.9681 26.1768 40.6454 26.1768 40.6454C26.1768 40.6454 30.1751 39.2296 30.22 34.76C30.2257 31.7601 27.7764 28.3403 22.6034 27.5609C17.1575 26.739 11.7933 30.6229 10.8906 35.4307C10.2362 38.9086 11.0924 41.2557 11.9502 42.5277L15.1633 39.3097C13.2835 33.939 17.5734 30.8835 21.7669 31.4578C24.6916 31.8729 25.7545 33.7666 25.8084 35.4373C25.8648 37.1709 24.8958 38.8865 23.0536 39.3407C22.5805 39.4592 21.9531 39.451 21.9531 39.451L21.7734 42.1887C21.7734 42.1887 22.5274 42.147 22.9621 42.2254C24.4996 42.4918 25.8648 43.9321 25.4604 46.0823C25.1311 47.8372 24.0021 48.9523 21.9523 49.1206C21.3946 49.173 20.8379 49.2351 20.2824 49.3069L21.427 32.9472L17.0137 33.7298Z" fill="#1A1B2E"/>
<path d="M78.0909 41.2644C78.0909 41.2644 78.7134 36.9941 75.0052 32.8619L71.3885 33.3259C71.3885 33.3259 69.0945 43.0593 67.2718 43.2276C65.2261 43.4841 65.9908 38.7686 67.3413 34.8332L66.3258 33.9771L61.7246 34.5694C61.7246 34.5694 61.4738 33.8267 61.9975 32.5817C61.9975 32.5817 58.1774 32.9959 58.1316 32.9893C57.6757 34.3651 57.5818 36.3258 58.9527 37.6591C58.5025 39.9474 57.2869 44.9031 55.532 45.1523C53.4153 45.4178 54.97 39.7309 56.3049 35.2205L52.4578 35.7139L52.18 37.0423C51.5493 36.1788 50.5322 35.6069 49.0666 35.7956C46.3526 36.1445 44.2628 38.8576 43.4156 41.9531C42.3323 44.5453 40.6224 46.9496 37.9697 47.2462C33.2558 47.6465 33.9315 41.043 36.875 40.5863C38.6968 40.4147 38.5694 43.1761 36.2574 43.1434L36.3954 45.2463C39.7687 46.0363 41.3765 43.6303 41.6134 41.7031C41.8977 39.3886 40.0661 36.9868 36.3268 37.3764C28.1825 38.3053 28.5166 51.9005 38.2099 50.7918C40.5668 50.5222 42.2702 49.0509 43.4752 47.3393C44.128 48.8736 45.4997 49.8368 47.7815 49.5443C49.4187 49.3336 50.0257 48.1359 50.0257 48.1359L49.596 45.4538C48.2382 46.2855 46.476 45.5265 47.2276 42.2799C47.4833 41.1075 48.23 39.5863 49.5143 39.427C51.5444 39.262 50.7552 42.4612 50.7552 42.4612C50.0902 46.1074 51.3483 49.1309 55.4029 48.6097C60.1626 47.9978 61.7361 38.2457 61.7361 38.2457L63.236 38.0537C61.8357 43.453 62.562 47.689 66.4279 47.1923C70.9702 46.609 73.435 36.5652 73.435 36.5652C74.4505 38.1991 74.7528 40.1345 74.8353 41.36C73.6474 41.6247 72.5535 42.0438 71.712 42.5977L71.721 43.0715C71.77 46.0346 75.4129 47.6212 77.4071 43.9547L77.4038 43.9677C79.0288 43.5192 80.8294 44.0274 80.5924 45.3631C79.7992 49.8254 64.0538 48.372 49.8705 50.1513C38.2124 51.6113 28.7209 57.2132 28.4137 66.2072C28.305 69.3541 29.327 71.5493 30.7902 73.0852C31.6186 75.6162 34.2027 77.228 37.504 77.228C41.2743 77.228 44.9115 76.1325 48.4277 75.0696C53.8319 73.4406 58.9363 71.9006 64.3242 74.1522L65.6256 74.6954L65.5578 73.2854C65.5529 73.1783 65.4304 70.8402 64.6142 68.7357C65.8282 67.3215 68.1983 65.8028 68.1983 65.8028C68.1983 65.8028 65.6207 63.2718 60.2075 63.2718C56.2624 63.2718 51.7887 64.3706 47.4065 65.4466C41.6142 67.0396 38.0776 67.6434 35.9436 67.8297C35.6642 60.0056 44.8551 55.1814 55.9732 53.9437C65.5742 52.8727 75.6237 52.3727 80.416 49.3336C82.1153 48.2552 83.3391 47.0779 83.3889 45.1343C83.4502 42.7447 81.0173 41.3322 78.0909 41.2644Z" fill="#1A1B2E"/>
<path d="M39.4199 71.954V70.9312C39.9199 70.9018 40.1698 70.8748 40.669 70.8037V71.2098C40.919 71.1746 41.044 71.1542 41.2932 71.1093L41.2973 70.0178H41.294C41.0448 70.0636 40.9198 70.0832 40.669 70.1199V70.4394L40.3365 70.1657C39.9389 70.218 39.5389 70.2507 39.138 70.2637C38.9583 70.4492 38.8684 70.5415 38.6895 70.7229V72.2081C38.8586 72.3797 38.9436 72.4654 39.1127 72.6321C39.6968 72.6117 39.9901 72.5839 40.5759 72.5038V73.552C40.1548 73.6143 39.7308 73.6547 39.3055 73.6729V73.2628C39.0963 73.2735 38.8868 73.2784 38.6772 73.2775L38.6854 74.3706C38.9313 74.3706 39.0547 74.3673 39.3022 74.3543V73.9924C39.4436 74.1312 39.5155 74.199 39.6592 74.333C40.138 74.2963 40.379 74.2685 40.8577 74.1941C41.0375 73.9874 41.1265 73.8812 41.3062 73.6688V72.1599C41.1371 72.0153 41.0522 71.9418 40.8839 71.7939C40.3993 71.8747 39.9105 71.9282 39.4199 71.954Z" fill="white"/>
<path d="M48.4446 71.5003L47.1114 71.8949L47.113 69.1744C47.6465 69.0184 47.9128 68.9408 48.4455 68.7872L48.4446 71.5003ZM46.8246 68.5683C46.6424 68.8052 46.5509 68.9236 46.3687 69.163L46.3679 72.3435C46.5493 72.4766 46.6408 72.5412 46.8238 72.6719C47.5868 72.4456 47.9684 72.3296 48.733 72.1049L49.1881 71.511L49.1889 68.3485C49.0067 68.2153 48.916 68.1475 48.7339 68.0152C47.97 68.2325 47.5885 68.346 46.8246 68.5683Z" fill="white"/>
<path d="M52.1604 67.7998L52.4961 67.7254C52.4961 68.8006 52.4961 69.3447 52.4945 70.4173C52.0231 70.5227 51.787 70.5807 51.3148 70.7008L51.3156 67.9991C51.4488 67.9656 51.5158 67.9501 51.6506 67.9191V67.2451C51.1762 67.3565 50.7036 67.4758 50.2332 67.6029V68.2777C50.3688 68.2409 50.4358 68.223 50.5714 68.1878L50.5706 71.124L51.0264 71.4614C51.729 71.2768 52.0803 71.1902 52.7829 71.0374L53.2388 70.4852L53.2396 67.5743C53.3744 67.5457 53.4422 67.5343 53.5778 67.5106V66.8399C53.1028 66.9236 52.6302 67.02 52.1604 67.1291V67.7998Z" fill="white"/>
<path d="M42.4695 69.7745V70.464C42.6843 70.4141 42.7914 70.388 43.0054 70.3357L43.0046 73.0627C42.7905 73.1167 42.6835 73.142 42.4695 73.1926V73.8813C43.5765 73.6281 44.1304 73.4614 45.2374 73.1355V72.0383L44.6344 72.2131V72.6379C44.2799 72.7392 44.1034 72.7899 43.7497 72.8863V71.7948C44.2088 71.669 44.4392 71.6036 44.8983 71.4705L44.8991 70.9509C44.5172 71.0634 44.1341 71.1716 43.7497 71.2752V70.1233C44.1042 70.0269 44.2807 69.9763 44.6344 69.8758V70.2957L45.2382 70.1225L45.239 69.0278L45.2259 69.0327C44.1238 69.3513 43.5732 69.5171 42.4695 69.7745Z" fill="white"/>
<path d="M32.1252 71.9335L32.2477 72.0454L32.2877 72.2063C32.4936 73.047 33.4821 75.792 37.5049 75.792C41.0619 75.792 44.5961 74.725 48.0135 73.694C53.1636 72.1402 58.4829 70.5365 64.0424 72.5029C63.9525 71.7791 63.7719 70.6925 63.4149 69.6419C63.3173 69.352 63.205 69.0674 63.0783 68.789L62.9313 68.4695L63.1609 68.204C63.4419 67.8789 63.7581 67.5439 64.1028 67.2049C64.1943 67.1166 64.2823 67.0322 64.3667 66.9516L64.3822 66.9369C64.6151 66.7171 64.8626 66.4949 65.1183 66.2743L65.1575 66.24C65.2637 66.1485 65.3656 66.0625 65.4631 65.9819L65.4941 65.9574L65.6485 65.8283C60.951 63.4836 53.0893 65.5195 46.1426 67.3209C39.37 69.0749 33.5213 70.5896 31.086 68.106L31.0762 68.097C30.5255 67.5047 30.1971 66.7555 30.0043 66.0072C29.8295 67.8013 30.1399 70.1239 32.1252 71.9335Z" fill="#E22531"/>
<path d="M56.9878 69.7949C56.6424 69.8049 56.2975 69.8264 55.9535 69.8594L55.9543 67.1994C56.1676 67.1822 56.273 67.1732 56.4854 67.161V66.4813C55.8791 66.5139 55.2747 66.5747 54.6742 66.6634V67.344C54.889 67.3146 54.996 67.2999 55.2109 67.2745V69.9297C54.996 69.9558 54.889 69.9705 54.6742 70.0024L54.6733 70.6895C55.8408 70.5163 56.4241 70.4599 57.5915 70.4599V69.3782C57.3497 69.3782 57.2296 69.3807 56.9878 69.388V69.7949Z" fill="white"/>
<path d="M52.8517 10.7981L47.6215 5.56793L38.8489 14.3389C41.3635 14.0448 43.9198 13.2744 46.5913 12.4697C48.6329 11.8545 50.712 11.2254 52.8517 10.7981Z" fill="#1A1B2E"/>
<path d="M26.0044 27.1841C27.2862 27.738 28.3973 28.497 29.291 29.4398C29.5835 29.7491 29.8482 30.0721 30.0851 30.4087C30.4582 29.9474 30.8509 29.4989 31.2632 29.0631C32.0767 28.2039 32.9557 27.409 33.8922 26.6858C31.2599 26.5281 29.3572 25.8941 28.0133 25.1744L26.0044 27.1841Z" fill="#1A1B2E"/>
<path d="M65.2048 23.1508C65.2726 23.07 65.3731 22.9474 65.4908 22.7857L65.5757 22.6672C65.5779 22.6634 65.5801 22.6601 65.5823 22.6574C65.6084 22.6204 65.6348 22.5817 65.6615 22.5414C65.667 22.5316 65.673 22.5231 65.6795 22.5161L65.7514 22.4025L65.7767 22.3633L65.8445 22.253C65.8543 22.2367 65.8644 22.2203 65.8748 22.204L65.9377 22.0937C65.9486 22.0724 65.96 22.052 65.972 22.0324L66.0324 21.9189L66.0676 21.8527L66.128 21.7285C66.1378 21.7064 66.1484 21.6885 66.1574 21.668C66.1874 21.6027 66.216 21.5373 66.2432 21.472C66.5104 20.8511 66.6509 20.2032 66.6509 19.5586C66.6419 18.3071 66.204 17.4059 65.6844 16.7516C65.5794 16.619 65.4676 16.4919 65.3494 16.3708C65.1219 16.1401 64.8775 15.9265 64.6183 15.732C64.3717 14.9391 63.9453 14.2138 63.3724 13.6128C63.1421 13.3695 62.8909 13.147 62.6216 12.9478C61.3986 12.0344 59.754 11.514 57.8783 11.514C55.1684 11.514 52.528 12.0801 49.9513 12.7917C49.8391 12.8222 49.7272 12.8541 49.6155 12.8873C49.4782 12.9243 49.3415 12.9632 49.2054 13.0041C48.8955 13.0924 48.5867 13.182 48.2789 13.2729L47.9473 13.3718C47.615 13.4709 47.2844 13.5706 46.9555 13.6708L46.9122 13.6838L46.3918 13.8407C46.3305 13.8595 46.2692 13.8758 46.2079 13.8971C46.0691 13.9379 45.9296 13.9788 45.7897 14.0196C45.7221 14.0414 45.654 14.0621 45.5854 14.0817L45.1467 14.2108C45.0944 14.226 45.0424 14.241 44.9907 14.2557C44.7968 14.3135 44.6029 14.3693 44.409 14.4232C44.3698 14.4352 44.3303 14.4461 44.2905 14.4559C44.1358 14.5005 43.9817 14.5441 43.8281 14.5866C43.766 14.6013 43.7048 14.6201 43.6427 14.6356L43.2293 14.7467C43.168 14.7606 43.1076 14.7786 43.0471 14.7941C42.8728 14.8382 42.698 14.8821 42.5226 14.9256L42.4679 14.9395C42.2762 14.9868 42.0839 15.0314 41.8911 15.0735C41.8381 15.0875 41.7847 15.0998 41.731 15.1103L41.3086 15.2026L41.1215 15.241C40.9783 15.2704 40.8364 15.2982 40.6959 15.3243C40.6425 15.3336 40.5899 15.3434 40.5382 15.3537C40.3465 15.3886 40.155 15.4213 39.9639 15.4518L39.8756 15.4665C39.7133 15.4904 39.5519 15.5138 39.3912 15.5367C39.3296 15.5433 39.2684 15.5512 39.2074 15.5604C39.0728 15.5768 38.9378 15.5925 38.8021 15.6078C38.5839 15.632 38.3652 15.6517 38.1461 15.6666L38.0407 15.6764C37.8508 15.6892 37.6607 15.6996 37.4705 15.7075L37.3145 15.7116C37.1739 15.7137 37.0331 15.7156 36.8921 15.7173L36.7981 15.7197C36.7371 15.7186 36.6756 15.7178 36.6135 15.7173L36.5008 15.7156C36.3542 15.714 36.208 15.7102 36.062 15.7042C36.0364 15.7031 36.0114 15.7015 35.9869 15.6993L35.6143 15.6772L35.4877 15.6666C35.3619 15.6557 35.2355 15.644 35.1086 15.6315C35.0858 15.6288 35.0634 15.6258 35.0417 15.6225C34.8935 15.6067 34.7459 15.5882 34.5989 15.5669C34.5613 15.5615 34.5237 15.5555 34.4861 15.549C34.3701 15.5321 34.2536 15.5138 34.1365 15.4942C33.9483 15.4597 33.7607 15.4227 33.5736 15.3831L33.5303 15.3725C33.3957 15.3431 33.2609 15.3112 33.1259 15.2769C33.0834 15.2677 33.0412 15.257 32.9992 15.2451C32.8778 15.2129 32.7558 15.1794 32.6332 15.1446C32.6038 15.1348 32.5736 15.1291 32.5434 15.1193C32.3952 15.0751 32.2463 15.0286 32.0965 14.9796C32.0616 14.967 32.0268 14.9548 31.9919 14.9428C31.8737 14.9025 31.7553 14.8605 31.6365 14.817C31.5946 14.8012 31.5524 14.7848 31.5099 14.768C31.3596 14.7129 31.2093 14.6536 31.0589 14.5899L29.7559 14.0458L29.8245 15.4558L29.8376 15.6552V15.6658L29.858 15.9076L29.8964 16.2728L29.925 16.5073C30.0402 17.4076 30.2796 18.7466 30.7681 20.0055C30.1611 20.7138 29.2649 21.445 28.5215 22.003L28.3842 22.1051C28.1171 22.3008 27.8469 22.4922 27.5738 22.6795C27.5433 22.7001 27.5147 22.7192 27.488 22.7366L27.3679 22.8192C27.3527 22.8279 27.3385 22.8369 27.3254 22.8461L27.2592 22.8902L27.2045 22.9262C27.1947 22.9316 27.1887 22.9346 27.1865 22.9352C27.1854 22.9373 27.1841 22.9384 27.1841 22.9384C27.1841 22.9384 29.4438 25.1549 34.1708 25.4392L34.1936 25.4408C34.3238 25.4473 34.4559 25.4528 34.5899 25.4571L34.6765 25.4612C34.8203 25.4667 34.966 25.4691 35.1136 25.4686L35.1756 25.4702C36.6552 25.4686 38.2082 25.3133 39.8046 25.065L40.2041 25.0005C41.2911 24.8176 42.3731 24.6062 43.4491 24.3665C44.3028 24.1802 45.159 23.9801 46.0168 23.7734C46.5004 23.6563 46.983 23.5389 47.4644 23.4213L47.6654 23.3722L47.9767 23.2963C55.3155 21.2971 57.67 20.9115 58.8979 20.7506C59.1707 20.7163 59.3897 20.691 59.5939 20.6615C62.6445 20.2384 63.2074 21.503 63.3021 21.8404C63.316 21.8919 63.3201 21.9213 63.3201 21.9213C63.3201 21.9213 62.3381 21.5798 59.4077 21.9973L59.4109 21.9948C58.1765 22.1688 56.4935 22.4768 54.2175 22.9989C57.5435 24.0183 60.5874 25.7961 63.1093 28.1923C64.5117 29.5183 65.7386 31.0181 66.7603 32.6554L69.6083 35.0557C69.9302 33.8833 70.1295 33.0418 70.132 33.0304L70.3378 32.1587L73.7724 31.7167L65.2048 23.1508Z" fill="#1A1B2E"/>
<path d="M39.4199 71.954V70.9312C39.9199 70.9018 40.1698 70.8748 40.669 70.8037V71.2098C40.919 71.1746 41.044 71.1542 41.2932 71.1093L41.2973 70.0178H41.294C41.0448 70.0636 40.9198 70.0832 40.669 70.1199V70.4394L40.3365 70.1657C39.9389 70.218 39.5389 70.2507 39.138 70.2637C38.9583 70.4492 38.8684 70.5415 38.6895 70.7229V72.2081C38.8586 72.3797 38.9436 72.4654 39.1127 72.6321C39.6968 72.6117 39.9901 72.5839 40.5759 72.5038V73.552C40.1548 73.6143 39.7308 73.6547 39.3055 73.6729V73.2628C39.0963 73.2735 38.8868 73.2784 38.6772 73.2775L38.6854 74.3706C38.9313 74.3706 39.0547 74.3673 39.3022 74.3543V73.9924C39.4436 74.1312 39.5155 74.199 39.6592 74.333C40.138 74.2963 40.379 74.2685 40.8577 74.1941C41.0375 73.9874 41.1265 73.8812 41.3062 73.6688V72.1599C41.1371 72.0153 41.0522 71.9418 40.8839 71.7939C40.3993 71.8747 39.9105 71.9282 39.4199 71.954Z" fill="white"/>
<path d="M48.4446 71.5003L47.1114 71.8949L47.113 69.1744C47.6465 69.0184 47.9128 68.9408 48.4455 68.7872L48.4446 71.5003ZM46.8246 68.5683C46.6424 68.8052 46.5509 68.9236 46.3687 69.163L46.3679 72.3435C46.5493 72.4766 46.6408 72.5412 46.8238 72.6719C47.5868 72.4456 47.9684 72.3296 48.733 72.1049L49.1881 71.511L49.1889 68.3485C49.0067 68.2153 48.916 68.1475 48.7339 68.0152C47.97 68.2325 47.5885 68.346 46.8246 68.5683Z" fill="white"/>
<path d="M52.1604 67.7998L52.4961 67.7254C52.4961 68.8006 52.4961 69.3447 52.4945 70.4173C52.0231 70.5227 51.787 70.5807 51.3148 70.7008L51.3156 67.9991C51.4488 67.9656 51.5158 67.9501 51.6506 67.9191V67.2451C51.1762 67.3565 50.7036 67.4758 50.2332 67.6029V68.2777C50.3688 68.2409 50.4358 68.223 50.5714 68.1878L50.5706 71.124L51.0264 71.4614C51.729 71.2768 52.0803 71.1902 52.7829 71.0374L53.2388 70.4852L53.2396 67.5743C53.3744 67.5457 53.4422 67.5343 53.5778 67.5106V66.8399C53.1028 66.9236 52.6302 67.02 52.1604 67.1291V67.7998Z" fill="white"/>
<path d="M42.4695 69.7745V70.464C42.6843 70.4141 42.7914 70.388 43.0054 70.3357L43.0046 73.0627C42.7905 73.1167 42.6835 73.142 42.4695 73.1926V73.8813C43.5765 73.6281 44.1304 73.4614 45.2374 73.1355V72.0383L44.6344 72.2131V72.6379C44.2799 72.7392 44.1034 72.7899 43.7497 72.8863V71.7948C44.2088 71.669 44.4392 71.6036 44.8983 71.4705L44.8991 70.9509C44.5172 71.0634 44.1341 71.1716 43.7497 71.2752V70.1233C44.1042 70.0269 44.2807 69.9763 44.6344 69.8758V70.2957L45.2382 70.1225L45.239 69.0278L45.2259 69.0327C44.1238 69.3513 43.5732 69.5171 42.4695 69.7745Z" fill="white"/>
<path d="M56.9878 69.7949C56.6424 69.8049 56.2975 69.8264 55.9535 69.8594L55.9543 67.1994C56.1676 67.1822 56.273 67.1732 56.4854 67.161V66.4813C55.8791 66.5139 55.2747 66.5747 54.6742 66.6634V67.344C54.889 67.3146 54.996 67.2999 55.2109 67.2745V69.9297C54.996 69.9558 54.889 69.9705 54.6742 70.0024L54.6733 70.6895C55.8408 70.5163 56.4241 70.4599 57.5915 70.4599V69.3782C57.3497 69.3782 57.2296 69.3807 56.9878 69.388V69.7949Z" fill="white"/>
<path d="M48.3305 21.7539C48.9604 21.5938 49.587 21.432 50.212 21.2768L51.4113 20.9737C55.7747 19.8692 59.5417 18.9158 62.1723 19.1568C63.9166 19.3185 64.4999 20.4435 64.6935 21.2318C64.9476 20.8225 65.227 20.227 65.2278 19.5677C65.2155 18.2132 64.5391 17.4403 63.526 16.6961L63.37 16.5809L63.3251 16.3921C63.257 16.1148 63.1601 15.8454 63.0359 15.5883C62.241 13.9527 60.2655 12.9396 57.8792 12.9396C54.3188 12.9396 50.7846 14.0058 47.3673 15.036C42.2139 16.5907 36.8913 18.1968 31.327 16.2222C31.4177 16.9665 31.599 18.0522 31.9569 19.1053C32.062 19.4141 32.1742 19.6989 32.2935 19.9598L32.4372 20.2719L32.2134 20.5325C31.9125 20.8766 31.5985 21.2091 31.2722 21.5292C31.1791 21.6183 31.0941 21.7016 31.0084 21.7808L30.9937 21.7964C30.76 22.0153 30.5116 22.24 30.2576 22.4581L30.2208 22.4892C30.1196 22.5783 30.0169 22.6657 29.9128 22.7514L29.8834 22.7751L29.7102 22.9172C34.3931 25.3175 41.4778 23.5071 48.3305 21.7539Z" fill="#E22531"/>
<path d="M37.5244 21.7589C37.1726 21.7902 36.8201 21.8142 36.4673 21.8308L36.4689 19.165C36.8929 19.1429 37.1037 19.1258 37.5285 19.0866L37.5244 21.7589ZM38.254 21.9141L38.2589 18.7867C38.08 18.6291 37.9901 18.5482 37.8128 18.3889C36.772 18.4992 36.2516 18.5319 35.2124 18.5319V19.1985C35.4224 19.1985 35.5278 19.1969 35.7385 19.192L35.7377 21.8569C35.5626 21.8606 35.3875 21.8622 35.2124 21.8618V22.5366C36.2491 22.5366 36.7687 22.5088 37.8055 22.4116C37.9852 22.2147 38.0742 22.1159 38.254 21.9141Z" fill="white"/>
<path d="M40.1755 18.7245C40.6991 18.6322 40.9606 18.5791 41.4842 18.4704L41.4744 21.1885C40.9524 21.2906 40.6902 21.3372 40.1673 21.4246L40.1755 18.7245ZM41.7547 21.8257C41.9336 21.6051 42.0226 21.4973 42.2024 21.2743L42.2154 18.0881C42.0373 17.9427 41.9475 17.8708 41.7702 17.7246C41.1483 17.8645 40.5228 17.9879 39.8944 18.0946L39.4451 18.6248L39.4377 21.7669C39.6158 21.9205 39.7057 22.0005 39.883 22.1533C40.6321 22.0406 41.0055 21.9736 41.7547 21.8257Z" fill="white"/>
<path d="M44.1371 17.8521C44.6608 17.7205 44.9222 17.6511 45.4467 17.5122L45.4303 20.2858C44.9067 20.419 44.646 20.4843 44.1232 20.6085L44.1371 17.8521ZM45.7081 20.9247L46.1574 20.3381L46.1779 17.0866C45.9998 16.9477 45.9115 16.8774 45.7334 16.7369C44.9835 16.9387 44.6077 17.0392 43.8577 17.2287L43.4083 17.8063L43.3928 21.0145L43.8373 21.3765C44.5864 21.2049 44.9598 21.1118 45.7081 20.9247Z" fill="white"/>
<path d="M52.51 17.6479L52.8834 16.1937L53.2265 17.4829C52.9406 17.5482 52.7968 17.5801 52.51 17.6479ZM53.6048 18.9109C53.9887 18.8227 54.1807 18.7826 54.5655 18.7034L54.5818 18.0008L54.2028 18.0768C53.894 16.9943 53.5811 15.911 53.2771 14.8253L53.1669 14.8465L52.5427 14.9764L51.9104 15.1194L51.903 15.8269L52.3221 15.7305C52.0623 16.7184 51.8044 17.7072 51.5485 18.6969L51.1481 18.7974L51.1416 19.5146C51.5239 19.4174 51.7151 19.3676 52.0991 19.2728L52.1032 19.2712V19.254L52.3401 18.3415C52.7608 18.2394 52.97 18.1895 53.3915 18.0956C53.4773 18.4183 53.5198 18.5817 53.6048 18.9101V18.9109Z" fill="white"/>
<path d="M58.9951 14.8528V14.1919C58.3783 14.1919 58.0703 14.2042 57.4535 14.2458L57.4494 14.9207C57.6169 14.906 57.7019 14.9019 57.8694 14.8929L57.8604 16.6273C57.4004 15.7107 57.1733 15.2597 56.7215 14.3047C56.3509 14.3387 55.981 14.3806 55.6121 14.4305L55.6039 15.1192C55.7812 15.0947 55.8711 15.0824 56.0483 15.0612C56.0377 16.1453 56.0328 16.6632 56.0206 17.7474C55.8711 17.7703 55.7218 17.7948 55.5729 17.8209L55.5647 18.5137C56.1889 18.4066 56.5001 18.3584 57.1251 18.2776L57.13 17.5946C56.9658 17.615 56.8849 17.6248 56.7207 17.6469L56.7346 15.8888C57.197 16.8078 57.4298 17.2515 57.9004 18.191C58.3375 18.146 58.5556 18.1297 58.9951 18.1036V17.4361L58.5621 17.4598L58.567 14.8618C58.7386 14.8569 58.8244 14.8553 58.9951 14.8528Z" fill="white"/>
<path d="M48.1958 17.8232L48.2031 16.7775C48.7023 16.6427 48.9523 16.5757 49.4515 16.445L49.4474 16.8641C49.6966 16.7987 49.8215 16.7661 50.0715 16.7023L50.0846 15.5635C50.0835 15.5635 50.0827 15.564 50.0822 15.5651C49.8305 15.628 49.7064 15.6615 49.4564 15.7269L49.4539 16.0651C49.3216 15.9663 49.2554 15.9156 49.1239 15.8151C48.6435 15.9426 48.4049 16.0071 47.9246 16.1378L47.4744 16.7358C47.4695 17.3453 47.4671 17.6476 47.4638 18.2521C47.6313 18.3845 47.7154 18.4482 47.8829 18.5781L49.3428 18.19L49.3346 19.2652C48.8281 19.3975 48.574 19.4645 48.0683 19.5993L48.0716 19.1753L47.4434 19.342V20.4775L48.0585 20.3158C48.0594 20.1614 48.0594 20.087 48.0618 19.9326C48.2031 20.047 48.2734 20.1058 48.4155 20.2235C48.8935 20.096 49.1328 20.0331 49.6116 19.9081L50.0617 19.3158L50.0748 17.7709L49.6565 17.436C49.0716 17.5887 48.7791 17.6672 48.1958 17.8232Z" fill="white"/>
<path d="M13.3014 44.5513L15.0799 42.776L15.1976 41.1159L11.7549 44.5513L14.7442 47.5332L14.8455 46.0937L13.3014 44.5513Z" fill="#E22531"/>
<path d="M47.6229 78.8068L45.9555 77.1419C45.5519 77.2562 45.1464 77.3657 44.739 77.4703L47.6229 80.3501L52.8302 75.1517C52.1277 75.3315 51.4161 75.5316 50.6931 75.7424L47.6229 78.8068Z" fill="#E22531"/>
<path d="M73.3671 53.108L64.0447 62.4149C64.4518 62.5097 64.8544 62.6228 65.2513 62.7539L75.3572 52.6668C74.6973 52.8292 74.0338 52.9763 73.3671 53.108Z" fill="#E22531"/>
<path d="M22.5151 53.748C22.4481 53.7584 22.3808 53.7676 22.3133 53.7758L21.1377 53.9163L28.3 61.064C28.4558 60.7154 28.6268 60.3717 28.8131 60.033L22.5151 53.748Z" fill="#E22531"/>
<path d="M44.9547 12.9599L47.6237 10.295L49.0689 11.7377C49.4703 11.6234 49.8742 11.512 50.2805 11.4036L47.6237 8.75254L42.8069 13.5596C43.5152 13.3766 44.2317 13.1731 44.9547 12.9599Z" fill="#E22531"/>
<path d="M60.7409 21.8454C60.2965 21.8832 59.8532 21.9336 59.4117 21.9965C59.3921 21.9981 59.3722 22.0003 59.3521 22.0031L70.1834 32.8164L70.3386 32.1612L70.9905 32.0762L60.7409 21.8454Z" fill="#E22531"/>
<path d="M30.2602 26.0827L28.0127 28.3245C28.3117 28.5423 28.5952 28.7743 28.8632 29.0205L31.5028 26.385C31.0605 26.2978 30.6463 26.1971 30.2602 26.0827Z" fill="#E22531"/>
<path d="M58.1143 30.456C58.2761 30.1855 58.4207 29.8963 58.5571 29.6235C58.6903 29.3383 58.8137 29.0622 58.9215 28.7763C58.7704 28.8318 58.6143 28.8735 58.4599 28.9209C58.3055 28.9683 58.1478 29.005 57.9918 29.0459C57.8564 29.3222 57.7106 29.5934 57.5547 29.8588C57.3942 30.1291 57.2233 30.3932 57.0425 30.6504C57.223 30.6291 57.4011 30.5965 57.5809 30.5646C57.7598 30.5376 57.9362 30.4935 58.1143 30.456Z" fill="#E22531"/>
<path d="M58.5661 30.3451C58.8382 30.5215 59.1143 30.6751 59.4052 30.832C59.6944 30.9864 59.9926 31.1261 60.3014 31.265L59.7311 31.4651L59.1527 31.6416C58.5604 31.3148 58.0114 30.9684 57.5024 30.5779L57.7704 30.5305L58.0367 30.4733C58.2148 30.4374 58.3913 30.3925 58.5661 30.3451Z" fill="#E22531"/>
<path d="M60.8021 29.5859C60.9352 29.2992 61.0496 28.9969 61.1583 28.7126C61.262 28.4136 61.356 28.1268 61.4344 27.8327C61.289 27.9013 61.1378 27.9601 60.9891 28.0239C60.8396 28.086 60.6861 28.1374 60.5357 28.1954C60.4294 28.4838 60.3122 28.768 60.1844 29.0475C60.0526 29.3331 59.9098 29.6136 59.7563 29.8882C59.9328 29.8457 60.1079 29.7986 60.2817 29.7468C60.4573 29.7027 60.6297 29.6398 60.8021 29.5859Z" fill="#E22531"/>
<path d="M61.2408 29.4301C61.5284 29.5772 61.8192 29.7022 62.1248 29.828C62.4324 29.9521 62.7444 30.0652 63.0602 30.167C62.8783 30.2536 62.6958 30.3394 62.5128 30.4244L61.9557 30.6597C61.3512 30.4074 60.7665 30.11 60.2065 29.77L60.468 29.6956L60.7269 29.6115C60.9001 29.5568 61.0709 29.4939 61.2408 29.4301Z" fill="#E22531"/>
<path d="M55.2803 30.7847C55.6989 30.3206 56.0849 29.8282 56.4355 29.3109C56.2729 29.3299 56.1097 29.3441 55.9462 29.3533L55.7011 29.3689L55.4535 29.3754C55.0631 29.8647 54.6417 30.3286 54.1921 30.7642C54.3735 30.7732 54.5541 30.7765 54.7362 30.783L55.2803 30.7847Z" fill="#E22531"/>
<path d="M55.7462 30.7717C56.2125 31.2291 56.7105 31.6531 57.2364 32.0404L56.9374 32.0812L56.6392 32.1115L56.341 32.1393L56.0436 32.1572C55.5404 31.7218 55.0804 31.2586 54.6572 30.7823C54.8394 30.7888 55.02 30.7847 55.2021 30.7864C55.3835 30.7831 55.5649 30.7782 55.7462 30.7717Z" fill="#E22531"/>
<path d="M52.4317 30.5977C52.9184 30.2001 53.3857 29.7795 53.832 29.3371C53.4949 29.3126 53.1569 29.2785 52.8182 29.235C52.3455 29.652 51.8574 30.0512 51.355 30.4318C51.7128 30.4941 52.0718 30.5494 52.4317 30.5977Z" fill="#E22531"/>
<path d="M52.8939 30.6553C53.2713 31.1708 53.6774 31.6724 54.121 32.165C53.7299 32.1443 53.3427 32.1136 52.9593 32.0727C52.5566 31.5671 52.1747 31.0451 51.8147 30.5082C52.1733 30.563 52.5328 30.6144 52.8939 30.6553Z" fill="#E22531"/>
<path d="M49.6196 30.0933C50.1416 29.7281 50.6555 29.3547 51.1539 28.9716C50.8096 28.9068 50.4641 28.8384 50.1171 28.7665C49.6041 29.1331 49.0837 29.4971 48.5559 29.8588C48.9099 29.9389 49.2645 30.017 49.6196 30.0933Z" fill="#E22531"/>
<path d="M50.0755 30.188C50.4064 30.7338 50.7503 31.2738 51.1163 31.813C50.7459 31.7487 50.3763 31.6796 50.0077 31.6055C49.6629 31.0581 49.3337 30.5116 49.011 29.9609C49.3647 30.0369 49.7201 30.1153 50.0755 30.188Z" fill="#E22531"/>
<path d="M46.8311 29.4678L48.4119 28.3877L47.3466 28.1467C46.8156 28.5062 46.2862 28.8698 45.7666 29.2382C46.1206 29.3128 46.4755 29.3893 46.8311 29.4678Z" fill="#E22531"/>
<path d="M47.2855 29.5691L48.2471 31.2251L47.1834 30.9841C46.8648 30.4343 46.5478 29.8828 46.2227 29.3355L47.2855 29.5691Z" fill="#E22531"/>
<path d="M44.0286 28.9136C44.531 28.5214 45.0531 28.1424 45.5816 27.7698C45.2151 27.6974 44.845 27.6293 44.4714 27.5656C43.9514 27.9469 43.444 28.3453 42.9502 28.76C43.3107 28.8041 43.6702 28.8553 44.0286 28.9136Z" fill="#E22531"/>
<path d="M44.4871 28.9903C44.8335 29.5271 45.1611 30.0663 45.4813 30.6104C45.1344 30.539 44.7891 30.4715 44.4454 30.4077C44.1165 29.8685 43.7716 29.3391 43.4111 28.8204L43.9495 28.9021L44.4871 28.9903Z" fill="#E22531"/>
<path d="M41.1867 28.6235C41.636 28.1669 42.1196 27.7363 42.6253 27.3139L42.0461 27.2633L41.4628 27.229C41.1017 27.5603 40.7537 27.9056 40.4195 28.2641C40.3093 28.3825 40.2022 28.5043 40.0977 28.6219C40.2798 28.617 40.4604 28.6113 40.6426 28.6137L40.9146 28.6154L41.1867 28.6235Z" fill="#E22531"/>
<path d="M41.6535 28.6442C42.0595 29.1328 42.4329 29.6426 42.7825 30.1523L42.2752 30.0976C42.1061 30.0845 41.937 30.0666 41.7695 30.0568C41.3945 29.5542 40.9922 29.0725 40.5645 28.614C40.9277 28.6124 41.2907 28.6224 41.6535 28.6442Z" fill="#E22531"/>
<path d="M38.338 28.7853C38.5172 28.5217 38.7073 28.2608 38.9083 28.0027C39.1093 27.7502 39.3208 27.4896 39.5439 27.2453C39.3452 27.2568 39.1469 27.2734 38.9491 27.2952C38.7498 27.3099 38.5529 27.3401 38.3544 27.3662C38.1501 27.6269 37.9581 27.9046 37.776 28.1701C37.5962 28.4487 37.4263 28.7167 37.2703 28.9985C37.6237 28.9136 37.9797 28.8425 38.338 28.7853Z" fill="#E22531"/>
<path d="M38.7997 28.7217C39.0423 28.9235 39.2768 29.1433 39.5006 29.3541C39.7253 29.5779 39.9385 29.7928 40.1436 30.0232C39.8152 30.0344 39.4874 30.0573 39.1608 30.0918C38.941 29.8786 38.7122 29.6751 38.4729 29.4734C38.2343 29.2814 37.9835 29.0779 37.7253 28.8966C38.0799 28.8222 38.4394 28.7675 38.7997 28.7217Z" fill="#E22531"/>
<path d="M35.5841 29.5266C35.8186 28.9303 36.1062 28.3478 36.4427 27.7644C36.2499 27.8216 36.0571 27.8756 35.866 27.9385C35.6756 28.0038 35.4853 28.0651 35.2974 28.1345C35.0172 28.7256 34.7791 29.3358 34.585 29.9604C34.7484 29.8798 34.9134 29.8044 35.08 29.7341L35.33 29.6255L35.5841 29.5266Z" fill="#E22531"/>
<path d="M36.0218 29.3654C36.1634 29.4416 36.3018 29.5176 36.4368 29.5933C36.5736 29.6745 36.7078 29.7567 36.8396 29.84C37.1019 30.0018 37.3567 30.1815 37.5994 30.3605C37.2839 30.4373 36.9716 30.5267 36.6631 30.6284C36.2697 30.3813 35.8615 30.1584 35.441 29.961C35.2994 29.8934 35.1553 29.8281 35.0088 29.7649C35.1746 29.6922 35.3413 29.6195 35.5112 29.5549C35.6803 29.4896 35.8494 29.4218 36.0218 29.3654Z" fill="#E22531"/>
<path d="M33.0408 30.8199C33.1563 30.1908 33.3162 29.5591 33.5204 28.9245C33.027 29.3191 32.3946 30.0185 32.3946 30.0185C32.317 30.3436 32.3423 30.1573 32.2819 30.4751C32.2282 30.7925 32.1805 31.111 32.1389 31.4302L32.5858 31.1181C32.7345 31.0127 32.8897 30.9188 33.0408 30.8199Z" fill="#E22531"/>
<path d="M33.4379 30.5764C33.5915 30.6206 33.7423 30.6671 33.8905 30.7161C34.0416 30.7652 34.1903 30.8199 34.3374 30.8714C34.4833 30.9269 34.6274 30.9825 34.7695 31.038C34.9133 31.0996 35.0544 31.1614 35.1927 31.2235C34.8962 31.3655 34.6052 31.5187 34.3202 31.6826C33.7467 31.4767 33.143 31.3019 32.5212 31.163C32.6683 31.0568 32.8235 30.9612 32.9747 30.8624L33.2034 30.7145L33.4379 30.5764Z" fill="#E22531"/>
<path d="M40.7417 61.5655C40.3614 62.1072 39.9428 62.621 39.4893 63.103L39.794 63.0883L40.0971 63.0646L40.4002 63.0369L40.7 63.0017C41.1216 62.4748 41.4941 61.9282 41.829 61.3768C41.6493 61.4152 41.4679 61.4454 41.2866 61.4805C41.106 61.5124 40.9238 61.5369 40.7417 61.5655Z" fill="#E22531"/>
<path d="M44.0142 60.7861C43.4497 60.4732 42.9031 60.1375 42.3884 59.7854C42.7185 59.6982 43.0488 59.6023 43.3794 59.4978C43.9178 59.8246 44.479 60.1285 45.0558 60.4242C44.7107 60.5507 44.3634 60.6714 44.0142 60.7861Z" fill="#E22531"/>
<path d="M43.5644 60.928C43.2777 61.5198 42.9614 62.0968 42.6167 62.6567C43.0023 62.5644 43.3838 62.4656 43.7588 62.352C44.0758 61.7687 44.3536 61.1739 44.6125 60.5833C44.2655 60.7053 43.9161 60.8203 43.5644 60.928Z" fill="#E22531"/>
<path d="M46.7244 59.7666C46.137 59.4978 45.5553 59.2201 44.99 58.9308C45.3211 58.8023 45.6531 58.6702 45.9859 58.5346C46.5648 58.808 47.15 59.0765 47.7415 59.3401C47.4033 59.4828 47.0643 59.625 46.7244 59.7666Z" fill="#E22531"/>
<path d="M46.2871 59.9448C46.0561 60.5549 45.8098 61.1591 45.5486 61.7568C45.908 61.6239 46.2634 61.4872 46.6147 61.3467C46.8582 60.7373 47.0861 60.1319 47.3067 59.5216C46.9679 59.6659 46.6281 59.807 46.2871 59.9448Z" fill="#E22531"/>
<path d="M49.3876 58.6323L47.6147 57.8464L48.6327 57.4101C49.2266 57.6716 49.8206 57.9346 50.4071 58.2075C50.0667 58.348 49.7269 58.4896 49.3876 58.6323Z" fill="#E22531"/>
<path d="M48.9546 58.818L48.2986 60.6455L49.3149 60.2092C49.5314 59.6022 49.7462 58.9961 49.9709 58.3899L48.9546 58.818Z" fill="#E22531"/>
<path d="M52.0804 57.5674C51.5069 57.2684 50.9187 56.9857 50.3223 56.7104C50.6747 56.571 51.0311 56.4356 51.3917 56.3044C51.9832 56.5919 52.5681 56.8983 53.1269 57.2153C52.7761 57.3266 52.4272 57.444 52.0804 57.5674Z" fill="#E22531"/>
<path d="M51.6368 57.7281C51.3927 58.3222 51.1612 58.9215 50.9424 59.5254C51.2749 59.3906 51.6066 59.2582 51.9374 59.1349C52.1662 58.5393 52.4088 57.9511 52.6776 57.3621L52.1556 57.541L51.6368 57.7281Z" fill="#E22531"/>
<path d="M54.8589 56.7578C54.3271 56.3861 53.7675 56.0438 53.1858 55.7162L53.7528 55.5593L54.3287 55.4172C54.6138 55.601 54.8892 55.7775 55.1596 55.9711C55.2952 56.0658 55.4278 56.1614 55.5574 56.2578C55.6887 56.357 55.8178 56.4566 55.9447 56.5568C55.7625 56.5846 55.5795 56.6116 55.3998 56.6475L55.1285 56.699L54.8589 56.7578Z" fill="#E22531"/>
<path d="M54.3987 56.8638C54.09 57.4208 53.8065 57.9913 53.5491 58.5737L54.045 58.4259C54.2105 58.379 54.3764 58.3344 54.5425 58.2919C54.8203 57.7331 55.1283 57.1767 55.4779 56.6343C55.1157 56.6986 54.7558 56.7752 54.3987 56.8638Z" fill="#E22531"/>
<path d="M57.7281 56.3974C57.5015 56.1681 57.2643 55.9429 57.0165 55.7218C56.769 55.5069 56.5108 55.288 56.2437 55.0853C56.4446 55.0568 56.6456 55.0412 56.8466 55.0233C57.0467 55.0037 57.2502 54.9963 57.4519 54.9857C57.9457 55.4278 58.4066 55.9054 58.831 56.4146C58.4642 56.3925 58.0957 56.3892 57.7281 56.3974Z" fill="#E22531"/>
<path d="M57.2551 56.4175C57.0531 56.665 56.8589 56.9187 56.6726 57.1781C56.4913 57.4339 56.3183 57.6955 56.1538 57.9624C56.4855 57.9109 56.8164 57.8758 57.1464 57.8497C57.513 57.3348 57.9186 56.8489 58.3596 56.3963C57.9909 56.3881 57.6227 56.3952 57.2551 56.4175Z" fill="#E22531"/>
<path d="M60.6078 56.6309C60.2549 56.0694 59.8612 55.5348 59.4297 55.0312C59.6315 55.0541 59.8341 55.0721 60.0359 55.0991C60.2368 55.1293 60.4386 55.1562 60.6388 55.1897C61.035 55.7453 61.3839 56.3049 61.6821 56.8809C61.5051 56.8302 61.3267 56.785 61.1469 56.7452L60.879 56.6832L60.6078 56.6309Z" fill="#E22531"/>
<path d="M60.1427 56.5507C60.0169 56.6499 59.8927 56.7512 59.7702 56.8546C59.6488 56.9602 59.5303 57.0662 59.4148 57.1724C59.1857 57.3828 58.9652 57.6025 58.7539 57.8308C59.0818 57.8488 59.4086 57.881 59.7343 57.9272C60.0807 57.6079 60.4466 57.3102 60.8298 57.0359C60.9594 56.9433 61.0915 56.8527 61.226 56.7639C61.0463 56.7198 60.8682 56.6765 60.686 56.6462C60.5055 56.6111 60.3249 56.5735 60.1427 56.5507Z" fill="#E22531"/>
<path d="M63.379 57.4538C63.1428 56.8367 62.8675 56.2353 62.5547 55.6533C62.7459 55.7162 62.9387 55.775 63.1282 55.8395L63.6935 56.0479C63.8292 56.3583 63.9558 56.6663 64.0734 56.9718C64.1873 57.2839 64.2926 57.5925 64.3896 57.8975L63.8888 57.6695C63.7213 57.5911 63.5489 57.5266 63.379 57.4538Z" fill="#E22531"/>
<path d="M62.9395 57.2827C62.7952 57.3573 62.6533 57.4314 62.5139 57.5049C62.3725 57.5833 62.2336 57.665 62.098 57.7435C61.9624 57.8241 61.829 57.906 61.6977 57.9894C61.5654 58.0768 61.4363 58.1617 61.3088 58.2516C61.6299 58.3349 61.9469 58.4387 62.2622 58.5498C62.7965 58.2361 63.3668 57.9518 63.9607 57.701C63.794 57.6209 63.6233 57.5547 63.4534 57.4837L63.1977 57.3783L62.9395 57.2827Z" fill="#E22531"/>
<path d="M41.1656 60.4463C40.9543 60.6113 40.7495 60.7807 40.5513 60.9545C40.7629 61.1407 40.981 61.3147 41.2089 61.4937L41.7506 61.394C41.9319 61.3523 42.1109 61.3164 42.2898 61.2747C41.8976 61.0092 41.521 60.7355 41.1656 60.4463Z" fill="#E22531"/>
</g>
</g>
<defs>
<clipPath id="clip0_3029_3097">
<rect width="81.9" height="81.9" fill="white" transform="translate(6.67114 3.6001)"/>
</clipPath>
</defs>
</svg>
