<svg width="81" height="71" viewBox="0 0 81 71" fill="none" xmlns="http://www.w3.org/2000/svg">
<g clip-path="url(#clip0_3029_3261)">
<mask id="mask0_3029_3261" style="mask-type:luminance" maskUnits="userSpaceOnUse" x="0" y="0" width="82" height="71">
<path d="M0 0H81.0515V70.6546H0V0Z" fill="white"/>
</mask>
<g mask="url(#mask0_3029_3261)">
<path d="M40.499 0.81543C21.8624 0.81543 6.75281 16.1655 6.75281 35.101C6.75281 54.0348 21.8624 69.3843 40.499 69.3843C59.1382 69.3843 74.2452 54.0348 74.2452 35.101C74.2452 16.1655 59.1382 0.81543 40.499 0.81543Z" fill="#FC4E00"/>
</g>
<mask id="mask1_3029_3261" style="mask-type:luminance" maskUnits="userSpaceOnUse" x="0" y="0" width="82" height="71">
<path d="M0 0H81.0515V70.6546H0V0Z" fill="white"/>
</mask>
<g mask="url(#mask1_3029_3261)">
<path d="M40.4991 1.6309C22.3341 1.6309 7.55554 16.6447 7.55554 35.101C7.55554 53.5551 22.3341 68.5689 40.4991 68.5689C58.664 68.5689 73.4426 53.5551 73.4426 35.101C73.4426 16.6447 58.6645 1.6309 40.4991 1.6309ZM40.4991 70.2003C21.4499 70.2003 5.9502 54.4561 5.9502 35.101C5.9502 15.7459 21.4499 0 40.4991 0C59.5509 0 75.05 15.7464 75.05 35.101C75.05 54.4555 59.5509 70.2003 40.4991 70.2003Z" fill="white"/>
</g>
<mask id="mask2_3029_3261" style="mask-type:luminance" maskUnits="userSpaceOnUse" x="0" y="0" width="82" height="71">
<path d="M0 0H81.0515V70.6546H0V0Z" fill="white"/>
</mask>
<g mask="url(#mask2_3029_3261)">
<path d="M40.499 0.81543C21.8624 0.81543 6.75281 16.1655 6.75281 35.101C6.75281 54.0348 21.8624 69.3843 40.499 69.3843C59.1382 69.3843 74.2452 54.0348 74.2452 35.101C74.2452 16.1655 59.1382 0.81543 40.499 0.81543Z" fill="#FC4E00"/>
</g>
<mask id="mask3_3029_3261" style="mask-type:luminance" maskUnits="userSpaceOnUse" x="0" y="0" width="82" height="71">
<path d="M0 0H81.0515V70.6546H0V0Z" fill="white"/>
</mask>
<g mask="url(#mask3_3029_3261)">
<path d="M26.1742 58.841C26.5131 59.0631 26.7667 59.0482 26.9319 58.7911L27.1014 58.5297C27.2687 58.2687 27.1829 58.0266 26.8441 57.8035L25.3752 56.8382L24.7054 57.8757L26.1742 58.841ZM25.872 59.308L24.4052 58.3406L23.7432 59.3659L25.21 60.3306C25.5509 60.5548 25.8025 60.5383 25.9698 60.2833L26.1293 60.0342C26.2966 59.7728 26.2129 59.5316 25.872 59.308ZM26.7808 59.5773C26.8805 59.845 26.8465 60.1087 26.6789 60.3683L26.4885 60.6626C26.3295 60.9096 26.1089 61.0552 25.8328 61.0966C25.5689 61.1342 25.2694 61.0421 24.9344 60.8204L22.9019 59.4843L25.1446 56.0127L27.1751 57.3509C27.5119 57.5729 27.7142 57.8115 27.7838 58.0728C27.8591 58.347 27.8141 58.6083 27.653 58.8596L27.4528 59.1666C27.2854 59.428 27.0627 59.563 26.7808 59.5773Z" fill="#F3F3F4"/>
</g>
<mask id="mask4_3029_3261" style="mask-type:luminance" maskUnits="userSpaceOnUse" x="0" y="0" width="82" height="71">
<path d="M0 0H81.0515V70.6546H0V0Z" fill="white"/>
</mask>
<g mask="url(#mask4_3029_3261)">
<path d="M29.3464 61.4865L28.4251 61.0572C28.1291 60.918 27.921 60.9781 27.8065 61.2336L27.7615 61.3266C27.647 61.5778 27.739 61.7749 28.035 61.912L28.9564 62.3417C29.261 62.4845 29.4707 62.4291 29.5854 62.1755L29.6262 62.082C29.7447 61.8266 29.6515 61.6281 29.3464 61.4865ZM27.6653 62.354C27.3937 62.2268 27.214 62.0497 27.1262 61.8227C27.0341 61.5922 27.0425 61.3579 27.1549 61.1151L27.2449 60.9138C27.3589 60.6668 27.5288 60.5053 27.7615 60.4261C27.9905 60.3418 28.241 60.3632 28.5129 60.4904L30.0309 61.198L30.0367 61.1837C30.1758 60.8824 30.0796 60.6545 29.7527 60.5031L28.0679 59.7164L28.2943 59.2144L29.9713 59.9969C30.321 60.1601 30.5471 60.3744 30.6495 60.6397C30.7583 60.9017 30.7372 61.1978 30.5863 61.5279L30.1308 62.5261C30.014 62.7818 29.8369 62.9429 29.5995 63.0095C29.383 63.0722 29.1341 63.0366 28.8523 62.908L27.6653 62.354Z" fill="#F3F3F4"/>
</g>
<mask id="mask5_3029_3261" style="mask-type:luminance" maskUnits="userSpaceOnUse" x="0" y="0" width="82" height="71">
<path d="M0 0H81.0515V70.6546H0V0Z" fill="white"/>
</mask>
<g mask="url(#mask5_3029_3261)">
<path d="M33.1539 62.526C33.485 62.6297 33.7111 62.7571 33.8321 62.9079C33.9869 63.0985 34.0223 63.3336 33.9382 63.6134L33.8692 63.8355C33.7866 64.1117 33.6285 64.2854 33.3949 64.3566C33.2135 64.4081 32.9541 64.3832 32.621 64.2796L30.6721 63.6756L30.8337 63.1364L32.7821 63.742C33.0512 63.8248 33.214 63.7737 33.2705 63.5884L33.3071 63.4684C33.3625 63.2793 33.2584 63.1422 32.9886 63.0593L31.9794 62.7438C31.6526 62.6423 31.4283 62.5201 31.3054 62.3724C31.1541 62.1801 31.1201 61.9464 31.2034 61.6712L31.2709 61.4449C31.3566 61.1607 31.514 60.9864 31.7425 60.9158C31.9266 60.8595 32.1839 60.8823 32.5086 60.9843L34.3775 61.5634L34.2143 62.1026L32.3575 61.5256C32.0918 61.4428 31.9304 61.4968 31.8733 61.6877L31.8366 61.8104C31.7791 61.999 31.8837 62.1318 32.1452 62.2125L33.1539 62.526Z" fill="#F3F3F4"/>
</g>
<mask id="mask6_3029_3261" style="mask-type:luminance" maskUnits="userSpaceOnUse" x="0" y="0" width="82" height="71">
<path d="M0 0H81.0515V70.6546H0V0Z" fill="white"/>
</mask>
<g mask="url(#mask6_3029_3261)">
<path d="M35.8521 63.3813L36.8571 63.5491C37.1834 63.6033 37.3687 63.4933 37.413 63.2192L37.4292 63.1172C37.4745 62.8396 37.3337 62.6736 37.0067 62.6195L36.0016 62.4516C35.6767 62.3974 35.4928 62.5093 35.45 62.7873L35.4337 62.8893C35.3895 63.1631 35.5289 63.3271 35.8521 63.3813ZM38.0687 63.1693L38.0337 63.3828C37.9925 63.6474 37.8686 63.848 37.6619 63.9847C37.4639 64.1243 37.2174 64.1693 36.9225 64.1197L35.2805 63.8461L35.2763 63.8668C35.2251 64.1919 35.3762 64.3835 35.7297 64.4416L37.6682 64.7651L37.5803 65.315L35.6481 64.9936C35.2727 64.9309 34.9983 64.7862 34.8251 64.5595C34.655 64.3378 34.5983 64.0488 34.6551 63.6926L34.8272 62.6301C34.87 62.3623 34.9926 62.1589 35.1948 62.0197C35.3935 61.8787 35.6419 61.8331 35.9399 61.8826L37.2394 62.0988C37.5378 62.1484 37.7597 62.2729 37.905 62.4723C38.0577 62.6692 38.1123 62.9016 38.0687 63.1693Z" fill="#F3F3F4"/>
</g>
<mask id="mask7_3029_3261" style="mask-type:luminance" maskUnits="userSpaceOnUse" x="0" y="0" width="82" height="71">
<path d="M0 0H81.0515V70.6546H0V0Z" fill="white"/>
</mask>
<g mask="url(#mask7_3029_3261)">
<path d="M39.286 64.1406C39.2814 64.3711 39.3208 64.5475 39.4041 64.6697C39.5087 64.8135 39.6722 64.8875 39.8946 64.8918L40.6481 64.9109C40.8706 64.9169 41.0388 64.8503 41.1528 64.7111C41.2399 64.595 41.2863 64.4214 41.2919 64.1905L41.3018 63.6821C41.306 63.4457 41.2673 63.2694 41.1836 63.1466C41.0752 63 40.9098 62.9241 40.6874 62.9187L39.3126 62.8853L39.286 64.1406ZM38.6464 64.1576L38.704 61.2666L39.3409 61.2809L39.3226 62.3206L40.7465 62.3562C41.1223 62.3725 41.4163 62.4934 41.6286 62.719C41.8451 62.9411 41.9497 63.2545 41.9413 63.6635L41.9314 64.2383C41.923 64.6428 41.8066 64.9506 41.5821 65.1616C41.3593 65.3752 41.0592 65.4814 40.679 65.4751L39.8413 65.4565C39.4613 65.4416 39.1652 65.3219 38.9529 65.0974C38.7406 64.8753 38.6384 64.562 38.6464 64.1576Z" fill="#F3F3F4"/>
</g>
<mask id="mask8_3029_3261" style="mask-type:luminance" maskUnits="userSpaceOnUse" x="0" y="0" width="82" height="71">
<path d="M0 0H81.0515V70.6546H0V0Z" fill="white"/>
</mask>
<g mask="url(#mask8_3029_3261)">
<path d="M44.7434 63.7213L43.7368 63.8419C43.4119 63.8809 43.2669 64.0399 43.3018 64.3189L43.3138 64.4231C43.3483 64.6967 43.5261 64.8172 43.8508 64.7779L44.8559 64.6595C45.1888 64.6205 45.338 64.462 45.3035 64.184L45.2909 64.0825C45.2585 63.8026 45.0744 63.682 44.7434 63.7213ZM43.7651 65.3506C43.4688 65.386 43.2237 65.3299 43.0299 65.1822C42.8336 65.0345 42.7192 64.8277 42.6868 64.5617L42.6602 64.3418C42.6277 64.0719 42.6889 63.844 42.8442 63.6528C42.9974 63.4599 43.2197 63.3457 43.5162 63.3107L45.1728 63.1157L45.1707 63.0987C45.132 62.7693 44.9338 62.6255 44.5761 62.6673L42.7339 62.8873L42.6685 62.3374L44.4987 62.1196C44.8801 62.0743 45.183 62.1379 45.4075 62.3103C45.6355 62.4768 45.7717 62.741 45.8159 63.1029L45.9488 64.1968C45.9817 64.4746 45.9163 64.7073 45.7506 64.8895C45.5979 65.0574 45.3685 65.1599 45.0624 65.1971L43.7651 65.3506Z" fill="#F3F3F4"/>
</g>
<mask id="mask9_3029_3261" style="mask-type:luminance" maskUnits="userSpaceOnUse" x="0" y="0" width="82" height="71">
<path d="M0 0H81.0515V70.6546H0V0Z" fill="white"/>
</mask>
<g mask="url(#mask9_3029_3261)">
<path d="M46.9209 64.8709L46.0283 60.8037L46.6616 60.6646L47.5542 64.7322L46.9209 64.8709Z" fill="#F3F3F4"/>
</g>
<mask id="mask10_3029_3261" style="mask-type:luminance" maskUnits="userSpaceOnUse" x="0" y="0" width="82" height="71">
<path d="M0 0H81.0515V70.6546H0V0Z" fill="white"/>
</mask>
<g mask="url(#mask10_3029_3261)">
<path d="M48.3533 64.5349L47.2583 60.5177L47.8874 60.3477L48.9803 64.3649L48.3533 64.5349Z" fill="#F3F3F4"/>
</g>
<mask id="mask11_3029_3261" style="mask-type:luminance" maskUnits="userSpaceOnUse" x="0" y="0" width="82" height="71">
<path d="M0 0H81.0515V70.6546H0V0Z" fill="white"/>
</mask>
<g mask="url(#mask11_3029_3261)">
<path d="M50.8413 62.1877L50.4062 61.2294C50.2138 60.8103 50.1856 60.4033 50.3262 60.0155C50.4491 59.6522 50.7367 59.3679 51.1885 59.1581L53.1756 58.2476L53.4088 58.7597L51.4479 59.6607C51.1721 59.7871 50.9943 59.9801 50.9145 60.2397C50.8471 60.4718 50.8779 60.721 51.0024 60.9866L51.4129 61.8871C51.5314 62.152 51.6996 62.336 51.9175 62.439C52.165 62.5474 52.4264 62.5384 52.7018 62.4119L54.6628 61.5136L54.8955 62.0241L52.9105 62.9373C52.4587 63.1449 52.0562 63.178 51.7031 63.0367C51.3179 62.8844 51.0306 62.6014 50.8413 62.1877Z" fill="#F3F3F4"/>
</g>
<mask id="mask12_3029_3261" style="mask-type:luminance" maskUnits="userSpaceOnUse" x="0" y="0" width="82" height="71">
<path d="M0 0H81.0515V70.6546H0V0Z" fill="white"/>
</mask>
<g mask="url(#mask12_3029_3261)">
<path d="M55.6799 61.5156L53.6149 57.9026L54.1765 57.5791L56.242 61.1899L55.6799 61.5156Z" fill="#F3F3F4"/>
</g>
<mask id="mask13_3029_3261" style="mask-type:luminance" maskUnits="userSpaceOnUse" x="0" y="0" width="82" height="71">
<path d="M0 0H81.0515V70.6546H0V0Z" fill="white"/>
</mask>
<g mask="url(#mask13_3029_3261)">
<path d="M58.0005 60.0276C57.68 60.2582 57.361 60.3474 57.0384 60.2911C56.7204 60.2376 56.44 60.0419 56.197 59.7041L55.147 58.2453L55.6636 57.8676L56.6932 59.2972C56.8443 59.507 56.9913 59.6355 57.1367 59.677C57.3284 59.7244 57.5163 59.6816 57.7004 59.5484L58.1417 59.2265C58.331 59.0898 58.4317 58.9232 58.4439 58.7266C58.4539 58.5709 58.3843 58.3861 58.2311 58.1768L57.2041 56.7488L57.7228 56.3711L58.7729 57.8299C59.0134 58.1683 59.1117 58.4982 59.0625 58.8201C59.0151 59.1431 58.83 59.4218 58.5072 59.6563L58.0005 60.0276Z" fill="#F3F3F4"/>
</g>
<mask id="mask14_3029_3261" style="mask-type:luminance" maskUnits="userSpaceOnUse" x="0" y="0" width="82" height="71">
<path d="M0 0H81.0515V70.6546H0V0Z" fill="white"/>
</mask>
<g mask="url(#mask14_3029_3261)">
<path d="M59.8185 56.9231C59.9771 57.0895 60.1289 57.1864 60.274 57.2137C60.4458 57.2406 60.6126 57.1763 60.7744 57.0208L61.3156 56.496C61.4749 56.3377 61.5457 56.1701 61.5279 55.9934C61.5077 55.8464 61.4172 55.6903 61.2565 55.5249L60.9051 55.1573C60.743 54.9873 60.5905 54.889 60.4476 54.8624C60.268 54.8366 60.0977 54.9017 59.9367 55.0579L58.9479 56.0163L59.8185 56.9231ZM59.3814 57.3922L57.3833 55.3065L57.8429 54.8608L58.5599 55.612L59.5832 54.6175C59.8593 54.3607 60.1507 54.2356 60.4575 54.2419C60.7657 54.2444 61.0611 54.3932 61.3438 54.6882L61.7402 55.1015C62.0191 55.3937 62.1547 55.6945 62.147 56.004C62.1429 56.3132 62.0059 56.6038 61.7345 56.8716L61.1336 57.4543C60.8582 57.7182 60.5661 57.8462 60.2572 57.8384C59.9529 57.8342 59.659 57.6849 59.3814 57.3922Z" fill="#F3F3F4"/>
</g>
<mask id="mask15_3029_3261" style="mask-type:luminance" maskUnits="userSpaceOnUse" x="0" y="0" width="82" height="71">
<path d="M0 0H81.0515V70.6546H0V0Z" fill="white"/>
</mask>
<g mask="url(#mask15_3029_3261)">
<path d="M28.7989 6.61768L30.6066 10.3571L30.0288 10.6455L29.075 8.67197L26.8955 9.76154L27.8472 11.733L27.271 12.0214L25.4633 8.27992L26.0395 7.99358L26.6461 9.24677L28.8298 8.15933L28.2232 6.90614L28.7989 6.61768Z" fill="#F3F3F4"/>
</g>
<mask id="mask16_3029_3261" style="mask-type:luminance" maskUnits="userSpaceOnUse" x="0" y="0" width="82" height="71">
<path d="M0 0H81.0515V70.6546H0V0Z" fill="white"/>
</mask>
<g mask="url(#mask16_3029_3261)">
<path d="M32.5677 8.1261L31.5977 8.43953C31.285 8.54082 31.1706 8.72622 31.2547 8.99574L31.2871 9.09295C31.3687 9.3607 31.5668 9.44145 31.8816 9.3421L32.8495 9.02655C33.1703 8.92455 33.2888 8.74057 33.2051 8.47459L33.1743 8.37525C33.0885 8.10538 32.8888 8.02251 32.5677 8.1261ZM31.8999 9.92328C31.6141 10.0164 31.3622 10.0081 31.1443 9.89831C30.9237 9.79047 30.7746 9.60985 30.6925 9.35432L30.6272 9.14077C30.5463 8.88223 30.5655 8.64424 30.6847 8.42678C30.7987 8.2072 30.9988 8.05084 31.285 7.9577L32.8825 7.44346L32.8762 7.42646C32.7765 7.10914 32.5553 7.00608 32.2126 7.11728L30.4374 7.69049L30.27 7.16084L32.0369 6.5903C32.4047 6.47165 32.7145 6.47661 32.9662 6.60517C33.2213 6.7231 33.4054 6.95791 33.5136 7.3064L33.8426 8.35825C33.9262 8.62812 33.9037 8.86877 33.7709 9.08286C33.6524 9.27765 33.4455 9.42285 33.1502 9.51847L31.8999 9.92328Z" fill="#F3F3F4"/>
</g>
<mask id="mask17_3029_3261" style="mask-type:luminance" maskUnits="userSpaceOnUse" x="0" y="0" width="82" height="71">
<path d="M0 0H81.0515V70.6546H0V0Z" fill="white"/>
</mask>
<g mask="url(#mask17_3029_3261)">
<path d="M35.2904 5.7955L35.9137 5.68766C36.3077 5.61896 36.6371 5.68129 36.902 5.87466C37.1652 6.06874 37.332 6.37296 37.4025 6.78732L37.699 8.55741L37.0657 8.66525L36.7734 6.92863C36.7309 6.67187 36.6505 6.49266 36.5323 6.39102C36.3812 6.26034 36.1935 6.21253 35.9608 6.25396L35.4211 6.34533C35.1963 6.38535 35.0337 6.49266 34.9333 6.66726C34.8618 6.80184 34.8475 6.99752 34.8904 7.25428L35.1801 8.99143L34.5468 9.10139L34.2509 7.33344C34.1815 6.91872 34.2401 6.57554 34.4266 6.3039C34.6124 6.03155 34.9003 5.86209 35.2904 5.7955Z" fill="#F3F3F4"/>
</g>
<mask id="mask18_3029_3261" style="mask-type:luminance" maskUnits="userSpaceOnUse" x="0" y="0" width="82" height="71">
<path d="M0 0H81.0515V70.6546H0V0Z" fill="white"/>
</mask>
<g mask="url(#mask18_3029_3261)">
<path d="M40.4521 8.03297C40.2234 8.3124 39.9394 8.45282 39.6002 8.45424H39.2044C38.8488 8.45601 38.5649 8.3425 38.3526 8.11371C38.1528 7.8998 38.0521 7.59753 38.0503 7.20689L38.0461 5.32472L38.6836 5.32312L38.6872 7.21114C38.6872 7.43887 38.7364 7.60567 38.8347 7.71157C38.9452 7.83021 39.0895 7.88971 39.2677 7.89006L39.5474 7.88794C39.7287 7.88794 39.8744 7.82773 39.9846 7.70732C40.0843 7.60284 40.134 7.43603 40.1336 7.20689L40.1294 5.321L40.7606 5.31887L40.7648 7.20477C40.7669 7.4332 40.8139 7.6016 40.9096 7.70519C41.0222 7.82384 41.1672 7.88333 41.3447 7.88369H41.6229C41.8064 7.88156 41.9518 7.82366 42.0621 7.70307C42.1618 7.59788 42.2115 7.43054 42.2111 7.20105L42.207 5.31462L42.8444 5.3125L42.8481 7.19467C42.8481 7.58673 42.7461 7.89006 42.538 8.10362C42.3288 8.33382 42.0442 8.44857 41.684 8.44786L41.294 8.44999C40.9614 8.44999 40.6808 8.31098 40.4521 8.03297Z" fill="#F3F3F4"/>
</g>
<mask id="mask19_3029_3261" style="mask-type:luminance" maskUnits="userSpaceOnUse" x="0" y="0" width="82" height="71">
<path d="M0 0H81.0515V70.6546H0V0Z" fill="white"/>
</mask>
<g mask="url(#mask19_3029_3261)">
<path d="M44.9438 6.23371C44.7179 6.19475 44.5286 6.24186 44.3759 6.37502C44.2661 6.47702 44.19 6.65693 44.1474 6.91476L43.8614 8.6535L43.2281 8.54566L43.9064 4.42432L44.5396 4.53428L44.3393 5.75028C44.5456 5.65652 44.7749 5.62837 44.9972 5.66954L45.62 5.77525C46.0139 5.84254 46.3046 6.0113 46.4922 6.28152C46.679 6.55316 46.739 6.89634 46.6721 7.31106L46.3797 9.07902L45.7465 8.9733L46.0325 7.23403C46.0754 6.97691 46.055 6.78195 45.9776 6.64701C45.8793 6.47241 45.7139 6.3651 45.4814 6.32508L44.9438 6.23371Z" fill="#F3F3F4"/>
</g>
<mask id="mask20_3029_3261" style="mask-type:luminance" maskUnits="userSpaceOnUse" x="0" y="0" width="82" height="71">
<path d="M0 0H81.0515V70.6546H0V0Z" fill="white"/>
</mask>
<g mask="url(#mask20_3029_3261)">
<path d="M49.2299 8.37933L48.2594 8.07015C47.9457 7.96886 47.7468 8.05333 47.6628 8.32355L47.6324 8.42289C47.5509 8.68851 47.6649 8.87125 47.9796 8.97325L48.9497 9.28243C49.269 9.38585 49.47 9.3035 49.5526 9.03541L49.5829 8.93766C49.6687 8.66779 49.5484 8.48133 49.2299 8.37933ZM47.6649 9.4588C47.3793 9.36743 47.1785 9.2139 47.0625 8.99822C46.9422 8.77988 46.9213 8.54561 47.0013 8.28849L47.0666 8.07652C47.1461 7.81728 47.2993 7.63241 47.5179 7.52457C47.7372 7.41265 47.9891 7.40221 48.2735 7.49322L49.8731 8.00374L49.8773 7.9894C49.9774 7.6703 49.8548 7.45586 49.5097 7.34607L47.7323 6.77977L47.8981 6.24854L49.665 6.81271C50.0324 6.931 50.2836 7.1164 50.4185 7.36891C50.5597 7.61541 50.5761 7.91361 50.4677 8.26352L50.1408 9.31537C50.0572 9.58524 49.8998 9.77011 49.6728 9.86732C49.4647 9.95693 49.2129 9.95427 48.9172 9.85936L47.6649 9.4588Z" fill="#F3F3F4"/>
</g>
<mask id="mask21_3029_3261" style="mask-type:luminance" maskUnits="userSpaceOnUse" x="0" y="0" width="82" height="71">
<path d="M0 0H81.0515V70.6546H0V0Z" fill="white"/>
</mask>
<g mask="url(#mask21_3029_3261)">
<path d="M63.3462 35.1011C63.3462 47.9193 53.1185 58.3119 40.499 58.3119C27.8817 58.3119 17.6545 47.9193 17.6545 35.1011C17.6545 22.2807 27.8817 11.8887 40.499 11.8887C53.1185 11.8887 63.3462 22.2807 63.3462 35.1011Z" fill="white"/>
</g>
<mask id="mask22_3029_3261" style="mask-type:luminance" maskUnits="userSpaceOnUse" x="0" y="0" width="82" height="71">
<path d="M0 0H81.0515V70.6546H0V0Z" fill="white"/>
</mask>
<g mask="url(#mask22_3029_3261)">
<path d="M62.4556 37.9065C62.4343 37.8788 62.4078 37.8557 62.3777 37.8385C62.3539 37.8255 62.3273 37.8189 62.3003 37.8194C62.1429 37.8321 62.1021 38.0478 62.0692 38.1684C61.8645 38.929 61.6439 39.6851 61.4077 40.4362L61.3951 40.4777L61.4114 40.5154C61.5646 40.9218 61.6791 41.3431 61.7507 41.7707C61.7648 41.8621 61.826 41.9906 61.9405 41.9635C61.9693 41.9552 61.9954 41.9395 62.0164 41.9179C62.1774 41.7728 62.2328 41.4966 62.2062 41.2894C62.1606 40.924 62.0777 40.5643 61.9588 40.2163C62.145 39.6229 62.3207 39.0168 62.4776 38.4255C62.5042 38.324 62.5288 38.2305 62.5189 38.1248C62.5105 38.0478 62.4964 37.967 62.4556 37.9065Z" fill="#EBBC95"/>
</g>
<mask id="mask23_3029_3261" style="mask-type:luminance" maskUnits="userSpaceOnUse" x="0" y="0" width="82" height="71">
<path d="M0 0H81.0515V70.6546H0V0Z" fill="white"/>
</mask>
<g mask="url(#mask23_3029_3261)">
<path d="M60.9375 38.8133C60.6965 38.6598 60.5637 39.0232 60.5129 39.1932C60.2661 39.9957 60.0086 40.7947 59.7406 41.5901L59.7223 41.648L59.7568 41.698C60.0183 42.0714 60.2593 42.4699 60.4659 42.8768C60.5495 43.0409 60.709 43.0861 60.8293 42.9267C60.9438 42.7753 61.0479 42.4847 60.9642 42.2977C60.814 41.9549 60.6385 41.624 60.4392 41.308C60.6473 40.6833 60.8518 40.0357 61.0416 39.3988C61.0866 39.2516 61.1111 39.1247 61.0583 38.9754C61.0353 38.9101 60.9931 38.8536 60.9375 38.8133Z" fill="#EBBC95"/>
</g>
<mask id="mask24_3029_3261" style="mask-type:luminance" maskUnits="userSpaceOnUse" x="0" y="0" width="82" height="71">
<path d="M0 0H81.0515V70.6546H0V0Z" fill="white"/>
</mask>
<g mask="url(#mask24_3029_3261)">
<path d="M58.4355 42.6505C58.654 41.9864 58.8705 41.3202 59.075 40.6689C59.1461 40.4469 59.1607 40.2062 58.9155 40.0941C58.8741 40.0741 58.8283 40.0655 58.7827 40.0692C58.5824 40.0941 58.4762 40.3555 58.4271 40.5213C58.178 41.361 57.9118 42.1954 57.6286 43.0239L57.6019 43.1009L57.6615 43.1525C58.0312 43.4765 58.3863 43.8293 58.7131 44.1985C58.7506 44.2445 58.7992 44.2797 58.8543 44.3005C58.8543 44.3005 58.9521 44.3127 58.9725 44.3063C59.2507 44.2277 59.4138 43.7629 59.2303 43.5286C58.9866 43.2167 58.7209 42.9233 58.4355 42.6505Z" fill="#EBBC95"/>
</g>
<mask id="mask25_3029_3261" style="mask-type:luminance" maskUnits="userSpaceOnUse" x="0" y="0" width="82" height="71">
<path d="M0 0H81.0515V70.6546H0V0Z" fill="white"/>
</mask>
<g mask="url(#mask25_3029_3261)">
<path d="M57.1078 44.9746C56.7676 44.7098 56.413 44.4645 56.0458 44.2399C56.2456 43.5679 56.45 42.8975 56.6524 42.2398C56.6953 42.1028 56.7298 41.9556 56.6482 41.8228C56.5745 41.7022 56.4233 41.6523 56.2905 41.6815C56.0479 41.7335 55.9637 41.9407 55.9004 42.1564C55.6574 42.9993 55.4109 43.8411 55.161 44.6819L55.1349 44.7733L55.2165 44.819C55.6939 45.0953 56.1607 45.3902 56.6158 45.7029C56.7606 45.8028 56.9342 45.8028 57.0608 45.6743C57.2344 45.4979 57.3306 45.1489 57.1078 44.9746Z" fill="#EBBC95"/>
</g>
<mask id="mask26_3029_3261" style="mask-type:luminance" maskUnits="userSpaceOnUse" x="0" y="0" width="82" height="71">
<path d="M0 0H81.0515V70.6546H0V0Z" fill="white"/>
</mask>
<g mask="url(#mask26_3029_3261)">
<path d="M54.6936 46.6204C54.268 46.4089 53.8332 46.2171 53.3905 46.0456C53.5699 45.3837 53.7398 44.709 53.8946 44.0556C53.9234 43.9371 53.9563 43.8022 53.8847 43.6922C53.8507 43.6432 53.8065 43.6024 53.7553 43.5726C53.704 43.5429 53.647 43.5249 53.5882 43.5201C53.2943 43.4994 53.129 43.7958 53.0653 44.0428C52.8508 44.8808 52.646 45.7213 52.4508 46.5641L52.4283 46.6661L52.524 46.7011C53.0946 46.917 53.6605 47.1453 54.2214 47.3859C54.2903 47.421 54.3678 47.4349 54.4444 47.4261C54.521 47.4172 54.5934 47.3859 54.6528 47.336C54.7342 47.264 54.796 47.172 54.8322 47.0687C54.8975 46.9025 54.8751 46.699 54.6936 46.6204Z" fill="#EBBC95"/>
</g>
<mask id="mask27_3029_3261" style="mask-type:luminance" maskUnits="userSpaceOnUse" x="0" y="0" width="82" height="71">
<path d="M0 0H81.0515V70.6546H0V0Z" fill="white"/>
</mask>
<g mask="url(#mask27_3029_3261)">
<path d="M52.2794 48.5103C52.2363 48.4595 52.1793 48.4227 52.1157 48.4046C51.6216 48.2346 51.1128 48.0912 50.6024 47.9812C50.7065 47.3586 50.8246 46.7238 50.9517 46.0932C51.0129 45.8483 50.8801 45.6156 50.6144 45.6114C50.2918 45.6077 50.1203 45.8584 50.0627 46.1447C49.9697 46.6112 49.8811 47.0809 49.7971 47.5541C49.7423 47.889 49.6907 48.2244 49.6423 48.5603L49.6277 48.6724L49.7338 48.6931C50.3938 48.8259 51.0599 48.9858 51.7094 49.1664C51.768 49.1852 51.8237 49.1947 51.8767 49.1951C52.0587 49.1951 52.2302 49.0665 52.3076 48.9029C52.373 48.768 52.363 48.6145 52.2794 48.5103Z" fill="#EBBC95"/>
</g>
<mask id="mask28_3029_3261" style="mask-type:luminance" maskUnits="userSpaceOnUse" x="0" y="0" width="82" height="71">
<path d="M0 0H81.0515V70.6546H0V0Z" fill="white"/>
</mask>
<g mask="url(#mask28_3029_3261)">
<path d="M49.6604 50.362L49.6358 50.3413C49.579 50.3035 49.5148 50.2787 49.4476 50.2685C48.8905 50.1593 48.33 50.0693 47.7669 49.9986C47.8116 49.4183 47.8708 48.8392 47.9447 48.262C47.9892 47.9114 47.677 47.7409 47.3664 47.8551C47.1499 47.9358 47.0213 48.1457 47.015 48.3757C46.9256 49.1171 46.8705 49.8624 46.8498 50.609L46.8477 50.719L46.9538 50.7291C47.6749 50.7955 48.396 50.8953 49.0946 51.0218C49.1455 51.036 49.1945 51.0429 49.2416 51.0425C49.3353 51.0408 49.4268 51.0134 49.5065 50.9634C49.5863 50.9135 49.6514 50.8426 49.6949 50.7583C49.7255 50.6954 49.7385 50.6251 49.7324 50.5552C49.7263 50.4853 49.7014 50.4185 49.6604 50.362Z" fill="#EBBC95"/>
</g>
<mask id="mask29_3029_3261" style="mask-type:luminance" maskUnits="userSpaceOnUse" x="0" y="0" width="82" height="71">
<path d="M0 0H81.0515V70.6546H0V0Z" fill="white"/>
</mask>
<g mask="url(#mask29_3029_3261)">
<path d="M47.138 52.2606C47.0805 52.1692 46.9681 52.1171 46.852 52.1171C46.2568 52.0516 45.6602 52.0011 45.0626 51.9657C45.0486 51.4423 45.0377 50.9222 45.0296 50.4055C45.0275 50.2791 44.9993 50.1542 44.8806 50.0878C44.8029 50.0487 44.716 50.0321 44.6296 50.04C44.3253 50.0586 44.1004 50.2706 44.1067 50.5882C44.1124 51.2417 44.1412 51.9014 44.1925 52.5512L44.2003 52.6526L44.3007 52.659C45.0605 52.7111 45.8203 52.7668 46.5701 52.8231C46.605 52.8288 46.639 52.8315 46.6721 52.8311C46.8991 52.8311 47.148 52.6818 47.1746 52.4327C47.1829 52.3727 47.17 52.3117 47.138 52.2606Z" fill="#EBBC95"/>
</g>
<mask id="mask30_3029_3261" style="mask-type:luminance" maskUnits="userSpaceOnUse" x="0" y="0" width="82" height="71">
<path d="M0 0H81.0515V70.6546H0V0Z" fill="white"/>
</mask>
<g mask="url(#mask30_3029_3261)">
<path d="M44.6683 53.906C44.5945 53.8539 44.4967 53.8374 44.4089 53.8374C43.8023 53.8247 43.1853 53.8082 42.5787 53.7854C42.4867 53.3391 42.4129 52.8929 42.3559 52.4615C42.3335 52.3037 42.2477 52.1895 42.0945 52.1523C41.9338 52.1166 41.7658 52.1447 41.6249 52.231C41.4733 52.3245 41.4225 52.4886 41.445 52.6607C41.5378 53.231 41.6591 53.7961 41.8084 54.3538L41.8309 54.4393L41.9167 54.4409C42.6807 54.4515 43.4426 54.4622 44.1945 54.4701C44.2206 54.4744 44.2515 54.4765 44.2782 54.4765C44.4476 54.4765 44.6458 54.4165 44.7378 54.2587C44.7599 54.2224 44.7735 54.1814 44.7774 54.1389C44.7813 54.0964 44.7754 54.0536 44.7603 54.0138C44.7399 53.97 44.708 53.9327 44.6683 53.906Z" fill="#EBBC95"/>
</g>
<mask id="mask31_3029_3261" style="mask-type:luminance" maskUnits="userSpaceOnUse" x="0" y="0" width="82" height="71">
<path d="M0 0H81.0515V70.6546H0V0Z" fill="white"/>
</mask>
<g mask="url(#mask31_3029_3261)">
<path d="M42.495 55.4166C42.415 55.3629 42.3026 55.3587 42.2111 55.3565L40.3887 55.3193C40.2401 54.9675 40.1059 54.6095 39.9866 54.2462C39.9703 54.1894 39.9397 54.138 39.8977 54.0969C39.8558 54.0558 39.8041 54.0265 39.7476 54.012C39.6774 53.9952 39.6049 53.9909 39.5332 53.9992C39.4307 54.0056 39.3267 54.0263 39.243 54.0847C39.1165 54.174 39.0961 54.3312 39.1489 54.4726C39.3042 54.9353 39.494 55.3921 39.7168 55.8256L39.7476 55.8856L39.8151 55.8878C40.303 55.9064 40.7935 55.917 41.2792 55.917C41.5449 55.917 41.8105 55.9127 42.0699 55.9085C42.1943 55.9042 42.3397 55.9042 42.4521 55.8378C42.4862 55.8186 42.516 55.7925 42.5398 55.7612C42.5637 55.7299 42.581 55.6939 42.5907 55.6556C42.5996 55.6106 42.5953 55.564 42.5783 55.5215C42.5613 55.4789 42.5323 55.4425 42.495 55.4166Z" fill="#EBBC95"/>
</g>
<mask id="mask32_3029_3261" style="mask-type:luminance" maskUnits="userSpaceOnUse" x="0" y="0" width="82" height="71">
<path d="M0 0H81.0515V70.6546H0V0Z" fill="white"/>
</mask>
<g mask="url(#mask32_3029_3261)">
<path d="M40.6586 56.6597C40.577 56.5646 40.395 56.5439 40.2909 56.5418C39.7048 56.5248 39.1165 56.5083 38.5303 56.4876C38.3234 56.2263 38.1381 55.9481 37.9765 55.6557C37.8824 55.483 37.6393 55.4665 37.4761 55.483C37.4059 55.4867 37.3378 55.5082 37.2779 55.5457C37.1592 55.6243 37.1409 55.78 37.2251 55.8963C37.4515 56.257 37.7109 56.606 37.9927 56.9253L38.0257 56.963L38.0743 56.9646C38.7719 56.992 39.47 57.006 40.1681 57.0066H40.1989C40.2234 57.0096 40.248 57.0108 40.2726 57.0103C40.3992 57.0103 40.5362 56.9896 40.634 56.9046C40.6666 56.8789 40.689 56.8421 40.6973 56.801C40.7016 56.776 40.7004 56.7503 40.6937 56.7259C40.687 56.7014 40.675 56.6788 40.6586 56.6597Z" fill="#EBBC95"/>
</g>
<mask id="mask33_3029_3261" style="mask-type:luminance" maskUnits="userSpaceOnUse" x="0" y="0" width="82" height="71">
<path d="M0 0H81.0515V70.6546H0V0Z" fill="white"/>
</mask>
<g mask="url(#mask33_3029_3261)">
<path d="M38.9978 57.392C38.9037 57.3341 38.7489 57.3235 38.6647 57.3278C38.1213 57.3037 37.5786 57.2671 37.0369 57.2178C36.8018 57.0326 36.5723 56.8402 36.3487 56.6409C36.2138 56.5187 36.0402 56.4873 35.8666 56.4916C35.8033 56.4909 35.7414 56.5096 35.6888 56.5452C35.5889 56.6244 35.6072 56.7864 35.7155 56.8486C35.9912 57.102 36.2909 57.3271 36.6102 57.5206L36.6551 57.5355C37.3109 57.6141 37.9786 57.6683 38.6385 57.6991C38.6755 57.7033 38.7135 57.7055 38.7525 57.7055C38.8629 57.7055 39.0569 57.6932 39.0757 57.5477C39.0835 57.4749 39.0511 57.4255 38.9978 57.392Z" fill="#EBBC95"/>
</g>
<mask id="mask34_3029_3261" style="mask-type:luminance" maskUnits="userSpaceOnUse" x="0" y="0" width="82" height="71">
<path d="M0 0H81.0515V70.6546H0V0Z" fill="white"/>
</mask>
<g mask="url(#mask34_3029_3261)">
<path d="M25.9311 25.2293C25.5902 24.8702 25.061 25.4641 25.3753 25.7919C25.6613 26.1319 25.9677 26.4618 26.2883 26.7773C26.0266 27.325 25.764 27.8722 25.5003 28.4188C25.402 28.6223 25.404 28.8523 25.6143 28.9814C25.8721 29.1328 26.0865 28.9272 26.1926 28.6988C26.5233 27.9944 26.8474 27.2867 27.1647 26.576L27.2018 26.4995L27.138 26.441C26.7256 26.0477 26.3231 25.6437 25.9311 25.2293Z" fill="#EBBC95"/>
</g>
<mask id="mask35_3029_3261" style="mask-type:luminance" maskUnits="userSpaceOnUse" x="0" y="0" width="82" height="71">
<path d="M0 0H81.0515V70.6546H0V0Z" fill="white"/>
</mask>
<g mask="url(#mask35_3029_3261)">
<path d="M28.2557 24.2648C27.9943 24.0677 27.6633 24.1835 27.59 24.5176C27.5388 24.7418 27.6779 24.8624 27.8311 24.9867L28.1883 25.2752C28.2515 25.3251 28.9094 25.7899 28.8994 25.817C28.6706 26.4053 28.4295 26.9885 28.1762 27.5664C28.08 27.7821 28.1475 28.0498 28.3765 28.1412C28.6604 28.2512 28.8565 28.027 28.9585 27.7842C29.2719 27.0413 29.5702 26.2919 29.8532 25.5365L29.8835 25.4515L29.8103 25.3995C29.2874 25.0281 28.7624 24.6467 28.2557 24.2648Z" fill="#EBBC95"/>
</g>
<mask id="mask36_3029_3261" style="mask-type:luminance" maskUnits="userSpaceOnUse" x="0" y="0" width="82" height="71">
<path d="M0 0H81.0515V70.6546H0V0Z" fill="white"/>
</mask>
<g mask="url(#mask36_3029_3261)">
<path d="M30.809 23.1403C30.6171 23.0319 30.3901 23.0362 30.239 23.2088C30.0816 23.3868 30.0759 23.6944 30.3044 23.8123C30.776 24.099 31.2533 24.3758 31.7361 24.6426C31.5442 25.2525 31.3502 25.865 31.1583 26.4685C31.1282 26.5449 31.1143 26.6269 31.1175 26.7091C31.1217 26.9254 31.3423 27.0289 31.5301 27.0353C31.7915 27.0454 31.9447 26.8547 32.0221 26.6178C32.2737 25.8544 32.5084 25.0681 32.7207 24.2814L32.7453 24.19L32.6637 24.1443C32.0431 23.8142 31.4248 23.4795 30.809 23.1403Z" fill="#EBBC95"/>
</g>
<mask id="mask37_3029_3261" style="mask-type:luminance" maskUnits="userSpaceOnUse" x="0" y="0" width="82" height="71">
<path d="M0 0H81.0515V70.6546H0V0Z" fill="white"/>
</mask>
<g mask="url(#mask37_3029_3261)">
<path d="M35.6951 22.6773L35.6072 22.6417C34.9009 22.3625 34.1955 22.081 33.491 21.797C33.2154 21.6871 32.8452 21.7928 32.8065 22.1376C32.7699 22.4967 33.2907 22.6189 33.536 22.7267C33.9181 22.8992 34.3054 23.0603 34.6979 23.2101C34.5814 23.8296 34.4534 24.4469 34.3141 25.0615C34.2996 25.1191 34.2969 25.1792 34.3063 25.2379C34.3156 25.2966 34.3368 25.3527 34.3684 25.4028C34.4001 25.4528 34.4415 25.4957 34.4902 25.5288C34.5389 25.5618 34.5937 25.5843 34.6514 25.5949C34.9473 25.6506 35.1779 25.4164 35.2313 25.1359C35.3887 24.4617 35.5236 23.7685 35.6297 23.0794L35.6951 22.6773Z" fill="#EBBC95"/>
</g>
<mask id="mask38_3029_3261" style="mask-type:luminance" maskUnits="userSpaceOnUse" x="0" y="0" width="82" height="71">
<path d="M0 0H81.0515V70.6546H0V0Z" fill="white"/>
</mask>
<g mask="url(#mask38_3029_3261)">
<path d="M35.57 20.9446C35.6171 20.9903 35.6783 21.0232 35.7478 21.0418C36.3382 21.2639 36.9427 21.4631 37.5498 21.6357C37.5276 22.236 37.4845 22.8352 37.4206 23.4324C37.3945 23.6815 37.5639 23.8807 37.8029 23.9142C38.1093 23.9578 38.3342 23.7378 38.3624 23.4345C38.4361 22.6732 38.4686 21.8971 38.4607 21.1289L38.4586 21.0397L38.3729 21.0168C38.2252 20.9774 38.0781 20.9359 37.9315 20.8925C37.3265 20.7085 36.7204 20.5281 36.1133 20.3512C35.8686 20.2805 35.5313 20.297 35.466 20.6147C35.4532 20.6741 35.4561 20.7359 35.4743 20.7938C35.4926 20.8518 35.5256 20.9038 35.57 20.9446Z" fill="#EBBC95"/>
</g>
<mask id="mask39_3029_3261" style="mask-type:luminance" maskUnits="userSpaceOnUse" x="0" y="0" width="82" height="71">
<path d="M0 0H81.0515V70.6546H0V0Z" fill="white"/>
</mask>
<g mask="url(#mask39_3029_3261)">
<path d="M38.2893 19.5085C38.9184 19.6413 39.5574 19.7863 40.1927 19.9356C40.2641 20.5012 40.312 21.0696 40.336 21.6393C40.348 21.9527 40.622 22.1354 40.9222 22.069C41.0318 22.0433 41.1277 21.9763 41.1905 21.8816C41.2534 21.7868 41.2786 21.6714 41.261 21.5585C41.2225 20.826 41.1325 20.0973 40.9917 19.3778L40.975 19.3008L40.9018 19.2843C40.1197 19.1207 39.3367 18.9615 38.5529 18.8067C38.2972 18.7573 37.9296 18.7902 37.9316 19.143C37.9337 19.3486 38.1011 19.4814 38.2893 19.5085Z" fill="#EBBC95"/>
</g>
<mask id="mask40_3029_3261" style="mask-type:luminance" maskUnits="userSpaceOnUse" x="0" y="0" width="82" height="71">
<path d="M0 0H81.0515V70.6546H0V0Z" fill="white"/>
</mask>
<g mask="url(#mask40_3029_3261)">
<path d="M40.1884 17.7115C40.2041 17.7407 40.2242 17.7672 40.248 17.7901C40.3766 17.9208 40.5643 17.9272 40.7338 17.9564C40.9262 17.9893 41.116 18.0207 41.31 18.0515C41.5019 18.0849 41.6917 18.1142 41.8863 18.1428C41.9433 18.1535 42.4254 18.1864 42.4374 18.2241C42.6089 18.7447 42.7564 19.276 42.8746 19.795C42.942 20.0771 43.2098 20.1993 43.4812 20.1414C43.7222 20.0893 43.8263 19.8508 43.7531 19.6229C43.5953 18.9522 43.3864 18.295 43.1282 17.6573L43.1036 17.5951L43.0382 17.585C42.2539 17.4639 41.4681 17.3532 40.6809 17.253C40.5398 17.236 40.3541 17.2281 40.2375 17.3274C40.123 17.423 40.1214 17.5866 40.1884 17.7115Z" fill="#EBBC95"/>
</g>
<mask id="mask41_3029_3261" style="mask-type:luminance" maskUnits="userSpaceOnUse" x="0" y="0" width="82" height="71">
<path d="M0 0H81.0515V70.6546H0V0Z" fill="white"/>
</mask>
<g mask="url(#mask41_3029_3261)">
<path d="M42.0355 16.2379C42.1254 16.342 42.264 16.3835 42.3947 16.3999C42.9955 16.4727 43.6204 16.5391 44.2537 16.597C44.5218 17.039 44.7579 17.5017 44.9622 17.9852C45.0705 18.2407 45.4098 18.3384 45.6488 18.2279C45.8407 18.1392 45.8449 17.9251 45.757 17.7551C45.4811 17.1523 45.1559 16.5741 44.785 16.0265L44.7541 15.9787L44.6987 15.9744C43.9504 15.9063 43.2015 15.8442 42.4522 15.788C42.3294 15.7773 42.1704 15.7651 42.0621 15.8358C41.921 15.925 41.9293 16.1136 42.0355 16.2379Z" fill="#EBBC95"/>
</g>
<mask id="mask42_3029_3261" style="mask-type:luminance" maskUnits="userSpaceOnUse" x="0" y="0" width="82" height="71">
<path d="M0 0H81.0515V70.6546H0V0Z" fill="white"/>
</mask>
<g mask="url(#mask42_3029_3261)">
<path d="M43.3793 14.808C43.4692 14.9701 43.659 15.028 43.8305 15.0386C44.4047 15.0758 44.9809 15.1151 45.5546 15.1586C45.8881 15.527 46.2025 15.9129 46.4963 16.3146C46.6229 16.5011 46.8598 16.6052 47.0825 16.5431C47.3236 16.4766 47.3074 16.2089 47.162 16.049C46.7926 15.5496 46.3836 15.0817 45.9389 14.6503L45.9081 14.621L45.8673 14.6194C45.1666 14.5674 44.4638 14.5196 43.7714 14.4803C43.5874 14.4675 43.2344 14.5196 43.3793 14.808Z" fill="#EBBC95"/>
</g>
<mask id="mask43_3029_3261" style="mask-type:luminance" maskUnits="userSpaceOnUse" x="0" y="0" width="82" height="71">
<path d="M0 0H81.0515V70.6546H0V0Z" fill="white"/>
</mask>
<g mask="url(#mask43_3029_3261)">
<path d="M44.3289 13.7293C44.3443 13.7456 44.3607 13.7608 44.378 13.775C44.4967 13.8664 44.6416 13.9014 44.7864 13.9099C45.2994 13.9386 45.8223 13.9779 46.341 14.0257C46.729 14.2999 47.1029 14.6048 47.4522 14.9267C47.6012 15.0654 47.9077 15.2189 48.0975 15.0595C48.2408 14.9389 48.1079 14.7583 47.9976 14.6754C47.5486 14.2654 47.0632 13.8986 46.5476 13.5795L46.4963 13.5652C45.8793 13.5136 45.2586 13.4717 44.662 13.4409C44.5312 13.418 44.2452 13.4201 44.2781 13.6236C44.2844 13.6629 44.3048 13.698 44.3289 13.7293Z" fill="#EBBC95"/>
</g>
<mask id="mask44_3029_3261" style="mask-type:luminance" maskUnits="userSpaceOnUse" x="0" y="0" width="82" height="71">
<path d="M0 0H81.0515V70.6546H0V0Z" fill="white"/>
</mask>
<g mask="url(#mask44_3029_3261)">
<path d="M44.8173 12.9573C44.936 13.0858 45.1321 13.1108 45.2932 13.123C45.7345 13.1586 46.1816 13.2102 46.6271 13.2766C47.058 13.4636 47.4768 13.6856 47.869 13.9364C47.9935 14.0155 48.4061 14.2126 48.4861 13.9884C48.5347 13.8514 48.3574 13.7456 48.2612 13.6915C47.7595 13.4017 47.2395 13.1459 46.7045 12.9259L46.6805 12.9196C46.1726 12.8416 45.6623 12.7814 45.1504 12.7389C45.0563 12.7289 44.7886 12.6789 44.764 12.8202C44.7561 12.8638 44.7744 12.9074 44.8173 12.9573Z" fill="#EBBC95"/>
</g>
<mask id="mask45_3029_3261" style="mask-type:luminance" maskUnits="userSpaceOnUse" x="0" y="0" width="82" height="71">
<path d="M0 0H81.0515V70.6546H0V0Z" fill="white"/>
</mask>
<g mask="url(#mask45_3029_3261)">
<path d="M80.8822 25.4789C80.3347 22.6006 78.9537 20.1559 77.6203 17.7924L76.8009 16.34L75.0157 16.8962C74.4028 17.089 73.7983 17.2797 73.1875 17.4481C72.4356 17.6516 71.9127 18.1473 71.635 18.9213C71.2373 20.0317 70.7991 21.1268 70.3215 22.2043C70.2459 22.0097 70.1551 21.8216 70.0501 21.6417C69.3739 20.4672 68.1644 19.7245 66.7327 19.6103C65.0887 19.4753 63.5361 19.8573 62.1347 20.7477C60.5357 21.7623 59.2263 23.0511 58.2108 24.605L61.6714 12.2622L59.1667 12.9613C59.0605 12.9905 58.9748 13.0134 58.8932 13.0383L57.9823 13.3268C57.2486 13.5552 56.5176 13.7874 55.7803 14.0052C55.0796 14.215 54.6016 14.707 54.3993 15.4289C53.594 18.2969 52.7885 21.1647 51.9829 24.0323L49.3605 24.844C48.5348 25.099 47.7504 25.3418 46.9661 25.5952C46.3924 25.7838 46.0698 26.2407 45.9307 26.4871C45.9181 26.5079 45.9082 26.5291 45.8962 26.5477C43.6226 26.0494 41.4697 26.5557 39.6212 28.0293C38.6141 28.83 37.7384 29.788 37.0271 30.8677L37.4741 28.5584L34.6122 29.4445C33.8096 29.6916 33.0336 29.9322 32.2633 30.183C31.6405 30.3843 31.3362 30.9219 31.24 31.0919C31.2346 31.1039 31.2277 31.1151 31.2196 31.1254C29.461 30.6441 27.7349 30.889 26.0663 31.8601L24.3543 23.3868L19.511 24.8462C17.0131 25.6202 14.5172 26.3963 12.0187 27.1639C9.88211 27.8195 7.38206 28.6976 5.0415 30.2287C2.94567 31.6024 1.59551 33.0862 0.792834 34.8977C-0.512357 37.8487 -0.204361 40.455 1.71159 42.6442C2.47061 43.5224 3.41638 44.2136 4.47728 44.6656L6.40788 45.4582C5.63344 47.93 4.3774 49.758 2.57597 51.0383C1.67499 51.6752 1.14789 52.4848 0.960166 53.5117C0.913104 53.763 0.839373 54.0079 0.766166 54.257C0.721544 54.4076 0.677968 54.5604 0.635437 54.7155L0.216584 56.5876L2.38406 56.4649L6.22799 55.2675C9.49411 54.2507 12.7623 53.2339 16.0248 52.1964C18.3857 51.4473 20.0852 50.2457 21.221 48.5314C21.4312 48.2142 21.6215 47.8902 21.7993 47.5666C22.1316 47.8055 22.4944 47.9975 22.8775 48.1372C24.1524 48.602 25.6312 48.5106 26.8318 47.8864C27.8839 47.3425 28.7849 46.5334 29.5813 45.4146C30.4535 46.1806 31.7404 46.4335 33.1172 46.0707C33.8638 45.8724 34.5629 45.5221 35.1723 45.0411L35.2193 45.2175C35.3558 45.7158 35.5153 46.2842 35.8505 46.8218C37.0103 48.6854 39.1673 49.5466 41.4838 49.061C43.3224 48.6769 44.854 47.5688 46.0368 45.7673C46.8782 44.4892 47.4911 42.9991 47.9633 41.0903C48.7126 40.6712 49.4849 40.235 50.1956 39.6523C50.4549 39.4403 50.6861 39.2082 50.8963 38.9755C52.2381 39.8536 53.9888 39.8759 55.6558 38.9425C56.8423 38.2764 57.6204 37.309 58.1763 36.3735C58.8707 36.7969 59.7696 37.0683 60.9665 37.029C61.8423 36.9968 62.7114 36.8617 63.5565 36.6263C65.8709 35.9772 67.8868 34.5848 69.901 32.2458C70.2059 31.8904 70.5001 31.5259 70.7832 31.1525C70.8507 31.229 70.9181 31.306 70.9918 31.3804C72.2113 32.632 73.8025 33.1154 75.7305 32.8227C77.4446 32.5613 78.9234 31.646 79.8955 30.2478C80.8555 28.8676 81.2069 27.174 80.8822 25.4789Z" fill="white"/>
</g>
<mask id="mask46_3029_3261" style="mask-type:luminance" maskUnits="userSpaceOnUse" x="0" y="0" width="82" height="71">
<path d="M0 0H81.0515V70.6546H0V0Z" fill="white"/>
</mask>
<g mask="url(#mask46_3029_3261)">
<path d="M61.6018 28.199C63.2908 27.7299 64.7188 27.0287 65.7626 25.6799C66.1077 25.2336 66.3587 24.7353 66.3733 24.1483C66.3875 23.5342 65.977 23.1273 65.395 23.2728C64.9986 23.3722 64.5839 23.5528 64.2754 23.8163C62.9435 24.9473 62.2591 26.5038 61.6018 28.199ZM45.8061 30.2533C44.7477 29.662 43.6203 29.8405 42.6807 30.7431C41.1914 32.179 40.4034 33.9969 39.9741 35.9933C39.7884 36.8502 39.7048 37.7241 39.9458 38.5895C40.2031 39.5127 40.8975 39.7741 41.651 39.1908C42.0312 38.8965 42.3701 38.5167 42.6519 38.1225C43.4792 36.9623 44.0392 35.657 44.5025 34.3146C44.9705 32.9679 45.3768 31.6 45.8061 30.2533ZM30.9763 34.8102C30.9151 34.7438 30.9031 34.7189 30.8827 34.7066C30.8381 34.6803 30.7916 34.6574 30.7436 34.6381C29.6366 34.1961 28.7011 34.5388 27.888 35.325C26.5153 36.651 25.733 38.326 25.2243 40.1455C24.9586 41.0879 24.7526 42.0505 24.8974 43.0407C25.059 44.1319 25.8047 44.4803 26.6994 43.8376C27.1486 43.5135 27.5408 43.0694 27.8655 42.6088C28.6948 41.4342 29.2198 40.096 29.6936 38.743C30.1511 37.4314 30.558 36.1011 30.9763 34.8102ZM59.6732 14.2769C59.3935 15.2836 59.132 16.2318 58.8643 17.1822C57.281 22.7949 55.6993 28.4082 54.1194 34.0219C54.0477 34.2732 53.9845 34.5303 53.9704 34.7874C53.9458 35.2065 54.1748 35.385 54.579 35.2958C55.2572 35.1486 55.6353 34.6301 55.9658 34.0798C56.8014 32.6938 57.1936 31.1415 57.5774 29.5813C58.3764 26.3519 60.0513 23.7249 62.8682 21.9362C64.0077 21.2122 65.2658 20.8987 66.6201 21.0087C68.7468 21.1808 69.8251 23.2064 68.8818 25.2836C68.238 26.7052 67.1331 27.68 65.84 28.4646C64.4799 29.2886 63.0005 29.7991 61.4464 30.0833C61.1421 30.1391 61.0213 30.2682 61.0417 30.5667C61.0684 30.9944 61.0297 31.4364 61.1238 31.847C61.2645 32.4632 61.7733 32.8223 62.4002 32.8431C63.4686 32.8765 64.3732 32.4218 65.213 31.8162C66.7451 30.708 67.9049 29.245 68.9367 27.672C70.6278 25.0966 71.8901 22.3033 72.9322 19.4022C73.0483 19.0808 73.2015 18.896 73.5451 18.803C74.411 18.5682 75.2629 18.284 76.1492 18.0099C77.5422 20.4854 78.9865 22.9116 79.5256 25.7463C80.0507 28.496 78.2591 31.0151 75.5243 31.4342C74.1742 31.6398 72.9626 31.405 71.9743 30.3903C71.5617 29.9691 71.2694 29.475 71.1794 28.8567C71.5878 29.0001 71.9638 29.1557 72.3539 29.2636C73.018 29.4506 73.6816 29.4006 74.3232 29.1557C75.3993 28.7446 75.9306 27.834 75.7753 26.5617C75.5729 24.8952 74.8848 23.3929 74.1475 21.8241C73.9781 22.2497 73.8411 22.6045 73.6999 22.9551C72.4747 25.9763 70.9917 28.8444 68.8614 31.32C67.3046 33.1273 65.5173 34.6195 63.1888 35.2729C62.446 35.4788 61.6824 35.5971 60.9131 35.6257C59.6408 35.6735 58.5213 35.2899 57.7939 34.0033C57.6694 34.2939 57.5753 34.526 57.4671 34.7523C56.8914 35.954 56.1786 37.0452 54.9874 37.7134C53.5902 38.496 51.84 38.4875 50.7999 36.9437C50.3183 37.485 49.8848 38.1018 49.3295 38.5581C48.6858 39.0851 47.9464 39.4963 47.2195 39.9027C46.9293 40.0647 46.7495 40.214 46.6679 40.5588C46.2961 42.1232 45.7774 43.6362 44.8889 44.9893C43.9921 46.3503 42.8318 47.3442 41.206 47.6848C39.4695 48.0476 37.8803 47.4563 37.0186 46.0725C36.788 45.7006 36.6672 45.2607 36.5448 44.823C37.1148 45.1821 37.6863 45.41 38.33 45.4706C39.333 45.5657 40.1743 45.2278 40.8975 44.543C41.6636 43.8184 42.2048 42.9302 42.6054 41.9612C43.0542 40.8705 43.4568 39.7608 43.8122 38.6351C43.3751 39.2636 42.9646 39.9112 42.4987 40.5173C41.9575 41.2186 41.3263 41.8412 40.4891 42.1812C39.0877 42.7522 37.5535 42.229 36.7592 40.928L36.5694 40.6124C36.2975 41.1622 36.0705 41.6977 35.7766 42.1918C35.0697 43.3892 34.1546 44.3417 32.7657 44.7109C31.6911 44.9951 30.6803 44.763 30.1841 44.0012C29.9226 43.6006 29.8018 43.1071 29.6282 42.6837C29.3098 43.2149 28.9788 43.8312 28.5908 44.406C27.9654 45.3293 27.2118 46.116 26.2068 46.6366C24.6935 47.4213 22.4037 47.0723 21.5806 45.1386C21.5597 45.0929 21.5189 45.0573 21.5393 45.0822C21.0613 45.9625 20.6326 46.9001 20.073 47.7491C19.0005 49.3699 17.3989 50.2868 15.61 50.8552C11.1281 52.281 6.6326 53.6692 2.14078 55.0722C2.10574 55.0828 2.06705 55.0785 1.96717 55.0886C2.09163 54.6323 2.23856 54.2068 2.31857 53.769C2.44511 53.0779 2.78605 52.6008 3.36649 52.1875C5.71123 50.5232 7.08597 48.1703 7.86406 45.4143C9.16507 40.818 10.4786 36.2255 11.7859 31.6292C11.8105 31.5442 11.8246 31.4549 11.8617 31.2908C11.2834 31.4757 10.7464 31.6292 10.2214 31.8242C8.07427 32.621 6.23833 33.8498 5.08792 35.9163C3.76861 38.2904 3.68285 40.7224 4.92686 43.1714C4.94725 43.2128 4.96556 43.2564 5.01889 43.3727C4.14672 43.002 3.36916 42.4343 2.74527 41.7126C1.07247 39.7991 1.07822 37.6784 2.05502 35.4743C2.84148 33.6984 4.20995 32.4446 5.79071 31.4093C7.83949 30.0668 10.0985 29.22 12.4192 28.506C15.9692 27.4165 19.5151 26.3104 23.0651 25.2108C23.1248 25.1922 23.1859 25.1778 23.3005 25.1444L24.579 31.4879C24.546 31.5277 24.534 31.5564 24.5136 31.5628C23.872 31.8098 23.8762 31.8077 23.4965 31.2185C23.2576 30.8467 23.0081 30.4838 22.7551 30.1226C21.9806 29.0166 20.927 28.6431 19.6437 28.9544C18.8107 29.1579 17.9856 29.4065 17.1599 29.6556C17.0516 29.687 16.923 29.8219 16.8927 29.934C16.0879 32.7767 15.2952 35.6241 14.5004 38.471C14.4883 38.5167 14.4988 38.5687 14.4988 38.6803C16.2694 38.1305 18.0117 37.5891 19.8236 37.0244C19.6008 37.7963 19.411 38.496 19.1846 39.1829C19.1496 39.2886 18.9598 39.3693 18.8248 39.4113C17.2786 39.8947 15.7302 40.3739 14.1798 40.8366C13.9 40.9195 13.7756 41.065 13.6919 41.3471C13.2794 42.7459 12.9013 44.1568 12.3883 45.5184C11.7122 47.315 10.5524 48.768 8.9878 49.874C8.91 49.9253 8.84888 49.9989 8.8121 50.0854C9.6085 49.8427 10.4049 49.602 11.1997 49.3571C12.6011 48.9257 13.9921 48.4609 15.4013 48.0625C17.9997 47.3257 19.7541 45.674 20.6655 43.1151C21.0535 42.0255 21.3191 40.8929 21.6826 39.7948C22.4769 37.4064 23.7742 35.35 25.7414 33.777C27.5836 32.3017 29.5958 31.8056 31.8653 32.8516C32.0572 32.4967 32.2386 32.1418 32.4368 31.7955C32.4964 31.6892 32.5801 31.5527 32.682 31.5213C33.6583 31.2015 34.6409 30.903 35.6726 30.5832C35.6417 30.741 35.6276 30.8531 35.5989 30.9588C34.6998 34.1547 33.8018 37.3504 32.9048 40.546C32.8311 40.8095 32.7558 41.0772 32.7291 41.3471C32.6883 41.7976 32.9456 42.0069 33.3786 41.8927C34.0427 41.7142 34.4181 41.1957 34.7428 40.6416C35.5622 39.245 35.9973 37.7055 36.3403 36.1362C36.9553 33.335 38.2197 30.9301 40.4745 29.1329C42.2006 27.757 44.127 27.4335 46.2187 28.0826C46.3311 28.1182 46.4394 28.1533 46.5513 28.1868C46.5596 28.1884 46.5738 28.1761 46.625 28.1533C46.7803 27.8505 46.9455 27.5121 47.1296 27.1865C47.1866 27.0823 47.2849 26.9665 47.389 26.9309C48.3553 26.6196 49.3232 26.3232 50.3711 25.9991C49.3844 29.8697 48.4144 33.6835 47.4256 37.562C48.3574 37.1179 48.9907 36.4475 49.5136 35.6634C50.5202 34.1504 51.0556 32.4367 51.5435 30.7016C52.9366 25.7378 54.338 20.776 55.7268 15.8127C55.7985 15.5593 55.9151 15.4286 56.1703 15.3515C57.2161 15.0424 58.2577 14.7066 59.2994 14.3804C59.4039 14.3475 59.5101 14.3204 59.6732 14.2769Z" fill="#07111F"/>
</g>
</g>
<defs>
<clipPath id="clip0_3029_3261">
<rect width="81" height="70.2" fill="white"/>
</clipPath>
</defs>
</svg>
