<svg width="95" height="90" viewBox="0 0 95 90" fill="none" xmlns="http://www.w3.org/2000/svg">
<g opacity="0.9">
<g clip-path="url(#clip0_3029_2902)">
<path d="M73.275 47.5726V46.8274L75.6654 43.6135L81.4195 47.5726H73.275ZM89.3712 33.6832H81.2974L84.1954 29.7888L82.5086 27.631C78.4181 22.3721 73.1925 18.1228 67.2289 15.2062C61.2654 12.2897 54.7209 10.7827 48.0931 10.7998C41.4652 10.7827 34.9207 12.2897 28.9572 15.2062C22.9936 18.1228 17.768 22.3721 13.6775 27.631L11.9907 29.7888L14.8919 33.6864H5.67114V39.9718H10.9177V53.8937H18.0533V40.299L28.4467 54.2662H23.8299L31.1905 63.1176H36.7936L48.0931 78.2998L59.3893 63.1176H64.9956L72.6742 53.8937H89.3712V45.0001L81.9528 39.8941H89.3712V33.6832Z" fill="white"/>
<path d="M48.1917 52.6484H52.9595V34.9293H48.1917V52.6484Z" fill="#C00C3F"/>
<path d="M67.4124 44.4836L60.3089 34.9291H54.9917L56.4342 36.8698V52.6514H61.0607V43.0937L68.1642 52.6514H72.0389V34.9291H67.4124V44.4836Z" fill="#C00C3F"/>
<path d="M40.4663 34.9294V45.7669L38.6543 48.2001L36.8423 45.7669V34.9294H32.3058V45.7669L30.497 48.2001L28.685 45.7669V34.9294H24.1453V46.4116L28.7878 52.6484H32.203L34.574 49.4604L36.9483 52.6484H40.3603L45.006 46.4116V34.9294H40.4663Z" fill="#C00C3F"/>
<path d="M48.0925 68.4798V76.2231L61.4353 58.2968H55.6715L48.0925 68.4798Z" fill="#231F20"/>
<path d="M48.0925 76.2241V68.4808L40.5135 58.2945H34.7498L48.0925 76.2241Z" fill="#C00C3F"/>
<path d="M47.2717 29.2549H43.3392V22.5839H41.4404V30.8716H47.2717V29.2549Z" fill="#6D6E71"/>
<path d="M51.5459 30.9941C52.8246 30.9941 54.0679 30.6669 54.7458 30.1874V26.1635H51.4527V27.7121H52.998V29.1636C52.5548 29.3079 52.0919 29.3811 51.6262 29.3807C49.9202 29.3807 49.3483 28.5059 49.3483 26.7272C49.3483 25.0295 49.8881 24.0316 51.6005 24.0316C52.5483 24.0316 53.0912 24.3329 53.5378 24.9064L54.7201 23.8113C54.0037 22.7745 52.741 22.457 51.5587 22.457C48.9017 22.457 47.5042 23.9214 47.5042 26.711C47.5042 29.4908 48.7636 30.9941 51.5459 30.9941Z" fill="#6D6E71"/>
<path d="M26.4778 55.5112L31.7661 61.8711H64.421L69.7093 55.5112H26.4778Z" fill="#6D6E71"/>
<path d="M38.3091 59.5972C38.5607 59.7389 38.8435 59.8147 39.1316 59.8176C39.5525 59.8176 39.7099 59.6588 39.7099 59.4547C39.7099 59.2635 39.5557 59.1663 39.4818 59.1275C39.2441 59.0043 38.9645 58.9201 38.7075 58.8132C38.3284 58.6188 38.1356 58.4374 38.1356 57.9579C38.1356 57.3909 38.5372 57.0507 39.2794 57.0507C39.624 57.0414 39.9651 57.1229 40.2689 57.2872L40.0633 57.7602C39.825 57.6219 39.5544 57.5503 39.2794 57.5529C38.8939 57.5529 38.7396 57.6954 38.7396 57.906C38.7396 58.0097 38.7718 58.0907 38.8328 58.1458C38.8904 58.1965 38.9554 58.2381 39.0256 58.2689C39.2248 58.3628 39.5204 58.4665 39.7645 58.5832C40.0601 58.7322 40.3043 58.9169 40.3043 59.419C40.3043 59.9828 39.8673 60.3359 39.1412 60.3359C38.7736 60.3346 38.4114 60.2458 38.0842 60.0767L38.3091 59.5972Z" fill="white"/>
<path d="M42.5889 57.0974H44.5166V57.6028H43.1929V58.3966H44.4716V58.8891H43.1929V59.7833H44.568V60.2822H42.5889V57.0974Z" fill="white"/>
<path d="M47.4486 58.728C47.4486 59.3371 47.606 59.8393 48.1361 59.8393C48.7594 59.8393 48.9458 59.4148 48.9458 58.6437C48.9458 58.0411 48.7948 57.5324 48.2582 57.5324C47.6542 57.5324 47.4486 57.9666 47.4486 58.728ZM49.5723 58.7053C49.5723 59.7907 49.1064 60.335 48.149 60.335C47.1627 60.335 46.835 59.6902 46.835 58.6729C46.835 57.5843 47.2912 57.0497 48.2518 57.0497C49.2253 57.0497 49.5723 57.6815 49.5723 58.7053Z" fill="white"/>
<path d="M51.8782 57.097H52.479V59.0604C52.479 59.5496 52.63 59.8444 53.0251 59.8444C53.491 59.8444 53.6581 59.6112 53.6581 58.9762V57.097H54.2589V59.0183C54.2589 59.9384 53.8155 60.3369 53.0316 60.3369C52.2541 60.3369 51.8782 59.9449 51.8782 58.9826V57.097Z" fill="white"/>
<path d="M56.6848 57.0974H57.2888V59.7833H58.5129V60.2822H56.6848V57.0974Z" fill="white"/>
<path d="M48.0927 16.6916V12.0424C41.6513 12.0265 35.2912 13.4918 29.4957 16.3269C23.7003 19.1621 18.6222 23.2924 14.6474 28.4039L13.5486 29.8067L15.2289 32.0649H20.9927L19.3895 29.9136C22.9452 25.7526 27.3514 22.4166 32.3059 20.1343C37.2604 17.8521 42.6458 16.6776 48.0927 16.6916Z" fill="#C00C3F"/>
<path d="M82.6396 29.8077L81.5408 28.4048C77.565 23.2936 72.4862 19.1636 66.6904 16.3285C60.8945 13.4934 54.534 12.0279 48.0923 12.0433V16.6926C59.199 16.6926 69.5635 21.4876 76.7955 29.9114L75.1955 32.0659H80.9593L82.6396 29.8077Z" fill="#231F20"/>
<path d="M6.9043 38.7268H12.154V52.6519H16.819V38.7268H22.0655V34.9296H6.9043V38.7268Z" fill="#C00C3F"/>
<path d="M88.1375 38.648V34.9286H75.0903V41.713L83.4758 47.48V48.8181H74.7883V52.6509H88.1375V45.6559L79.6975 39.85V38.648H88.1375Z" fill="#C00C3F"/>
</g>
</g>
<defs>
<clipPath id="clip0_3029_2902">
<rect width="83.7" height="67.5" fill="white" transform="translate(5.67114 10.7998)"/>
</clipPath>
</defs>
</svg>
