<svg width="84" height="68" viewBox="0 0 84 68" fill="none" xmlns="http://www.w3.org/2000/svg">
<g clip-path="url(#clip0_3029_2904)">
<path d="M67.6039 36.7728V36.0276L69.9942 32.8137L75.7484 36.7728H67.6039ZM83.7001 22.8834H75.6263L78.5242 18.989L76.8375 16.8312C72.747 11.5722 67.5213 7.32297 61.5578 4.40643C55.5942 1.4899 49.0497 -0.0171127 42.4219 -2.8078e-05C35.7941 -0.0171127 29.2496 1.4899 23.286 4.40643C17.3225 7.32297 12.0968 11.5722 8.00632 16.8312L6.31959 18.989L9.22075 22.8866H0V29.172H5.24651V43.0939H12.3822V29.4992L22.7756 43.4664H18.1588L25.5193 52.3178H31.1225L42.4219 67.5L53.7181 52.3178H59.3245L67.0031 43.0939H83.7001V34.2003L76.2817 29.0943H83.7001V22.8834Z" fill="white"/>
<path d="M42.5205 41.8486H47.2883V24.1294H42.5205V41.8486Z" fill="#C00C3F"/>
<path d="M61.7413 33.6838L54.6378 24.1293H49.3206L50.7631 26.07V41.8516H55.3895V32.2939L62.4931 41.8516H66.3677V24.1293H61.7413V33.6838Z" fill="#C00C3F"/>
<path d="M34.7952 24.1296V34.9671L32.9832 37.4003L31.1711 34.9671V24.1296H26.6346V34.9671L24.8258 37.4003L23.0138 34.9671V24.1296H18.4741V35.6118L23.1166 41.8486H26.5318L28.9029 38.6606L31.2772 41.8486H34.6892L39.3349 35.6118V24.1296H34.7952Z" fill="#C00C3F"/>
<path d="M42.4214 57.68V65.4233L55.7642 47.497H50.0004L42.4214 57.68Z" fill="#231F20"/>
<path d="M42.4214 65.4243V57.681L34.8424 47.4947H29.0786L42.4214 65.4243Z" fill="#C00C3F"/>
<path d="M41.6005 18.4551H37.6681V11.7841H35.7693V20.0718H41.6005V18.4551Z" fill="#6D6E71"/>
<path d="M45.8747 20.1943C47.1534 20.1943 48.3968 19.8671 49.0747 19.3876V15.3636H45.7815V16.9123H47.3269V18.3638C46.8837 18.5081 46.4208 18.5813 45.955 18.5809C44.249 18.5809 43.6772 17.7061 43.6772 15.9274C43.6772 14.2297 44.2169 13.2318 45.9293 13.2318C46.8771 13.2318 47.4201 13.5331 47.8667 14.1066L49.049 13.0115C48.3325 11.9747 47.0699 11.6572 45.8876 11.6572C43.2306 11.6572 41.833 13.1216 41.833 15.9112C41.833 18.691 43.0924 20.1943 45.8747 20.1943Z" fill="#6D6E71"/>
<path d="M20.8066 44.7114L26.0949 51.0713H58.7499L64.0382 44.7114H20.8066Z" fill="#6D6E71"/>
<path d="M32.638 48.7974C32.8895 48.9391 33.1723 49.0149 33.4605 49.0177C33.8813 49.0177 34.0388 48.859 34.0388 48.6549C34.0388 48.4637 33.8846 48.3665 33.8107 48.3277C33.5729 48.2045 33.2934 48.1203 33.0364 48.0134C32.6573 47.819 32.4645 47.6376 32.4645 47.158C32.4645 46.5911 32.8661 46.2509 33.6082 46.2509C33.9529 46.2416 34.294 46.3231 34.5978 46.4874L34.3922 46.9604C34.1539 46.8221 33.8832 46.7505 33.6082 46.7531C33.2227 46.7531 33.0685 46.8956 33.0685 47.1062C33.0685 47.2099 33.1006 47.2909 33.1617 47.346C33.2193 47.3967 33.2843 47.4383 33.3544 47.4691C33.5536 47.563 33.8492 47.6667 34.0934 47.7833C34.389 47.9324 34.6331 48.1171 34.6331 48.6192C34.6331 49.183 34.1962 49.5361 33.4701 49.5361C33.1024 49.5348 32.7403 49.446 32.4131 49.2769L32.638 48.7974Z" fill="white"/>
<path d="M36.9177 46.2976H38.8454V46.803H37.5217V47.5968H38.8004V48.0893H37.5217V48.9835H38.8968V49.4824H36.9177V46.2976Z" fill="white"/>
<path d="M41.7775 47.9282C41.7775 48.5373 41.9349 49.0395 42.465 49.0395C43.0883 49.0395 43.2746 48.615 43.2746 47.8439C43.2746 47.2413 43.1236 46.7326 42.5871 46.7326C41.9831 46.7326 41.7775 47.1668 41.7775 47.9282ZM43.9011 47.9055C43.9011 48.9909 43.4353 49.5352 42.4779 49.5352C41.4915 49.5352 41.1638 48.8904 41.1638 47.8731C41.1638 46.7845 41.62 46.2499 42.5807 46.2499C43.5541 46.2499 43.9011 46.8817 43.9011 47.9055Z" fill="white"/>
<path d="M46.207 46.2972H46.8078V48.2606C46.8078 48.7498 46.9588 49.0446 47.354 49.0446C47.8199 49.0446 47.9869 48.8114 47.9869 48.1764V46.2972H48.5877V48.2185C48.5877 49.1386 48.1444 49.5371 47.3604 49.5371C46.5829 49.5371 46.207 49.1451 46.207 48.1828V46.2972Z" fill="white"/>
<path d="M51.0137 46.2976H51.6177V48.9835H52.8418V49.4824H51.0137V46.2976Z" fill="white"/>
<path d="M42.4215 5.89182V1.24257C35.9802 1.22667 29.62 2.69198 23.8246 5.52711C18.0292 8.36225 12.951 12.4926 8.97622 17.6041L7.87744 19.0069L9.55774 21.2651H15.3215L13.7183 19.1138C17.274 14.9528 21.6803 11.6168 26.6348 9.3345C31.5892 7.05225 36.9747 5.87783 42.4215 5.89182Z" fill="#C00C3F"/>
<path d="M76.9685 19.0079L75.8697 17.605C71.8939 12.4938 66.8151 8.36377 61.0192 5.52869C55.2233 2.69361 48.8629 1.22811 42.4211 1.24354V5.8928C53.5278 5.8928 63.8923 10.6878 71.1244 19.1116L69.5244 21.2661H75.2882L76.9685 19.0079Z" fill="#231F20"/>
<path d="M1.23315 27.927H6.48288V41.8521H11.1479V27.927H16.3944V24.1298H1.23315V27.927Z" fill="#C00C3F"/>
<path d="M82.4664 27.8482V24.1288H69.4192V30.9132L77.8046 36.6802V38.0183H69.1172V41.8511H82.4664V34.8561L74.0264 29.0502V27.8482H82.4664Z" fill="#C00C3F"/>
</g>
<defs>
<clipPath id="clip0_3029_2904">
<rect width="83.7" height="67.5" fill="white"/>
</clipPath>
</defs>
</svg>
