<svg width="95" height="90" viewBox="0 0 95 90" fill="none" xmlns="http://www.w3.org/2000/svg">
<g clip-path="url(#clip0_3029_2883)">
<path d="M48.0934 11.7002C30.0037 11.7002 15.3376 26.4071 15.3376 44.5503C15.3376 62.6916 30.0037 77.3995 48.0934 77.3995C66.1841 77.3995 80.8502 62.6925 80.8502 44.5503C80.8502 26.4071 66.1841 11.7002 48.0934 11.7002Z" fill="#570514"/>
<path d="M48.0935 76.1966C30.6648 76.1966 16.536 62.0294 16.536 44.5492C16.536 27.0719 30.6648 12.9019 48.0935 12.9019C65.524 12.9019 79.6528 27.0719 79.6528 44.5492C79.6528 62.0304 65.524 76.1966 48.0935 76.1966Z" fill="#7D0521"/>
<path d="M27.0593 30.1546L23.8748 27.7348L24.4416 26.9859L25.7152 27.9536L25.7219 27.944L24.8655 26.4241L25.4447 25.658L26.3344 27.4072L28.6606 28.0338L28.0624 28.8267L26.6421 28.3969L26.8383 28.8076L27.6233 29.4047L27.0593 30.1546ZM29.6599 26.9696L26.8164 24.1572L27.4737 23.4866L30.3172 26.3L29.6599 26.9696ZM32.872 22.6211L32.8816 22.6153L31.4432 20.185L32.1566 19.6548L34.0075 23.2659L33.1626 23.8964L31.2517 21.8072L31.2441 21.8138L32.6758 24.2594L31.8413 24.8823L28.9198 22.0708L29.6456 21.5292L31.548 23.6175V23.6012L30.1819 21.1279L30.9097 20.5834L32.872 22.6211ZM35.8975 18.968C35.8701 18.9122 35.8403 18.8577 35.8079 18.8046C35.7786 18.7523 35.7406 18.7055 35.6955 18.6661C35.6554 18.6285 35.605 18.6039 35.5507 18.5954C35.4867 18.5862 35.4215 18.5983 35.365 18.6298C35.3097 18.6529 35.2632 18.693 35.2322 18.7444C35.2012 18.7957 35.1873 18.8556 35.1926 18.9154C35.1945 18.9756 35.2064 19.035 35.2278 19.0912C35.2507 19.1485 35.2735 19.2087 35.3012 19.2632L36.027 20.7382C36.0509 20.7878 36.0823 20.8423 36.1194 20.9006C36.1547 20.9579 36.1957 21.0066 36.2414 21.0477C36.2853 21.0881 36.3393 21.1158 36.3976 21.1279C36.4613 21.1407 36.5273 21.1305 36.5843 21.0993C36.6434 21.0731 36.6914 21.0267 36.7196 20.9684C36.7425 20.9152 36.7513 20.8569 36.7453 20.7993C36.7388 20.7354 36.7234 20.6727 36.6996 20.613C36.6758 20.555 36.6504 20.4976 36.6234 20.4411L35.8975 18.968ZM37.4283 19.9539C37.5283 20.1545 37.5959 20.3436 37.634 20.5156C37.6721 20.6894 37.6712 20.8499 37.634 20.9961C37.5909 21.1488 37.5096 21.2879 37.3978 21.4002C37.2816 21.5253 37.1159 21.64 36.9025 21.7451C36.6891 21.8501 36.4976 21.9122 36.3271 21.9313C36.1556 21.9505 36.0003 21.9313 35.8603 21.8759C35.71 21.8122 35.5773 21.7129 35.4736 21.5865C35.3458 21.4322 35.2373 21.2628 35.1506 21.0821L34.4324 19.6224C34.2609 19.2727 34.2295 18.9584 34.3352 18.6766C34.4429 18.3967 34.682 18.1646 35.0497 17.9821C35.4183 17.7987 35.7451 17.7528 36.0289 17.8388C36.3128 17.9286 36.5386 18.1464 36.7091 18.4942L37.4283 19.9539ZM40.0822 17.3554C40.0632 17.2981 40.0441 17.2379 40.0193 17.1787C39.9984 17.1234 39.9689 17.0718 39.9317 17.0258C39.8964 16.9828 39.8504 16.9499 39.7983 16.9303C39.7358 16.9112 39.6687 16.9139 39.6078 16.938C39.5469 16.9537 39.4925 16.9885 39.4526 17.0373C39.4214 17.0828 39.4017 17.1353 39.3954 17.1902C39.3878 17.2499 39.3898 17.3106 39.4011 17.3698C39.4135 17.4338 39.4297 17.4939 39.4459 17.5513L39.9289 19.1227C39.946 19.1782 39.9688 19.2364 39.9955 19.2995C40.0197 19.358 40.0521 19.4126 40.0917 19.4619C40.1308 19.5116 40.1784 19.5469 40.2337 19.5689C40.2946 19.5912 40.3614 19.5912 40.4223 19.5689C40.4851 19.5534 40.5402 19.5158 40.5776 19.4628C40.6084 19.4136 40.6264 19.3575 40.63 19.2995C40.6325 19.235 40.6267 19.1705 40.6128 19.1075C40.5996 19.0463 40.5838 18.9857 40.5652 18.9259L40.0822 17.3554ZM41.4368 18.5744C41.5035 18.7874 41.5416 18.9852 41.5511 19.161C41.5606 19.3406 41.534 19.4972 41.4739 19.6348C41.408 19.779 41.3063 19.904 41.1786 19.9978C41.0132 20.115 40.8289 20.2029 40.6338 20.2576C40.4415 20.3229 40.2394 20.3542 40.0365 20.3503C39.8772 20.3446 39.7218 20.2996 39.584 20.2194C39.4456 20.1327 39.3305 20.0133 39.2487 19.8717C39.1467 19.7 39.0667 19.5161 39.0105 19.3243L38.5324 17.7672C38.418 17.3955 38.4371 17.0813 38.5857 16.8214C38.7372 16.5597 39.0086 16.3676 39.4011 16.2463C39.7945 16.125 40.1251 16.1307 40.3899 16.2626C40.6566 16.3953 40.8452 16.6466 40.9595 17.0172L41.4368 18.5744ZM43.3048 19.4284L42.84 15.4505L44.1517 15.2958L44.908 17.5904L44.9176 17.5876L45.1414 15.1802L46.4427 15.0273L46.9075 19.0043L46.0188 19.1094L45.7492 15.9788L45.7396 15.9807L45.4472 19.1772L44.7547 19.2584L43.7497 16.2148H43.7402L44.1879 19.3243L43.3048 19.4284ZM50.9084 19.1667L51.5409 15.2117L52.4669 15.3607L52.2239 16.8787L52.866 16.9829L53.108 15.4639L54.0339 15.612L53.4013 19.567L52.4754 19.4179L52.7384 17.7719L52.0973 17.6697L51.8334 19.3148L50.9084 19.1667ZM54.9045 19.9414L56.1334 16.1336L58.1758 16.7956L57.9281 17.558L56.7783 17.1835L56.5525 17.8856L57.667 18.2477L57.4203 19.0081L56.3058 18.646L56.041 19.4695L57.2508 19.8631L57.0069 20.6254L54.9045 19.9414ZM60.2848 19.5641L60.5687 19.7074C60.6205 19.7368 60.6798 19.7501 60.7392 19.7456C60.7903 19.7403 60.8392 19.7219 60.8811 19.6921C60.9275 19.6595 60.9675 19.6187 60.9992 19.5717C61.0337 19.5226 61.0643 19.4709 61.0907 19.417C61.1367 19.3349 61.1679 19.2453 61.1831 19.1524C61.1938 19.0874 61.1802 19.0207 61.145 18.9651C61.1049 18.9052 61.0506 18.8562 60.9868 18.8228C60.9016 18.7739 60.8146 18.7283 60.7258 18.6862L60.2848 19.5641ZM59.2493 21.619L58.4129 21.1948L60.2133 17.62L61.4336 18.2372C61.7803 18.412 61.9995 18.6174 62.0928 18.8543C62.1871 19.0931 62.1433 19.3893 61.9652 19.7446C61.868 19.9357 61.7556 20.0838 61.6279 20.1889C61.4974 20.2959 61.3269 20.3436 61.1116 20.335L61.1078 20.3455C61.2069 20.423 61.2806 20.5285 61.3193 20.6484C61.3538 20.7709 61.3433 20.9017 61.2898 21.0171L61.1707 21.2922L61.024 21.619L60.8849 21.9371C60.8494 22.0177 60.8195 22.1007 60.7954 22.1855C60.7906 22.2413 60.7974 22.2976 60.8154 22.3507L60.7906 22.3985L59.8761 21.9361C59.8837 21.895 59.8885 21.8559 59.898 21.8177C59.9072 21.7798 59.9193 21.7428 59.9342 21.7068C60.0066 21.5444 60.0819 21.3935 60.1552 21.254C60.2286 21.1146 60.2886 20.9865 60.3315 20.8671C60.3711 20.7702 60.3906 20.6662 60.3886 20.5614C60.382 20.4755 60.3315 20.4029 60.2362 20.3474L59.9599 20.208L59.2493 21.619ZM64.9125 21.7613C64.9477 21.7107 64.982 21.66 65.0144 21.6046C65.0461 21.5542 65.0696 21.4991 65.0839 21.4413C65.0964 21.3876 65.0948 21.3317 65.0792 21.2789C65.0568 21.2172 65.015 21.1646 64.9601 21.1289C64.9105 21.0897 64.8498 21.0673 64.7867 21.0649C64.7309 21.0672 64.6764 21.0825 64.6276 21.1098C64.5771 21.1414 64.5313 21.18 64.4914 21.2244C64.4476 21.2722 64.4085 21.3199 64.3733 21.3687L63.4121 22.7023C63.3797 22.7481 63.3455 22.8016 63.3112 22.8609C63.2783 22.9161 63.2539 22.976 63.2388 23.0385C63.2245 23.0964 63.2255 23.157 63.2416 23.2143C63.2607 23.2769 63.3011 23.3307 63.3559 23.3662C63.4057 23.4066 63.4682 23.4276 63.5322 23.4254C63.5901 23.4204 63.6459 23.4007 63.6941 23.3681C63.7479 23.3333 63.7961 23.2904 63.837 23.2411C63.8799 23.1885 63.9189 23.1408 63.9513 23.093L64.9125 21.7613ZM64.7572 23.5792C64.6257 23.7608 64.4924 23.9098 64.3571 24.0254C64.2358 24.1323 64.0908 24.2086 63.9342 24.248C63.7795 24.2823 63.6187 24.2757 63.4674 24.2289C63.2745 24.168 63.0937 24.0739 62.933 23.9509C62.7657 23.8346 62.6189 23.6913 62.4986 23.5267C62.4068 23.3957 62.3494 23.2436 62.3319 23.0844C62.3157 22.9344 62.3414 22.7749 62.4033 22.6087C62.47 22.4415 62.5691 22.2676 62.6986 22.0861L63.6512 20.7659C63.878 20.4506 64.139 20.2758 64.4371 20.2405C64.7363 20.2041 65.0516 20.3073 65.385 20.549C65.7193 20.7907 65.9127 21.0582 65.9679 21.3496C66.0232 21.6409 65.9365 21.9457 65.7088 22.26L64.7572 23.5792ZM65.1792 25.6246L67.9836 22.772L69.5116 24.2833L68.9515 24.8536L68.0903 24.0015L67.574 24.5269L68.4094 25.3513L67.8474 25.9226L67.0139 25.0972L66.4071 25.7134L67.313 26.6095L66.7538 27.1808L65.1792 25.6246ZM69.2629 28.1103L69.0381 28.2803C68.9945 28.3131 68.9545 28.3506 68.9191 28.3921C68.8846 28.429 68.8587 28.473 68.8429 28.521C68.8269 28.5695 68.8246 28.6214 68.8362 28.671C68.8501 28.733 68.8781 28.7909 68.9181 28.8401C68.9848 28.9261 69.0639 28.9662 69.1601 28.9567C69.2553 28.9471 69.3439 28.9118 69.4249 28.8487C69.4873 28.8056 69.5375 28.747 69.5706 28.6787C69.6 28.618 69.6187 28.5527 69.6259 28.4857C69.6329 28.4164 69.6313 28.3464 69.6211 28.2774C69.6135 28.2056 69.6072 28.1336 69.6021 28.0615C69.5807 27.9075 69.566 27.7526 69.5582 27.5973C69.5512 27.4575 69.5627 27.3174 69.5926 27.1808C69.624 27.0489 69.6754 26.9266 69.7459 26.812C69.8183 26.6974 69.924 26.5875 70.0679 26.4805C70.368 26.2541 70.6556 26.1653 70.9347 26.2197C71.212 26.2723 71.4615 26.4461 71.6806 26.7384C71.8026 26.9008 71.8845 27.0633 71.9264 27.2257C71.9683 27.3881 71.9721 27.5428 71.9397 27.6918C71.9083 27.8418 71.8445 27.9823 71.7454 28.116C71.6379 28.2552 71.5078 28.3753 71.3605 28.4714L70.8433 27.7797L70.9824 27.6603C71.0312 27.6215 71.0742 27.5758 71.11 27.5247C71.1435 27.4787 71.1643 27.4246 71.17 27.368C71.1721 27.3033 71.1534 27.2397 71.1167 27.1865C71.0643 27.1043 71.0024 27.0556 70.9309 27.0413C70.8536 27.0271 70.7738 27.0431 70.708 27.0862C70.6032 27.1464 70.5385 27.2218 70.5156 27.3088C70.4914 27.4058 70.4817 27.506 70.487 27.6059C70.5023 27.8179 70.5251 28.0071 70.548 28.1733C70.5728 28.3405 70.5766 28.4981 70.5613 28.6471C70.5446 28.7988 70.4963 28.9453 70.4194 29.077C70.3403 29.2108 70.2032 29.3522 70.0088 29.5002C69.6993 29.7333 69.4011 29.8298 69.1143 29.7887C68.8276 29.7457 68.5657 29.5681 68.3323 29.2538C68.2164 29.1071 68.1262 28.9417 68.0655 28.7647C68.0175 28.6228 68.0003 28.4723 68.0151 28.3233C68.0288 28.1928 68.0718 28.067 68.1408 27.9555C68.2104 27.8456 68.297 27.7511 68.4018 27.6718L68.7419 27.4138L69.2629 28.1103ZM24.7055 58.1843C24.9312 58.0582 25.1399 57.9139 24.9932 57.6589C24.9046 57.5012 24.7836 57.4372 24.615 57.5318C24.4245 57.6407 24.4187 57.8031 24.4102 58.0028C24.4006 58.2129 24.3759 58.6036 24.3216 58.8052C24.2568 59.0546 24.1339 59.1921 23.9186 59.3153C23.4452 59.5857 23.0213 59.4109 22.7612 58.9523C22.4431 58.3916 22.6431 58.0123 23.0889 57.7582L23.2718 57.6531L23.5367 58.1212L23.3899 58.2043C23.1423 58.3333 23.007 58.5072 23.1375 58.7393C23.2499 58.9351 23.4062 58.9686 23.5948 58.8635C23.7434 58.7775 23.8043 58.6543 23.8196 58.4861C23.8701 58.1327 23.8348 57.7515 23.9768 57.42C24.0448 57.2774 24.1544 57.1588 24.2911 57.0799C24.7188 56.8382 25.0875 56.9443 25.3675 57.4391C25.7905 58.1843 25.2065 58.4919 24.9617 58.6352L24.7055 58.1843ZM23.7481 60.4627L26.1153 58.8291L26.9707 60.0739L26.625 60.3156L26.0724 59.5112L25.4761 59.922L25.9839 60.6633L25.6371 60.9031L25.1294 60.1608L24.3997 60.6661L24.9522 61.4686L24.6054 61.7074L23.7481 60.4627ZM26.2487 62.2128C26.0648 62.3666 25.78 62.6293 26.0143 62.9121C26.2591 63.2082 26.5659 62.9598 26.7783 62.7831L27.3451 62.3102C27.5213 62.1641 27.9214 61.8469 27.6671 61.5393C27.3975 61.2145 27.0336 61.5622 26.8621 61.7036L26.2487 62.2128ZM26.4182 61.3549C26.9965 60.9031 27.4528 60.5993 27.9995 61.2613C28.5492 61.9233 28.1653 62.3169 27.6166 62.8041L27.3023 63.0659C26.7116 63.556 26.2439 63.8702 25.6828 63.1901C25.1189 62.5108 25.5123 62.1068 26.102 61.6167L26.4182 61.3549ZM29.94 63.4585L30.322 63.8387L28.9121 65.266C28.4644 65.7197 28.1043 65.7895 27.6052 65.2937C27.1003 64.795 27.167 64.4348 27.6147 63.9801L29.0245 62.551L29.4075 62.9293L28.0291 64.324C27.8348 64.5218 27.6538 64.73 27.9138 64.9889C28.1605 65.2354 28.3691 65.051 28.5635 64.8552L29.94 63.4585ZM29.0531 66.5594L30.8859 64.3393L31.2974 64.6832L29.7352 66.5766L30.502 67.2138L30.2353 67.5386L29.0531 66.5594ZM32.0747 68.8694L33.5846 66.4181L34.0399 66.6999L33.4426 67.6714L34.0819 68.066L34.6791 67.0954L35.1364 67.3772L33.6265 69.8314L33.1693 69.5467L33.8599 68.4271L33.2216 68.0316L32.5301 69.1521L32.0747 68.8694ZM34.4962 70.3052L35.7803 67.7278L37.1311 68.4041L36.9434 68.7834L36.0737 68.3459L35.7479 68.9955L36.551 69.3986L36.3623 69.7769L35.5602 69.3747L35.1649 70.1695L36.0356 70.6052L35.846 70.9835L34.4962 70.3052ZM37.7703 69.9995L38.1646 70.1543C38.3323 70.2077 38.5028 70.1495 38.6067 69.881C38.7238 69.5801 38.619 69.4808 38.4314 69.4043L38.0599 69.2601L37.7703 69.9995ZM37.6178 70.3931L37.1682 71.5509L36.6681 71.3532L37.7131 68.6697L38.659 69.0423C39.0915 69.2085 39.3621 69.4874 39.1687 69.9823C39.0544 70.2746 38.8591 70.5536 38.5057 70.4695L38.5028 70.4762C38.7829 70.6319 38.8 70.8564 38.6981 71.1134C38.6552 71.2252 38.3847 71.8776 38.4752 72.0047L38.4561 72.0534L37.9055 71.8385C37.9122 71.6426 38.0513 71.3178 38.117 71.1382C38.1789 70.971 38.2694 70.7475 38.117 70.629C37.996 70.5383 37.8493 70.4838 37.7065 70.4284L37.6178 70.3931ZM40.1165 71.5375C40.0508 71.7668 39.9641 72.1461 40.3185 72.2445C40.689 72.3486 40.7976 71.9693 40.8729 71.7028L41.0729 70.9921C41.1348 70.7714 41.2834 70.2813 40.9005 70.1753C40.4947 70.0587 40.3918 70.5526 40.3318 70.7676L40.1165 71.5375ZM39.7688 70.7332C39.9888 70.031 40.1918 69.5218 41.0186 69.7578C41.8436 69.989 41.7521 70.5306 41.5749 71.2423L41.4644 71.6378C41.2577 72.3773 41.05 72.9027 40.2022 72.6629C39.3525 72.4241 39.4497 71.8681 39.6574 71.1277L39.7688 70.7332ZM42.0674 73.0603L42.5894 70.2259L44.0755 70.501L43.9983 70.9156L43.041 70.7379L42.9086 71.4535L43.7907 71.6178L43.7145 72.0324L42.8343 71.87L42.6723 72.7422L43.6297 72.9199L43.5535 73.3345L42.0674 73.0603ZM45.732 71.5719C45.7606 71.3178 45.7625 71.0618 45.4682 71.0331C45.29 71.0179 45.1681 71.078 45.149 71.272C45.1281 71.4898 45.2567 71.5891 45.4148 71.7114C45.5796 71.8385 45.8816 72.0849 46.0169 72.2445C46.1826 72.4422 46.2245 72.618 46.1997 72.8692C46.1474 73.4118 45.7616 73.6593 45.2395 73.6096C44.5984 73.5466 44.4041 73.1654 44.4537 72.6524L44.4746 72.4422L45.0081 72.4928L44.9919 72.6629C44.9538 72.9399 45.0185 73.153 45.2805 73.1768C45.5053 73.1988 45.6244 73.0909 45.6453 72.8721C45.6615 72.7049 45.5958 72.5817 45.4682 72.4737C45.211 72.2273 44.8795 72.0381 44.6889 71.7296C44.6137 71.5912 44.5806 71.4338 44.5937 71.2767C44.6413 70.7857 44.9423 70.5459 45.5063 70.6004C46.3569 70.6845 46.2703 71.3398 46.2464 71.6216L45.732 71.5719ZM49.0766 73.2399C49.189 73.2361 49.3033 73.2418 49.3976 73.196C49.5405 73.1262 49.5519 72.9371 49.5452 72.789C49.5338 72.4785 49.469 72.3496 49.1356 72.3639L48.927 72.3725L48.9613 73.2447L49.0766 73.2399ZM49.0099 71.9455C49.1404 71.9416 49.3081 71.9416 49.389 71.8308C49.4367 71.7563 49.4395 71.6541 49.4338 71.5156C49.4262 71.3006 49.3766 71.1965 49.1309 71.1994L48.8832 71.2089L48.9099 71.9493L49.0099 71.9455ZM48.4422 73.687L48.3288 70.8067L49.1938 70.7723C49.4252 70.7628 49.651 70.7695 49.8129 70.9596C49.9406 71.1134 49.9653 71.2767 49.9739 71.4726C49.9834 71.721 49.9406 71.9703 49.6529 72.0887V72.0974C49.9568 72.127 50.0825 72.3763 50.0968 72.7489C50.1006 72.8692 50.0997 72.9877 50.072 73.1023C49.972 73.473 49.7701 73.6344 49.3881 73.6507L48.4422 73.687ZM51.4933 72.3209L51.9496 72.2617L51.7019 71.4688C51.6581 71.3388 51.6286 71.2108 51.5962 71.079C51.5836 71.0157 51.5687 70.9529 51.5514 70.8908L51.5447 70.8927C51.5447 70.9538 51.5447 71.0198 51.5505 71.0857C51.5514 71.2194 51.5571 71.3513 51.5476 71.4888L51.4933 72.3209ZM50.8465 73.5685L51.158 70.6214L51.8753 70.5278L52.8917 73.3029L52.3202 73.3755L52.0868 72.6705L51.4638 72.7508L51.418 73.494L50.8465 73.5685ZM54.2968 70.9586C54.2453 70.7064 54.1663 70.4647 53.8786 70.5278C53.7033 70.567 53.6071 70.6634 53.65 70.8545C53.6967 71.0685 53.85 71.122 54.0377 71.1898C54.233 71.2595 54.5997 71.4 54.7769 71.5089C54.995 71.6455 55.0893 71.8022 55.1427 72.0458C55.2608 72.5788 54.9712 72.9342 54.4587 73.0488C53.8291 73.1893 53.5271 72.8864 53.4156 72.3839L53.3699 72.1757L53.8938 72.061L53.9301 72.2263C53.9805 72.5014 54.1063 72.681 54.3644 72.6247C54.5854 72.575 54.6635 72.4365 54.6168 72.2206C54.5816 72.0582 54.4806 71.9598 54.3254 71.8967C54.0034 71.7439 53.63 71.6675 53.3528 71.4325C53.2388 71.324 53.159 71.1846 53.1232 71.0312C53.0184 70.5517 53.228 70.2288 53.7805 70.1046C54.615 69.9183 54.7359 70.5689 54.8017 70.8449L54.2968 70.9586ZM56.1877 72.5416L55.3208 69.7931L56.7573 69.3365L56.8859 69.7406L55.9581 70.0358L56.1763 70.7274L57.0317 70.4542L57.1593 70.8593L56.3039 71.1306L56.5706 71.977L57.5004 71.6818L57.627 72.0849L56.1877 72.5416ZM58.9111 71.1373C59.0131 71.0933 59.1236 71.0608 59.195 70.9844C59.3046 70.8688 59.2503 70.6854 59.195 70.5526C59.0759 70.2641 58.9692 70.1686 58.6616 70.2956L58.4691 70.3749L58.8044 71.1803L58.9111 71.1373ZM58.4015 69.946C58.5215 69.8973 58.6797 69.8409 58.7159 69.7072C58.7349 69.6212 58.7044 69.5247 58.6511 69.3967C58.5692 69.1961 58.4853 69.1168 58.2558 69.2037L58.0262 69.3012L58.3091 69.9852L58.4015 69.946ZM58.4691 71.7783L57.3679 69.1168L58.1681 68.7834C58.3805 68.6936 58.5958 68.621 58.8121 68.7442C58.9836 68.8436 59.0655 68.9878 59.1417 69.1674C59.2369 69.3986 59.2817 69.6479 59.054 69.8572L59.0569 69.8638C59.3531 69.7874 59.5542 69.9785 59.6989 70.3214C59.7447 70.4313 59.7827 70.5459 59.798 70.6615C59.8323 71.0446 59.6999 71.2662 59.3455 71.4153L58.4691 71.7783ZM60.8544 69.4368L61.2612 69.2209L60.7525 68.5665C60.6668 68.4595 60.5972 68.3468 60.5201 68.237C60.4867 68.1815 60.4486 68.1261 60.4153 68.0765L60.4077 68.0793C60.4286 68.1367 60.4534 68.1987 60.4791 68.258C60.5277 68.3841 60.5791 68.5064 60.6182 68.6363L60.8544 69.4368ZM60.681 70.8306L59.9514 67.959L60.5925 67.6208L62.5043 69.8696L61.9956 70.1352L61.5317 69.5562L60.9754 69.8514L61.1878 70.5622L60.681 70.8306ZM63.1759 69.4588L61.6213 67.0352L62.0728 66.7429L63.3969 68.814L64.2361 68.2742L64.4648 68.6296L63.1759 69.4588ZM65.1697 68.1261L63.4245 65.8372L63.8503 65.5096L65.3392 67.466L66.1318 66.8575L66.3861 67.1928L65.1697 68.1261ZM68.5638 63.7642C68.5981 63.8062 68.638 63.8483 68.6714 63.8884C69.0248 64.2782 69.1858 64.6909 68.7638 65.1131C68.1399 65.7407 67.7036 65.3854 67.1625 64.8418L66.871 64.5514C66.369 64.0164 66.0242 63.5903 66.629 62.9809C66.9748 62.6446 67.3378 62.6293 67.7121 62.9493C67.7701 62.9941 67.8246 63.0433 67.875 63.0964L67.5006 63.4719C67.3549 63.3573 67.1244 63.0993 66.9367 63.2885C66.6395 63.5875 67.0196 63.919 67.1749 64.0756L67.7407 64.6402C67.9074 64.8074 68.197 65.0682 68.4571 64.8064C68.6657 64.5963 68.3047 64.2868 68.1818 64.1473L68.5638 63.7642ZM69.8983 63.8101L67.6969 61.9568L68.0417 61.5431L69.9202 63.1251L70.5604 62.3609L70.8843 62.6331L69.8983 63.8101ZM69.7955 59.2284L70.1031 58.788L71.7473 59.9392C72.2684 60.3041 72.3989 60.6461 71.9978 61.226C71.593 61.8077 71.2262 61.8058 70.7042 61.44L69.0581 60.2898L69.3658 59.8484L70.9729 60.9718C71.1986 61.1295 71.4368 61.2728 71.6454 60.9728C71.8454 60.6862 71.6292 60.5143 71.4025 60.3528L69.7955 59.2284ZM72.9428 58.81C72.999 58.7125 73.0638 58.6189 73.0771 58.5138C73.0905 58.3543 72.9371 58.2435 72.8104 58.1728C72.5389 58.019 72.396 58.0104 72.2322 58.2989L72.1312 58.4804L72.8885 58.9103L72.9428 58.81ZM71.8121 58.1843C71.8778 58.0715 71.9664 57.9292 71.914 57.8021C71.875 57.7209 71.7921 57.6674 71.673 57.5987C71.4863 57.4926 71.3691 57.4773 71.2434 57.6913L71.1196 57.9072L71.7635 58.2731L71.8121 58.1843ZM72.9904 59.5867L70.4889 58.169L70.9157 57.4124C71.0281 57.2118 71.1538 57.0207 71.3987 56.9854C71.5968 56.9548 71.7492 57.0198 71.9178 57.1143C72.1369 57.2385 72.3227 57.4057 72.2713 57.7133L72.2789 57.7171C72.4637 57.4726 72.7409 57.4984 73.0638 57.6818C73.1686 57.741 73.2686 57.806 73.3524 57.89C73.6125 58.169 73.6458 58.4269 73.4553 58.7613L72.9904 59.5867Z" fill="white"/>
<path d="M48.0937 68.178C35.0813 68.178 24.5332 57.5989 24.5332 44.5495C24.5332 31.5 35.0813 20.9219 48.0937 20.9219C61.1061 20.9219 71.656 31.5009 71.656 44.5495C71.656 57.5989 61.107 68.178 48.0937 68.178Z" fill="#570514"/>
<path d="M56.6488 65.2487C45.2425 69.9851 32.1681 64.5552 27.4433 53.1163C22.7203 41.6803 28.1358 28.5669 39.5403 23.8295C50.9447 19.094 64.0219 24.523 68.7429 35.96C73.4678 47.3988 68.0532 60.5113 56.6488 65.2487Z" fill="white"/>
<path d="M28.8836 35.0193C28.935 34.8301 29.0855 34.6534 29.217 34.6209C29.3103 34.598 29.3694 34.6543 29.3799 34.7546C29.3819 34.8073 29.3768 34.86 29.3646 34.9113C29.2122 35.4434 28.9017 37.12 28.9017 37.12C28.9017 37.12 28.012 38.0552 27.5909 38.4794C27.4814 38.5883 27.3632 38.5539 27.328 38.4039C27.3144 38.3187 27.3198 38.2316 27.3437 38.1487C27.3675 38.0658 27.4094 37.9892 27.4661 37.9244C27.7986 37.5852 28.1368 37.2375 28.4854 36.8621C28.5807 36.2382 28.714 35.6221 28.8836 35.0193ZM29.7314 35.4129C29.7647 35.2151 29.9209 35.0126 30.0753 34.961C30.1991 34.9209 30.2849 34.9811 30.3039 35.1014C30.3087 35.1428 30.3074 35.1846 30.3001 35.2256C30.2001 35.7921 30.0772 37.5327 30.0772 37.5327C30.0772 37.5327 29.1189 38.6513 28.6578 39.1529C28.5359 39.2847 28.3854 39.2713 28.3244 39.1204C28.2625 38.9676 28.3092 38.7383 28.4311 38.6045C28.7883 38.209 29.1551 37.783 29.5314 37.3407C29.5533 36.6939 29.619 36.0539 29.7314 35.4129ZM30.9297 35.7147C30.9401 35.6093 30.9769 35.5082 31.0367 35.4209C31.0965 35.3335 31.1774 35.2627 31.2717 35.2151C31.428 35.1521 31.5499 35.2113 31.5766 35.3527C31.5825 35.3809 31.5851 35.4098 31.5842 35.4386C31.5566 36.0023 31.6613 37.762 31.6613 37.762C31.6613 37.762 30.664 39.0402 30.1753 39.641C30.0486 39.7996 29.8657 39.813 29.7657 39.6716C29.6714 39.5312 29.6952 39.2885 29.8228 39.129C30.2086 38.6466 30.5906 38.167 30.9755 37.6616C30.9141 37.0146 30.8992 36.3639 30.9307 35.7147M32.4101 35.816C32.3939 35.6173 32.5406 35.3737 32.7406 35.2743C32.9254 35.1826 33.0912 35.2428 33.1312 35.4081L33.1417 35.4558C33.1931 36.0252 33.5646 37.76 33.5646 37.76C33.5646 37.76 32.5568 39.2092 32.0471 39.8885C31.9147 40.07 31.6966 40.1082 31.5651 39.9783C31.4356 39.8493 31.4384 39.5961 31.569 39.4165C31.9595 38.8854 32.352 38.3246 32.7416 37.7562C32.5796 37.1123 32.4672 36.4666 32.4091 35.816M34.239 35.9832C34.2124 35.8943 34.188 35.8048 34.1657 35.7147C34.1133 35.5237 34.2476 35.2629 34.4667 35.1406C34.6858 35.0097 34.9087 35.067 34.9602 35.26C34.984 35.3498 35.0087 35.4367 35.0354 35.5218C35.1716 35.9803 35.788 37.482 35.788 37.482C35.788 37.482 34.803 39.0774 34.2991 39.855C34.1657 40.0604 33.918 40.1349 33.7418 40.026C33.5713 39.9152 33.5389 39.6601 33.6694 39.4519C34.0645 38.8383 34.4516 38.2195 34.8306 37.5957C34.5925 37.0608 34.3962 36.5191 34.2381 35.9832M37.2111 37.1563C36.811 36.5736 36.4643 35.9794 36.1814 35.3737C36.0928 35.1874 36.2128 34.9209 36.4405 34.7718C36.6777 34.6257 36.9358 34.6505 37.0263 34.8349C37.2788 35.3594 38.2828 36.9337 38.2828 36.9337C38.2828 36.9337 37.3845 38.658 36.8939 39.5006C36.7625 39.7261 36.4843 39.834 36.2728 39.7423C36.0633 39.6506 35.9966 39.3936 36.1261 39.1672C36.5043 38.5109 36.8653 37.8326 37.2121 37.1563M39.8308 36.4408C39.3244 35.9286 38.8534 35.3825 38.4209 34.8062C38.2961 34.6371 38.3828 34.3611 38.6191 34.1929C38.8572 34.0229 39.1544 34.021 39.2821 34.191C39.6441 34.6668 40.9777 36.1026 40.9777 36.1026C40.9777 36.1026 40.2175 37.9014 39.786 38.809C39.666 39.0545 39.3726 39.1987 39.124 39.1338C38.8763 39.0698 38.7696 38.8214 38.881 38.5797C39.2211 37.8565 39.5383 37.1477 39.8308 36.4408ZM41.8493 37.6578C42.1256 36.9136 42.3732 36.1828 42.5866 35.4606C41.9708 35.0117 41.3805 34.5285 40.8186 34.0133C40.6548 33.8595 40.7072 33.5854 40.9386 33.3991C41.1673 33.2118 41.494 33.1832 41.6588 33.336C42.1275 33.7564 43.7564 34.7938 43.7564 34.7938C43.7564 34.7938 43.2077 36.8611 42.8553 37.7973C42.76 38.0514 42.458 38.2234 42.1798 38.1871C41.9055 38.1489 41.755 37.9119 41.8493 37.6578ZM45.3053 36.949C45.0129 36.9337 44.8281 36.7149 44.8957 36.458C45.0838 35.736 45.2386 35.0057 45.3596 34.2694C44.648 33.8859 43.9541 33.4702 43.2801 33.0236C43.0829 32.8899 43.0953 32.6243 43.3144 32.4313C43.5325 32.2365 43.8669 32.183 44.065 32.3158C44.6309 32.6864 46.496 33.5901 46.496 33.5901C46.496 33.5901 46.2112 35.5772 45.9645 36.5124C45.894 36.7684 45.6025 36.9614 45.3053 36.949ZM47.8735 35.0546C47.9566 34.3467 48.0056 33.6351 48.0202 32.9224C47.2396 32.6046 46.4684 32.2643 45.7073 31.9021C45.4806 31.7913 45.4473 31.5391 45.6349 31.3394C45.8207 31.1398 46.1598 31.0662 46.3884 31.1742C47.0171 31.4693 49.0642 32.2412 49.0642 32.2412C49.0642 32.2412 49.0547 34.0888 48.9566 35.0097C48.928 35.26 48.6632 35.4721 48.366 35.4845C48.0678 35.4988 47.8459 35.3049 47.8735 35.0546ZM50.6217 33.4755C50.6036 32.7867 50.5312 32.1161 50.4264 31.4751C49.6005 31.2266 48.781 30.9571 47.9687 30.6669C47.7182 30.579 47.6449 30.3459 47.8021 30.1472C47.9583 29.9523 48.2812 29.8644 48.5279 29.9523C49.21 30.1959 51.3543 30.8264 51.3543 30.8264C51.3543 30.8264 51.6372 32.5125 51.6648 33.3771C51.6686 33.615 51.4438 33.828 51.1552 33.8547C50.8665 33.8844 50.6274 33.7134 50.6217 33.4755ZM53.0175 31.84C52.8875 31.2157 52.7144 30.6012 52.4993 30.001C51.6524 29.8062 50.8151 29.6046 49.9968 29.3944C49.7387 29.3256 49.6158 29.1174 49.7349 28.9263C49.8463 28.7381 50.1473 28.6369 50.4017 28.7056C51.1009 28.8833 53.2814 29.3954 53.2814 29.3954C53.2814 29.3954 53.8053 30.8809 53.9796 31.6824C54.0282 31.9021 53.8529 32.1151 53.5891 32.16C53.3223 32.2021 53.0651 32.0616 53.0175 31.84ZM54.9722 30.1883C54.7487 29.6171 54.4805 29.0645 54.1701 28.5356C53.3528 28.4057 52.5317 28.2633 51.7067 28.1105C51.4438 28.0627 51.2914 27.8764 51.3647 27.6959C51.439 27.5192 51.7048 27.4131 51.9611 27.4647C52.666 27.5975 54.7998 27.972 54.7998 27.972C54.7998 27.972 55.2018 28.6464 55.3818 29.0037C55.5457 29.3256 55.6962 29.66 55.8305 30.0039C55.9115 30.1997 55.7829 30.4042 55.5476 30.4548C55.3113 30.5064 55.0522 30.3908 54.9722 30.1883ZM56.4763 28.5967C56.1638 28.0864 55.8168 27.5981 55.438 27.1351C54.6521 27.0502 53.8668 26.9594 53.0823 26.8629C52.8289 26.8294 52.645 26.6718 52.6765 26.5056C52.705 26.3432 52.9337 26.2381 53.1832 26.2668C53.8605 26.3527 55.8962 26.5963 55.8962 26.5963C55.8962 26.5963 56.8145 27.7427 57.2108 28.3847C57.2175 28.3923 57.2203 28.399 57.2241 28.4085C57.3118 28.5767 57.2337 28.7505 57.0431 28.8079C56.9386 28.8355 56.8281 28.8301 56.7268 28.7923C56.6255 28.7545 56.5384 28.6862 56.4773 28.5967M57.5175 27.0788C57.1479 26.6298 56.7364 26.2066 56.3058 25.812C55.5914 25.7738 54.856 25.726 54.0977 25.6716C53.8577 25.6544 53.6548 25.5168 53.65 25.3659C53.6405 25.2169 53.831 25.1108 54.0692 25.1318C54.7169 25.1796 56.6126 25.3134 56.6126 25.3134C56.6126 25.3134 57.67 26.304 58.1348 26.8638C58.1489 26.8797 58.1613 26.897 58.172 26.9154C58.2529 27.0539 58.2101 27.1982 58.0615 27.2507C57.8881 27.308 57.6481 27.2354 57.5185 27.0788M58.1586 25.6783C57.7204 25.2818 57.2784 24.9236 56.8117 24.5902C56.1601 24.5835 55.4819 24.572 54.7922 24.5577C54.5636 24.5548 54.3463 24.4402 54.3044 24.3045C54.2654 24.1718 54.413 24.0705 54.6378 24.0743C55.2294 24.0887 56.9727 24.1269 56.9727 24.1269C56.9727 24.1269 58.1205 24.9675 58.653 25.4528C58.6788 25.4766 58.7018 25.5032 58.7216 25.5321C58.794 25.641 58.7816 25.7528 58.6721 25.8053C58.534 25.8684 58.3044 25.8111 58.1577 25.6773M67.3054 54.0604C67.253 54.2486 67.1035 54.4263 66.971 54.4597C66.8786 54.4808 66.8196 54.4254 66.8091 54.3251C66.8074 54.2723 66.8128 54.2196 66.8253 54.1684C66.9758 53.6382 67.2873 51.9578 67.2873 51.9578C67.2873 51.9578 68.177 51.0235 68.5981 50.6013C68.7057 50.4885 68.8257 50.5248 68.861 50.6777C68.8747 50.7623 68.8694 50.8489 68.8456 50.9312C68.8217 51.0135 68.7797 51.0894 68.7229 51.1534C68.3895 51.4945 68.0523 51.8422 67.7017 52.2176C67.6064 52.8386 67.4731 53.4576 67.3054 54.0604ZM66.4576 53.6669C66.4243 53.8627 66.268 54.0671 66.1118 54.1168C65.9899 54.1579 65.9032 54.0986 65.8832 53.9792C65.8795 53.9368 65.8814 53.8941 65.8889 53.8522C65.987 53.2866 66.1099 51.5461 66.1099 51.5461C66.1099 51.5461 67.0701 50.4274 67.5302 49.9259C67.6541 49.7921 67.8027 49.8084 67.8636 49.9593C67.9246 50.1112 67.8798 50.3414 67.756 50.4752C67.4007 50.8697 67.033 51.2967 66.6577 51.7381C66.6362 52.3849 66.5693 53.0294 66.4576 53.6669ZM65.2592 53.365C65.2487 53.4704 65.2118 53.5714 65.152 53.6587C65.0923 53.746 65.0115 53.8168 64.9173 53.8646C64.7611 53.9277 64.6391 53.8684 64.6124 53.7261C64.6048 53.6993 64.6039 53.6707 64.6048 53.6391C64.6334 53.0755 64.5277 51.3158 64.5277 51.3158C64.5277 51.3158 65.525 50.0386 66.0137 49.4387C66.1414 49.2791 66.3223 49.2667 66.4233 49.4081C66.5167 49.5476 66.4938 49.7902 66.3662 49.9488C65.9753 50.4337 65.5904 50.9235 65.2116 51.4181C65.2754 52.0696 65.2888 52.7268 65.2592 53.365ZM63.7789 53.2628C63.7942 53.4634 63.6484 53.7051 63.4474 53.8054C63.2636 53.8971 63.0969 53.835 63.0569 53.6735L63.0473 53.6239C62.9949 53.0535 62.6225 51.3187 62.6225 51.3187C62.6225 51.3187 63.6322 49.8685 64.1399 49.1893C64.2733 49.0078 64.4924 48.9696 64.622 49.1014C64.7534 49.2304 64.7496 49.4817 64.6182 49.6632C64.2295 50.1943 63.837 50.7532 63.4465 51.3225C63.6084 51.9664 63.7218 52.6122 63.7799 53.2618M61.9499 53.0956C61.9766 53.1854 62.0004 53.2742 62.0233 53.365C62.0738 53.556 61.9414 53.8168 61.7223 53.9391C61.5022 54.0671 61.2803 54.0117 61.2288 53.8178C61.2041 53.7318 61.1802 53.643 61.1536 53.556C61.0164 53.0994 60.401 51.5957 60.401 51.5957C60.401 51.5957 61.3851 50.0023 61.8899 49.2247C62.0233 49.0202 62.27 48.9438 62.4472 49.0537C62.6167 49.1635 62.6491 49.4196 62.5177 49.6269C62.1214 50.2478 61.7366 50.8563 61.3574 51.483C61.5956 52.0161 61.7928 52.5597 61.9509 53.0956M58.976 51.9234C59.378 52.5061 59.7247 53.0994 60.0067 53.706C60.0943 53.8904 59.9752 54.1579 59.7466 54.3079C59.5104 54.455 59.2512 54.4263 59.1627 54.2439C58.9093 53.7194 57.9081 52.145 57.9081 52.145C57.9081 52.145 58.8035 50.4217 59.2951 49.5781C59.4265 49.3527 59.7037 49.2438 59.9162 49.3374C60.1257 49.4282 60.1924 49.6861 60.0629 49.9106C59.6856 50.5731 59.3226 51.2443 58.976 51.9234ZM56.3601 52.637C56.8645 53.1508 57.3348 53.6972 57.7681 54.2725C57.8919 54.4426 57.8062 54.7158 57.569 54.8858C57.3308 55.0578 57.0355 55.0597 56.9069 54.8887C56.545 54.412 55.2113 52.9771 55.2113 52.9771C55.2113 52.9771 55.9705 51.1802 56.403 50.2679C56.5211 50.0243 56.8164 49.8791 57.0651 49.9431C57.3127 50.008 57.4175 50.2583 57.306 50.4991C56.9669 51.2222 56.6516 51.932 56.3601 52.637ZM54.3387 51.42C54.0625 52.1661 53.8158 52.8969 53.6005 53.6181C54.2425 54.0843 54.8389 54.5782 55.3704 55.0664C55.5323 55.2192 55.4828 55.4915 55.2504 55.6778C55.0217 55.8669 54.696 55.8956 54.5283 55.7427C54.0606 55.3224 52.4326 54.2868 52.4326 54.2868C52.4326 54.2868 52.9794 52.2186 53.3328 51.2814C53.4281 51.0264 53.7291 50.8544 54.0091 50.8926C54.2816 50.9328 54.433 51.1668 54.3387 51.42ZM50.8818 52.1326C51.1761 52.145 51.3609 52.3648 51.2914 52.6198C51.1039 53.3426 50.9494 54.0735 50.8284 54.8104C51.5657 55.2135 52.2554 55.6138 52.908 56.0551C53.1061 56.1879 53.0937 56.4535 52.8737 56.6484C52.6565 56.8423 52.3212 56.8939 52.123 56.763C51.5572 56.3923 49.693 55.4905 49.693 55.4905C49.693 55.4905 49.9759 53.5025 50.2245 52.5663C50.295 52.3113 50.5865 52.1183 50.8818 52.1326ZM48.3145 54.0241C48.231 54.732 48.1824 55.4437 48.1688 56.1564C48.9776 56.4831 49.7558 56.8346 50.4817 57.1786C50.7074 57.2875 50.7399 57.5368 50.5541 57.7403C50.3683 57.939 50.0292 58.0135 49.7987 57.9055C49.1719 57.6084 47.1238 56.8385 47.1238 56.8385C47.1238 56.8385 47.1343 54.9909 47.2343 54.0681C47.2619 53.8207 47.5239 53.6076 47.8221 53.5962C48.1231 53.5799 48.3431 53.7729 48.3145 54.0241ZM45.5673 55.6042C45.5863 56.292 45.6559 56.9636 45.7616 57.6008C46.6018 57.8568 47.422 58.1262 48.2193 58.4109C48.4689 58.4997 48.5441 58.7357 48.3879 58.9296C48.2307 59.1283 47.9078 59.2162 47.6611 59.1283C46.979 58.8838 44.8357 58.2533 44.8357 58.2533C44.8357 58.2533 44.5518 56.5672 44.5232 55.7007C44.5194 55.4638 44.7452 55.2507 45.0329 55.2211C45.3215 55.1953 45.5625 55.3644 45.5673 55.6042ZM43.1696 57.2387C43.3087 57.8903 43.4783 58.4978 43.6897 59.0787C44.5347 59.2745 45.3729 59.4751 46.1922 59.6843C46.4503 59.7531 46.5732 59.9614 46.4541 60.1524C46.3417 60.3416 46.0436 60.4409 45.7864 60.3741C45.0862 60.1954 42.9057 59.6843 42.9057 59.6843C42.9057 59.6843 42.3837 58.1998 42.2094 57.3973C42.1589 57.1776 42.3351 56.9646 42.6 56.9206C42.8667 56.8767 43.1239 57.0171 43.1696 57.2387ZM41.2149 58.8914C41.4396 59.4615 41.7078 60.0134 42.017 60.5422C42.8352 60.674 43.6573 60.8154 44.4823 60.9692C44.7442 61.017 44.8957 61.2023 44.8242 61.3838C44.7499 61.5586 44.4842 61.6656 44.227 61.614C43.2817 61.4426 42.3361 61.2732 41.3902 61.1058C41.3902 61.1058 40.9872 60.4333 40.8072 60.075C40.6433 59.7531 40.4928 59.4187 40.3566 59.0758C40.2775 58.879 40.4052 58.6746 40.6405 58.623C40.8786 58.5733 41.1358 58.6898 41.2149 58.8914ZM39.7126 60.482C40.0356 61.0065 40.3766 61.487 40.751 61.9446C41.5366 62.0285 42.3216 62.1189 43.1058 62.2159C43.3592 62.2474 43.543 62.4069 43.5125 62.5722C43.484 62.7375 43.2553 62.8435 43.0048 62.8139C42.3285 62.727 40.2909 62.4834 40.2909 62.4834C40.2909 62.4834 39.3735 61.337 38.9763 60.6941C38.9705 60.6872 38.9666 60.679 38.9649 60.6702C38.8772 60.503 38.9534 60.3282 39.144 60.2699C39.249 60.2426 39.3599 60.2483 39.4616 60.2862C39.5633 60.3241 39.6509 60.3925 39.7126 60.482ZM38.6715 62C39.0411 62.449 39.4526 62.8731 39.8813 63.2667C40.5966 63.3059 41.3321 63.3527 42.0913 63.4072C42.3323 63.4244 42.5342 63.561 42.5409 63.7129C42.5475 63.8628 42.357 63.9679 42.1217 63.9479C41.4711 63.8982 39.5755 63.7654 39.5755 63.7654C39.5755 63.7654 38.5181 62.7738 38.0542 62.2149C38.0399 62.1989 38.0272 62.1817 38.0161 62.1633C37.9351 62.0267 37.978 61.8815 38.1275 61.8271C38.3009 61.7707 38.541 61.8462 38.6705 62M38.0304 63.4024C38.4686 63.7979 38.9106 64.1571 39.3764 64.4866C40.027 64.4943 40.7071 64.5058 41.3959 64.522C41.6245 64.5249 41.8417 64.6395 41.8836 64.7752C41.9226 64.907 41.776 65.0092 41.5531 65.0044C40.9596 64.9891 39.2163 64.9519 39.2163 64.9519C39.2163 64.9519 38.0685 64.1112 37.536 63.6259C37.511 63.6022 37.4877 63.5766 37.4664 63.5495C37.394 63.4377 37.4093 63.326 37.5169 63.2744C37.6541 63.2123 37.8846 63.2677 38.0313 63.4024" fill="#7D0521"/>
<path d="M83.1355 33.3886L83.0764 33.3934L80.2282 36.5622L79.7405 33.6991L72.6217 34.3564L72.2388 35.1512C71.6482 34.7929 70.9261 34.6048 70.1364 34.6048C69.9792 34.6048 69.8192 34.6143 69.662 34.6267L65.1801 35.0394C63.736 35.1732 62.1061 35.9183 60.7905 37.0379C60.0551 36.1055 58.7872 35.6279 57.3564 35.7607L52.8736 36.1724L27.9137 38.4718L30.6905 35.3862L18.184 36.5402L17.4581 38.0419L10.2927 38.7011L7.08912 45.3061L8.57519 45.1704L3.33594 55.9377L11.4558 55.1926L13.1019 51.8089L15.0852 57.6802L22.7107 56.978L21.7876 54.2411L24.6073 53.9822L28.1347 46.7333L27.7899 53.687L34.3123 53.0871L34.3818 53.0804L35.4049 51.5653L35.3354 52.9906L41.8549 52.3907L41.9244 52.3849L43.4972 50.0559C43.5448 50.1533 43.5963 50.2469 43.6525 50.3377C44.3583 51.4697 45.6557 52.0381 47.279 51.8901L51.7295 51.4831C53.1888 51.3475 54.8302 50.5994 56.1467 49.4741C56.803 50.3205 57.8404 50.7829 59.094 50.7829C59.2521 50.7829 59.4169 50.7752 59.5845 50.759L64.0351 50.3501C64.9219 50.268 65.8545 49.9756 66.7547 49.5037L66.4518 50.1285L74.5707 49.3805L75.0185 48.4643L75.4995 51.2949L77.4599 49.1168L84.6901 48.4481L92.4366 32.5317L83.1355 33.3886Z" fill="#570514"/>
<path d="M16.7436 41.6531L17.6886 41.5652L15.7129 43.7605L16.7436 41.6531ZM19.5357 50.5919L18.3926 47.2063L24.473 40.4475L19.5357 50.5919ZM54.3129 41.0188L51.9219 45.9338L50.3215 46.0819L52.7125 41.1659L54.3129 41.0188ZM66.6185 39.8867L64.2256 44.8037L62.6271 44.9499L65.0172 40.0338L66.6185 39.8867ZM83.6394 34.1243L83.5822 34.131L79.5556 38.6057L78.8679 34.5628L73.3095 35.0758L72.5236 36.7037C72.4867 36.6206 72.4437 36.5405 72.395 36.4639C71.9615 35.7665 71.1633 35.3825 70.1497 35.3825C70.024 35.3825 69.8897 35.3892 69.7573 35.4016L65.2753 35.8143C63.5587 35.9709 61.625 37.1183 60.42 38.6525C60.3998 38.2781 60.2861 37.9148 60.0894 37.5959C59.656 36.8985 58.8577 36.5164 57.8413 36.5164C57.7155 36.5164 57.5841 36.5231 57.4517 36.5336L52.9688 36.9482C52.1019 37.0275 51.1341 37.3762 50.231 37.9264L50.755 37.1507L44.9146 37.6895L42.0635 41.912L42.2616 37.9312L37.3701 38.384L34.5199 42.6036L34.7171 38.6267L25.3303 39.4941L28.1061 36.4094L18.8717 37.2616L18.143 38.7614L10.9766 39.4205L8.84854 43.8121L10.3394 43.6764L5.1001 54.4427L10.7699 53.9211L13.2771 48.7673L15.8129 56.2798L21.2865 55.7744L20.3616 53.0375L23.9204 52.7117L28.4519 43.4023L29.3417 43.3182L28.8997 52.2503L33.7893 51.8004L36.6375 47.5827L36.4432 51.5539L41.3319 51.1049L45.3709 45.1237L44.6203 46.6684C44.0992 47.7403 44.0716 48.7472 44.544 49.5048C44.9784 50.2012 45.7758 50.5862 46.7865 50.5862C46.9151 50.5862 47.0475 50.5785 47.1818 50.5671L51.6333 50.1572C53.3736 49.9977 55.3217 48.8446 56.5201 47.3009C56.542 47.6954 56.6534 48.0556 56.8506 48.3727C57.3393 49.1561 58.2871 49.5449 59.4883 49.435L63.9379 49.0252C66.0812 48.8274 68.5208 47.1088 69.4915 45.1113L72.2874 39.3661L72.7446 39.3241L68.215 48.6316L73.8848 48.1119L75.5042 44.7894L76.1701 48.6985L79.8242 44.6384L78.3344 47.7021L84.0042 47.1795L90.6714 33.4795L83.6394 34.1243Z" fill="#EB008A"/>
<path d="M26.3858 37.273L19.328 37.9245L17.9163 40.8392L19.408 40.7035L13.5077 47.2607L16.2997 55.5289L20.3387 55.1564L17.5972 47.041L26.3858 37.273ZM83.9185 34.8045L79.1089 40.1514L78.2877 35.3213L73.7667 35.7378L72.3617 38.6544L73.9201 38.5063L69.3896 47.8196L73.4286 47.447L75.831 42.5243L76.6178 47.1528L82.6335 40.4685L79.509 46.8882L83.5479 46.5156L89.4969 34.2915L83.9185 34.8045Z" fill="white"/>
<path d="M25.3752 40.1939L19.4263 52.419L23.4643 52.0474L29.4142 39.8214L25.3752 40.1939ZM11.434 40.085L10.0213 42.9987L11.514 42.864L6.27478 53.6284L10.3128 53.2587L16.9714 39.5749L11.434 40.085ZM52.3783 46.5973L49.1471 46.8944L52.2564 40.5025L55.4866 40.2063L52.3783 46.5973ZM57.5166 37.2334L53.0337 37.6452C51.2457 37.8104 49.1719 39.2281 48.2174 40.8741L45.2491 46.9766C44.388 48.7468 45.2253 50.0431 47.1171 49.8674L51.5686 49.4575C53.4633 49.2827 55.6962 47.7074 56.5573 45.9363L59.3846 40.1242C60.2467 38.3521 59.4103 37.0596 57.5166 37.2334ZM64.6829 45.4644L61.4508 45.7624L64.562 39.3714L67.7922 39.0734L64.6829 45.4644ZM69.8222 36.0995L65.3393 36.5131C63.5522 36.6774 61.4765 38.0942 60.523 39.7421L57.5547 45.8465C56.6936 47.6147 57.5309 48.9073 59.4237 48.7353L63.8742 48.3255C65.767 48.1507 68.0008 46.5744 68.862 44.8042L71.6902 38.9912C72.5523 37.2201 71.7159 35.9266 69.8222 36.0995ZM45.3082 38.3569L41.2406 44.382L41.5226 38.7056L37.7646 39.0514L33.697 45.0755L33.9781 39.401L29.9295 39.7765L28.5159 42.6911L30.082 42.5449L29.6399 51.4761L33.3951 51.1312L37.4598 45.1109L37.1835 50.7835L40.9396 50.4358L49.3462 37.9853L45.3082 38.3569Z" fill="white"/>
<path d="M11.5141 42.8644L14.2433 41.2203L10.7282 41.5423L10.0214 43.0001L11.5141 42.8644ZM19.4082 40.7035L22.9909 38.9868L18.6223 39.3823L17.9165 40.8392L19.4082 40.7035Z" fill="#D1D1D1"/>
<path d="M26.3859 37.273L22.9908 38.9868L15.5778 47.2273L18.3212 55.3445L16.2998 55.5289L20.3388 55.1564L17.5972 47.041L26.3859 37.273ZM75.331 39.5954L72.1179 46.1774L69.3897 47.8196L73.4287 47.447L75.8311 42.5243L75.331 39.5954ZM77.3848 42.0687L79.109 40.1514L78.2878 35.3213L76.4617 36.653L77.3848 42.0687ZM86.7678 35.9356L82.2382 45.246L79.51 46.8891L83.5471 46.5166L89.497 34.2915L86.7678 35.9356ZM84.814 35.9862L77.8315 43.7414L76.6179 47.1528L82.6336 40.4685L84.814 35.9862Z" fill="#D1D1D1"/>
<path d="M26.6774 41.4848L22.1526 50.7809L19.4272 52.4192L23.4652 52.0476L29.4151 39.8216L26.6774 41.4848ZM14.2432 41.2201L9.00395 51.9826L6.27478 53.6286L10.3128 53.2589L16.9714 39.5751L14.2432 41.2201ZM39.0706 47.5949L41.2406 44.3822L41.5226 38.7058L39.4316 40.2945L39.0706 47.5949ZM37.6065 42.0876L32.3758 49.8351L29.6399 51.4763L33.3951 51.1315L37.4598 45.1111L37.6065 42.0876ZM46.3227 39.6582L39.9194 49.1425L37.1826 50.7828L40.9396 50.436L49.3462 37.9855L46.3227 39.6582ZM30.082 42.5452L31.89 40.988L29.2237 41.2316L28.5159 42.6913L30.082 42.5452ZM73.9202 38.5061L76.4617 36.6528L73.161 36.9576L72.3541 38.6542L73.9202 38.5061Z" fill="#D1D1D1"/>
<path d="M31.526 48.2895L33.6979 45.0758L33.978 39.4013L31.8899 40.9881L31.526 48.2895ZM52.9641 39.0478L50.2358 40.6881L46.415 48.5436L49.147 46.8966L52.2563 40.5028L55.4865 40.2066L58.2148 38.5645L52.9641 39.0478Z" fill="#D1D1D1"/>
<path d="M59.4093 37.8462L58.2147 38.5646L54.391 46.423L51.679 48.0604L46.415 48.5437L45.229 49.2602C45.5891 49.7121 46.2387 49.949 47.117 49.8678L51.5685 49.458C51.6609 49.4503 51.7562 49.435 51.8505 49.4198C53.6785 49.1255 55.737 47.6209 56.5563 45.9367L59.3845 40.1246C59.8456 39.177 59.8198 38.3688 59.4093 37.8462ZM65.2706 37.916L62.5423 39.5562L58.7215 47.4117L61.4507 45.7628L64.5618 39.3718L67.7921 39.0738L70.5213 37.4307L65.2706 37.916Z" fill="#D1D1D1"/>
<path d="M71.716 36.7139L70.5214 37.4323L66.6967 45.2906L63.9857 46.928L58.7217 47.4114L57.5366 48.1279C57.8957 48.5797 58.5464 48.8147 59.4237 48.7354L63.8742 48.3256C63.9676 48.318 64.0619 48.3017 64.1562 48.2874C65.9833 47.9941 68.0428 46.4886 68.862 44.8044L71.6902 38.9913C72.1522 38.0446 72.1256 37.2345 71.716 36.7139Z" fill="#D1D1D1"/>
</g>
<defs>
<clipPath id="clip0_3029_2883">
<rect width="89.1" height="65.7" fill="white" transform="translate(3.33496 11.7002)"/>
</clipPath>
</defs>
</svg>
