<svg width="95" height="90" viewBox="0 0 95 90" fill="none" xmlns="http://www.w3.org/2000/svg">
<g clip-path="url(#clip0_3029_2954)">
<path d="M23.0293 16.2002V30.582L3.28784 30.5663L8.56729 37.5958L12.8021 37.3787L12.798 52.4794L23.0293 50.0222V64.569L47.3751 81.9003L71.7359 64.5614V50.0499L82.3354 52.9274C85.5503 53.0066 86.3779 51.2134 86.5901 50.0146C86.6928 49.4212 86.7563 48.7849 86.779 48.2687C86.8013 47.9027 86.8061 47.5391 86.8065 47.1814C86.8068 46.6912 86.8058 46.046 86.8044 45.4029C86.802 44.1166 86.7975 42.8393 86.7975 42.8386V42.8379C86.7958 42.1118 86.7251 41.2807 86.279 40.4616C85.9682 39.8922 85.4923 39.4134 84.9284 39.0381L91.4877 30.5927L71.7363 30.5916V16.2002H23.0293Z" fill="white"/>
<path d="M47.3782 74.7657L24.8075 61.9634V63.6578L47.3782 79.7139L69.9483 63.6578V61.9634L47.3782 74.7657Z" fill="#06141F"/>
<path d="M43.4246 64.704H51.3363L53.2363 68.6705L69.9486 60.0724V50.3297C55.0771 47.0822 39.6787 47.0828 24.8075 50.3314V60.0727L41.5191 68.6708L43.4246 64.704Z" fill="#06141F"/>
<path d="M41.4227 32.3926H30.2855C30.4596 32.4701 31.8765 32.9589 31.8765 34.382L31.8676 44.0465C31.8459 45.4264 32.8645 46.0898 34.8318 45.8884C38.0211 45.5723 41.2215 45.3804 44.4258 45.3132V38.3396C42.3235 38.3598 40.5165 38.4048 38.4159 38.4768V40.8195C39.0962 40.788 39.4591 40.7619 40.1411 40.7355V43.1605C38.9506 43.214 37.9475 43.284 36.7535 43.366C36.4413 43.3866 36.2981 43.2837 36.2981 43.0367V35.0673C36.2981 34.8591 36.4479 34.7548 36.7549 34.7511C37.7339 34.735 38.6182 34.7226 39.5968 34.712C39.9025 34.7096 40.0271 34.8197 40.0271 35.0539V36.4493C41.5014 36.4229 42.9814 36.4037 44.4543 36.3937L44.4615 34.4386C44.4639 33.1599 43.366 32.3926 41.4234 32.3926" fill="#EA0029"/>
<path d="M67.1434 35.4076V38.816C67.1434 39.0685 67.0016 39.2149 66.6963 39.1916C65.5844 39.1086 64.6953 39.0321 63.5789 38.9591V34.8783C64.6936 34.9058 65.5706 34.9373 66.6832 34.9651C66.9909 34.9768 67.1434 35.1123 67.1434 35.4076ZM71.5733 39.9023V34.8265C71.5437 33.3019 70.2866 32.394 68.3436 32.3926H57.5608C57.7493 32.4715 59.2074 32.9414 59.2074 34.3302L59.2119 45.8857C60.6421 46.0236 62.1548 46.1913 63.5789 46.3789V41.3436C64.2952 41.4033 65.0538 41.4685 65.7701 41.5381C66.5301 43.3252 67.096 45.0933 67.8542 46.9761C69.2907 47.2196 70.8552 47.5496 72.2841 47.8446C71.5085 45.8599 70.711 43.8838 69.8916 41.9168C70.9823 41.7151 71.5908 40.9893 71.5733 39.9023Z" fill="#EA0029"/>
<path d="M9.49804 35.7379C11.2305 35.6425 12.8792 35.551 14.6168 35.4693V49.6286C16.0429 49.2423 17.6057 48.8808 19.0432 48.5429V35.2721C20.0827 35.2285 21.2949 35.1874 22.3323 35.1507V32.3929H6.94348C7.77354 33.524 8.62522 34.6394 9.49804 35.7379ZM83.4021 40.2467C82.0731 39.6516 79.0237 38.2665 78.0828 37.8302C77.738 37.6683 77.61 37.3922 77.61 37.2032V35.8099C77.6055 35.5143 77.7583 35.3695 78.0615 35.3846C80.3235 35.4868 82.9687 35.6007 85.2218 35.7259L87.8097 32.3929H71.6162C71.8391 32.513 73.2937 33.012 73.2937 34.6523C73.2937 34.6523 73.3058 36.4119 73.3058 37.35C73.3058 38.2909 73.792 39.0472 74.9685 39.5847C76.1416 40.1218 79.9599 41.758 80.2514 41.9161C80.6326 42.1178 80.6964 42.3157 80.6964 42.8762V46.3354C80.6982 46.8053 80.3589 46.7295 80.2483 46.7044C79.4722 46.5288 78.828 46.3975 78.0478 46.2328C77.9372 46.2095 77.6598 46.1344 77.6546 45.6881V43.3996C76.2397 43.1641 74.8219 42.9461 73.4016 42.7455V45.3811C73.429 47.0735 74.654 48.3306 76.5931 48.8132C78.4152 49.2585 80.1666 49.7435 81.9681 50.2727C83.8856 50.8524 85.002 50.0614 84.9982 48.0089C85.012 47.9574 84.9948 42.8439 84.9948 42.8439C84.9914 41.6503 84.7307 40.8466 83.4018 40.2467M24.6328 34.5442V47.3616C26.0977 47.0938 27.587 46.8471 29.062 46.629V32.3926H23.05C23.4491 32.5092 24.6331 33.1698 24.6331 34.5446M44.9206 32.3926C45.141 32.4934 46.6039 32.9572 46.6039 34.2455C46.6001 37.9276 46.6001 41.6077 46.5977 45.2875C50.0506 45.2703 53.4448 45.4014 56.8871 45.6706V43.3156C54.8942 43.184 52.8989 43.0946 50.9023 43.0473V40.0913C52.6811 40.1266 54.4541 40.1661 56.2301 40.2429V37.8199C54.4546 37.7648 52.6786 37.727 50.9023 37.7064C50.9071 34.7679 50.9023 34.7679 50.9023 34.6938C52.8888 34.7079 54.7525 34.726 56.7373 34.7535V32.3929L44.9206 32.3926Z" fill="#EA0029"/>
<path d="M32.5625 54.9997C32.705 54.9811 32.8063 54.9331 32.8658 54.8556C32.9241 54.7801 32.9533 54.6817 32.9533 54.5634C32.9533 54.4282 32.92 54.3322 32.8472 54.2821C32.7785 54.2334 32.6838 54.2152 32.5622 54.2296C32.3589 54.2581 32.1546 54.2859 31.9496 54.3137V55.0803C32.1546 55.0528 32.3589 55.0261 32.5625 54.9997ZM32.4835 53.7861C32.6254 53.7666 32.7267 53.7196 32.7851 53.6455C32.8452 53.5724 32.875 53.4784 32.875 53.3628C32.873 53.2274 32.841 53.1354 32.7737 53.0874C32.7061 53.0394 32.6096 53.0243 32.4835 53.0411C32.3054 53.0637 32.1274 53.0877 31.9496 53.1131V53.8585C32.1302 53.8345 32.305 53.8084 32.4835 53.7861ZM32.4949 52.5846C32.6631 52.5619 32.8022 52.5592 32.92 52.577C33.0381 52.5952 33.1302 52.6329 33.2068 52.6906C33.2789 52.7509 33.3355 52.8288 33.3661 52.9276C33.3977 53.026 33.4155 53.1471 33.4155 53.2912C33.4155 53.4174 33.3953 53.5302 33.3592 53.6259C33.3214 53.7196 33.2631 53.8022 33.1868 53.8777C33.2826 53.9165 33.3592 53.983 33.4135 54.0777C33.467 54.1723 33.4942 54.3116 33.4942 54.4958C33.4942 54.6501 33.4743 54.7805 33.4289 54.8926C33.3888 54.9999 33.3246 55.0965 33.2411 55.1749C33.1531 55.2556 33.0503 55.3183 32.9382 55.3595C32.8093 55.4084 32.675 55.4417 32.5381 55.4586C32.168 55.5066 31.7978 55.5581 31.4272 55.6085V52.7307C31.7816 52.681 32.1391 52.6319 32.4949 52.5846ZM34.841 54.0296C35.0721 54.0039 35.3073 53.9775 35.5388 53.9525C35.4238 53.5957 35.3097 53.2387 35.1926 52.882C35.0766 53.2634 34.9543 53.6458 34.841 54.0296ZM35.6882 54.3936C35.3564 54.4279 35.0237 54.4642 34.6944 54.502C34.6205 54.74 34.5484 54.9781 34.477 55.2178C34.2905 55.2394 34.1068 55.2617 33.9224 55.283C34.2321 54.2859 34.546 53.2912 34.8544 52.2958C35.0786 52.2711 35.3056 52.2474 35.5292 52.223L36.4591 55.0082C36.2747 55.0261 36.091 55.0443 35.9073 55.0648C35.831 54.8398 35.761 54.6165 35.6882 54.3936ZM38.7077 52.4686C38.5632 52.4422 38.4168 52.4271 38.2699 52.4237C38.1325 52.4179 38.0054 52.4237 37.8853 52.4306C37.8207 52.4366 37.7565 52.4462 37.6929 52.4594C37.6304 52.4697 37.5789 52.4906 37.5312 52.5201C37.4859 52.5453 37.448 52.582 37.4213 52.6264C37.3914 52.6717 37.3791 52.7293 37.3791 52.801C37.375 52.8562 37.3856 52.9115 37.41 52.9612C37.431 53.0036 37.465 53.0381 37.5072 53.0596C37.5539 53.0874 37.6119 53.108 37.6864 53.1241C37.7578 53.1413 37.8478 53.1564 37.9526 53.1742C38.0992 53.2003 38.2273 53.2298 38.3389 53.2627C38.4532 53.2942 38.5463 53.3406 38.6222 53.3982C38.6964 53.4561 38.7544 53.5268 38.7946 53.6115C38.8324 53.6983 38.8554 53.804 38.8554 53.9298C38.8554 54.2334 38.7616 54.4642 38.5751 54.6282C38.3911 54.7921 38.1322 54.8827 37.8063 54.9064C37.6638 54.9143 37.5127 54.9143 37.3523 54.9033C37.1945 54.8938 37.0377 54.8732 36.8829 54.8415V54.4176C37.0594 54.4371 37.2218 54.4485 37.3701 54.4533C37.5154 54.4622 37.6586 54.4591 37.8028 54.4478C37.978 54.4323 38.1085 54.3874 38.1868 54.3157C38.2699 54.2437 38.308 54.1315 38.308 53.9816C38.3092 53.9341 38.2967 53.8873 38.272 53.8468C38.2472 53.8062 38.2113 53.7736 38.1686 53.7528C38.1133 53.7257 38.0545 53.7067 37.9938 53.6966C37.9251 53.6822 37.8365 53.6671 37.7441 53.6527C37.6121 53.6332 37.4819 53.6032 37.3547 53.5628C37.2507 53.5309 37.1533 53.4807 37.0669 53.4146C36.9902 53.3545 36.9292 53.2765 36.8894 53.1876C36.847 53.0815 36.826 52.9681 36.8276 52.8538C36.8276 52.6069 36.9079 52.4059 37.0717 52.2519C37.2331 52.0975 37.4886 52.0076 37.8478 51.9761C38.1361 51.9518 38.4264 51.9738 38.7077 52.0413V52.4686ZM39.4608 51.8794C40.1098 51.8341 40.7609 51.795 41.4113 51.7583C41.4096 51.9119 41.4096 52.0649 41.4113 52.2176C40.9446 52.2433 40.4755 52.2697 40.0092 52.3009V53.037C40.4601 53.0092 40.911 52.9821 41.3625 52.9578C41.3042 53.1138 41.2427 53.2709 41.1829 53.4266C40.7928 53.4493 40.4 53.4706 40.0092 53.4976V54.2608C40.4755 54.23 40.9446 54.2036 41.4113 54.1792C41.4096 54.3311 41.4096 54.4855 41.4113 54.6388C40.7609 54.6714 40.1098 54.7126 39.4608 54.7582V51.8794ZM43.2025 54.1024C43.3464 54.0989 43.447 54.0588 43.5047 53.9892C43.5644 53.9165 43.5953 53.8245 43.5953 53.7041C43.5953 53.5669 43.5617 53.4695 43.4889 53.4122C43.4202 53.3574 43.3213 53.3299 43.2025 53.3354C42.9957 53.3433 42.7918 53.3508 42.5847 53.3577V54.126C42.7918 54.1185 42.9954 54.1099 43.2025 54.1024ZM43.1211 52.8823C43.265 52.8768 43.3659 52.8394 43.4267 52.7695C43.4844 52.7036 43.5143 52.6096 43.5143 52.4957C43.5143 52.362 43.4834 52.2659 43.413 52.2124C43.3464 52.1568 43.2499 52.1325 43.1211 52.1366C42.9422 52.1435 42.765 52.15 42.5847 52.1582V52.9025C42.765 52.8953 42.9418 52.8874 43.1211 52.8823ZM43.1355 51.6797C43.301 51.6742 43.4425 51.6873 43.5617 51.7151C43.6781 51.7425 43.777 51.7919 43.8508 51.8567C43.9229 51.9212 43.9786 52.0042 44.0108 52.1064C44.0442 52.2093 44.0589 52.3307 44.0589 52.4734C44.0589 52.6024 44.0417 52.7135 44.0036 52.8044C43.9659 52.8953 43.9068 52.9732 43.8309 53.0391C43.9295 53.0874 44.0036 53.1642 44.0575 53.2627C44.1125 53.3611 44.14 53.5028 44.14 53.6863C44.14 53.8417 44.118 53.9689 44.0751 54.0773C44.0343 54.1797 43.9688 54.2704 43.8845 54.3414C43.7945 54.4148 43.6903 54.4688 43.5785 54.5003C43.4485 54.5357 43.3146 54.5553 43.1798 54.5586C42.8052 54.573 42.4302 54.5891 42.0579 54.6059V51.7267C42.4171 51.7079 42.7743 51.6945 43.1355 51.6797ZM45.4933 53.3484L46.1962 53.3368C46.0774 52.9691 45.9634 52.6014 45.8439 52.2323C45.7268 52.6045 45.608 52.9756 45.4933 53.3484ZM46.3415 53.7909C46.0101 53.7947 45.6781 53.8009 45.3432 53.804C45.2711 54.0372 45.198 54.2711 45.1255 54.503C44.9394 54.5061 44.7529 54.5105 44.5692 54.5143C44.8807 53.5484 45.1956 52.5832 45.507 51.6156C45.732 51.6128 45.9586 51.6104 46.1822 51.6074C46.4947 52.5643 46.8037 53.5213 47.1179 54.4814C46.9325 54.4814 46.746 54.4814 46.5596 54.4834C46.4878 54.2519 46.4164 54.0221 46.3415 53.7909ZM47.5692 54.4814V51.5991C47.7519 51.5991 47.9352 51.6032 48.1196 51.6032V54.0231C48.5572 54.026 48.9947 54.0317 49.4321 54.0403C49.3706 54.1905 49.3112 54.3435 49.2525 54.4958C48.6914 54.4866 48.1303 54.4818 47.5692 54.4814ZM49.917 54.5061V51.6269C50.099 51.6331 50.2793 51.6372 50.4634 51.6434V54.0612C50.9022 54.0732 51.339 54.0886 51.7748 54.1044C51.7164 54.2571 51.658 54.4063 51.5976 54.5572C51.0372 54.5387 50.4747 54.5201 49.917 54.5061ZM55.5041 54.6426C55.3576 54.6767 55.2091 54.7019 55.0594 54.7181C54.9118 54.7359 54.7682 54.7386 54.6316 54.7308C54.4231 54.7163 54.2487 54.6711 54.102 54.5891C53.9602 54.5094 53.8388 54.3979 53.7476 54.2632C53.6535 54.1182 53.5864 53.9574 53.5495 53.7885C53.5059 53.5945 53.4847 53.3961 53.4863 53.1972C53.4863 52.9732 53.5076 52.7695 53.5495 52.5925C53.5907 52.4127 53.656 52.2645 53.7476 52.1411C53.8393 52.021 53.9557 51.9294 54.102 51.8718C54.2487 51.8128 54.4276 51.7895 54.6316 51.8025C54.7844 51.8128 54.9303 51.8344 55.0677 51.8653C55.2019 51.8962 55.3506 51.9432 55.5038 52.0042V52.4179C55.419 52.3963 55.3434 52.3747 55.2741 52.3558C55.2037 52.3397 55.1374 52.3232 55.0742 52.3105C55.0127 52.2995 54.9506 52.2906 54.8895 52.2831C54.8283 52.2772 54.7624 52.2694 54.6947 52.2659C54.4626 52.2522 54.293 52.329 54.1947 52.4957C54.0934 52.6666 54.0437 52.9097 54.0437 53.2287C54.0437 53.3817 54.0533 53.5217 54.0801 53.6458C54.102 53.7714 54.1398 53.8811 54.1947 53.9689C54.2487 54.0612 54.3173 54.1319 54.4008 54.1854C54.4815 54.2379 54.58 54.2684 54.6982 54.2746C54.7624 54.2794 54.8252 54.2794 54.8826 54.2794C54.9444 54.2794 55.0045 54.2794 55.0697 54.2746C55.1315 54.2684 55.1971 54.2622 55.2693 54.254C55.3386 54.2464 55.419 54.2361 55.5041 54.219V54.6426ZM56.078 54.8124V51.9325C56.2572 51.9459 56.4378 51.9606 56.6247 51.9761V54.3956C57.0591 54.4323 57.4962 54.4701 57.9337 54.5088C57.8715 54.6563 57.8132 54.8055 57.7544 54.952C57.196 54.9008 56.6372 54.8544 56.078 54.8124ZM58.9835 54.1298C58.9835 54.3116 59.0322 54.4443 59.1298 54.527C59.2273 54.6138 59.3516 54.6639 59.5109 54.6779C59.6768 54.6971 59.8066 54.6752 59.9031 54.6117C59.9996 54.5483 60.0477 54.4255 60.0477 54.243V52.3067C60.2314 52.3263 60.4144 52.3482 60.6023 52.3712V54.3106C60.6023 54.4834 60.5738 54.6296 60.5302 54.7462C60.4807 54.8621 60.41 54.9523 60.3183 55.0189C60.2245 55.0858 60.1081 55.1266 59.9749 55.1458C59.821 55.1673 59.6649 55.1676 59.5109 55.1468C59.3535 55.1324 59.1984 55.0993 59.0487 55.0484C58.9246 55.0048 58.8107 54.9364 58.7139 54.8474C58.6209 54.7585 58.5503 54.6488 58.5079 54.5273C58.4589 54.3826 58.4352 54.2305 58.4378 54.0777V52.1387C58.6198 52.1568 58.8035 52.1737 58.9835 52.1918V54.1298ZM62.4549 55.0261C62.5957 55.0443 62.6977 55.024 62.7554 54.9633C62.8152 54.9033 62.8461 54.8124 62.8461 54.6947C62.8461 54.5572 62.8107 54.4536 62.7403 54.3853C62.6675 54.3167 62.5734 54.2746 62.4553 54.2581C62.2506 54.2296 62.0442 54.2032 61.8396 54.1771V54.9451C62.0442 54.9705 62.2506 55 62.4549 55.0261ZM62.3746 53.7913C62.5154 53.8108 62.6184 53.7913 62.6754 53.7319C62.7355 53.6757 62.7647 53.5896 62.7647 53.4706C62.7671 53.3368 62.7331 53.2373 62.6661 53.1701C62.5981 53.1059 62.5023 53.0637 62.3746 53.0476C62.1964 53.0231 62.0181 53 61.8396 52.9783V53.7227C62.0181 53.7456 62.1953 53.769 62.3746 53.7913ZM62.3869 52.5925C62.5538 52.6165 62.6926 52.6515 62.8121 52.7005C62.9285 52.7485 63.0257 52.8137 63.0971 52.8892C63.1685 52.9663 63.2245 53.0596 63.2568 53.167C63.2901 53.2757 63.3055 53.4016 63.3076 53.5426C63.3076 53.6726 63.2853 53.7793 63.2502 53.864C63.2101 53.9484 63.1548 54.018 63.0775 54.0677C63.1757 54.137 63.2502 54.2231 63.3055 54.3312C63.357 54.4399 63.3831 54.585 63.3831 54.7709C63.3831 54.9235 63.3625 55.0487 63.321 55.1489C63.2808 55.2427 63.2152 55.3234 63.1314 55.3818C63.0473 55.4391 62.946 55.4744 62.8272 55.4864C62.6951 55.5007 62.5618 55.4977 62.4305 55.4775C62.0597 55.4288 61.6885 55.3801 61.3145 55.3348V52.4559C61.6723 52.4998 62.0305 52.5462 62.3869 52.5925Z" fill="white"/>
<path d="M27.5337 29.3878V20.6967H33.033L36.9179 29.3878H57.6754L61.7344 20.6967H67.222V29.3878H69.9486V17.9736H24.8071V29.3878H27.5337Z" fill="#06141F"/>
<path d="M48.9669 26.3167C48.9669 26.351 48.9772 26.3705 48.9974 26.3705C49.0131 26.3684 49.028 26.3622 49.0407 26.3527L54.6529 22.7134C54.7477 22.6472 54.861 22.6132 54.9767 22.6163H56.2102C56.3991 22.6163 56.5272 22.7422 56.5272 22.9312V25.2842C56.5272 25.5682 56.464 25.7336 56.212 25.8848L54.7157 26.7842C54.7008 26.7946 54.6834 26.8009 54.6653 26.8024C54.6474 26.8024 54.6292 26.7879 54.6292 26.7358V23.9907C54.6292 23.9582 54.6203 23.9366 54.5987 23.9366C54.5828 23.9384 54.5678 23.9447 54.5554 23.9547L50.4541 26.6171C50.3613 26.6803 50.2513 26.7136 50.1389 26.7125H47.4202C47.2293 26.7125 47.1032 26.5866 47.1032 26.3959V23.005C47.1032 22.9796 47.0926 22.9562 47.071 22.9562C47.0552 22.9581 47.0402 22.9643 47.0277 22.9741L44.3217 24.5968C44.2942 24.6147 44.2873 24.6277 44.2873 24.6401C44.2873 24.6507 44.2928 24.6617 44.3107 24.6812L46.2444 26.6116C46.2698 26.6367 46.2877 26.6566 46.2877 26.6782C46.2877 26.696 46.2588 26.7104 46.2248 26.7104H44.4783C44.3413 26.7104 44.2351 26.6909 44.1613 26.6171L42.9893 25.4475C42.9848 25.4422 42.9793 25.4379 42.9731 25.4348C42.9669 25.4318 42.9601 25.43 42.9532 25.4297C42.9405 25.4304 42.9281 25.4341 42.9172 25.4406L40.9581 26.6171C40.8393 26.6892 40.7582 26.7087 40.6411 26.7087H38.8389C38.6466 26.7108 38.5203 26.5828 38.5203 26.3938V24.0861C38.5203 23.8 38.5835 23.6361 38.8372 23.4852L40.3424 22.582C40.3542 22.5743 40.368 22.5699 40.3822 22.5693C40.4055 22.5693 40.4179 22.593 40.4179 22.6448V25.7353C40.4179 25.7679 40.4251 25.7823 40.4488 25.7823C40.4648 25.7797 40.4801 25.7736 40.4934 25.7644L45.5782 22.7083C45.6754 22.6414 45.7945 22.6088 45.913 22.6146H48.6499C48.8388 22.6146 48.9669 22.7405 48.9669 22.9291L48.9652 26.3167H48.9669Z" fill="white"/>
</g>
<defs>
<clipPath id="clip0_3029_2954">
<rect width="88.2" height="65.7" fill="white" transform="translate(3.28784 16.2002)"/>
</clipPath>
</defs>
</svg>
