<svg width="95" height="90" viewBox="0 0 95 90" fill="none" xmlns="http://www.w3.org/2000/svg">
<g clip-path="url(#clip0_3029_2967)">
<mask id="mask0_3029_2967" style="mask-type:luminance" maskUnits="userSpaceOnUse" x="2" y="13" width="91" height="64">
<path d="M2.67065 13.8081H92.5807V76.1494H2.67065V13.8081Z" fill="white"/>
</mask>
<g mask="url(#mask0_3029_2967)">
<path d="M70.6957 44.9785C70.6957 56.6817 61.2876 66.1694 49.6823 66.1694C38.0768 66.1694 28.668 56.6817 28.668 44.9785C28.668 33.2747 38.0768 23.7869 49.6823 23.7869C61.2876 23.7869 70.6957 33.2747 70.6957 44.9785Z" fill="white"/>
<path d="M59.536 36.4961C59.536 36.4961 60.6815 36.1123 61.1978 36.2388L61.3533 35.8278C60.9097 35.6102 59.7968 35.8719 59.7968 35.8719C59.7968 35.8719 59.2673 34.8972 58.8872 34.8116L58.7004 35.2766C59.2303 35.5835 59.536 36.4961 59.536 36.4961Z" fill="#C7A079"/>
<path d="M55.2033 63.8614C55.2033 63.8614 54.7365 63.211 54.4438 63.1505L54.3064 63.494C54.717 63.7529 54.9787 64.2959 54.9787 64.2959C54.9787 64.2959 56.0086 64.0811 56.4176 64.2027L56.5644 63.8669C56.2156 63.6771 55.2033 63.8614 55.2033 63.8614Z" fill="#C7A079"/>
<path d="M57.2953 58.6999C57.2953 58.6999 56.3963 57.8112 56.0208 57.8308L55.9695 58.3056C56.5541 58.4862 57.1628 59.3213 57.1628 59.3213C57.1628 59.3213 58.2298 58.5674 58.7588 58.5761L58.8361 58.105C58.3543 57.9933 57.2953 58.6999 57.2953 58.6999Z" fill="#C7A079"/>
<path d="M60.3171 34.9834C60.3171 34.9834 61.4579 34.8019 61.9823 34.8722L62.219 34.3952C61.7554 34.2267 60.5729 34.4148 60.5729 34.4148C60.5729 34.4148 60.0679 33.4825 59.6832 33.4373L59.4958 33.8991C60.0522 34.1504 60.3171 34.9834 60.3171 34.9834Z" fill="#C7A079"/>
<path d="M61.238 33.4887C61.238 33.4887 62.1382 33.4435 62.653 33.5454L62.9213 33.081C62.4735 32.8836 61.5445 32.9126 61.5445 32.9126C61.5445 32.9126 60.945 32.1575 60.5952 32.0151L60.3806 32.4295C60.9163 32.7103 61.238 33.4887 61.238 33.4887Z" fill="#C7A079"/>
<path d="M62.0573 32.13C62.0573 32.13 62.9184 32.0384 63.4226 32.1758L63.7294 31.695C63.2993 31.4726 62.4019 31.575 62.4019 31.575C62.4019 31.575 61.9235 30.7481 61.5518 30.6548L61.3276 31.0337C61.8396 31.3494 62.0573 32.13 62.0573 32.13Z" fill="#C7A079"/>
<path d="M62.9146 30.8532C62.9146 30.8532 63.6741 30.9159 64.1651 31.085L64.4427 30.7136C64.0281 30.4596 63.1981 30.4159 63.1981 30.4159C63.1981 30.4159 62.7713 29.6141 62.4075 29.4958L62.1743 29.8425C62.6635 30.1881 62.9146 30.8532 62.9146 30.8532Z" fill="#C7A079"/>
<path d="M54.6465 64.8666C54.6465 64.8666 54.1735 64.226 53.9027 64.1649L53.7764 64.5067C54.1565 64.7663 54.4385 65.3032 54.4385 65.3032C54.4385 65.3032 55.3566 65.0939 55.7373 65.2165L55.8716 64.8796C55.5505 64.6904 54.6465 64.8666 54.6465 64.8666Z" fill="#C7A079"/>
<path d="M55.7571 62.7501C55.7571 62.7501 55.1128 61.9279 54.7723 61.88L54.6465 62.3118C55.1415 62.5893 55.5403 63.3013 55.5403 63.3013C55.5403 63.3013 56.6502 62.8962 57.1292 63.0085L57.2673 62.5826C56.8513 62.3864 55.7571 62.7501 55.7571 62.7501Z" fill="#C7A079"/>
<path d="M56.3523 61.5971C56.3523 61.5971 55.5507 60.6501 55.1767 60.6393L55.0896 61.1108C55.6527 61.3497 56.178 62.2104 56.178 62.2104C56.178 62.2104 57.3071 61.5273 57.8337 61.5868L57.9382 61.1201C57.4703 60.9614 56.3523 61.5971 56.3523 61.5971Z" fill="#C7A079"/>
<path d="M56.8651 60.1121C56.8651 60.1121 56.0187 59.1881 55.6449 59.1908L55.573 59.6634C56.1453 59.8755 56.7113 60.7271 56.7113 60.7271C56.7113 60.7271 57.8134 60.0129 58.3412 60.05L58.4324 59.5789C57.9588 59.4421 56.8651 60.1121 56.8651 60.1121Z" fill="#C7A079"/>
<path d="M40.4002 29.707L40.7889 29.3723C40.4633 29.1848 40.1184 28.0987 40.1184 28.0987C40.1184 28.0987 39.3649 28.0758 39.0208 27.9695L38.5249 28.3283L39.7123 28.4683C39.7123 28.4683 39.9888 29.4977 40.4002 29.707Z" fill="#C7A079"/>
<path d="M41.7412 28.749L42.1491 28.4372C41.7358 28.2272 41.4574 27.1882 41.4574 27.1882C41.4574 27.1882 40.6832 27.1113 40.3945 26.9412L39.9939 27.252C40.2569 27.4587 41.066 27.5431 41.066 27.5431C41.066 27.5431 41.3139 28.5675 41.7412 28.749Z" fill="#C7A079"/>
<path d="M39.1164 30.7944C39.2309 30.6785 39.3492 30.5665 39.4712 30.4586C39.0947 29.9843 38.9633 29.0875 38.9633 29.0875C38.9633 29.0875 38.0838 29.0493 37.6618 29.0237C37.5323 29.1409 37.3494 29.3693 37.3494 29.3693L38.5068 29.5062C38.5068 29.5062 38.739 30.3632 39.1164 30.7944Z" fill="#C7A079"/>
<path d="M38.0461 31.9976C38.1512 31.8902 38.2737 31.7528 38.3983 31.6443C38.0207 31.1678 37.8358 30.1985 37.8358 30.1985C37.8358 30.1985 36.9903 30.1615 36.5723 30.1336C36.4389 30.252 36.3253 30.349 36.2585 30.4814L37.393 30.6074C37.393 30.6074 37.6665 31.5685 38.0461 31.9976Z" fill="#C7A079"/>
<path d="M43.0401 27.7866L43.4753 27.4977C42.9671 27.3924 42.7114 26.271 42.7114 26.271C42.7114 26.271 42.0294 26.2629 41.8016 26.1113C41.6263 26.2067 41.4425 26.2727 41.2666 26.3876C41.5253 26.5131 42.2884 26.5725 42.2884 26.5725C42.2884 26.5725 42.6509 27.6122 43.0401 27.7866Z" fill="#C7A079"/>
<path d="M37.2247 32.8991C36.8692 32.5081 36.556 31.5078 36.556 31.5078C36.556 31.5078 35.7572 31.5476 35.3349 31.5372L34.9639 31.9341C35.3828 32.0039 36.1459 31.9663 36.1459 31.9663C36.1459 31.9663 36.4062 32.8347 36.8914 33.3369L37.2247 32.8991Z" fill="#C7A079"/>
<path d="M44.2861 26.7578C44.3971 26.6755 44.6885 26.5169 44.6885 26.5169C44.2228 26.3348 44.1911 25.5181 44.1911 25.5181C44.1911 25.5181 43.1682 25.5012 42.9299 25.3884C42.7842 25.4854 42.6282 25.5377 42.4888 25.6571C42.6839 25.8239 43.7197 25.8708 43.7197 25.8708C43.7197 25.8708 43.8275 26.6603 44.2861 26.7578Z" fill="#C7A079"/>
<path d="M34.3567 32.9378C34.2369 33.1019 34.1466 33.206 34.0317 33.369L35.1184 33.4219C35.1184 33.4219 35.3487 34.4295 35.7152 34.7876L36.0207 34.3318C35.7102 33.9633 35.5115 32.9335 35.5115 32.9335C35.5115 32.9335 34.7219 32.9667 34.3567 32.9378Z" fill="#C7A079"/>
<path d="M34.3438 34.4668C34.3438 34.4668 33.6527 34.5633 33.2923 34.4755L32.9841 34.8593C33.2691 34.9635 34.0281 34.965 34.0281 34.965C34.0281 34.965 34.4222 36.2839 34.7325 36.4458L35.0145 35.9513C34.616 35.6204 34.3438 34.4668 34.3438 34.4668Z" fill="#C7A079"/>
<path d="M32.3572 36.1248L32.0745 36.5729L33.0922 36.5719C33.0922 36.5719 33.3376 37.6513 33.7801 37.9937L34.0469 37.5172C33.7531 37.2015 33.4477 36.0992 33.4477 36.0992L32.3572 36.1248Z" fill="#C7A079"/>
<path d="M31.4593 37.8683L31.2488 38.3459L32.243 38.2925C32.243 38.2925 32.6384 39.2804 33.0066 39.626C33.1053 39.4619 33.1542 39.2378 33.2429 39.077C32.808 38.6518 32.5306 37.8176 32.5306 37.8176L31.4593 37.8683Z" fill="#C7A079"/>
<path d="M44.9503 25.102C44.9981 25.5261 45.4268 25.9639 45.4268 25.9639L45.7917 25.7169C45.4625 25.4378 45.3296 24.8485 45.3296 24.8485L44.6675 24.7738C44.3353 24.7553 43.6306 25.0027 43.6306 25.0027C43.9609 24.9913 44.9503 25.102 44.9503 25.102Z" fill="#C7A079"/>
<path d="M82.9206 46.85L82.8734 47.1084C82.8374 47.297 80.7638 47.6694 78.6907 48.1033C78.7565 47.4742 78.7994 46.8385 78.8253 46.1991C80.9512 46.5364 82.9206 46.85 82.9206 46.85ZM65.354 42.6712L64.5921 48.9849C64.5301 49.3719 64.3953 49.855 64.0687 49.9499L61.997 50.1701L62.7588 43.8581C62.8166 43.4645 62.9564 42.9841 63.2794 42.8898L65.354 42.6712ZM49.6813 66.6654C43.2198 66.6649 37.428 63.7879 33.4857 59.238C33.722 59.214 33.8982 59.1943 33.9897 59.1851C34.0402 59.1807 34.0685 59.1426 34.077 59.0745C34.2594 57.5659 36.3752 40.0783 36.3792 40.044C36.38 40.0069 36.3365 39.9928 36.3041 39.9988C36.2727 40.0037 35.153 40.2086 34.1065 40.4082C33.512 40.5238 32.9252 40.7348 32.3612 41.0204C32.3673 40.9959 32.3728 40.9719 32.3783 40.9534C31.942 40.5341 31.8623 39.5909 31.8623 39.5909L30.664 39.7648L30.5205 40.2305L31.4744 40.0909C31.4744 40.0909 31.5312 40.7435 31.9083 41.2707C30.2912 42.2307 28.9148 43.8155 28.1919 45.6048C28.186 45.3959 28.1763 45.1883 28.1763 44.9779C28.1763 32.9998 37.8046 23.293 49.6813 23.2908C58.5392 23.2908 66.1431 28.6919 69.4387 36.4055C66.0901 36.7615 62.0567 37.1916 62.0567 37.1916C61.5505 37.2451 61.0548 37.3612 60.572 37.5198L60.6295 37.3498C60.1773 37.1633 59.0801 37.5024 59.0801 37.5024C59.0801 37.5024 58.4655 36.5462 58.0843 36.4868L57.9153 36.9534C58.4584 37.2243 58.847 38.1261 58.847 38.1261C58.847 38.1261 59.3032 37.9468 59.7677 37.8399C59.2262 38.0903 58.7132 38.399 58.2375 38.7607C58.001 38.4935 57.6804 38.1795 57.4623 38.1605L57.3144 38.632C57.5117 38.7154 57.698 38.8834 57.8571 39.0639C56.2867 40.4033 55.1684 42.3202 54.9179 44.3994C54.9179 44.3994 53.4387 56.6549 53.4303 56.7439C53.4201 56.8327 53.4149 56.9079 53.537 56.9008C53.5738 56.8981 54.7506 56.7733 56.3454 56.6037L56.3389 56.7334C56.9327 56.8736 57.6042 57.6783 57.6042 57.6783C57.6042 57.6783 58.6211 56.8714 59.149 56.8414L59.2023 56.3703C58.7154 56.2897 57.6996 57.053 57.6996 57.053C57.6996 57.053 57.3653 56.7629 57.014 56.5323C60.4806 56.1642 65.2905 55.6503 65.2905 55.6503C66.7286 55.4981 68.0938 54.8858 69.2439 53.9748C69.1682 54.1302 69.0976 54.2881 69.0322 54.4481C65.5454 61.6804 58.1913 66.6649 49.6813 66.6654ZM92.4918 33.8126C88.6805 34.2181 84.869 34.6232 81.0575 35.0278C79.8129 35.1598 78.6235 35.6379 77.5789 36.3527C73.923 24.3136 62.8177 15.558 49.6799 15.558C36.7768 15.558 25.8378 24.0088 21.9891 35.7192C18.8329 36.0413 10.8427 36.8842 10.8427 36.8842C5.02776 37.5024 3.38069 42.0617 2.91856 44.7276C2.51927 47.0124 2.71743 48.6245 2.74126 49.0765C2.74413 49.1534 2.77336 49.2471 2.82335 49.263C2.89231 49.2847 2.98527 49.2487 3.10503 49.1103C3.2337 48.9615 5.40188 46.2541 5.72223 45.8964C6.04177 45.5394 7.4271 43.869 10.1308 43.5833L19.2919 42.609C19.2733 42.8048 18.0894 53.2421 18.0894 53.2421C17.8841 54.6171 16.9848 55.4697 15.3066 55.7728C15.3066 55.7728 16.7453 43.1384 16.7466 43.1177C16.7526 43.0965 16.7466 43.0703 16.7124 43.0768C16.6759 43.0839 14.6382 43.4345 14.6382 43.4345C11.4269 44.1318 8.70427 47.1487 8.3075 50.4471L7.60872 56.5819C5.67763 56.7803 4.41278 56.601 3.61995 56.54C3.35184 56.5209 3.10018 56.487 2.88529 56.4614C2.7961 56.4506 2.72768 56.5351 2.7774 56.6098C3.10396 57.1216 3.88464 58.5129 4.89397 59.5875C6.25692 61.0453 8.24645 61.7687 10.7152 61.7687L16.8553 61.2093C20.524 60.819 22.72 60.0569 24.0638 59.0658C29.0142 68.2023 38.629 74.4004 49.6799 74.4004C62.5904 74.4004 73.533 65.9415 77.3776 54.2234C81.0908 53.8298 84.618 53.4542 84.618 53.4542C90.2756 52.8529 90.4918 50.1636 90.6086 48.7194C90.6203 48.5837 90.8868 46.2333 90.9213 45.5737C91.0331 43.8248 89.7617 42.252 87.9077 41.8387C87.1559 41.6703 84.1 41.1343 82.1408 40.7952C82.176 40.7679 82.2164 40.7479 82.2595 40.7364L87.769 40.1438C89.6858 39.9404 91.1767 38.5213 91.8663 36.249L92.58 33.8971C92.58 33.8971 92.5949 33.7996 92.4918 33.8126Z" fill="#C7A079"/>
<path d="M55.0435 38.0694C54.9558 38.0781 43.2959 39.3157 43.2959 39.3157C39.7327 39.6977 36.597 42.8642 36.1527 46.5283C36.1527 46.5283 34.6557 58.9392 34.6513 58.9676C34.6484 58.9959 34.6768 59.0248 34.7163 59.0194C34.7482 59.0161 41.6235 58.298 42.4439 58.2146C42.4947 58.2092 42.525 58.1531 42.5329 58.1181C42.538 58.0821 44.0193 45.7765 44.0193 45.7765C44.0887 45.4826 44.2247 45.1087 44.4837 45.0258L46.5918 44.8023C46.5918 44.8023 45.0503 57.5801 45.026 57.7671C45.0122 57.8706 45.0641 57.9339 45.167 57.9246C46.2801 57.8058 52.7423 57.1188 52.7748 57.1145C52.808 57.1124 52.8845 57.0753 52.8882 57.0163C53.0569 55.6431 55.1535 38.2907 55.1588 38.1937C55.1727 38.0928 55.1402 38.0579 55.0435 38.0694Z" fill="#C7A079"/>
<path d="M26.0894 37.5067C25.2401 36.623 24.0503 36.2109 22.6767 36.3585L10.8724 37.6168C6.75372 38.0519 4.50552 40.9238 3.83029 43.2511C3.41077 44.7068 3.33021 45.5954 3.28121 46.188C3.28121 46.188 3.19966 47.5467 3.21836 47.9703C3.21836 48.0297 3.21531 48.0563 3.24938 48.0733C3.26889 48.082 3.29748 48.0754 3.3383 48.0313C3.55777 47.7848 4.11027 47.0118 4.2428 46.8423C4.69478 46.2774 5.52627 45.209 6.07517 44.7314C6.76046 44.1366 8.18967 43.1067 10.1075 42.9039L19.6393 41.8921C19.809 41.8703 19.9188 41.904 19.9309 41.9248C20.0774 42.0763 19.9936 42.3637 19.9936 42.3637L18.7794 53.302C18.5164 55.0989 17.164 56.1746 14.6111 56.5055L15.9968 43.9703C16.0011 43.9097 15.9679 43.876 15.9035 43.8896C15.8376 43.9016 14.7414 44.1311 14.7414 44.1311C11.828 44.7624 9.36192 47.4937 8.99868 50.4802L8.39215 55.83L8.21691 57.181L7.87094 57.2203C7.17162 57.2938 6.28475 57.3462 4.51361 57.2203C4.20603 57.1984 4.05138 57.1625 4.01569 57.2088C3.99006 57.2546 4.00463 57.3107 4.09301 57.4606C4.12897 57.5244 4.82748 58.8562 6.34202 59.9777C7.2841 60.6723 8.77561 61.0615 10.661 61.0615C11.6966 61.0615 12.7933 60.9612 13.8295 60.8495L15.4131 60.681C22.7841 59.8965 25.0296 58.9096 25.6754 53.8685L27.174 41.095C27.3462 39.6808 26.9615 38.4078 26.0894 37.5067Z" fill="#071D3D"/>
<path d="M22.7129 37.0534L10.9067 38.31C4.88447 38.9489 4.14487 44.6836 4.10594 44.9153C4.06296 45.147 3.96541 46.0738 3.95921 46.1431C3.94644 46.209 3.97323 46.2363 4.02511 46.1687C4.07915 46.0956 4.76651 45.1846 4.76651 45.1846C4.78197 45.1596 6.72961 42.6152 10.0699 42.2609L19.6056 41.2473C19.9688 41.2086 20.2463 41.2801 20.4242 41.4709C20.7799 41.8493 20.6672 42.5967 20.5564 43.3878C20.5275 43.5796 19.4387 53.3895 19.4387 53.3895C18.981 56.6006 15.46 56.9762 14.2998 57.0979L13.9661 57.1343C13.9661 57.1343 15.3053 44.7223 15.3077 44.6684C15.3106 44.6138 15.2591 44.5931 15.2071 44.6045C15.1585 44.6161 14.8306 44.6863 14.8306 44.6863C12.1532 45.2697 9.88554 47.7748 9.55602 50.5143L8.66241 57.6964C8.0066 57.7586 7.28345 57.8174 6.66415 57.8174C6.28896 57.8174 5.11689 57.7356 5.0277 57.7269C4.94399 57.7188 4.92098 57.7651 4.97285 57.8256C5.02446 57.8883 5.39588 58.3588 5.39588 58.3588C6.61389 59.8161 8.41695 60.5706 10.5432 60.4642C12.6675 60.3612 14.2211 60.1421 15.7418 60.0079C20.1644 59.6121 24.3364 59.1634 25.0247 53.8562L26.5198 41.0708C26.6663 39.8626 26.3394 38.775 25.6077 38.0172C24.9016 37.2828 23.8506 36.9302 22.7129 37.0534Z" fill="#1D467D"/>
<path d="M82.1701 40.0614L87.7443 39.465C89.1435 39.3157 90.4243 38.1376 90.9486 36.8149C91.1497 36.303 91.5185 34.981 91.6028 34.6762C91.613 34.6343 91.5811 34.6173 91.5325 34.6195C91.4833 34.63 81.0851 35.7584 81.0851 35.7584C77.9103 36.0964 75.0033 39.0289 74.6118 42.294C74.6118 42.294 74.3398 44.7042 74.3368 44.7288C74.3368 44.7516 74.346 44.7648 74.3622 44.7668C74.373 44.7691 83.6974 46.3643 83.6974 46.3643C83.6974 46.3643 83.6283 46.759 83.5394 47.3646C83.4447 47.967 79.4168 48.4523 77.7887 48.9227C75.3273 49.632 72.8538 50.2492 70.56 53.0072C70.211 53.4313 69.9437 54.0267 69.8004 54.2535C69.7712 54.3025 69.7896 54.363 69.8607 54.3576C69.9377 54.3516 84.8325 52.7504 84.8325 52.7504C87.8905 52.4261 89.5733 51.255 89.8303 49.2723L89.8602 49.0307C89.9727 48.202 90.1747 46.6559 90.2314 45.6037C90.3165 44.2086 89.2365 42.8969 87.7195 42.5546C86.8025 42.3523 82.435 41.5956 81.1232 41.371C81.2881 40.6317 81.6481 40.1901 82.1701 40.0614Z" fill="#071D3D"/>
<path d="M82.1077 39.4265L87.711 38.8257C89.5038 38.6327 90.2727 36.9519 90.575 35.97C90.575 35.97 90.7026 35.5351 90.7088 35.4936C90.7172 35.4516 90.6872 35.4385 90.6296 35.4434C90.5739 35.4484 81.1236 36.4547 81.1236 36.4547C78.249 36.7585 75.6273 39.4155 75.2685 42.3797C75.2685 42.3797 75.0523 44.2344 75.051 44.2562C75.051 44.2774 75.0609 44.2928 75.0796 44.2971C75.0998 44.2981 84.4108 45.9637 84.4108 45.9637C84.4057 46.0256 84.3993 46.0874 84.3915 46.1491L84.2814 47.0606C84.074 48.3434 83.1665 48.5167 79.3922 49.2265C78.5028 49.3939 73.2768 50.5862 71.4593 52.9163C71.2652 53.1726 71.1273 53.3693 71.0536 53.4904C71.0033 53.5721 71.0236 53.6103 71.107 53.6038C72.0767 53.4936 82.4886 52.3635 83.8988 52.213C87.1869 51.8642 88.8161 51.3009 89.1794 49.0292C89.3862 47.7191 89.5192 46.5732 89.5735 45.6251C89.6387 44.5375 88.7691 43.5164 87.5466 43.2411C86.4963 43.0067 80.608 41.9943 80.5512 41.9872C80.5005 41.9796 80.384 41.9179 80.3932 41.8002C80.5785 40.1167 81.4217 39.5786 82.1077 39.4265Z" fill="#1D467D"/>
<path d="M81.5834 37.2667L90.041 36.3655C90.1132 36.1835 90.1748 36.0095 90.2194 35.8612L81.166 36.8251C78.451 37.1118 75.9707 39.6245 75.6371 42.4208L75.4573 43.9849L75.9188 44.0688L76.0569 42.8602C76.4183 39.9053 78.8717 37.5545 81.5834 37.2667Z" fill="white"/>
<path d="M80.9102 42.7978C81.5222 42.8997 86.9131 43.8282 87.8891 44.0468C88.2646 44.1297 88.6014 44.2954 88.8747 44.5151C88.5641 44.0768 88.0695 43.7214 87.4685 43.6025C86.4411 43.4035 81.0999 42.4604 80.4875 42.3524C80.4759 42.3524 80.4642 42.3475 80.4583 42.3458C80.4968 42.5863 80.6975 42.7596 80.9102 42.7978Z" fill="white"/>
<path d="M85.0664 47.5614L85.1701 46.718C85.2056 46.4345 85.2772 46.1129 85.0045 46.0599L84.7777 46.018C84.7715 46.1031 84.6451 47.1187 84.6451 47.1187C84.3757 48.7766 83.6997 48.8191 79.4585 49.5911C77.833 49.8903 72.8373 51.4616 71.7751 53.1167C72.0802 53.0834 72.3814 53.055 72.675 53.0235C74.3087 51.5722 78.4299 50.2982 79.8804 50.0343C84.1262 49.2645 84.799 49.2154 85.0664 47.5614Z" fill="white"/>
<path d="M33.5483 41.3078C31.0431 42.053 28.7148 44.8236 28.3834 47.5669C28.3834 47.5669 27.0002 59.0249 26.9919 59.1214C26.9878 59.219 27.0519 59.2413 27.1122 59.2386C27.167 59.2299 32.8728 58.6247 33.4099 58.5675C33.4345 58.562 33.4513 58.5457 33.4553 58.5173C33.5797 57.5076 35.5811 40.8923 35.583 40.8525C35.5843 40.8221 35.5497 40.7833 35.5019 40.7975C35.4578 40.8067 34.5433 41.0112 33.5483 41.3078Z" fill="#071D3D"/>
<path d="M34.3131 41.8113C31.6393 42.393 29.3748 44.897 29.0429 47.6403C29.0429 47.6403 27.7524 58.3589 27.7451 58.4217C27.7302 58.4882 27.7505 58.5237 27.8483 58.5154C27.9371 58.5024 32.3761 58.0303 32.8241 57.9844C32.8498 57.9801 32.8599 57.9659 32.8635 57.9414C32.972 57.0538 34.8106 41.802 34.813 41.7693C34.8202 41.7366 34.7943 41.7061 34.753 41.7148C34.7114 41.7251 34.3131 41.8113 34.3131 41.8113Z" fill="#1D467D"/>
<path d="M34.3258 42.7494L34.3962 42.1725C31.8892 42.7227 29.7246 45.0974 29.4129 47.6848L28.1541 58.1069L28.636 58.0557L29.8319 48.1237C30.1169 45.5145 32.0352 43.4766 34.3258 42.7494Z" fill="white"/>
<path d="M43.3217 40.0491C40.1426 40.3877 37.2364 43.3224 36.8402 46.5929C36.8402 46.5929 35.4432 58.1719 35.4402 58.2062C35.4348 58.246 35.451 58.2749 35.4959 58.27C35.5399 58.2651 41.15 57.6708 41.8377 57.5923C41.884 57.5918 41.9109 57.5438 41.9163 57.5078C41.9193 57.4762 43.3368 45.7288 43.3368 45.7288C43.5109 44.9442 43.8753 44.4814 44.3911 44.3527L47.3848 44.0322C47.3848 44.0322 45.8411 56.8973 45.8154 57.0073C45.7926 57.1126 45.8456 57.172 45.9411 57.161C46.8891 57.0603 52.1626 56.496 52.1984 56.4933C52.2174 56.4928 52.2356 56.485 52.2492 56.4715C52.2628 56.4581 52.2709 56.4399 52.2718 56.4207C52.4158 55.2547 54.3694 39.13 54.3694 39.0264C54.3759 38.9168 54.2837 38.8824 54.2161 38.8901C54.1466 38.9005 43.3217 40.0491 43.3217 40.0491Z" fill="#071D3D"/>
<path d="M43.3556 40.7439C40.4862 41.0508 37.8585 43.7068 37.5036 46.6661C37.5036 46.6661 36.204 57.4268 36.1988 57.4797C36.1939 57.5292 36.202 57.5511 36.2444 57.5462C36.2872 57.5413 40.6446 57.0768 41.2474 57.013C41.296 57.0076 41.3226 56.9732 41.3306 56.9296C41.3325 56.9034 42.6841 45.6723 42.6841 45.6723C42.9963 44.2281 43.8397 43.8257 44.326 43.7151L47.9433 43.3269C47.9793 43.3269 48.0282 43.3269 48.0761 43.3706C48.1115 43.4066 48.1234 43.4551 48.1134 43.5106C48.1134 43.5106 46.5739 56.2018 46.5739 56.2972C46.5669 56.3898 46.608 56.4444 46.7102 56.4325C47.5613 56.343 51.5533 55.9161 51.592 55.915C51.6599 55.9107 51.6858 55.8457 51.6904 55.8088C51.8113 54.804 53.6199 39.7745 53.6348 39.7277C53.6357 39.6808 53.5986 39.6562 53.5588 39.6595C53.5132 39.665 43.3556 40.7439 43.3556 40.7439Z" fill="#1D467D"/>
<path d="M43.8181 41.556L53.159 40.5655L53.2141 40.0737L43.3961 41.1154C40.6792 41.4049 38.2053 43.9117 37.8671 46.7112L36.6128 57.1338L37.0935 57.0815L38.2931 47.1539C38.627 44.356 41.106 41.8444 43.8181 41.556Z" fill="white"/>
<path d="M48.7604 43.5539C48.6893 43.4743 48.5867 43.4242 48.4798 43.4072C48.4864 43.4566 48.4873 43.5066 48.4825 43.5561L46.9734 56.0308L47.4558 55.979L48.9031 44.0016C48.9247 43.8303 48.8704 43.6701 48.7604 43.5539Z" fill="white"/>
<path d="M9.41505 58.4787L10.3427 51.0027C10.638 48.5772 12.5535 46.3442 14.8565 45.6212C14.8968 45.2331 14.9095 45.0509 14.9095 45.0509C12.4004 45.5957 10.236 47.9731 9.91954 50.5594L8.99454 58.0366C7.74641 58.1641 6.433 58.187 5.67749 58.1183C5.83285 58.3048 6.07507 58.5359 6.09836 58.561C6.88822 58.7016 8.17133 58.603 9.41505 58.4787Z" fill="white"/>
<path d="M11.3675 39.1208L23.1753 37.8663C24.1016 37.7677 24.935 38.0022 25.557 38.5266C25.4911 38.4386 25.4197 38.3551 25.3432 38.2763C24.7072 37.6183 23.7868 37.3147 22.7566 37.4237L10.9447 38.6814C5.14786 39.2981 4.4729 44.958 4.4729 44.958C4.4729 44.958 4.71782 44.6325 5.18598 44.1921C5.74387 42.4883 7.28385 39.5553 11.3675 39.1208Z" fill="white"/>
<path d="M14.7626 57.9106C15.9617 57.7825 19.724 57.3851 20.2256 53.8851C20.2256 53.8851 21.3126 44.0724 21.344 43.8881C21.4726 43.0034 21.5899 42.1638 21.115 41.6573C21.0413 41.5808 20.9571 41.5154 20.8649 41.4632C21.1333 41.9768 21.0301 42.6904 20.9244 43.4428C20.8912 43.6325 19.8037 53.444 19.8037 53.444C19.3042 56.9457 15.544 57.342 14.3388 57.4679L13.9765 57.5002L13.9185 57.9951L14.7626 57.9106Z" fill="white"/>
<path d="M64.1726 50.67L61.2118 50.9851L62.0723 43.8362C62.1684 43.1984 62.4394 42.3986 63.1803 42.222L66.1452 41.9069L65.2773 49.0497C65.1853 49.6919 64.9108 50.4929 64.1726 50.67ZM62.0839 37.9206C58.9086 38.2575 56.0004 41.1921 55.6064 44.4637C55.6064 44.4637 54.2171 55.9914 54.214 56.0421C54.2078 56.0923 54.2269 56.1474 54.2961 56.1381C54.3643 56.1316 65.2736 54.972 65.2736 54.972C68.4424 54.6329 71.3508 51.6976 71.7473 48.4278C71.7473 48.4278 73.134 36.9212 73.1427 36.8547C73.1473 36.7828 73.0792 36.7495 73.0226 36.7583C72.9586 36.7626 62.0839 37.9206 62.0839 37.9206Z" fill="#071D3D"/>
<path d="M65.9447 49.091L65.9339 49.1482C65.7101 50.7117 64.8978 51.2182 64.2514 51.3644L60.6574 51.7465C60.6195 51.7514 60.5739 51.7498 60.5253 51.7002C60.4904 51.6669 60.4779 51.6179 60.4849 51.5606L61.4197 43.8038C61.6487 42.2245 62.4693 41.724 63.1068 41.585L63.1556 41.579L66.6959 41.2006C66.7503 41.1963 66.7968 41.2126 66.8313 41.2448C66.8649 41.2802 66.879 41.3304 66.8711 41.3888L65.9447 49.091ZM72.3182 37.5316C72.2809 37.536 62.1196 38.6154 62.1196 38.6154C59.2513 38.9213 56.6184 41.5801 56.2686 44.5388C56.2686 44.5388 54.9714 55.2563 54.9676 55.3125C54.9606 55.3719 55.0217 55.4166 55.0722 55.4112C55.1209 55.4079 65.2333 54.3328 65.2333 54.3328C68.1045 54.0259 70.7352 51.3703 71.0952 48.4078C71.0952 48.4078 72.383 37.6428 72.3939 37.5943C72.3993 37.5452 72.356 37.5262 72.3182 37.5316Z" fill="#1D467D"/>
<path d="M67.2402 41.4299L66.3025 49.2003C66.0284 51.0855 64.935 51.5952 64.3065 51.731L60.6922 52.1175C60.6415 52.1227 60.5903 52.1188 60.541 52.1061C60.5588 52.2184 60.6046 52.3225 60.6823 52.4037C60.793 52.5193 60.9547 52.5765 61.1196 52.5596L64.7306 52.1753C65.357 52.0411 66.4479 51.5281 66.7231 49.6435L67.6612 41.8704C67.6871 41.7058 67.6314 41.5428 67.5154 41.4261C67.4416 41.3486 67.3441 41.2985 67.2373 41.2784C67.2402 41.3291 67.2459 41.3808 67.2402 41.4299Z" fill="white"/>
<path d="M62.5801 39.4298L71.9173 38.4371L71.9767 37.9459L62.1587 38.9866C59.4453 39.2733 56.9676 41.7839 56.6329 44.5845L55.376 55.0049L55.8576 54.9531L57.0538 45.0238C57.3892 42.2276 59.8712 39.7166 62.5801 39.4298Z" fill="white"/>
<path d="M79.9736 46.3808C79.6036 46.3224 79.2173 46.2609 78.8255 46.1988V46.1993C78.8153 46.4375 78.8022 46.6756 78.7864 46.9135C78.7722 47.1381 78.7552 47.3625 78.7355 47.5867C78.7207 47.7585 78.7089 47.9313 78.6909 48.103C79.0891 48.0191 79.4871 47.9384 79.8714 47.8604C79.9166 47.3692 79.9517 46.8758 79.9736 46.3808Z" fill="#071D3D"/>
<path d="M21.9891 35.7187C22.4647 34.2722 23.0517 32.8653 23.7445 31.511C23.7505 31.4995 23.7564 31.4876 23.7624 31.4761C23.932 31.1461 24.1075 30.8191 24.2889 30.4954C24.2929 30.4882 24.2971 30.4817 24.3005 30.4746C25.0228 29.1926 25.8394 27.9671 26.7436 26.8084C26.779 26.7631 26.8136 26.7179 26.8491 26.6726C27.0536 26.414 27.2621 26.1586 27.4746 25.9066C27.5175 25.8559 27.5613 25.8058 27.6046 25.7556C28.2841 24.962 29.0048 24.2053 29.7639 23.4888C29.7968 23.4578 29.829 23.426 29.862 23.3945C30.0741 23.196 30.2912 23.0035 30.509 22.8117C30.607 22.725 30.7045 22.6394 30.8032 22.5544C31.009 22.3778 31.2173 22.2042 31.4281 22.0338C31.5431 21.9406 31.6592 21.8488 31.7763 21.7584C31.9845 21.5943 32.1929 21.4302 32.4053 21.2726C32.5185 21.1887 32.6348 21.1074 32.7497 21.0256C33.1248 20.7557 33.5061 20.4947 33.8933 20.2428C34.0535 20.1381 34.2121 20.0329 34.374 19.932C34.563 19.8142 34.7549 19.702 34.9466 19.588C35.3095 19.3722 35.6773 19.1648 36.0497 18.966C36.2507 18.859 36.4531 18.7544 36.6568 18.6525C36.8325 18.5641 37.0074 18.4736 37.1853 18.3892C37.474 18.2497 37.7667 18.1188 38.0609 17.9896C38.2398 17.9111 38.4195 17.8342 38.6003 17.7595C38.8986 17.6351 39.1989 17.5157 39.501 17.4013C39.6605 17.3414 39.8219 17.2857 39.9827 17.2285C40.2374 17.1379 40.4936 17.0496 40.7518 16.9662C40.918 16.9129 41.084 16.86 41.251 16.8093C41.523 16.7264 41.7965 16.6495 42.0714 16.5744C42.2214 16.5334 42.3704 16.4914 42.5212 16.4527C42.9315 16.3478 43.344 16.2518 43.7585 16.1649C43.799 16.1562 43.8395 16.1485 43.8804 16.1409C44.2874 16.0587 44.696 15.9849 45.1059 15.9196C45.2498 15.8972 45.3941 15.8787 45.5385 15.858C45.8434 15.8137 46.1497 15.7739 46.4573 15.7401C46.616 15.7227 46.7752 15.7059 46.9346 15.6906C47.2482 15.6611 47.5628 15.6382 47.8785 15.6186C48.0213 15.6098 48.1632 15.599 48.3065 15.593C48.7617 15.5712 49.2193 15.5575 49.6799 15.5575C50.1435 15.5575 50.6039 15.5712 51.0618 15.593C51.2067 15.5995 51.3505 15.6104 51.4949 15.6197C51.8093 15.6382 52.1235 15.6621 52.4371 15.6916C52.9008 15.7364 53.3633 15.7919 53.8244 15.858C53.9785 15.8803 54.1331 15.901 54.2863 15.9255C54.63 15.981 54.9728 16.0426 55.3143 16.1103C55.4124 16.13 55.5122 16.1463 55.6103 16.1665C56.0428 16.2567 56.4732 16.357 56.9011 16.4675C57.0195 16.498 57.136 16.5317 57.2536 16.5639C57.564 16.6485 57.8726 16.7352 58.1783 16.8289C58.3323 16.8766 58.4858 16.9257 58.6389 16.9761C58.9089 17.0642 59.1776 17.156 59.445 17.2515C59.6013 17.3067 59.757 17.3635 59.9122 17.422C60.1872 17.5265 60.4607 17.6352 60.7325 17.748C60.8663 17.8037 61.002 17.8566 61.1353 17.9139C61.527 18.0822 61.9151 18.2591 62.2993 18.4443C62.382 18.4841 62.4628 18.5293 62.5449 18.5697C62.8496 18.7212 63.1521 18.8755 63.4506 19.0369C63.5983 19.117 63.7435 19.201 63.8894 19.2827C64.1206 19.4132 64.3504 19.5464 64.5785 19.6823C64.7335 19.7758 64.8878 19.8705 65.0414 19.9664C65.2598 20.1032 65.4763 20.2431 65.6909 20.3862C65.8387 20.4844 65.9877 20.5813 66.1333 20.6822C66.3744 20.849 66.6107 21.0202 66.8461 21.193C66.9578 21.2753 67.0719 21.3538 67.1821 21.4378C67.5068 21.6839 67.8262 21.9369 68.1402 22.1967C68.2813 22.3134 68.4181 22.4339 68.5573 22.5532C68.7427 22.7124 68.9278 22.8711 69.1089 23.0352C69.2588 23.1693 69.406 23.3072 69.5526 23.4446C69.718 23.6004 69.8819 23.758 70.044 23.9173C70.1911 24.0611 70.3368 24.2063 70.4811 24.3529C70.6408 24.5169 70.7969 24.6848 70.9528 24.8522C71.0893 24.9989 71.2277 25.1444 71.3615 25.2944C71.597 25.5583 71.8277 25.8266 72.0534 26.0991C72.2095 26.2896 72.3636 26.4819 72.5155 26.6759C72.6517 26.8482 72.7885 27.0199 72.9204 27.196C73.0548 27.3737 73.1845 27.5542 73.3147 27.7357C73.434 27.901 73.5514 28.0676 73.6669 28.2356C73.7961 28.4231 73.923 28.6121 74.0478 28.8026C74.1568 28.9697 74.2639 29.138 74.3693 29.3075C74.4914 29.5031 74.6145 29.6978 74.732 29.8962C74.8331 30.0674 74.9293 30.2413 75.0272 30.4147C75.2369 30.7844 75.4383 31.1588 75.6311 31.5377C75.719 31.7084 75.809 31.8784 75.893 32.0529C75.9973 32.2677 76.0957 32.4864 76.1952 32.7039C76.2746 32.8783 76.3544 33.0528 76.4307 33.2295C76.5258 33.4506 76.6184 33.6728 76.7084 33.8961C76.7799 34.0739 76.8497 34.2524 76.9178 34.4315C77.0043 34.6577 77.0885 34.8849 77.1702 35.113C77.2334 35.2935 77.2925 35.4755 77.3527 35.6576C77.4292 35.8887 77.5081 36.1183 77.5789 36.3516C77.9052 36.1299 78.2464 35.9314 78.6 35.7574C78.3159 34.8518 77.9928 33.9567 77.6229 33.0751C76.0952 29.4322 73.9103 26.1617 71.1255 23.3547C68.3392 20.547 65.097 18.3391 61.4861 16.8011C57.7458 15.2065 53.7717 14.3996 49.6799 14.3996C45.588 14.3996 41.6173 15.2065 37.877 16.8011C34.2669 18.3391 31.023 20.547 28.2376 23.3547C25.4537 26.1617 23.2674 29.4322 21.739 33.0751C21.3594 33.9827 21.0236 34.9082 20.7327 35.8485C21.2015 35.7999 21.628 35.7563 21.9891 35.7187Z" fill="#071D3D"/>
<path d="M77.3775 54.2231C76.9035 55.6679 76.3183 57.0731 75.6272 58.4259C75.6187 58.4423 75.6104 58.4588 75.6024 58.4755C75.4341 58.8035 75.2597 59.1283 75.0793 59.4497C75.075 59.4573 75.0704 59.4656 75.0658 59.4732C74.345 60.7541 73.5298 61.9788 72.6273 63.1368C72.5906 63.1842 72.5533 63.2322 72.5155 63.2797C72.3125 63.5377 72.1052 63.7921 71.8935 64.0429C71.8499 64.0941 71.8053 64.1454 71.7613 64.1971C71.0878 64.9832 70.374 65.7331 69.6228 66.4438C69.582 66.4826 69.5428 66.5224 69.5014 66.5604C69.2911 66.7567 69.0762 66.9481 68.8608 67.1383C68.7607 67.2262 68.6614 67.3144 68.5602 67.4006C68.3556 67.5762 68.1485 67.7489 67.939 67.9185C67.8225 68.013 67.7049 68.1063 67.5863 68.1981C67.3795 68.3607 67.1727 68.5236 66.9613 68.6807C66.8448 68.7674 66.7251 68.8491 66.6077 68.9342C66.238 69.2 65.8625 69.4574 65.4813 69.7062C65.3173 69.8125 65.1549 69.921 64.9883 70.0245C64.8004 70.1403 64.6112 70.2539 64.4207 70.3653C64.2399 70.4731 64.0579 70.5787 63.8746 70.6821C63.6895 70.7865 63.5032 70.8889 63.3157 70.989C63.1133 71.0966 62.9095 71.2017 62.7045 71.3041C62.5298 71.393 62.3562 71.4818 62.1798 71.5669C61.8823 71.7088 61.5823 71.8453 61.2799 71.9762C61.1082 72.0518 60.9356 72.1254 60.7622 72.1971C60.4644 72.3203 60.1646 72.4418 59.8613 72.5552C59.702 72.6147 59.5407 72.6703 59.3807 72.7269C59.1255 72.8193 58.8688 72.9071 58.6106 72.9902C58.445 73.0444 58.2789 73.0965 58.1121 73.1467C57.8388 73.2295 57.5641 73.308 57.2884 73.3823C57.1395 73.4232 56.9914 73.4657 56.8413 73.5038C56.4285 73.6096 56.0135 73.7063 55.5965 73.7939C55.5548 73.8026 55.5133 73.8091 55.4718 73.8178C55.0679 73.8994 54.6624 73.9724 54.2555 74.037C54.1114 74.0599 53.9666 74.0791 53.8223 74.0992C53.5168 74.1437 53.2107 74.1829 52.904 74.217C52.7448 74.2343 52.5854 74.2508 52.426 74.2666C52.1119 74.2953 51.7974 74.3191 51.4826 74.3379C51.3399 74.3467 51.1971 74.3576 51.054 74.3647C50.5984 74.3853 50.1411 74.4001 49.6798 74.4001C49.2321 74.4001 48.7868 74.3853 48.3435 74.3657C48.2267 74.3598 48.1102 74.3543 47.9937 74.3478C47.6015 74.3249 47.2112 74.2954 46.8236 74.2579C46.77 74.2524 46.7159 74.2492 46.6627 74.2436C46.2325 74.1983 45.8033 74.1433 45.3755 74.0784C45.2641 74.0616 45.1528 74.0431 45.0414 74.0256C44.6865 73.9684 44.3327 73.9048 43.9801 73.8348C43.898 73.8178 43.8155 73.8037 43.7339 73.7863C43.3205 73.6998 42.909 73.604 42.4999 73.499C42.3961 73.4733 42.2939 73.4445 42.1909 73.4172C41.8586 73.3283 41.5289 73.2334 41.2016 73.1331C41.1039 73.1037 41.0056 73.0747 40.9091 73.0443C40.5135 72.9192 40.1207 72.7852 39.731 72.6424C39.6397 72.6086 39.5499 72.5727 39.4591 72.5389C39.144 72.4202 38.831 72.2959 38.5203 72.166C38.4141 72.1218 38.3074 72.0777 38.2022 72.0318C37.8268 71.8703 37.4548 71.7007 37.0866 71.5233C37.0112 71.4867 36.9379 71.4485 36.8628 71.4103C36.5586 71.2605 36.2573 71.1049 35.9589 70.9437C35.8485 70.8843 35.738 70.8254 35.6288 70.7637C35.2752 70.5686 34.9256 70.3662 34.5803 70.1565C34.5297 70.1254 34.4805 70.0927 34.43 70.0615C34.0153 69.803 33.6068 69.5347 33.2046 69.2569C32.923 69.0625 32.6448 68.8631 32.3702 68.6588C32.3109 68.6142 32.2507 68.5732 32.1923 68.5285C31.8776 68.2904 31.5702 68.0444 31.2656 67.7942C31.1586 67.7062 31.0523 67.6172 30.947 67.5271C30.712 67.3284 30.4802 67.1259 30.2517 66.9197C30.1699 66.8462 30.0866 66.7742 30.0055 66.699C29.7206 66.4361 29.441 66.1674 29.1669 65.8931C29.0675 65.794 28.9702 65.6931 28.8718 65.5923C28.6694 65.3849 28.4703 65.1742 28.2747 64.9604C28.1852 64.8628 28.0943 64.767 28.0063 64.6676C27.7503 64.3823 27.5003 64.0915 27.2566 63.7954C27.1677 63.6879 27.0815 63.5779 26.9942 63.4693C26.8177 63.2494 26.6444 63.027 26.4744 62.802C26.386 62.6849 26.2974 62.5698 26.2106 62.4515C25.9846 62.1435 25.7643 61.8312 25.5499 61.5149C25.4758 61.4042 25.4047 61.2919 25.3324 61.1813C25.1761 60.9433 25.0233 60.7031 24.8741 60.4606C24.7932 60.3291 24.7124 60.1977 24.634 60.0653C24.4375 59.7358 24.2474 59.4024 24.0637 59.0655C23.7772 59.277 23.4487 59.4776 23.0781 59.6668C24.4573 62.2056 26.1833 64.5309 28.2376 66.6041C31.0229 69.4123 34.2669 71.6165 37.877 73.156C41.6173 74.7506 45.5879 75.5581 49.6798 75.5581C53.7716 75.5581 57.7457 74.7506 61.4861 73.156C65.097 71.617 68.3391 69.4123 71.1254 66.6041C73.9103 63.7943 76.0951 60.5243 77.6229 56.8831C78.0082 55.9656 78.3445 55.0327 78.6367 54.0896C78.2225 54.1332 77.8017 54.1779 77.3775 54.2231Z" fill="#071D3D"/>
<path d="M32.3833 25.6797L32.2109 25.4899C32.0962 25.3661 31.9905 25.2887 31.8927 25.2599C31.793 25.2299 31.7086 25.2473 31.6405 25.3095C31.54 25.4059 31.4926 25.4931 31.4997 25.5787C31.5089 25.6649 31.5594 25.7603 31.6554 25.8671L32.991 27.3348C33.0696 27.4204 33.1507 27.471 33.2302 27.477C33.3105 27.4874 33.394 27.4503 33.4794 27.3702C33.5352 27.3206 33.5683 27.2666 33.58 27.2056C33.5904 27.148 33.585 27.0886 33.5643 27.0338C33.5441 26.9745 33.5147 26.9188 33.4773 26.8687C33.4386 26.8169 33.3959 26.7618 33.3456 26.71L33.098 26.4374L33.789 25.7984L34.1209 26.161C34.366 26.4297 34.4774 26.7181 34.4577 27.0212C34.4371 27.3266 34.2558 27.6384 33.9168 27.9519C33.607 28.2382 33.3105 28.3657 33.0256 28.3362C32.7404 28.3063 32.4552 28.1367 32.1702 27.826L31.0605 26.608C30.7657 26.2869 30.626 25.98 30.6344 25.6862C30.6457 25.3929 30.8074 25.0968 31.1221 24.8056C31.4248 24.5227 31.7227 24.3771 32.0097 24.3641C32.2987 24.3532 32.5774 24.4938 32.8458 24.791L33.0742 25.0379L32.3833 25.6797Z" fill="#071D3D"/>
<path d="M36.2006 25.9121L34.0706 22.5037L34.8628 21.9994L35.6817 23.3083L36.2331 22.9595L35.4129 21.651L36.2079 21.1451L38.3366 24.5568L37.5441 25.0578L36.6556 23.6404L36.1063 23.9883L36.9937 25.4078L36.2006 25.9121Z" fill="#071D3D"/>
<path d="M39.8361 20.2314L39.8264 20.2357L40.2343 22.0152L40.7411 21.8112L39.8361 20.2314ZM39.7085 23.8345L39.0427 19.7642L40.0926 19.3449L42.3783 22.7632L41.4958 23.1154L41.0855 22.4382L40.4018 22.7125L40.5853 23.4822L39.7085 23.8345Z" fill="#071D3D"/>
<path d="M44.2404 19.9624L44.2322 19.9743L44.7469 22.161L43.8751 22.3345L43.1025 18.3808L44.0478 18.1938L45.1896 20.2611L45.207 20.2589L44.6866 18.0668L45.5567 17.8923L46.3303 21.846L45.3893 22.0341L44.2404 19.9624Z" fill="#071D3D"/>
<path d="M49.9206 21.6486L49.8771 21.292H49.8646C49.7692 21.4604 49.664 21.5788 49.5459 21.6468C49.4281 21.7139 49.2653 21.7478 49.0605 21.7505C48.8701 21.751 48.7047 21.7249 48.5691 21.6633C48.4383 21.6054 48.3248 21.5141 48.2398 21.3983C48.1541 21.2827 48.0935 21.1497 48.0541 20.9954C48.0176 20.8395 47.9987 20.6711 47.9956 20.4786L47.9762 18.825C47.9722 18.3878 48.0684 18.0652 48.2711 17.8519C48.4736 17.6399 48.7888 17.5319 49.2188 17.5265C49.6316 17.5199 49.9468 17.6121 50.1685 17.7963C50.3893 17.9817 50.5012 18.276 50.5074 18.6768L50.5106 18.9772L49.571 18.9891L49.5678 18.7662C49.5678 18.5825 49.5459 18.4489 49.5062 18.3688C49.4656 18.2935 49.3875 18.2548 49.2705 18.2499C49.1315 18.2548 49.0363 18.2881 48.9863 18.3562C48.9369 18.4244 48.911 18.5317 48.9145 18.6746L48.9369 20.6672C48.9382 20.7855 48.9672 20.8733 49.0226 20.9338C49.0821 20.996 49.1694 21.026 49.2864 21.0238C49.3607 21.0215 49.4208 21.0074 49.4689 20.9785C49.5133 20.9496 49.5459 20.9098 49.5678 20.8662C49.587 20.816 49.6013 20.7648 49.6056 20.7109C49.6094 20.6536 49.6118 20.5854 49.6118 20.5031L49.6089 20.1853L49.2726 20.1902L49.2621 19.4646L50.5361 19.4504L50.5609 21.6415L49.9206 21.6486Z" fill="#071D3D"/>
<path d="M55.1569 21.0713L55.1694 21.074L55.9987 18.3618L56.8691 18.5346L55.4459 22.3574L54.4103 22.1502L54.671 19.3137L54.6614 19.3105L53.8135 22.0336L52.7952 21.8302L52.9073 17.7479L53.7972 17.9235L53.5315 20.7562L53.544 20.7454L54.4554 18.0527L55.3437 18.2299L55.1569 21.0713Z" fill="#071D3D"/>
<path d="M60.1486 21.0313C60.1797 20.96 60.2053 20.8961 60.2208 20.8378C60.2366 20.7836 60.2444 20.7274 60.2441 20.671C60.2441 20.6159 60.2308 20.5647 60.2027 20.5156C60.1727 20.4692 60.1262 20.4338 60.0564 20.4033C59.9907 20.3734 59.9329 20.3667 59.8762 20.3777C59.8212 20.3908 59.7754 20.4132 59.735 20.4529C59.6938 20.4945 59.6577 20.541 59.6275 20.5913C59.5934 20.6484 59.5628 20.7076 59.5361 20.7686L58.8927 22.2907C58.8673 22.3515 58.8448 22.4136 58.8251 22.4766C58.8097 22.5382 58.8006 22.6012 58.798 22.6647C58.798 22.7268 58.8122 22.7819 58.8408 22.8342C58.8694 22.8866 58.9165 22.9253 58.9795 22.9536C59.0459 22.9808 59.1071 22.9885 59.1636 22.9749C59.2189 22.9608 59.2687 22.93 59.306 22.8866C59.3473 22.8421 59.3832 22.7929 59.413 22.7399C59.4439 22.6855 59.4742 22.6238 59.5041 22.5545L60.1486 21.0313ZM60.3973 22.8522C60.213 23.2862 59.9892 23.568 59.7258 23.6973C59.4625 23.8303 59.1198 23.8024 58.6973 23.621C58.2753 23.4361 58.0139 23.2033 57.9237 22.9177C57.8334 22.6336 57.8788 22.2743 58.061 21.8432L58.6991 20.3385C58.85 19.9808 59.0692 19.754 59.3541 19.6504C59.6391 19.5457 59.9674 19.5751 60.3438 19.7392C60.7202 19.899 60.9679 20.1187 61.0839 20.3968C61.2026 20.6726 61.1863 20.9894 61.0372 21.3459L60.3973 22.8522Z" fill="#071D3D"/>
<path d="M63.3284 23.4388L63.3141 23.4415L62.1508 25.3573L61.4094 24.8623L63.6249 21.5089L64.4264 22.0459L63.7925 24.3247L63.805 24.3351L64.9678 22.4107L65.7091 22.9094L63.4927 26.2617L62.6959 25.7237L63.3284 23.4388Z" fill="#071D3D"/>
<path d="M29.7445 27.9385L30.0669 28.8817L30.893 28.3366L30.5386 29.2661L31.5202 29.3844L30.6541 29.8674L31.3315 30.5935L30.3613 30.4028L30.4156 31.3983L29.7939 30.6219L29.2011 31.4189L29.2203 30.4219L28.2583 30.6524L28.9065 29.8996L28.0237 29.4487L29.0011 29.2939L28.6127 28.3785L29.4598 28.8926L29.7445 27.9385Z" fill="#071D3D"/>
<path d="M66.987 24.9916L67.3077 25.9348L68.1356 25.3902L67.7807 26.3192L68.762 26.4374L67.8964 26.9216L68.5733 27.6466L67.6024 27.4564L67.658 28.4513L67.0352 27.675L66.4443 28.4731L66.4621 27.4771L65.5007 27.705L66.1486 26.9526L65.2673 26.5029L66.2445 26.3458L65.8544 25.431L66.7001 25.9456L66.987 24.9916Z" fill="#071D3D"/>
<path d="M36.4143 66.6226L37.2817 66.1386L36.2979 66.0191L36.6535 65.089L35.8275 65.6364L35.5069 64.6943L35.2197 65.6451L34.3734 65.1316L34.7629 66.0491L33.7861 66.205L34.6673 66.6536L34.0191 67.4065L34.9809 67.1781L34.963 68.1753L35.5539 67.3766L36.1764 68.1518L36.1218 67.1569L37.0922 67.3471L36.4143 66.6226Z" fill="#071D3D"/>
<path d="M68.2998 62.6999L68.6577 61.772L67.8284 62.3172L67.5062 61.374L67.2214 62.3281L66.3763 61.8118L66.7651 62.7299L65.7878 62.8864L66.6683 63.335L66.0195 64.0852L66.9813 63.8578L66.9643 64.8545L67.5565 64.0569L68.1777 64.8321L68.1236 63.8366L69.0929 64.028L68.4167 63.3017L69.2825 62.8188L68.2998 62.6999Z" fill="#071D3D"/>
<path d="M39.3323 66.1835L41.4537 67.0976L41.1286 67.8658L39.9397 67.3545L39.6786 67.971L40.7923 68.4508L40.4793 69.189L39.3655 68.7092L39.062 69.4278L40.2954 69.9593L39.9703 70.728L37.8037 69.7941L39.3323 66.1835Z" fill="#071D3D"/>
<path d="M43.8371 68.9689L43.8596 68.8773C43.9152 68.6538 43.8715 68.4444 43.6812 68.3959C43.4692 68.3425 43.333 68.4842 43.2905 68.6549C43.1041 69.4078 44.8043 69.4454 44.4586 70.8389C44.2569 71.6507 43.6958 71.8939 42.8277 71.6752C42.0127 71.4691 41.6276 71.0717 41.8235 70.2812L41.8568 70.1482L42.8093 70.3886L42.787 70.4785C42.7061 70.8046 42.8093 70.9561 42.9999 71.0041C43.2011 71.0547 43.3573 70.9239 43.4089 70.7156C43.5957 69.9627 41.9571 69.9464 42.2925 68.596C42.4833 67.8274 42.9956 67.5079 43.8266 67.7177C44.6842 67.9347 44.9608 68.3839 44.7581 69.2011L43.8371 68.9689Z" fill="#071D3D"/>
<path d="M46.7473 69.2188L45.9868 69.1473L46.0664 68.2821L48.5975 68.5177L48.5186 69.3834L47.7577 69.3125L47.4784 72.3584L46.4677 72.2646L46.7473 69.2188Z" fill="#071D3D"/>
<path d="M49.2427 71.3458L50.1598 71.3306L50.1777 72.4204L49.2605 72.4351L49.2427 71.3458Z" fill="#071D3D"/>
<path d="M52.6552 69.6896C52.5897 69.2939 52.5802 68.9662 52.7225 68.7051C52.8646 68.4444 53.152 68.258 53.668 68.1643C54.6657 67.9827 54.975 68.4129 55.0777 68.9863C55.1707 69.5059 55.0423 69.8702 54.8093 70.2087L54.3221 70.895C54.2516 70.9975 54.1486 71.1333 54.1315 71.2537L55.441 71.0155L55.5767 71.7739L53.0754 72.228C52.9811 71.6981 53.0282 71.1862 53.382 70.6585L53.9256 69.8548C54.0838 69.6254 54.1335 69.4655 54.0813 69.1788C54.0232 68.8544 53.9032 68.7699 53.7477 68.7983C53.6083 68.8234 53.482 68.9242 53.5594 69.3576L53.5888 69.5195L52.6552 69.6896Z" fill="#071D3D"/>
<path d="M57.7973 69.8034C57.9795 70.3279 58.1103 70.4385 58.311 70.3677C58.5125 70.2974 58.5455 70.1278 58.3637 69.6033L57.9416 68.3887C57.7597 67.8642 57.6286 67.7531 57.4281 67.8239C57.227 67.8948 57.1934 68.0638 57.3754 68.5883L57.7973 69.8034ZM57.2191 67.2215C58.0731 66.9195 58.5942 67.173 59.1103 68.6575C59.6257 70.143 59.3751 70.6686 58.5201 70.9707C57.666 71.2721 57.1447 71.0186 56.629 69.5341C56.1133 68.0491 56.3643 67.5235 57.2191 67.2215Z" fill="#071D3D"/>
<path d="M62.0326 69.3604L60.7843 67.0259L60.141 67.3765L59.8406 66.8138C60.3856 66.5112 60.5567 66.2746 60.4492 65.7954L61.0925 65.446L62.9262 68.8751L62.0326 69.3604Z" fill="#071D3D"/>
<path d="M65.175 67.4326L63.627 65.289L63.0363 65.7229L62.6636 65.2072C63.1631 64.8337 63.3012 64.5753 63.131 64.1158L63.7216 63.6813L65.996 66.8297L65.175 67.4326Z" fill="#071D3D"/>
<path d="M69.2441 53.9744C68.9868 54.1768 68.7184 54.3645 68.4402 54.5366C67.59 56.2295 66.5187 57.8 65.2548 59.2059C65.0225 59.464 64.7843 59.7167 64.5404 59.9637C64.3232 60.181 64.1016 60.3938 63.8759 60.6022C63.8541 60.6228 63.8332 60.6436 63.811 60.6637C63.7413 60.7286 63.6673 60.788 63.5965 60.8513C59.8899 64.1583 55.0199 66.1695 49.6823 66.1695H49.6818C43.877 66.1695 38.6268 63.7973 34.8216 59.9637C34.5575 59.6971 34.3029 59.4219 34.0534 59.1416C34.0383 59.1656 34.0187 59.182 33.9899 59.1847C33.8984 59.1939 33.7222 59.2136 33.4866 59.2375C33.4868 59.2386 33.4879 59.2398 33.4885 59.2408C35.2079 61.2242 37.2793 62.8898 39.6045 64.1376C39.6332 64.1523 39.6627 64.167 39.6914 64.1818C39.9828 64.3367 40.2777 64.4848 40.5758 64.626C40.646 64.6593 40.7177 64.6899 40.7879 64.7221C41.0473 64.8416 41.309 64.956 41.5729 65.065C41.6697 65.1048 41.7676 65.1424 41.8649 65.1811C42.1074 65.2767 42.3517 65.368 42.5974 65.4547C42.7117 65.4951 42.8267 65.5338 42.9421 65.5725C43.176 65.65 43.4111 65.7234 43.6474 65.7927C43.7747 65.8304 43.902 65.868 44.0306 65.9028C44.2592 65.9655 44.4899 66.0234 44.7213 66.0784C44.8583 66.1112 44.9946 66.1439 45.1322 66.1738C45.3608 66.2239 45.5917 66.2676 45.8229 66.3101C45.9645 66.3357 46.1055 66.3636 46.248 66.3864C46.4837 66.424 46.7211 66.4551 46.959 66.4852C47.0992 66.5037 47.2381 66.5243 47.3788 66.5396C47.6358 66.5669 47.8956 66.5865 48.155 66.6039C48.2783 66.6133 48.4 66.6258 48.5238 66.6329C48.9071 66.6535 49.2931 66.665 49.6815 66.665C50.0132 66.665 50.3424 66.6542 50.6706 66.6394C50.7631 66.6356 50.855 66.6301 50.9468 66.6247C51.2064 66.6089 51.4648 66.5892 51.7213 66.5648C51.7961 66.5581 51.8713 66.5527 51.9457 66.5445C52.2649 66.5107 52.5823 66.4698 52.8973 66.4224C52.9693 66.4114 53.0409 66.3984 53.1129 66.387C53.3643 66.3462 53.614 66.3008 53.8622 66.2523C53.9541 66.2333 54.0451 66.2152 54.1363 66.1962C54.4255 66.1353 54.7134 66.0684 54.9999 65.9956C55.0221 65.9901 55.0449 65.9852 55.0667 65.9787C55.3695 65.9007 55.6681 65.813 55.966 65.7218C56.2824 65.6233 56.5968 65.518 56.909 65.4062C56.9892 65.3768 57.0701 65.3495 57.1494 65.3195C57.4339 65.2137 57.7161 65.1014 57.9955 64.9826C58.0691 64.9526 58.141 64.9188 58.2143 64.8872C58.4286 64.7935 58.6414 64.6965 58.8527 64.5961C58.946 64.5514 59.0392 64.5067 59.1316 64.4615C59.3599 64.3486 59.5861 64.2316 59.8102 64.1103C59.8594 64.0841 59.9094 64.0596 59.9581 64.0329C60.2164 63.8902 60.4718 63.7421 60.7241 63.5886C60.816 63.533 60.9068 63.4757 60.9976 63.4196C61.1762 63.3072 61.3534 63.1926 61.5291 63.0756C61.6156 63.0172 61.7026 62.9617 61.7877 62.9028C62.0255 62.7394 62.2601 62.5712 62.4914 62.3985C62.5698 62.3401 62.6459 62.2785 62.7234 62.2186C62.8883 62.0916 63.0515 61.9622 63.2126 61.8304C63.3058 61.7552 63.3985 61.6788 63.4905 61.6003C63.6537 61.462 63.8149 61.3212 63.9738 61.1778C64.0508 61.1092 64.1292 61.041 64.2052 60.9707C64.4026 60.7878 64.5965 60.6012 64.7869 60.4108C64.8753 60.323 64.962 60.2336 65.0491 60.1442C65.1778 60.011 65.3051 59.8765 65.4311 59.7407C65.5151 59.6481 65.6006 59.5576 65.6835 59.4644C65.8676 59.2578 66.0484 59.0473 66.2247 58.8335C66.299 58.7437 66.3701 58.652 66.4428 58.5605C66.5595 58.4146 66.6743 58.2672 66.7872 58.1183C66.8689 58.0102 66.9497 57.9014 67.0294 57.7918C67.1391 57.6402 67.2471 57.4874 67.3533 57.3333C67.4328 57.2177 67.5124 57.1032 67.5898 56.986C67.7283 56.7762 67.8633 56.5641 67.9947 56.3498C68.0655 56.2331 68.1344 56.1148 68.2036 55.9971C68.2907 55.8483 68.3762 55.6985 68.4602 55.5479C68.5267 55.4274 68.5938 55.3074 68.6578 55.1864C68.7797 54.9564 68.8976 54.7243 69.0113 54.4901C69.018 54.476 69.0254 54.4623 69.0324 54.4477C69.0978 54.2877 69.1684 54.1298 69.2441 53.9744Z" fill="#071D3D"/>
<path d="M29.2078 40.2143C30.1048 36.2764 32.0826 32.7563 34.8212 29.9939C36.7236 28.0754 38.9881 26.525 41.502 25.4531C44.0161 24.3801 46.7803 23.787 49.6819 23.787C58.2816 23.787 65.6703 28.9994 68.9222 36.4597C69.0958 36.4411 69.2683 36.4231 69.4385 36.4051C69.2645 35.9979 69.0766 35.5994 68.8795 35.2057C68.8244 35.0972 68.7701 34.9882 68.7139 34.8803C68.6304 34.7207 68.5448 34.5622 68.4573 34.4049C68.3981 34.2982 68.3377 34.1923 68.2761 34.087C68.0792 33.7453 67.8732 33.409 67.6585 33.0784C67.6352 33.0424 67.6126 33.0048 67.5886 32.9689C67.4923 32.8222 67.3915 32.6794 67.2911 32.5349C67.2182 32.4291 67.1441 32.3241 67.0691 32.2198C66.9682 32.0804 66.8658 31.9421 66.7619 31.8049C66.6808 31.6986 66.5984 31.5932 66.5149 31.4888C66.3708 31.3053 66.2237 31.1242 66.0737 30.9457C65.9466 30.7953 65.8193 30.6442 65.6885 30.4971C65.582 30.3787 65.4735 30.2626 65.3648 30.146C65.2653 30.0384 65.1646 29.9319 65.0627 29.8265C64.9532 29.7132 64.8425 29.601 64.7305 29.4901C64.6176 29.3788 64.5032 29.2691 64.3874 29.1608C64.2783 29.0567 64.1698 28.9526 64.0585 28.8512C63.8606 28.6722 63.6597 28.4966 63.4559 28.3245C63.3487 28.2351 63.2398 28.1479 63.1316 28.0601C62.9991 27.953 62.8656 27.8472 62.731 27.7428C62.6201 27.6572 62.5096 27.5732 62.3972 27.4898C62.2423 27.3752 62.0858 27.2629 61.9276 27.1529C61.8352 27.0881 61.7446 27.0221 61.6512 26.9583C61.4136 26.798 61.1729 26.6423 60.9292 26.4916C60.827 26.4285 60.7228 26.3679 60.6193 26.3057C60.4524 26.2057 60.284 26.1081 60.1143 26.013C60.0075 25.9527 59.9001 25.8933 59.7924 25.8347C59.59 25.7264 59.3861 25.6212 59.1807 25.519C59.1088 25.4831 59.0387 25.446 58.9665 25.4111C58.6966 25.2808 58.4239 25.1563 58.1487 25.0377C58.0516 24.9962 57.9535 24.9564 57.8562 24.9155C57.6566 24.833 57.4558 24.7534 57.2539 24.6768C57.1523 24.6381 57.0512 24.5994 56.9487 24.5623C56.6981 24.4715 56.4459 24.3856 56.1921 24.3044C56.1462 24.2897 56.1002 24.2733 56.0545 24.2581C55.7561 24.1659 55.4557 24.08 55.1535 24.0007C55.06 23.9757 54.966 23.9534 54.8716 23.9299C54.6465 23.8732 54.4202 23.8204 54.1921 23.7712C54.094 23.75 53.9967 23.7293 53.8982 23.7091C53.6048 23.6502 53.3095 23.5962 53.0122 23.5499C52.99 23.5461 52.9688 23.5418 52.9467 23.5385C52.6286 23.4893 52.3072 23.4502 51.9844 23.4153C51.8891 23.4044 51.7936 23.3973 51.6985 23.3874C51.4564 23.3646 51.2135 23.346 50.9689 23.3324C50.8716 23.3258 50.7737 23.3199 50.676 23.3149C50.3461 23.3002 50.0146 23.2904 49.6811 23.2904C37.8044 23.2926 28.176 32.9995 28.176 44.9774C28.176 45.1879 28.1858 45.3956 28.1918 45.6045C28.3291 45.2642 28.4969 44.9345 28.6789 44.6116C28.7051 43.1025 28.8851 41.6312 29.2078 40.2143Z" fill="#071D3D"/>
<path d="M52.0168 31.0109L55.9058 30.5821C56.0055 30.571 56.0964 30.4789 56.1088 30.3762L56.3786 28.1421C56.3909 28.0394 56.3202 27.9651 56.2204 27.976L51.1334 28.537C51.0545 28.5458 50.9749 28.5875 50.9134 28.6524L49.3077 30.346L48.0732 28.9656C48.0258 28.9126 47.9544 28.8877 47.8754 28.8963L43.1686 29.4154C43.0895 29.4241 43.0097 29.4659 42.9482 29.5311L41.4329 31.1334C41.3755 31.1943 41.3382 31.2706 41.329 31.3467L40.5722 37.6145C40.5599 37.7173 40.6305 37.7917 40.7303 37.7806L42.8989 37.5415C42.9985 37.5305 43.0895 37.4384 43.1019 37.3356L43.7141 32.2646C43.7346 32.0951 43.8845 31.9431 44.049 31.9249L46.3593 31.6702C46.5237 31.652 46.6405 31.7747 46.6201 31.9442L46.0077 37.0152C45.9953 37.1179 46.0661 37.1922 46.1659 37.1813L48.3343 36.9421C48.434 36.9311 48.5249 36.8389 48.5373 36.7362L48.7111 35.2964L49.9449 36.6736C49.9922 36.7265 50.0636 36.7514 50.1426 36.7427L55.2297 36.1817C55.3294 36.1708 55.4203 36.0786 55.4327 35.9758L55.7024 33.7418C55.7149 33.6391 55.6441 33.5647 55.5443 33.5757L51.6553 34.0046C51.4909 34.0227 51.3741 33.9 51.3945 33.7306L51.6818 31.3507C51.7023 31.1811 51.8523 31.0291 52.0168 31.0109Z" fill="#071D3D"/>
</g>
</g>
<defs>
<clipPath id="clip0_3029_2967">
<rect width="90" height="61.2" fill="white" transform="translate(2.67114 14.3999)"/>
</clipPath>
</defs>
</svg>
