<svg width="25" height="24" viewBox="0 0 25 24" fill="none" xmlns="http://www.w3.org/2000/svg">
<path d="M5.02539 4.98951C5.02539 4.01835 5.02539 3.53277 5.2289 3.2651C5.40619 3.03191 5.67717 2.88761 5.97051 2.87018C6.30724 2.85017 6.71329 3.11953 7.52541 3.65823L18.0938 10.6686C18.7649 11.1137 19.1004 11.3363 19.2173 11.6168C19.3195 11.8621 19.3195 12.1377 19.2173 12.383C19.1004 12.6635 18.7649 12.886 18.0938 13.3312L7.52541 20.3415C6.71329 20.8802 6.30724 21.1496 5.97051 21.1296C5.67717 21.1122 5.40619 20.9679 5.2289 20.7347C5.02539 20.467 5.02539 19.9814 5.02539 19.0103V4.98951Z" fill="white" stroke="white" stroke-width="2" stroke-linecap="round" stroke-linejoin="round"/>
</svg>
