<svg width="70" height="70" viewBox="0 0 70 70" fill="none" xmlns="http://www.w3.org/2000/svg">
<g clip-path="url(#clip0_2788_6373)">
<mask id="mask0_2788_6373" style="mask-type:luminance" maskUnits="userSpaceOnUse" x="-20" y="-310" width="396" height="436">
<path d="M-19.9766 -309.946H375.888V125.505H-19.9766V-309.946Z" fill="white"/>
</mask>
<g mask="url(#mask0_2788_6373)">
<path d="M62.1702 31.1831C63.5961 31.4009 64.8187 31.9686 65.6182 32.8079C65.9679 33.1671 66.2415 33.593 66.4228 34.0603C66.6041 34.5276 66.6893 35.0267 66.6733 35.5276C66.6649 35.9842 66.5886 36.437 66.4471 36.8711L68.3191 34.9998L66.5546 33.2352L61.6172 28.2971C62.0096 29.4472 62.1395 30.4576 62.1702 31.1831Z" fill="#1A1B2E"/>
<path d="M28.7139 53.2081C27.9725 52.9528 27.2477 52.6515 26.5437 52.306C26.3799 52.74 26.2631 53.1904 26.1953 53.6494C27.0391 53.5276 27.879 53.3804 28.7139 53.2081Z" fill="#1A1B2E"/>
<path d="M4.34704 34.9962L3.59781 33.8874C3.48814 33.7256 3.38609 33.5587 3.29197 33.3874L1.67969 35.0004L6.72253 40.0439L7.28672 32.053L4.34704 34.9962Z" fill="#1A1B2E"/>
<path d="M52.5006 43.0252C51.259 45.7193 49.4144 48.0917 47.1094 49.9589C49.3124 50.1544 50.9149 50.7982 51.9469 51.375L57.4087 45.9132L62.8705 40.4507C60.3254 41.7816 56.6476 42.4959 52.5006 43.0252Z" fill="#1A1B2E"/>
<path d="M17.0289 41.9419C15.9982 42.393 14.7777 42.707 13.3672 42.8839L9.96875 43.2909L17.7977 51.1191C18.1656 49.5955 18.8423 48.1606 19.8114 46.8423C18.6463 45.3557 17.7085 43.7042 17.0289 41.9419Z" fill="#1A1B2E"/>
<path d="M42.8038 60.5186C40.6273 60.7512 38.4041 61.4194 36.0125 62.1414C34.1601 62.7007 32.2692 63.2698 30.3203 63.6371L35.0029 68.3203L42.8038 60.5186Z" fill="#1A1B2E"/>
<path d="M66.4479 36.8721C66.5887 36.4371 66.6649 35.9837 66.6742 35.5266C66.7 34.5008 66.3348 33.5596 65.6191 32.8082C64.8189 31.9682 63.5976 31.3984 62.1711 31.1834C62.1249 30.1999 61.9385 29.2282 61.6174 28.2975L68.32 34.9987L66.4479 36.8721ZM51.9444 51.375C50.913 50.7968 49.3105 50.1537 47.1075 49.9582C49.4122 48.0911 51.2566 45.719 52.4981 43.0252C56.6457 42.4959 60.3235 41.7802 62.8693 40.4507L51.9444 51.375ZM40.6395 16.5799C42.5828 16.1331 44.0219 15.8705 45.077 15.7204L45.0749 15.7232C47.5795 15.3671 48.4188 15.6589 48.4188 15.6589C48.4188 15.6589 48.2317 14.1647 45.2334 14.5829C44.2753 14.717 42.9773 14.7435 35.3041 16.8334L35.0387 16.8984C34.9815 16.9123 34.924 16.9263 34.8663 16.9403C34.4548 17.0413 34.0423 17.1418 33.629 17.2419C32.8994 17.4187 32.1678 17.5872 31.4343 17.7474L31.0852 17.8249C30.2806 17.9978 29.4722 18.1531 28.6608 18.2907L28.3194 18.3451C26.955 18.5581 25.6276 18.6908 24.363 18.6908L24.31 18.6901C24.1838 18.6901 24.0593 18.688 23.9364 18.6838C23.9117 18.6829 23.8871 18.6815 23.8624 18.6796C23.7483 18.6764 23.6354 18.6719 23.5237 18.6664L23.5049 18.665C19.464 18.4213 17.534 16.5269 17.5333 16.5269L17.5354 16.5255C17.5368 16.5241 17.542 16.5215 17.5508 16.5178L17.5976 16.4864C17.6134 16.4757 17.6323 16.4633 17.6541 16.4494L17.6897 16.4256L17.7924 16.3558L17.8664 16.3062C17.9027 16.282 17.9416 16.2555 17.983 16.2266C18.1457 16.1135 18.3419 15.9739 18.5584 15.816L18.6757 15.7281C19.3118 15.2526 20.0778 14.6262 20.5959 14.0201C20.1791 12.9455 19.9738 11.8004 19.876 11.0309C19.8667 10.961 19.8585 10.894 19.8516 10.8298C19.8385 10.7134 19.8276 10.6096 19.8188 10.5183C19.8113 10.4378 19.8055 10.3691 19.8013 10.3124L19.8006 10.3019L19.7894 10.1329L19.7315 8.92701L20.8445 9.39274C20.973 9.44627 21.1015 9.49702 21.2299 9.54496C21.2662 9.55893 21.3023 9.57267 21.3382 9.58617C21.4396 9.62294 21.5409 9.65855 21.6419 9.693L21.7313 9.72442C21.8593 9.76678 21.9866 9.80681 22.1132 9.84452C22.1391 9.8529 22.1649 9.85779 22.1907 9.86617C22.295 9.89596 22.3991 9.92458 22.5029 9.95205C22.5392 9.96229 22.5753 9.97137 22.6111 9.97928C22.8638 10.0426 23.1183 10.0985 23.3743 10.1469C23.408 10.1515 23.4416 10.1573 23.4748 10.1643C23.5749 10.1815 23.6748 10.1974 23.7744 10.2118L23.8701 10.2279C23.9964 10.2446 24.1214 10.2628 24.2485 10.2753C24.2676 10.2777 24.2867 10.2798 24.3058 10.2816C24.4147 10.2937 24.5227 10.304 24.6298 10.3124L24.738 10.3207C24.8441 10.3286 24.9503 10.3352 25.0564 10.3403L25.1206 10.3445C25.2459 10.3496 25.3709 10.3531 25.4956 10.3549L25.5927 10.3556L25.7498 10.3577L25.8301 10.3563L26.1911 10.3515L26.3244 10.3473C26.5171 10.3383 26.7096 10.3269 26.9019 10.3131C27.0369 10.3033 27.1712 10.2916 27.3048 10.2781L27.4626 10.2614C27.5781 10.2497 27.6937 10.2362 27.8097 10.2209L27.9661 10.2013C28.1039 10.1818 28.2419 10.1615 28.3801 10.1406C28.4057 10.1373 28.4309 10.1334 28.4555 10.1287C28.6194 10.1031 28.783 10.0752 28.9464 10.0449C28.9906 10.0365 29.0356 10.0282 29.0812 10.0198C29.2022 9.99744 29.3235 9.97346 29.445 9.94786C29.498 9.93716 29.5513 9.92645 29.6049 9.91574L29.9659 9.83683C30.012 9.82753 30.0576 9.81728 30.1027 9.80611C30.2671 9.77027 30.4316 9.73163 30.5964 9.6902C30.6118 9.68648 30.6274 9.68299 30.6432 9.67973C30.7922 9.64202 30.9416 9.60432 31.0915 9.56661C31.1427 9.55265 31.1944 9.53891 31.2465 9.52541L31.6005 9.43115C31.6531 9.41719 31.7057 9.40298 31.7583 9.38855C31.8901 9.35271 32.022 9.3157 32.1542 9.27753C32.1877 9.26915 32.2213 9.25961 32.2548 9.2489C32.4205 9.20375 32.5862 9.15627 32.7519 9.10646C32.7966 9.09528 32.8413 9.07992 32.886 9.06875C33.0103 9.03244 33.1351 8.9952 33.2603 8.95703C33.3189 8.94074 33.3771 8.92328 33.4348 8.90466L33.7924 8.79922C33.845 8.7834 33.8973 8.7678 33.9495 8.75244L34.3943 8.61767C34.4059 8.61348 34.4182 8.60999 34.4313 8.6072C34.7129 8.52061 34.9955 8.43519 35.2789 8.35094L35.5624 8.26645L36.3543 8.03532C36.4706 8.00134 36.5877 7.96852 36.7055 7.93687C36.8005 7.90894 36.8959 7.88171 36.9918 7.85517C39.1941 7.24629 41.4509 6.7631 43.767 6.7631C45.3702 6.7631 46.7765 7.20858 47.8211 7.98784C48.0507 8.1594 48.2655 8.34975 48.4635 8.55693C48.9533 9.07084 49.3177 9.69096 49.5284 10.3689C49.7162 10.5128 49.9348 10.6922 50.1533 10.9143C50.2501 11.0143 50.3453 11.1228 50.4389 11.2396C50.883 11.7983 51.2573 12.5691 51.2649 13.6382C51.2649 14.1891 51.1448 14.7435 50.9172 15.2749C50.7457 15.6721 50.5297 16.0485 50.2734 16.397C50.1957 16.5039 50.1142 16.608 50.029 16.7091L57.3524 24.0311L54.4162 24.4089L54.2409 25.1532C54.2381 25.163 54.0685 25.8829 53.7926 26.8842L51.3592 24.8334C50.4864 23.4335 49.4374 22.1515 48.238 21.0188C46.0837 18.9699 43.4823 17.4502 40.6395 16.5799ZM35.0003 68.3183L30.3178 63.6365C32.266 63.2706 34.1561 62.6987 36.01 62.1408C38.4016 61.4188 40.6241 60.7492 42.8013 60.5173L35.0003 68.3183ZM26.1946 53.6478C26.2635 53.1888 26.3796 52.7415 26.543 52.3058C27.2474 52.6514 27.9727 52.9527 28.7146 53.2079C27.8793 53.3806 27.0389 53.5273 26.1946 53.6478ZM23.2668 19.7298C22.0617 20.6603 20.9694 21.7285 20.0122 22.9125C19.8097 22.6255 19.5834 22.3462 19.3335 22.0829C18.5696 21.2778 17.6206 20.6285 16.5244 20.1564L18.2421 18.4387C19.39 19.0532 21.0163 19.5957 23.2682 19.7298H23.2668ZM17.8008 51.118L9.97187 43.2898L13.3696 42.8827C14.781 42.7054 16.0016 42.3919 17.0313 41.9422C17.7113 43.704 18.6493 45.3551 19.8146 46.8412C18.8447 48.1609 18.1681 49.5958 17.8008 51.118ZM35.0003 1.68115L39.4713 6.15141H39.4727C37.644 6.51591 35.8662 7.05427 34.1205 7.58006C31.8372 8.26785 29.6524 8.9263 27.5038 9.17768L35.0003 1.68115ZM6.72426 40.0429L1.68072 34.9987L3.2937 33.3871C3.39984 33.577 3.50155 33.7439 3.59884 33.8877L4.34738 34.9952L7.28845 32.0527L6.72426 40.0429ZM70 34.9987L69.16 34.158L51.5024 16.5003C51.8983 15.8621 52.3389 14.8748 52.3389 13.6368V13.6305C52.3298 12.5475 51.9904 11.0029 50.4389 9.71953C49.9906 8.53807 49.1604 7.54025 48.0306 6.83152C46.8394 6.08368 45.366 5.69057 43.767 5.69057C42.8092 5.69331 41.8527 5.76401 40.9048 5.90214L35.841 0.839043L35.0003 -0.000961304L34.1596 0.839043L25.7149 9.28451C22.2934 9.27194 18.5779 7.284 18.5772 7.2826C18.5772 7.284 18.3901 10.7613 19.3649 13.752C18.4327 14.6011 15.7954 16.2846 15.794 16.286C15.794 16.286 16.1731 17.0045 17.2184 17.7879L17.2142 17.7851L15.2849 19.7144C14.7919 19.5719 14.2899 19.4625 13.7823 19.387C8.68916 18.6189 3.42916 22.1765 2.52212 27.0001C2.09688 29.2611 2.35594 30.99 2.77908 32.221L0.840708 34.158L0 34.9987L0.840708 35.8394L6.61253 41.6126L6.4652 43.7102L8.47131 43.4693L17.5494 52.5467C17.514 52.8539 17.491 53.1625 17.4803 53.4726C17.3902 56.0869 18.1199 58.271 19.6505 59.9713C20.5868 62.448 23.1858 64.0317 26.3545 64.0317C27.2036 64.0317 28.0415 63.973 28.8675 63.8662L34.1596 69.159L35.0003 69.999L35.841 69.159L44.5672 60.4321C46.039 60.4477 47.4938 60.7487 48.8511 61.3182L51.5757 62.4564L51.4339 59.5056C51.4235 59.3017 51.3271 57.6545 50.7887 55.943C51.7628 55.0094 53.1663 54.1038 53.1824 54.0933L54.338 53.3539L53.3681 52.384C53.3451 52.3623 53.211 52.229 52.9624 52.039L69.16 35.8394L70 34.9987Z" fill="white"/>
<path d="M8.83729 25.7509L7.65654 42.4561L13.2301 41.7899C17.6535 41.2362 19.4474 39.3306 19.9061 36.9957C20.6889 32.7921 16.669 31.6616 16.669 31.6616C16.669 31.6616 20.0863 30.4515 20.1247 26.6314C20.1296 24.0673 18.0362 21.1444 13.6148 20.4783C8.96019 19.7758 4.37541 23.0954 3.60383 27.2046C3.04452 30.1771 3.7763 32.1832 4.50947 33.2704L7.25573 30.52C5.64903 25.9296 9.3156 23.3181 12.8998 23.809C15.3996 24.1637 16.308 25.7823 16.3541 27.2102C16.4023 28.6919 15.5741 30.1583 13.9995 30.5465C13.5952 30.6478 13.059 30.6408 13.059 30.6408L12.9054 32.9807C12.9054 32.9807 13.5499 32.945 13.9213 33.0121C15.2355 33.2397 16.4023 34.4707 16.0566 36.3086C15.7752 37.8084 14.8102 38.7616 13.0583 38.9054C12.5816 38.9502 12.1058 39.0032 11.631 39.0646L12.6093 25.0819L8.83729 25.7509Z" fill="#1A1B2E"/>
<path d="M61.044 32.1906C61.044 32.1906 61.5761 28.5407 58.4067 25.0089L55.3155 25.4056C55.3155 25.4056 53.3548 33.7246 51.797 33.8685C50.0485 34.0877 50.7021 30.0574 51.8563 26.6938L50.9884 25.9621L47.0558 26.4683C47.0558 26.4683 46.8414 25.8336 47.289 24.7694C47.289 24.7694 44.0239 25.1235 43.9848 25.1179C43.5952 26.2937 43.5149 27.9696 44.6866 29.1091C44.3018 31.065 43.2628 35.3006 41.763 35.5136C39.9538 35.7405 41.2826 30.8799 42.4235 27.0248L39.1354 27.4466L38.898 28.5819C38.3589 27.8439 37.4896 27.3551 36.2369 27.5164C33.9173 27.8146 32.1312 30.1335 31.4071 32.7792C30.4812 34.9948 29.0197 37.0498 26.7524 37.3032C22.7235 37.6454 23.3009 32.0013 25.8168 31.611C27.3739 31.4644 27.265 33.8245 25.2889 33.7966L25.4069 35.5939C28.29 36.2691 29.6642 34.2127 29.8667 32.5655C30.1097 30.5873 28.5442 28.5345 25.3482 28.8675C18.3873 29.6615 18.6729 41.2812 26.9577 40.3337C28.9722 40.1033 30.4281 38.8457 31.458 37.3828C32.0159 38.6942 33.1883 39.5174 35.1386 39.2674C36.5379 39.0873 37.0567 38.0636 37.0567 38.0636L36.6894 35.7712C35.5289 36.4821 34.0227 35.8334 34.6651 33.0585C34.8837 32.0565 35.5219 30.7563 36.6196 30.6202C38.3548 30.4791 37.6802 33.2135 37.6802 33.2135C37.1118 36.3298 38.1872 38.9141 41.6526 38.4686C45.7207 37.9456 47.0656 29.6105 47.0656 29.6105L48.3476 29.4464C47.1507 34.0612 47.7715 37.6817 51.0757 37.2571C54.958 36.7586 57.0647 28.1742 57.0647 28.1742C57.9326 29.5707 58.191 31.2249 58.2615 32.2723C57.2462 32.4985 56.3112 32.8567 55.592 33.3301L55.5997 33.7351C55.6416 36.2677 58.7551 37.6237 60.4596 34.4899L60.4568 34.5011C61.8457 34.1178 63.3846 34.5521 63.1821 35.6937C62.5041 39.5076 49.0465 38.2654 36.924 39.7862C26.9598 41.034 18.8474 45.822 18.5849 53.5092C18.492 56.1989 19.3655 58.0751 20.6161 59.3878C21.3242 61.551 23.5328 62.9287 26.3544 62.9287C29.5769 62.9287 32.6856 61.9923 35.6909 61.0839C40.3099 59.6916 44.6726 58.3754 49.2777 60.2998L50.39 60.7641L50.332 59.5589C50.3278 59.4674 50.2231 57.469 49.5255 55.6703C50.5631 54.4616 52.5888 53.1635 52.5888 53.1635C52.5888 53.1635 50.3858 51.0003 45.7591 51.0003C42.3872 51.0003 38.5635 51.9395 34.8181 52.8591C29.8674 54.2207 26.8446 54.7367 25.0208 54.8959C24.782 48.2087 32.6374 44.0854 42.14 43.0276C50.346 42.1122 58.9353 41.6848 63.0313 39.0873C64.4837 38.1656 65.5297 37.1594 65.5723 35.4982C65.6246 33.4558 63.5452 32.2485 61.044 32.1906Z" fill="#1A1B2E"/>
<path d="M27.9941 58.4209V57.5466C28.4214 57.5215 28.6351 57.4985 29.0617 57.4377V57.7848C29.2754 57.7547 29.3822 57.7373 29.5952 57.6989L29.5987 56.766H29.5959C29.3829 56.8051 29.2761 56.8219 29.0617 56.8533V57.1263L28.7775 56.8924C28.4377 56.9371 28.0958 56.965 27.7532 56.9762C27.5996 57.1347 27.5228 57.2136 27.3698 57.3686V58.638C27.5144 58.7847 27.587 58.858 27.7315 59.0004C28.2308 58.983 28.4815 58.9592 28.9821 58.8908V59.7867C28.6222 59.84 28.2598 59.8744 27.8963 59.89V59.5395C27.7175 59.5486 27.5384 59.5528 27.3594 59.5521L27.3664 60.4863C27.5765 60.4863 27.682 60.4835 27.8935 60.4724V60.163C28.0143 60.2817 28.0758 60.3397 28.1987 60.4542C28.6079 60.4228 28.8139 60.399 29.223 60.3355C29.3767 60.1588 29.4528 60.0681 29.6064 59.8865V58.5968C29.4618 58.4732 29.3892 58.4104 29.2454 58.284C28.8312 58.3531 28.4134 58.3988 27.9941 58.4209Z" fill="white"/>
<path d="M35.7047 58.0338L34.5651 58.3711L34.5665 56.0459C35.0225 55.9125 35.2501 55.8462 35.7054 55.7149L35.7047 58.0338ZM34.32 55.5278C34.1643 55.7303 34.0861 55.8315 33.9304 56.0361L33.9297 58.7545C34.0847 58.8683 34.1629 58.9234 34.3193 59.0352C34.9715 58.8417 35.2976 58.7426 35.9512 58.5506L36.3401 58.0429L36.3408 55.34C36.1851 55.2261 36.1076 55.1682 35.9519 55.0551C35.299 55.2408 34.9729 55.3379 34.32 55.5278Z" fill="white"/>
<path d="M38.8816 54.8704L39.1686 54.8069C39.1686 55.7258 39.1686 56.1908 39.1672 57.1076C38.7643 57.1977 38.5625 57.2473 38.1589 57.3499L38.1596 55.0408C38.2734 55.0121 38.3306 54.9989 38.4459 54.9723V54.3963C38.0404 54.4915 37.6365 54.5935 37.2344 54.7021V55.2789C37.3503 55.2475 37.4075 55.2321 37.5235 55.2021L37.5228 57.7116L37.9124 58C38.5129 57.8422 38.8131 57.7682 39.4136 57.6376L39.8033 57.1656L39.804 54.6777C39.9192 54.6532 39.9771 54.6435 40.0931 54.6232V54.0499C39.6871 54.1215 39.2831 54.2039 38.8816 54.2971V54.8704Z" fill="white"/>
<path d="M30.5938 56.5582V57.1475C30.7774 57.1049 30.8689 57.0826 31.0518 57.0379L31.0511 59.3687C30.8682 59.4148 30.7767 59.4364 30.5938 59.4797V60.0684C31.5399 59.8519 32.0133 59.7095 32.9595 59.4308V58.4931L32.4441 58.6425V59.0056C32.1411 59.0922 31.9903 59.1355 31.6879 59.2179V58.285C32.0803 58.1775 32.2773 58.1216 32.6697 58.0078L32.6704 57.5637C32.344 57.6599 32.0165 57.7523 31.6879 57.8409V56.8564C31.991 56.774 32.1418 56.7307 32.4441 56.6448V57.0037L32.9602 56.8557L32.9609 55.92L32.9497 55.9242C32.0077 56.1965 31.5371 56.3382 30.5938 56.5582Z" fill="white"/>
<path d="M21.7548 58.4033L21.8595 58.4989L21.8937 58.6365C22.0697 59.355 22.9146 61.7012 26.3528 61.7012C29.393 61.7012 32.4137 60.7892 35.3345 59.908C39.7364 58.5799 44.2828 57.2093 49.0344 58.89C48.9576 58.2713 48.8033 57.3426 48.4982 56.4447C48.4147 56.1969 48.3187 55.9536 48.2105 55.7157L48.0848 55.4427L48.281 55.2157C48.5212 54.9378 48.7914 54.6515 49.0861 54.3617C49.1643 54.2863 49.2395 54.2142 49.3116 54.1453L49.3249 54.1327C49.5239 53.9449 49.7355 53.755 49.954 53.5664L49.9875 53.5371C50.0783 53.4589 50.1654 53.3853 50.2487 53.3165L50.2752 53.2955L50.4072 53.1852C46.3922 51.1812 39.6728 52.9212 33.7355 54.4609C27.9469 55.9601 22.9481 57.2546 20.8666 55.1319L20.8582 55.1242C20.3876 54.618 20.1069 53.9777 19.9421 53.3381C19.7926 54.8715 20.058 56.8566 21.7548 58.4033Z" fill="#E22531"/>
<path d="M43.0094 56.5752C42.7142 56.5838 42.4194 56.6022 42.1254 56.6304L42.1261 54.3569C42.3084 54.3422 42.3984 54.3345 42.58 54.3241V53.7431C42.0618 53.771 41.5453 53.823 41.0319 53.8988V54.4805C41.2156 54.4553 41.3071 54.4428 41.4907 54.4211V56.6905C41.3071 56.7128 41.2156 56.7254 41.0319 56.7526L41.0312 57.3398C42.0291 57.1918 42.5276 57.1436 43.5254 57.1436V56.2191C43.3188 56.2191 43.2161 56.2212 43.0094 56.2275V56.5752Z" fill="white"/>
<path d="M39.4682 6.15147L34.9979 1.6812L27.5 9.17773C29.6492 8.92636 31.8341 8.2679 34.1174 7.58011C35.8624 7.05432 37.6394 6.51666 39.4682 6.15147Z" fill="#1A1B2E"/>
<path d="M16.5234 20.1561C17.619 20.6295 18.5686 21.2782 19.3325 22.084C19.5825 22.3484 19.8088 22.6244 20.0113 22.9121C20.3301 22.5178 20.6658 22.1345 21.0181 21.7621C21.7135 21.0277 22.4647 20.3483 23.2651 19.7301C21.0154 19.5954 19.3891 19.0535 18.2405 18.4384L16.5234 20.1561Z" fill="#1A1B2E"/>
<path d="M50.0276 16.7087C50.0856 16.6396 50.1715 16.5349 50.272 16.3966L50.3446 16.2954C50.3465 16.2921 50.3484 16.2893 50.3502 16.287C50.3726 16.2553 50.3951 16.2223 50.4179 16.1878C50.4226 16.1794 50.4277 16.1722 50.4333 16.1662L50.4948 16.0691L50.5164 16.0356L50.5744 15.9413C50.5827 15.9274 50.5914 15.9134 50.6002 15.8994L50.654 15.8052C50.6633 15.787 50.673 15.7696 50.6833 15.7528L50.735 15.6558L50.765 15.5992L50.8167 15.4931C50.825 15.4742 50.8341 15.4588 50.8418 15.4414C50.8674 15.3855 50.8918 15.3297 50.9151 15.2738C51.1434 14.7431 51.2635 14.1894 51.2635 13.6385C51.2559 12.5687 50.8816 11.7986 50.4375 11.2392C50.3478 11.1259 50.2522 11.0173 50.1512 10.9139C49.9567 10.7166 49.7478 10.5341 49.5263 10.3678C49.3155 9.69012 48.9511 9.07024 48.4614 8.55653C48.2646 8.34864 48.0499 8.15845 47.8197 7.98814C46.7744 7.20749 45.3688 6.7627 43.7656 6.7627C41.4495 6.7627 39.1927 7.24659 36.9904 7.85478C36.8945 7.88085 36.7988 7.90808 36.7034 7.93647C36.5861 7.96806 36.4692 8.00135 36.3529 8.03632C36.088 8.11174 35.8241 8.18831 35.5611 8.26605L35.2776 8.35054C34.9936 8.43526 34.711 8.52045 34.4299 8.60611L34.3929 8.61728L33.9481 8.75134C33.8957 8.7674 33.8433 8.78137 33.791 8.79952C33.6723 8.83444 33.5531 8.86935 33.4334 8.90426C33.3757 8.92288 33.3175 8.94057 33.2589 8.95733L32.8839 9.06766C32.8392 9.08069 32.7948 9.09349 32.7505 9.10606C32.5848 9.15541 32.4191 9.20312 32.2534 9.2492C32.2199 9.25945 32.1861 9.26875 32.1521 9.27713C32.0199 9.31531 31.8882 9.35255 31.7569 9.38886C31.7039 9.40142 31.6515 9.41749 31.5984 9.43075L31.2451 9.52572C31.1927 9.53759 31.1411 9.55295 31.0894 9.56622C30.9404 9.60392 30.791 9.64139 30.6411 9.67863L30.5943 9.69051C30.4305 9.73088 30.2662 9.76906 30.1013 9.80502C30.0561 9.81702 30.0104 9.8275 29.9645 9.83644L29.6035 9.91535L29.4436 9.94816C29.3212 9.9733 29.1999 9.99704 29.0798 10.0194C29.0342 10.0273 28.9892 10.0357 28.945 10.0445C28.7812 10.0743 28.6175 10.1022 28.4541 10.1283L28.3787 10.1409C28.24 10.1614 28.102 10.1814 27.9647 10.2009C27.9121 10.2065 27.8597 10.2133 27.8076 10.2212C27.6926 10.2351 27.5771 10.2486 27.4612 10.2617C27.2747 10.2824 27.0878 10.2992 26.9005 10.312L26.8104 10.3203C26.6481 10.3313 26.4856 10.3401 26.3231 10.3469L26.1897 10.3504C26.0696 10.3522 25.9493 10.3539 25.8287 10.3552L25.7484 10.3573C25.6963 10.3564 25.6436 10.3557 25.5906 10.3552L25.4942 10.3539C25.369 10.3525 25.244 10.3492 25.1193 10.3441C25.0974 10.3431 25.076 10.3417 25.055 10.3399L24.7366 10.321L24.6284 10.312C24.5208 10.3026 24.4128 10.2926 24.3044 10.2819C24.2848 10.2796 24.2657 10.277 24.2471 10.2743C24.1205 10.2608 23.9944 10.2449 23.8687 10.2268C23.8365 10.2221 23.8044 10.217 23.7723 10.2114C23.6732 10.197 23.5735 10.1814 23.4735 10.1646C23.3127 10.1351 23.1523 10.1035 22.9924 10.0697L22.9553 10.0606C22.8404 10.0354 22.7252 10.0082 22.6097 9.97889C22.5734 9.97097 22.5373 9.96189 22.5015 9.95165C22.3977 9.92419 22.2934 9.89556 22.1887 9.86577C22.1635 9.85739 22.1377 9.8525 22.1118 9.84412C21.9852 9.80642 21.8579 9.76661 21.7299 9.72472C21.7001 9.71401 21.6703 9.70354 21.6405 9.6933C21.5395 9.65885 21.4383 9.62301 21.3368 9.58577C21.3009 9.57227 21.2649 9.5583 21.2285 9.54387C21.1001 9.49685 20.9716 9.44611 20.8431 9.39165L19.7294 8.92661L19.788 10.1318L19.7992 10.3022V10.3113L19.8167 10.5179L19.8495 10.8301L19.8739 11.0305C19.9724 11.8 20.177 12.9444 20.5945 14.0204C20.0757 14.6258 19.3097 15.2508 18.6743 15.7277L18.557 15.815C18.3287 15.9822 18.0977 16.1458 17.8643 16.3058C17.8383 16.3235 17.8138 16.3398 17.791 16.3547L17.6884 16.4252C17.6753 16.4327 17.6632 16.4404 17.652 16.4483L17.5955 16.486L17.5487 16.5167C17.5403 16.5214 17.5352 16.5239 17.5333 16.5244C17.5324 16.5262 17.5312 16.5272 17.5312 16.5272C17.5312 16.5272 19.4626 18.4216 23.5028 18.6646L23.5223 18.666C23.6336 18.6715 23.7465 18.6762 23.861 18.6799L23.935 18.6834C24.0579 18.6881 24.1824 18.6902 24.3086 18.6897L24.3616 18.6911C25.6262 18.6897 26.9536 18.557 28.318 18.3448L28.6594 18.2896C29.5885 18.1333 30.5133 17.9526 31.4329 17.7477C32.1626 17.5885 32.8944 17.4175 33.6276 17.2408C34.0409 17.1407 34.4534 17.0404 34.8649 16.9399L35.0367 16.898L35.3027 16.833C41.5752 15.1244 43.5876 14.7948 44.637 14.6572C44.8703 14.6279 45.0574 14.6063 45.232 14.5811C47.8393 14.2194 48.3204 15.3003 48.4014 15.5887C48.4132 15.6327 48.4167 15.6578 48.4167 15.6578C48.4167 15.6578 47.5774 15.366 45.0728 15.7228L45.0756 15.7207C44.0205 15.8694 42.5821 16.1327 40.6367 16.5789C43.4795 17.4501 46.0811 18.9696 48.2366 21.0177C49.4352 22.151 50.4838 23.4329 51.3571 24.8323L53.7913 26.8838C54.0664 25.8818 54.2367 25.1626 54.2388 25.1528L54.4148 24.4078L57.3503 24.03L50.0276 16.7087Z" fill="#1A1B2E"/>
<path d="M27.9941 58.4209V57.5466C28.4214 57.5215 28.6351 57.4985 29.0617 57.4377V57.7848C29.2754 57.7547 29.3822 57.7373 29.5952 57.6989L29.5987 56.766H29.5959C29.3829 56.8051 29.2761 56.8219 29.0617 56.8533V57.1263L28.7775 56.8924C28.4377 56.9371 28.0958 56.965 27.7532 56.9762C27.5996 57.1347 27.5228 57.2136 27.3698 57.3686V58.638C27.5144 58.7847 27.587 58.858 27.7315 59.0004C28.2308 58.983 28.4815 58.9592 28.9821 58.8908V59.7867C28.6222 59.84 28.2598 59.8744 27.8963 59.89V59.5395C27.7175 59.5486 27.5384 59.5528 27.3594 59.5521L27.3664 60.4863C27.5765 60.4863 27.682 60.4835 27.8935 60.4724V60.163C28.0143 60.2817 28.0758 60.3397 28.1987 60.4542C28.6079 60.4228 28.8139 60.399 29.223 60.3355C29.3767 60.1588 29.4528 60.0681 29.6064 59.8865V58.5968C29.4618 58.4732 29.3892 58.4104 29.2454 58.284C28.8312 58.3531 28.4134 58.3988 27.9941 58.4209Z" fill="white"/>
<path d="M35.7047 58.0338L34.5651 58.3711L34.5665 56.0459C35.0225 55.9125 35.2501 55.8462 35.7054 55.7149L35.7047 58.0338ZM34.32 55.5278C34.1643 55.7303 34.0861 55.8315 33.9304 56.0361L33.9297 58.7545C34.0847 58.8683 34.1629 58.9234 34.3193 59.0352C34.9715 58.8417 35.2976 58.7426 35.9512 58.5506L36.3401 58.0429L36.3408 55.34C36.1851 55.2261 36.1076 55.1682 35.9519 55.0551C35.299 55.2408 34.9729 55.3379 34.32 55.5278Z" fill="white"/>
<path d="M38.8816 54.8704L39.1686 54.8069C39.1686 55.7258 39.1686 56.1908 39.1672 57.1076C38.7643 57.1977 38.5625 57.2473 38.1589 57.3499L38.1596 55.0408C38.2734 55.0121 38.3306 54.9989 38.4459 54.9723V54.3963C38.0404 54.4915 37.6365 54.5935 37.2344 54.7021V55.2789C37.3503 55.2475 37.4075 55.2321 37.5235 55.2021L37.5228 57.7116L37.9124 58C38.5129 57.8422 38.8131 57.7682 39.4136 57.6376L39.8033 57.1656L39.804 54.6777C39.9192 54.6532 39.9771 54.6435 40.0931 54.6232V54.0499C39.6871 54.1215 39.2831 54.2039 38.8816 54.2971V54.8704Z" fill="white"/>
<path d="M30.5938 56.5582V57.1475C30.7774 57.1049 30.8689 57.0826 31.0518 57.0379L31.0511 59.3687C30.8682 59.4148 30.7767 59.4364 30.5938 59.4797V60.0684C31.5399 59.8519 32.0133 59.7095 32.9595 59.4308V58.4931L32.4441 58.6425V59.0056C32.1411 59.0922 31.9903 59.1355 31.6879 59.2179V58.285C32.0803 58.1775 32.2773 58.1216 32.6697 58.0078L32.6704 57.5637C32.344 57.6599 32.0165 57.7523 31.6879 57.8409V56.8564C31.991 56.774 32.1418 56.7307 32.4441 56.6448V57.0037L32.9602 56.8557L32.9609 55.92L32.9497 55.9242C32.0077 56.1965 31.5371 56.3382 30.5938 56.5582Z" fill="white"/>
<path d="M43.0094 56.5752C42.7142 56.5838 42.4194 56.6022 42.1254 56.6304L42.1261 54.3569C42.3084 54.3422 42.3984 54.3345 42.58 54.3241V53.7431C42.0618 53.771 41.5453 53.823 41.0319 53.8988V54.4805C41.2156 54.4553 41.3071 54.4428 41.4907 54.4211V56.6905C41.3071 56.7128 41.2156 56.7254 41.0319 56.7526L41.0312 57.3398C42.0291 57.1918 42.5276 57.1436 43.5254 57.1436V56.2191C43.3188 56.2191 43.2161 56.2212 43.0094 56.2275V56.5752Z" fill="white"/>
<path d="M35.6101 15.5147C36.1484 15.3779 36.684 15.2396 37.2182 15.1069L38.2432 14.8479C41.9726 13.9038 45.1923 13.089 47.4407 13.2949C48.9315 13.4332 49.4301 14.3947 49.5956 15.0685C49.8127 14.7187 50.0515 14.2097 50.0522 13.6462C50.0417 12.4885 49.4636 11.8279 48.5977 11.1918L48.4644 11.0933L48.426 10.932C48.3678 10.695 48.285 10.4647 48.1788 10.2449C47.4994 8.84702 45.811 7.98118 43.7714 7.98118C40.7283 7.98118 37.7077 8.89241 34.7868 9.77292C30.3822 11.1017 25.833 12.4745 21.0772 10.7868C21.1547 11.4229 21.3097 12.3509 21.6155 13.251C21.7054 13.5149 21.8013 13.7584 21.9032 13.9813L22.0261 14.2481L21.8348 14.4708C21.5776 14.7649 21.3093 15.0491 21.0304 15.3227C20.9508 15.3988 20.8782 15.47 20.8048 15.5378L20.7923 15.551C20.5926 15.7382 20.3803 15.9302 20.1631 16.1166L20.1317 16.1432C20.0452 16.2193 19.9575 16.294 19.8685 16.3673L19.8433 16.3875L19.6953 16.509C23.6977 18.5605 29.7531 17.0132 35.6101 15.5147Z" fill="#E22531"/>
<path d="M26.3667 15.5188C26.066 15.5456 25.7647 15.5661 25.4632 15.5803L25.4646 13.3019C25.8269 13.283 26.0071 13.2684 26.3702 13.2348L26.3667 15.5188ZM26.9903 15.6515L26.9944 12.9786C26.8415 12.8438 26.7647 12.7747 26.6132 12.6385C25.7236 12.7328 25.2788 12.7607 24.3906 12.7607V13.3305C24.5701 13.3305 24.6602 13.3291 24.8403 13.3249L24.8396 15.6026C24.69 15.6058 24.5403 15.6072 24.3906 15.6068V16.1836C25.2767 16.1836 25.7208 16.1599 26.6069 16.0768C26.7605 15.9085 26.8366 15.824 26.9903 15.6515Z" fill="white"/>
<path d="M28.6383 12.9258C29.0859 12.8469 29.3094 12.8016 29.757 12.7087L29.7486 15.0318C29.3024 15.1191 29.0782 15.1589 28.6314 15.2336L28.6383 12.9258ZM29.9881 15.5764C30.141 15.3879 30.2171 15.2957 30.3707 15.1051L30.3819 12.3819C30.2297 12.2576 30.1529 12.1962 30.0013 12.0712C29.4698 12.1908 28.9353 12.2963 28.3981 12.3875L28.0141 12.8407L28.0078 15.5262C28.16 15.6574 28.2368 15.7259 28.3884 15.8564C29.0287 15.7601 29.3478 15.7028 29.9881 15.5764Z" fill="white"/>
<path d="M32.0189 12.1801C32.4665 12.0677 32.69 12.0083 33.1382 11.8896L33.1243 14.2602C32.6767 14.374 32.4539 14.4299 32.0071 14.536L32.0189 12.1801ZM33.3617 14.8062L33.7457 14.3049L33.7632 11.5258C33.611 11.4071 33.5356 11.3471 33.3833 11.227C32.7423 11.3994 32.4211 11.4853 31.7801 11.6473L31.3961 12.141L31.3828 14.8831L31.7627 15.1924C32.403 15.0457 32.7221 14.9661 33.3617 14.8062Z" fill="white"/>
<path d="M39.1774 12.006L39.4965 10.7631L39.7898 11.865C39.5454 11.9208 39.4225 11.9481 39.1774 12.006ZM40.1131 13.0855C40.4413 13.0101 40.6053 12.9759 40.9342 12.9082L40.9482 12.3077L40.6242 12.3726C40.3603 11.4474 40.0928 10.5215 39.8331 9.59354L39.7388 9.6117L39.2053 9.72272L38.6649 9.84492L38.6586 10.4496L39.0168 10.3672C38.7948 11.2116 38.5743 12.0568 38.3555 12.9026L38.0134 12.9885L38.0078 13.6016C38.3346 13.5185 38.498 13.4759 38.8262 13.3949L38.8297 13.3935V13.3788L39.0322 12.5989C39.3918 12.5116 39.5705 12.469 39.9308 12.3887C40.0041 12.6645 40.0405 12.8041 40.1131 13.0848V13.0855Z" fill="white"/>
<path d="M44.7211 9.61719V9.05229C44.1939 9.05229 43.9306 9.06277 43.4034 9.09838L43.4 9.67514C43.5431 9.66257 43.6157 9.65908 43.7589 9.6514L43.7512 11.1338C43.3581 10.3504 43.1639 9.96492 42.7778 9.14865C42.461 9.17774 42.1448 9.21359 41.8296 9.25618L41.8226 9.84482C41.9741 9.82387 42.0509 9.8134 42.2024 9.79524C42.1934 10.7218 42.1892 11.1645 42.1787 12.0911C42.0509 12.1107 41.9234 12.1317 41.796 12.154L41.7891 12.7461C42.3225 12.6546 42.5886 12.6134 43.1227 12.5443L43.1269 11.9606C42.9866 11.978 42.9175 11.9864 42.7771 12.0052L42.789 10.5026C43.1842 11.2881 43.3832 11.6673 43.7854 12.4703C44.159 12.4319 44.3454 12.4179 44.7211 12.3956V11.8251L44.351 11.8453L44.3552 9.62487C44.5018 9.62068 44.5751 9.61928 44.7211 9.61719Z" fill="white"/>
<path d="M35.4947 12.1562L35.5009 11.2624C35.9276 11.1472 36.1413 11.0899 36.5679 10.9782L36.5644 11.3364C36.7774 11.2805 36.8842 11.2526 37.0979 11.1981L37.109 10.2248C37.1081 10.2248 37.1074 10.2252 37.1069 10.2262C36.8919 10.2799 36.7857 10.3086 36.5721 10.3644L36.57 10.6535C36.4569 10.569 36.4003 10.5257 36.2879 10.4398C35.8773 10.5488 35.6734 10.6039 35.2628 10.7156L34.8781 11.2268C34.8739 11.7477 34.8718 12.006 34.869 12.5227C35.0122 12.6359 35.0841 12.6903 35.2272 12.8013L36.475 12.4697L36.468 13.3886C36.0351 13.5017 35.818 13.559 35.3857 13.6742L35.3885 13.3118L34.8516 13.4542V14.4248L35.3774 14.2865C35.3781 14.1546 35.3781 14.091 35.3801 13.9591C35.5009 14.0568 35.561 14.1071 35.6825 14.2076C36.091 14.0987 36.2956 14.045 36.7047 13.9381L37.0895 13.4319L37.1007 12.1115L36.7432 11.8252C36.2432 11.9558 35.9932 12.0228 35.4947 12.1562Z" fill="white"/>
<path d="M5.66556 35.0002L7.18567 33.4829L7.28622 32.064L4.34375 35.0002L6.89869 37.5488L6.98527 36.3185L5.66556 35.0002Z" fill="#E22531"/>
<path d="M35.0039 64.2786L33.5788 62.8556C33.2338 62.9533 32.8873 63.0469 32.5391 63.1363L35.0039 65.5977L39.4546 61.1546C38.8541 61.3082 38.246 61.4793 37.628 61.6595L35.0039 64.2786Z" fill="#E22531"/>
<path d="M57.0069 42.3132L49.0391 50.2678C49.387 50.3489 49.7312 50.4456 50.0704 50.5576L58.7079 41.9362C58.1439 42.075 57.5767 42.2007 57.0069 42.3132Z" fill="#E22531"/>
<path d="M13.5445 42.8604C13.4872 42.8692 13.4297 42.8771 13.372 42.8841L12.3672 43.0042L18.4888 49.1133C18.622 48.8154 18.7681 48.5216 18.9274 48.2321L13.5445 42.8604Z" fill="#E22531"/>
<path d="M32.7185 7.9992L34.9998 5.72147L36.235 6.9546C36.5781 6.85684 36.9232 6.76164 37.2705 6.66901L34.9998 4.40315L30.8828 8.51172C31.4882 8.35531 32.1006 8.18144 32.7185 7.9992Z" fill="#E22531"/>
<path d="M46.2105 15.5938C45.8307 15.6261 45.4518 15.6692 45.0744 15.7229C45.0577 15.7243 45.0407 15.7262 45.0234 15.7285L54.281 24.9707L54.4137 24.4107L54.9709 24.3381L46.2105 15.5938Z" fill="#E22531"/>
<path d="M20.1631 19.2156L18.2422 21.1316C18.4978 21.3178 18.74 21.5162 18.9691 21.7266L21.2252 19.474C20.8472 19.3995 20.4931 19.3134 20.1631 19.2156Z" fill="#E22531"/>
<path d="M43.9708 22.953C44.1091 22.7218 44.2327 22.4746 44.3493 22.2414C44.4631 21.9977 44.5685 21.7617 44.6607 21.5173C44.5315 21.5648 44.3981 21.6004 44.2662 21.6409C44.1342 21.6814 43.9994 21.7128 43.8661 21.7478C43.7503 21.984 43.6257 22.2157 43.4925 22.4425C43.3553 22.6736 43.2093 22.8993 43.0547 23.1191C43.209 23.101 43.3612 23.0731 43.5148 23.0458C43.6678 23.0228 43.8186 22.9851 43.9708 22.953Z" fill="#E22531"/>
<path d="M44.3544 22.8577C44.587 23.0085 44.823 23.1398 45.0716 23.2738C45.3187 23.4058 45.5736 23.5252 45.8376 23.6439L45.3502 23.815L44.8558 23.9658C44.3496 23.6865 43.8803 23.3905 43.4453 23.0567L43.6743 23.0162L43.902 22.9673C44.0542 22.9366 44.205 22.8982 44.3544 22.8577Z" fill="#E22531"/>
<path d="M46.2688 22.2094C46.3826 21.9643 46.4803 21.706 46.5732 21.463C46.6619 21.2074 46.7422 20.9623 46.8092 20.7109C46.6849 20.7696 46.5558 20.8199 46.4287 20.8743C46.3009 20.9274 46.1696 20.9714 46.0411 21.021C45.9502 21.2674 45.8501 21.5104 45.7409 21.7493C45.6282 21.9934 45.5061 22.2331 45.375 22.4678C45.5258 22.4315 45.6755 22.3912 45.824 22.347C45.9741 22.3093 46.1214 22.2555 46.2688 22.2094Z" fill="#E22531"/>
<path d="M46.6418 22.0761C46.8876 22.2018 47.1362 22.3086 47.3973 22.4161C47.6603 22.5222 47.927 22.6189 48.1968 22.7059C48.0414 22.7799 47.8854 22.8532 47.729 22.9259L47.2528 23.127C46.7361 22.9113 46.2364 22.6571 45.7578 22.3665L45.9813 22.303L46.2026 22.2311C46.3506 22.1843 46.4966 22.1305 46.6418 22.0761Z" fill="#E22531"/>
<path d="M41.5473 23.2334C41.905 22.8368 42.2349 22.4159 42.5346 21.9737C42.3956 21.99 42.2561 22.0021 42.1164 22.01L41.9069 22.0233L41.6953 22.0289C41.3616 22.4471 41.0015 22.8436 40.6172 23.2159C40.7722 23.2236 40.9265 23.2264 41.0822 23.232L41.5473 23.2334Z" fill="#E22531"/>
<path d="M41.9464 23.223C42.3449 23.6139 42.7705 23.9763 43.22 24.3074L42.9645 24.3423L42.7096 24.3681L42.4547 24.3919L42.2006 24.4072C41.7704 24.0351 41.3773 23.6391 41.0156 23.2321C41.1713 23.2376 41.3257 23.2341 41.4814 23.2355C41.6364 23.2328 41.7914 23.2286 41.9464 23.223Z" fill="#E22531"/>
<path d="M39.1078 23.0742C39.5238 22.7345 39.9232 22.3749 40.3046 21.9968C40.0165 21.9759 39.7276 21.9468 39.4381 21.9095C39.0341 22.2659 38.6169 22.6072 38.1875 22.9325C38.4933 22.9857 38.8001 23.033 39.1078 23.0742Z" fill="#E22531"/>
<path d="M39.5083 23.1237C39.8309 23.5643 40.178 23.993 40.5571 24.4141C40.2229 24.3964 39.8919 24.3701 39.5642 24.3352C39.22 23.903 38.8936 23.4569 38.5859 22.998C38.8925 23.0448 39.1997 23.0888 39.5083 23.1237Z" fill="#E22531"/>
<path d="M36.706 22.6426C37.1522 22.3305 37.5914 22.0114 38.0173 21.6839C37.7231 21.6285 37.4278 21.57 37.1313 21.5086C36.6927 21.8219 36.248 22.1331 35.7969 22.4422C36.0995 22.5106 36.4025 22.5774 36.706 22.6426Z" fill="#E22531"/>
<path d="M37.0973 22.7244C37.3801 23.1909 37.6741 23.6524 37.9869 24.1133C37.6703 24.0584 37.3544 23.9992 37.0394 23.9359C36.7447 23.4681 36.4633 23.001 36.1875 22.5303C36.4898 22.5953 36.7936 22.6623 37.0973 22.7244Z" fill="#E22531"/>
<path d="M34.3239 22.1084L35.675 21.1853L34.7645 20.9793C34.3106 21.2865 33.8582 21.5973 33.4141 21.9122C33.7166 21.976 34.0199 22.0414 34.3239 22.1084Z" fill="#E22531"/>
<path d="M34.7131 22.195L35.535 23.6104L34.6258 23.4044C34.3535 22.9344 34.0826 22.4631 33.8047 21.9953L34.7131 22.195Z" fill="#E22531"/>
<path d="M31.9295 21.6348C32.3589 21.2996 32.8051 20.9756 33.2569 20.6572C32.9436 20.5953 32.6273 20.5371 32.308 20.4826C31.8635 20.8086 31.4299 21.149 31.0078 21.5035C31.316 21.5412 31.6232 21.585 31.9295 21.6348Z" fill="#E22531"/>
<path d="M32.318 21.7003C32.6141 22.1591 32.8941 22.6199 33.1678 23.085C32.8713 23.024 32.5762 22.9663 32.2824 22.9118C32.0013 22.4509 31.7065 21.9984 31.3984 21.5551L31.8586 21.6249L32.318 21.7003Z" fill="#E22531"/>
<path d="M29.5011 21.3867C29.8851 20.9964 30.2985 20.6284 30.7307 20.2674L30.2357 20.2241L29.7371 20.1948C29.4285 20.4779 29.131 20.7731 28.8454 21.0795C28.7512 21.1807 28.6597 21.2848 28.5703 21.3853C28.726 21.3811 28.8803 21.3762 29.0361 21.3783L29.2686 21.3797L29.5011 21.3867Z" fill="#E22531"/>
<path d="M29.8995 21.4044C30.2466 21.8219 30.5657 22.2576 30.8645 22.6934L30.4309 22.6466C30.2864 22.6354 30.1418 22.62 29.9987 22.6117C29.6782 22.1821 29.3343 21.7704 28.9688 21.3785C29.2792 21.3771 29.5895 21.3857 29.8995 21.4044Z" fill="#E22531"/>
<path d="M27.0689 21.5248C27.222 21.2995 27.3845 21.0765 27.5563 20.8559C27.728 20.6401 27.9089 20.4173 28.0995 20.2086C27.9297 20.2183 27.7602 20.2325 27.5912 20.2512C27.4208 20.2637 27.2525 20.2896 27.0828 20.3119C26.9083 20.5347 26.7442 20.7721 26.5885 20.999C26.4349 21.2371 26.2896 21.4661 26.1562 21.707C26.4584 21.6344 26.7626 21.5737 27.0689 21.5248Z" fill="#E22531"/>
<path d="M27.4573 21.4706C27.6647 21.6431 27.8651 21.8309 28.0564 22.0111C28.2484 22.2024 28.4307 22.386 28.6059 22.5829C28.3253 22.5926 28.0451 22.6121 27.7659 22.6416C27.5781 22.4594 27.3826 22.2855 27.178 22.113C26.9741 21.9489 26.7597 21.7751 26.5391 21.62C26.8421 21.5565 27.1493 21.5097 27.4573 21.4706Z" fill="#E22531"/>
<path d="M24.7133 22.1585C24.9137 21.6488 25.1595 21.1509 25.4472 20.6524C25.2824 20.7012 25.1176 20.7473 24.9542 20.8011C24.7916 20.857 24.6289 20.9093 24.4683 20.9687C24.2288 21.4739 24.0253 21.9954 23.8594 22.5293C23.999 22.4604 24.1401 22.3959 24.2825 22.3359L24.4962 22.243L24.7133 22.1585Z" fill="#E22531"/>
<path d="M25.0846 22.0211C25.2056 22.0862 25.3239 22.1512 25.4393 22.2159C25.5562 22.2852 25.6709 22.3555 25.7836 22.4268C26.0077 22.565 26.2256 22.7186 26.4329 22.8716C26.1633 22.9373 25.8963 23.0137 25.6327 23.1006C25.2964 22.8894 24.9476 22.6989 24.5881 22.5301C24.4671 22.4724 24.344 22.4165 24.2188 22.3625C24.3605 22.3004 24.5029 22.2382 24.6482 22.1831C24.7927 22.1272 24.9373 22.0693 25.0846 22.0211Z" fill="#E22531"/>
<path d="M22.5365 23.2636C22.6352 22.7259 22.7718 22.1859 22.9464 21.6436C22.5246 21.9808 21.9842 22.5786 21.9842 22.5786C21.9178 22.8565 21.9395 22.6973 21.8878 22.9689C21.8419 23.2402 21.8012 23.5123 21.7656 23.7852L22.1476 23.5184C22.2747 23.4283 22.4073 23.348 22.5365 23.2636Z" fill="#E22531"/>
<path d="M22.8772 23.0555C23.0085 23.0932 23.1374 23.133 23.264 23.1749C23.3932 23.2168 23.5203 23.2636 23.646 23.3076C23.7707 23.3551 23.8939 23.4026 24.0154 23.45C24.1383 23.5027 24.2588 23.5555 24.3771 23.6086C24.1236 23.7299 23.8749 23.8608 23.6313 24.001C23.1411 23.825 22.6251 23.6756 22.0938 23.5569C22.2194 23.4661 22.3521 23.3844 22.4813 23.2999L22.6768 23.1735L22.8772 23.0555Z" fill="#E22531"/>
<path d="M29.1173 49.5423C28.7923 50.0053 28.4345 50.4445 28.0469 50.8564L28.3073 50.8439L28.5664 50.8236L28.8254 50.7999L29.0817 50.7699C29.442 50.3195 29.7604 49.8523 30.0467 49.381C29.8931 49.4138 29.7381 49.4397 29.583 49.4697C29.4287 49.4969 29.273 49.5179 29.1173 49.5423Z" fill="#E22531"/>
<path d="M31.9208 48.876C31.4383 48.6085 30.9712 48.3216 30.5312 48.0206C30.8133 47.9461 31.0957 47.8642 31.3782 47.7748C31.8384 48.0541 32.3181 48.3139 32.8111 48.5666C32.5161 48.6748 32.2193 48.7779 31.9208 48.876Z" fill="#E22531"/>
<path d="M31.5365 48.9971C31.2915 49.5029 31.0212 49.996 30.7266 50.4746C31.0561 50.3957 31.3822 50.3112 31.7027 50.2142C31.9737 49.7156 32.2111 49.2073 32.4324 48.7024C32.1358 48.8067 31.8371 48.905 31.5365 48.9971Z" fill="#E22531"/>
<path d="M34.2324 48.0049C33.7304 47.7752 33.2332 47.5377 32.75 47.2906C33.033 47.1807 33.3168 47.0678 33.6012 46.9519C34.096 47.1856 34.5962 47.4151 35.1017 47.6404C34.8127 47.7624 34.5229 47.8839 34.2324 48.0049Z" fill="#E22531"/>
<path d="M33.8578 48.1563C33.6603 48.6778 33.4498 49.1942 33.2266 49.7051C33.5338 49.5915 33.8375 49.4747 34.1378 49.3546C34.3459 48.8336 34.5407 48.3162 34.7292 47.7946C34.4397 47.918 34.1492 48.0386 33.8578 48.1563Z" fill="#E22531"/>
<path d="M36.5074 47.0352L34.9922 46.3634L35.8622 45.9906C36.3699 46.214 36.8775 46.4388 37.3788 46.6721C37.0879 46.7922 36.7974 46.9132 36.5074 47.0352Z" fill="#E22531"/>
<path d="M36.1388 47.1938L35.5781 48.7559L36.4468 48.383C36.6318 47.8642 36.8154 47.3461 37.0075 46.828L36.1388 47.1938Z" fill="#E22531"/>
<path d="M38.8152 46.125C38.325 45.8694 37.8222 45.6278 37.3125 45.3925C37.6137 45.2734 37.9184 45.1577 38.2265 45.0455C38.7321 45.2913 39.232 45.5531 39.7096 45.824C39.4098 45.9192 39.1116 46.0195 38.8152 46.125Z" fill="#E22531"/>
<path d="M38.4295 46.2627C38.2209 46.7705 38.023 47.2827 37.8359 47.7988C38.1201 47.6836 38.4036 47.5705 38.6864 47.4651C38.8819 46.956 39.0893 46.4533 39.319 45.9498L38.8729 46.1028L38.4295 46.2627Z" fill="#E22531"/>
<path d="M41.1879 45.4326C40.7333 45.1149 40.255 44.8223 39.7578 44.5423L40.2424 44.4083L40.7347 44.2868C40.9784 44.4439 41.2137 44.5947 41.4448 44.7602C41.5607 44.8412 41.6741 44.9229 41.7849 45.0053C41.8971 45.09 42.0074 45.1752 42.1158 45.2608C41.9601 45.2846 41.8037 45.3076 41.6501 45.3384L41.4183 45.3823L41.1879 45.4326Z" fill="#E22531"/>
<path d="M40.7965 45.5239C40.5327 45.9999 40.2903 46.4876 40.0703 46.9854L40.4942 46.859C40.6357 46.8189 40.7774 46.7808 40.9194 46.7445C41.1568 46.2668 41.4201 45.7913 41.7189 45.3277C41.4093 45.3827 41.1017 45.4481 40.7965 45.5239Z" fill="#E22531"/>
<path d="M43.6359 45.125C43.4423 44.929 43.2395 44.7365 43.0277 44.5475C42.8162 44.3639 42.5955 44.1767 42.3672 44.0036C42.539 43.9791 42.7107 43.9659 42.8825 43.9505C43.0536 43.9338 43.2274 43.9275 43.3999 43.9184C43.822 44.2963 44.2159 44.7045 44.5786 45.1396C44.2651 45.1208 43.9501 45.118 43.6359 45.125Z" fill="#E22531"/>
<path d="M43.2381 45.1425C43.0655 45.354 42.8995 45.5708 42.7403 45.7926C42.5854 46.0112 42.4375 46.2348 42.2969 46.4629C42.5804 46.4189 42.8632 46.3889 43.1453 46.3665C43.4586 45.9265 43.8052 45.5112 44.1822 45.1243C43.867 45.1173 43.5523 45.1234 43.2381 45.1425Z" fill="#E22531"/>
<path d="M46.1006 45.3244C45.7991 44.8445 45.4626 44.3876 45.0938 43.9572C45.2662 43.9768 45.4394 43.9921 45.6119 44.0152C45.7836 44.041 45.9561 44.0641 46.1272 44.0927C46.4658 44.5675 46.764 45.0458 47.0189 45.5381C46.8676 45.4948 46.7151 45.4561 46.5615 45.4222L46.3325 45.3691L46.1006 45.3244Z" fill="#E22531"/>
<path d="M45.7027 45.256C45.5951 45.3409 45.489 45.4275 45.3843 45.5158C45.2805 45.6061 45.1792 45.6966 45.0805 45.7874C44.8846 45.9673 44.6962 46.155 44.5156 46.3502C44.7959 46.3656 45.0752 46.393 45.3535 46.4326C45.6497 46.1596 45.9624 45.9052 46.2899 45.6708C46.4007 45.5917 46.5136 45.5142 46.6286 45.4383C46.4749 45.4006 46.3227 45.3636 46.167 45.3377C46.0127 45.3077 45.8584 45.2756 45.7027 45.256Z" fill="#E22531"/>
<path d="M48.4702 46.0281C48.2683 45.5006 48.033 44.9866 47.7656 44.4891C47.929 44.5429 48.0938 44.5931 48.2558 44.6483L48.739 44.8264C48.8549 45.0917 48.9631 45.3549 49.0637 45.6161C49.161 45.8828 49.2511 46.1465 49.3339 46.4072L48.9059 46.2124C48.7627 46.1454 48.6154 46.0902 48.4702 46.0281Z" fill="#E22531"/>
<path d="M48.089 45.8818C47.9657 45.9456 47.8444 46.0089 47.7252 46.0718C47.6044 46.1388 47.4857 46.2086 47.3698 46.2757C47.2539 46.3446 47.1399 46.4146 47.0277 46.4858C46.9146 46.5606 46.8042 46.6332 46.6953 46.71C46.9697 46.7812 47.2407 46.8699 47.5102 46.9648C47.9668 46.6967 48.4542 46.4537 48.9619 46.2394C48.8194 46.1709 48.6735 46.1144 48.5282 46.0536L48.3097 45.9635L48.089 45.8818Z" fill="#E22531"/>
<path d="M29.486 48.5853C29.3054 48.7263 29.1304 48.8711 28.9609 49.0196C29.1418 49.1788 29.3282 49.3275 29.523 49.4805L29.986 49.3953C30.141 49.3597 30.2939 49.3289 30.4468 49.2933C30.1117 49.0664 29.7898 48.8325 29.486 48.5853Z" fill="#E22531"/>
</g>
</g>
<defs>
<clipPath id="clip0_2788_6373">
<rect width="70" height="70" fill="white"/>
</clipPath>
</defs>
</svg>
