<svg width="70" height="70" viewBox="0 0 70 70" fill="none" xmlns="http://www.w3.org/2000/svg">
<g opacity="0.9">
<g clip-path="url(#clip0_2788_5968)">
<path d="M54.5808 36.6011V36.0215L56.4399 33.5217L60.9154 36.6011H54.5808ZM67.1 25.7982H60.8204L63.0744 22.7692L61.7625 21.091C58.581 17.0006 54.5166 13.6956 49.8783 11.4272C45.2399 9.15881 40.1498 7.98669 34.9948 7.99998C29.8398 7.98669 24.7497 9.15881 20.1114 11.4272C15.473 13.6956 11.4086 17.0006 8.22714 21.091L6.91524 22.7692L9.1717 25.8007H2V30.6893H6.08062V41.5174H11.6306V30.9439L19.7143 41.8072H16.1235L21.8484 48.6917H26.2064L34.9948 60.5L43.7808 48.6917H48.1413L54.1135 41.5174H67.1V34.6003L61.3302 30.6289H67.1V25.7982Z" fill="white"/>
<path d="M35.0703 40.5488H38.7786V26.7672H35.0703V40.5488Z" fill="#C00C3F"/>
<path d="M50.0199 34.1981L44.495 26.7668H40.3594L41.4814 28.2762V40.5508H45.0797V33.117L50.6047 40.5508H53.6183V26.7668H50.0199V34.1981Z" fill="#C00C3F"/>
<path d="M29.0613 26.7674V35.1965L27.652 37.089L26.2426 35.1965V26.7674H22.7143V35.1965L21.3074 37.089L19.8981 35.1965V26.7674H16.3672V35.698L19.978 40.5488H22.6343L24.4785 38.0692L26.3251 40.5488H28.9789L32.5922 35.698V26.7674H29.0613Z" fill="#C00C3F"/>
<path d="M34.9922 52.8622V58.8848L45.3699 44.942H40.887L34.9922 52.8622Z" fill="#231F20"/>
<path d="M34.9949 58.8857V52.8631L29.1001 44.9405H24.6172L34.9949 58.8857Z" fill="#C00C3F"/>
<path d="M34.3557 22.3539H31.2971V17.1654H29.8203V23.6113H34.3557V22.3539Z" fill="#6D6E71"/>
<path d="M37.6826 23.707C38.6772 23.707 39.6442 23.4525 40.1715 23.0796V19.9498H37.6101V21.1544H38.8121V22.2833C38.4674 22.3955 38.1073 22.4524 37.7451 22.4521C36.4182 22.4521 35.9734 21.7717 35.9734 20.3883C35.9734 19.0679 36.3932 18.2917 37.7251 18.2917C38.4623 18.2917 38.8846 18.5261 39.2319 18.9721L40.1515 18.1204C39.5942 17.314 38.6122 17.067 37.6926 17.067C35.6261 17.067 34.5391 18.206 34.5391 20.3757C34.5391 22.5378 35.5186 23.707 37.6826 23.707Z" fill="#6D6E71"/>
<path d="M18.1797 42.7761L22.2928 47.7227H47.6911L51.8042 42.7761H18.1797Z" fill="#6D6E71"/>
<path d="M27.3859 45.9538C27.5815 46.064 27.8015 46.1229 28.0256 46.1251C28.3529 46.1251 28.4754 46.0017 28.4754 45.8429C28.4754 45.6942 28.3554 45.6186 28.2979 45.5884C28.113 45.4926 27.8956 45.4271 27.6957 45.344C27.4009 45.1928 27.2509 45.0516 27.2509 44.6787C27.2509 44.2377 27.5633 43.9731 28.1405 43.9731C28.4086 43.9659 28.6738 44.0293 28.9102 44.1571L28.7502 44.525C28.5649 44.4174 28.3544 44.3617 28.1405 44.3637C27.8406 44.3637 27.7207 44.4746 27.7207 44.6384C27.7207 44.719 27.7457 44.782 27.7932 44.8249C27.838 44.8643 27.8885 44.8966 27.9431 44.9206C28.098 44.9937 28.3279 45.0743 28.5178 45.165C28.7477 45.281 28.9376 45.4246 28.9376 45.8152C28.9376 46.2536 28.5978 46.5283 28.0331 46.5283C27.7471 46.5273 27.4654 46.4582 27.2109 46.3267L27.3859 45.9538Z" fill="white"/>
<path d="M30.7109 44.0092H32.2102V44.4024H31.1807V45.0197H32.1753V45.4028H31.1807V46.0983H32.2502V46.4863H30.7109V44.0092Z" fill="white"/>
<path d="M34.4929 45.2775C34.4929 45.7512 34.6153 46.1418 35.0277 46.1418C35.5124 46.1418 35.6574 45.8117 35.6574 45.2119C35.6574 44.7432 35.5399 44.3476 35.1226 44.3476C34.6528 44.3476 34.4929 44.6853 34.4929 45.2775ZM36.1446 45.2598C36.1446 46.104 35.7823 46.5273 35.0377 46.5273C34.2705 46.5273 34.0156 46.0259 34.0156 45.2346C34.0156 44.3879 34.3705 43.9721 35.1176 43.9721C35.8748 43.9721 36.1446 44.4635 36.1446 45.2598Z" fill="white"/>
<path d="M37.9375 44.0084H38.4048V45.5355C38.4048 45.916 38.5222 46.1453 38.8296 46.1453C39.1919 46.1453 39.3219 45.9639 39.3219 45.47V44.0084H39.7891V45.5027C39.7891 46.2184 39.4443 46.5283 38.8346 46.5283C38.2299 46.5283 37.9375 46.2234 37.9375 45.475V44.0084Z" fill="white"/>
<path d="M41.6797 44.0092H42.1495V46.0983H43.1015V46.4863H41.6797V44.0092Z" fill="white"/>
<path d="M34.9926 12.583V8.96693C29.9827 8.95456 25.0359 10.0943 20.5283 12.2994C16.0208 14.5045 12.0711 17.7169 8.97961 21.6925L8.125 22.7837L9.4319 24.54H13.9148L12.6679 22.8668C15.4335 19.6305 18.8605 17.0357 22.714 15.2607C26.5675 13.4856 30.7562 12.5721 34.9926 12.583Z" fill="#C00C3F"/>
<path d="M61.8623 22.7837L61.0077 21.6925C57.9154 17.7172 53.9653 14.5049 49.4574 12.2998C44.9494 10.0948 40.0024 8.95492 34.9922 8.96693V12.583C43.6307 12.583 51.692 16.3125 57.3169 22.8643L56.0725 24.54H60.5554L61.8623 22.7837Z" fill="#231F20"/>
<path d="M2.96094 29.7211H7.04406V40.5518H10.6724V29.7211H14.753V26.7678H2.96094V29.7211Z" fill="#C00C3F"/>
<path d="M66.1405 29.6597V26.7668H55.9927V32.0435L62.5147 36.529V37.5697H55.7578V40.5508H66.1405V35.1103L59.5761 30.5946V29.6597H66.1405Z" fill="#C00C3F"/>
</g>
</g>
<defs>
<clipPath id="clip0_2788_5968">
<rect width="65.1" height="52.5" fill="white" transform="translate(2 8)"/>
</clipPath>
</defs>
</svg>
