<svg width="70" height="70" viewBox="0 0 70 70" fill="none" xmlns="http://www.w3.org/2000/svg">
<g clip-path="url(#clip0_2788_6292)">
<path d="M64.9379 36.9139C65.2766 36.4282 65.5229 35.8643 65.6768 35.2846L66.0154 33.9844C66.1386 33.5144 66.2002 33.0288 66.2002 32.5589C66.2002 32.2455 66.1694 31.9322 66.1078 31.6346L66.6466 31.5876L68.0474 26.2613L65.5229 23.2066L55.8557 24.0682C55.3016 23.3789 54.6858 22.7053 54.0239 22.0786C53.7622 19.1805 51.3608 16.8934 48.4361 16.8934C47.7433 16.8934 47.0968 17.0187 46.4811 17.2537C42.6481 15.6245 38.2148 14.7002 33.4736 14.7002C25.1918 14.7002 17.803 17.5356 13.0925 21.9377L3.81024 22.7836L8.30515 26.9193L2.10156 50.4802L4.84161 53.5193L22.9444 50.2139C26.1616 51.2634 29.7175 51.8431 33.4736 51.8431C39.9696 51.8431 45.9115 50.1042 50.4526 47.2218L51.7303 54.6002L56.7639 43.0704L68.5862 37.7598L64.9379 36.9139Z" fill="#D5D5D6"/>
<path d="M67.1372 26.4804L65.1668 24.0836L55.4843 24.9452C54.8224 24.0679 54.0527 23.222 53.2061 22.4387C53.1291 19.8226 51.0202 17.7234 48.4187 17.7234C47.726 17.7234 47.0641 17.8801 46.4637 18.1464C42.6769 16.5015 38.2282 15.5459 33.4716 15.5459C25.2514 15.5459 17.9549 18.3814 13.4138 22.752L5.74786 23.457L9.2114 26.6527L3.00781 50.245L5.14751 52.6104L23.004 49.352C26.1905 50.4016 29.7464 50.9969 33.487 50.9969C40.3371 50.9969 46.5561 49.023 51.0664 45.8273L52.0977 51.7488L56.1616 42.4279L65.9827 38.0102L63.3812 37.4149C64.0893 36.8196 64.6435 35.9894 64.8744 35.0651L65.213 33.7649C65.3208 33.3576 65.367 32.9503 65.367 32.5586C65.367 32.1357 65.29 31.7283 65.1668 31.3524C65.1207 31.1957 65.0437 31.0391 64.9821 30.8981L65.9981 30.8041L67.1372 26.4804Z" fill="#CF0022"/>
<path d="M49.4396 43.7599C46.3302 45.9218 42.451 47.363 38.2178 47.9896C40.3575 47.1907 42.3432 46.1724 44.1135 44.9505C44.2212 44.8722 44.3444 44.7938 44.4521 44.7155L40.8808 45.3578C36.9247 47.4256 32.0142 48.6475 26.6726 48.6475C26.1646 48.6475 25.6567 48.6319 25.1641 48.6162C27.7502 49.2898 30.5518 49.6658 33.4612 49.6658C40.3113 49.6658 46.4687 47.645 50.7789 44.4179L50.5172 42.9453C50.1939 43.2116 49.8245 43.4936 49.4396 43.7599Z" fill="white"/>
<path d="M5.21094 49.6652L5.87286 50.4171L51.6532 42.1301L51.5146 41.2998L5.21094 49.6652ZM54.6549 40.8925L52.3613 46.1404L52.9924 46.7827L55.2861 41.5348L60.3043 39.279L59.6732 38.6367L54.6549 40.8925ZM64.3067 26.1826L63.7833 28.1408L60.4429 28.4384C60.3043 28.4541 60.1658 28.5794 60.135 28.7204L59.7656 30.099C59.7348 30.24 59.8118 30.3496 59.9349 30.334L60.566 30.2713L60.7815 29.4567C60.8123 29.3157 60.9201 29.2531 61.0278 29.2374L64.4144 28.9397L64.9378 26.9816L64.3067 26.1826ZM43.4792 35.1746L44.1104 35.1119L44.3721 34.0937L48.8516 33.7021L49.6366 30.7099C49.6982 30.475 49.729 30.2556 49.729 30.052C49.729 29.8483 49.6982 29.6447 49.6366 29.4724C49.5751 29.3 49.4981 29.1434 49.3749 29.0024C49.2672 28.8771 48.867 28.3915 48.7438 28.2505C49.0517 28.6578 49.1594 29.2531 48.9747 29.9267L48.1896 32.9188L43.7101 33.3104L43.2791 34.9396C43.2637 35.0806 43.3407 35.1903 43.4792 35.1746Z" fill="#970022"/>
<path d="M54.3031 29.833L57.2433 29.5667L57.6897 27.8435C57.7051 27.7652 57.7359 27.7025 57.7667 27.6242L57.0894 26.8096L56.5814 28.7678L53.7182 29.0184C53.5796 29.0341 53.4411 29.1594 53.4103 29.3004L51.5477 36.3655L48.823 36.6162L49.0693 35.6919L48.2843 36.6788L42.3116 37.2115C41.4034 37.2898 40.7568 36.8198 40.5875 36.0522L39.4484 37.4778L37.8013 37.6188C37.3856 37.6501 37.047 37.5404 36.8469 37.3054C36.6622 37.5561 36.3697 37.7441 36.0926 37.7597L33.4757 37.9947C32.5675 38.0731 31.9209 37.6031 31.7516 36.8355L30.6125 38.261L29.1193 38.402C28.5036 38.449 28.011 38.261 27.7031 37.8851C27.8263 38.0417 28.2265 38.5274 28.3343 38.6527C28.442 38.778 28.5652 38.8877 28.7037 38.9817C28.8422 39.06 29.0116 39.1383 29.1809 39.1696C29.3656 39.201 29.5503 39.2166 29.7659 39.201L31.0281 39.0913L32.1826 37.6501C32.352 37.8537 32.6137 38.167 32.6906 38.261C32.7984 38.3864 32.9215 38.496 33.0601 38.59C33.1986 38.6683 33.3679 38.7467 33.5373 38.778C33.722 38.8093 33.9067 38.825 34.1222 38.8093L36.7391 38.5744C37.0162 38.543 37.3087 38.3707 37.4934 38.1201C37.6935 38.3394 38.0168 38.4647 38.4478 38.4334L39.864 38.308L41.0185 36.8668C41.1878 37.0705 41.4495 37.3838 41.5265 37.4778C41.6343 37.6031 41.7574 37.7128 41.8959 37.8067C42.0345 37.8851 42.2038 37.9634 42.3731 37.9947C42.5579 38.0261 42.7426 38.0417 42.9581 38.0261L48.9308 37.4934L49.1925 37.1645L49.4696 37.4464L52.1942 37.1958L54.0722 30.068C54.103 29.927 54.2108 29.8487 54.3031 29.833ZM63.0466 31.5405C62.9389 31.4152 62.5387 30.9296 62.4155 30.7886C62.7234 31.1959 62.8311 31.7912 62.6464 32.4648L62.1538 34.3447C61.9999 34.9556 61.4149 35.5039 60.8762 35.5509L54.8573 36.0835L55.119 37.6031L55.9964 37.8067L55.8271 36.8511L60.9377 36.3968C61.8306 36.3185 62.6926 35.5196 62.9389 34.564L63.2775 33.2638C63.3391 33.0288 63.3699 32.8095 63.3699 32.6058C63.3699 32.4022 63.3391 32.1985 63.2775 32.0262C63.2314 31.8382 63.1544 31.6815 63.0466 31.5405Z" fill="#970022"/>
<path d="M54.5298 34.1884L55.3611 34.1257L55.2995 33.7967L54.2835 32.7628L54.5298 34.1884ZM57.4546 31.4469C57.5623 31.5879 57.9933 32.0892 58.1011 32.2302C58.2089 32.3555 58.332 32.4652 58.4705 32.5592C58.6091 32.6375 58.7784 32.7158 58.9477 32.7471C59.1325 32.7785 59.3172 32.7941 59.5327 32.7785L59.9175 32.7471L60.0869 32.1362C60.1177 31.9952 60.0407 31.8855 59.9175 31.9012L58.9016 31.9952C58.255 32.0265 57.7624 31.8229 57.4546 31.4469ZM39.1055 35.5669L39.7366 35.5043L43.0462 22.9249L42.3997 22.1416L38.9208 35.3319C38.89 35.4729 38.967 35.5826 39.1055 35.5669ZM45.2167 30.8829C45.2475 30.742 45.3861 30.6166 45.5246 30.601L46.1403 30.5383L46.3097 29.9273C46.3405 29.7864 46.2635 29.6767 46.1403 29.6924L44.8781 29.802C44.7395 29.8177 44.601 29.943 44.5702 30.084L44.1392 31.7132L45.0166 31.6349L45.2167 30.8829ZM15.615 25.4314L14.9685 24.6324L10.2734 42.4597L11.1509 42.3814L15.615 25.4314ZM19.1709 38.8723C18.9862 39.123 18.6937 39.311 18.4166 39.3266L15.7997 39.5616C15.2148 39.6086 14.7222 39.4363 14.4143 39.076L15.0146 39.8123C15.1224 39.9376 15.2455 40.0473 15.3841 40.1412C15.5226 40.2196 15.692 40.2979 15.8613 40.3292C16.046 40.3606 16.2307 40.3762 16.4462 40.3606L19.0631 40.1256C19.3402 40.0943 19.6327 39.9219 19.8174 39.6713C20.0175 39.8906 20.3408 40.0159 20.7718 39.9846L22.4189 39.8436L22.7114 39.4833L22.9577 39.7966L25.6824 39.546L27.6065 32.2302L28.4686 32.1518L28.6379 31.5409C28.6687 31.3999 28.5917 31.2902 28.4686 31.3059L26.9754 31.4469L25.0358 38.7314L22.3112 38.982L22.5575 38.0577L21.7724 39.029L20.1253 39.17C19.6943 39.217 19.3556 39.0917 19.1709 38.8723ZM19.6481 32.9195L19.8174 32.3085C19.8482 32.1675 19.7712 32.0579 19.6481 32.0735L15.4149 32.4495L16.0614 33.2328L19.6481 32.9195Z" fill="#970022"/>
<path d="M16.9718 37.5405L17.603 37.4778L17.8339 36.6319C17.8646 36.4909 18.0032 36.3656 18.1417 36.3499L18.7575 36.2872L18.9884 35.4256L17.4952 35.5666C17.3567 35.5823 17.2181 35.7076 17.1873 35.8486L16.8025 37.3212C16.7563 37.4465 16.8333 37.5561 16.9718 37.5405ZM34.6436 35.9583L35.2747 35.8956L36.383 31.6659C36.4138 31.5249 36.5524 31.3996 36.6909 31.3839L37.3067 31.3213L37.5376 30.4597L36.0444 30.6007C35.9058 30.6163 35.7673 30.7416 35.7365 30.8826L34.4589 35.7233C34.4281 35.8643 34.505 35.9739 34.6436 35.9583ZM21.4359 37.1332L22.0671 37.0705L23.1292 33.0601C23.1908 32.8252 23.2216 32.6058 23.2216 32.4022C23.2216 32.1985 23.1908 31.9949 23.1292 31.8226C23.0677 31.6502 22.9907 31.4936 22.8675 31.3526C22.7598 31.2273 22.3595 30.7416 22.2364 30.6007C22.5443 31.008 22.652 31.6032 22.4673 32.2769L21.2512 36.8982C21.2204 37.0392 21.2974 37.1488 21.4359 37.1332ZM30.2718 36.3499L30.903 36.2872L31.9651 32.2769C32.0267 32.0419 32.0575 31.8226 32.0575 31.6189C32.0575 31.4153 32.0267 31.2116 31.9651 31.0393C31.9035 30.867 31.8266 30.7103 31.7034 30.5693C31.5957 30.444 31.1954 29.9584 31.0723 29.8174C31.3801 30.2247 31.4879 30.82 31.3032 31.4936L30.0871 36.1149C30.0563 36.2559 30.1333 36.3656 30.2718 36.3499Z" fill="#970022"/>
<path d="M60.135 28.7205C60.1658 28.5795 60.3043 28.4542 60.4429 28.4385L63.7833 28.1409L64.3067 26.1827L58.9805 26.6527C58.4263 26.6997 57.8568 27.248 57.7028 27.8589L57.2102 29.7388C56.8562 31.086 57.6105 32.0886 58.8881 31.9633L59.9041 31.8693C60.0427 31.8536 60.1196 31.9633 60.0734 32.1043L59.704 33.4828C59.6732 33.6238 59.5347 33.7492 59.3961 33.7648L54.5164 34.2035L54.2701 32.7622L51.9764 38.0102L49.9291 38.9344L10.2754 42.4592L14.9704 24.6318L9.98293 25.0861L11.353 26.355L5.21094 49.6653L51.5146 41.2999L52.3613 46.1406L54.6549 40.8926L59.6886 38.6368L55.1321 37.6029L54.8704 36.0833L60.8893 35.5507C61.4435 35.5037 62.013 34.9554 62.167 34.3444L62.6595 32.4646C63.0136 31.1173 62.2593 30.1148 60.9817 30.2244L59.9657 30.3184C59.8271 30.3341 59.7502 30.2244 59.7964 30.0834L60.135 28.7205Z" fill="white"/>
<path d="M48.4171 26.6214C50.602 26.6214 52.3732 24.8189 52.3732 22.5954C52.3732 20.3719 50.602 18.5693 48.4171 18.5693C46.2322 18.5693 44.4609 20.3719 44.4609 22.5954C44.4609 24.8189 46.2322 26.6214 48.4171 26.6214Z" fill="white"/>
<path d="M46.0151 19.3844C42.3823 17.8022 38.0875 16.8779 33.4694 16.8779C31.8069 16.8779 30.1906 17.0033 28.6359 17.2226C34.8856 17.5045 40.4735 19.4784 44.4604 22.5018C44.4912 21.2329 45.0915 20.105 46.0151 19.3844ZM56.5751 28.7837L57.0831 26.8255L52.2495 27.2641C51.6954 27.3111 51.1258 27.8594 50.9719 28.4704L49.3401 34.6739L43.4752 35.1909C43.3367 35.2066 43.2597 35.0969 43.3059 34.9559L43.7369 33.3267L48.2164 32.9351L49.0015 29.9429C49.3555 28.5957 48.6013 27.5931 47.3236 27.7028L43.429 28.0474C42.8749 28.0944 42.3053 28.6427 42.1514 29.2537L40.6428 34.9872C40.5966 35.1439 40.5812 35.3005 40.5658 35.4572L39.1342 35.5825C38.9957 35.5982 38.9187 35.4885 38.9649 35.3475L42.4439 22.1572L37.9643 22.5645L39.3344 23.8334L38.1029 28.5331L34.6239 28.8464C34.0698 28.8934 33.5002 29.4417 33.3463 30.0526L31.8377 35.7862C31.7915 35.9428 31.7761 36.0995 31.7608 36.2561L30.3292 36.3815C30.1906 36.3971 30.1136 36.2875 30.1598 36.1465L31.3759 31.5252C31.73 30.1779 30.9757 29.1753 29.698 29.285L24.8183 29.7236L22.8941 37.0394L21.4933 37.1647C21.3547 37.1804 21.2778 37.0707 21.3239 36.9298L22.54 32.3084C22.8941 30.9612 22.1398 29.9586 20.8621 30.0683L15.9824 30.5069L15.459 32.4651L19.6922 32.0891C19.8308 32.0735 19.9077 32.1831 19.8616 32.3241L19.4613 33.8593L16.0132 34.1726C15.459 34.2196 14.8741 34.7366 14.7201 35.3319L14.1967 37.3527C13.8427 38.7 14.597 39.7025 15.8746 39.5929L18.4915 39.3579C18.7686 39.3266 19.0611 39.1543 19.2458 38.9036C19.4459 39.1229 19.7692 39.2482 20.2002 39.2169L21.8473 39.0759L22.6324 38.1047L22.3861 39.0289L25.1108 38.7783L27.0349 31.4625L28.5281 31.3215C28.6667 31.3058 28.7436 31.4155 28.6974 31.5565L27.4814 36.1778C27.1273 37.525 27.8816 38.5276 29.1592 38.418L30.6524 38.277L31.7915 36.8514C31.9609 37.619 32.6074 38.089 33.5156 38.0107L36.1325 37.7757C36.4096 37.7444 36.7021 37.572 36.8868 37.3214C37.0869 37.5407 37.4102 37.666 37.8412 37.6347L39.4883 37.4937L40.6274 36.0682C40.7967 36.8358 41.4433 37.3057 42.3515 37.2274L48.3242 36.6948L49.1092 35.7078L48.8629 36.6321L51.5876 36.3815L53.4502 29.3163C53.481 29.1753 53.6195 29.05 53.7581 29.0343L56.5751 28.7837ZM44.5682 30.0996C44.5989 29.9586 44.7375 29.8333 44.876 29.8176L46.1383 29.708C46.2768 29.6923 46.3538 29.802 46.3076 29.9429L45.8766 31.5722L44.1371 31.7288L44.5682 30.0996ZM18.5223 37.1491C18.4915 37.2901 18.353 37.4154 18.2145 37.4311L16.9522 37.5407C16.8136 37.5564 16.7367 37.4467 16.7829 37.3057L17.1677 35.8332C17.1985 35.6922 17.337 35.5669 17.4756 35.5512L18.9687 35.4102L18.5223 37.1491ZM36.1941 35.5825C36.1633 35.7235 36.0248 35.8488 35.8862 35.8645L34.6239 35.9742C34.4854 35.9898 34.4084 35.8802 34.4546 35.7392L35.7323 30.8985C35.7631 30.7576 35.9016 30.6322 36.0401 30.6166L37.5333 30.4756L36.1941 35.5825Z" fill="white"/>
<path d="M16.3895 38.5433C15.6814 38.606 15.2658 38.0577 15.4659 37.3057L15.9277 35.5669C15.9739 35.3789 16.097 35.2065 16.2356 35.0812L15.158 34.5173C14.9271 34.7209 14.7424 35.0029 14.6654 35.3005L14.1421 37.3214C13.788 38.6686 14.5423 39.6712 15.82 39.5616L18.4369 39.3266C18.7139 39.2952 19.0064 39.1229 19.1911 38.8723C19.3913 39.0916 19.7145 39.2169 20.1455 39.1856L21.7619 39.0446L21.3924 38.1203L16.3895 38.5433ZM25.8719 30.5539L24.7636 29.6923L22.316 38.9819L25.0407 38.7313L23.9323 37.8697L25.8719 30.5539ZM37.9404 22.5488L39.3105 23.8021L38.0636 28.5174L39.1719 29.379L40.7729 23.3008L37.9404 22.5488ZM47.038 32.2458L42.5739 32.6374L43.7284 33.311L48.2079 32.9194L47.038 32.2458ZM51.4713 27.6401C51.2404 27.8594 51.0557 28.1414 50.9788 28.4547L48.8237 36.6164L51.5483 36.3658L50.44 35.5042L52.1794 28.8777C52.2256 28.6897 52.3488 28.5174 52.4873 28.3764L51.4713 27.6401ZM52.9953 28.1414C52.826 28.1571 52.6566 28.2511 52.5027 28.3764L53.5341 29.1127C53.5956 29.0657 53.6572 29.0343 53.7188 29.0187L56.582 28.768L55.72 27.8908L52.9953 28.1414ZM30.2283 37.3214L29.6895 37.3684C28.9814 37.431 28.5658 36.8828 28.7659 36.1308L29.982 31.5095C30.1821 30.7732 29.7665 30.2093 29.0584 30.2719L25.8719 30.5539L26.9803 31.4155L28.4734 31.2745C28.612 31.2588 28.6889 31.3685 28.6428 31.5095L27.4267 36.1308C27.0726 37.478 27.8269 38.4806 29.1046 38.371L30.5977 38.23L30.2283 37.3214Z" fill="#D5D5D6"/>
<path d="M20.5553 34.5168L16.7069 34.8614C16.5376 34.8771 16.3528 34.9711 16.2143 35.0964L17.2918 35.6604C17.3534 35.6134 17.415 35.582 17.4766 35.5664L18.9697 35.4254L18.5233 37.1486C18.5079 37.2113 18.4617 37.2896 18.4002 37.3366L19.2006 38.2922C19.4008 38.2765 19.6009 38.0885 19.647 37.8849L20.5553 34.5168ZM20.2166 31.0547L16.7839 31.3524L15.9218 30.4751L15.3984 32.4333L19.6317 32.0573C19.7702 32.0416 19.8472 32.1513 19.801 32.2923L19.4008 33.8275L20.5553 34.5011L21.1402 32.2766C21.3403 31.556 20.9247 30.9921 20.2166 31.0547ZM46.7243 28.7049L44.1535 28.9399C43.9842 28.9555 43.8149 29.0495 43.6609 29.1749L44.6923 29.9111C44.7539 29.8641 44.8155 29.8328 44.877 29.8171L46.1393 29.7075C46.2778 29.6918 46.3548 29.8015 46.3086 29.9425L45.8776 31.5717L47.0321 32.2453L47.6479 29.9268C47.848 29.1905 47.4324 28.6422 46.7243 28.7049ZM62.9182 27.2637L59.701 27.5457C59.5317 27.5613 59.3623 27.6553 59.2084 27.7806L60.2398 28.5169C60.3013 28.4699 60.3629 28.4386 60.4245 28.4229L63.7649 28.1253L62.9182 27.2637Z" fill="#D5D5D6"/>
<path d="M58.1976 27.0449L59.2289 27.7812C59.0904 27.9222 58.9672 28.0945 58.9211 28.2825L58.49 29.9117C58.2899 30.648 58.7055 31.2119 59.4136 31.1493L60.4296 31.0553C61.1377 30.9926 61.5533 31.5409 61.3532 32.2929L60.9222 33.9221C60.876 34.1101 60.7529 34.2824 60.6143 34.4234L59.583 33.6871C59.6445 33.6401 59.6753 33.5774 59.7061 33.4991L60.0756 32.1205C60.1064 31.9795 60.0294 31.8699 59.9062 31.8856L58.8903 31.9796C57.6126 32.0892 56.8583 31.1023 57.2124 29.7551L57.705 27.8595" fill="#D5D5D6"/>
<path d="M60.6304 34.4071C60.4918 34.5481 60.3071 34.6264 60.1378 34.6421L55.5659 35.0494L54.5191 34.1878L54.8424 36.0833L60.8613 35.5507C61.1384 35.5193 61.4154 35.3783 61.6463 35.159L60.6304 34.4071ZM39.0641 36.5219L34.0612 36.9605C33.3531 37.0232 32.9374 36.4749 33.1375 35.723L34.523 30.4437C34.5691 30.2557 34.6923 30.0834 34.8308 29.9424L33.7995 29.2061C33.5686 29.4254 33.3838 29.7074 33.3069 30.0207L31.7983 35.7543C31.4443 37.1015 32.1985 38.1041 33.4762 37.9945L36.0931 37.7595C36.3702 37.7282 36.6627 37.5558 36.8474 37.3052C37.0475 37.5245 37.3708 37.6498 37.8018 37.6185L39.4489 37.4775L39.0641 36.5219ZM47.8999 35.7386L42.897 36.1773C42.1889 36.2399 41.7733 35.6916 41.9734 34.9397L43.3588 29.6604C43.405 29.4724 43.5282 29.3001 43.6667 29.1591L42.6353 28.4229C42.4044 28.6422 42.2197 28.9241 42.1428 29.2375L40.6342 34.971C40.2801 36.3183 41.0344 37.3208 42.3121 37.2112L48.2848 36.6786L47.8999 35.7386Z" fill="#D5D5D6"/>
<path d="M51.5146 41.2997L49.3134 40.7984L7.31985 47.6912L13.0462 25.9162L9.98293 25.0859L11.353 26.3548L5.21094 49.6651L51.5146 41.2997Z" fill="#D5D5D6"/>
<path d="M35.3207 29.7236C35.1514 29.7393 34.9821 29.8333 34.8281 29.9586L35.8595 30.6949C35.9211 30.6479 35.9826 30.6166 36.0442 30.6009L37.5374 30.4599L36.1981 35.5512C36.1828 35.6139 36.1366 35.6922 36.075 35.7392L36.8755 36.6948C37.0756 36.6791 37.2757 36.4911 37.3219 36.2875L39.1537 29.3477L35.3207 29.7236Z" fill="#D5D5D6"/>
<path d="M54.5462 38.1989L53.9767 34.9092L52.4219 38.4652L50.0205 39.5462L9.30469 44.1988L10.8133 45.593L49.7281 40.1728L52.0987 40.7054L52.6682 43.9952L54.223 40.4391L57.6403 38.9039L54.5462 38.1989Z" fill="#FAC109"/>
<path d="M53.6213 37.3213L54.0215 38.7312L55.3454 39.1855L53.8368 40.0158L53.0209 41.5823L52.6207 40.1567L51.2969 39.7024L52.8054 38.8878L53.6213 37.3213Z" fill="#004537"/>
<path d="M45.267 20.1521C43.3582 19.3531 41.2955 18.7422 39.125 18.3662C41.1416 19.1652 43.0042 20.1677 44.6513 21.3583C44.7898 20.9197 45.0053 20.5124 45.267 20.1521Z" fill="#FAC109"/>
<path d="M49.2791 25.3999C47.2779 25.3999 45.6616 23.755 45.6616 21.7185C45.6616 20.5279 46.2158 19.4627 47.0778 18.7891C45.5539 19.353 44.4609 20.8412 44.4609 22.5801C44.4609 24.8046 46.2312 26.6061 48.4171 26.6061C50.1257 26.6061 51.5881 25.4939 52.1423 23.943C51.4804 24.8359 50.449 25.3999 49.2791 25.3999Z" fill="#D5D5D6"/>
<path d="M49.4183 23.9739L49.1874 23.4413L49.0181 23.6449L49.2182 24.1149L49.0643 24.2872L49.6492 24.5222L49.8032 24.3342L49.2952 24.1149L49.4183 23.9739ZM49.9725 23.4256L49.8648 22.8616L49.6492 23.034L49.757 23.5196L49.5723 23.6762L50.0957 24.0209L50.2958 23.8642L49.834 23.5509L49.9725 23.4256ZM50.6344 23.0183L50.619 22.4387L50.4035 22.5483V23.0653L50.188 23.1749L50.6344 23.6136L50.8653 23.4883L50.4651 23.0966L50.6344 23.0183ZM51.3579 22.7363L51.4657 22.1724L51.2194 22.235L51.127 22.7363L50.8961 22.799L51.2348 23.3159L51.4811 23.2533L51.1732 22.7833L51.3579 22.7363ZM52.1276 22.611L52.3277 22.0784L52.0814 22.094L51.8967 22.564L51.6504 22.5797L51.8967 23.1593L52.143 23.1436L51.9429 22.6267L52.1276 22.611ZM48.9719 24.6162L48.6487 24.1462L48.5255 24.3812L48.8026 24.7885L48.6949 25.0078L49.2952 25.1175L49.4183 24.8825L48.8796 24.7885L48.9719 24.6162ZM48.6641 25.3368L48.2484 24.9451L48.1715 25.1958L48.5409 25.5404L48.4639 25.7754L49.0797 25.7598L49.1567 25.5091L48.6025 25.5248L48.6641 25.3368ZM48.4947 26.1044L48.0175 25.8068L47.9867 26.0574L48.4024 26.3237L48.387 26.5744L48.9873 26.4334L49.0181 26.1827L48.4793 26.2924L48.4947 26.1044ZM47.7251 20.7625L47.1555 20.5275L47.0016 20.7311L47.5095 20.9505L47.3864 21.0914L47.6173 21.6084L47.7866 21.4204L47.5711 20.9505L47.7251 20.7625ZM46.7091 21.0444L46.509 21.2011L46.9708 21.5144L46.8168 21.6241L46.94 22.188L47.1401 22.0314L47.0323 21.5301L47.2325 21.3891L46.7091 21.0444ZM46.1703 21.4517L45.9394 21.5614L46.3396 21.9687L46.1703 22.047V22.6267L46.4012 22.5013V22L46.6167 21.8904L46.1703 21.4517ZM45.57 21.7337L45.3083 21.8121L45.6161 22.282L45.4468 22.329L45.3391 22.893L45.5854 22.8303L45.6777 22.329L45.9086 22.2664L45.57 21.7337ZM44.9542 21.906L44.6925 21.9217L44.908 22.4387L44.7233 22.4543L44.5078 22.987L44.7695 22.9713L44.9542 22.5013L45.1851 22.4857L44.9542 21.906ZM48.1561 20.9191L48.2792 20.6841L47.9867 20.2768L48.1099 20.0575L47.5095 19.9479L47.371 20.1672L47.9252 20.2768L47.8328 20.4492L48.1561 20.9191ZM48.1253 19.7755L48.5409 20.1828L48.6179 19.9322L48.2484 19.5719L48.3254 19.3526H47.7097L47.6327 19.6032H48.1869L48.1253 19.7755ZM48.31 19.0549L48.7872 19.3526L48.818 19.1019L48.387 18.8356L48.4178 18.585L47.8174 18.726L47.7866 18.9766L48.3254 18.8669L48.31 19.0549Z" fill="#CF0022"/>
<path d="M17.4453 26.4646L18.0918 25.6657C18.5383 26.0417 19.0155 26.2923 19.585 26.2923C20.0314 26.2923 20.3085 26.1043 20.3085 25.8067V25.791C20.3085 25.509 20.1392 25.368 19.2925 25.1487C18.2766 24.8824 17.63 24.6004 17.63 23.5822V23.5665C17.63 22.6422 18.3535 22.0313 19.3849 22.0313C20.1084 22.0313 20.7395 22.2663 21.2475 22.6736L20.678 23.5195C20.2315 23.2062 19.8005 23.0182 19.3695 23.0182C18.9539 23.0182 18.723 23.2219 18.723 23.4569V23.4725C18.723 23.8015 18.9385 23.9111 19.8005 24.1461C20.8165 24.4124 21.3861 24.7884 21.3861 25.6813V25.697C21.3861 26.7153 20.6318 27.2792 19.5388 27.2792C18.8153 27.2792 18.0457 27.0129 17.4453 26.4646ZM21.7247 26.4646L22.3712 25.6657C22.8177 26.0417 23.2948 26.2923 23.8644 26.2923C24.3108 26.2923 24.5879 26.1043 24.5879 25.8067V25.791C24.5879 25.509 24.4186 25.368 23.5719 25.1487C22.556 24.8824 21.9094 24.6004 21.9094 23.5822V23.5665C21.9094 22.6422 22.6329 22.0313 23.6643 22.0313C24.3878 22.0313 25.0189 22.2663 25.5269 22.6736L24.9573 23.5195C24.5109 23.2062 24.0799 23.0182 23.6489 23.0182C23.2179 23.0182 23.0024 23.2219 23.0024 23.4569V23.4725C23.0024 23.8015 23.2179 23.9111 24.0799 24.1461C25.0959 24.4124 25.6655 24.7884 25.6655 25.6813V25.697C25.6655 26.7153 24.9112 27.2792 23.8182 27.2792C23.0947 27.2792 22.3251 27.0129 21.7247 26.4646ZM26.1273 24.6631C26.1273 23.2062 27.2356 22.0156 28.7595 22.0156C29.6678 22.0156 30.2065 22.2663 30.7299 22.7206L30.0372 23.5665C29.6524 23.2375 29.3137 23.0495 28.7288 23.0495C27.9283 23.0495 27.2972 23.7702 27.2972 24.6318V24.6474C27.2972 25.5874 27.9283 26.261 28.8211 26.261C29.2214 26.261 29.5754 26.1513 29.8525 25.9477V25.2114H28.7288V24.2401H30.8992V26.449C30.3913 26.8876 29.6678 27.2636 28.7595 27.2636C27.2048 27.2949 26.1273 26.1826 26.1273 24.6631Z" fill="white"/>
</g>
<defs>
<clipPath id="clip0_2788_6292">
<rect width="66.5" height="39.9" fill="white" transform="translate(2.10156 14.7002)"/>
</clipPath>
</defs>
</svg>
