<svg width="70" height="70" viewBox="0 0 70 70" fill="none" xmlns="http://www.w3.org/2000/svg">
<g clip-path="url(#clip0_2788_5471)">
<mask id="mask0_2788_5471" style="mask-type:luminance" maskUnits="userSpaceOnUse" x="2" y="7" width="66" height="57">
<path d="M2 7H67.0414V63.3626H2V7Z" fill="white"/>
</mask>
<g mask="url(#mask0_2788_5471)">
<path d="M34.5022 7.65039C19.5468 7.65039 7.42188 19.8955 7.42188 35.0007C7.42188 50.1046 19.5468 62.3492 34.5022 62.3492C49.4596 62.3492 61.5824 50.1046 61.5824 35.0007C61.5824 19.8955 49.4596 7.65039 34.5022 7.65039Z" fill="#FC4E00"/>
</g>
<mask id="mask1_2788_5471" style="mask-type:luminance" maskUnits="userSpaceOnUse" x="2" y="7" width="66" height="57">
<path d="M2 7H67.0414V63.3626H2V7Z" fill="white"/>
</mask>
<g mask="url(#mask1_2788_5471)">
<path d="M34.4978 8.301C19.921 8.301 8.06168 20.2778 8.06168 35.0008C8.06168 49.722 19.921 61.6988 34.4978 61.6988C49.0746 61.6988 60.934 49.722 60.934 35.0008C60.934 20.2778 49.0751 8.301 34.4978 8.301ZM34.4978 63.0003C19.2114 63.0003 6.77344 50.4407 6.77344 35.0008C6.77344 19.5608 19.2114 7 34.4978 7C49.7863 7 62.2239 19.5612 62.2239 35.0008C62.2239 50.4403 49.7863 63.0003 34.4978 63.0003Z" fill="white"/>
</g>
<mask id="mask2_2788_5471" style="mask-type:luminance" maskUnits="userSpaceOnUse" x="2" y="7" width="66" height="57">
<path d="M2 7H67.0414V63.3626H2V7Z" fill="white"/>
</mask>
<g mask="url(#mask2_2788_5471)">
<path d="M34.5022 7.65039C19.5468 7.65039 7.42188 19.8955 7.42188 35.0007C7.42188 50.1046 19.5468 62.3492 34.5022 62.3492C49.4596 62.3492 61.5824 50.1046 61.5824 35.0007C61.5824 19.8955 49.4596 7.65039 34.5022 7.65039Z" fill="#FC4E00"/>
</g>
<mask id="mask3_2788_5471" style="mask-type:luminance" maskUnits="userSpaceOnUse" x="2" y="7" width="66" height="57">
<path d="M2 7H67.0414V63.3626H2V7Z" fill="white"/>
</mask>
<g mask="url(#mask3_2788_5471)">
<path d="M23.001 53.9388C23.2729 54.116 23.4764 54.1041 23.609 53.899L23.745 53.6905C23.8793 53.4823 23.8104 53.2892 23.5385 53.1112L22.3598 52.3412L21.8223 53.1688L23.001 53.9388ZM22.7585 54.3113L21.5814 53.5396L21.0502 54.3575L22.2272 55.1271C22.5008 55.3059 22.7026 55.2928 22.8369 55.0894L22.9649 54.8906C23.0992 54.6821 23.032 54.4897 22.7585 54.3113ZM23.4878 54.5262C23.5678 54.7398 23.5405 54.9501 23.4059 55.1572L23.2532 55.392C23.1256 55.589 22.9485 55.7051 22.727 55.7382C22.5152 55.7681 22.2749 55.6947 22.0061 55.5178L20.375 54.452L22.1748 51.6826L23.8041 52.7501C24.0744 52.9273 24.2368 53.1175 24.2926 53.326C24.353 53.5447 24.3169 53.7532 24.1877 53.9536L24.027 54.1986C23.8927 54.4071 23.7139 54.5147 23.4878 54.5262Z" fill="#F3F3F4"/>
</g>
<mask id="mask4_2788_5471" style="mask-type:luminance" maskUnits="userSpaceOnUse" x="2" y="7" width="66" height="57">
<path d="M2 7H67.0414V63.3626H2V7Z" fill="white"/>
</mask>
<g mask="url(#mask4_2788_5471)">
<path d="M25.551 56.0488L24.8116 55.7064C24.5741 55.5954 24.4071 55.6433 24.3152 55.8471L24.2791 55.9213C24.1872 56.1217 24.261 56.2789 24.4985 56.3883L25.2379 56.7311C25.4824 56.845 25.6507 56.8008 25.7427 56.5985L25.7755 56.5239C25.8706 56.3202 25.7957 56.1618 25.551 56.0488ZM24.2019 56.7409C23.984 56.6394 23.8397 56.4982 23.7692 56.3171C23.6954 56.1332 23.7021 55.9463 23.7923 55.7526L23.8645 55.592C23.956 55.3949 24.0924 55.2661 24.2791 55.203C24.4629 55.1357 24.6639 55.1528 24.8821 55.2542L26.1002 55.8187L26.1049 55.8073C26.2165 55.567 26.1393 55.3852 25.877 55.2644L24.525 54.6368L24.7067 54.2363L26.0524 54.8606C26.333 54.9908 26.5144 55.1617 26.5967 55.3733C26.6839 55.5824 26.667 55.8186 26.5459 56.0819L26.1804 56.8782C26.0867 57.0821 25.9446 57.2107 25.7541 57.2638C25.5803 57.3138 25.3806 57.2854 25.1544 57.1829L24.2019 56.7409Z" fill="#F3F3F4"/>
</g>
<mask id="mask5_2788_5471" style="mask-type:luminance" maskUnits="userSpaceOnUse" x="2" y="7" width="66" height="57">
<path d="M2 7H67.0414V63.3626H2V7Z" fill="white"/>
</mask>
<g mask="url(#mask5_2788_5471)">
<path d="M28.6087 56.8778C28.8745 56.9606 29.0559 57.0621 29.153 57.1825C29.2772 57.3345 29.3056 57.5221 29.2381 57.7453L29.1828 57.9224C29.1165 58.1428 28.9896 58.2813 28.8022 58.3381C28.6565 58.3792 28.4484 58.3593 28.1811 58.2767L26.6172 57.7948L26.7469 57.3647L28.3104 57.8478C28.5263 57.9139 28.657 57.8731 28.7023 57.7253L28.7317 57.6296C28.7761 57.4787 28.6926 57.3694 28.4761 57.3033L27.6662 57.0515C27.404 56.9706 27.224 56.8731 27.1254 56.7553C27.0039 56.6019 26.9767 56.4154 27.0435 56.1959L27.0977 56.0154C27.1665 55.7887 27.2928 55.6497 27.4762 55.5933C27.6239 55.5484 27.8303 55.5666 28.0909 55.648L29.5906 56.1099L29.4597 56.54L27.9696 56.0798C27.7565 56.0137 27.6269 56.0568 27.5811 56.2091L27.5517 56.3069C27.5055 56.4574 27.5895 56.5633 27.7993 56.6277L28.6087 56.8778Z" fill="#F3F3F4"/>
</g>
<mask id="mask6_2788_5471" style="mask-type:luminance" maskUnits="userSpaceOnUse" x="2" y="7" width="66" height="57">
<path d="M2 7H67.0414V63.3626H2V7Z" fill="white"/>
</mask>
<g mask="url(#mask6_2788_5471)">
<path d="M30.7667 57.5605L31.5732 57.6944C31.8351 57.7377 31.9837 57.6499 32.0193 57.4313L32.0323 57.3499C32.0686 57.1284 31.9556 56.9961 31.6932 56.9528L30.8867 56.8189C30.626 56.7757 30.4784 56.865 30.444 57.0867L30.431 57.1681C30.3955 57.3865 30.5074 57.5173 30.7667 57.5605ZM32.5455 57.3914L32.5174 57.5618C32.4844 57.7728 32.3849 57.9329 32.219 58.0419C32.0601 58.1533 31.8623 58.1891 31.6257 58.1496L30.3081 57.9313L30.3047 57.9479C30.2636 58.2072 30.3848 58.3601 30.6685 58.4064L32.224 58.6645L32.1535 59.1031L30.603 58.8467C30.3018 58.7967 30.0816 58.6813 29.9426 58.5005C29.806 58.3236 29.7606 58.0931 29.8062 57.8089L29.9442 56.9613C29.9787 56.7477 30.077 56.5854 30.2392 56.4744C30.3987 56.3619 30.598 56.3255 30.8372 56.365L31.88 56.5375C32.1194 56.5771 32.2975 56.6764 32.4141 56.8354C32.5367 56.9925 32.5804 57.1779 32.5455 57.3914Z" fill="#F3F3F4"/>
</g>
<mask id="mask7_2788_5471" style="mask-type:luminance" maskUnits="userSpaceOnUse" x="2" y="7" width="66" height="57">
<path d="M2 7H67.0414V63.3626H2V7Z" fill="white"/>
</mask>
<g mask="url(#mask7_2788_5471)">
<path d="M33.5292 58.1667C33.5255 58.3506 33.5572 58.4913 33.624 58.5888C33.7079 58.7035 33.8391 58.7625 34.0176 58.7659L34.6223 58.7811C34.8008 58.786 34.9357 58.7328 35.0272 58.6218C35.0972 58.5291 35.1344 58.3907 35.1388 58.2065L35.1468 57.8009C35.1502 57.6124 35.1191 57.4717 35.052 57.3738C34.965 57.2568 34.8322 57.1962 34.6538 57.192L33.5506 57.1653L33.5292 58.1667ZM33.016 58.1802L33.0621 55.874L33.5732 55.8855L33.5585 56.7148L34.7012 56.7432C35.0027 56.7562 35.2387 56.8527 35.4091 57.0326C35.5828 57.2098 35.6667 57.4598 35.66 57.7861L35.652 58.2446C35.6453 58.5673 35.5519 58.8128 35.3717 58.9812C35.193 59.1515 34.9521 59.2363 34.647 59.2312L33.9748 59.2164C33.6699 59.2045 33.4322 59.109 33.2619 58.9299C33.0915 58.7528 33.0095 58.5029 33.016 58.1802Z" fill="#F3F3F4"/>
</g>
<mask id="mask8_2788_5471" style="mask-type:luminance" maskUnits="userSpaceOnUse" x="2" y="7" width="66" height="57">
<path d="M2 7H67.0414V63.3626H2V7Z" fill="white"/>
</mask>
<g mask="url(#mask8_2788_5471)">
<path d="M37.9051 57.832L37.0973 57.9282C36.8366 57.9592 36.7202 58.0861 36.7482 58.3087L36.7578 58.3918C36.7855 58.61 36.9282 58.7062 37.1888 58.6749L37.9953 58.5803C38.2625 58.5493 38.3822 58.4228 38.3545 58.2011L38.3444 58.1201C38.3184 57.8968 38.1707 57.8006 37.9051 57.832ZM37.12 59.1317C36.8822 59.1599 36.6855 59.1152 36.53 58.9973C36.3725 58.8795 36.2807 58.7145 36.2547 58.5024L36.2333 58.3269C36.2073 58.1116 36.2564 57.9298 36.381 57.7773C36.504 57.6235 36.6823 57.5323 36.9202 57.5044L38.2496 57.3488L38.2479 57.3353C38.2169 57.0725 38.0578 56.9578 37.7708 56.9912L36.2925 57.1666L36.24 56.728L37.7087 56.5543C38.0148 56.5181 38.2579 56.5688 38.438 56.7064C38.621 56.8392 38.7302 57.0499 38.7657 57.3387L38.8723 58.2112C38.8988 58.4329 38.8463 58.6185 38.7133 58.7638C38.5908 58.8978 38.4067 58.9795 38.1611 59.0092L37.12 59.1317Z" fill="#F3F3F4"/>
</g>
<mask id="mask9_2788_5471" style="mask-type:luminance" maskUnits="userSpaceOnUse" x="2" y="7" width="66" height="57">
<path d="M2 7H67.0414V63.3626H2V7Z" fill="white"/>
</mask>
<g mask="url(#mask9_2788_5471)">
<path d="M39.6538 58.749L38.9375 55.5046L39.4457 55.3936L40.162 58.6384L39.6538 58.749Z" fill="#F3F3F4"/>
</g>
<mask id="mask10_2788_5471" style="mask-type:luminance" maskUnits="userSpaceOnUse" x="2" y="7" width="66" height="57">
<path d="M2 7H67.0414V63.3626H2V7Z" fill="white"/>
</mask>
<g mask="url(#mask10_2788_5471)">
<path d="M40.8006 58.4809L39.9219 55.2762L40.4267 55.1406L41.3037 58.3452L40.8006 58.4809Z" fill="#F3F3F4"/>
</g>
<mask id="mask11_2788_5471" style="mask-type:luminance" maskUnits="userSpaceOnUse" x="2" y="7" width="66" height="57">
<path d="M2 7H67.0414V63.3626H2V7Z" fill="white"/>
</mask>
<g mask="url(#mask11_2788_5471)">
<path d="M42.7966 56.608L42.4475 55.8435C42.2931 55.5092 42.2704 55.1845 42.3833 54.8752C42.4819 54.5853 42.7127 54.3586 43.0752 54.1912L44.6698 53.4648L44.857 53.8734L43.2834 54.5921C43.0621 54.693 42.9194 54.8469 42.8554 55.054C42.8012 55.2392 42.826 55.438 42.9259 55.6499L43.2553 56.3682C43.3504 56.5795 43.4853 56.7262 43.6602 56.8085C43.8588 56.8949 44.0686 56.8877 44.2896 56.7868L45.8632 56.0702L46.0499 56.4775L44.4571 57.206C44.0945 57.3715 43.7715 57.3979 43.4881 57.2852C43.179 57.1637 42.9485 56.938 42.7966 56.608Z" fill="#F3F3F4"/>
</g>
<mask id="mask12_2788_5471" style="mask-type:luminance" maskUnits="userSpaceOnUse" x="2" y="7" width="66" height="57">
<path d="M2 7H67.0414V63.3626H2V7Z" fill="white"/>
</mask>
<g mask="url(#mask12_2788_5471)">
<path d="M46.6805 56.0728L45.0234 53.1907L45.4741 52.9326L47.1316 55.813L46.6805 56.0728Z" fill="#F3F3F4"/>
</g>
<mask id="mask13_2788_5471" style="mask-type:luminance" maskUnits="userSpaceOnUse" x="2" y="7" width="66" height="57">
<path d="M2 7H67.0414V63.3626H2V7Z" fill="white"/>
</mask>
<g mask="url(#mask13_2788_5471)">
<path d="M48.5399 54.8856C48.2826 55.0695 48.0267 55.1407 47.7678 55.0958C47.5126 55.0532 47.2876 54.8971 47.0926 54.6275L46.25 53.4638L46.6646 53.1625L47.4908 54.3029C47.6121 54.4703 47.73 54.5729 47.8467 54.6059C48.0005 54.6438 48.1513 54.6096 48.299 54.5034L48.6532 54.2466C48.8051 54.1375 48.8859 54.0046 48.8957 53.8478C48.9037 53.7236 48.8479 53.5761 48.7249 53.4092L47.9008 52.2701L48.3171 51.9688L49.1597 53.1324C49.3527 53.4024 49.4316 53.6656 49.3921 53.9224C49.3541 54.18 49.2055 54.4024 48.9465 54.5894L48.5399 54.8856Z" fill="#F3F3F4"/>
</g>
<mask id="mask14_2788_5471" style="mask-type:luminance" maskUnits="userSpaceOnUse" x="2" y="7" width="66" height="57">
<path d="M2 7H67.0414V63.3626H2V7Z" fill="white"/>
</mask>
<g mask="url(#mask14_2788_5471)">
<path d="M50.0011 52.4085C50.1283 52.5413 50.2502 52.6186 50.3665 52.6403C50.5045 52.6618 50.6383 52.6105 50.7681 52.4865L51.2024 52.0678C51.3303 51.9415 51.3871 51.8079 51.3728 51.6669C51.3566 51.5497 51.284 51.4251 51.155 51.2931L50.873 50.9999C50.7429 50.8643 50.6206 50.7859 50.5059 50.7647C50.3618 50.7441 50.2251 50.796 50.0959 50.9206L49.3024 51.6851L50.0011 52.4085ZM49.6502 52.7827L48.0469 51.119L48.4157 50.7634L48.991 51.3626L49.8122 50.5693C50.0338 50.3645 50.2677 50.2646 50.5138 50.2697C50.7611 50.2717 50.9982 50.3904 51.2251 50.6257L51.5432 50.9554C51.767 51.1885 51.8758 51.4285 51.8696 51.6754C51.8663 51.922 51.7563 52.1538 51.5385 52.3674L51.0564 52.8323C50.8354 53.0428 50.601 53.1449 50.3531 53.1387C50.1089 53.1353 49.8731 53.0162 49.6502 52.7827Z" fill="#F3F3F4"/>
</g>
<mask id="mask15_2788_5471" style="mask-type:luminance" maskUnits="userSpaceOnUse" x="2" y="7" width="66" height="57">
<path d="M2 7H67.0414V63.3626H2V7Z" fill="white"/>
</mask>
<g mask="url(#mask15_2788_5471)">
<path d="M25.1065 12.2793L26.5571 15.2623L26.0934 15.4924L25.328 13.9181L23.579 14.7872L24.3427 16.3599L23.8803 16.59L22.4297 13.6053L22.8921 13.3769L23.3789 14.3766L25.1312 13.5091L24.6445 12.5094L25.1065 12.2793Z" fill="#F3F3F4"/>
</g>
<mask id="mask16_2788_5471" style="mask-type:luminance" maskUnits="userSpaceOnUse" x="2" y="7" width="66" height="57">
<path d="M2 7H67.0414V63.3626H2V7Z" fill="white"/>
</mask>
<g mask="url(#mask16_2788_5471)">
<path d="M28.1329 13.4827L27.3545 13.7328C27.1035 13.8136 27.0118 13.9615 27.0792 14.1765L27.1052 14.254C27.1707 14.4676 27.3297 14.532 27.5823 14.4528L28.3591 14.201C28.6164 14.1197 28.7115 13.9729 28.6444 13.7607L28.6196 13.6815C28.5508 13.4662 28.3905 13.4001 28.1329 13.4827ZM27.597 14.9164C27.3676 14.9907 27.1655 14.984 26.9907 14.8965C26.8136 14.8104 26.694 14.6663 26.6281 14.4625L26.5757 14.2922C26.5108 14.0859 26.5261 13.8961 26.6218 13.7226C26.7133 13.5474 26.8739 13.4227 27.1035 13.3484L28.3855 12.9382L28.3805 12.9246C28.3004 12.6715 28.1229 12.5893 27.848 12.678L26.4233 13.1352L26.2891 12.7127L27.707 12.2576C28.0021 12.1629 28.2507 12.1669 28.4526 12.2695C28.6574 12.3635 28.8051 12.5508 28.892 12.8288L29.1559 13.6679C29.2231 13.8832 29.205 14.0752 29.0984 14.246C29.0033 14.4013 28.8373 14.5172 28.6003 14.5935L27.597 14.9164Z" fill="#F3F3F4"/>
</g>
<mask id="mask17_2788_5471" style="mask-type:luminance" maskUnits="userSpaceOnUse" x="2" y="7" width="66" height="57">
<path d="M2 7H67.0414V63.3626H2V7Z" fill="white"/>
</mask>
<g mask="url(#mask17_2788_5471)">
<path d="M30.3178 11.6232L30.818 11.5372C31.1341 11.4824 31.3985 11.5321 31.6111 11.6863C31.8223 11.8412 31.9561 12.0839 32.0126 12.4144L32.2506 13.8264L31.7424 13.9125L31.5078 12.5271C31.4737 12.3223 31.4092 12.1793 31.3144 12.0983C31.1931 11.994 31.0425 11.9559 30.8557 11.9889L30.4227 12.0618C30.2423 12.0937 30.1118 12.1793 30.0312 12.3186C29.9738 12.426 29.9624 12.5821 29.9968 12.7869L30.2292 14.1727L29.7211 14.2604L29.4836 12.85C29.4279 12.5192 29.4749 12.2455 29.6246 12.0288C29.7737 11.8115 30.0047 11.6763 30.3178 11.6232Z" fill="#F3F3F4"/>
</g>
<mask id="mask18_2788_5471" style="mask-type:luminance" maskUnits="userSpaceOnUse" x="2" y="7" width="66" height="57">
<path d="M2 7H67.0414V63.3626H2V7Z" fill="white"/>
</mask>
<g mask="url(#mask18_2788_5471)">
<path d="M34.4619 13.4075C34.2784 13.6304 34.0506 13.7424 33.7784 13.7435H33.4607C33.1754 13.7449 32.9475 13.6544 32.7771 13.4719C32.6169 13.3012 32.536 13.0601 32.5346 12.7485L32.5312 11.2471L33.0428 11.2458L33.0457 12.7519C33.0457 12.9336 33.0851 13.0666 33.164 13.1511C33.2527 13.2457 33.3685 13.2932 33.5115 13.2935L33.736 13.2918C33.8815 13.2918 33.9984 13.2438 34.0868 13.1477C34.1668 13.0644 34.2067 12.9313 34.2064 12.7485L34.203 11.2441L34.7095 11.2424L34.7129 12.7468C34.7145 12.929 34.7523 13.0634 34.8291 13.146C34.9195 13.2406 35.0358 13.2881 35.1782 13.2884H35.4015C35.5487 13.2867 35.6654 13.2405 35.7539 13.1443C35.834 13.0604 35.8738 12.9269 35.8735 12.7438L35.8702 11.239L36.3817 11.2373L36.3846 12.7388C36.3846 13.0515 36.3028 13.2935 36.1358 13.4638C35.968 13.6475 35.7395 13.739 35.4506 13.7384L35.1375 13.7401C34.8706 13.7401 34.6454 13.6293 34.4619 13.4075Z" fill="#F3F3F4"/>
</g>
<mask id="mask19_2788_5471" style="mask-type:luminance" maskUnits="userSpaceOnUse" x="2" y="7" width="66" height="57">
<path d="M2 7H67.0414V63.3626H2V7Z" fill="white"/>
</mask>
<g mask="url(#mask19_2788_5471)">
<path d="M38.0643 11.9727C37.883 11.9416 37.7311 11.9792 37.6086 12.0854C37.5204 12.1668 37.4593 12.3103 37.4252 12.516L37.1957 13.903L36.6875 13.817L37.2317 10.5293L37.7399 10.617L37.5792 11.587C37.7447 11.5123 37.9287 11.4898 38.1071 11.5226L38.6068 11.607C38.923 11.6606 39.1563 11.7953 39.3068 12.0108C39.4567 12.2275 39.5048 12.5013 39.4511 12.8321L39.2166 14.2424L38.7084 14.1581L38.9379 12.7707C38.9723 12.5656 38.956 12.41 38.8939 12.3024C38.815 12.1631 38.6822 12.0775 38.4956 12.0456L38.0643 11.9727Z" fill="#F3F3F4"/>
</g>
<mask id="mask20_2788_5471" style="mask-type:luminance" maskUnits="userSpaceOnUse" x="2" y="7" width="66" height="57">
<path d="M2 7H67.0414V63.3626H2V7Z" fill="white"/>
</mask>
<g mask="url(#mask20_2788_5471)">
<path d="M41.5064 13.6842L40.7275 13.4375C40.4758 13.3567 40.3162 13.4241 40.2488 13.6397L40.2244 13.7189C40.159 13.9308 40.2504 14.0766 40.503 14.1579L41.2814 14.4046C41.5377 14.4871 41.699 14.4214 41.7653 14.2075L41.7896 14.1295C41.8584 13.9143 41.7619 13.7655 41.5064 13.6842ZM40.2504 14.5453C40.0213 14.4724 39.8602 14.3499 39.767 14.1779C39.6705 14.0037 39.6537 13.8168 39.7179 13.6117L39.7704 13.4426C39.8342 13.2358 39.9571 13.0883 40.1325 13.0023C40.3085 12.913 40.5106 12.9047 40.7389 12.9773L42.0225 13.3845L42.0259 13.3731C42.1061 13.1185 42.0078 12.9475 41.7309 12.8599L40.3046 12.4082L40.4376 11.9844L41.8555 12.4344C42.1503 12.5288 42.3519 12.6767 42.4602 12.8781C42.5735 13.0748 42.5866 13.3126 42.4996 13.5918L42.2373 14.4309C42.1702 14.6461 42.0439 14.7936 41.8618 14.8712C41.6948 14.9426 41.4927 14.9405 41.2554 14.8648L40.2504 14.5453Z" fill="#F3F3F4"/>
</g>
<mask id="mask21_2788_5471" style="mask-type:luminance" maskUnits="userSpaceOnUse" x="2" y="7" width="66" height="57">
<path d="M2 7H67.0414V63.3626H2V7Z" fill="white"/>
</mask>
<g mask="url(#mask21_2788_5471)">
<path d="M52.8302 35.0004C52.8302 45.2258 44.6228 53.5162 34.4961 53.5162C24.371 53.5162 16.1641 45.2258 16.1641 35.0004C16.1641 24.7734 24.371 16.4834 34.4961 16.4834C44.6228 16.4834 52.8302 24.7734 52.8302 35.0004Z" fill="white"/>
</g>
<mask id="mask22_2788_5471" style="mask-type:luminance" maskUnits="userSpaceOnUse" x="2" y="7" width="66" height="57">
<path d="M2 7H67.0414V63.3626H2V7Z" fill="white"/>
</mask>
<g mask="url(#mask22_2788_5471)">
<path d="M52.1166 37.2385C52.0995 37.2164 52.0783 37.1979 52.0541 37.1842C52.035 37.1738 52.0136 37.1686 51.992 37.169C51.8657 37.1791 51.833 37.3512 51.8065 37.4474C51.6423 38.0541 51.4653 38.6573 51.2757 39.2565L51.2656 39.2896L51.2786 39.3196C51.4016 39.6438 51.4935 39.9799 51.551 40.321C51.5623 40.3939 51.6114 40.4965 51.7033 40.4749C51.7264 40.4682 51.7473 40.4557 51.7641 40.4384C51.8934 40.3227 51.9379 40.1024 51.9165 39.9371C51.8799 39.6456 51.8133 39.3587 51.718 39.0811C51.8674 38.6077 52.0084 38.1242 52.1342 37.6525C52.1556 37.5716 52.1754 37.497 52.1674 37.4126C52.1607 37.3512 52.1493 37.2868 52.1166 37.2385Z" fill="#EBBC95"/>
</g>
<mask id="mask23_2788_5471" style="mask-type:luminance" maskUnits="userSpaceOnUse" x="2" y="7" width="66" height="57">
<path d="M2 7H67.0414V63.3626H2V7Z" fill="white"/>
</mask>
<g mask="url(#mask23_2788_5471)">
<path d="M50.8971 37.9621C50.7036 37.8396 50.597 38.1295 50.5563 38.2651C50.3583 38.9053 50.1517 39.5427 49.9366 40.1772L49.9219 40.2234L49.9496 40.2632C50.1594 40.5612 50.3528 40.879 50.5186 41.2036C50.5857 41.3346 50.7137 41.3706 50.8102 41.2434C50.9021 41.1227 50.9856 40.8909 50.9185 40.7417C50.798 40.4682 50.6571 40.2042 50.4972 39.9522C50.6642 39.4538 50.8283 38.9372 50.9806 38.4291C51.0167 38.3117 51.0364 38.2105 50.994 38.0914C50.9755 38.0393 50.9417 37.9942 50.8971 37.9621Z" fill="#EBBC95"/>
</g>
<mask id="mask24_2788_5471" style="mask-type:luminance" maskUnits="userSpaceOnUse" x="2" y="7" width="66" height="57">
<path d="M2 7H67.0414V63.3626H2V7Z" fill="white"/>
</mask>
<g mask="url(#mask24_2788_5471)">
<path d="M48.8954 41.0227C49.0708 40.493 49.2446 39.9615 49.4086 39.442C49.4657 39.2648 49.4775 39.0729 49.2807 38.9835C49.2475 38.9675 49.2107 38.9606 49.1741 38.9635C49.0134 38.9835 48.9282 39.192 48.8887 39.3242C48.6889 39.9941 48.4752 40.6597 48.248 41.3206L48.2266 41.382L48.2744 41.4232C48.5711 41.6817 48.856 41.963 49.1183 42.2576C49.1483 42.2943 49.1874 42.3223 49.2316 42.3389C49.2316 42.3389 49.31 42.3487 49.3264 42.3436C49.5496 42.2809 49.6806 41.9101 49.5333 41.7232C49.3377 41.4744 49.1245 41.2403 48.8954 41.0227Z" fill="#EBBC95"/>
</g>
<mask id="mask25_2788_5471" style="mask-type:luminance" maskUnits="userSpaceOnUse" x="2" y="7" width="66" height="57">
<path d="M2 7H67.0414V63.3626H2V7Z" fill="white"/>
</mask>
<g mask="url(#mask25_2788_5471)">
<path d="M47.8254 42.8767C47.5524 42.6654 47.2678 42.4698 46.9732 42.2906C47.1335 41.7545 47.2975 41.2197 47.4599 40.6951C47.4943 40.5857 47.522 40.4683 47.4566 40.3624C47.3974 40.2662 47.2761 40.2264 47.1696 40.2497C46.9748 40.2912 46.9073 40.4565 46.8565 40.6285C46.6615 41.3009 46.4637 41.9724 46.2632 42.6432L46.2422 42.7161L46.3076 42.7525C46.6908 42.9729 47.0653 43.2082 47.4306 43.4577C47.5468 43.5373 47.6861 43.5373 47.7877 43.4348C47.927 43.2941 48.0042 43.0157 47.8254 42.8767Z" fill="#EBBC95"/>
</g>
<mask id="mask26_2788_5471" style="mask-type:luminance" maskUnits="userSpaceOnUse" x="2" y="7" width="66" height="57">
<path d="M2 7H67.0414V63.3626H2V7Z" fill="white"/>
</mask>
<g mask="url(#mask26_2788_5471)">
<path d="M45.8881 44.1898C45.5466 44.0211 45.1977 43.8681 44.8424 43.7313C44.9863 43.2033 45.1227 42.6651 45.2469 42.1438C45.27 42.0493 45.2964 41.9417 45.239 41.8539C45.2117 41.8149 45.1762 41.7823 45.1351 41.7586C45.094 41.7348 45.0482 41.7205 45.001 41.7166C44.7652 41.7001 44.6326 41.9366 44.5814 42.1336C44.4093 42.8021 44.245 43.4726 44.0884 44.1449L44.0703 44.2263L44.1471 44.2542C44.605 44.4264 45.0591 44.6085 45.5092 44.8005C45.5645 44.8285 45.6267 44.8396 45.6882 44.8325C45.7496 44.8255 45.8077 44.8005 45.8554 44.7606C45.9207 44.7033 45.9703 44.6299 45.9993 44.5475C46.0518 44.4148 46.0337 44.2525 45.8881 44.1898Z" fill="#EBBC95"/>
</g>
<mask id="mask27_2788_5471" style="mask-type:luminance" maskUnits="userSpaceOnUse" x="2" y="7" width="66" height="57">
<path d="M2 7H67.0414V63.3626H2V7Z" fill="white"/>
</mask>
<g mask="url(#mask27_2788_5471)">
<path d="M43.956 45.6974C43.9214 45.6568 43.8757 45.6274 43.8247 45.613C43.4281 45.4774 43.0198 45.363 42.6103 45.2753C42.6938 44.7786 42.7886 44.2722 42.8906 43.7692C42.9397 43.5738 42.8331 43.3882 42.62 43.3848C42.361 43.3818 42.2234 43.5819 42.1773 43.8103C42.1026 44.1823 42.0315 44.5571 41.9641 44.9346C41.9201 45.2017 41.8787 45.4692 41.8399 45.7372L41.8281 45.8266L41.9133 45.8431C42.4429 45.9491 42.9775 46.0766 43.4986 46.2207C43.5456 46.2357 43.5904 46.2433 43.6329 46.2436C43.7789 46.2436 43.9166 46.1411 43.9787 46.0105C44.0311 45.9029 44.0232 45.7804 43.956 45.6974Z" fill="#EBBC95"/>
</g>
<mask id="mask28_2788_5471" style="mask-type:luminance" maskUnits="userSpaceOnUse" x="2" y="7" width="66" height="57">
<path d="M2 7H67.0414V63.3626H2V7Z" fill="white"/>
</mask>
<g mask="url(#mask28_2788_5471)">
<path d="M41.8509 47.1744L41.8312 47.1579C41.7856 47.1278 41.734 47.108 41.6801 47.0998C41.2331 47.0127 40.7833 46.9409 40.3314 46.8846C40.3673 46.4216 40.4148 45.9597 40.4741 45.4992C40.5098 45.2195 40.2593 45.0835 40.01 45.1746C39.8363 45.239 39.7331 45.4064 39.728 45.5899C39.6563 46.1813 39.612 46.7759 39.5954 47.3715L39.5938 47.4592L39.6789 47.4673C40.2576 47.5202 40.8363 47.5999 41.3969 47.7008C41.4377 47.7121 41.477 47.7176 41.5148 47.7173C41.59 47.7159 41.6634 47.6941 41.7274 47.6542C41.7914 47.6143 41.8436 47.5578 41.8786 47.4906C41.9031 47.4404 41.9135 47.3843 41.9086 47.3286C41.9038 47.2728 41.8838 47.2195 41.8509 47.1744Z" fill="#EBBC95"/>
</g>
<mask id="mask29_2788_5471" style="mask-type:luminance" maskUnits="userSpaceOnUse" x="2" y="7" width="66" height="57">
<path d="M2 7H67.0414V63.3626H2V7Z" fill="white"/>
</mask>
<g mask="url(#mask29_2788_5471)">
<path d="M39.8233 48.6889C39.7771 48.616 39.6869 48.5745 39.5937 48.5745C39.1162 48.5222 38.6374 48.482 38.1578 48.4537C38.1466 48.0362 38.1378 47.6213 38.1314 47.2091C38.1297 47.1082 38.107 47.0087 38.0118 46.9557C37.9494 46.9245 37.8797 46.9113 37.8103 46.9175C37.5661 46.9324 37.3857 47.1015 37.3907 47.3549C37.3953 47.8761 37.4184 48.4025 37.4595 48.9207L37.4658 49.0017L37.5464 49.0068C38.1561 49.0483 38.7658 49.0928 39.3676 49.1377C39.3955 49.1422 39.4228 49.1444 39.4494 49.1441C39.6315 49.1441 39.8312 49.025 39.8526 48.8262C39.8593 48.7784 39.8489 48.7297 39.8233 48.6889Z" fill="#EBBC95"/>
</g>
<mask id="mask30_2788_5471" style="mask-type:luminance" maskUnits="userSpaceOnUse" x="2" y="7" width="66" height="57">
<path d="M2 7H67.0414V63.3626H2V7Z" fill="white"/>
</mask>
<g mask="url(#mask30_2788_5471)">
<path d="M37.8484 50.0018C37.7893 49.9603 37.7108 49.9471 37.6403 49.9471C37.1535 49.937 36.6584 49.9238 36.1716 49.9056C36.0978 49.5496 36.0386 49.1936 35.9929 48.8495C35.9748 48.7237 35.906 48.6326 35.7831 48.6029C35.6541 48.5744 35.5193 48.5968 35.4062 48.6656C35.2845 48.7402 35.2438 48.8711 35.2619 49.0084C35.3363 49.4634 35.4336 49.9141 35.5535 50.359L35.5716 50.4273L35.6404 50.4285C36.2535 50.437 36.8648 50.4455 37.4683 50.4518C37.4892 50.4552 37.514 50.4569 37.5354 50.4569C37.6714 50.4569 37.8304 50.409 37.9042 50.2832C37.922 50.2542 37.9329 50.2215 37.936 50.1876C37.9391 50.1537 37.9344 50.1196 37.9223 50.0878C37.9059 50.0529 37.8804 50.0231 37.8484 50.0018Z" fill="#EBBC95"/>
</g>
<mask id="mask31_2788_5471" style="mask-type:luminance" maskUnits="userSpaceOnUse" x="2" y="7" width="66" height="57">
<path d="M2 7H67.0414V63.3626H2V7Z" fill="white"/>
</mask>
<g mask="url(#mask31_2788_5471)">
<path d="M36.0976 51.2072C36.0334 51.1644 35.9432 51.161 35.8698 51.1593L34.4074 51.1296C34.2881 50.8489 34.1804 50.5633 34.0847 50.2736C34.0716 50.2283 34.047 50.1872 34.0134 50.1544C33.9797 50.1216 33.9382 50.0983 33.8929 50.0867C33.8366 50.0733 33.7784 50.0699 33.7209 50.0765C33.6386 50.0816 33.5551 50.0981 33.488 50.1447C33.3864 50.2159 33.3701 50.3414 33.4124 50.4541C33.5371 50.8232 33.6894 51.1877 33.8682 51.5335L33.8929 51.5814L33.947 51.583C34.3386 51.5979 34.7322 51.6064 35.122 51.6064C35.3352 51.6064 35.5483 51.603 35.7565 51.5996C35.8563 51.5962 35.973 51.5962 36.0632 51.5432C36.0905 51.5279 36.1145 51.5071 36.1336 51.4821C36.1527 51.4571 36.1666 51.4284 36.1744 51.3979C36.1815 51.362 36.1781 51.3247 36.1644 51.2908C36.1508 51.2569 36.1275 51.2278 36.0976 51.2072Z" fill="#EBBC95"/>
</g>
<mask id="mask32_2788_5471" style="mask-type:luminance" maskUnits="userSpaceOnUse" x="2" y="7" width="66" height="57">
<path d="M2 7H67.0414V63.3626H2V7Z" fill="white"/>
</mask>
<g mask="url(#mask32_2788_5471)">
<path d="M34.6251 52.1985C34.5596 52.1226 34.4136 52.1061 34.3301 52.1044C33.8597 52.0909 33.3876 52.0777 32.9172 52.0612C32.7512 51.8528 32.6025 51.6308 32.4729 51.3976C32.3973 51.2598 32.2022 51.2467 32.0713 51.2598C32.015 51.2627 31.9603 51.2799 31.9122 51.3098C31.817 51.3726 31.8023 51.4967 31.8699 51.5895C32.0516 51.8773 32.2597 52.1557 32.4859 52.4104L32.5123 52.4405L32.5513 52.4418C33.1111 52.4636 33.6713 52.4748 34.2315 52.4752H34.2563C34.2759 52.4776 34.2957 52.4786 34.3154 52.4782C34.417 52.4782 34.5269 52.4617 34.6054 52.3939C34.6315 52.3733 34.6496 52.344 34.6562 52.3112C34.6596 52.2913 34.6587 52.2708 34.6533 52.2513C34.6479 52.2318 34.6383 52.2138 34.6251 52.1985Z" fill="#EBBC95"/>
</g>
<mask id="mask33_2788_5471" style="mask-type:luminance" maskUnits="userSpaceOnUse" x="2" y="7" width="66" height="57">
<path d="M2 7H67.0414V63.3626H2V7Z" fill="white"/>
</mask>
<g mask="url(#mask33_2788_5471)">
<path d="M33.294 52.7831C33.2184 52.7369 33.0942 52.7284 33.0267 52.7318C32.5906 52.7126 32.1551 52.6834 31.7204 52.6441C31.5317 52.4963 31.3476 52.3429 31.1682 52.1838C31.0599 52.0864 30.9206 52.0614 30.7813 52.0647C30.7305 52.0642 30.6808 52.0791 30.6386 52.1076C30.5584 52.1707 30.5731 52.2999 30.66 52.3495C30.8813 52.5517 31.1218 52.7312 31.378 52.8856L31.4141 52.8975C31.9403 52.9602 32.4761 53.0034 33.0057 53.028C33.0353 53.0314 33.0658 53.0331 33.0972 53.0331C33.1857 53.0331 33.3414 53.0233 33.3565 52.9072C33.3628 52.8492 33.3368 52.8098 33.294 52.7831Z" fill="#EBBC95"/>
</g>
<mask id="mask34_2788_5471" style="mask-type:luminance" maskUnits="userSpaceOnUse" x="2" y="7" width="66" height="57">
<path d="M2 7H67.0414V63.3626H2V7Z" fill="white"/>
</mask>
<g mask="url(#mask34_2788_5471)">
<path d="M22.8122 27.1262C22.5386 26.8397 22.1139 27.3135 22.3661 27.5749C22.5956 27.8461 22.8415 28.1093 23.0988 28.361C22.8888 28.7979 22.678 29.2344 22.4664 29.6705C22.3875 29.8328 22.3892 30.0163 22.5579 30.1193C22.7647 30.2401 22.9368 30.0761 23.022 29.8938C23.2874 29.3319 23.5474 28.7674 23.802 28.2004L23.8318 28.1394L23.7806 28.0928C23.4496 27.779 23.1267 27.4567 22.8122 27.1262Z" fill="#EBBC95"/>
</g>
<mask id="mask35_2788_5471" style="mask-type:luminance" maskUnits="userSpaceOnUse" x="2" y="7" width="66" height="57">
<path d="M2 7H67.0414V63.3626H2V7Z" fill="white"/>
</mask>
<g mask="url(#mask35_2788_5471)">
<path d="M24.6757 26.3561C24.4659 26.1989 24.2002 26.2913 24.1415 26.5578C24.1004 26.7367 24.212 26.8329 24.3349 26.932L24.6215 27.1621C24.6723 27.202 25.2002 27.5728 25.1922 27.5944C25.0086 28.0637 24.8151 28.5289 24.6119 28.9899C24.5347 29.162 24.5888 29.3755 24.7726 29.4484C25.0005 29.5362 25.1578 29.3573 25.2396 29.1636C25.4911 28.571 25.7305 27.9732 25.9576 27.3706L25.982 27.3028L25.9232 27.2613C25.5036 26.9651 25.0823 26.6608 24.6757 26.3561Z" fill="#EBBC95"/>
</g>
<mask id="mask36_2788_5471" style="mask-type:luminance" maskUnits="userSpaceOnUse" x="2" y="7" width="66" height="57">
<path d="M2 7H67.0414V63.3626H2V7Z" fill="white"/>
</mask>
<g mask="url(#mask36_2788_5471)">
<path d="M26.7199 25.4595C26.5659 25.3731 26.3837 25.3765 26.2625 25.5142C26.1362 25.6562 26.1316 25.9015 26.3149 25.9956C26.6934 26.2243 27.0764 26.4451 27.4639 26.658C27.3099 27.1445 27.1542 27.6331 27.0002 28.1145C26.976 28.1754 26.9648 28.2409 26.9674 28.3065C26.9708 28.4789 27.1479 28.5616 27.2985 28.5667C27.5083 28.5747 27.6313 28.4226 27.6934 28.2336C27.8952 27.6246 28.0836 26.9974 28.254 26.3698L28.2737 26.2969L28.2083 26.2605C27.7102 25.9971 27.2141 25.7301 26.7199 25.4595Z" fill="#EBBC95"/>
</g>
<mask id="mask37_2788_5471" style="mask-type:luminance" maskUnits="userSpaceOnUse" x="2" y="7" width="66" height="57">
<path d="M2 7H67.0414V63.3626H2V7Z" fill="white"/>
</mask>
<g mask="url(#mask37_2788_5471)">
<path d="M30.6476 25.0909L30.5771 25.0625C30.0103 24.8398 29.4442 24.6152 28.8789 24.3887C28.6577 24.301 28.3606 24.3853 28.3296 24.6604C28.3002 24.9468 28.7182 25.0443 28.915 25.1303C29.2216 25.2679 29.5324 25.3965 29.8474 25.516C29.7538 26.0102 29.6512 26.5025 29.5394 26.9928C29.5277 27.0388 29.5256 27.0867 29.5331 27.1335C29.5406 27.1804 29.5576 27.2252 29.583 27.2651C29.6084 27.305 29.6416 27.3392 29.6807 27.3656C29.7198 27.3919 29.7638 27.4099 29.81 27.4183C30.0475 27.4628 30.2326 27.2759 30.2754 27.0522C30.4017 26.5144 30.51 25.9614 30.5951 25.4117L30.6476 25.0909Z" fill="#EBBC95"/>
</g>
<mask id="mask38_2788_5471" style="mask-type:luminance" maskUnits="userSpaceOnUse" x="2" y="7" width="66" height="57">
<path d="M2 7H67.0414V63.3626H2V7Z" fill="white"/>
</mask>
<g mask="url(#mask38_2788_5471)">
<path d="M30.5429 23.7077C30.5807 23.7442 30.6298 23.7705 30.6856 23.7853C31.1594 23.9624 31.6444 24.1214 32.1316 24.2591C32.1138 24.7379 32.0792 25.2159 32.028 25.6923C32.007 25.8911 32.1429 26.05 32.3347 26.0767C32.5806 26.1114 32.7611 25.936 32.7837 25.694C32.8429 25.0867 32.8689 24.4676 32.8626 23.8548L32.8609 23.7836L32.7921 23.7654C32.6736 23.7339 32.5556 23.7009 32.4379 23.6662C31.9524 23.5195 31.4661 23.3755 30.9789 23.2344C30.7825 23.178 30.5119 23.1912 30.4594 23.4446C30.4492 23.492 30.4515 23.5413 30.4661 23.5875C30.4808 23.6337 30.5073 23.6752 30.5429 23.7077Z" fill="#EBBC95"/>
</g>
<mask id="mask39_2788_5471" style="mask-type:luminance" maskUnits="userSpaceOnUse" x="2" y="7" width="66" height="57">
<path d="M2 7H67.0414V63.3626H2V7Z" fill="white"/>
</mask>
<g mask="url(#mask39_2788_5471)">
<path d="M32.7245 22.5626C33.2293 22.6685 33.7421 22.7842 34.252 22.9033C34.3093 23.3545 34.3476 23.8079 34.3669 24.2623C34.3766 24.5124 34.5965 24.6581 34.8373 24.6052C34.9253 24.5846 35.0022 24.5312 35.0527 24.4556C35.1031 24.38 35.1233 24.288 35.1092 24.1979C35.0783 23.6136 35.0061 23.0322 34.8931 22.4583L34.8797 22.3969L34.821 22.3837C34.1934 22.2532 33.565 22.1262 32.936 22.0028C32.7308 21.9633 32.4358 21.9896 32.4375 22.271C32.4392 22.435 32.5735 22.5409 32.7245 22.5626Z" fill="#EBBC95"/>
</g>
<mask id="mask40_2788_5471" style="mask-type:luminance" maskUnits="userSpaceOnUse" x="2" y="7" width="66" height="57">
<path d="M2 7H67.0414V63.3626H2V7Z" fill="white"/>
</mask>
<g mask="url(#mask40_2788_5471)">
<path d="M34.2469 21.1289C34.2595 21.1522 34.2756 21.1733 34.2947 21.1916C34.398 21.2958 34.5486 21.3009 34.6846 21.3242C34.839 21.3505 34.9913 21.3755 35.147 21.4001C35.301 21.4268 35.4533 21.4501 35.6094 21.473C35.6551 21.4814 36.042 21.5077 36.0517 21.5378C36.1893 21.9531 36.3077 22.3769 36.4025 22.7909C36.4566 23.0159 36.6715 23.1134 36.8893 23.0672C37.0827 23.0257 37.1662 22.8354 37.1075 22.6536C36.9809 22.1186 36.8132 21.5944 36.606 21.0856L36.5863 21.0361L36.5338 21.028C35.9045 20.9313 35.2739 20.843 34.6422 20.7631C34.5289 20.7496 34.3799 20.7432 34.2863 20.8225C34.1944 20.8987 34.1932 21.0293 34.2469 21.1289Z" fill="#EBBC95"/>
</g>
<mask id="mask41_2788_5471" style="mask-type:luminance" maskUnits="userSpaceOnUse" x="2" y="7" width="66" height="57">
<path d="M2 7H67.0414V63.3626H2V7Z" fill="white"/>
</mask>
<g mask="url(#mask41_2788_5471)">
<path d="M35.7357 19.9533C35.8079 20.0364 35.9191 20.0695 36.024 20.0826C36.5061 20.1407 37.0076 20.1936 37.5157 20.2398C37.7309 20.5924 37.9204 20.9615 38.0843 21.3472C38.1712 21.551 38.4435 21.629 38.6353 21.5408C38.7893 21.4701 38.7926 21.2993 38.7222 21.1637C38.5007 20.6828 38.2398 20.2215 37.9421 19.7847L37.9173 19.7465L37.8728 19.7432C37.2723 19.6889 36.6714 19.6393 36.0701 19.5944C35.9715 19.5859 35.844 19.5762 35.7571 19.6325C35.6438 19.7037 35.6505 19.8542 35.7357 19.9533Z" fill="#EBBC95"/>
</g>
<mask id="mask42_2788_5471" style="mask-type:luminance" maskUnits="userSpaceOnUse" x="2" y="7" width="66" height="57">
<path d="M2 7H67.0414V63.3626H2V7Z" fill="white"/>
</mask>
<g mask="url(#mask42_2788_5471)">
<path d="M36.8086 18.8127C36.8807 18.9419 37.0331 18.9881 37.1707 18.9966C37.6314 19.0263 38.0939 19.0576 38.5542 19.0924C38.8219 19.3862 39.0741 19.694 39.3099 20.0145C39.4115 20.1633 39.6016 20.2463 39.7803 20.1967C39.9738 20.1438 39.9608 19.9302 39.8441 19.8026C39.5477 19.4042 39.2194 19.031 38.8626 18.6868L38.8379 18.6635L38.8051 18.6622C38.2428 18.6207 37.6789 18.5826 37.1233 18.5512C36.9756 18.541 36.6923 18.5826 36.8086 18.8127Z" fill="#EBBC95"/>
</g>
<mask id="mask43_2788_5471" style="mask-type:luminance" maskUnits="userSpaceOnUse" x="2" y="7" width="66" height="57">
<path d="M2 7H67.0414V63.3626H2V7Z" fill="white"/>
</mask>
<g mask="url(#mask43_2788_5471)">
<path d="M37.5741 17.9517C37.5864 17.9647 37.5996 17.9769 37.6135 17.9882C37.7088 18.0611 37.825 18.089 37.9412 18.0958C38.3529 18.1187 38.7725 18.15 39.1888 18.1882C39.5001 18.4069 39.8001 18.6501 40.0805 18.9069C40.2 19.0175 40.4459 19.14 40.5983 19.0129C40.7132 18.9167 40.6067 18.7726 40.5181 18.7065C40.1578 18.3794 39.7683 18.0867 39.3545 17.8322L39.3134 17.8208C38.8182 17.7797 38.3201 17.7462 37.8414 17.7216C37.7365 17.7034 37.5069 17.7051 37.5334 17.8674C37.5384 17.8987 37.5548 17.9267 37.5741 17.9517Z" fill="#EBBC95"/>
</g>
<mask id="mask44_2788_5471" style="mask-type:luminance" maskUnits="userSpaceOnUse" x="2" y="7" width="66" height="57">
<path d="M2 7H67.0414V63.3626H2V7Z" fill="white"/>
</mask>
<g mask="url(#mask44_2788_5471)">
<path d="M37.9661 17.336C38.0613 17.4386 38.2187 17.4585 38.3479 17.4682C38.7021 17.4966 39.0609 17.5377 39.4184 17.5907C39.7642 17.7399 40.1003 17.917 40.415 18.117C40.5149 18.1802 40.846 18.3374 40.9102 18.1586C40.9492 18.0492 40.8069 17.9649 40.7297 17.9217C40.3271 17.6905 39.9098 17.4865 39.4805 17.311L39.4612 17.3059C39.0537 17.2437 38.6442 17.1957 38.2334 17.1618C38.1579 17.1538 37.943 17.1139 37.9233 17.2267C37.917 17.2614 37.9317 17.2962 37.9661 17.336Z" fill="#EBBC95"/>
</g>
<mask id="mask45_2788_5471" style="mask-type:luminance" maskUnits="userSpaceOnUse" x="2" y="7" width="66" height="57">
<path d="M2 7H67.0414V63.3626H2V7Z" fill="white"/>
</mask>
<g mask="url(#mask45_2788_5471)">
<path d="M66.9051 27.3244C66.4657 25.0284 65.3575 23.0782 64.2875 21.1928L63.6299 20.0342L62.1973 20.4779C61.7056 20.6317 61.2205 20.7838 60.7304 20.9182C60.1269 21.0805 59.7073 21.4759 59.4845 22.0933C59.1653 22.9792 58.8137 23.8527 58.4304 24.7123C58.3697 24.5571 58.2969 24.407 58.2126 24.2635C57.6701 23.3265 56.6995 22.7341 55.5505 22.643C54.2313 22.5353 52.9854 22.84 51.8608 23.5503C50.5776 24.3597 49.5269 25.3878 48.712 26.6273L51.489 16.7812L49.479 17.3389C49.3939 17.3623 49.325 17.3805 49.2596 17.4004L48.5286 17.6305C47.9399 17.8127 47.3532 17.9979 46.7616 18.1717C46.1993 18.3391 45.8157 18.7315 45.6533 19.3074C45.0071 21.5952 44.3608 23.8829 43.7143 26.1705L41.6099 26.818C40.9473 27.0214 40.3179 27.2151 39.6884 27.4173C39.2281 27.5677 38.9692 27.9321 38.8576 28.1288C38.8475 28.1453 38.8395 28.1623 38.8299 28.1771C37.0054 27.7796 35.2778 28.1834 33.7944 29.359C32.9862 29.9977 32.2835 30.762 31.7127 31.6233L32.0715 29.7811L29.7749 30.488C29.1307 30.685 28.508 30.877 27.8899 31.077C27.3902 31.2376 27.1459 31.6665 27.0687 31.8021C27.0644 31.8116 27.0589 31.8206 27.0524 31.8288C25.6412 31.4449 24.256 31.6402 22.917 32.4149L21.5431 25.6556L17.6566 26.8197C15.6521 27.4372 13.6492 28.0563 11.6443 28.6687C9.9297 29.1916 7.92349 29.8921 6.04526 31.1135C4.36342 32.2093 3.27995 33.393 2.63583 34.8381C1.58846 37.1921 1.83561 39.2712 3.37311 41.0176C3.9822 41.7182 4.74115 42.2696 5.59249 42.6301L7.14173 43.2624C6.52027 45.2342 5.51234 46.6924 4.06674 47.7137C3.34373 48.2218 2.92076 48.8677 2.77011 49.6868C2.73235 49.8873 2.67318 50.0827 2.61443 50.2814C2.57862 50.4015 2.54366 50.5234 2.50953 50.6471L2.17341 52.1405L3.91274 52.0426L6.99738 51.0874C9.61834 50.2763 12.241 49.4652 14.859 48.6376C16.7536 48.04 18.1174 47.0814 19.0288 45.7139C19.1975 45.4609 19.3502 45.2024 19.4929 44.9443C19.7596 45.1349 20.0506 45.288 20.3581 45.3995C21.3812 45.7703 22.5679 45.6974 23.5313 45.1994C24.3756 44.7655 25.0986 44.1201 25.7377 43.2276C26.4376 43.8387 27.4703 44.0404 28.5752 43.751C29.1742 43.5928 29.7353 43.3134 30.2243 42.9297L30.262 43.0704C30.3716 43.4679 30.4995 43.9213 30.7685 44.3502C31.6992 45.8368 33.4302 46.5238 35.2891 46.1364C36.7645 45.83 37.9936 44.946 38.9428 43.509C39.6179 42.4894 40.1097 41.3007 40.4886 39.778C41.09 39.4437 41.7097 39.0958 42.28 38.6309C42.4881 38.4618 42.6736 38.2766 42.8423 38.091C43.919 38.7915 45.3239 38.8093 46.6617 38.0647C47.6138 37.5333 48.2382 36.7616 48.6843 36.0153C49.2415 36.3531 49.9629 36.5696 50.9234 36.5383C51.6261 36.5126 52.3236 36.4048 53.0018 36.217C54.859 35.6992 56.4766 34.5884 58.093 32.7225C58.3376 32.4391 58.5737 32.1483 58.8009 31.8504C58.8551 31.9114 58.9092 31.9729 58.9684 32.0322C59.9469 33.0306 61.2238 33.4163 62.771 33.1828C64.1465 32.9743 65.3332 32.2441 66.1133 31.1287C66.8837 30.0277 67.1657 28.6767 66.9051 27.3244Z" fill="white"/>
</g>
<mask id="mask46_2788_5471" style="mask-type:luminance" maskUnits="userSpaceOnUse" x="2" y="7" width="66" height="57">
<path d="M2 7H67.0414V63.3626H2V7Z" fill="white"/>
</mask>
<g mask="url(#mask46_2788_5471)">
<path d="M51.4354 29.4946C52.7908 29.1205 53.9368 28.5611 54.7744 27.4851C55.0513 27.1291 55.2527 26.7316 55.2645 26.2633C55.2758 25.7734 54.9464 25.4488 54.4794 25.5649C54.1613 25.6442 53.8285 25.7883 53.581 25.9985C52.5122 26.9007 51.9629 28.1424 51.4354 29.4946ZM38.7599 31.1334C37.9106 30.6617 37.0059 30.8041 36.2519 31.5241C35.0568 32.6696 34.4244 34.1198 34.0799 35.7123C33.9309 36.3959 33.8638 37.093 34.0572 37.7833C34.2637 38.5199 34.8209 38.7284 35.4256 38.2631C35.7307 38.0283 36.0026 37.7253 36.2288 37.4108C36.8926 36.4853 37.342 35.4441 37.7138 34.3732C38.0894 33.2989 38.4154 32.2077 38.7599 31.1334ZM26.8595 34.7686C26.8104 34.7156 26.8007 34.6957 26.7843 34.6859C26.7485 34.665 26.7112 34.6467 26.6727 34.6313C25.7844 34.2787 25.0337 34.552 24.3812 35.1792C23.2797 36.237 22.6519 37.5731 22.2436 39.0246C22.0305 39.7764 21.8651 40.5443 21.9814 41.3342C22.111 42.2046 22.7094 42.4826 23.4274 41.9699C23.7878 41.7113 24.1025 41.3571 24.3631 40.9897C25.0287 40.0527 25.45 38.9852 25.8301 37.9058C26.1973 36.8595 26.5238 35.7984 26.8595 34.7686ZM49.8879 18.3887C49.6634 19.1917 49.4536 19.9482 49.2387 20.7063C47.9681 25.1837 46.6989 29.6615 45.4311 34.1397C45.3736 34.3401 45.3228 34.5452 45.3115 34.7504C45.2918 35.0847 45.4756 35.2271 45.7999 35.1559C46.3442 35.0385 46.6476 34.6249 46.9128 34.1859C47.5833 33.0802 47.898 31.842 48.206 30.5973C48.8472 28.0212 50.1913 25.9256 52.4518 24.4987C53.3661 23.9211 54.3757 23.6711 55.4625 23.7588C57.1691 23.8961 58.0344 25.512 57.2774 27.1689C56.7609 28.303 55.8742 29.0806 54.8365 29.7065C53.745 30.3638 52.5579 30.7711 51.3108 30.9978C51.0666 31.0423 50.9697 31.1453 50.986 31.3834C51.0074 31.7246 50.9764 32.0772 51.0519 32.4047C51.1648 32.8963 51.5731 33.1828 52.0762 33.1993C52.9335 33.226 53.6594 32.8633 54.3333 32.3802C55.5628 31.4962 56.4936 30.3291 57.3215 29.0743C58.6785 27.0198 59.6915 24.7915 60.5278 22.4773C60.621 22.2209 60.7439 22.0734 61.0196 21.9993C61.7145 21.812 62.3981 21.5852 63.1093 21.3666C64.2272 23.3414 65.3862 25.2768 65.8188 27.5381C66.2401 29.7315 64.8025 31.7411 62.6079 32.0755C61.5244 32.2395 60.5521 32.0522 59.7591 31.2427C59.428 30.9067 59.1934 30.5126 59.1212 30.0193C59.449 30.1337 59.7507 30.2579 60.0637 30.3439C60.5966 30.4931 61.1291 30.4532 61.644 30.2579C62.5076 29.9299 62.9339 29.2035 62.8093 28.1886C62.6469 26.8592 62.0947 25.6607 61.503 24.4093C61.367 24.7487 61.2571 25.0318 61.1438 25.3115C60.1606 27.7216 58.9706 30.0095 57.2611 31.9843C56.0118 33.426 54.5776 34.6164 52.709 35.1377C52.113 35.3019 51.5002 35.3963 50.8828 35.4191C49.8619 35.4572 48.9634 35.1513 48.3798 34.1249C48.2799 34.3567 48.2044 34.5419 48.1175 34.7224C47.6555 35.681 47.0835 36.5514 46.1276 37.0845C45.0064 37.7088 43.6019 37.702 42.7673 36.4705C42.3808 36.9023 42.033 37.3943 41.5873 37.7583C41.0708 38.1787 40.4774 38.5067 39.8942 38.8309C39.6613 38.9602 39.5169 39.0793 39.4515 39.3543C39.1531 40.6023 38.7369 41.8092 38.0239 42.8886C37.3043 43.9743 36.3731 44.7672 35.0685 45.0389C33.675 45.3283 32.3997 44.8566 31.7082 43.7527C31.5231 43.456 31.4262 43.1052 31.328 42.756C31.7854 43.0424 32.244 43.2242 32.7606 43.2726C33.5654 43.3484 34.2406 43.0789 34.8209 42.5326C35.4357 41.9546 35.87 41.246 36.1914 40.4731C36.5516 39.603 36.8747 38.7178 37.1599 37.8198C36.8091 38.3211 36.4797 38.8377 36.1058 39.3212C35.6715 39.8806 35.165 40.3773 34.4932 40.6485C33.3686 41.1041 32.1375 40.6866 31.5001 39.6488L31.3477 39.3971C31.1295 39.8357 30.9474 40.2629 30.7116 40.657C30.1443 41.6122 29.4099 42.372 28.2954 42.6665C27.4331 42.8933 26.622 42.7081 26.2237 42.1004C26.0139 41.7808 25.917 41.3872 25.7777 41.0494C25.5221 41.4732 25.2565 41.9648 24.9451 42.4233C24.4433 43.1598 23.8386 43.7874 23.0321 44.2027C21.8177 44.8287 19.9802 44.5502 19.3197 43.0077C19.3029 42.9712 19.2702 42.9429 19.2866 42.9628C18.903 43.665 18.5589 44.4129 18.1099 45.0901C17.2493 46.3831 15.964 47.1145 14.5285 47.568C10.9319 48.7054 7.3244 49.8127 3.71985 50.9319C3.69173 50.9404 3.66068 50.937 3.58053 50.9451C3.6804 50.581 3.79832 50.2416 3.86252 49.8924C3.96407 49.3411 4.23766 48.9605 4.70344 48.6308C6.58503 47.3031 7.68821 45.4262 8.31261 43.2276C9.35663 39.5611 10.4107 35.8975 11.4598 32.231C11.4795 32.1632 11.4908 32.092 11.5206 31.961C11.0565 32.1085 10.6256 32.231 10.2043 32.3865C8.4813 33.0222 7.008 34.0024 6.08484 35.6509C5.02613 37.5448 4.95731 39.4848 5.95559 41.4384C5.97196 41.4715 5.98664 41.5062 6.02945 41.599C5.32955 41.3033 4.70559 40.8504 4.20493 40.2747C2.86256 38.7483 2.86718 37.0566 3.65103 35.2983C4.28214 33.8816 5.38029 32.8815 6.64881 32.0555C8.29289 30.9847 10.1056 30.3092 11.9679 29.7396C14.8167 28.8704 17.6622 27.9881 20.511 27.1109C20.5588 27.0961 20.6079 27.0846 20.6998 27.0579L21.7258 32.1183C21.6994 32.15 21.6897 32.1729 21.6734 32.178C21.1585 32.3751 21.1618 32.3734 20.8572 31.9034C20.6654 31.6068 20.4653 31.3173 20.2622 31.0292C19.6407 30.1468 18.7952 29.8489 17.7654 30.0973C17.097 30.2596 16.4348 30.4579 15.7722 30.6567C15.6854 30.6817 15.5821 30.7893 15.5578 30.8787C14.912 33.1464 14.2758 35.4178 13.638 37.6888C13.6284 37.7253 13.6368 37.7668 13.6368 37.8558C15.0576 37.4172 16.4558 36.9854 17.9098 36.5349C17.731 37.1506 17.5787 37.7088 17.397 38.2567C17.3689 38.341 17.2166 38.4054 17.1083 38.4389C15.8675 38.8246 14.625 39.2068 13.3808 39.5759C13.1563 39.642 13.0564 39.7582 12.9893 39.9832C12.6582 41.099 12.3548 42.2245 11.9432 43.3107C11.4006 44.7439 10.4699 45.9029 9.21437 46.7853C9.15194 46.8262 9.10289 46.8849 9.07338 46.9539C9.71246 46.7603 10.3515 46.5683 10.9894 46.3729C12.114 46.0288 13.2302 45.658 14.361 45.3402C16.4461 44.7524 17.854 43.4349 18.5854 41.3935C18.8967 40.5243 19.1099 39.6208 19.4015 38.7449C20.0389 36.8396 21.08 35.1991 22.6586 33.9443C24.137 32.7675 25.7517 32.3717 27.5728 33.2061C27.7268 32.923 27.8724 32.6399 28.0315 32.3636C28.0793 32.2789 28.1464 32.17 28.2283 32.145C29.0117 31.8898 29.8002 31.6517 30.6281 31.3966C30.6033 31.5224 30.592 31.6118 30.5689 31.6962C29.8474 34.2456 29.1268 36.7949 28.407 39.3441C28.3479 39.5543 28.2874 39.7679 28.266 39.9832C28.2333 40.3425 28.4398 40.5095 28.7872 40.4184C29.3201 40.276 29.6214 39.8624 29.882 39.4204C30.5395 38.3063 30.8887 37.0782 31.1639 35.8263C31.6574 33.5917 32.6721 31.6733 34.4815 30.2397C35.8666 29.1421 37.4125 28.884 39.091 29.4018C39.1812 29.4302 39.2681 29.4582 39.3579 29.4849C39.3646 29.4862 39.3759 29.4764 39.4171 29.4582C39.5417 29.2166 39.6743 28.9467 39.822 28.6869C39.8677 28.6039 39.9466 28.5115 40.0301 28.4831C40.8056 28.2348 41.5823 27.9983 42.4232 27.7398C41.6314 30.8274 40.853 33.8697 40.0595 36.9638C40.8073 36.6095 41.3154 36.0747 41.735 35.4492C42.5428 34.2422 42.9725 32.8751 43.364 31.4911C44.4819 27.5313 45.6065 23.5732 46.721 19.6138C46.7785 19.4117 46.8721 19.3074 47.0768 19.246C47.9161 18.9993 48.752 18.7315 49.5878 18.4713C49.6718 18.445 49.757 18.4234 49.8879 18.3887Z" fill="#07111F"/>
</g>
</g>
<defs>
<clipPath id="clip0_2788_5471">
<rect width="65" height="56" fill="white" transform="translate(2 7)"/>
</clipPath>
</defs>
</svg>
