<svg width="70" height="70" viewBox="0 0 70 70" fill="none" xmlns="http://www.w3.org/2000/svg">
<g clip-path="url(#clip0_2788_6223)">
<path d="M61.0204 39.1092L67.2 28.9948H57.0301C57.8891 26.068 59.0993 23.3103 60.7264 20.9111C51.6983 20.6294 42.0784 18.4975 35.3502 11.8516C28.6216 18.4975 19.0021 20.6294 9.97358 20.9111C11.6007 23.3103 12.8109 26.068 13.6702 28.9948H3.5L9.67999 39.1092L5.52597 47.0836H15.0532C14.8277 49.0972 14.4861 51.0093 14.0473 52.7529C14.0473 52.7529 26.388 55.0051 35.3502 62.9995C44.312 55.0051 56.6531 52.7529 56.6531 52.7529C56.2143 51.009 55.8723 49.0968 55.6464 47.0836H65.174L61.0204 39.1092Z" fill="#E2E3E4"/>
<path d="M58.5914 39.1095L62.6517 31.3914H52.8705C53.4184 28.4171 54.2809 25.6503 55.5303 23.4161C49.2156 23.3498 39.5586 20.6369 35.3495 16.1387C31.1404 20.6369 21.4837 23.3498 15.1687 23.4161C16.4177 25.6503 17.2802 28.4171 17.8281 31.3914H8.04688L12.1076 39.1095L8.56319 45.6086H18.3511C18.1536 47.6953 17.8442 49.623 17.4496 51.261C17.4496 51.261 26.3066 53.2277 35.3495 61.0144C44.3924 53.2277 53.2493 51.261 53.2493 51.261C52.8544 49.623 52.545 47.6953 52.3479 45.6086H62.1354L58.5914 39.1095Z" fill="#111111"/>
<path d="M35.3469 51.6719C31.9151 51.6739 28.9571 53.6617 27.5938 56.5284L35.3469 61.6387L43.1 56.5284C41.7363 53.6617 38.7784 51.6739 35.3469 51.6719Z" fill="#E2E3E4"/>
<path d="M22.167 43.5328L18.3297 39.2025L21.6243 35.624H19.2381L16.626 38.4132V33.1562H13.5078C14.0971 33.6452 14.5976 34.2936 14.5976 35.1674V43.5328H16.626V40.1853L19.6384 43.5328H22.167ZM48.4485 35.624V43.5328H46.4204V37.6355C46.4204 36.762 45.9196 36.114 45.3299 35.624H48.4485ZM56.9656 41.8658L57.9362 43.5328H49.9592L54.0589 37.2907H50.2307V35.624H57.7622L53.3163 41.8658H56.9656ZM26.0028 41.2513V37.2907H27.4273L28.3985 35.624H26.0028V33.1562L23.9751 34.2974V35.6243H22.4809V37.291H23.9751V41.3602C23.9751 41.6456 24.0322 41.9281 24.1432 42.1918C24.2543 42.4554 24.417 42.6949 24.6222 42.8967C24.8274 43.0985 25.071 43.2585 25.3392 43.3677C25.6073 43.4769 25.8947 43.5332 26.1849 43.5332H27.7931V41.8661H26.6279C26.4621 41.8661 26.3031 41.8012 26.1859 41.6859C26.0687 41.5706 26.0028 41.4143 26.0028 41.2513ZM42.2408 35.624L40.2285 39.7898L37.89 35.4164L35.5501 39.7905L33.5385 35.624H30.3828C31.0994 36.0199 31.9138 36.6868 32.4038 37.6648C32.8938 38.6428 35.4519 43.7225 35.4519 43.7225L37.8897 39.1442L40.3271 43.7225L44.4201 35.624H42.2408Z" fill="white"/>
<path d="M49.5035 26.8187C47.152 25.6631 46.1432 24.5627 46.1432 24.5627C43.3066 8.01986 23.1033 3.9758 14.0794 7.44706C19.8168 8.89647 24.9343 10.979 28.4086 14.7186C23.6014 13.523 16.9942 13.255 13.125 14.431C17.9662 15.051 25.2479 18.2802 29.672 24.4196C33.101 29.1785 35.0052 31.209 38.7924 33.2774C41.201 32.3667 43.2628 30.1206 43.9369 28.4823C45.9085 28.5678 48.3256 27.7477 49.5035 26.8187Z" fill="#E2E3E4"/>
<path d="M48.2315 26.8655C38.8989 25.0095 38.3055 15.3564 22.9844 15.3564C31.5653 19.9905 31.6597 28.0125 38.9144 32.1045C38.9144 32.1045 39.7365 31.2565 40.5261 29.3991L41.8793 29.7143C42.1291 28.0683 41.8208 26.4137 41.8208 26.4137C42.758 26.7841 45.556 27.7135 48.2315 26.8655Z" fill="#ED1B23"/>
<path d="M31.062 15.4335C36.8909 17.2187 41.3662 20.2262 44.0656 22.8491C41.8709 12.0608 28.2247 5.34554 16.6094 7.39016C16.6094 7.39016 25.6582 8.65783 31.062 15.4335Z" fill="#111111"/>
<path d="M37.2554 26.6366C37.072 25.2407 36.0657 23.6519 34.6328 22.4967C36.1775 23.0312 37.5146 22.7739 38.1183 21.8242C38.3017 23.2205 39.3081 24.8089 40.7409 25.9641C39.1965 25.4293 37.8591 25.6876 37.2554 26.6366Z" fill="white"/>
<path d="M44.4373 45.8311C44.0073 45.8311 43.6558 45.9929 43.4303 46.2729L43.3198 45.9035H42.244C42.4685 46.0898 42.6586 46.3363 42.6586 46.6695V48.9134H43.4303V47.1043C43.5187 46.8236 43.8761 46.4846 44.2339 46.4846C44.6422 46.4846 44.8424 46.8477 44.8424 47.2809V48.9134H45.6138V47.1943C45.6138 46.2408 44.9978 45.8311 44.4373 45.8311ZM31.0935 47.5271C31.0935 48.0247 30.8791 48.3447 30.4284 48.3447C29.9777 48.3447 29.763 48.0247 29.763 47.5271V45.8977H28.5761C28.8002 46.0849 28.991 46.3315 28.991 46.6643V47.6571H28.9956C28.9956 48.7034 29.9061 48.9855 30.4284 48.9855C30.95 48.9855 31.8613 48.7037 31.8613 47.6571V45.8977H31.0935V47.5271ZM36.9476 45.9035L36.1822 47.5119L35.292 45.8008L34.4018 47.5126L33.6361 45.9035H32.4351C32.708 46.0546 33.0177 46.3081 33.2043 46.6805C33.3906 47.0522 34.3643 49.0317 34.3643 49.0317L35.2917 47.2195L36.2194 49.0317L37.7771 45.9035H36.9476ZM39.9627 45.8163C39.0178 45.8163 38.2682 46.4757 38.2682 47.4081C38.2682 48.3403 39.0178 49 39.9627 49C40.908 49 41.6569 48.3403 41.6569 47.4081C41.6569 46.4757 40.908 45.8163 39.9627 45.8163ZM39.9627 48.3885C39.4766 48.3885 39.0823 47.9775 39.0823 47.4081C39.0823 46.8402 39.4766 46.4277 39.9627 46.4277C40.4489 46.4277 40.8431 46.8398 40.8431 47.4081C40.8431 47.9771 40.4489 48.3885 39.9627 48.3885ZM26.401 48.3892C25.9257 48.3892 25.5094 48.062 25.4827 47.8316L25.0938 48.6196C25.353 48.8406 25.831 48.9872 26.4266 48.9872C27.3533 48.9872 27.9037 48.5896 27.9037 48.0423C27.8953 47.5943 27.6283 47.315 26.8654 47.116C26.3281 46.9788 26.018 46.925 26.018 46.7326C26.018 46.5188 26.2867 46.4063 26.6311 46.4063C26.9208 46.4063 27.1955 46.4739 27.4438 46.636L27.7451 46.1063C27.5627 45.9577 27.0061 45.8287 26.6395 45.8287C25.7434 45.8287 25.1941 46.267 25.1941 46.8015C25.1856 47.156 25.4438 47.4574 26.267 47.6633C26.7876 47.7937 27.0769 47.8557 27.0769 48.0609C27.0773 48.2844 26.7984 48.3892 26.401 48.3892Z" fill="#E2E3E4"/>
<path d="M39.6108 56.5524C39.473 56.431 39.4151 56.1172 39.4898 55.8696L39.4909 55.8672L39.4902 55.8675L39.4898 55.8682C39.3779 56.0062 39.1798 56.0907 39.0465 56.0872C38.937 56.0844 38.2324 56.0751 38.2324 56.0751C38.1761 56.0743 38.1219 56.0954 38.0815 56.1339C38.0411 56.1724 38.0179 56.225 38.017 56.2803C38.0161 56.3356 38.0376 56.389 38.0768 56.4287C38.1159 56.4684 38.1695 56.4912 38.2257 56.4921C38.2257 56.4921 38.8494 56.5034 38.9479 56.5024C39.0651 56.5024 39.2191 56.4369 39.2959 56.3445L39.339 56.2379C39.3099 56.312 39.2822 56.3869 39.2545 56.4614C39.2131 56.6559 39.2608 56.7638 39.4127 56.8907C39.5733 57.0283 39.8171 57.2356 39.8171 57.2356C39.8562 57.2687 39.9075 57.2852 39.959 57.2815C40.0105 57.2777 40.0584 57.254 40.0921 57.2156C40.1258 57.1771 40.1426 57.127 40.1388 57.0764C40.135 57.0258 40.1109 56.9787 40.0717 56.9455C40.0717 56.9455 39.6859 56.6183 39.6108 56.5524ZM40.104 55.4216C39.9812 55.2858 39.9595 54.9675 40.0623 54.7295L40.0637 54.7271L40.0626 54.7278L40.0623 54.7281C39.9353 54.8533 39.7287 54.914 39.5968 54.8957C39.4888 54.8816 38.789 54.7937 38.789 54.7937C38.7614 54.7902 38.7334 54.7921 38.7065 54.7992C38.6796 54.8064 38.6545 54.8187 38.6324 54.8354C38.6104 54.8522 38.5919 54.873 38.5781 54.8968C38.5642 54.9205 38.5553 54.9467 38.5517 54.9739C38.5482 55.001 38.5501 55.0286 38.5574 55.055C38.5647 55.0814 38.5772 55.1062 38.5942 55.1278C38.6112 55.1495 38.6324 55.1676 38.6566 55.1812C38.6807 55.1949 38.7074 55.2037 38.735 55.2071C38.735 55.2071 39.353 55.2875 39.4513 55.2982C39.5674 55.3109 39.7284 55.2627 39.8146 55.1799L39.8701 55.0785C39.8336 55.1475 39.7985 55.2168 39.7634 55.2858C39.6954 55.4689 39.7329 55.5917 39.8683 55.7355L40.2306 56.1231C40.2656 56.1604 40.3146 56.1825 40.3662 56.1846C40.4177 56.1867 40.468 56.1685 40.506 56.1341C40.5439 56.0997 40.5664 56.0519 40.5685 56.0012C40.5707 55.9505 40.5522 55.9011 40.5172 55.8637C40.5172 55.8641 40.171 55.4954 40.104 55.4216ZM38.6007 59.5636C38.5421 59.7302 38.3832 59.8744 38.2569 59.9157C38.1531 59.9488 37.4849 60.1706 37.4849 60.1706C37.4334 60.1896 37.3915 60.2276 37.3679 60.2764C37.3443 60.3253 37.341 60.3812 37.3585 60.4325C37.3761 60.4837 37.4132 60.5262 37.462 60.5511C37.5108 60.576 37.5676 60.5812 37.6203 60.5658C37.6203 60.5658 38.2124 60.372 38.305 60.3399C38.4151 60.3009 38.567 60.1816 38.5789 60.0768L38.601 59.5654V59.5633L38.6007 59.5636ZM41.0833 54.8382C41.0833 54.8382 40.782 54.434 40.7238 54.3533C40.6172 54.2043 40.6326 53.886 40.762 53.6608L40.7634 53.6581L40.7627 53.6588L40.7624 53.6595C40.6221 53.7695 40.4095 53.8071 40.2801 53.7746C40.1742 53.7481 39.4895 53.5832 39.4895 53.5832C39.435 53.57 39.3774 53.5786 39.3293 53.6072C39.2812 53.6357 39.2467 53.6819 39.2333 53.7355C39.2198 53.7891 39.2286 53.8457 39.2576 53.893C39.2867 53.9402 39.3336 53.9742 39.3881 53.9874C39.3881 53.9874 39.9935 54.1364 40.0893 54.1574C40.2036 54.1829 40.3688 54.1526 40.4642 54.0802L40.5305 53.9867C40.487 54.0505 40.4446 54.114 40.4025 54.1778C40.3176 54.3433 40.3362 54.4805 40.4537 54.6385L40.769 55.0637C40.7837 55.085 40.8026 55.1032 40.8245 55.1171C40.8465 55.1311 40.8711 55.1406 40.8968 55.145C40.9226 55.1494 40.949 55.1487 40.9745 55.1428C40.9999 55.137 41.0239 55.1262 41.0451 55.111C41.0662 55.0959 41.084 55.0767 41.0974 55.0546C41.1108 55.0325 41.1196 55.0081 41.1231 54.9826C41.1267 54.9571 41.125 54.9312 41.1182 54.9064C41.1113 54.8816 41.0995 54.8584 41.0833 54.8382ZM39.5681 59.2233C39.5681 59.2233 39.1163 58.9891 39.0286 58.9415C38.8665 58.8539 38.7382 58.5608 38.7546 58.3029L38.755 58.3001L38.7546 58.3005V58.3008L38.7543 58.3015C38.6771 58.4608 38.5025 58.5863 38.3723 58.6125C38.2653 58.6339 37.5765 58.7801 37.5765 58.7801C37.5482 58.7848 37.5211 58.795 37.497 58.8102C37.4729 58.8254 37.4521 58.8453 37.436 58.8686C37.4199 58.8919 37.4087 58.9182 37.4032 58.9459C37.3977 58.9735 37.398 59.002 37.404 59.0296C37.41 59.0571 37.4216 59.0832 37.4381 59.1063C37.4547 59.1293 37.4758 59.1488 37.5002 59.1636C37.5246 59.1783 37.5518 59.1881 37.5802 59.1923C37.6085 59.1964 37.6375 59.1949 37.6652 59.1878V59.1881C37.6652 59.1881 38.2755 59.0612 38.3713 59.0391C38.4853 59.0129 38.6207 58.9146 38.6736 58.8084L38.6919 58.6936C38.6806 58.7708 38.6712 58.8481 38.6613 58.925C38.668 59.1167 38.7364 59.2233 38.9125 59.315L39.3857 59.5612C39.4083 59.574 39.4333 59.5821 39.4592 59.5852C39.4851 59.5883 39.5114 59.5862 39.5365 59.579C39.5616 59.5719 39.5849 59.5599 39.6052 59.5437C39.6254 59.5276 39.6422 59.5075 39.6544 59.4849C39.6666 59.4622 39.6741 59.4374 39.6764 59.4118C39.6786 59.3862 39.6757 59.3605 39.6676 59.3361C39.6596 59.3117 39.6466 59.2891 39.6295 59.2697C39.6124 59.2504 39.5915 59.2346 39.5681 59.2233ZM39.251 57.7311C39.0998 57.6256 39.0068 57.3204 39.0524 57.0655L39.0531 57.0624L39.0524 57.0635L39.0521 57.0642C38.9567 57.2145 38.769 57.319 38.6364 57.3307C38.5277 57.3404 37.8262 57.4097 37.8262 57.4097C37.7721 57.4173 37.7231 57.4451 37.6894 57.4874C37.6557 57.5296 37.6399 57.583 37.6453 57.6364C37.6507 57.6899 37.6769 57.7392 37.7183 57.7741C37.7598 57.809 37.8134 57.8269 37.8679 57.8239C37.8679 57.8239 38.4888 57.7659 38.5866 57.7549C38.7027 57.7415 38.8487 57.659 38.9139 57.5594L38.9448 57.4483C38.9248 57.5245 38.9062 57.6011 38.8872 57.6773C38.8658 57.859 38.9283 57.9791 39.0928 58.0891L39.5347 58.3863C39.5773 58.415 39.6298 58.4259 39.6805 58.4165C39.7057 58.4119 39.7296 58.4024 39.751 58.3887C39.7724 58.375 39.7909 58.3572 39.8053 58.3365C39.8198 58.3158 39.8299 58.2924 39.8352 58.2678C39.8405 58.2432 39.8408 58.2179 39.836 58.1931C39.8313 58.1684 39.8217 58.1449 39.8078 58.1238C39.7938 58.1028 39.7758 58.0846 39.7547 58.0704C39.7547 58.0704 39.3327 57.788 39.251 57.7311ZM31.0959 56.5524C31.2337 56.431 31.2916 56.1172 31.2169 55.8696L31.2158 55.8672L31.2165 55.8675L31.2169 55.8682C31.3288 56.0062 31.5269 56.0907 31.6602 56.0872C31.7697 56.0844 32.4743 56.0751 32.4743 56.0751C32.5306 56.0743 32.5849 56.0954 32.6252 56.1339C32.6656 56.1724 32.6888 56.225 32.6897 56.2803C32.6906 56.3356 32.6691 56.389 32.63 56.4287C32.5908 56.4684 32.5372 56.4912 32.481 56.4921C32.481 56.4921 31.8574 56.5034 31.7588 56.5024C31.6416 56.5024 31.4877 56.4369 31.4108 56.3445L31.3677 56.2379C31.3965 56.312 31.4245 56.3869 31.4519 56.4614C31.494 56.6559 31.4459 56.7638 31.294 56.8907C31.1334 57.0283 30.8896 57.2356 30.8896 57.2356H30.8893C30.8501 57.2687 30.7992 57.2852 30.7477 57.2815C30.6962 57.2777 30.6483 57.254 30.6146 57.2156C30.5809 57.1771 30.5641 57.127 30.5679 57.0764C30.5717 57.0258 30.5958 56.9787 30.635 56.9455C30.635 56.9455 31.0208 56.6183 31.0959 56.5524ZM30.6027 55.4216C30.7258 55.2858 30.7472 54.9675 30.6444 54.7295L30.643 54.7271L30.6441 54.7278V54.7281C30.7714 54.8533 30.978 54.914 31.1102 54.8957C31.2183 54.8816 31.9177 54.7937 31.9177 54.7937C31.9459 54.7889 31.9748 54.7897 32.0027 54.7962C32.0306 54.8027 32.0568 54.8147 32.0799 54.8314C32.1029 54.8481 32.1223 54.8693 32.1368 54.8935C32.1513 54.9178 32.1607 54.9447 32.1643 54.9727C32.168 55.0006 32.1659 55.029 32.1581 55.0561C32.1503 55.0832 32.1369 55.1084 32.1189 55.1304C32.1009 55.1523 32.0786 55.1704 32.0533 55.1836C32.028 55.1968 32.0002 55.2048 31.9717 55.2071C31.9717 55.2071 31.3537 55.2875 31.2551 55.2982C31.1394 55.3109 30.9784 55.2627 30.8921 55.1799L30.8367 55.0785C30.8731 55.1475 30.9082 55.2168 30.9436 55.2858C31.0113 55.4689 30.9734 55.5917 30.8384 55.7355L30.4761 56.1231C30.4588 56.1416 30.4379 56.1565 30.4147 56.1671C30.3915 56.1777 30.3664 56.1837 30.3408 56.1847C30.3153 56.1857 30.2898 56.1818 30.2658 56.1732C30.2418 56.1645 30.2197 56.1513 30.2009 56.1343C30.1821 56.1172 30.1669 56.0967 30.1561 56.0739C30.1454 56.0511 30.1393 56.0264 30.1382 56.0013C30.1372 55.9762 30.1411 55.9511 30.1499 55.9275C30.1587 55.9039 30.1722 55.8822 30.1895 55.8637C30.1895 55.8641 30.5361 55.4954 30.6027 55.4216ZM32.106 59.5636C32.1646 59.7302 32.3235 59.8744 32.4498 59.9157C32.5536 59.9488 33.2218 60.1706 33.2218 60.1706C33.2733 60.1896 33.3152 60.2276 33.3388 60.2764C33.3624 60.3253 33.3657 60.3812 33.3482 60.4325C33.3306 60.4837 33.2935 60.5262 33.2447 60.5511C33.1959 60.576 33.1391 60.5812 33.0864 60.5658C33.0864 60.5658 32.4943 60.372 32.4017 60.3399C32.2916 60.3009 32.1397 60.1816 32.1278 60.0768L32.1057 59.5654V59.5633L32.106 59.5636ZM29.6234 54.8382C29.6234 54.8382 29.9247 54.434 29.9826 54.3533C30.0892 54.2043 30.0741 53.886 29.9447 53.6608L29.9433 53.6581L29.9436 53.6588L29.9443 53.6595C30.0846 53.7695 30.2968 53.8071 30.4266 53.7746C30.6899 53.7104 30.9533 53.6466 31.2169 53.5832C31.2439 53.5767 31.2719 53.5754 31.2994 53.5795C31.3269 53.5836 31.3533 53.593 31.3771 53.6071C31.4009 53.6212 31.4217 53.6398 31.4382 53.6618C31.4547 53.6838 31.4666 53.7088 31.4733 53.7353C31.48 53.7619 31.4813 53.7894 31.4771 53.8165C31.4729 53.8435 31.4634 53.8695 31.449 53.8929C31.4347 53.9163 31.4158 53.9367 31.3934 53.9529C31.371 53.9691 31.3456 53.9808 31.3186 53.9874C31.3186 53.9874 30.7132 54.1364 30.6171 54.1574C30.5027 54.1829 30.3379 54.1526 30.2425 54.0802L30.1762 53.9867C30.2197 54.0505 30.2614 54.114 30.3042 54.1778C30.3887 54.3433 30.3701 54.4805 30.253 54.6385L29.9373 55.0637C29.9222 55.084 29.9033 55.1011 29.8815 55.1142C29.8597 55.1272 29.8355 55.1359 29.8102 55.1398C29.785 55.1436 29.7593 55.1426 29.7344 55.1366C29.7096 55.1307 29.6863 55.12 29.6656 55.1052C29.645 55.0904 29.6276 55.0718 29.6143 55.0503C29.601 55.0289 29.5922 55.0051 29.5882 54.9803C29.5843 54.9555 29.5854 54.9302 29.5914 54.9058C29.5975 54.8814 29.6083 54.8584 29.6234 54.8382ZM31.1387 59.2233C31.1387 59.2233 31.5904 58.9891 31.6781 58.9415C31.8405 58.8539 31.9685 58.5608 31.9521 58.3029L31.9517 58.3001L31.9521 58.3005V58.3008L31.9528 58.3015C32.0296 58.4608 32.2043 58.5863 32.3347 58.6125C32.4414 58.6339 33.1303 58.7801 33.1303 58.7801C33.1585 58.7848 33.1856 58.795 33.2097 58.8102C33.2338 58.8254 33.2546 58.8453 33.2707 58.8686C33.2868 58.8919 33.298 58.9182 33.3035 58.9459C33.309 58.9735 33.3087 59.002 33.3027 59.0296C33.2967 59.0571 33.2851 59.0832 33.2686 59.1063C33.252 59.1293 33.2309 59.1488 33.2065 59.1636C33.1821 59.1783 33.1549 59.1881 33.1265 59.1923C33.0982 59.1964 33.0692 59.1949 33.0415 59.1878V59.1881C33.0415 59.1881 32.4312 59.0612 32.3354 59.0391C32.2214 59.0129 32.086 58.9146 32.0334 58.8084L32.0148 58.6936C32.0257 58.7708 32.0355 58.8481 32.045 58.925C32.0387 59.1167 31.9706 59.2233 31.7942 59.315C31.6062 59.4133 31.321 59.5612 31.321 59.5612C31.2984 59.574 31.2734 59.5821 31.2475 59.5852C31.2216 59.5883 31.1953 59.5862 31.1702 59.579C31.1451 59.5719 31.1218 59.5599 31.1015 59.5437C31.0813 59.5276 31.0645 59.5075 31.0523 59.4849C31.0401 59.4622 31.0326 59.4374 31.0303 59.4118C31.0281 59.3862 31.031 59.3605 31.0391 59.3361C31.0472 59.3117 31.0601 59.2891 31.0772 59.2697C31.0943 59.2504 31.1152 59.2346 31.1387 59.2233ZM31.4561 57.7311C31.6069 57.6256 31.7002 57.3204 31.6546 57.0655L31.6539 57.0624L31.6546 57.0635L31.655 57.0642C31.75 57.2145 31.9377 57.319 32.0706 57.3307C32.1793 57.3404 32.8809 57.4097 32.8809 57.4097C32.9349 57.4173 32.9839 57.4451 33.0176 57.4874C33.0513 57.5296 33.0671 57.583 33.0617 57.6364C33.0564 57.6899 33.0302 57.7392 32.9887 57.7741C32.9472 57.809 32.8936 57.8269 32.8391 57.8239C32.8391 57.8239 32.2179 57.7659 32.1204 57.7549C32.0043 57.7415 31.8584 57.659 31.7932 57.5594L31.7619 57.4483C31.7819 57.5245 31.8005 57.6011 31.8195 57.6773C31.8409 57.859 31.7784 57.9791 31.6143 58.0891L31.172 58.3863C31.1509 58.4005 31.1271 58.4104 31.1021 58.4156C31.0771 58.4208 31.0513 58.421 31.0262 58.4164C31.0011 58.4117 30.9772 58.4023 30.9558 58.3885C30.9344 58.3748 30.916 58.3571 30.9015 58.3363C30.8871 58.3156 30.877 58.2922 30.8718 58.2677C30.8665 58.2431 30.8662 58.2177 30.871 58.193C30.8757 58.1683 30.8853 58.1448 30.8993 58.1238C30.9133 58.1027 30.9313 58.0846 30.9524 58.0704C30.9524 58.0704 31.374 57.788 31.4561 57.7311Z" fill="#ED1B23"/>
</g>
<defs>
<clipPath id="clip0_2788_6223">
<rect width="63.7" height="56.7" fill="white" transform="translate(3.5 6.2998)"/>
</clipPath>
</defs>
</svg>
