<svg width="70" height="70" viewBox="0 0 70 70" fill="none" xmlns="http://www.w3.org/2000/svg">
<g clip-path="url(#clip0_2788_5765)">
<mask id="mask0_2788_5765" style="mask-type:luminance" maskUnits="userSpaceOnUse" x="0" y="10" width="70" height="50">
<path d="M0 10.5355H69.9301V59.4307H0V10.5355Z" fill="white"/>
</mask>
<g mask="url(#mask0_2788_5765)">
<path d="M52.907 34.9831C52.907 44.1622 45.5896 51.6035 36.5632 51.6035C27.5367 51.6035 20.2188 44.1622 20.2188 34.9831C20.2188 25.8037 27.5367 18.3623 36.5632 18.3623C45.5896 18.3623 52.907 25.8037 52.907 34.9831Z" fill="white"/>
<path d="M44.228 28.3301C44.228 28.3301 45.119 28.0291 45.5205 28.1283L45.6415 27.8059C45.2964 27.6353 44.4309 27.8405 44.4309 27.8405C44.4309 27.8405 44.019 27.076 43.7234 27.0089L43.5781 27.3736C43.9902 27.6143 44.228 28.3301 44.228 28.3301Z" fill="#C7A079"/>
<path d="M40.8617 49.793C40.8617 49.793 40.4986 49.2829 40.2709 49.2354L40.1641 49.5048C40.4834 49.7079 40.6869 50.1338 40.6869 50.1338C40.6869 50.1338 41.488 49.9653 41.8061 50.0607L41.9203 49.7973C41.649 49.6485 40.8617 49.793 40.8617 49.793Z" fill="#C7A079"/>
<path d="M42.4843 45.745C42.4843 45.745 41.7851 45.0481 41.4931 45.0634L41.4531 45.4358C41.9078 45.5774 42.3812 46.2324 42.3812 46.2324C42.3812 46.2324 43.2112 45.6411 43.6226 45.648L43.6827 45.2785C43.308 45.1909 42.4843 45.745 42.4843 45.745Z" fill="#C7A079"/>
<path d="M44.8341 27.1436C44.8341 27.1436 45.7213 27.0012 46.1292 27.0563L46.3133 26.6822C45.9527 26.5501 45.033 26.6976 45.033 26.6976C45.033 26.6976 44.6403 25.9664 44.341 25.9309L44.1953 26.2931C44.628 26.4902 44.8341 27.1436 44.8341 27.1436Z" fill="#C7A079"/>
<path d="M45.5497 25.9712C45.5497 25.9712 46.2498 25.9357 46.6502 26.0156L46.8589 25.6514C46.5106 25.4966 45.7881 25.5193 45.7881 25.5193C45.7881 25.5193 45.3218 24.9271 45.0497 24.8154L44.8828 25.1404C45.2995 25.3606 45.5497 25.9712 45.5497 25.9712Z" fill="#C7A079"/>
<path d="M46.1925 24.9055C46.1925 24.9055 46.8623 24.8337 47.2544 24.9414L47.493 24.5643C47.1585 24.3899 46.4605 24.4702 46.4605 24.4702C46.4605 24.4702 46.0884 23.8216 45.7993 23.7484L45.625 24.0456C46.0232 24.2932 46.1925 24.9055 46.1925 24.9055Z" fill="#C7A079"/>
<path d="M46.8571 23.9042C46.8571 23.9042 47.4478 23.9533 47.8296 24.0859L48.0455 23.7947C47.7231 23.5955 47.0775 23.5612 47.0775 23.5612C47.0775 23.5612 46.7456 22.9323 46.4626 22.8395L46.2812 23.1114C46.6617 23.3825 46.8571 23.9042 46.8571 23.9042Z" fill="#C7A079"/>
<path d="M40.4268 50.5814C40.4268 50.5814 40.0589 50.079 39.8483 50.031L39.75 50.2991C40.0457 50.5027 40.265 50.9238 40.265 50.9238C40.265 50.9238 40.9791 50.7596 41.2752 50.8558L41.3797 50.5916C41.1299 50.4432 40.4268 50.5814 40.4268 50.5814Z" fill="#C7A079"/>
<path d="M41.2857 48.9212C41.2857 48.9212 40.7846 48.2764 40.5197 48.2388L40.4219 48.5775C40.8069 48.7951 41.117 49.3535 41.117 49.3535C41.117 49.3535 41.9803 49.0358 42.3529 49.1239L42.4603 48.7899C42.1367 48.636 41.2857 48.9212 41.2857 48.9212Z" fill="#C7A079"/>
<path d="M41.7555 48.017C41.7555 48.017 41.1321 47.2742 40.8412 47.2658L40.7734 47.6355C41.2114 47.8229 41.6199 48.498 41.6199 48.498C41.6199 48.498 42.4981 47.9622 42.9077 48.0089L42.989 47.6429C42.6251 47.5184 41.7555 48.017 41.7555 48.017Z" fill="#C7A079"/>
<path d="M42.1534 46.8527C42.1534 46.8527 41.4951 46.1279 41.2044 46.1301L41.1484 46.5008C41.5935 46.6671 42.0338 47.335 42.0338 47.335C42.0338 47.335 42.891 46.7748 43.3015 46.8039L43.3724 46.4345C43.004 46.3272 42.1534 46.8527 42.1534 46.8527Z" fill="#C7A079"/>
<path d="M29.3414 23.0049L29.6437 22.7423C29.3904 22.5953 29.1222 21.7434 29.1222 21.7434C29.1222 21.7434 28.5362 21.7255 28.2685 21.6421L27.8828 21.9235L28.8064 22.0334C28.8064 22.0334 29.0214 22.8407 29.3414 23.0049Z" fill="#C7A079"/>
<path d="M30.3903 22.2539L30.7075 22.0094C30.3861 21.8447 30.1695 21.0297 30.1695 21.0297C30.1695 21.0297 29.5674 20.9694 29.3429 20.836L29.0312 21.0798C29.2358 21.2419 29.8651 21.3081 29.8651 21.3081C29.8651 21.3081 30.0579 22.1115 30.3903 22.2539Z" fill="#C7A079"/>
<path d="M28.3431 23.8574C28.4322 23.7665 28.5242 23.6787 28.6191 23.594C28.3262 23.222 28.2241 22.5186 28.2241 22.5186C28.2241 22.5186 27.54 22.4887 27.2118 22.4686C27.1111 22.5605 26.9688 22.7397 26.9688 22.7397L27.869 22.847C27.869 22.847 28.0496 23.5192 28.3431 23.8574Z" fill="#C7A079"/>
<path d="M27.5153 24.8018C27.5971 24.7176 27.6923 24.6098 27.7893 24.5247C27.4956 24.1509 27.3518 23.3907 27.3518 23.3907C27.3518 23.3907 26.6942 23.3617 26.3691 23.3399C26.2653 23.4327 26.177 23.5087 26.125 23.6126L27.0074 23.7114C27.0074 23.7114 27.2201 24.4653 27.5153 24.8018Z" fill="#C7A079"/>
<path d="M31.395 21.499L31.7335 21.2724C31.3382 21.1898 31.1393 20.3103 31.1393 20.3103C31.1393 20.3103 30.6089 20.3039 30.4317 20.185C30.2954 20.2598 30.1524 20.3116 30.0156 20.4018C30.2168 20.5002 30.8104 20.5468 30.8104 20.5468C30.8104 20.5468 31.0923 21.3622 31.395 21.499Z" fill="#C7A079"/>
<path d="M26.8756 25.5091C26.5991 25.2025 26.3555 24.4179 26.3555 24.4179C26.3555 24.4179 25.7343 24.4492 25.4058 24.441L25.1172 24.7523C25.4431 24.8071 26.0366 24.7776 26.0366 24.7776C26.0366 24.7776 26.239 25.4587 26.6164 25.8525L26.8756 25.5091Z" fill="#C7A079"/>
<path d="M32.3667 20.6924C32.453 20.6278 32.6797 20.5034 32.6797 20.5034C32.3174 20.3606 32.2928 19.7201 32.2928 19.7201C32.2928 19.7201 31.4972 19.7068 31.3118 19.6183C31.1985 19.6944 31.0772 19.7354 30.9688 19.8291C31.1205 19.9599 31.9262 19.9967 31.9262 19.9967C31.9262 19.9967 32.01 20.6159 32.3667 20.6924Z" fill="#C7A079"/>
<path d="M24.6434 25.5394C24.5502 25.6681 24.48 25.7498 24.3906 25.8776L25.2358 25.9191C25.2358 25.9191 25.415 26.7093 25.7 26.9902L25.9376 26.6328C25.6961 26.3437 25.5415 25.536 25.5415 25.536C25.5415 25.536 24.9274 25.5621 24.6434 25.5394Z" fill="#C7A079"/>
<path d="M24.6357 26.7389C24.6357 26.7389 24.0981 26.8145 23.8178 26.7457L23.5781 27.0467C23.7997 27.1284 24.3901 27.1296 24.3901 27.1296C24.3901 27.1296 24.6967 28.164 24.938 28.291L25.1573 27.9032C24.8474 27.6436 24.6357 26.7389 24.6357 26.7389Z" fill="#C7A079"/>
<path d="M23.0871 28.0391L22.8672 28.3906L23.6588 28.3898C23.6588 28.3898 23.8496 29.2364 24.1938 29.5049L24.4013 29.1312C24.1728 28.8836 23.9352 28.019 23.9352 28.019L23.0871 28.0391Z" fill="#C7A079"/>
<path d="M22.3903 29.4066L22.2266 29.7812L22.9998 29.7393C22.9998 29.7393 23.3074 30.5141 23.5938 30.7852C23.6705 30.6564 23.7086 30.4807 23.7775 30.3546C23.4393 30.0211 23.2236 29.3668 23.2236 29.3668L22.3903 29.4066Z" fill="#C7A079"/>
<path d="M32.8858 19.3934C32.9229 19.726 33.2564 20.0693 33.2564 20.0693L33.5402 19.8756C33.2842 19.6567 33.1808 19.1945 33.1808 19.1945L32.6659 19.1359C32.4075 19.1214 31.8594 19.3155 31.8594 19.3155C32.1163 19.3065 32.8858 19.3934 32.8858 19.3934Z" fill="#C7A079"/>
<path d="M62.4163 36.4504L62.3795 36.6531C62.3515 36.8011 60.7387 37.0931 59.1264 37.4335C59.1775 36.94 59.2109 36.4415 59.231 35.9399C60.8845 36.2045 62.4163 36.4504 62.4163 36.4504ZM48.7533 33.173L48.1608 38.1249C48.1125 38.4284 48.0077 38.8073 47.7537 38.8817L46.1424 39.0544L46.7348 34.1038C46.7798 33.7951 46.8885 33.4184 47.1398 33.3444L48.7533 33.173ZM36.5635 51.992C31.5378 51.9915 27.0331 49.7351 23.9669 46.1665C24.1507 46.1477 24.2877 46.1323 24.3589 46.125C24.3982 46.1216 24.4202 46.0917 24.4268 46.0383C24.5687 44.8551 26.2143 31.1393 26.2174 31.1124C26.218 31.0833 26.1842 31.0722 26.1589 31.077C26.1345 31.0808 25.2637 31.2415 24.4497 31.398C23.9873 31.4887 23.5309 31.6542 23.0923 31.8782C23.097 31.859 23.1013 31.8401 23.1056 31.8256C22.7662 31.4968 22.7043 30.757 22.7043 30.757L21.7722 30.8934L21.6606 31.2587L22.4025 31.1492C22.4025 31.1492 22.4467 31.661 22.74 32.0745C21.4823 32.8274 20.4117 34.0705 19.8495 35.4738C19.8449 35.31 19.8373 35.1472 19.8373 34.9821C19.8373 25.5876 27.326 17.9743 36.5635 17.9726C43.4529 17.9726 49.3671 22.2088 51.9303 28.2587C49.3259 28.5379 46.1888 28.8752 46.1888 28.8752C45.795 28.9172 45.4095 29.0083 45.034 29.1327L45.0787 28.9993C44.727 28.853 43.8736 29.119 43.8736 29.119C43.8736 29.119 43.3956 28.369 43.0991 28.3224L42.9677 28.6884C43.3901 28.9009 43.6924 29.6082 43.6924 29.6082C43.6924 29.6082 44.0471 29.4675 44.4085 29.3837C43.9873 29.5801 43.5883 29.8222 43.2183 30.1059C43.0343 29.8963 42.785 29.6501 42.6154 29.6351L42.5003 30.005C42.6538 30.0704 42.7987 30.2021 42.9224 30.3437C41.701 31.3942 40.8312 32.8976 40.6363 34.5284C40.6363 34.5284 39.4859 44.1406 39.4794 44.2103C39.4714 44.28 39.4673 44.339 39.5624 44.3334C39.591 44.3313 40.5062 44.2334 41.7466 44.1004L41.7416 44.2022C42.2034 44.3121 42.7257 44.9432 42.7257 44.9432C42.7257 44.9432 43.5166 44.3103 43.9272 44.2869L43.9687 43.9174C43.59 43.8541 42.7999 44.4528 42.7999 44.4528C42.7999 44.4528 42.5399 44.2253 42.2667 44.0444C44.9629 43.7557 48.704 43.3526 48.704 43.3526C49.8224 43.2333 50.8843 42.7531 51.7788 42.0385C51.7199 42.1604 51.665 42.2842 51.6142 42.4097C48.9022 48.0821 43.1824 51.9915 36.5635 51.992ZM69.8605 26.2251C66.8961 26.5431 63.9317 26.8608 60.9672 27.1782C59.9991 27.2816 59.074 27.6566 58.2616 28.2172C55.4181 18.7748 46.7807 11.9077 36.5624 11.9077C26.5266 11.9077 18.0185 18.5358 15.0251 27.7204C12.5703 27.973 6.35565 28.6341 6.35565 28.6341C1.83293 29.119 0.551874 32.6949 0.192434 34.7858C-0.118126 36.5778 0.036001 37.8422 0.0545325 38.1967C0.0567702 38.257 0.0794993 38.3305 0.11838 38.343C0.172017 38.36 0.244324 38.3318 0.337471 38.2232C0.437541 38.1065 2.12391 35.9831 2.37307 35.7025C2.6216 35.4225 3.69908 34.1124 5.80194 33.8884L12.9273 33.1242C12.9128 33.2777 11.9919 41.4639 11.9919 41.4639C11.8323 42.5423 11.1329 43.211 9.82761 43.4487C9.82761 43.4487 10.9466 33.5394 10.9476 33.5231C10.9522 33.5065 10.9476 33.4859 10.921 33.4911C10.8926 33.4966 9.30775 33.7716 9.30775 33.7716C6.81006 34.3185 4.69243 36.6847 4.38383 39.2717L3.84034 44.0833C2.33838 44.2389 1.3546 44.0983 0.73796 44.0504C0.529428 44.0355 0.333693 44.0089 0.16656 43.9888C0.0971891 43.9803 0.0439757 44.0466 0.0826471 44.1052C0.336633 44.5066 0.943833 45.5978 1.72887 46.4406C2.78894 47.584 4.33635 48.1514 6.25649 48.1514L11.0322 47.7126C13.8856 47.4065 15.5936 46.8088 16.6387 46.0314C20.4891 53.1974 27.9672 58.0586 36.5624 58.0586C46.6038 58.0586 55.1147 51.4241 58.105 42.2335C60.9931 41.9248 63.7364 41.6302 63.7364 41.6302C68.1368 41.1586 68.305 39.0493 68.3958 37.9167C68.4049 37.8102 68.6122 35.9668 68.639 35.4495C68.7259 34.0777 67.7371 32.8442 66.2951 32.52C65.7103 32.3879 63.3336 31.9676 61.8097 31.7016C61.8372 31.6801 61.8685 31.6644 61.902 31.6555L66.1872 31.1907C67.678 31.0312 68.8377 29.9181 69.374 28.136L69.9291 26.2913C69.9291 26.2913 69.9407 26.2148 69.8605 26.2251Z" fill="#C7A079"/>
<path d="M40.7357 29.5642C40.6675 29.571 31.5987 30.5417 31.5987 30.5417C28.8273 30.8414 26.3885 33.3249 26.0429 36.1987C26.0429 36.1987 24.8785 45.9327 24.8752 45.955C24.8729 45.9772 24.895 45.9998 24.9257 45.9956C24.9505 45.993 30.298 45.4298 30.9361 45.3644C30.9756 45.3602 30.9992 45.3162 31.0052 45.2887C31.0092 45.2605 32.1614 35.609 32.1614 35.609C32.2154 35.3785 32.3211 35.0853 32.5226 35.0202L34.1622 34.8449C34.1622 34.8449 32.9633 44.8668 32.9443 45.0134C32.9336 45.0946 32.974 45.1442 33.054 45.137C33.9198 45.0438 38.9459 44.5049 38.9712 44.5016C38.997 44.4999 39.0565 44.4708 39.0594 44.4246C39.1906 43.3475 40.8213 29.7378 40.8254 29.6617C40.8362 29.5826 40.811 29.5553 40.7357 29.5642Z" fill="#C7A079"/>
<path d="M18.2126 29.1223C17.5521 28.4292 16.6266 28.106 15.5583 28.2217L6.37719 29.2086C3.17376 29.5499 1.42516 31.8024 0.899986 33.6278C0.573693 34.7694 0.511036 35.4664 0.472924 35.9312C0.472924 35.9312 0.409497 36.9968 0.424042 37.329C0.424042 37.3757 0.421665 37.3965 0.448168 37.4098C0.463343 37.4166 0.485581 37.4115 0.517329 37.3769C0.688028 37.1836 1.11775 36.5773 1.22083 36.4443C1.57236 36.0013 2.21908 35.1633 2.646 34.7887C3.17901 34.3222 4.29062 33.5145 5.78222 33.3554L13.1959 32.5618C13.3279 32.5447 13.4133 32.5712 13.4226 32.5875C13.5366 32.7063 13.4715 32.9317 13.4715 32.9317L12.527 41.5108C12.3225 42.9201 11.2706 43.7638 9.28509 44.0233L10.3629 34.1918C10.3661 34.1443 10.3403 34.1179 10.2903 34.1285C10.239 34.1379 9.38642 34.3179 9.38642 34.3179C7.12041 34.813 5.20236 36.9553 4.91985 39.2976L4.4481 43.4935L4.3118 44.5531L4.04271 44.5839C3.4988 44.6416 2.80901 44.6827 1.43146 44.5839C1.19222 44.5668 1.07194 44.5386 1.04418 44.575C1.02425 44.6109 1.03558 44.6549 1.10432 44.7724C1.13229 44.8225 1.67558 45.867 2.85355 46.7466C3.58628 47.2914 4.74635 47.5967 6.21278 47.5967C7.01824 47.5967 7.87124 47.518 8.67712 47.4304L9.90887 47.2982C15.6418 46.6829 17.3883 45.9089 17.8906 41.9551L19.0562 31.9367C19.1901 30.8275 18.8909 29.8291 18.2126 29.1223Z" fill="#071D3D"/>
<path d="M15.5887 28.7675L6.40609 29.7531C1.7221 30.2542 1.14686 34.752 1.11658 34.9338C1.08315 35.1154 1.00728 35.8423 1.00245 35.8967C0.992523 35.9484 1.01336 35.9698 1.05371 35.9168C1.09574 35.8594 1.63035 35.145 1.63035 35.145C1.64238 35.1253 3.15721 33.1297 5.75518 32.8518L13.1719 32.0569C13.4543 32.0265 13.6702 32.0826 13.8085 32.2322C14.0852 32.529 13.9976 33.1152 13.9114 33.7357C13.8889 33.8862 13.042 41.5802 13.042 41.5802C12.6861 44.0986 9.94749 44.3932 9.04511 44.4887L8.7856 44.5173C8.7856 44.5173 9.82721 34.7824 9.8291 34.7401C9.83133 34.6972 9.79126 34.681 9.75084 34.69C9.71301 34.699 9.45798 34.7541 9.45798 34.7541C7.37553 35.2117 5.61182 37.1765 5.35553 39.3251L4.66049 44.9581C4.15042 45.0069 3.58798 45.053 3.1063 45.053C2.81448 45.053 1.90287 44.9889 1.8335 44.982C1.7684 44.9756 1.75049 45.012 1.79084 45.0595C1.83098 45.1086 2.11986 45.4776 2.11986 45.4776C3.06721 46.6206 4.46959 47.2124 6.12336 47.129C7.7756 47.0482 8.98392 46.8763 10.1667 46.7711C13.6065 46.4607 16.8514 46.1087 17.3867 41.9462L18.5496 31.9184C18.6635 30.9708 18.4093 30.1178 17.8401 29.5234C17.291 28.9475 16.4736 28.6709 15.5887 28.7675Z" fill="#1D467D"/>
<path d="M61.8344 31.1269L66.1698 30.6591C67.2581 30.542 68.2542 29.618 68.6621 28.5806C68.8185 28.1791 69.1053 27.1423 69.1709 26.9032C69.1788 26.8703 69.154 26.8571 69.1162 26.8588C69.0779 26.8669 60.9905 27.752 60.9905 27.752C58.5212 28.0171 56.2602 30.3171 55.9556 32.878C55.9556 32.878 55.7441 34.7683 55.7418 34.7876C55.7418 34.8055 55.7489 34.8158 55.7615 34.8174C55.7699 34.8192 63.0223 36.0703 63.0223 36.0703C63.0223 36.0703 62.9685 36.3799 62.8993 36.8549C62.8257 37.3274 59.6929 37.708 58.4266 38.077C56.5121 38.6333 54.5884 39.1173 52.8042 41.2804C52.5328 41.6131 52.3249 42.0801 52.2135 42.2579C52.1907 42.2964 52.2051 42.3438 52.2604 42.3396C52.3202 42.3349 63.9051 41.0791 63.9051 41.0791C66.2835 40.8247 67.5923 39.9062 67.7923 38.3511L67.8156 38.1617C67.903 37.5117 68.0601 36.299 68.1042 35.4738C68.1705 34.3796 67.3304 33.3508 66.1505 33.0823C65.4373 32.9237 62.0404 32.3302 61.0201 32.154C61.1484 31.5742 61.4284 31.2278 61.8344 31.1269Z" fill="#071D3D"/>
<path d="M61.7829 30.6281L66.141 30.1569C67.5354 30.0055 68.1334 28.6872 68.3686 27.9171C68.3686 27.9171 68.4678 27.576 68.4726 27.5434C68.4792 27.5105 68.4558 27.5002 68.411 27.5041C68.3677 27.508 61.0174 28.2972 61.0174 28.2972C58.7817 28.5355 56.7425 30.6194 56.4635 32.9443C56.4635 32.9443 56.2953 34.3989 56.2944 34.4161C56.2944 34.4327 56.302 34.4447 56.3166 34.4481C56.3323 34.4489 63.5741 35.7552 63.5741 35.7552C63.5702 35.8038 63.5652 35.8523 63.5592 35.9007L63.4735 36.6156C63.3122 37.6217 62.6064 37.7577 59.6708 38.3143C58.979 38.4457 54.9144 39.3808 53.5008 41.2082C53.3498 41.4093 53.2426 41.5636 53.1853 41.6585C53.1461 41.7227 53.1619 41.7526 53.2268 41.7475C53.981 41.6611 62.0791 40.7747 63.176 40.6567C65.7334 40.3831 67.0005 39.9413 67.2831 38.1596C67.4439 37.1321 67.5474 36.2333 67.5896 35.4897C67.6403 34.6367 66.9639 33.8358 66.0132 33.6199C65.1962 33.436 60.6165 32.642 60.5723 32.6364C60.5328 32.6305 60.4422 32.5821 60.4494 32.4897C60.5935 31.1694 61.2493 30.7473 61.7829 30.6281Z" fill="#1D467D"/>
<path d="M61.3741 28.9345L67.9522 28.2277C68.0084 28.0849 68.0564 27.9485 68.0911 27.8322L61.0495 28.5882C58.9378 28.813 57.0087 30.7838 56.7492 32.9769L56.6094 34.2037L56.9683 34.2695L57.0757 33.3215C57.3569 31.004 59.265 29.1603 61.3741 28.9345Z" fill="white"/>
<path d="M60.8515 33.2722C61.3276 33.3522 65.5204 34.0803 66.2796 34.2518C66.5716 34.3168 66.8336 34.4468 67.0462 34.6191C66.8045 34.2753 66.4199 33.9966 65.9524 33.9033C65.1534 33.7472 60.9991 33.0075 60.5227 32.9229C60.5137 32.9229 60.5046 32.919 60.5 32.9177C60.53 33.1063 60.6861 33.2423 60.8515 33.2722Z" fill="white"/>
<path d="M64.0876 37.0091L64.1683 36.3476C64.1959 36.1253 64.2516 35.873 64.0395 35.8315L63.8631 35.7986C63.8583 35.8653 63.76 36.6619 63.76 36.6619C63.5504 37.9622 63.0246 37.9955 59.7259 38.6011C58.4617 38.8357 54.5762 40.0681 53.75 41.3662C53.9873 41.3401 54.2215 41.3179 54.4499 41.2931C55.7206 40.1548 58.9259 39.1557 60.0541 38.9486C63.3564 38.3449 63.8797 38.3064 64.0876 37.0091Z" fill="white"/>
<path d="M24.0136 32.1035C22.0651 32.688 20.2543 34.8609 19.9965 37.0126C19.9965 37.0126 18.9207 45.9992 18.9142 46.0749C18.9111 46.1515 18.9608 46.169 19.0078 46.1668C19.0504 46.16 23.4883 45.6854 23.906 45.6405C23.9251 45.6362 23.9382 45.6234 23.9413 45.6011C24.0381 44.8092 25.5947 31.7776 25.5962 31.7464C25.5972 31.7225 25.5703 31.6921 25.5331 31.7032C25.4988 31.7105 24.7875 31.8709 24.0136 32.1035Z" fill="#071D3D"/>
<path d="M24.6119 32.4984C22.5322 32.9546 20.771 34.9186 20.5128 37.0702C20.5128 37.0702 19.5091 45.4769 19.5034 45.5261C19.4918 45.5783 19.5076 45.6061 19.5837 45.5997C19.6527 45.5894 23.1053 45.2191 23.4537 45.1832C23.4737 45.1798 23.4816 45.1687 23.4844 45.1495C23.5687 44.4533 24.9988 32.4911 25.0007 32.4654C25.0063 32.4398 24.9862 32.4159 24.954 32.4227C24.9216 32.4308 24.6119 32.4984 24.6119 32.4984Z" fill="#1D467D"/>
<path d="M24.6206 33.2341L24.6753 32.7817C22.7254 33.2132 21.0419 35.0758 20.7994 37.1051L19.8203 45.2793L20.1951 45.2391L21.1253 37.4493C21.347 35.4029 22.839 33.8045 24.6206 33.2341Z" fill="white"/>
<path d="M31.6152 31.1169C29.1426 31.3825 26.8822 33.6842 26.574 36.2493C26.574 36.2493 25.4875 45.3308 25.4852 45.3578C25.481 45.389 25.4935 45.4116 25.5284 45.4078C25.5627 45.4039 29.9261 44.9379 30.461 44.8763C30.497 44.8759 30.5179 44.8382 30.5221 44.81C30.5245 44.7852 31.627 35.5715 31.627 35.5715C31.7624 34.9562 32.0458 34.5932 32.447 34.4923L34.7754 34.2409C34.7754 34.2409 33.5747 44.3312 33.5547 44.4175C33.537 44.5 33.5782 44.5466 33.6525 44.538C34.3898 44.459 38.4914 44.0164 38.5193 44.0143C38.5341 44.0139 38.5482 44.0078 38.5588 43.9973C38.5694 43.9867 38.5757 43.9725 38.5764 43.9574C38.6884 43.0428 40.2079 30.396 40.2079 30.3148C40.2129 30.2288 40.1412 30.2019 40.0886 30.2079C40.0346 30.216 31.6152 31.1169 31.6152 31.1169Z" fill="#071D3D"/>
<path d="M31.6455 31.661C29.4138 31.9017 27.37 33.9849 27.094 36.3059C27.094 36.3059 26.0832 44.7457 26.0791 44.7871C26.0753 44.826 26.0816 44.8432 26.1146 44.8393C26.1479 44.8355 29.537 44.4712 30.0058 44.4211C30.0436 44.4168 30.0643 44.3899 30.0706 44.3557C30.072 44.3351 31.1232 35.5265 31.1232 35.5265C31.3661 34.3937 32.022 34.0781 32.4003 33.9914L35.2137 33.687C35.2418 33.687 35.2798 33.687 35.317 33.7212C35.3446 33.7494 35.3538 33.7874 35.346 33.831C35.346 33.831 34.1487 43.7849 34.1487 43.8597C34.1432 43.9324 34.1752 43.9752 34.2547 43.9658C34.9166 43.8956 38.0215 43.5608 38.0516 43.56C38.1044 43.5565 38.1246 43.5056 38.1282 43.4766C38.2222 42.6886 39.6289 30.9008 39.6404 30.864C39.6411 30.8272 39.6123 30.808 39.5813 30.8105C39.5459 30.8149 31.6455 31.661 31.6455 31.661Z" fill="#1D467D"/>
<path d="M32.0026 32.2987L39.2677 31.5218L39.3106 31.1361L31.6744 31.9532C29.5612 32.1802 27.637 34.1463 27.374 36.342L26.3984 44.5166L26.7724 44.4756L27.7054 36.6893C27.965 34.4948 29.8931 32.5249 32.0026 32.2987Z" fill="white"/>
<path d="M35.8508 33.8656C35.7956 33.8032 35.7158 33.7639 35.6326 33.7506C35.6377 33.7893 35.6384 33.8285 35.6347 33.8673L34.4609 43.6514L34.8362 43.6108L35.9618 34.2167C35.9786 34.0824 35.9364 33.9567 35.8508 33.8656Z" fill="white"/>
<path d="M5.24293 45.5709L5.96447 39.7073C6.19412 37.805 7.68391 36.0536 9.47517 35.4866C9.5065 35.1822 9.51636 35.0393 9.51636 35.0393C7.56489 35.4665 5.88146 37.3312 5.63531 39.3597L4.91587 45.2241C3.9451 45.3241 2.92356 45.3421 2.33594 45.2882C2.45678 45.4345 2.64517 45.6157 2.66328 45.6354C3.27762 45.7457 4.27559 45.6684 5.24293 45.5709Z" fill="white"/>
<path d="M6.76088 30.3886L15.9447 29.4047C16.6652 29.3273 17.3134 29.5112 17.7972 29.9225C17.7459 29.8536 17.6904 29.788 17.6309 29.7263C17.1362 29.2101 16.4203 28.9721 15.6191 29.0575L6.43207 30.044C1.9234 30.5276 1.39844 34.9668 1.39844 34.9668C1.39844 34.9668 1.58893 34.7115 1.95305 34.3661C2.38697 33.0298 3.58473 30.7294 6.76088 30.3886Z" fill="white"/>
<path d="M9.40657 45.1261C10.3392 45.0256 13.2654 44.7139 13.6556 41.9688C13.6556 41.9688 14.501 34.2726 14.5254 34.1281C14.6255 33.4342 14.7167 32.7757 14.3473 32.3784C14.29 32.3184 14.2245 32.2672 14.1528 32.2262C14.3615 32.629 14.2813 33.1887 14.1991 33.7788C14.1732 33.9276 13.3274 41.6229 13.3274 41.6229C12.9389 44.3693 10.0143 44.6802 9.07692 44.7789L8.79517 44.8042L8.75 45.1924L9.40657 45.1261Z" fill="white"/>
<path d="M47.8324 39.4468L45.5295 39.6939L46.1988 34.087C46.2736 33.5867 46.4843 32.9594 47.0606 32.8209L49.3667 32.5738L48.6916 38.176C48.62 38.6797 48.4065 39.3079 47.8324 39.4468ZM46.2078 29.4472C43.7381 29.7115 41.4762 32.0131 41.1698 34.5791C41.1698 34.5791 40.0892 43.6205 40.0868 43.6602C40.082 43.6996 40.0969 43.7428 40.1506 43.7355C40.2037 43.7304 48.6887 42.8209 48.6887 42.8209C51.1534 42.5549 53.4154 40.2528 53.7238 37.6882C53.7238 37.6882 54.8024 28.6635 54.8091 28.6113C54.8127 28.5549 54.7597 28.5288 54.7157 28.5357C54.666 28.539 46.2078 29.4472 46.2078 29.4472Z" fill="#071D3D"/>
<path d="M49.2101 38.2087L49.2017 38.2535C49.0276 39.4798 48.3958 39.8771 47.8931 39.9917L45.0977 40.2914C45.0682 40.2953 45.0328 40.294 44.995 40.2551C44.9678 40.229 44.9581 40.1905 44.9636 40.1456L45.6906 34.0619C45.8687 32.8232 46.507 32.4307 47.0028 32.3216L47.0408 32.3169L49.7943 32.0201C49.8366 32.0167 49.8728 32.0295 49.8996 32.0548C49.9257 32.0826 49.9367 32.1219 49.9306 32.1677L49.2101 38.2087ZM54.1672 29.1425C54.1382 29.1459 46.235 29.9925 46.235 29.9925C44.0041 30.2324 41.9563 32.3177 41.6842 34.6383C41.6842 34.6383 40.6752 43.0442 40.6723 43.0883C40.6669 43.1349 40.7144 43.1699 40.7536 43.1657C40.7915 43.1631 48.6567 42.3199 48.6567 42.3199C50.8899 42.0792 52.936 39.9964 53.216 37.6728C53.216 37.6728 54.2176 29.2297 54.2261 29.1916C54.2303 29.1531 54.1966 29.1382 54.1672 29.1425Z" fill="#1D467D"/>
<path d="M50.2183 32.1992L49.4889 38.2936C49.2758 39.7722 48.4254 40.172 47.9366 40.2785L45.1254 40.5816C45.086 40.5857 45.0462 40.5827 45.0078 40.5727C45.0217 40.6608 45.0573 40.7424 45.1177 40.8061C45.2038 40.8968 45.3296 40.9417 45.4578 40.9284L48.2664 40.627C48.7535 40.5218 49.6021 40.1194 49.8161 38.6412L50.5457 32.5447C50.5659 32.4156 50.5226 32.2877 50.4324 32.1962C50.3749 32.1355 50.2991 32.0962 50.216 32.0804C50.2183 32.1201 50.2227 32.1607 50.2183 32.1992Z" fill="white"/>
<path d="M46.5954 30.6309L53.8576 29.8523L53.9039 29.4671L46.2676 30.2833C44.1572 30.5082 42.2301 32.4773 41.9698 34.6738L40.9922 42.8467L41.3668 42.8061L42.2972 35.0184C42.5581 32.8253 44.4885 30.8559 46.5954 30.6309Z" fill="white"/>
<path d="M60.1226 36.0828C59.8349 36.037 59.5344 35.9888 59.2297 35.94V35.9405C59.2217 36.1273 59.2116 36.314 59.1993 36.5006C59.1882 36.6768 59.175 36.8528 59.1597 37.0286C59.1481 37.1634 59.139 37.2989 59.125 37.4336C59.4347 37.3677 59.7442 37.3045 60.0432 37.2433C60.0783 36.858 60.1056 36.471 60.1226 36.0828Z" fill="#071D3D"/>
<path d="M15.0241 27.7204C15.394 26.5859 15.8505 25.4825 16.3894 24.4202C16.3941 24.4113 16.3987 24.4019 16.4033 24.3929C16.5352 24.134 16.6718 23.8776 16.8128 23.6237C16.816 23.6181 16.8192 23.613 16.8218 23.6074C17.3836 22.602 18.0188 21.6407 18.7221 20.7319C18.7496 20.6964 18.7765 20.661 18.8041 20.6255C18.9631 20.4226 19.1253 20.2223 19.2906 20.0247C19.3239 19.9849 19.3581 19.9456 19.3917 19.9063C19.9202 19.2838 20.4808 18.6903 21.0711 18.1283C21.0967 18.104 21.1218 18.0791 21.1474 18.0544C21.3125 17.8987 21.4813 17.7477 21.6507 17.5973C21.7269 17.5293 21.8027 17.4622 21.8795 17.3955C22.0396 17.257 22.2016 17.1209 22.3655 16.9871C22.455 16.9141 22.5453 16.8421 22.6364 16.7712C22.7983 16.6425 22.9604 16.5138 23.1256 16.3902C23.2137 16.3243 23.3041 16.2606 23.3934 16.1965C23.6852 15.9848 23.9818 15.78 24.283 15.5825C24.4075 15.5004 24.5309 15.4179 24.6568 15.3387C24.8038 15.2463 24.953 15.1583 25.1021 15.0689C25.3844 14.8996 25.6705 14.737 25.9601 14.5811C26.1165 14.4971 26.2739 14.4151 26.4323 14.3352C26.569 14.2659 26.705 14.1949 26.8434 14.1287C27.0679 14.0192 27.2955 13.9166 27.5244 13.8152C27.6635 13.7536 27.8033 13.6933 27.9439 13.6348C28.1759 13.5372 28.4095 13.4436 28.6445 13.3539C28.7686 13.3069 28.8941 13.2632 29.0191 13.2183C29.2172 13.1473 29.4165 13.078 29.6173 13.0126C29.7466 12.9708 29.8757 12.9293 30.0056 12.8895C30.2172 12.8245 30.4299 12.7642 30.6437 12.7053C30.7604 12.6731 30.8762 12.6402 30.9935 12.6098C31.3126 12.5275 31.6335 12.4523 31.9558 12.3841C31.9874 12.3773 32.0188 12.3712 32.0507 12.3653C32.3672 12.3008 32.685 12.243 33.0039 12.1917C33.1158 12.1741 33.228 12.1596 33.3403 12.1434C33.5774 12.1087 33.8157 12.0775 34.0549 12.051C34.1783 12.0373 34.3022 12.0241 34.4262 12.0121C34.6701 11.989 34.9148 11.971 35.1603 11.9557C35.2714 11.9488 35.3817 11.9402 35.4932 11.9356C35.8472 11.9185 36.2032 11.9077 36.5614 11.9077C36.922 11.9077 37.2801 11.9185 37.6362 11.9356C37.7489 11.9407 37.8607 11.9492 37.973 11.9565C38.2176 11.971 38.4619 11.9898 38.7059 12.0129C39.0665 12.048 39.4263 12.0915 39.7849 12.1434C39.9047 12.1609 40.025 12.1771 40.1442 12.1964C40.4115 12.2399 40.6781 12.2882 40.9437 12.3413C41.02 12.3567 41.0976 12.3695 41.1739 12.3854C41.5103 12.4561 41.8451 12.5348 42.1779 12.6214C42.27 12.6454 42.3606 12.6718 42.4521 12.6971C42.6935 12.7634 42.9335 12.8314 43.1713 12.9049C43.291 12.9423 43.4104 12.9808 43.5295 13.0204C43.7395 13.0894 43.9485 13.1614 44.1565 13.2363C44.278 13.2796 44.3991 13.3242 44.5198 13.3701C44.7338 13.452 44.9465 13.5373 45.1579 13.6258C45.2619 13.6695 45.3674 13.7109 45.4711 13.7559C45.7758 13.8879 46.0777 14.0266 46.3765 14.1719C46.4408 14.2031 46.5037 14.2386 46.5675 14.2702C46.8045 14.3891 47.0397 14.5101 47.2719 14.6366C47.3868 14.6995 47.4997 14.7653 47.6132 14.8295C47.7931 14.9318 47.9717 15.0363 48.1492 15.1429C48.2697 15.2162 48.3897 15.2905 48.5092 15.3657C48.6791 15.473 48.8475 15.5827 49.0144 15.6949C49.1293 15.7719 49.2452 15.8479 49.3585 15.9271C49.546 16.0579 49.7298 16.1922 49.9129 16.3277C49.9997 16.3923 50.0885 16.4539 50.1742 16.5197C50.4267 16.7127 50.6752 16.9112 50.9194 17.1149C51.0291 17.2065 51.1356 17.301 51.2438 17.3945C51.388 17.5194 51.532 17.6439 51.6728 17.7726C51.7894 17.8777 51.9039 17.9859 52.0179 18.0937C52.1466 18.2159 52.274 18.3395 52.4002 18.4644C52.5146 18.5772 52.6279 18.6911 52.7401 18.8061C52.8643 18.9347 52.9857 19.0664 53.1069 19.1977C53.2132 19.3128 53.3208 19.4269 53.4249 19.5445C53.608 19.7515 53.7874 19.9619 53.963 20.1756C54.0844 20.3251 54.2042 20.4759 54.3224 20.628C54.4283 20.7631 54.5347 20.8978 54.6373 21.036C54.7418 21.1753 54.8428 21.3169 54.944 21.4592C55.0368 21.5889 55.1281 21.7196 55.2179 21.8514C55.3184 21.9984 55.4172 22.1466 55.5142 22.296C55.599 22.4271 55.6823 22.5591 55.7642 22.692C55.8593 22.8455 55.955 22.9982 56.0464 23.1538C56.125 23.288 56.1998 23.4244 56.276 23.5604C56.4391 23.8504 56.5957 24.144 56.7456 24.4412C56.814 24.5751 56.884 24.7085 56.9493 24.8453C57.0305 25.0137 57.107 25.1853 57.1844 25.3559C57.2462 25.4927 57.3082 25.6296 57.3676 25.7681C57.4416 25.9415 57.5135 26.1158 57.5835 26.291C57.6392 26.4304 57.6935 26.5704 57.7464 26.7109C57.8137 26.8883 57.8792 27.0665 57.9428 27.2453C57.9919 27.3869 58.0379 27.5297 58.0847 27.6725C58.1442 27.8538 58.2056 28.0338 58.2606 28.2168C58.5144 28.0429 58.7798 27.8872 59.0548 27.7508C58.8338 27.0405 58.5825 26.3385 58.2948 25.6471C57.1066 22.7899 55.4072 20.2248 53.2413 18.0232C51.0742 15.8211 48.5525 14.0894 45.744 12.8831C42.8349 11.6324 39.7439 10.9996 36.5614 10.9996C33.3788 10.9996 30.2905 11.6324 27.3814 12.8831C24.5735 14.0894 22.0504 15.8211 19.8841 18.0232C17.7188 20.2248 16.0183 22.7899 14.8296 25.6471C14.5343 26.3588 14.2731 27.0847 14.0469 27.8222C14.4115 27.7842 14.7432 27.75 15.0241 27.7204Z" fill="#071D3D"/>
<path d="M58.1079 42.2335C57.7392 43.3666 57.284 44.4687 56.7465 45.5298C56.7399 45.5426 56.7334 45.5556 56.7272 45.5687C56.5963 45.8259 56.4607 46.0807 56.3204 46.3328C56.317 46.3387 56.3135 46.3452 56.3099 46.3512C55.7492 47.3558 55.1152 48.3163 54.4132 49.2246C54.3847 49.2618 54.3557 49.2994 54.3263 49.3366C54.1684 49.539 54.0071 49.7386 53.8425 49.9353C53.8086 49.9754 53.7739 50.0157 53.7397 50.0562C53.2159 50.6727 52.6607 51.2609 52.0764 51.8184C52.0446 51.8487 52.0142 51.8799 51.982 51.9098C51.8184 52.0638 51.6513 52.2139 51.4837 52.3631C51.4059 52.432 51.3286 52.5012 51.25 52.5687C51.0908 52.7065 50.9298 52.8419 50.7668 52.975C50.6762 53.0491 50.5847 53.1222 50.4925 53.1943C50.3316 53.3218 50.1708 53.4496 50.0063 53.5727C49.9158 53.6407 49.8226 53.7049 49.7314 53.7716C49.4438 53.98 49.1517 54.1819 48.8553 54.3771C48.7277 54.4604 48.6014 54.5455 48.4718 54.6267C48.3257 54.7176 48.1785 54.8067 48.0303 54.894C47.8897 54.9786 47.7481 55.0614 47.6056 55.1424C47.4616 55.2244 47.3167 55.3046 47.1709 55.3832C47.0134 55.4676 46.855 55.55 46.6955 55.6303C46.5596 55.7 46.4246 55.7697 46.2874 55.8364C46.056 55.9478 45.8227 56.0548 45.5875 56.1575C45.4539 56.2167 45.3197 56.2745 45.1849 56.3307C44.9532 56.4273 44.72 56.5226 44.4842 56.6116C44.3602 56.6582 44.2348 56.7018 44.1103 56.7463C43.9119 56.8187 43.7122 56.8876 43.5114 56.9528C43.3826 56.9952 43.2534 57.0362 43.1237 57.0755C42.911 57.1404 42.6974 57.202 42.483 57.2603C42.3672 57.2923 42.252 57.3257 42.1353 57.3556C41.8142 57.4386 41.4914 57.5144 41.1671 57.5831C41.1346 57.5899 41.1023 57.5951 41.0701 57.6019C40.756 57.6658 40.4406 57.7231 40.1241 57.7738C40.012 57.7918 39.8993 57.8068 39.7871 57.8225C39.5496 57.8574 39.3115 57.8882 39.0729 57.9149C38.949 57.9285 38.8251 57.9415 38.7012 57.9538C38.4569 57.9764 38.2122 57.995 37.9674 58.0098C37.8564 58.0167 37.7453 58.0252 37.634 58.0308C37.2797 58.047 36.9239 58.0586 36.5652 58.0586C36.217 58.0586 35.8707 58.047 35.5258 58.0316C35.435 58.0269 35.3444 58.0227 35.2538 58.0175C34.9487 57.9995 34.6451 57.9764 34.3437 57.947C34.302 57.9427 34.26 57.9402 34.2186 57.9358C33.8839 57.9003 33.5501 57.8571 33.2174 57.8063C33.1307 57.793 33.0442 57.7785 32.9575 57.7648C32.6815 57.72 32.4063 57.6701 32.1321 57.6152C32.0682 57.6019 32.0041 57.5908 31.9406 57.5771C31.6191 57.5093 31.299 57.4342 30.9808 57.3518C30.9001 57.3317 30.8206 57.3091 30.7405 57.2877C30.4821 57.218 30.2256 57.1435 29.971 57.0649C29.8951 57.0417 29.8186 57.0191 29.7435 56.9952C29.4358 56.8971 29.1303 56.792 28.8272 56.68C28.7562 56.6535 28.6864 56.6253 28.6158 56.5988C28.3707 56.5057 28.1272 56.4082 27.8856 56.3063C27.803 56.2717 27.72 56.2371 27.6381 56.2011C27.3462 56.0744 27.0569 55.9414 26.7705 55.8022C26.7119 55.7736 26.6548 55.7436 26.5964 55.7136C26.3598 55.5961 26.1255 55.4741 25.8934 55.3477C25.8075 55.3011 25.7216 55.2549 25.6366 55.2065C25.3616 55.0535 25.0897 54.8947 24.8212 54.7302C24.7818 54.7059 24.7435 54.6802 24.7042 54.6558C24.3817 54.453 24.0639 54.2426 23.7512 54.0246C23.5321 53.8722 23.3157 53.7158 23.1021 53.5556C23.056 53.5206 23.0092 53.4885 22.9638 53.4534C22.7191 53.2666 22.48 53.0737 22.243 52.8775C22.1598 52.8085 22.0772 52.7386 21.9952 52.668C21.8125 52.5121 21.6322 52.3533 21.4544 52.1916C21.3908 52.1339 21.326 52.0775 21.263 52.0185C21.0414 51.8123 20.8239 51.6016 20.6107 51.3864C20.5334 51.3087 20.4577 51.2296 20.3812 51.1505C20.2238 50.9878 20.069 50.8225 19.9167 50.6548C19.8472 50.5783 19.7765 50.5032 19.708 50.4252C19.5089 50.2014 19.3145 49.9734 19.1249 49.7411C19.0558 49.6569 18.9887 49.5705 18.9208 49.4854C18.7836 49.3129 18.6488 49.1385 18.5165 48.962C18.4478 48.8702 18.3788 48.7799 18.3114 48.6871C18.1356 48.4455 17.9643 48.2006 17.7975 47.9525C17.7398 47.8657 17.6846 47.7776 17.6283 47.6908C17.5067 47.5042 17.3879 47.3158 17.2719 47.1256C17.209 47.0225 17.1461 46.9194 17.0851 46.8156C16.9323 46.5571 16.7844 46.2957 16.6416 46.0314C16.4187 46.1973 16.1633 46.3546 15.875 46.503C16.9477 48.4943 18.2901 50.318 19.8879 51.9441C22.0543 54.1465 24.5774 55.8753 27.3852 57.0828C30.2944 58.3335 33.3826 58.9668 36.5652 58.9668C39.7477 58.9668 42.8387 58.3335 45.7479 57.0828C48.5563 55.8757 51.078 54.1465 53.2451 51.9441C55.4111 49.7403 57.1105 47.1756 58.2987 44.3198C58.5984 43.6001 58.86 42.8684 59.0872 42.1287C58.7651 42.163 58.4378 42.198 58.1079 42.2335Z" fill="#071D3D"/>
<path d="M23.1106 19.8468L22.9764 19.6979C22.8873 19.6009 22.805 19.5402 22.7289 19.5175C22.6514 19.494 22.5858 19.5077 22.5328 19.5564C22.4546 19.6321 22.4178 19.7005 22.4233 19.7676C22.4304 19.8352 22.4697 19.9101 22.5444 19.9938L23.5832 21.1449C23.6443 21.212 23.7074 21.2518 23.7692 21.2565C23.8317 21.2646 23.8966 21.2355 23.9631 21.1727C24.0064 21.1338 24.0322 21.0914 24.0413 21.0436C24.0494 20.9984 24.0452 20.9518 24.0291 20.9089C24.0134 20.8624 23.9905 20.8186 23.9614 20.7793C23.9313 20.7387 23.8981 20.6955 23.859 20.6549L23.6664 20.4411L24.2038 19.9399L24.462 20.2243C24.6527 20.4351 24.7393 20.6613 24.724 20.899C24.708 21.1385 24.5669 21.3831 24.3033 21.629C24.0623 21.8535 23.8317 21.9535 23.6101 21.9303C23.3882 21.9069 23.1665 21.7739 22.9448 21.5302L22.0817 20.5749C21.8524 20.3231 21.7438 20.0824 21.7503 19.8519C21.7591 19.6219 21.8848 19.3897 22.1296 19.1613C22.365 18.9394 22.5967 18.8252 22.82 18.815C23.0448 18.8064 23.2615 18.9167 23.4703 19.1498L23.6479 19.3435L23.1106 19.8468Z" fill="#071D3D"/>
<path d="M26.0786 20.0293L24.4219 17.356L25.0381 16.9605L25.675 17.9871L26.1038 17.7135L25.4659 16.6872L26.0843 16.2905L27.7399 18.9663L27.1235 19.3593L26.4324 18.2475L26.0052 18.5204L26.6954 19.6338L26.0786 20.0293Z" fill="#071D3D"/>
<path d="M28.9061 15.5735L28.8986 15.5769L29.2158 16.9725L29.61 16.8126L28.9061 15.5735ZM28.8069 18.3994L28.2891 15.207L29.1056 14.8782L30.8834 17.5592L30.197 17.8354L29.8779 17.3043L29.3461 17.5194L29.4889 18.1231L28.8069 18.3994Z" fill="#071D3D"/>
<path d="M32.3303 15.3622L32.3239 15.3716L32.7243 17.0866L32.0462 17.2227L31.4453 14.1217L32.1805 13.9751L33.0686 15.5965L33.0821 15.5948L32.6773 13.8755L33.3541 13.7386L33.9558 16.8395L33.2239 16.9871L32.3303 15.3622Z" fill="#071D3D"/>
<path d="M36.7468 16.6847L36.7129 16.405H36.7032C36.629 16.5372 36.5472 16.63 36.4554 16.6834C36.3637 16.736 36.2371 16.7625 36.0778 16.7646C35.9297 16.7651 35.8011 16.7446 35.6956 16.6962C35.5939 16.6508 35.5056 16.5792 35.4395 16.4884C35.3729 16.3978 35.3257 16.2935 35.295 16.1724C35.2666 16.0501 35.252 15.9181 35.2496 15.7671L35.2345 14.4702C35.2313 14.1273 35.3061 13.8742 35.4638 13.7069C35.6213 13.5407 35.8665 13.456 36.2009 13.4517C36.522 13.4465 36.7672 13.5188 36.9396 13.6633C37.1113 13.8088 37.1984 14.0396 37.2032 14.3539L37.2057 14.5895L36.4749 14.5989L36.4724 14.424C36.4724 14.2799 36.4554 14.1751 36.4245 14.1123C36.3929 14.0533 36.3322 14.023 36.2412 14.0191C36.1331 14.023 36.059 14.0491 36.0201 14.1025C35.9817 14.1559 35.9615 14.2401 35.9643 14.3522L35.9817 15.915C35.9827 16.0078 36.0052 16.0766 36.0483 16.1241C36.0946 16.1729 36.1625 16.1964 36.2535 16.1947C36.3113 16.1929 36.358 16.1818 36.3954 16.1592C36.43 16.1365 36.4554 16.1053 36.4724 16.0711C36.4873 16.0317 36.4985 15.9915 36.5018 15.9493C36.5047 15.9043 36.5066 15.8509 36.5066 15.7863L36.5043 15.5371L36.2428 15.5409L36.2346 14.9718L37.2255 14.9607L37.2448 16.6792L36.7468 16.6847Z" fill="#071D3D"/>
<path d="M40.8213 16.2325L40.831 16.2346L41.476 14.1074L42.153 14.243L41.0461 17.2412L40.2406 17.0787L40.4433 14.8539L40.4359 14.8515L39.7764 16.9872L38.9844 16.8277L39.0716 13.6259L39.7637 13.7637L39.5571 15.9854L39.5668 15.9769L40.2757 13.865L40.9665 14.0039L40.8213 16.2325Z" fill="#071D3D"/>
<path d="M44.703 16.2004C44.7272 16.1444 44.7471 16.0944 44.7591 16.0486C44.7714 16.0061 44.7775 15.9621 44.7773 15.9178C44.7773 15.8746 44.7669 15.8344 44.7451 15.7959C44.7217 15.7595 44.6856 15.7318 44.6313 15.7078C44.5802 15.6844 44.5352 15.6792 44.4911 15.6878C44.4484 15.698 44.4127 15.7156 44.3813 15.7467C44.3493 15.7794 44.3212 15.8158 44.2977 15.8553C44.2712 15.9001 44.2474 15.9465 44.2266 15.9943L43.7262 17.1881C43.7065 17.2359 43.6889 17.2845 43.6736 17.3339C43.6617 17.3822 43.6546 17.4317 43.6526 17.4815C43.6526 17.5302 43.6636 17.5734 43.6859 17.6145C43.7081 17.6555 43.7447 17.6859 43.7937 17.7081C43.8454 17.7294 43.8929 17.7354 43.9369 17.7248C43.9799 17.7138 44.0186 17.6896 44.0477 17.6555C44.0797 17.6206 44.1077 17.582 44.1309 17.5405C44.1549 17.4978 44.1784 17.4494 44.2017 17.3951L44.703 16.2004ZM44.8964 17.6285C44.7531 17.9689 44.579 18.19 44.3742 18.2914C44.1694 18.3957 43.9029 18.3738 43.5742 18.2315C43.246 18.0865 43.0427 17.904 42.9725 17.6799C42.9023 17.4571 42.9376 17.1753 43.0793 16.8371L43.5757 15.657C43.693 15.3764 43.8635 15.1986 44.0851 15.1173C44.3067 15.0352 44.5621 15.0583 44.8548 15.187C45.1476 15.3123 45.3403 15.4846 45.4305 15.7027C45.5228 15.919 45.5101 16.1675 45.3941 16.4472L44.8964 17.6285Z" fill="#071D3D"/>
<path d="M47.18 18.0887L47.1689 18.0908L46.2641 19.5934L45.6875 19.2051L47.4106 16.575L48.0341 16.9962L47.541 18.7835L47.5507 18.7917L48.4551 17.2823L49.0317 17.6735L47.3078 20.3027L46.6881 19.8808L47.18 18.0887Z" fill="#071D3D"/>
<path d="M21.0571 21.6179L21.3079 22.3577L21.9504 21.9301L21.6748 22.6591L22.4383 22.7519L21.7646 23.1307L22.2915 23.7003L21.5369 23.5506L21.5792 24.3314L21.0956 23.7225L20.6346 24.3477L20.6494 23.5656L19.9012 23.7465L20.4054 23.156L19.7188 22.8023L20.479 22.681L20.1769 21.963L20.8357 22.3662L21.0571 21.6179Z" fill="#071D3D"/>
<path d="M50.0251 19.3065L50.2744 20.0462L50.9183 19.6191L50.6423 20.3477L51.4055 20.4405L50.7323 20.8202L51.2588 21.3889L50.5037 21.2397L50.5469 22.02L50.0625 21.4111L49.603 22.0371L49.6168 21.2559L48.869 21.4347L49.373 20.8445L48.6875 20.4918L49.4475 20.3686L49.1441 19.6511L49.8018 20.0547L50.0251 19.3065Z" fill="#071D3D"/>
<path d="M26.2473 51.959L26.9219 51.5793L26.1567 51.4856L26.4333 50.7561L25.7908 51.1855L25.5415 50.4466L25.3182 51.1923L24.6599 50.7896L24.9628 51.5091L24.2031 51.6314L24.8884 51.9833L24.3843 52.5738L25.1324 52.3947L25.1184 53.1768L25.5781 52.5503L26.0622 53.1583L26.0198 52.378L26.7745 52.5272L26.2473 51.959Z" fill="#071D3D"/>
<path d="M51.0475 48.8824L51.3258 48.1546L50.6809 48.5822L50.4303 47.8425L50.2087 48.5908L49.5514 48.1858L49.8538 48.9059L49.0938 49.0287L49.7786 49.3805L49.274 49.9689L50.022 49.7905L50.0088 50.5723L50.4693 49.9467L50.9526 50.5547L50.9105 49.7739L51.6644 49.924L51.1384 49.3544L51.8118 48.9756L51.0475 48.8824Z" fill="#071D3D"/>
<path d="M28.517 51.6143L30.167 52.3314L29.9141 52.9338L28.9895 52.5328L28.7864 53.0164L29.6526 53.3927L29.4091 53.9716L28.5429 53.5954L28.3068 54.1589L29.2661 54.5758L29.0132 55.1787L27.3281 54.4462L28.517 51.6143Z" fill="#071D3D"/>
<path d="M32.0193 53.7991L32.0368 53.7272C32.0801 53.5519 32.046 53.3877 31.8981 53.3497C31.7332 53.3078 31.6272 53.4189 31.5942 53.5527C31.4492 54.1433 32.7716 54.1728 32.5027 55.2657C32.3458 55.9024 31.9094 56.0931 31.2342 55.9216C30.6004 55.76 30.3008 55.4483 30.4532 54.8283L30.4791 54.7239L31.22 54.9125L31.2025 54.983C31.1397 55.2388 31.22 55.3576 31.3681 55.3952C31.5246 55.435 31.6461 55.3324 31.6863 55.169C31.8316 54.5785 30.5571 54.5657 30.818 53.5066C30.9664 52.9037 31.3649 52.6531 32.0111 52.8177C32.6782 52.9879 32.8933 53.3402 32.7356 53.9812L32.0193 53.7991Z" fill="#071D3D"/>
<path d="M34.279 53.9946L33.6875 53.9386L33.7494 53.2599L35.7181 53.4447L35.6567 54.1237L35.0648 54.0681L34.8476 56.457L34.0616 56.3835L34.279 53.9946Z" fill="#071D3D"/>
<path d="M36.2188 55.6632L36.932 55.6513L36.946 56.5061L36.2326 56.5176L36.2188 55.6632Z" fill="#071D3D"/>
<path d="M38.8794 54.3646C38.8284 54.0542 38.8211 53.7972 38.9317 53.5924C39.0423 53.3879 39.2658 53.2417 39.6672 53.1682C40.4431 53.0258 40.6837 53.3632 40.7635 53.813C40.8359 54.2205 40.736 54.5062 40.5548 54.7717L40.1759 55.31C40.121 55.3903 40.0409 55.4969 40.0277 55.5913L41.0461 55.4045L41.1516 55.9993L39.2063 56.3555C39.1329 55.9398 39.1695 55.5383 39.4446 55.1245L39.8675 54.4941C39.9905 54.3142 40.0292 54.1888 39.9886 53.9639C39.9434 53.7095 39.85 53.6432 39.7291 53.6655C39.6207 53.6852 39.5225 53.7643 39.5827 54.1042L39.6056 54.2312L38.8794 54.3646Z" fill="#071D3D"/>
<path d="M42.8739 54.4528C43.0156 54.8642 43.1174 54.951 43.2734 54.8954C43.4302 54.8402 43.4559 54.7073 43.3144 54.2959L42.9862 53.3433C42.8447 52.9319 42.7427 52.8447 42.5868 52.9003C42.4304 52.9559 42.4042 53.0884 42.5457 53.4998L42.8739 54.4528ZM42.4242 52.4278C43.0884 52.1909 43.4937 52.3898 43.8951 53.5541C44.296 54.7192 44.1011 55.1314 43.4361 55.3684C42.7718 55.6048 42.3664 55.4059 41.9653 54.2416C41.5641 53.0769 41.7594 52.6647 42.4242 52.4278Z" fill="#071D3D"/>
<path d="M46.1736 54.1055L45.2027 52.2745L44.7024 52.5495L44.4688 52.1082C44.8927 51.8709 45.0257 51.6853 44.9421 51.3095L45.4425 51.0354L46.8687 53.7249L46.1736 54.1055Z" fill="#071D3D"/>
<path d="M48.6174 52.5938L47.4134 50.9125L46.954 51.2528L46.6641 50.8483C47.0526 50.5554 47.16 50.3528 47.0276 49.9923L47.487 49.6515L49.256 52.1209L48.6174 52.5938Z" fill="#071D3D"/>
<path d="M51.7801 42.0388C51.58 42.1975 51.3713 42.3447 51.1549 42.4797C50.4937 43.8075 49.6604 45.0392 48.6774 46.1419C48.4967 46.3444 48.3115 46.5425 48.1218 46.7362C47.9528 46.9066 47.7805 47.0736 47.6049 47.237C47.5879 47.2532 47.5717 47.2695 47.5544 47.2853C47.5002 47.3362 47.4427 47.3828 47.3876 47.4324C44.5047 50.0261 40.7169 51.6035 36.5655 51.6035H36.565C32.0502 51.6035 27.9667 49.743 25.0071 46.7362C24.8017 46.5272 24.6036 46.3113 24.4096 46.0915C24.3978 46.1103 24.3827 46.1231 24.3602 46.1252C24.2891 46.1325 24.152 46.1479 23.9688 46.1667C23.969 46.1675 23.9698 46.1685 23.9702 46.1693C25.3076 47.7249 26.9187 49.0312 28.7271 50.0099C28.7495 50.0214 28.7724 50.0329 28.7947 50.0445C29.0213 50.166 29.2507 50.2822 29.4826 50.393C29.5372 50.4191 29.5929 50.443 29.6476 50.4683C29.8493 50.5621 30.0529 50.6517 30.2581 50.7372C30.3334 50.7684 30.4095 50.7979 30.4853 50.8283C30.6739 50.9033 30.8638 50.9749 31.055 51.0429C31.1439 51.0746 31.2333 51.1049 31.3231 51.1353C31.5049 51.196 31.6878 51.2536 31.8716 51.308C31.9706 51.3375 32.0697 51.367 32.1697 51.3944C32.3475 51.4436 32.5269 51.4889 32.7069 51.5321C32.8134 51.5578 32.9194 51.5834 33.0264 51.6069C33.2043 51.6462 33.3839 51.6804 33.5636 51.7138C33.6738 51.7339 33.7835 51.7557 33.8943 51.7737C34.0776 51.8032 34.2622 51.8276 34.4473 51.8511C34.5564 51.8656 34.6644 51.8818 34.7738 51.8938C34.9737 51.9152 35.1757 51.9306 35.3776 51.9443C35.4734 51.9516 35.5681 51.9614 35.6643 51.9669C35.9625 51.9832 36.2627 51.9922 36.5648 51.9922C36.8228 51.9922 37.0788 51.9837 37.3341 51.9721C37.406 51.9691 37.4775 51.9648 37.549 51.9605C37.7508 51.9482 37.9518 51.9327 38.1513 51.9135C38.2095 51.9083 38.268 51.9041 38.3259 51.8977C38.5741 51.8712 38.821 51.8391 39.066 51.8019C39.122 51.7933 39.1777 51.783 39.2336 51.7741C39.4292 51.7421 39.6234 51.7065 39.8164 51.6685C39.8879 51.6536 39.9587 51.6394 40.0297 51.6245C40.2546 51.5767 40.4785 51.5242 40.7013 51.4671C40.7186 51.4628 40.7363 51.459 40.7533 51.4539C40.9888 51.3927 41.2211 51.3239 41.4527 51.2524C41.6989 51.1751 41.9434 51.0926 42.1862 51.0049C42.2485 50.9818 42.3115 50.9604 42.3732 50.9369C42.5945 50.8539 42.8139 50.7658 43.0313 50.6726C43.0885 50.6491 43.1444 50.6226 43.2014 50.5978C43.3681 50.5243 43.5336 50.4482 43.698 50.3695C43.7705 50.3344 43.843 50.2994 43.9149 50.2639C44.0925 50.1754 44.2684 50.0836 44.4427 49.9885C44.4809 49.9679 44.5199 49.9487 44.5577 49.9278C44.7587 49.8158 44.9573 49.6997 45.1535 49.5793C45.225 49.5357 45.2956 49.4908 45.3662 49.4468C45.5051 49.3586 45.6429 49.2687 45.7796 49.177C45.8469 49.1312 45.9146 49.0876 45.9808 49.0414C46.1657 48.9132 46.3482 48.7814 46.528 48.6459C46.589 48.6001 46.6483 48.5518 46.7085 48.5048C46.8368 48.4052 46.9637 48.3037 47.089 48.2003C47.1615 48.1413 47.2336 48.0814 47.3051 48.0198C47.4321 47.9114 47.5574 47.8009 47.6811 47.6885C47.7409 47.6346 47.8019 47.5812 47.861 47.5261C48.0146 47.3826 48.1654 47.2362 48.3134 47.0869C48.3822 47.018 48.4497 46.9479 48.5174 46.8778C48.6175 46.7734 48.7165 46.6679 48.8145 46.5614C48.8798 46.4887 48.9463 46.4177 49.0108 46.3446C49.154 46.1826 49.2946 46.0175 49.4318 45.8498C49.4895 45.7794 49.5448 45.7075 49.6014 45.6357C49.6922 45.5213 49.7814 45.4057 49.8692 45.2889C49.9328 45.2041 49.9956 45.1187 50.0576 45.0328C50.143 44.9139 50.2269 44.794 50.3095 44.6731C50.3713 44.5825 50.4333 44.4927 50.4935 44.4008C50.6012 44.2363 50.7062 44.0699 50.8084 43.9018C50.8635 43.8103 50.9171 43.7175 50.9709 43.6252C51.0386 43.5084 51.1051 43.391 51.1704 43.2728C51.2222 43.1783 51.2743 43.0842 51.3241 42.9893C51.419 42.809 51.5107 42.6269 51.5991 42.4432C51.6043 42.4322 51.6101 42.4214 51.6155 42.41C51.6664 42.2844 51.7213 42.1606 51.7801 42.0388Z" fill="#071D3D"/>
<path d="M20.6385 31.246C21.3361 28.1575 22.8744 25.3966 25.0044 23.23C26.484 21.7253 28.2453 20.5093 30.2006 19.6686C32.156 18.8271 34.3059 18.3619 36.5627 18.3619C43.2514 18.3619 48.9982 22.4501 51.5274 28.3012C51.6624 28.2866 51.7966 28.2726 51.9289 28.2584C51.7936 27.9391 51.6475 27.6265 51.4942 27.3178C51.4513 27.2326 51.4091 27.1472 51.3654 27.0625C51.3004 26.9373 51.2339 26.813 51.1658 26.6896C51.1198 26.606 51.0728 26.5229 51.0249 26.4403C50.8717 26.1723 50.7115 25.9086 50.5445 25.6493C50.5264 25.621 50.5088 25.5915 50.4901 25.5634C50.4152 25.4483 50.3368 25.3363 50.2588 25.223C50.202 25.14 50.1445 25.0576 50.0861 24.9759C50.0076 24.8665 49.928 24.758 49.8472 24.6504C49.7841 24.5671 49.72 24.4844 49.655 24.4025C49.543 24.2586 49.4286 24.1166 49.3119 23.9765C49.2131 23.8586 49.114 23.7401 49.0123 23.6247C48.9295 23.5319 48.8451 23.4408 48.7606 23.3493C48.6831 23.2649 48.6048 23.1814 48.5256 23.0987C48.4404 23.0098 48.3543 22.9219 48.2672 22.8349C48.1794 22.7476 48.0904 22.6615 48.0003 22.5766C47.9155 22.495 47.8311 22.4133 47.7445 22.3338C47.5906 22.1934 47.4344 22.0557 47.2759 21.9207C47.1924 21.8506 47.1078 21.7822 47.0236 21.7133C46.9206 21.6293 46.8167 21.5464 46.712 21.4645C46.6258 21.3973 46.5399 21.3315 46.4524 21.2661C46.3319 21.1762 46.2102 21.0881 46.0872 21.0018C46.0153 20.951 45.9448 20.8992 45.8722 20.8492C45.6874 20.7234 45.5002 20.6014 45.3106 20.4831C45.2311 20.4336 45.1501 20.3861 45.0696 20.3373C44.9398 20.2589 44.8088 20.1823 44.6768 20.1077C44.5937 20.0605 44.5103 20.0139 44.4264 19.9679C44.2691 19.883 44.1105 19.8005 43.9507 19.7203C43.8947 19.6922 43.8403 19.6631 43.7841 19.6357C43.5741 19.5335 43.3621 19.4359 43.148 19.3428C43.0725 19.3103 42.9962 19.2791 42.9205 19.247C42.7653 19.1823 42.6091 19.1199 42.4521 19.0598C42.3731 19.0294 42.2944 18.999 42.2147 18.97C42.0198 18.8988 41.8236 18.8313 41.6262 18.7677C41.5905 18.7561 41.5547 18.7433 41.5192 18.7314C41.2871 18.659 41.0534 18.5917 40.8185 18.5295C40.7457 18.5099 40.6726 18.4924 40.5992 18.474C40.424 18.4295 40.2481 18.3881 40.0706 18.3495C39.9943 18.3329 39.9187 18.3166 39.8421 18.3008C39.6138 18.2546 39.3842 18.2123 39.1529 18.1759C39.1357 18.1729 39.1192 18.1695 39.102 18.167C38.8546 18.1284 38.6046 18.0977 38.3536 18.0703C38.2794 18.0618 38.2052 18.0562 38.1312 18.0485C37.9429 18.0306 37.754 18.016 37.5637 18.0053C37.488 18.0001 37.4119 17.9955 37.3359 17.9916C37.0793 17.9801 36.8215 17.9724 36.5621 17.9724C27.3247 17.9741 19.8359 25.5873 19.8359 34.9818C19.8359 35.1469 19.8436 35.3098 19.8482 35.4736C19.955 35.2068 20.0855 34.9481 20.2271 34.6949C20.2474 33.5113 20.3874 32.3573 20.6385 31.246Z" fill="#071D3D"/>
<path d="M38.379 24.0284L41.4038 23.6921C41.4814 23.6834 41.5521 23.6112 41.5617 23.5306L41.7715 21.7784C41.7811 21.6978 41.7261 21.6395 41.6485 21.6481L37.6919 22.0881C37.6305 22.095 37.5686 22.1277 37.5208 22.1786L36.2719 23.5069L35.3118 22.4242C35.2749 22.3827 35.2193 22.3632 35.1579 22.3699L31.4971 22.777C31.4355 22.7838 31.3735 22.8166 31.3257 22.8678L30.1471 24.1245C30.1024 24.1722 30.0735 24.2321 30.0662 24.2918L29.4776 29.2077C29.4681 29.2883 29.523 29.3467 29.6007 29.338L31.2873 29.1504C31.3648 29.1418 31.4355 29.0696 31.4452 28.9889L31.9214 25.0117C31.9373 24.8788 32.0539 24.7595 32.1818 24.7453L33.9787 24.5455C34.1066 24.5313 34.1974 24.6275 34.1816 24.7604L33.7053 28.7376C33.6956 28.8182 33.7507 28.8765 33.8283 28.8679L35.5148 28.6803C35.5924 28.6717 35.6631 28.5994 35.6728 28.5188L35.8079 27.3896L36.7675 28.4697C36.8043 28.5112 36.8599 28.5308 36.9213 28.5239L40.8779 28.084C40.9555 28.0754 41.0262 28.003 41.0358 27.9225L41.2456 26.1703C41.2553 26.0897 41.2002 26.0314 41.1226 26.04L38.0979 26.3764C37.97 26.3906 37.8791 26.2944 37.895 26.1615L38.1185 24.2949C38.1344 24.1619 38.2511 24.0427 38.379 24.0284Z" fill="#071D3D"/>
</g>
</g>
<defs>
<clipPath id="clip0_2788_5765">
<rect width="70" height="48" fill="white" transform="translate(0 11)"/>
</clipPath>
</defs>
</svg>
