<svg width="70" height="70" viewBox="0 0 70 70" fill="none" xmlns="http://www.w3.org/2000/svg">
<g clip-path="url(#clip0_2788_6129)">
<path d="M36.1334 60.4839C25.3109 60.627 15.9277 54.0115 11.9281 44.5201C12.103 44.4487 12.2703 44.3559 12.4306 44.2482C16.3231 53.5622 25.5053 60.0459 36.1258 59.9046C47.6244 59.7475 57.2312 51.8882 60.1973 41.2521C60.3754 41.32 60.5606 41.3674 60.7492 41.3936C57.7129 52.2653 47.8755 60.3233 36.1334 60.4839ZM9.87053 34.6472C9.68596 20.2178 21.1626 8.31613 35.4539 8.11677C49.4839 7.94032 61.0923 19.1042 61.6923 33.1589C61.5053 33.1115 61.3122 33.0857 61.1152 33.083C60.4777 19.36 49.1713 8.52365 35.4611 8.69603C21.4583 8.89131 10.2635 20.5015 10.4447 34.64C10.4526 35.2387 10.4824 35.8321 10.5305 36.4202C10.3374 36.4541 10.1487 36.5099 9.96799 36.5867C9.91179 35.9416 9.87928 35.2947 9.87053 34.6472ZM64.2782 37.2476C64.2782 35.4172 63.3704 33.8661 62.1098 33.3061C61.5845 18.9513 49.7558 7.52254 35.4485 7.70262C20.9311 7.90516 9.27301 19.9949 9.46029 34.6527C9.46994 35.3744 9.50924 36.0893 9.57525 36.7958C8.50506 37.4705 7.76562 38.8933 7.76562 40.5447C7.76562 42.8463 9.19891 44.7122 10.967 44.7122C11.1608 44.7122 11.3496 44.6861 11.5342 44.6428C15.5875 54.3055 25.1299 61.0443 36.139 60.8981C48.1016 60.7348 58.1187 52.5019 61.1714 41.409C62.8952 41.3435 64.2782 39.5077 64.2782 37.2476Z" fill="#BEC0C2"/>
<path d="M18.8061 29.3127C21.5368 19.8712 31.3325 14.4496 40.6862 17.2101C50.0366 19.9678 55.4013 29.8604 52.6708 39.3051C49.9387 48.7473 40.1426 54.1655 30.7902 51.4082C21.4414 48.6484 16.074 38.7581 18.8061 29.3127Z" fill="white"/>
<path d="M45.1822 22.2581L45.7022 20.4522L46.1852 20.2397L44.3987 19.293C44.2355 19.2041 44.1064 19.2597 44.0621 19.3466L44.0089 19.4609C43.9618 19.5536 44.015 19.6983 44.1603 19.7748L45.5484 20.5144L45.0744 20.7258L44.6868 22.1054C44.6385 22.2653 44.7025 22.4023 44.8025 22.4361L44.9165 22.4713C45.007 22.4985 45.1337 22.4388 45.1822 22.2581Z" fill="#BEC0C2"/>
<path d="M43.3584 22.8926L43.9968 21.1324L44.4908 20.9566L42.7739 19.8802C42.6161 19.7806 42.4845 19.8262 42.434 19.9097L42.3733 20.0156C42.321 20.1088 42.3626 20.2549 42.5029 20.3419L43.8381 21.1802L43.3528 21.3565L42.8687 22.7028C42.8121 22.8615 42.866 23.0033 42.9612 23.0425L43.0748 23.0856C43.1644 23.1201 43.2946 23.0686 43.3584 22.8926Z" fill="#BEC0C2"/>
<path d="M41.4889 23.3909L42.2434 21.6837L42.7513 21.5424L41.1087 20.3447C40.9592 20.2351 40.824 20.2682 40.7686 20.3487L40.6985 20.4538C40.6421 20.5397 40.6738 20.6885 40.8074 20.7858L42.0824 21.7196L41.5875 21.8604L41.0138 23.1679C40.9466 23.3217 40.992 23.4664 41.0834 23.5136L41.1939 23.5644C41.2819 23.6057 41.4157 23.5637 41.4889 23.3909Z" fill="#BEC0C2"/>
<path d="M39.5932 23.755L40.462 22.1045L40.9764 22.0006L39.4187 20.6877C39.2795 20.5643 39.1416 20.5915 39.0796 20.6693L39.0035 20.7655C38.9388 20.8464 38.9626 20.9993 39.0897 21.1045L40.3003 22.1286L39.7946 22.2345L39.1344 23.4976C39.0572 23.6423 39.0918 23.7922 39.182 23.8419L39.2885 23.9058C39.3722 23.9507 39.5078 23.9219 39.5932 23.755Z" fill="#BEC0C2"/>
<path d="M37.6729 23.9766L38.6526 22.3944L39.1729 22.3304L37.7039 20.9047C37.5728 20.773 37.4361 20.7884 37.3689 20.8607L37.2865 20.9521C37.2171 21.0306 37.2313 21.1819 37.3482 21.2971L38.4878 22.4071L37.9768 22.4756L37.2351 23.684C37.1471 23.8285 37.1718 23.9796 37.2544 24.0365L37.3593 24.1034C37.439 24.1574 37.5759 24.1354 37.6729 23.9766Z" fill="#BEC0C2"/>
<path d="M35.7533 24.0565L36.8332 22.5512L37.3606 22.5272L35.9911 20.9983C35.869 20.8584 35.7261 20.8618 35.6581 20.9287L35.5678 21.0142C35.4958 21.0867 35.4976 21.2405 35.6078 21.3619L36.6697 22.5549L36.1568 22.5843L35.3325 23.737C35.236 23.8706 35.251 24.0223 35.3325 24.0869L35.4291 24.1629C35.5052 24.2203 35.6446 24.211 35.7533 24.0565Z" fill="#BEC0C2"/>
<path d="M33.8213 23.9985L35.0022 22.5757L35.5286 22.5868L34.2664 20.9634C34.1527 20.8137 34.0117 20.8093 33.9383 20.8704L33.8447 20.9497C33.7656 21.0162 33.7575 21.1697 33.8599 21.2992L34.837 22.566L34.3216 22.5573L33.4261 23.6472C33.3195 23.7728 33.323 23.9259 33.3987 23.9969L33.4915 24.079C33.5617 24.1436 33.7019 24.1427 33.8213 23.9985Z" fill="#BEC0C2"/>
<path d="M31.8968 23.7978L33.1711 22.4655L33.6956 22.5143L32.5446 20.8035C32.4429 20.6472 32.3043 20.6318 32.2273 20.6865L32.1265 20.7588C32.0416 20.818 32.023 20.9727 32.1186 21.109L33.0069 22.4415L32.4961 22.3973L31.5256 23.4165C31.4106 23.5358 31.405 23.6907 31.4769 23.7679L31.5624 23.852C31.6311 23.9228 31.769 23.9339 31.8968 23.7978Z" fill="#BEC0C2"/>
<path d="M29.9934 23.4577L31.3546 22.2241L31.8749 22.3108L30.8433 20.5194C30.7512 20.3555 30.6134 20.3296 30.5318 20.3802L30.4259 20.4421C30.3401 20.4988 30.3134 20.6492 30.3967 20.7925L31.1943 22.1876L30.685 22.1046L29.6487 23.0535C29.5277 23.1615 29.5113 23.3139 29.5777 23.3931L29.6577 23.4895C29.7201 23.5634 29.8591 23.5843 29.9934 23.4577Z" fill="#BEC0C2"/>
<path d="M28.1219 22.98L29.5633 21.8478L30.0743 21.9725L29.1651 20.1125C29.0877 19.9394 28.9498 19.9054 28.8651 19.9487L28.7571 20.0052C28.6675 20.0542 28.63 20.2005 28.7032 20.3513L29.4061 21.802L28.9029 21.6797L27.8053 22.55C27.6755 22.6509 27.6508 22.8024 27.7105 22.8859L27.7839 22.9866C27.841 23.0671 27.98 23.097 28.1219 22.98Z" fill="#BEC0C2"/>
<path d="M26.2822 22.3671L27.7961 21.3419L28.2991 21.5059L27.5175 19.5803C27.4483 19.4063 27.3154 19.3607 27.2274 19.3982L27.1158 19.4453C27.0237 19.4871 26.973 19.6313 27.039 19.7874L27.6408 21.2825L27.1512 21.1276L25.9948 21.9148C25.8585 22.0046 25.8199 22.1532 25.8772 22.2441L25.9436 22.3469C25.9948 22.4297 26.1311 22.4707 26.2822 22.3671Z" fill="#BEC0C2"/>
<path d="M24.4837 21.6191L26.0647 20.7062L26.5538 20.9079L25.9039 18.9333C25.8478 18.7516 25.7191 18.6954 25.6262 18.7271L25.5132 18.7673C25.4178 18.8031 25.358 18.9435 25.4124 19.1009L25.9129 20.6391L25.4315 20.4458L24.2292 21.1476C24.0873 21.2272 24.0413 21.373 24.0878 21.4638L24.1473 21.5738C24.1942 21.6633 24.3262 21.7119 24.4837 21.6191ZM25.259 46.7481L24.9909 48.4737L24.558 48.737L26.3658 49.3669C26.5302 49.4267 26.6463 49.3594 26.6761 49.2721L26.7148 49.1623C26.7462 49.0709 26.6806 48.9475 26.5329 48.8937L25.1274 48.3986L25.5482 48.1403L25.7499 46.8232C25.7737 46.6685 25.6962 46.5504 25.5999 46.5347L25.486 46.5161C25.3955 46.5032 25.2821 46.576 25.259 46.7481Z" fill="#BEC0C2"/>
<path d="M26.9159 45.9222L26.5254 47.6267L26.0781 47.8553L27.8366 48.6133C27.9973 48.6852 28.1172 48.626 28.1545 48.5414L28.199 48.4332C28.2385 48.3438 28.1794 48.2143 28.0366 48.1524L26.6685 47.5586L27.109 47.3321L27.3976 46.0313C27.4348 45.8803 27.3659 45.7569 27.2676 45.7322L27.1571 45.7079C27.0695 45.6875 26.9523 45.7519 26.9159 45.9222Z" fill="#BEC0C2"/>
<path d="M28.6162 45.2161L28.1097 46.8868L27.6484 47.0814L29.3505 47.9646C29.5059 48.0474 29.6285 47.9963 29.6723 47.9158L29.7235 47.8138C29.7684 47.7242 29.7201 47.5915 29.5818 47.5207L28.2585 46.8319L28.7117 46.6371L29.0936 45.3599C29.139 45.2093 29.0788 45.0819 28.9861 45.0524L28.8756 45.02C28.7876 44.993 28.665 45.0492 28.6162 45.2161Z" fill="#BEC0C2"/>
<path d="M30.369 44.6331L29.7504 46.262L29.2734 46.4266L30.9111 47.4266C31.0593 47.518 31.1857 47.4786 31.2335 47.4015L31.2946 47.2992C31.344 47.2157 31.3042 47.0805 31.1718 46.9987L29.901 46.2182L30.3645 46.0551L30.8343 44.8086C30.8902 44.6619 30.8385 44.5308 30.7492 44.4929L30.6398 44.4539C30.5547 44.4212 30.4287 44.4684 30.369 44.6331Z" fill="#BEC0C2"/>
<path d="M32.161 44.1734L31.4301 45.7563L30.9453 45.8862L32.5068 46.9983C32.6478 47.1042 32.7778 47.0709 32.8317 46.9944L32.8984 46.9007C32.955 46.8218 32.9238 46.6817 32.7965 46.5925L31.5815 45.7241L32.0575 45.5939L32.6132 44.3807C32.6777 44.2428 32.6373 44.1056 32.5486 44.0654L32.4428 44.014C32.3606 43.977 32.2324 44.0135 32.161 44.1734Z" fill="#BEC0C2"/>
<path d="M33.9735 43.8416L33.1326 45.3691L32.6406 45.463L34.1231 46.6855C34.2569 46.7989 34.3867 46.7771 34.446 46.7036L34.519 46.6143C34.5809 46.5376 34.5589 46.399 34.4397 46.2986L33.2889 45.3455L33.7721 45.2509L34.4087 44.0838C34.4837 43.9452 34.4514 43.8069 34.3692 43.7595L34.2659 43.7048C34.186 43.6594 34.0568 43.6882 33.9735 43.8416Z" fill="#BEC0C2"/>
<path d="M35.8034 43.6416L34.8612 45.1057L34.3594 45.1633L35.7549 46.4874C35.8796 46.6096 36.0152 46.5967 36.0772 46.5307L36.1573 46.4461C36.222 46.3744 36.2117 46.2306 36.0992 46.1263L35.0173 45.092L35.5032 45.031L36.2222 43.9122C36.3064 43.7818 36.2835 43.6409 36.2022 43.5879L36.1059 43.523C36.0287 43.4747 35.8975 43.4937 35.8034 43.6416Z" fill="#BEC0C2"/>
<path d="M37.648 43.5701L36.6057 44.9638L36.1016 44.9892L37.4019 46.4065C37.5189 46.5383 37.6525 46.5337 37.7194 46.4721L37.8045 46.392C37.8755 46.3262 37.8735 46.1836 37.7688 46.0699L36.7631 44.9627L37.2551 44.9359L38.0464 43.8701C38.1398 43.7477 38.1268 43.605 38.0518 43.544L37.9579 43.475C37.8867 43.4188 37.7538 43.429 37.648 43.5701Z" fill="#BEC0C2"/>
<path d="M39.4926 43.6298L38.3557 44.9455L37.8516 44.9353L39.05 46.4435C39.1564 46.5803 39.29 46.5862 39.3596 46.5304L39.4526 46.4562C39.5294 46.3968 39.5377 46.2519 39.4389 46.1319L38.5129 44.9561L39.0033 44.9652L39.8691 43.9584C39.9713 43.8411 39.9677 43.6964 39.8952 43.6302L39.808 43.5576C39.7387 43.4971 39.6059 43.4957 39.4926 43.6298Z" fill="#BEC0C2"/>
<path d="M41.3263 43.8199L40.1021 45.0508L39.6016 45.005L40.6884 46.5951C40.7863 46.7405 40.9185 46.7553 40.9944 46.7026L41.0917 46.6387C41.1707 46.5813 41.1869 46.4414 41.0991 46.3134L40.2559 45.0739L40.7463 45.1179L41.6795 44.1731C41.788 44.0644 41.7949 43.9229 41.7278 43.8535L41.6449 43.7705C41.5818 43.7045 41.4482 43.695 41.3263 43.8199Z" fill="#BEC0C2"/>
<path d="M43.1469 44.1415L41.8384 45.2835L41.3438 45.1995L42.3196 46.8627C42.4041 47.0167 42.5377 47.0396 42.6163 46.9933L42.7153 46.9346C42.7984 46.8838 42.8258 46.7459 42.7469 46.6112L41.992 45.3157L42.4786 45.3948L43.4743 44.5184C43.5921 44.4175 43.6072 44.2755 43.5448 44.2009L43.4693 44.1127C43.4107 44.0421 43.2758 44.024 43.1469 44.1415Z" fill="#BEC0C2"/>
<path d="M44.9361 44.5881L43.5511 45.6352L43.0625 45.5155L43.9218 47.2456C43.9975 47.4025 44.1282 47.4372 44.2088 47.3964L44.3126 47.3447C44.3979 47.2995 44.4374 47.1637 44.3667 47.0242L43.7038 45.6795L44.1798 45.7899L45.2359 44.9863C45.3616 44.8952 45.3886 44.755 45.3295 44.6754L45.2601 44.5835C45.2067 44.5098 45.074 44.4815 44.9361 44.5881Z" fill="#BEC0C2"/>
<path d="M46.6898 45.1621L45.2368 46.1093L44.7578 45.9546L45.4939 47.7395C45.5586 47.9042 45.6838 47.9464 45.771 47.9115L45.8754 47.8672C45.9652 47.8275 46.0139 47.6951 45.9526 47.5522L45.3857 46.1619L45.8561 46.3084L46.9615 45.581C47.0913 45.4982 47.1277 45.3599 47.0772 45.2789L47.0143 45.1812C46.9644 45.1016 46.8347 45.066 46.6898 45.1621Z" fill="#BEC0C2"/>
<path d="M48.3973 45.8606L46.8816 46.6984L46.4141 46.5131L47.0235 48.3455C47.0771 48.5133 47.1989 48.5661 47.2853 48.5376L47.3965 48.4995C47.4878 48.4691 47.5442 48.3382 47.4948 48.1917L47.026 46.7653L47.4827 46.9449L48.6396 46.2956C48.7745 46.2223 48.8205 46.0883 48.7738 46.0028L48.719 45.9C48.6735 45.8197 48.5473 45.773 48.3973 45.8606Z" fill="#BEC0C2"/>
<path d="M23.655 22.4018C21.846 22.7257 20.3458 24.2546 20.2394 25.8828C20.2353 25.9453 20.2334 26.0078 20.2335 26.0704C20.2335 26.798 20.5165 27.4517 21.0419 27.9279C21.6976 28.521 22.6578 28.7576 23.6752 28.5753C25.4832 28.2536 26.9843 26.725 27.0919 25.0947C27.1435 24.2909 26.8597 23.5651 26.2896 23.0491C25.6332 22.4551 24.6735 22.2194 23.655 22.4018ZM6.18809 27.0255L5.38488 30.1742C5.38488 30.1742 5.99924 30.0078 6.4306 29.8903C5.89707 32.2922 3.1513 44.674 3.13334 44.7572C2.9912 45.2265 2.38245 45.5715 1.85544 45.7397L1.40769 45.8826L0 50.5889L1.7353 49.8608C7.41681 47.4787 15.913 45.1793 15.9986 45.1566L16.4472 45.0355L18.4167 39.5416L16.2925 40.0474C16.0042 40.1152 15.8241 40.2395 15.7071 40.3805C15.441 40.7099 14.5817 41.6116 13.7735 41.8793L10.0328 42.9199L10.0148 42.9242C10.0328 42.8432 14.2781 24.1446 14.2781 24.1446L6.18809 27.0255Z" fill="#A1A1A4"/>
<path d="M19.1507 29.9428L18.3774 32.9991C18.3774 32.9991 18.8435 32.8764 19.2675 32.7634C18.7685 34.6897 17.6759 38.9144 17.6759 38.9144C17.5521 39.4247 17.4922 39.9196 17.4922 40.3864C17.4922 41.4156 17.7859 42.3088 18.3538 42.9443C18.8882 43.5424 19.9198 44.2015 21.8004 43.9402C23.259 43.7393 24.6137 43.0264 25.8287 41.8198L26.6486 41.0058L24.1269 39.4769L23.6358 39.9498C23.6001 39.9849 23.5635 40.0146 23.5289 40.0441C23.5429 39.9341 23.5649 39.8044 23.6001 39.6545C23.5976 39.6617 26.2033 28.8825 26.2033 28.8825L26.5942 27.264L19.1507 29.9428Z" fill="#A1A1A4"/>
<path d="M35.057 27.9761C35.1621 27.9641 35.275 27.9627 35.381 27.9686L33.1005 37.2797C33.0132 37.6206 32.4976 37.9155 31.9032 37.9579C31.8778 37.9597 31.852 37.9531 31.8251 37.9465C31.9443 37.4687 34.1837 28.435 34.1954 28.3869C34.2794 28.2567 34.7056 28.016 35.057 27.9761ZM35.6101 24.4824C31.3118 25.0172 28.072 27.6085 27.1585 31.2435L25.8786 36.4743L25.8835 36.4523C25.43 38.1225 25.606 39.4414 26.4081 40.3727C27.3346 41.4471 28.9527 41.8399 31.2186 41.5412C35.538 40.971 38.7358 38.5957 39.5666 35.341C39.567 35.3374 41.0138 29.5533 41.0138 29.5533C41.42 27.8684 41.2152 26.5545 40.4098 25.6387C39.4833 24.5901 37.8692 24.2 35.6101 24.4824ZM53.3257 20.7578C52.4345 20.9032 51.3971 21.2704 50.4592 21.7392C50.5402 21.4137 50.6278 21.0647 50.6278 21.0647L43.1142 23.8868L42.3945 26.9228L43.2871 26.6507L40.2874 39.0599L46.632 37.4916L49.1999 26.7586C49.3452 26.124 49.6584 25.7264 50.2012 25.4867L48.6794 31.9557C48.6819 31.9471 48.5956 32.2864 48.5956 32.2864C48.2573 33.5964 47.7949 35.3916 48.7699 36.4997C49.3084 37.1123 50.1439 37.3457 51.2529 37.1924C53.2148 36.9202 54.9407 35.8874 56.3845 34.1201L57.0267 33.3351C57.0267 33.3351 54.8661 31.9511 54.662 31.8214C55.143 29.7942 56.3293 24.7888 56.3293 24.7888C56.4496 24.2923 56.5112 23.836 56.5112 23.4198C56.5112 22.6244 56.2882 21.9785 55.8458 21.4926C55.267 20.8585 54.349 20.5918 53.3257 20.7578ZM4.8789 53.9983L4.48438 52.8523L5.82201 52.239C12.9626 49.1601 22.8104 45.6986 32.8405 42.7403C43.1295 39.7066 52.2699 37.6156 57.9195 37.0044L58.9237 36.8951L58.8669 39.7943L58.1603 39.9329C53.2867 40.8825 36.0481 44.8916 18.8566 56.6111L18.3771 56.9375L17.8867 56.6272C14.1574 54.2705 8.94906 53.9471 6.17657 53.9634C5.76587 53.957 4.8789 53.9983 4.8789 53.9983Z" fill="#A1A1A4"/>
<path d="M62.7329 19.0721C59.0972 19.8428 57.0561 22.4751 57.1347 26.2977C57.1812 28.5853 58.588 30.4721 59.949 32.2968C61.1166 33.8615 62.2194 35.3403 62.256 36.8265C62.3231 39.5884 61.1175 39.9771 60.7176 40.0685C60.0132 40.2282 59.4922 39.7975 59.3454 39.6167C60.5689 39.0402 61.7981 37.9427 61.7981 36.3679C61.7981 36.2652 61.7929 36.1609 61.7826 36.0543C61.6807 35.0384 61.1941 34.4823 60.8043 34.1931C59.9366 33.5524 58.9084 33.7055 58.6142 33.7674C56.4736 34.2178 55.1129 36.3532 55.5159 38.6292C56.1685 42.3143 59.5787 43.4507 62.4717 42.9449C64.5654 42.5788 66.3149 41.5153 67.3967 39.9488C68.4669 38.3967 68.8289 36.4562 68.4422 34.3376C68.0425 32.1432 66.8807 30.4134 65.7576 28.7388C64.5921 27.0024 63.4896 25.361 63.4088 23.3907C63.3825 22.7623 63.5628 22.2923 63.7526 22.1059C63.8264 22.0335 63.874 22.0295 63.9192 22.0324C63.9872 22.0372 64.1462 22.0487 64.316 22.3089C64.6941 22.8904 64.746 24.0941 64.4329 24.9927L64.3288 25.2923L64.8674 26.8303L69.997 24.4075L69.9252 23.7675C69.7572 22.227 68.996 20.8925 67.785 20.005C66.415 19.0039 64.6213 18.6727 62.7329 19.0721Z" fill="#A1A1A4"/>
<path d="M23.7633 23.0374C22.2573 23.3064 20.9607 24.6026 20.8747 25.9263C20.8712 25.9733 20.8697 26.0204 20.87 26.0676C20.87 26.6105 21.0784 27.0959 21.4655 27.4466C21.9741 27.9072 22.7376 28.0871 23.561 27.9394C25.0675 27.6713 26.364 26.3758 26.4514 25.0512C26.4904 24.4511 26.2803 23.9106 25.8597 23.5303C25.3515 23.069 24.5876 22.8898 23.7633 23.0374ZM6.71946 27.5198L6.27462 29.2626C6.27462 29.2626 6.99677 29.0669 7.28239 28.9884C7.11062 29.7647 3.7525 44.9059 3.74667 44.9306C3.4927 45.8077 2.47191 46.2198 2.04504 46.3554L1.91863 46.396L1 49.4688L1.48794 49.2644C7.20919 46.866 15.7447 44.5557 15.83 44.533L15.9569 44.4979L17.4099 40.4442L16.6494 40.6242C16.3225 40.702 16.2014 40.7317 16.1633 40.8324C15.9652 41.0665 15.0035 42.1559 13.9604 42.4961L10.1786 43.5478C9.80137 43.6396 9.52473 43.6256 9.40909 43.5074C9.30512 43.3999 9.29389 43.1586 9.37765 42.8256C9.37967 42.8193 13.3923 25.1442 13.3923 25.1442L6.71946 27.5198ZM19.6842 30.4347L19.264 32.0968C19.264 32.0968 19.9202 31.9235 20.1611 31.8595C19.9675 32.6055 18.2969 39.0634 18.2969 39.0634C18.1842 39.5276 18.1296 39.9735 18.1296 40.3906C18.1296 41.2573 18.3672 41.9964 18.8282 42.5124C19.2584 42.9939 20.1099 43.5226 21.7125 43.301C23.0308 43.1187 24.2654 42.4655 25.38 41.3593L25.6111 41.1309L24.2142 40.2838L24.0774 40.4172C23.779 40.7036 23.481 40.869 23.19 40.9084C23.0549 40.9279 23.0108 40.8792 22.9913 40.8583C22.87 40.7243 22.7944 40.2913 22.9772 39.507L25.6908 28.2742L19.6842 30.4347ZM33.5785 28.203C33.6876 27.7582 34.4816 27.3917 34.9815 27.3336C35.4023 27.2857 35.9798 27.3508 36.1197 27.5119C36.1336 27.5271 36.1413 27.54 36.1325 27.5781L33.7179 37.4342C33.5583 38.0572 32.8296 38.5376 31.9451 38.6014C31.6779 38.6202 31.3865 38.5109 31.2322 38.3355C31.1666 38.26 31.1354 38.1827 31.1354 38.1001C31.1354 38.079 31.1379 38.057 31.1424 38.0341C31.1464 38.0157 33.5785 28.203 33.5785 28.203ZM35.6863 25.122C31.6541 25.6244 28.6225 28.0299 27.7751 31.4023L26.4965 36.6286C26.1035 38.0718 26.2349 39.1895 26.8872 39.9474C27.6536 40.8363 29.1212 41.1654 31.1334 40.9005C35.1881 40.3645 38.1813 38.174 38.9443 35.1791L40.3922 29.3941C40.7431 27.9331 40.5882 26.8147 39.9289 26.0685C39.1518 25.186 37.7232 24.868 35.6863 25.122ZM53.4258 21.3942C52.1684 21.5997 50.5485 22.3021 49.4605 23.0744L49.706 22.0989L43.6537 24.3713L43.2722 25.9796C43.2722 25.9796 43.9311 25.7795 44.1706 25.706L41.1552 38.1793L46.1 36.9579L48.5765 26.6053C48.7853 25.6888 49.3119 25.0982 50.1842 24.7972C50.5226 24.6816 50.7833 24.7303 50.8918 24.8315C50.9163 24.8539 50.9911 24.9238 50.9437 25.1095L49.2984 32.104C49.3 32.102 49.2111 32.4481 49.2111 32.4481C48.9099 33.6184 48.4977 35.2203 49.2441 36.0702C49.633 36.5129 50.2781 36.674 51.1635 36.5515C52.961 36.3029 54.5513 35.3465 55.8891 33.7085L56.0697 33.488L54.6379 32.5708L54.5014 32.7665C54.1785 33.2256 53.8152 33.4313 53.6672 33.4109C53.6587 33.3848 53.6548 33.3574 53.6558 33.3299C53.6558 33.2877 53.6616 33.2342 53.6802 33.1748L53.6832 33.1662L55.7041 24.638C55.8139 24.1903 55.8678 23.7836 55.8678 23.4212C55.8678 22.7911 55.7036 22.2917 55.3733 21.9297C54.9429 21.4586 54.2328 21.2629 53.4258 21.3942ZM57.9844 37.6458C52.3711 38.2527 43.2716 40.3357 33.0167 43.3598C23.0108 46.3103 13.1887 49.7634 6.07051 52.8319L5.80352 52.9487L5.90727 53.3109L6.16976 53.317C9.01209 53.2991 14.3565 53.6359 18.2233 56.0802L18.3618 56.168L18.4956 56.0757C35.7881 44.2869 53.1317 40.2534 58.0358 39.2983L58.2352 39.2593L58.2671 37.615L57.9844 37.6458Z" fill="white"/>
<path d="M62.868 19.705C59.5133 20.4154 57.7054 22.7519 57.7773 26.2849C57.8195 28.3643 59.1639 30.166 60.4635 31.9081C61.695 33.5581 62.8574 35.1179 62.8979 36.8119C62.9509 38.9845 62.2725 40.2705 60.8812 40.6338C60.3502 40.7715 59.6722 40.6338 59.1531 40.2795C58.7779 40.0241 58.5304 39.6769 58.4238 39.2893C59.5972 38.9235 61.1623 37.8972 61.1623 36.3549C61.1623 36.2771 61.1585 36.1997 61.1507 36.1204C61.0878 35.4946 60.8448 35.0215 60.4308 34.7144C59.9107 34.3306 59.2211 34.3 58.7491 34.3998C56.9195 34.7849 55.8015 36.554 56.1491 38.5145C56.7251 41.7667 59.7755 42.7608 62.3661 42.3092C64.291 41.9733 65.892 41.0042 66.8751 39.5796C67.8471 38.1718 68.1732 36.4009 67.8173 34.4545C67.4416 32.3941 66.3186 30.7208 65.2318 29.1007C64.0134 27.2862 62.8613 25.5727 62.7732 23.4185C62.7425 22.6793 62.9486 21.9992 63.3097 21.644C63.4994 21.4578 63.7211 21.3725 63.9674 21.3893C64.3276 21.4151 64.6255 21.6045 64.8535 21.9545C65.343 22.7086 65.4236 24.1064 65.0392 25.2076L65.0104 25.2915L65.2386 25.944L69.3141 24.0186L69.2941 23.8386C69.1455 22.4816 68.4772 21.3069 67.4126 20.5288C66.1915 19.6354 64.5779 19.3426 62.868 19.705Z" fill="white"/>
<path d="M26.2005 25.0355C26.1196 26.2514 24.9185 27.4417 23.5169 27.69C22.1141 27.9418 21.0426 27.1582 21.1228 25.9425C21.2022 24.7246 22.4043 23.5359 23.8066 23.2864C25.2084 23.0348 26.2797 23.8185 26.2005 25.0355ZM16.396 40.9442L17.0167 40.7963L15.7648 44.2891C15.7648 44.2891 7.19496 46.5975 1.39062 49.0303L2.11951 46.5975C2.91216 46.3444 3.7495 45.8228 3.98707 44.9986L7.61644 28.6354L6.62326 28.9066L6.9264 27.7127L13.046 25.5338L9.13483 42.7632C8.90579 43.6681 9.29897 44.0199 10.2448 43.7913L14.0369 42.7362C15.2881 42.3275 16.396 40.9442 16.396 40.9442ZM24.2482 40.5992C23.9271 40.9095 23.5838 41.11 23.2216 41.1592C22.5884 41.2494 22.5051 40.4293 22.7325 39.4491L25.3373 28.6692L19.8929 30.6286L19.6116 31.7442L20.5109 31.5052L18.538 39.127C18.0087 41.3202 18.7248 43.4592 21.6769 43.0503C23.0229 42.8636 24.1977 42.1762 25.2037 41.1789L24.2482 40.5992ZM40.1485 29.3324C40.9409 26.0371 38.9781 24.9659 35.7154 25.3723C31.9536 25.842 28.8768 28.0439 28.0166 31.4637L26.7387 36.6893C25.8477 39.9628 27.8408 41.0789 31.0996 40.6498C34.8363 40.1565 37.9205 38.1787 38.7013 35.1164L40.1485 29.3324ZM31.9621 38.8541C31.4185 38.892 30.7893 38.5119 30.8957 37.9825L33.335 28.1418C33.4769 27.5599 34.3897 27.1468 34.9524 27.0827C35.4435 27.0262 36.502 27.0924 36.3745 27.6356L33.9602 37.4951C33.7576 38.286 32.883 38.7877 31.9621 38.8541ZM43.8656 24.5619L43.6162 25.6098L44.5161 25.3363L41.4948 37.8351L45.8917 36.7489L48.3321 26.546C48.5852 25.4438 49.2498 24.8516 50.1024 24.5569C50.7651 24.3295 51.3296 24.5989 51.1854 25.1716L49.5406 32.1622C49.1663 33.6827 48.1646 36.7115 51.1286 36.3012C53.3409 35.9953 54.8117 34.6287 55.695 33.5471L54.7041 32.913C54.3421 33.428 53.869 33.7415 53.5733 33.6492C53.3979 33.5929 53.3694 33.3298 53.441 33.0992L55.459 24.5785C56.0913 21.9924 54.6832 21.4445 53.4641 21.6443C51.952 21.8902 49.9679 22.8591 49.0354 23.7395L49.3462 22.503L43.8656 24.5619Z" fill="#0066B3"/>
<path d="M62.3514 22.9995C62.3002 21.7523 62.8708 20.6435 63.813 20.7093C65.3123 20.8147 65.6742 23.2264 65.1041 24.8634L65.2099 25.1687L68.8736 23.4395C68.566 20.6446 65.9834 18.8392 62.7461 19.524C59.2598 20.2618 57.7922 22.7467 57.8548 25.851C57.9354 29.7663 62.888 32.752 62.9763 36.3766C63.0423 39.0822 61.9728 40.1364 60.7715 40.4507C59.6938 40.7315 58.1245 40.0205 57.9507 38.683C59.2003 38.3773 60.8889 37.2997 60.7288 35.7175C60.5718 34.1514 59.2207 34.0936 58.6281 34.2183C57.1239 34.5347 56.0391 35.9518 56.1763 37.6764C43.6625 39.4319 19.9736 46.6121 6 52.637C9.92307 52.6125 14.7239 53.2483 18.1871 55.4381C32.0727 45.9725 46.8958 40.9499 56.4556 38.9037C57.3208 41.2332 59.7864 42.0445 62.1518 41.6324C65.7025 41.0127 68.1483 38.1822 67.399 34.0734C66.6211 29.8022 62.5254 27.203 62.3514 22.9995ZM23.552 18.6782C22.6619 19.3731 22.0904 18.9737 21.6689 18.3432L22.3877 17.7821C22.6417 18.1137 22.8694 18.382 23.2648 18.0735C23.5073 17.8839 23.5051 17.6322 23.3248 17.3967C22.8465 16.7714 21.3696 17.8619 20.579 16.8281C20.1631 16.2845 20.0892 15.651 20.9652 14.9674C21.6656 14.4215 22.2557 14.4678 22.7638 15.231L22.0635 15.7773C21.8647 15.5174 21.62 15.2863 21.3292 15.5131C21.0961 15.6948 21.0575 15.9327 21.2409 16.1731C21.7453 16.832 23.1485 15.6453 23.9834 16.737C24.6711 17.6367 24.0997 18.2514 23.552 18.6782ZM25.2294 13.3544L25.2186 13.3594L25.6816 15.2443L26.4574 14.8551L25.2294 13.3544ZM25.2215 17.3137L24.3667 12.8434L25.4393 12.3058L28.4276 15.7054L27.5707 16.1352L26.9274 15.3727L25.8172 15.9293L26.0249 16.9109L25.2215 17.3137ZM29.0988 15.4208L28.1447 11.1398L29.5714 10.8164L30.8833 13.5764L30.8947 13.5737L30.9511 10.5025L32.3305 10.1891L33.2843 14.47L32.4214 14.666L31.6856 11.3632L31.6737 11.366L31.5933 14.854L30.7483 15.0459L29.2375 11.9198L29.2259 11.9221L29.9617 15.2246L29.0988 15.4208ZM35.5217 14.5324C34.3963 14.5254 34.1902 13.8554 34.2425 13.0958L35.1512 13.1022C35.1488 13.5213 35.1649 13.8735 35.6639 13.8774C35.9708 13.879 36.1222 13.6796 36.1244 13.3814C36.1289 12.5918 34.3004 12.5311 34.3085 11.2247C34.3125 10.5379 34.6411 9.9931 35.7479 10.0001C36.6324 10.0056 37.0691 10.41 37.0035 11.3269L36.1193 11.3208C36.1213 10.9931 36.069 10.6581 35.702 10.6563C35.4068 10.6545 35.2316 10.8171 35.2298 11.121C35.2244 11.9536 37.0543 11.8924 37.0457 13.2718C37.0388 14.4086 36.2136 14.5369 35.5217 14.5324ZM41.7435 10.8645L41.1224 13.9121C40.991 14.5549 40.4932 15.1588 39.4091 14.9334C38.4305 14.7297 38.0636 14.1196 38.2287 13.3104L38.8498 10.2628L39.7394 10.4478L39.1307 13.4356C39.0222 13.9656 39.2039 14.2205 39.5281 14.2879C39.917 14.3687 40.1472 14.1437 40.2444 13.6674L40.8534 10.6794L41.7435 10.8645ZM41.8814 15.4748L43.6416 11.4635L44.7637 11.9656L44.6011 15.216L44.6121 15.2212L45.8312 12.4435L46.6065 12.7908L44.8465 16.8021L43.7516 16.3119L43.9555 12.8935L43.9443 12.8885L42.6572 15.822L41.8814 15.4748ZM49.1399 16.0804C49.3817 15.7549 49.5376 15.4256 49.1482 15.1393C48.6908 14.8034 48.2412 15.4276 47.7452 16.1153C46.9452 17.2255 46.9103 17.5011 47.3294 17.8086C47.4508 17.898 47.6033 17.9649 47.7434 18.0082L48.31 17.2219L47.9109 16.9286L48.3039 16.3829L49.4374 17.2164L48.142 19.015C47.9138 18.9073 47.3563 18.6176 47.0642 18.4033C45.8285 17.4947 46.0589 16.8749 47.0296 15.5292C47.674 14.6345 48.3726 13.7576 49.5742 14.641C50.2943 15.1704 50.4479 15.9078 49.8692 16.6172L49.1399 16.0804ZM28.7155 54.2918L29.1477 54.4306C29.2892 54.4762 29.5158 54.4445 29.611 54.1417C29.6833 53.9126 29.582 53.6942 29.364 53.6243L28.9658 53.4966L28.7155 54.2918ZM28.2855 55.6579L28.645 55.7733C28.7819 55.8173 29.0916 55.9121 29.2288 55.4755C29.3159 55.1988 29.2663 54.997 28.9411 54.8926L28.5644 54.7715L28.2855 55.6579ZM27.4879 55.93L28.4707 52.8092L29.6177 53.1775C30.1097 53.3354 30.4714 53.6089 30.2619 54.2746C30.149 54.6336 29.8919 54.8361 29.5191 54.7928L29.5164 54.8014C29.9541 55.0135 29.9799 55.3501 29.8452 55.7783C29.5962 56.5692 28.9048 56.385 28.6308 56.297L27.4879 55.93ZM31.7958 54.3676L31.7871 54.3658L31.2313 55.7023L31.8677 55.8191L31.7958 54.3676ZM30.0414 56.7332L31.5055 53.6735L32.3846 53.835L32.6704 57.2163L31.9678 57.087L31.92 56.3406L31.0097 56.1732L30.7 56.854L30.0414 56.7332ZM34.0456 57.3587C33.2073 57.3099 33.0789 56.8026 33.1469 56.2385L33.8239 56.278C33.8062 56.5905 33.8046 56.8538 34.1767 56.8758C34.4055 56.889 34.5261 56.7459 34.5389 56.524C34.5723 55.9355 33.2116 55.8196 33.2673 54.8461C33.296 54.3342 33.5617 53.9409 34.3866 53.989C35.0457 54.0274 35.356 54.3453 35.272 55.0264L34.613 54.9881C34.6269 54.7436 34.6009 54.4925 34.3274 54.4764C34.1078 54.4635 33.9706 54.5783 33.9578 54.8046C33.9223 55.4249 35.2884 55.4501 35.2296 56.4782C35.1813 57.3249 34.5613 57.3886 34.0456 57.3587ZM35.8455 57.3605L35.674 54.0902L37.4409 53.9956L37.4677 54.4987L36.3777 54.5567L36.4199 55.3632L37.4243 55.3095L37.4508 55.8121L36.4462 55.8659L36.4963 56.8216L37.6219 56.7615L37.6482 57.2643L35.8455 57.3605ZM38.8596 56.5907L39.2317 56.5274C39.3734 56.5034 39.6916 56.4447 39.6161 55.9929C39.5683 55.7066 39.4331 55.5504 39.0965 55.6075L38.7067 55.674L38.8596 56.5907ZM38.6239 55.1773L39.0712 55.1013C39.2176 55.0763 39.4048 54.943 39.3525 54.6302C39.313 54.3932 39.1246 54.2458 38.8987 54.2843L38.4867 54.3542L38.6239 55.1773ZM38.2736 57.2008L37.7351 53.9713L38.9218 53.7695C39.4313 53.6831 39.8766 53.759 39.9916 54.4481C40.0533 54.8191 39.9166 55.1185 39.5654 55.2517L39.567 55.2607C40.052 55.2473 40.2276 55.5347 40.3012 55.9779C40.438 56.7964 39.7396 56.952 39.456 56.9999L38.2736 57.2008ZM41.3995 53.8239L41.391 53.8264L41.4996 55.2716L42.1187 55.0829L41.3995 53.8239ZM40.9057 56.737L40.8278 53.3397L41.6835 53.0786L43.4638 55.9566L42.7802 56.1652L42.4003 55.5231L41.5147 55.7933L41.5464 56.5417L40.9057 56.737ZM43.9254 55.7497L42.6493 52.7391L43.2727 52.4696L44.3368 54.9799L45.2703 54.5765L45.482 55.0768L43.9254 55.7497ZM45.9077 54.8534L44.3548 51.9786L44.95 51.6507L46.245 54.0478L47.136 53.557L47.3942 54.0344L45.9077 54.8534ZM47.7697 51.8394C47.2458 51.1528 46.7473 50.4989 47.6329 49.8094C48.1811 49.3833 48.6344 49.5171 49.0379 50.0907L48.5114 50.5003C48.2482 50.1553 48.089 50.0732 47.9291 50.1977C47.6267 50.4329 47.807 50.7509 48.3138 51.4155C48.821 52.0805 49.0795 52.3374 49.3819 52.1022C49.631 51.9083 49.3734 51.5933 49.2243 51.383L49.7545 50.9702C50.2835 51.6636 50.1795 52.0997 49.6781 52.4903C48.7921 53.1798 48.2879 52.5184 47.7697 51.8394ZM50.8711 51.4257L48.6342 49.0544L49.1253 48.5822L50.9904 50.5593L51.7253 49.8519L52.097 50.2463L50.8711 51.4257ZM51.3595 46.0943L53.1191 47.5892C53.4903 47.9049 53.7058 48.4495 53.1737 49.0882C52.6938 49.6643 52.167 49.6908 51.6995 49.2937L49.9402 47.7986L50.3767 47.2746L52.1017 48.7405C52.4077 49.0002 52.6377 48.9707 52.7969 48.7795C52.9877 48.5509 52.9233 48.3177 52.6482 48.0843L50.923 46.6183L51.3595 46.0943Z" fill="#0066B3"/>
<path d="M54.3996 47.1798L54.6041 46.8598C54.6821 46.738 54.8541 46.4611 54.4728 46.2123C54.2312 46.0549 54.0257 46.0503 53.8405 46.3402L53.626 46.6752L54.3996 47.1798ZM53.2075 46.4021L53.4536 46.0175C53.5339 45.8913 53.5629 45.6623 53.2988 45.4899C53.0988 45.3595 52.8639 45.4003 52.7397 45.5949L52.5132 45.9492L53.2075 46.4021ZM54.4506 48.0283L51.7266 46.2511L52.3793 45.2302C52.6598 44.7922 53.0155 44.511 53.5966 44.8905C53.9096 45.0948 54.0363 45.3985 53.8968 45.7503L53.9042 45.7553C54.2215 45.3844 54.55 45.4477 54.9237 45.6911C55.6139 46.1415 55.2569 46.7673 55.1008 47.0111L54.4506 48.0283Z" fill="#0066B3"/>
</g>
<defs>
<clipPath id="clip0_2788_6129">
<rect width="70" height="53.2" fill="white" transform="translate(0 7.7002)"/>
</clipPath>
</defs>
</svg>
