<svg width="70" height="70" viewBox="0 0 70 70" fill="none" xmlns="http://www.w3.org/2000/svg">
<g clip-path="url(#clip0_2788_6589)">
<path d="M35.1638 9C20.9519 9 9.42969 20.6402 9.42969 35.0001C9.42969 49.3585 20.9519 60.9994 35.1638 60.9994C49.3764 60.9994 60.8986 49.3592 60.8986 35.0001C60.8986 20.6402 49.3764 9 35.1638 9Z" fill="#570514"/>
<path d="M35.1676 60.0475C21.4751 60.0475 10.375 48.8345 10.375 34.9993C10.375 21.1664 21.4751 9.95117 35.1676 9.95117C48.8616 9.95117 59.9617 21.1664 59.9617 34.9993C59.9617 48.8353 48.8616 60.0475 35.1676 60.0475Z" fill="#7D0521"/>
<path d="M18.6395 23.6067L16.1377 21.6915L16.583 21.0987L17.5836 21.8646L17.5888 21.8571L16.916 20.6541L17.371 20.0477L18.07 21.4321L19.8976 21.9281L19.4276 22.5557L18.3117 22.2154L18.4659 22.5406L19.0826 23.0131L18.6395 23.6067ZM20.6826 21.0858L18.4487 18.8599L18.9651 18.3291L21.199 20.5558L20.6826 21.0858ZM23.2062 17.644L23.2137 17.6395L22.0836 15.716L22.6442 15.2963L24.0983 18.1544L23.4345 18.6534L21.9332 16.9998L21.9272 17.0051L23.052 18.9408L22.3964 19.4337L20.1011 17.2085L20.6714 16.7798L22.166 18.4327V18.4198L21.0927 16.4623L21.6645 16.0313L23.2062 17.644ZM25.5831 14.7527C25.5616 14.7085 25.5381 14.6654 25.5127 14.6234C25.4897 14.582 25.4599 14.5449 25.4244 14.5138C25.3929 14.484 25.3533 14.4645 25.3107 14.4578C25.2604 14.4505 25.2091 14.4601 25.1647 14.4851C25.1213 14.5033 25.0848 14.5351 25.0605 14.5757C25.0361 14.6164 25.0252 14.6638 25.0293 14.7111C25.0308 14.7587 25.0402 14.8057 25.057 14.8502C25.0749 14.8956 25.0929 14.9432 25.1146 14.9863L25.6849 16.1538C25.7036 16.1931 25.7283 16.2362 25.7575 16.2823C25.7851 16.3277 25.8173 16.3662 25.8533 16.3987C25.8877 16.4307 25.9302 16.4527 25.976 16.4623C26.026 16.4723 26.0779 16.4643 26.1227 16.4396C26.1691 16.4189 26.2068 16.3822 26.2289 16.336C26.247 16.2939 26.2539 16.2478 26.2492 16.2022C26.244 16.1516 26.2319 16.1019 26.2132 16.0547C26.1946 16.0088 26.1746 15.9634 26.1534 15.9186L25.5831 14.7527ZM26.7858 15.533C26.8643 15.6918 26.9175 15.8415 26.9474 15.9776C26.9773 16.1152 26.9766 16.2422 26.9474 16.3579C26.9135 16.4788 26.8496 16.5889 26.7618 16.6778C26.6705 16.7768 26.5403 16.8675 26.3726 16.9507C26.205 17.0339 26.0546 17.083 25.9206 17.0981C25.7859 17.1133 25.6639 17.0981 25.5539 17.0543C25.4358 17.0039 25.3315 16.9252 25.2501 16.8252C25.1496 16.7031 25.0644 16.569 24.9963 16.426L24.4321 15.2706C24.2974 14.9939 24.2727 14.7452 24.3557 14.5221C24.4403 14.3006 24.6281 14.1168 24.917 13.9724C25.2067 13.8272 25.4633 13.791 25.6864 13.859C25.9094 13.9301 26.0868 14.1025 26.2207 14.3777L26.7858 15.533ZM28.8708 13.4764C28.8558 13.431 28.8408 13.3834 28.8214 13.3365C28.8049 13.2928 28.7817 13.2519 28.7525 13.2156C28.7248 13.1815 28.6886 13.1554 28.6477 13.1399C28.5986 13.1248 28.5459 13.127 28.4981 13.146C28.4502 13.1585 28.4075 13.186 28.3761 13.2246C28.3516 13.2606 28.3361 13.3022 28.3312 13.3456C28.3252 13.3929 28.3267 13.4409 28.3357 13.4878C28.3454 13.5384 28.3581 13.586 28.3708 13.6314L28.7503 14.8752C28.7638 14.9191 28.7817 14.9652 28.8026 15.0151C28.8216 15.0614 28.8471 15.1047 28.8782 15.1436C28.9089 15.1829 28.9463 15.2109 28.9897 15.2283C29.0376 15.246 29.0901 15.246 29.1379 15.2283C29.1873 15.2161 29.2306 15.1863 29.2599 15.1444C29.2842 15.1054 29.2983 15.061 29.3011 15.0151C29.3031 14.964 29.2985 14.913 29.2876 14.8631C29.2773 14.8147 29.2648 14.7667 29.2502 14.7194L28.8708 13.4764ZM29.935 14.4412C29.9873 14.6098 30.0173 14.7663 30.0248 14.9054C30.0322 15.0476 30.0113 15.1716 29.9641 15.2805C29.9123 15.3947 29.8325 15.4936 29.7322 15.5678C29.6022 15.6606 29.4574 15.7301 29.3041 15.7734C29.153 15.8251 28.9943 15.8499 28.8348 15.8468C28.7097 15.8422 28.5876 15.8067 28.4793 15.7432C28.3706 15.6746 28.2802 15.5801 28.2159 15.468C28.1358 15.3321 28.0729 15.1865 28.0288 15.0347L27.6531 13.8023C27.5633 13.5082 27.5783 13.2594 27.695 13.0537C27.814 12.8466 28.0273 12.6946 28.3357 12.5986C28.6447 12.5026 28.9044 12.5071 29.1125 12.6114C29.322 12.7165 29.4702 12.9154 29.56 13.2088L29.935 14.4412ZM31.4025 15.1172L31.0374 11.9687L32.0679 11.8463L32.6621 13.6624L32.6696 13.6601L32.8454 11.7548L33.8677 11.6338L34.233 14.7814L33.5347 14.8646L33.3229 12.3869L33.3154 12.3884L33.0857 14.9183L32.5416 14.9826L31.7521 12.5736H31.7446L32.0963 15.0347L31.4025 15.1172ZM37.3762 14.91L37.8731 11.7797L38.6006 11.8977L38.4097 13.0991L38.9141 13.1815L39.1042 11.9793L39.8316 12.0965L39.3347 15.2268L38.6073 15.1088L38.8139 13.8061L38.3102 13.7252L38.1029 15.0272L37.3762 14.91ZM40.5157 15.5232L41.4811 12.5094L43.0857 13.0333L42.8911 13.6367L41.9878 13.3403L41.8104 13.896L42.686 14.1826L42.4922 14.7845L41.6166 14.4979L41.4085 15.1497L42.359 15.4612L42.1674 16.0646L40.5157 15.5232ZM44.7426 15.2245L44.9656 15.3379C45.0063 15.3612 45.0529 15.3717 45.0996 15.3682C45.1397 15.364 45.1781 15.3494 45.2111 15.3258C45.2475 15.3001 45.2789 15.2678 45.3039 15.2306C45.3309 15.1917 45.355 15.1507 45.3757 15.1081C45.4119 15.0431 45.4364 14.9722 45.4483 14.8986C45.4567 14.8472 45.4461 14.7944 45.4184 14.7504C45.3869 14.703 45.3442 14.6643 45.2941 14.6378C45.2272 14.5991 45.1588 14.563 45.0891 14.5297L44.7426 15.2245ZM43.9291 16.8509L43.272 16.5152L44.6864 13.6859L45.6451 14.1743C45.9175 14.3127 46.0897 14.4752 46.163 14.6627C46.2371 14.8518 46.2027 15.0862 46.0627 15.3674C45.9864 15.5186 45.8981 15.6358 45.7978 15.719C45.6953 15.8037 45.5613 15.8415 45.3922 15.8347L45.3892 15.843C45.467 15.9043 45.5249 15.9878 45.5553 16.0827C45.5825 16.1796 45.5742 16.2832 45.5321 16.3746L45.4386 16.5923L45.3233 16.8509L45.2141 17.1027C45.1862 17.1665 45.1627 17.2322 45.1437 17.2993C45.1399 17.3435 45.1453 17.388 45.1594 17.4301L45.14 17.4679L44.4215 17.1019C44.4275 17.0694 44.4312 17.0384 44.4387 17.0082C44.446 16.9782 44.4555 16.9489 44.4672 16.9205C44.524 16.7919 44.5832 16.6725 44.6408 16.5621C44.6984 16.4517 44.7456 16.3504 44.7793 16.2558C44.8104 16.1791 44.8257 16.0968 44.8242 16.0139C44.8189 15.9458 44.7793 15.8884 44.7044 15.8445L44.4874 15.7341L43.9291 16.8509ZM48.3783 16.9636C48.4059 16.9235 48.4329 16.8834 48.4583 16.8396C48.4832 16.7997 48.5017 16.756 48.513 16.7103C48.5228 16.6678 48.5215 16.6235 48.5092 16.5817C48.4916 16.5329 48.4588 16.4913 48.4157 16.463C48.3767 16.432 48.329 16.4143 48.2795 16.4124C48.2356 16.4142 48.1928 16.4263 48.1545 16.4479C48.1148 16.4729 48.0788 16.5035 48.0475 16.5386C48.013 16.5764 47.9823 16.6142 47.9547 16.6528L47.1995 17.7083C47.1741 17.7446 47.1472 17.787 47.1202 17.8338C47.0944 17.8776 47.0752 17.925 47.0633 17.9745C47.0521 18.0203 47.0529 18.0682 47.0656 18.1136C47.0805 18.1631 47.1123 18.2057 47.1554 18.2338C47.1945 18.2658 47.2436 18.2824 47.2938 18.2807C47.3394 18.2767 47.3832 18.2611 47.4211 18.2353C47.4633 18.2077 47.5012 18.1738 47.5333 18.1348C47.567 18.0932 47.5977 18.0554 47.6231 18.0176L48.3783 16.9636ZM48.2563 18.4024C48.153 18.5461 48.0482 18.664 47.9419 18.7555C47.8466 18.8401 47.7327 18.9005 47.6097 18.9317C47.4882 18.9588 47.3618 18.9536 47.243 18.9166C47.0914 18.8684 46.9494 18.7939 46.8231 18.6965C46.6917 18.6046 46.5764 18.4911 46.4818 18.3608C46.4097 18.2571 46.3646 18.1367 46.3509 18.0108C46.3381 17.8921 46.3584 17.7658 46.407 17.6342C46.4594 17.5019 46.5372 17.3643 46.639 17.2206L47.3874 16.1757C47.5655 15.9262 47.7706 15.7878 48.0048 15.7598C48.2398 15.7311 48.4875 15.8128 48.7495 16.0041C49.0121 16.1954 49.1641 16.4071 49.2075 16.6377C49.2509 16.8683 49.1828 17.1095 49.0039 17.3582L48.2563 18.4024ZM48.5878 20.0212L50.7911 17.7635L51.9915 18.9597L51.5514 19.4111L50.8749 18.7366L50.4693 19.1525L51.1256 19.805L50.684 20.2571L50.0292 19.6039L49.5525 20.0916L50.2642 20.8008L49.8249 21.2529L48.5878 20.0212ZM51.7961 21.9886L51.6195 22.1232C51.5852 22.1491 51.5538 22.1788 51.526 22.2117C51.4989 22.2409 51.4785 22.2757 51.4661 22.3137C51.4536 22.3521 51.4518 22.3931 51.4609 22.4324C51.4718 22.4815 51.4938 22.5273 51.5252 22.5663C51.5776 22.6343 51.6397 22.6661 51.7153 22.6585C51.7901 22.651 51.8598 22.623 51.9234 22.5731C51.9724 22.539 52.0119 22.4926 52.0379 22.4385C52.061 22.3905 52.0757 22.3388 52.0813 22.2858C52.0868 22.2309 52.0855 22.1755 52.0775 22.1209C52.0716 22.0641 52.0666 22.0071 52.0626 21.9501C52.0457 21.8281 52.0342 21.7055 52.0281 21.5826C52.0226 21.472 52.0316 21.3611 52.0551 21.2529C52.0798 21.1486 52.1202 21.0518 52.1756 20.9611C52.2325 20.8703 52.3155 20.7834 52.4285 20.6987C52.6643 20.5195 52.8903 20.4492 53.1096 20.4923C53.3273 20.5339 53.5234 20.6715 53.6955 20.9028C53.7913 21.0314 53.8557 21.1599 53.8886 21.2885C53.9216 21.417 53.9245 21.5395 53.8991 21.6574C53.8744 21.7761 53.8243 21.8873 53.7464 21.9931C53.662 22.1033 53.5597 22.1984 53.4441 22.2744L53.0377 21.727L53.147 21.6325C53.1854 21.6018 53.2191 21.5656 53.2473 21.5251C53.2736 21.4887 53.2899 21.4459 53.2944 21.4011C53.2961 21.3499 53.2814 21.2996 53.2525 21.2575C53.2113 21.1924 53.1627 21.1539 53.1066 21.1425C53.0458 21.1313 52.9832 21.144 52.9314 21.1781C52.8491 21.2257 52.7982 21.2854 52.7803 21.3542C52.7612 21.4311 52.7537 21.5103 52.7578 21.5894C52.7698 21.7572 52.7878 21.907 52.8057 22.0385C52.8252 22.1708 52.8282 22.2956 52.8162 22.4135C52.8031 22.5336 52.7651 22.6495 52.7047 22.7538C52.6426 22.8596 52.5348 22.9715 52.3821 23.0887C52.1389 23.2732 51.9046 23.3496 51.6794 23.3171C51.4541 23.2831 51.2483 23.1424 51.065 22.8937C50.9739 22.7776 50.903 22.6467 50.8554 22.5065C50.8177 22.3943 50.8042 22.2752 50.8157 22.1572C50.8266 22.0539 50.8603 21.9544 50.9146 21.8661C50.9692 21.7792 51.0373 21.7043 51.1196 21.6416L51.3868 21.4374L51.7961 21.9886ZM16.7903 45.7915C16.9676 45.6917 17.1315 45.5775 17.0163 45.3756C16.9467 45.2509 16.8516 45.2002 16.7192 45.2751C16.5695 45.3613 16.565 45.4898 16.5583 45.6478C16.5508 45.8142 16.5313 46.1234 16.4887 46.2829C16.4378 46.4803 16.3412 46.5892 16.1721 46.6867C15.8002 46.9007 15.4671 46.7623 15.2628 46.3994C15.0129 45.9556 15.17 45.6554 15.5203 45.4543L15.6639 45.3711L15.872 45.7416L15.7567 45.8074C15.5622 45.9094 15.4559 46.047 15.5584 46.2308C15.6467 46.3858 15.7695 46.4122 15.9177 46.3291C16.0344 46.261 16.0823 46.1635 16.0943 46.0304C16.1339 45.7506 16.1063 45.449 16.2178 45.1866C16.2712 45.0737 16.3573 44.9798 16.4647 44.9174C16.8007 44.7261 17.0904 44.8101 17.3104 45.2017C17.6427 45.7915 17.1839 46.0349 16.9916 46.1484L16.7903 45.7915ZM16.0381 47.5948L17.8979 46.3018L18.5699 47.287L18.2983 47.4783L17.8642 46.8417L17.3957 47.1668L17.7946 47.7536L17.5222 47.9433L17.1233 47.3559L16.55 47.7558L16.9841 48.391L16.7117 48.58L16.0381 47.5948ZM18.0027 48.98C17.8582 49.1017 17.6344 49.3096 17.8185 49.5334C18.0109 49.7678 18.2519 49.5712 18.4188 49.4314L18.8641 49.0571C19.0025 48.9414 19.3168 48.6904 19.117 48.4469C18.9052 48.1898 18.6193 48.4651 18.4846 48.577L18.0027 48.98ZM18.1359 48.301C18.5901 47.9433 18.9486 47.7029 19.3782 48.2269C19.81 48.7509 19.5084 49.0624 19.0773 49.448L18.8304 49.6552C18.3664 50.043 17.9989 50.2918 17.5581 49.7534C17.1151 49.2159 17.4242 48.896 17.8874 48.5082L18.1359 48.301ZM20.9027 49.9659L21.2028 50.2668L20.0952 51.3965C19.7434 51.7556 19.4605 51.8108 19.0684 51.4184C18.6717 51.0237 18.7241 50.7387 19.0759 50.3787L20.1835 49.2476L20.4843 49.547L19.4014 50.6509C19.2487 50.8075 19.1065 50.9723 19.3109 51.1772C19.5047 51.3723 19.6686 51.2263 19.8212 51.0713L20.9027 49.9659ZM20.2059 52.4202L21.6458 50.663L21.9691 50.9352L20.7418 52.4338L21.3442 52.9382L21.1347 53.1952L20.2059 52.4202ZM22.5798 54.2485L23.766 52.3083L24.1237 52.5314L23.6545 53.3003L24.1567 53.6126L24.6259 52.8444L24.9851 53.0675L23.7989 55.0099L23.4397 54.7846L23.9823 53.8984L23.4809 53.5854L22.9375 54.4723L22.5798 54.2485ZM24.4822 55.3849L25.491 53.3449L26.5523 53.8803L26.4048 54.1804L25.7215 53.8341L25.4656 54.3483L26.0965 54.6674L25.9483 54.9668L25.3181 54.6485L25.0076 55.2775L25.6916 55.6223L25.5427 55.9217L24.4822 55.3849ZM27.0544 55.143L27.3642 55.2654C27.496 55.3078 27.6299 55.2617 27.7115 55.0492C27.8036 54.811 27.7212 54.7324 27.5738 54.6719L27.2819 54.5577L27.0544 55.143ZM26.9347 55.4545L26.5814 56.3709L26.1885 56.2144L27.0095 54.0905L27.7527 54.3853C28.0924 54.5169 28.305 54.7377 28.1531 55.1293C28.0633 55.3607 27.9098 55.5815 27.6322 55.515L27.6299 55.5202C27.85 55.6435 27.8634 55.8212 27.7833 56.0246C27.7497 56.113 27.5371 56.6295 27.6082 56.73L27.5933 56.7686L27.1607 56.5984C27.1659 56.4434 27.2752 56.1864 27.3268 56.0442C27.3755 55.9119 27.4466 55.735 27.3268 55.6412C27.2318 55.5694 27.1165 55.5263 27.0043 55.4824L26.9347 55.4545ZM28.8977 56.3603C28.8461 56.5417 28.778 56.8419 29.0564 56.9198C29.3475 57.0022 29.4328 56.702 29.4919 56.4911L29.6491 55.9285C29.6977 55.7539 29.8145 55.366 29.5136 55.2821C29.1948 55.1898 29.114 55.5807 29.0668 55.7509L28.8977 56.3603ZM28.6245 55.7236C28.7974 55.1679 28.9568 54.7649 29.6064 54.9517C30.2545 55.1346 30.1827 55.5633 30.0435 56.1266L29.9567 56.4397C29.7943 57.0249 29.6311 57.4407 28.9651 57.251C28.2975 57.0619 28.3738 56.6219 28.537 56.0359L28.6245 55.7236ZM30.4304 57.5655L30.8405 55.3222L32.008 55.5399L31.9474 55.8681L31.1953 55.7274L31.0912 56.2937L31.7842 56.4238L31.7244 56.7519L31.0329 56.6234L30.9056 57.3137L31.6578 57.4544L31.5979 57.7825L30.4304 57.5655ZM33.3094 56.3875C33.3319 56.1864 33.3334 55.9837 33.1021 55.9611C32.9622 55.949 32.8664 55.9966 32.8514 56.1501C32.835 56.3225 32.936 56.4011 33.0602 56.4979C33.1897 56.5984 33.427 56.7935 33.5332 56.9198C33.6634 57.0763 33.6964 57.2154 33.6769 57.4143C33.6357 57.8438 33.3326 58.0396 32.9225 58.0003C32.4189 57.9504 32.2662 57.6487 32.3051 57.2426L32.3216 57.0763L32.7407 57.1164L32.7279 57.251C32.698 57.4702 32.7489 57.6388 32.9547 57.6577C33.1313 57.6751 33.2249 57.5897 33.2413 57.4165C33.2541 57.2842 33.2024 57.1867 33.1021 57.1013C32.9001 56.9062 32.6396 56.7565 32.49 56.5123C32.4309 56.4027 32.4049 56.2781 32.4151 56.1539C32.4525 55.7652 32.689 55.5754 33.1321 55.6185C33.8004 55.6851 33.7323 56.2038 33.7136 56.4268L33.3094 56.3875ZM35.9371 57.7077C36.0254 57.7046 36.1151 57.7092 36.1892 57.6729C36.3015 57.6177 36.3105 57.468 36.3052 57.3508C36.2963 57.105 36.2454 57.003 35.9834 57.0143L35.8195 57.0211L35.8465 57.7114L35.9371 57.7077ZM35.8847 56.6831C35.9872 56.6801 36.1189 56.6801 36.1825 56.5924C36.2199 56.5334 36.2222 56.4525 36.2177 56.3429C36.2117 56.1728 36.1728 56.0903 35.9797 56.0926L35.7851 56.1002L35.8061 56.6862L35.8847 56.6831ZM35.4386 58.0615L35.3496 55.7819L36.0291 55.7546C36.211 55.7471 36.3883 55.7524 36.5155 55.9028C36.6158 56.0246 36.6353 56.1539 36.642 56.3089C36.6495 56.5055 36.6158 56.7028 36.3898 56.7965V56.8034C36.6285 56.8268 36.7273 57.0241 36.7386 57.319C36.7416 57.4143 36.7408 57.508 36.7191 57.5988C36.6405 57.8921 36.4819 58.0199 36.1818 58.0328L35.4386 58.0615ZM37.8357 56.9803L38.1942 56.9334L37.9996 56.3058C37.9652 56.203 37.942 56.1017 37.9165 55.9973C37.9066 55.9473 37.8949 55.8976 37.8814 55.8484L37.8761 55.8499C37.8761 55.8983 37.8761 55.9505 37.8806 56.0026C37.8814 56.1085 37.8859 56.2128 37.8784 56.3217L37.8357 56.9803ZM37.3276 57.9678L37.5723 55.6352L38.1358 55.5611L38.9343 57.7576L38.4853 57.815L38.3019 57.257L37.8125 57.3205L37.7766 57.9088L37.3276 57.9678ZM40.0382 55.9021C39.9978 55.7025 39.9357 55.5112 39.7097 55.5611C39.572 55.5921 39.4964 55.6684 39.5301 55.8197C39.5667 55.989 39.6872 56.0314 39.8346 56.0851C39.9881 56.1402 40.2762 56.2514 40.4154 56.3376C40.5868 56.4457 40.6609 56.5697 40.7028 56.7625C40.7956 57.1844 40.5681 57.4657 40.1654 57.5564C39.6708 57.6676 39.4335 57.4279 39.346 57.0302L39.31 56.8654L39.7216 56.7746L39.7501 56.9054C39.7898 57.1232 39.8885 57.2653 40.0914 57.2207C40.265 57.1814 40.3263 57.0718 40.2897 56.9009C40.262 56.7724 40.1826 56.6945 40.0607 56.6446C39.8077 56.5236 39.5143 56.4631 39.2966 56.2771C39.2071 56.1913 39.1444 56.0809 39.1162 55.9595C39.0339 55.58 39.1985 55.3244 39.6326 55.2261C40.2882 55.0787 40.3832 55.5936 40.4349 55.8121L40.0382 55.9021ZM41.5238 57.1549L40.8427 54.9796L41.9713 54.6182L42.0723 54.938L41.3434 55.1717L41.5148 55.7191L42.1868 55.5029L42.2871 55.8234L41.6151 56.0382L41.8246 56.7081L42.555 56.4744L42.6546 56.7935L41.5238 57.1549ZM43.6634 56.0435C43.7435 56.0087 43.8303 55.983 43.8864 55.9225C43.9725 55.831 43.9298 55.6858 43.8864 55.5807C43.7929 55.3524 43.7091 55.2768 43.4673 55.3773L43.3162 55.4401L43.5796 56.0775L43.6634 56.0435ZM43.263 55.1006C43.3573 55.062 43.4815 55.0174 43.51 54.9116C43.525 54.8435 43.501 54.7672 43.4591 54.6658C43.3947 54.5071 43.3289 54.4443 43.1485 54.5131L42.9682 54.5902L43.1904 55.1316L43.263 55.1006ZM43.3162 56.5508L42.451 54.4443L43.0797 54.1804C43.2465 54.1094 43.4157 54.0519 43.5856 54.1494C43.7203 54.2281 43.7846 54.3422 43.8445 54.4844C43.9193 54.6674 43.9545 54.8647 43.7757 55.0303L43.7779 55.0356C44.0107 54.9751 44.1686 55.1263 44.2823 55.3978C44.3183 55.4847 44.3482 55.5754 44.3601 55.6669C44.3871 55.9701 44.2831 56.1455 44.0047 56.2635L43.3162 56.5508ZM45.1901 54.6976L45.5097 54.5267L45.11 54.0088C45.0427 53.9241 44.9881 53.8349 44.9274 53.7479C44.9012 53.7041 44.8713 53.6602 44.8451 53.6209L44.8391 53.6232C44.8556 53.6686 44.8751 53.7177 44.8953 53.7646C44.9334 53.8644 44.9738 53.9612 45.0045 54.064L45.1901 54.6976ZM45.0539 55.8008L44.4806 53.5279L44.9843 53.2603L46.4863 55.0401L46.0867 55.2503L45.7222 54.7921L45.2852 55.0258L45.4521 55.5883L45.0539 55.8008ZM47.0139 54.715L45.7926 52.7968L46.1473 52.5654L47.1876 54.2046L47.8469 53.7774L48.0265 54.0587L47.0139 54.715ZM48.5803 53.6602L47.2093 51.8486L47.5438 51.5893L48.7135 53.1378L49.3362 52.6561L49.536 52.9215L48.5803 53.6602ZM51.2468 50.2079C51.2738 50.2411 51.3052 50.2744 51.3314 50.3062C51.609 50.6147 51.7355 50.9413 51.404 51.2755C50.9138 51.7722 50.571 51.491 50.146 51.0608L49.9169 50.8309C49.5225 50.4075 49.2516 50.0703 49.7269 49.5879C49.9985 49.3217 50.2836 49.3096 50.5778 49.5629C50.6233 49.5984 50.6661 49.6373 50.7057 49.6794L50.4116 49.9765C50.2971 49.8858 50.116 49.6816 49.9686 49.8313C49.7351 50.068 50.0337 50.3304 50.1557 50.4544L50.6002 50.9012C50.7312 51.0335 50.9587 51.2399 51.163 51.0328C51.3269 50.8664 51.0433 50.6215 50.9467 50.5111L51.2468 50.2079ZM52.2953 50.2442L50.5658 48.7773L50.8367 48.4499L52.3125 49.702L52.8154 49.0972L53.0699 49.3126L52.2953 50.2442ZM52.2145 46.6179L52.4562 46.2693L53.7479 47.1804C54.1573 47.4693 54.2598 47.7399 53.9448 48.1989C53.6267 48.6594 53.3386 48.6579 52.9284 48.3683L51.6352 47.4579L51.877 47.1086L53.1395 47.9978C53.3169 48.1225 53.504 48.236 53.6679 47.9985C53.825 47.7717 53.6551 47.6356 53.477 47.5078L52.2145 46.6179ZM54.6872 46.2867C54.7313 46.2096 54.7822 46.1355 54.7927 46.0523C54.8032 45.9261 54.6827 45.8384 54.5831 45.7824C54.3698 45.6607 54.2576 45.6539 54.1289 45.8822L54.0495 46.0259L54.6445 46.3661L54.6872 46.2867ZM53.7988 45.7915C53.8505 45.7023 53.9201 45.5896 53.8789 45.489C53.8482 45.4248 53.7831 45.3824 53.6896 45.328C53.5429 45.2441 53.4508 45.232 53.352 45.4013L53.2547 45.5722L53.7607 45.8618L53.7988 45.7915ZM54.7246 46.9014L52.7593 45.7794L53.0946 45.1805C53.1829 45.0218 53.2817 44.8705 53.474 44.8426C53.6297 44.8184 53.7494 44.8698 53.8819 44.9446C54.054 45.0429 54.2 45.1753 54.1596 45.4187L54.1655 45.4217C54.3107 45.2282 54.5285 45.2486 54.7822 45.3938C54.8645 45.4406 54.9431 45.4921 55.009 45.5586C55.2133 45.7794 55.2395 45.9835 55.0898 46.2482L54.7246 46.9014Z" fill="white"/>
<path d="M35.1661 53.7009C24.9432 53.7009 16.6562 45.3279 16.6562 34.9995C16.6562 24.6711 24.9432 16.2988 35.1661 16.2988C45.3891 16.2988 53.6775 24.6719 53.6775 34.9995C53.6775 45.3279 45.3899 53.7009 35.1661 53.7009Z" fill="#570514"/>
<path d="M41.8873 51.3829C32.9261 55.1317 22.6544 50.834 18.9424 41.7804C15.2319 32.7291 19.4865 22.3501 28.4462 18.6006C37.4059 14.8526 47.6798 19.1495 51.3888 28.2016C55.1008 37.2551 50.847 47.6334 41.8873 51.3829Z" fill="white"/>
<path d="M20.0716 27.4567C20.112 27.307 20.2303 27.1671 20.3336 27.1414C20.4069 27.1233 20.4533 27.1679 20.4615 27.2473C20.4631 27.2889 20.4591 27.3307 20.4495 27.3713C20.3298 27.7924 20.0858 29.1194 20.0858 29.1194C20.0858 29.1194 19.3868 29.8596 19.0561 30.1953C18.97 30.2815 18.8772 30.2543 18.8495 30.1356C18.8388 30.0681 18.843 29.9991 18.8618 29.9335C18.8806 29.8679 18.9134 29.8073 18.958 29.756C19.2192 29.4876 19.4849 29.2124 19.7588 28.9152C19.8336 28.4215 19.9384 27.9338 20.0716 27.4567ZM20.7377 27.7682C20.7639 27.6117 20.8866 27.4514 21.0078 27.4106C21.1051 27.3788 21.1725 27.4264 21.1875 27.5217C21.1912 27.5545 21.1902 27.5876 21.1845 27.62C21.1059 28.0684 21.0094 29.446 21.0094 29.446C21.0094 29.446 20.2565 30.3314 19.8943 30.7284C19.7985 30.8327 19.6802 30.8221 19.6323 30.7026C19.5837 30.5817 19.6203 30.4002 19.7161 30.2943C19.9968 29.9813 20.2849 29.6441 20.5805 29.294C20.5977 28.7821 20.6494 28.2756 20.7377 27.7682ZM21.6792 28.0071C21.6873 27.9237 21.7162 27.8437 21.7632 27.7745C21.8102 27.7054 21.8737 27.6494 21.9478 27.6117C22.0706 27.5618 22.1664 27.6087 22.1873 27.7206C22.192 27.7429 22.194 27.7658 22.1933 27.7886C22.1716 28.2347 22.2539 29.6275 22.2539 29.6275C22.2539 29.6275 21.4704 30.6391 21.0864 31.1147C20.9869 31.2402 20.8432 31.2508 20.7646 31.1389C20.6905 31.0278 20.7093 30.8357 20.8095 30.7094C21.1126 30.3276 21.4127 29.9481 21.7151 29.5481C21.6669 29.0359 21.6551 28.521 21.6799 28.0071M22.8422 28.0873C22.8294 27.93 22.9447 27.7372 23.1018 27.6586C23.247 27.586 23.3773 27.6336 23.4087 27.7644L23.4169 27.8022C23.4573 28.2529 23.7492 29.626 23.7492 29.626C23.7492 29.626 22.9574 30.773 22.557 31.3105C22.453 31.4542 22.2816 31.4845 22.1783 31.3816C22.0765 31.2795 22.0788 31.0792 22.1813 30.937C22.4882 30.5166 22.7965 30.0728 23.1026 29.6229C22.9754 29.1133 22.8871 28.6022 22.8414 28.0873M24.2791 28.2196C24.2581 28.1493 24.2389 28.0784 24.2214 28.0071C24.1803 27.8559 24.2858 27.6495 24.4579 27.5527C24.6301 27.4491 24.8052 27.4945 24.8456 27.6472C24.8643 27.7183 24.8838 27.7871 24.9047 27.8544C25.0117 28.2173 25.4959 29.4059 25.4959 29.4059C25.4959 29.4059 24.7221 30.6686 24.3262 31.2841C24.2214 31.4466 24.0268 31.5056 23.8884 31.4194C23.7544 31.3317 23.729 31.1298 23.8315 30.965C24.142 30.4793 24.4461 29.9896 24.7438 29.4959C24.5567 29.0725 24.4025 28.6438 24.2783 28.2196M26.614 29.1481C26.2997 28.6869 26.0273 28.2166 25.805 27.7372C25.7354 27.5898 25.8297 27.3788 26.0086 27.2609C26.1949 27.1452 26.3977 27.1648 26.4688 27.3108C26.6672 27.7259 27.456 28.9719 27.456 28.9719C27.456 28.9719 26.7502 30.3367 26.3648 31.0036C26.2616 31.182 26.043 31.2674 25.8769 31.1949C25.7122 31.1223 25.6598 30.9189 25.7616 30.7397C26.0587 30.2202 26.3424 29.6834 26.6148 29.1481M28.6721 28.5818C28.2743 28.1764 27.9042 27.7442 27.5645 27.2881C27.4665 27.1543 27.5346 26.9357 27.7202 26.8027C27.9073 26.6681 28.1407 26.6666 28.241 26.8012C28.5254 27.1777 29.5732 28.3141 29.5732 28.3141C29.5732 28.3141 28.9759 29.7379 28.6369 30.4562C28.5426 30.6505 28.3121 30.7646 28.1168 30.7132C27.9222 30.6626 27.8384 30.466 27.926 30.2747C28.1931 29.7023 28.4423 29.1413 28.6721 28.5818ZM30.2579 29.545C30.475 28.956 30.6695 28.3776 30.8372 27.806C30.3534 27.4507 29.8897 27.0682 29.4482 26.6605C29.3195 26.5388 29.3606 26.3218 29.5425 26.1743C29.7221 26.0261 29.9788 26.0035 30.1083 26.1244C30.4765 26.4571 31.7562 27.2783 31.7562 27.2783C31.7562 27.2783 31.3251 28.9145 31.0482 29.6554C30.9734 29.8566 30.7362 29.9927 30.5176 29.9639C30.3021 29.9337 30.1839 29.7462 30.2579 29.545ZM32.9731 28.984C32.7433 28.9719 32.5982 28.7988 32.6513 28.5954C32.7991 28.0239 32.9207 27.4459 33.0158 26.8632C32.4567 26.5597 31.9115 26.2307 31.382 25.8772C31.2271 25.7713 31.2368 25.5611 31.409 25.4084C31.5803 25.2542 31.843 25.2118 31.9987 25.3169C32.4432 25.6103 33.9086 26.3256 33.9086 26.3256C33.9086 26.3256 33.6848 27.8983 33.491 28.6385C33.4356 28.8411 33.2066 28.9938 32.9731 28.984ZM34.9908 27.4847C35.0561 26.9243 35.0945 26.3611 35.106 25.797C34.4928 25.5455 33.8868 25.2762 33.2889 24.9895C33.1108 24.9018 33.0846 24.7022 33.232 24.5442C33.378 24.3862 33.6444 24.3279 33.824 24.4134C34.3179 24.647 35.9262 25.2579 35.9262 25.2579C35.9262 25.2579 35.9188 26.7202 35.8417 27.4491C35.8192 27.6472 35.6112 27.8151 35.3777 27.8249C35.1434 27.8363 34.9691 27.6828 34.9908 27.4847ZM37.1498 26.2348C37.1356 25.6897 37.0788 25.1589 36.9964 24.6516C36.3476 24.4549 35.7037 24.2416 35.0656 24.0119C34.8687 23.9423 34.8111 23.7578 34.9346 23.6006C35.0574 23.4463 35.3111 23.3768 35.5049 23.4463C36.0407 23.6391 37.7254 24.1382 37.7254 24.1382C37.7254 24.1382 37.9476 25.4727 37.9693 26.157C37.9723 26.3452 37.7957 26.5138 37.5689 26.535C37.3422 26.5584 37.1543 26.4231 37.1498 26.2348ZM39.032 24.9404C38.9299 24.4463 38.7939 23.9599 38.6249 23.4849C37.9596 23.3306 37.3018 23.1711 36.6589 23.0048C36.4561 22.9503 36.3595 22.7855 36.4531 22.6343C36.5407 22.4853 36.7772 22.4052 36.977 22.4596C37.5263 22.6002 39.2394 23.0055 39.2394 23.0055C39.2394 23.0055 39.651 24.1813 39.7879 24.8156C39.8261 24.9895 39.6884 25.1581 39.4811 25.1937C39.2715 25.2269 39.0695 25.1158 39.032 24.9404ZM40.5677 23.6331C40.3921 23.181 40.1814 22.7436 39.9376 22.325C39.2955 22.2222 38.6504 22.1095 38.0023 21.9886C37.7957 21.9508 37.676 21.8033 37.7336 21.6604C37.792 21.5205 38.0008 21.4366 38.2021 21.4774C38.7559 21.5825 40.4323 21.8789 40.4323 21.8789C40.4323 21.8789 40.7481 22.4127 40.8895 22.6955C41.0183 22.9503 41.1365 23.215 41.242 23.4872C41.3057 23.6422 41.2046 23.804 41.0198 23.844C40.8342 23.8849 40.6306 23.7934 40.5677 23.6331ZM41.7494 22.3734C41.5039 21.9695 41.2313 21.583 40.9337 21.2166C40.3163 21.1494 39.6993 21.0775 39.0829 21.0011C38.8839 20.9746 38.7394 20.8499 38.7641 20.7183C38.7866 20.5898 38.9662 20.5066 39.1623 20.5293C39.6944 20.5973 41.2937 20.7901 41.2937 20.7901C41.2937 20.7901 42.0151 21.6975 42.3265 22.2056C42.3317 22.2116 42.3339 22.2169 42.3369 22.2245C42.4058 22.3575 42.3444 22.4951 42.1947 22.5405C42.1126 22.5624 42.0258 22.5581 41.9462 22.5282C41.8667 22.4982 41.7982 22.4442 41.7502 22.3734M42.5674 21.172C42.2771 20.8166 41.9538 20.4816 41.6155 20.1694C41.0542 20.1391 40.4764 20.1013 39.8807 20.0582C39.6921 20.0446 39.5327 19.9357 39.529 19.8163C39.5215 19.6983 39.6712 19.6144 39.8583 19.631C40.3672 19.6688 41.8565 19.7747 41.8565 19.7747C41.8565 19.7747 42.6872 20.5588 43.0524 21.0018C43.0635 21.0144 43.0732 21.0281 43.0816 21.0427C43.1452 21.1523 43.1115 21.2665 42.9948 21.3081C42.8585 21.3534 42.67 21.296 42.5682 21.172M43.0711 20.0635C42.7268 19.7497 42.3796 19.4662 42.0129 19.2023C41.501 19.197 40.9681 19.188 40.4263 19.1766C40.2467 19.1743 40.076 19.0836 40.0431 18.9762C40.0124 18.8711 40.1284 18.791 40.305 18.794C40.7698 18.8054 42.1394 18.8356 42.1394 18.8356C42.1394 18.8356 43.0412 19.501 43.4595 19.8851C43.4797 19.9039 43.4978 19.9249 43.5134 19.9478C43.5703 20.034 43.5606 20.1225 43.4745 20.1641C43.366 20.214 43.1856 20.1686 43.0704 20.0628M50.2571 42.5273C50.216 42.6763 50.0985 42.8169 49.9944 42.8434C49.9218 42.86 49.8754 42.8162 49.8672 42.7368C49.8659 42.695 49.8701 42.6533 49.8799 42.6128C49.9982 42.1931 50.2429 40.8631 50.2429 40.8631C50.2429 40.8631 50.9419 40.1237 51.2727 39.7895C51.3573 39.7003 51.4515 39.729 51.4792 39.85C51.49 39.9169 51.4859 39.9855 51.4671 40.0506C51.4483 40.1158 51.4154 40.1759 51.3707 40.2265C51.1088 40.4964 50.8439 40.7717 50.5685 41.0688C50.4936 41.5603 50.3888 42.0502 50.2571 42.5273ZM49.5911 42.2158C49.5649 42.3708 49.4421 42.5326 49.3194 42.5719C49.2236 42.6045 49.1555 42.5576 49.1398 42.4631C49.1369 42.4295 49.1384 42.3957 49.1443 42.3625C49.2214 41.9149 49.3179 40.5373 49.3179 40.5373C49.3179 40.5373 50.0723 39.6519 50.4337 39.2549C50.531 39.1491 50.6478 39.1619 50.6957 39.2814C50.7436 39.4016 50.7084 39.5838 50.6111 39.6897C50.332 40.0019 50.0431 40.3399 49.7482 40.6892C49.7313 41.2012 49.6788 41.7113 49.5911 42.2158ZM48.6496 41.9769C48.6413 42.0603 48.6123 42.1402 48.5653 42.2094C48.5184 42.2785 48.455 42.3345 48.3809 42.3723C48.2582 42.4222 48.1624 42.3754 48.1414 42.2627C48.1354 42.2415 48.1347 42.2188 48.1354 42.1939C48.1579 41.7478 48.0748 40.355 48.0748 40.355C48.0748 40.355 48.8584 39.3441 49.2423 38.8693C49.3426 38.743 49.4848 38.7332 49.5641 38.8451C49.6375 38.9555 49.6195 39.1476 49.5192 39.2731C49.2121 39.6569 48.9097 40.0445 48.6122 40.4359C48.6623 40.9516 48.6728 41.4718 48.6496 41.9769ZM47.4866 41.896C47.4986 42.0548 47.3841 42.2461 47.2262 42.3254C47.0817 42.398 46.9507 42.3489 46.9193 42.2211L46.9118 42.1818C46.8707 41.7304 46.5781 40.3573 46.5781 40.3573C46.5781 40.3573 47.3713 39.2095 47.7702 38.672C47.875 38.5283 48.0471 38.4981 48.1489 38.6024C48.2522 38.7045 48.2492 38.9033 48.1459 39.047C47.8406 39.4674 47.5322 39.9097 47.2254 40.3603C47.3526 40.87 47.4417 41.3811 47.4873 41.8952M46.0497 41.7637C46.0706 41.8347 46.0893 41.9051 46.1073 41.9769C46.147 42.1281 46.043 42.3345 45.8708 42.4313C45.6979 42.5326 45.5236 42.4888 45.4832 42.3353C45.4637 42.2672 45.445 42.1969 45.424 42.1281C45.3163 41.7667 44.8328 40.5766 44.8328 40.5766C44.8328 40.5766 45.6059 39.3154 46.0025 38.6999C46.1073 38.5381 46.3011 38.4776 46.4403 38.5646C46.5736 38.6515 46.599 38.8542 46.4957 39.0183C46.1844 39.5097 45.8821 39.9914 45.5842 40.4874C45.7713 40.9093 45.9262 41.3395 46.0504 41.7637M43.7132 40.8359C44.029 41.2971 44.3015 41.7667 44.523 42.2468C44.5918 42.3927 44.4983 42.6045 44.3187 42.7232C44.1331 42.8396 43.9295 42.8169 43.8599 42.6725C43.6608 42.2574 42.8743 41.0113 42.8743 41.0113C42.8743 41.0113 43.5778 39.6473 43.9639 38.9797C44.0672 38.8013 44.285 38.7151 44.4519 38.7892C44.6165 38.861 44.6689 39.0651 44.5671 39.2428C44.2708 39.7672 43.9856 40.2984 43.7132 40.8359ZM41.6581 41.4007C42.0544 41.8074 42.4239 42.2398 42.7643 42.6952C42.8616 42.8298 42.7942 43.046 42.6078 43.1806C42.4207 43.3167 42.1888 43.3182 42.0877 43.1829C41.8033 42.8056 40.7556 41.6699 40.7556 41.6699C40.7556 41.6699 41.352 40.2477 41.6918 39.5256C41.7846 39.3328 42.0166 39.2179 42.2119 39.2685C42.4065 39.3199 42.4888 39.518 42.4013 39.7086C42.1349 40.2809 41.8872 40.8427 41.6581 41.4007ZM40.0701 40.4375C39.853 41.028 39.6592 41.6064 39.4901 42.1773C39.9945 42.5462 40.463 42.9371 40.8806 43.3235C41.0078 43.4445 40.9689 43.66 40.7863 43.8074C40.6067 43.9571 40.3507 43.9798 40.219 43.8588C39.8515 43.5261 38.5725 42.7065 38.5725 42.7065C38.5725 42.7065 39.0021 41.0696 39.2798 40.3278C39.3546 40.1259 39.5911 39.9899 39.8111 40.0201C40.0252 40.0519 40.1441 40.2371 40.0701 40.4375ZM37.3542 41.0015C37.5854 41.0113 37.7306 41.1852 37.676 41.3871C37.5286 41.9591 37.4073 42.5377 37.3122 43.1209C37.8915 43.4399 38.4333 43.7568 38.946 44.1061C39.1017 44.2112 39.0919 44.4214 38.919 44.5756C38.7484 44.7291 38.485 44.7699 38.3293 44.6663C37.8848 44.373 36.4202 43.6592 36.4202 43.6592C36.4202 43.6592 36.6424 42.0858 36.8378 41.3448C36.8932 41.1429 37.1222 40.9902 37.3542 41.0015ZM35.3372 42.4986C35.2716 43.0589 35.2334 43.6221 35.2228 44.1862C35.8581 44.4448 36.4696 44.723 37.0398 44.9952C37.2172 45.0814 37.2427 45.2788 37.0967 45.4398C36.9508 45.5971 36.6844 45.6561 36.5032 45.5706C36.0108 45.3355 34.4018 44.7261 34.4018 44.7261C34.4018 44.7261 34.41 43.2638 34.4886 42.5334C34.5103 42.3375 34.7161 42.1689 34.9503 42.1599C35.1868 42.147 35.3597 42.2997 35.3372 42.4986ZM33.1789 43.7492C33.1939 44.2936 33.2485 44.8251 33.3316 45.3294C33.9916 45.5321 34.636 45.7453 35.2624 45.9706C35.4585 46.0409 35.5176 46.2277 35.3949 46.3812C35.2714 46.5385 35.0177 46.608 34.8238 46.5385C34.288 46.3449 32.6041 45.8459 32.6041 45.8459C32.6041 45.8459 32.3811 44.5113 32.3587 43.8256C32.3557 43.638 32.533 43.4694 32.759 43.446C32.9858 43.4256 33.1751 43.5594 33.1789 43.7492ZM31.2952 45.0429C31.4045 45.5585 31.5377 46.0394 31.7038 46.4991C32.3677 46.6541 33.0262 46.8129 33.6698 46.9785C33.8727 47.0329 33.9692 47.1978 33.8756 47.349C33.7873 47.4987 33.5531 47.5773 33.351 47.5244C32.801 47.383 31.0879 46.9785 31.0879 46.9785C31.0879 46.9785 30.6778 45.8035 30.5408 45.1684C30.5012 44.9945 30.6396 44.8259 30.8477 44.7911C31.0572 44.7563 31.2593 44.8675 31.2952 45.0429ZM29.7595 46.3509C29.9361 46.8021 30.1467 47.239 30.3897 47.6575C31.0325 47.7618 31.6784 47.8737 32.3265 47.9955C32.5323 48.0333 32.6513 48.18 32.5951 48.3236C32.5368 48.462 32.328 48.5467 32.1259 48.5058C31.3833 48.3701 30.6404 48.2361 29.8972 48.1036C29.8972 48.1036 29.5807 47.5713 29.4392 47.2878C29.3105 47.0329 29.1922 46.7683 29.0852 46.4969C29.0231 46.3411 29.1234 46.1793 29.3082 46.1385C29.4953 46.0992 29.6974 46.1914 29.7595 46.3509ZM28.5793 47.6098C28.833 48.0249 29.1009 48.4053 29.395 48.7674C30.0123 48.8338 30.629 48.9054 31.2451 48.9822C31.4441 49.0071 31.5886 49.1334 31.5646 49.2642C31.5422 49.395 31.3626 49.4789 31.1657 49.4555C30.6344 49.3867 29.0336 49.1939 29.0336 49.1939C29.0336 49.1939 28.3129 48.2866 28.0008 47.7777C27.9963 47.7723 27.9932 47.7658 27.9918 47.7588C27.923 47.6265 27.9828 47.4881 28.1325 47.442C28.215 47.4204 28.3022 47.4249 28.3821 47.4549C28.462 47.4849 28.5308 47.539 28.5793 47.6098ZM27.7613 48.8113C28.0517 49.1667 28.375 49.5024 28.7118 49.8139C29.2738 49.8449 29.8516 49.8819 30.448 49.925C30.6374 49.9386 30.796 50.0468 30.8013 50.167C30.8065 50.2857 30.6568 50.3689 30.472 50.353C29.9608 50.3137 28.4715 50.2086 28.4715 50.2086C28.4715 50.2086 27.6408 49.4237 27.2764 48.9814C27.2652 48.9688 27.2551 48.9551 27.2464 48.9406C27.1828 48.8325 27.2165 48.7175 27.334 48.6744C27.4702 48.6298 27.6588 48.6896 27.7606 48.8113M27.2577 49.9213C27.6019 50.2343 27.9492 50.5186 28.3151 50.7794C28.8263 50.7855 29.3606 50.7946 29.9017 50.8074C30.0813 50.8097 30.2519 50.9004 30.2849 51.0078C30.3156 51.1121 30.2003 51.193 30.0252 51.1892C29.5589 51.1771 28.1894 51.1477 28.1894 51.1477C28.1894 51.1477 27.2876 50.4823 26.8692 50.0982C26.8496 50.0794 26.8313 50.0592 26.8146 50.0377C26.7577 49.9492 26.7697 49.8608 26.8543 49.8199C26.962 49.7708 27.1432 49.8146 27.2584 49.9213" fill="#7D0521"/>
<path d="M62.6932 26.1655L62.6468 26.1693L60.4092 28.6773L60.026 26.4113L54.4333 26.9315L54.1324 27.5605C53.6684 27.277 53.1012 27.128 52.4807 27.128C52.3573 27.128 52.2315 27.1356 52.108 27.1454L48.5869 27.4721C47.4523 27.5779 46.1718 28.1677 45.1383 29.0538C44.5605 28.3159 43.5644 27.9378 42.4403 28.0429L38.9184 28.3688L19.3092 30.1887L21.4907 27.7465L11.6651 28.6599L11.0948 29.8485L5.46547 30.3702L2.94863 35.5979L4.11614 35.4905L0 44.0126L6.37925 43.4228L7.67247 40.7447L9.23061 45.3917L15.2215 44.836L14.4963 42.6697L16.7115 42.4648L19.4828 36.7275L19.2119 42.2312L24.3361 41.7564L24.3907 41.7511L25.1945 40.5519L25.1399 41.68L30.2618 41.2052L30.3164 41.2006L31.552 39.3572C31.5895 39.4344 31.6299 39.5085 31.674 39.5803C32.2286 40.4763 33.2479 40.9262 34.5231 40.809L38.0196 40.4869C39.1661 40.3795 40.4556 39.7875 41.4899 38.8968C42.0055 39.5667 42.8205 39.9326 43.8054 39.9326C43.9296 39.9326 44.0591 39.9266 44.1908 39.9137L47.6873 39.5901C48.3841 39.5251 49.1167 39.2937 49.8239 38.9202L49.586 39.4147L55.9645 38.8227L56.3162 38.0976L56.6941 40.3379L58.2343 38.614L63.9146 38.0847L70.0005 25.4873L62.6932 26.1655Z" fill="#570514"/>
<path d="M10.5382 32.7065L11.2806 32.637L9.72842 34.3745L10.5382 32.7065ZM12.7317 39.7814L11.8336 37.1017L16.6106 31.7523L12.7317 39.7814ZM40.0539 32.2045L38.1754 36.0946L36.9181 36.2118L38.7966 32.3209L40.0539 32.2045ZM49.7215 31.3085L47.8416 35.2001L46.5858 35.3158L48.4635 31.4249L49.7215 31.3085ZM63.0938 26.7477L63.0489 26.753L59.8854 30.2946L59.3451 27.0947L54.9782 27.5008L54.3608 28.7892C54.3318 28.7234 54.2981 28.66 54.2598 28.5994C53.9193 28.0474 53.2921 27.7435 52.4958 27.7435C52.397 27.7435 52.2915 27.7488 52.1875 27.7586L48.6663 28.0852C47.3177 28.2092 45.7985 29.1173 44.8518 30.3316C44.836 30.0353 44.7466 29.7477 44.5921 29.4954C44.2516 28.9434 43.6244 28.641 42.8259 28.641C42.7271 28.641 42.6238 28.6462 42.5198 28.6546L38.9979 28.9827C38.3169 29.0455 37.5565 29.3214 36.847 29.757L37.2586 29.143L32.6703 29.5694L30.4304 32.9114L30.586 29.7607L26.743 30.1191L24.5039 33.4588L24.6588 30.3112L17.2842 30.9977L19.465 28.5563L12.2101 29.2307L11.6376 30.4178L6.00744 30.9395L4.33553 34.4153L5.50676 34.3079L1.39062 42.8292L5.84503 42.4164L7.81478 38.3372L9.807 44.2832L14.1072 43.8832L13.3806 41.717L16.1765 41.4592L19.7366 34.0909L20.4356 34.0244L20.0884 41.094L23.9298 40.7378L26.1675 37.3996L26.0148 40.5428L29.8556 40.1874L33.0287 35.4534L32.439 36.6761C32.0297 37.5244 32.0079 38.3213 32.3791 38.9209C32.7204 39.4721 33.3468 39.7768 34.1408 39.7768C34.2419 39.7768 34.3459 39.7708 34.4514 39.7617L37.9487 39.4373C39.316 39.3111 40.8464 38.3985 41.7879 37.1766C41.8051 37.4889 41.8927 37.7739 42.0476 38.0249C42.4315 38.6449 43.1762 38.9527 44.1199 38.8657L47.6156 38.5414C49.2995 38.3848 51.2161 37.0246 51.9787 35.4436L54.1752 30.8964L54.5344 30.8631L50.9758 38.2298L55.4303 37.8185L56.7025 35.1888L57.2256 38.2828L60.0965 35.0693L58.926 37.4942L63.3804 37.0806L68.6184 26.2373L63.0938 26.7477Z" fill="#EB008A"/>
<path d="M18.1097 29.2397L12.5649 29.7553L11.4557 32.0622L12.6277 31.9548L7.99219 37.1447L10.1857 43.6888L13.3589 43.3939L11.205 36.9708L18.1097 29.2397ZM63.3093 27.2859L59.5307 31.5178L58.8856 27.695L55.3337 28.0246L54.2299 30.333L55.4542 30.2158L51.8949 37.587L55.0681 37.2922L56.9555 33.396L57.5737 37.0593L62.2998 31.7688L59.845 36.8499L63.0182 36.555L67.6919 26.8799L63.3093 27.2859Z" fill="white"/>
<path d="M17.3184 31.5527L12.6448 41.2286L15.8172 40.9345L20.4916 31.2578L17.3184 31.5527ZM6.36576 31.4665L5.2559 33.7726L6.42864 33.666L2.3125 42.1858L5.48491 41.8932L10.7162 31.0628L6.36576 31.4665ZM38.533 36.6209L35.9945 36.856L38.4372 31.797L40.975 31.5626L38.533 36.6209ZM42.5698 29.2096L39.0479 29.5354C37.6432 29.6663 36.0139 30.7883 35.264 32.0911L32.9321 36.9211C32.2555 38.3221 32.9134 39.3481 34.3997 39.209L37.8969 38.8847C39.3854 38.7463 41.1396 37.4995 41.8162 36.0977L44.0374 31.4975C44.7147 30.095 44.0576 29.072 42.5698 29.2096ZM48.1999 35.7241L45.6607 35.9601L48.1049 30.9017L50.6427 30.6658L48.1999 35.7241ZM52.2375 28.3121L48.7156 28.6395C47.3116 28.7695 45.6809 29.8908 44.9317 31.1951L42.5998 36.0266C41.9232 37.4261 42.581 38.4491 44.0681 38.313L47.5646 37.9887C49.0516 37.8503 50.8066 36.6027 51.4831 35.2017L53.7051 30.6008C54.3824 29.199 53.7253 28.1752 52.2375 28.3121ZM32.9785 30.0987L29.7828 34.8675L30.0044 30.3747L27.052 30.6484L23.8564 35.4164L24.0771 30.9252L20.8965 31.2223L19.7859 33.5292L21.0162 33.4135L20.669 40.4823L23.6191 40.2093L26.8125 35.4444L26.5955 39.9341L29.5463 39.6589L36.1509 29.8046L32.9785 30.0987Z" fill="white"/>
<path d="M6.42274 33.6657L8.56686 32.3644L5.80531 32.6193L5.25 33.7731L6.42274 33.6657ZM12.6246 31.9554L15.4393 30.5967L12.0072 30.9097L11.4527 32.0628L12.6246 31.9554Z" fill="#D1D1D1"/>
<path d="M18.1084 29.2397L15.4412 30.5961L9.61719 37.1183L11.7726 43.5429L10.1845 43.6888L13.3576 43.3939L11.2038 36.9708L18.1084 29.2397ZM56.5613 31.0778L54.037 36.2873L51.8937 37.587L55.0668 37.2922L56.9543 33.396L56.5613 31.0778ZM58.1749 33.0353L59.5295 31.5178L58.8843 27.695L57.4497 28.749L58.1749 33.0353ZM65.5465 28.1811L61.9879 35.5501L59.8445 36.8506L63.0162 36.5557L67.6906 26.8799L65.5465 28.1811ZM64.0116 28.2212L58.5259 34.3592L57.5724 37.0593L62.2985 31.7688L64.0116 28.2212Z" fill="#D1D1D1"/>
<path d="M18.3415 32.5734L14.7866 39.931L12.6455 41.2277L15.8179 40.9336L20.4923 31.257L18.3415 32.5734ZM8.57276 32.3639L4.45663 40.8822L2.3125 42.185L5.48491 41.8924L10.7162 31.0619L8.57276 32.3639ZM28.078 37.4094L29.7828 34.8666L30.0044 30.3739L28.3617 31.6313L28.078 37.4094ZM26.9277 33.0505L22.8183 39.1825L20.669 40.4815L23.6191 40.2085L26.8125 35.4436L26.9277 33.0505ZM33.7755 31.1277L28.7448 38.6343L26.5947 39.9325L29.5463 39.6581L36.1509 29.8038L33.7755 31.1277ZM21.0162 33.4127L22.4367 32.1802L20.3419 32.373L19.7859 33.5283L21.0162 33.4127ZM55.4571 30.2159L57.4538 28.749L54.8606 28.9902L54.2267 30.3331L55.4571 30.2159Z" fill="#D1D1D1"/>
<path d="M22.1484 37.9598L23.8548 35.4163L24.0748 30.925L22.4343 32.1809L22.1484 37.9598ZM38.9909 30.6453L36.8475 31.9435L33.8458 38.1609L35.9921 36.8574L38.4349 31.7968L40.9726 31.5624L43.116 30.2627L38.9909 30.6453Z" fill="#D1D1D1"/>
<path d="M44.0546 29.6941L43.1161 30.2627L40.112 36.4824L37.9814 37.7784L33.8458 38.161L32.9141 38.7281C33.197 39.0857 33.7074 39.2732 34.3974 39.2089L37.8946 38.8846C37.9672 38.8785 38.042 38.8664 38.1161 38.8543C39.5523 38.6214 41.1695 37.4306 41.8131 36.0976L44.0351 31.4974C44.3973 30.7474 44.3771 30.1077 44.0546 29.6941ZM48.6594 29.7493L46.516 31.0476L43.5142 37.265L45.6584 35.96L48.1026 30.9016L50.6404 30.6657L52.7845 29.3652L48.6594 29.7493Z" fill="#D1D1D1"/>
<path d="M53.7257 28.7979L52.7872 29.3664L49.7824 35.5861L47.6525 36.8821L43.5169 37.2647L42.5859 37.8318C42.8681 38.1894 43.3792 38.3754 44.0685 38.3126L47.565 37.9883C47.6383 37.9822 47.7124 37.9694 47.7865 37.958C49.2219 37.7259 50.8399 36.5343 51.4835 35.2013L53.7055 30.6004C54.0685 29.8511 54.0475 29.2099 53.7257 28.7979Z" fill="#D1D1D1"/>
</g>
<defs>
<clipPath id="clip0_2788_6589">
<rect width="70" height="52" fill="white" transform="translate(0 9)"/>
</clipPath>
</defs>
</svg>
