<svg width="70" height="70" viewBox="0 0 70 70" fill="none" xmlns="http://www.w3.org/2000/svg">
<g clip-path="url(#clip0_2788_5900)">
<path d="M16.0576 12.5996V23.7855L0.703125 23.7732L4.80936 29.2406L8.10312 29.0718L8.09991 40.8168L16.0576 38.9056V50.2198L34.9932 63.6997L53.9405 50.2139V38.9272L62.1845 41.1652C64.685 41.2268 65.3287 39.8321 65.4938 38.8997C65.5736 38.4382 65.6231 37.9433 65.6407 37.5418C65.658 37.2571 65.6618 36.9743 65.662 36.6961C65.6623 36.3149 65.6615 35.813 65.6604 35.3128C65.6586 34.3124 65.6551 33.3189 65.6551 33.3184V33.3178C65.6538 32.7531 65.5987 32.1067 65.2518 31.4696C65.0101 31.0267 64.6399 30.6543 64.2013 30.3624L69.303 23.7937L53.9408 23.7929V12.5996H16.0576Z" fill="white"/>
<path d="M34.9925 58.1507L17.4375 48.1934V49.5113L34.9925 61.9993L52.547 49.5113V48.1934L34.9925 58.1507Z" fill="#06141F"/>
<path d="M31.9175 50.325H38.071L39.5488 53.41L52.5473 46.7226V39.145C40.9806 36.6192 29.004 36.6196 17.4375 39.1463V46.7229L30.4354 53.4103L31.9175 50.325Z" fill="#06141F"/>
<path d="M30.3654 25.1934H21.7031C21.8385 25.2537 22.9406 25.6338 22.9406 26.7407L22.9336 34.2575C22.9168 35.3308 23.709 35.8467 25.2391 35.6901C27.7197 35.4443 30.2089 35.295 32.7011 35.2427V29.8188C31.066 29.8346 29.6605 29.8695 28.0267 29.9255V31.7476C28.5558 31.7231 28.8382 31.7028 29.3686 31.6823V33.5684C28.4426 33.61 27.6624 33.6645 26.7338 33.7282C26.491 33.7442 26.3796 33.6642 26.3796 33.4721V27.2737C26.3796 27.1118 26.4961 27.0307 26.7348 27.0277C27.4963 27.0152 28.1841 27.0056 28.9453 26.9973C29.183 26.9955 29.2799 27.0811 29.2799 27.2633V28.3486C30.4265 28.328 31.5777 28.3131 32.7233 28.3054L32.7289 26.7847C32.7307 25.7901 31.8768 25.1934 30.3659 25.1934" fill="#EA0029"/>
<path d="M50.3672 27.5384V30.1894C50.3672 30.3857 50.2569 30.4996 50.0195 30.4815C49.1546 30.4169 48.4631 30.3574 47.5948 30.3006V27.1267C48.4618 27.1481 49.1439 27.1726 50.0093 27.1942C50.2486 27.2033 50.3672 27.3087 50.3672 27.5384ZM53.8127 31.0343V27.0864C53.7897 25.9006 52.8119 25.1944 51.3007 25.1934H42.9141C43.0607 25.2547 44.1948 25.6202 44.1948 26.7004L44.1982 35.688C45.3107 35.7952 46.4872 35.9257 47.5948 36.0716V32.1553C48.152 32.2017 48.742 32.2524 49.2991 32.3065C49.8902 33.6965 50.3303 35.0717 50.9201 36.5361C52.0373 36.7255 53.2542 36.9822 54.3655 37.2116C53.7623 35.6679 53.142 34.131 52.5047 32.6011C53.353 32.4442 53.8263 31.8797 53.8127 31.0343Z" fill="#EA0029"/>
<path d="M5.53376 27.7953C6.88122 27.7211 8.16352 27.6499 9.515 27.5864V38.5991C10.6242 38.2987 11.8397 38.0175 12.9578 37.7548V27.433C13.7663 27.3991 14.7091 27.3671 15.516 27.3385V25.1936H3.54688C4.19248 26.0733 4.85489 26.9409 5.53376 27.7953ZM63.0147 31.3021C61.9811 30.8393 59.6093 29.762 58.8775 29.4226C58.6093 29.2967 58.5097 29.082 58.5097 28.935V27.8513C58.5062 27.6213 58.6251 27.5088 58.8609 27.5205C60.6202 27.6 62.6776 27.6886 64.43 27.7859L66.4428 25.1936H53.8479C54.0212 25.287 55.1526 25.6752 55.1526 26.9509C55.1526 26.9509 55.162 28.3195 55.162 29.0491C55.162 29.7809 55.5402 30.3692 56.4552 30.7872C57.3676 31.205 60.3374 32.4776 60.5641 32.6005C60.8606 32.7574 60.9103 32.9113 60.9103 33.3473V36.0378C60.9116 36.4032 60.6477 36.3443 60.5617 36.3248C59.9581 36.1882 59.4571 36.086 58.8502 35.958C58.7642 35.9398 58.5484 35.8814 58.5444 35.5343V33.7544C57.4439 33.5712 56.3412 33.4016 55.2365 33.2456V35.2956C55.2579 36.6119 56.2106 37.5896 57.7188 37.965C59.136 38.3113 60.4982 38.6885 61.8993 39.1001C63.3908 39.551 64.2591 38.9358 64.2561 37.3394C64.2668 37.2994 64.2535 33.3222 64.2535 33.3222C64.2508 32.3938 64.0483 31.7687 63.0147 31.3021ZM17.3052 26.8669V36.836C18.4446 36.6276 19.603 36.4358 20.7501 36.2661V25.1934H16.0742C16.3845 25.2841 17.3052 25.7976 17.3052 26.8669ZM33.0846 25.1934C33.2561 25.2718 34.3939 25.6325 34.3939 26.6345C34.3909 29.4984 34.3909 32.3607 34.3891 35.2227C37.0747 35.2094 39.7146 35.3113 42.3919 35.5207V33.689C40.8419 33.5867 39.29 33.5172 37.737 33.4804V31.1813C39.1206 31.2087 40.4996 31.2394 41.8809 31.2992V29.4146C40.5 29.3718 39.1186 29.3423 37.737 29.3263C37.7408 27.0408 37.737 27.0408 37.737 26.9832C39.2822 26.9941 40.7317 27.0083 42.2754 27.0296V25.1936L33.0846 25.1934Z" fill="#EA0029"/>
<path d="M23.4689 42.7767C23.5798 42.7623 23.6586 42.7249 23.7048 42.6647C23.7502 42.606 23.7729 42.5294 23.7729 42.4374C23.7729 42.3322 23.747 42.2575 23.6904 42.2186C23.6369 42.1807 23.5632 42.1666 23.4687 42.1778C23.3106 42.1999 23.1516 42.2215 22.9922 42.2431V42.8394C23.1516 42.8181 23.3106 42.7972 23.4689 42.7767ZM23.4075 41.8328C23.5178 41.8176 23.5966 41.7811 23.642 41.7235C23.6888 41.6666 23.712 41.5935 23.712 41.5036C23.7104 41.3982 23.6855 41.3267 23.6332 41.2894C23.5806 41.252 23.5055 41.2403 23.4075 41.2534C23.2689 41.271 23.1305 41.2896 22.9922 41.3094V41.8891C23.1327 41.8704 23.2686 41.8502 23.4075 41.8328ZM23.4163 40.8983C23.5472 40.8807 23.6554 40.8786 23.747 40.8924C23.8389 40.9066 23.9104 40.9359 23.97 40.9807C24.0261 41.0277 24.0702 41.0882 24.0939 41.1651C24.1185 41.2416 24.1324 41.3358 24.1324 41.4479C24.1324 41.546 24.1166 41.6338 24.0886 41.7082C24.0592 41.7811 24.0138 41.8454 23.9545 41.9041C24.029 41.9342 24.0886 41.986 24.1308 42.0596C24.1725 42.1332 24.1936 42.2415 24.1936 42.3848C24.1936 42.5049 24.1781 42.6062 24.1428 42.6935C24.1116 42.7769 24.0616 42.852 23.9967 42.913C23.9283 42.9758 23.8483 43.0245 23.7611 43.0566C23.6609 43.0946 23.5564 43.1205 23.45 43.1337C23.1621 43.171 22.8741 43.211 22.5859 43.2502V41.0119C22.8616 40.9733 23.1396 40.9351 23.4163 40.8983ZM25.2411 42.0222C25.4208 42.0022 25.6038 41.9817 25.7838 41.9622C25.6943 41.6848 25.6057 41.407 25.5146 41.1296C25.4243 41.4263 25.3292 41.7237 25.2411 42.0222ZM25.9 42.3053C25.642 42.332 25.3832 42.3603 25.127 42.3896C25.0696 42.5748 25.0135 42.7599 24.958 42.9464C24.8129 42.9632 24.67 42.9805 24.5266 42.9971C24.7675 42.2215 25.0116 41.4479 25.2515 40.6737C25.4259 40.6545 25.6025 40.6361 25.7763 40.6171L26.4996 42.7834C26.3562 42.7972 26.2133 42.8114 26.0704 42.8274C26.0111 42.6524 25.9566 42.4787 25.9 42.3053ZM28.2485 40.8081C28.1361 40.7875 28.0222 40.7759 27.908 40.7732C27.8011 40.7686 27.7023 40.7732 27.6088 40.7785C27.5586 40.7832 27.5087 40.7907 27.4593 40.8009C27.4106 40.8089 27.3706 40.8252 27.3335 40.8481C27.2982 40.8678 27.2687 40.8963 27.248 40.9308C27.2248 40.9661 27.2151 41.0109 27.2151 41.0666C27.2119 41.1096 27.2202 41.1526 27.2392 41.1912C27.2555 41.2242 27.282 41.251 27.3148 41.2678C27.3511 41.2894 27.3962 41.3054 27.4542 41.3179C27.5097 41.3313 27.5797 41.343 27.6612 41.3569C27.7752 41.3772 27.8749 41.4001 27.9617 41.4257C28.0506 41.4503 28.123 41.4863 28.182 41.5311C28.2397 41.5762 28.2848 41.6311 28.3161 41.697C28.3455 41.7645 28.3634 41.8467 28.3634 41.9446C28.3634 42.1807 28.2904 42.3603 28.1454 42.4878C28.0023 42.6153 27.8009 42.6857 27.5474 42.7041C27.4366 42.7103 27.319 42.7103 27.1943 42.7017C27.0716 42.6944 26.9496 42.6783 26.8292 42.6537V42.324C26.9665 42.3392 27.0928 42.348 27.2082 42.3517C27.3212 42.3587 27.4326 42.3563 27.5447 42.3475C27.6809 42.3354 27.7824 42.3005 27.8433 42.2447C27.908 42.1887 27.9376 42.1015 27.9376 41.9849C27.9386 41.948 27.9288 41.9115 27.9096 41.88C27.8904 41.8484 27.8625 41.8231 27.8292 41.807C27.7862 41.7858 27.7404 41.7711 27.6932 41.7632C27.6398 41.752 27.5709 41.7403 27.4991 41.7291C27.3964 41.7139 27.2951 41.6905 27.1962 41.6592C27.1153 41.6343 27.0395 41.5953 26.9724 41.5439C26.9127 41.4971 26.8653 41.4365 26.8343 41.3673C26.8013 41.2848 26.7849 41.1966 26.7862 41.1077C26.7862 40.9156 26.8487 40.7593 26.9761 40.6395C27.1016 40.5195 27.3003 40.4496 27.5797 40.425C27.8039 40.4061 28.0297 40.4233 28.2485 40.4757V40.8081ZM28.8342 40.3498C29.339 40.3146 29.8454 40.2842 30.3513 40.2556C30.35 40.3751 30.35 40.4941 30.3513 40.6128C29.9883 40.6328 29.6235 40.6534 29.2608 40.6777V41.2502C29.6115 41.2286 29.9622 41.2075 30.3134 41.1886C30.268 41.3099 30.2202 41.4321 30.1737 41.5532C29.8703 41.5709 29.5647 41.5874 29.2608 41.6085V42.2021C29.6235 42.178 29.9883 42.1575 30.3513 42.1386C30.35 42.2567 30.35 42.3768 30.3513 42.4961C29.8454 42.5214 29.339 42.5534 28.8342 42.5889V40.3498ZM31.7444 42.0788C31.8564 42.0761 31.9346 42.0449 31.9795 41.9908C32.026 41.9342 32.05 41.8627 32.05 41.7691C32.05 41.6624 32.0238 41.5866 31.9672 41.542C31.9138 41.4994 31.8369 41.478 31.7444 41.4823C31.5837 41.4884 31.425 41.4943 31.264 41.4996V42.0972C31.425 42.0913 31.5834 42.0847 31.7444 42.0788ZM31.6811 41.1299C31.7931 41.1256 31.8716 41.0965 31.9189 41.0421C31.9637 40.9909 31.987 40.9178 31.987 40.8292C31.987 40.7252 31.9629 40.6505 31.9082 40.6088C31.8564 40.5656 31.7813 40.5467 31.6811 40.5499C31.542 40.5552 31.4042 40.5603 31.264 40.5667V41.1456C31.4042 41.14 31.5417 41.1339 31.6811 41.1299ZM31.6924 40.1945C31.8211 40.1903 31.9311 40.2004 32.0238 40.222C32.1144 40.2433 32.1913 40.2818 32.2487 40.3322C32.3048 40.3823 32.3481 40.4469 32.3732 40.5264C32.3991 40.6064 32.4106 40.7009 32.4106 40.8119C32.4106 40.9122 32.3972 40.9986 32.3676 41.0693C32.3382 41.14 32.2923 41.2006 32.2332 41.2518C32.3099 41.2894 32.3676 41.3492 32.4095 41.4257C32.4522 41.5023 32.4736 41.6125 32.4736 41.7552C32.4736 41.8761 32.4565 41.975 32.4231 42.0593C32.3914 42.139 32.3405 42.2095 32.2749 42.2648C32.2049 42.3218 32.1239 42.3638 32.0369 42.3883C31.9358 42.4159 31.8316 42.4311 31.7268 42.4336C31.4354 42.4448 31.1438 42.4574 30.8542 42.4704V40.2311C31.1336 40.2164 31.4114 40.206 31.6924 40.1945ZM33.5262 41.4924L34.0729 41.4833C33.9805 41.1974 33.8919 40.9114 33.7989 40.6243C33.7078 40.9138 33.6154 41.2024 33.5262 41.4924ZM34.1859 41.8366C33.9282 41.8395 33.6699 41.8443 33.4095 41.8467C33.3534 42.0281 33.2965 42.2101 33.2402 42.3904C33.0954 42.3928 32.9504 42.3963 32.8075 42.3992C33.0497 41.648 33.2946 40.8972 33.5369 40.1446C33.7118 40.1425 33.8881 40.1406 34.062 40.1382C34.305 40.8826 34.5454 41.6269 34.7898 42.3736C34.6456 42.3736 34.5006 42.3736 34.3555 42.3752C34.2997 42.1951 34.2441 42.0164 34.1859 41.8366ZM35.1408 42.3736V40.1318C35.2829 40.1318 35.4255 40.135 35.5689 40.135V42.0172C35.9092 42.0194 36.2495 42.0239 36.5897 42.0305C36.5419 42.1474 36.4957 42.2664 36.45 42.3848C36.0136 42.3777 35.5772 42.3739 35.1408 42.3736ZM36.9669 42.3928V40.1534C37.1084 40.1582 37.2486 40.1614 37.3918 40.1663V42.0468C37.7331 42.0561 38.0729 42.0681 38.4118 42.0804C38.3664 42.1991 38.321 42.3152 38.274 42.4326C37.8381 42.4181 37.4006 42.4037 36.9669 42.3928ZM41.3124 42.499C41.1984 42.5255 41.0829 42.5451 40.9665 42.5577C40.8517 42.5715 40.74 42.5737 40.6337 42.5675C40.4716 42.5563 40.3359 42.5211 40.2219 42.4574C40.1115 42.3954 40.0172 42.3086 39.9462 42.2039C39.873 42.0911 39.8208 41.966 39.7921 41.8347C39.7583 41.6838 39.7418 41.5294 39.743 41.3748C39.743 41.2006 39.7596 41.0421 39.7921 40.9044C39.8242 40.7646 39.8749 40.6494 39.9462 40.5533C40.0176 40.46 40.1081 40.3887 40.2219 40.3439C40.3359 40.298 40.4751 40.2799 40.6337 40.29C40.7526 40.298 40.8661 40.3148 40.9729 40.3389C41.0774 40.3629 41.193 40.3994 41.3121 40.4469V40.7686C41.2462 40.7518 41.1874 40.735 41.1335 40.7204C41.0787 40.7078 41.0272 40.695 40.978 40.6851C40.9302 40.6766 40.8819 40.6697 40.8343 40.6638C40.7868 40.6593 40.7355 40.6531 40.6829 40.6505C40.5023 40.6398 40.3704 40.6995 40.294 40.8292C40.2152 40.9621 40.1765 41.1512 40.1765 41.3993C40.1765 41.5183 40.184 41.6271 40.2048 41.7237C40.2219 41.8214 40.2513 41.9067 40.294 41.975C40.3359 42.0468 40.3893 42.1017 40.4543 42.1434C40.517 42.1842 40.5937 42.2079 40.6855 42.2127C40.7355 42.2165 40.7844 42.2165 40.829 42.2165C40.8771 42.2165 40.9238 42.2165 40.9745 42.2127C41.0226 42.2079 41.0736 42.2031 41.1297 42.1967C41.1837 42.1909 41.2462 42.1828 41.3124 42.1695V42.499ZM41.7587 42.631V40.3911C41.8981 40.4016 42.0386 40.413 42.1839 40.425V42.3069C42.5218 42.3354 42.8618 42.3648 43.2021 42.3949C43.1537 42.5097 43.1083 42.6257 43.0626 42.7396C42.6283 42.6998 42.1937 42.6638 41.7587 42.631ZM44.0186 42.1001C44.0186 42.2415 44.0565 42.3448 44.1323 42.4091C44.2082 42.4766 44.3049 42.5155 44.4288 42.5265C44.5578 42.5414 44.6588 42.5243 44.7338 42.475C44.8089 42.4256 44.8463 42.3301 44.8463 42.1882V40.6822C44.9892 40.6974 45.1315 40.7145 45.2776 40.7324V42.2407C45.2776 42.3752 45.2555 42.4888 45.2215 42.5796C45.1831 42.6697 45.1281 42.7399 45.0567 42.7916C44.9838 42.8437 44.8933 42.8754 44.7897 42.8904C44.67 42.9071 44.5486 42.9073 44.4288 42.8912C44.3064 42.8799 44.1857 42.8542 44.0693 42.8146C43.9728 42.7807 43.8842 42.7275 43.8089 42.6583C43.7365 42.5891 43.6816 42.5038 43.6486 42.4093C43.6106 42.2967 43.5921 42.1784 43.5942 42.0596V40.5515C43.7357 40.5656 43.8786 40.5787 44.0186 40.5928V42.1001ZM46.7186 42.7972C46.8281 42.8114 46.9074 42.7956 46.9523 42.7484C46.9988 42.7017 47.0228 42.631 47.0228 42.5395C47.0228 42.4326 46.9953 42.352 46.9405 42.2989C46.8839 42.2455 46.8107 42.2127 46.7188 42.1999C46.5597 42.1778 46.3991 42.1572 46.24 42.137V42.7343C46.3991 42.754 46.5597 42.777 46.7186 42.7972ZM46.6561 41.8368C46.7656 41.852 46.8457 41.8368 46.89 41.7907C46.9368 41.7469 46.9595 41.68 46.9595 41.5874C46.9614 41.4833 46.9349 41.406 46.8828 41.3537C46.83 41.3038 46.7554 41.271 46.6561 41.2585C46.5175 41.2394 46.3788 41.2214 46.24 41.2046V41.7835C46.3788 41.8014 46.5167 41.8195 46.6561 41.8368ZM46.6657 40.9044C46.7955 40.9231 46.9034 40.9503 46.9964 40.9885C47.0869 41.0258 47.1625 41.0765 47.218 41.1352C47.2736 41.1952 47.3171 41.2678 47.3422 41.3513C47.3681 41.4359 47.3802 41.5338 47.3818 41.6434C47.3818 41.7445 47.3644 41.8275 47.3372 41.8934C47.3059 41.959 47.2629 42.0132 47.2028 42.0519C47.2792 42.1057 47.3372 42.1727 47.3802 42.2567C47.4202 42.3413 47.4405 42.4542 47.4405 42.5988C47.4405 42.7175 47.4245 42.8149 47.3922 42.8928C47.361 42.9657 47.3099 43.0285 47.2447 43.0739C47.1793 43.1185 47.1005 43.1459 47.0081 43.1553C46.9054 43.1664 46.8017 43.1641 46.6996 43.1483C46.4112 43.1104 46.1224 43.0726 45.8316 43.0373V40.7983C46.1099 40.8324 46.3885 40.8684 46.6657 40.9044Z" fill="white"/>
<path d="M19.5582 22.8562V16.0965H23.8354L26.857 22.8562H43.0017L46.1587 16.0965H50.4268V22.8562H52.5475V13.9785H17.4375V22.8562H19.5582Z" fill="#06141F"/>
<path d="M36.2345 20.4683C36.2345 20.495 36.2425 20.5102 36.2583 20.5102C36.2705 20.5085 36.2821 20.5037 36.2919 20.4963L40.657 17.6658C40.7307 17.6143 40.8188 17.5879 40.9089 17.5903H41.8682C42.0151 17.5903 42.1148 17.6882 42.1148 17.8352V19.6653C42.1148 19.8862 42.0656 20.0148 41.8696 20.1324L40.7059 20.8319C40.6943 20.84 40.6807 20.8449 40.6666 20.8461C40.6527 20.8461 40.6386 20.8349 40.6386 20.7943V18.6593C40.6386 18.6339 40.6316 18.6171 40.6148 18.6171C40.6025 18.6186 40.5908 18.6235 40.5811 18.6312L37.3913 20.702C37.3191 20.7512 37.2335 20.7771 37.1461 20.7762H35.0315C34.883 20.7762 34.785 20.6783 34.785 20.5299V17.8925C34.785 17.8728 34.7767 17.8546 34.7599 17.8546C34.7476 17.8561 34.736 17.8609 34.7263 17.8685L32.6216 19.1307C32.6002 19.1445 32.5949 19.1547 32.5949 19.1643C32.5949 19.1725 32.5992 19.1811 32.613 19.1963L34.117 20.6977C34.1368 20.7172 34.1507 20.7327 34.1507 20.7495C34.1507 20.7634 34.1282 20.7746 34.1018 20.7746H32.7434C32.6368 20.7746 32.5543 20.7594 32.4969 20.702L31.5853 19.7923C31.5818 19.7882 31.5775 19.7848 31.5727 19.7824C31.5679 19.78 31.5626 19.7787 31.5572 19.7784C31.5473 19.779 31.5377 19.7819 31.5292 19.7869L30.0054 20.702C29.913 20.758 29.85 20.7732 29.7589 20.7732H28.3572C28.2077 20.7748 28.1094 20.6753 28.1094 20.5283V18.7334C28.1094 18.5109 28.1585 18.3834 28.3559 18.266L29.5266 17.5636C29.5358 17.5575 29.5465 17.5541 29.5575 17.5537C29.5757 17.5537 29.5853 17.5721 29.5853 17.6124V20.0161C29.5853 20.0414 29.5909 20.0527 29.6094 20.0527C29.6218 20.0507 29.6337 20.0459 29.6441 20.0388L33.5989 17.6618C33.6745 17.6097 33.7671 17.5844 33.8593 17.5889H35.988C36.1349 17.5889 36.2345 17.6868 36.2345 17.8336L36.2332 20.4683H36.2345Z" fill="white"/>
</g>
<defs>
<clipPath id="clip0_2788_5900">
<rect width="68.6" height="51.1" fill="white" transform="translate(0.703125 12.5996)"/>
</clipPath>
</defs>
</svg>
