<svg width="70" height="70" viewBox="0 0 70 70" fill="none" xmlns="http://www.w3.org/2000/svg">
<g clip-path="url(#clip0_2788_6062)">
<path d="M33.74 9.7998C20.7275 9.7998 10.013 19.6593 8.43876 32.3952C8.19068 33.4852 8.03486 34.5609 7.9272 35.6253H6.6875C6.6875 50.7435 18.7975 62.9996 33.74 62.9996C48.6824 62.9996 60.7961 50.7435 60.7961 35.6253H59.2652C59.2652 36.7451 59.1704 37.841 59.0337 38.9233C58.7782 37.8157 58.3588 36.7122 57.7343 35.6253H59.2652C59.2652 21.3608 47.8362 9.7998 33.74 9.7998Z" fill="#042445"/>
<path d="M33.7422 61.4506C47.8383 61.4506 59.2657 49.8889 59.2657 35.627H57.7362C57.7362 49.0326 46.9921 59.9006 33.7422 59.9006C20.4923 59.9006 9.74811 49.0326 9.74811 35.627H8.21875C8.21875 49.8889 19.646 61.4506 33.7422 61.4506Z" fill="#D01031"/>
<path d="M33.7441 11.3506C27.3804 11.3506 21.2775 13.9083 16.7777 18.4609C12.2779 23.0136 9.75 29.1884 9.75 35.6269H11.282C11.282 29.5995 13.6485 23.819 17.861 19.557C22.0734 15.295 27.7867 12.9006 33.744 12.9006C36.6938 12.9005 39.6147 13.4884 42.3399 14.6304C45.0652 15.7725 47.5414 17.4465 49.6272 19.5569C51.713 21.6672 53.3676 24.1726 54.4964 26.9298C55.6253 29.6871 56.2063 32.6424 56.2063 35.6269H57.7382C57.7382 32.4388 57.1176 29.2821 55.9118 26.3367C54.7059 23.3914 52.9385 20.7152 50.7105 18.4609C48.4824 16.2067 45.8373 14.4185 42.9262 13.1985C40.0151 11.9785 36.895 11.3506 33.7441 11.3506Z" fill="#62B1E3"/>
<path d="M49.0602 35.6265C49.0602 39.736 47.4467 43.6771 44.5747 46.583C41.7026 49.4888 37.8073 51.1213 33.7456 51.1213C29.6839 51.1213 25.7886 49.4888 22.9166 46.583C20.0445 43.6771 18.431 39.736 18.431 35.6265C18.431 31.5171 20.0445 27.576 22.9166 24.6701C25.7886 21.7643 29.6839 20.1319 33.7456 20.1319C37.8073 20.1319 41.7026 21.7643 44.5746 24.6701C47.4467 27.576 49.0602 31.5171 49.0602 35.6265ZM17.8906 22.93L20.1898 24.9623L21.6428 23.2782L21.212 22.8965L20.2077 24.0571L18.3418 22.4065L17.8906 22.93ZM22.7822 22.3136C21.9818 22.9894 21.3471 22.7237 20.7456 21.9939C20.1465 21.2666 19.9987 20.578 20.7965 19.9049C21.6122 19.2163 22.2444 19.5051 22.8383 20.2246C23.445 20.9623 23.5953 21.6276 22.7823 22.3136M21.1712 20.3613C20.6691 20.7843 20.9341 21.1376 21.2757 21.5503C21.6453 22.0016 21.9309 22.2672 22.4075 21.8649C22.8408 21.4961 22.7822 21.2356 22.3158 20.6683C21.8951 20.1576 21.6275 19.9745 21.1712 20.3613Z" fill="white"/>
<path d="M24.1504 18.314L25.3994 20.47L24.7902 20.8336L23.5412 18.675L22.7611 19.1367L22.468 18.6286L24.6398 17.3417L24.9329 17.8497L24.1504 18.314ZM27.0308 16.9729L27.9178 19.3069L27.2602 19.5648L26.3705 17.2308L25.5294 17.5583L25.3178 17.009L27.668 16.0935L27.877 16.6428L27.0308 16.9729ZM29.2179 18.8633L28.5958 15.8381L30.7854 15.3791L30.9028 15.9568L29.3912 16.274L29.5237 16.9187L30.8314 16.6453L30.9486 17.2127L29.641 17.4887L29.7761 18.1515L31.2876 17.8342L31.4049 18.4042L29.2179 18.8633ZM35.8045 17.401C35.779 18.0045 35.2182 18.3553 34.5198 18.3243C34.089 18.3063 33.6837 18.1489 33.5002 17.9116C33.2861 17.6331 33.1892 17.1689 33.2172 16.7021C33.2326 16.3178 33.309 15.8974 33.4849 15.6653C33.7882 15.2604 34.112 15.1676 34.6269 15.1908C35.2463 15.2166 35.7943 15.575 35.8377 16.2998L35.1418 16.2688C35.1265 15.9903 34.9506 15.802 34.6064 15.7865C34.3567 15.7762 34.168 15.8381 34.0941 15.9774C33.9701 16.2087 33.9045 16.4673 33.903 16.7304C33.8877 17.0657 33.9488 17.3856 34.0737 17.548C34.1528 17.6486 34.3363 17.7208 34.5402 17.7234C34.8741 17.7337 35.078 17.597 35.0883 17.3623L35.0984 17.1353L34.4841 17.1096L34.507 16.5809L35.835 16.635L35.8045 17.401ZM36.3806 18.4842L37.0638 18.608L37.594 15.5647L36.9108 15.441L36.3806 18.4842ZM39.7275 19.3533L39.6817 18.675L38.6314 18.3346L38.221 18.8659L37.5252 18.6389L39.6178 16.0728L40.1862 16.2585L40.4157 19.5752L39.7275 19.3533ZM39.5899 17.1482L39.0061 17.86L39.6561 18.0689L39.5899 17.1482ZM42.534 20.7202L42.2408 18.4248L41.3563 20.0754L40.7471 19.7401L42.2 17.0244L42.6716 17.2824L42.9673 19.5828L43.8518 17.9297L44.4661 18.265L43.0106 20.9807L42.534 20.7202ZM46.2148 20.3101L44.6778 22.2676L44.1246 21.824L45.6617 19.8666L44.953 19.2966L45.315 18.8349L47.2879 20.421L46.926 20.8801L46.2148 20.3101ZM46.3066 23.9181C46.0236 23.5907 45.9038 23.2012 45.9319 22.6725L46.5538 22.6596C46.5156 23.0619 46.5742 23.2837 46.7731 23.5107C46.9973 23.7763 47.2166 23.8382 47.3849 23.6938C47.4817 23.6113 47.5224 23.4204 47.3695 23.1935L47.1784 22.8865C46.931 22.4997 46.852 21.971 47.2573 21.6151C47.6932 21.236 48.2769 21.3185 48.7357 21.8524C48.9959 22.1665 49.1314 22.5673 49.1156 22.9768L48.5115 22.9974C48.5318 22.559 48.3942 22.3784 48.277 22.2418C48.0884 22.0201 47.8997 21.9917 47.7187 22.1464C47.5938 22.2573 47.6117 22.3992 47.734 22.6003C47.7697 22.6622 47.8819 22.8298 47.9124 22.8737C48.2311 23.3456 48.2463 23.9001 47.8564 24.238C47.4179 24.6248 46.7858 24.4804 46.3066 23.9181ZM65.1566 35.0879L69.9999 30.1878H53.036L53.9256 26.8376H48.6593L47.7722 30.1878H14.6833L17.997 26.835H6.78633C5.92839 26.8364 5.09478 27.1235 4.41428 27.6521C3.73378 28.1808 3.24427 28.9214 3.02139 29.7596L0.110445 40.7539C-0.0172743 41.2272 -0.0344831 41.724 0.0601779 42.2052C0.154839 42.6864 0.358777 43.1387 0.655884 43.5264C1.25746 44.3233 2.17257 44.7773 3.1616 44.7773H61.3815C62.2394 44.7769 63.0731 44.4904 63.7538 43.9622C64.4344 43.434 64.9239 42.6934 65.1465 41.8552L66.8849 35.2916H64.9552L65.1566 35.0879Z" fill="white"/>
<path d="M15.478 44.0036L18.9318 30.9615H19.4162L15.9622 44.0036H15.478ZM25.906 42.5645H23.255C23.0615 42.5664 22.8701 42.5228 22.6961 42.4371C22.522 42.3514 22.37 42.226 22.2521 42.0707C22.1342 41.9153 22.0536 41.7344 22.0166 41.5422C21.9797 41.3499 21.9874 41.1516 22.0391 40.9629L23.956 33.7262C24.0569 33.346 24.279 33.01 24.5877 32.7703C24.8965 32.5307 25.2747 32.4007 25.6639 32.4006H31.6694L28.5953 44.0036H28.1109L31.0576 32.8726H25.6639C25.3776 32.8731 25.0996 32.9691 24.8728 33.1459C24.6461 33.3226 24.4833 33.5701 24.4098 33.8499L22.4929 41.0867C22.4605 41.205 22.4557 41.3292 22.4789 41.4496C22.5021 41.5701 22.5527 41.6834 22.6266 41.7807C22.7005 41.878 22.7957 41.9566 22.9048 42.0102C23.0139 42.0639 23.1338 42.0912 23.255 42.0899H26.3725L25.906 42.5645ZM34.3509 44.0036L37.0402 33.85C37.1143 33.5702 37.2777 33.3229 37.5049 33.1466C37.7321 32.9703 38.0105 32.8749 38.2969 32.8751H43.6906L40.7414 44.0036H41.2283L44.2999 32.4006H38.2969C37.9075 32.401 37.5291 32.5311 37.22 32.7706C36.9109 33.0102 36.6883 33.346 36.5864 33.7262L33.8667 44.0036H34.3509ZM52.3242 42.5645H48.5211C48.3281 42.5656 48.1376 42.5212 47.9646 42.4348C47.7915 42.3484 47.6408 42.2224 47.5243 42.0668C47.4056 41.9126 47.324 41.7326 47.2859 41.541C47.2479 41.3494 47.2545 41.1515 47.3052 40.9629L50.8432 27.6113H51.3276L50.0581 32.4006H55.5691L55.1001 32.8751H49.9332L47.7588 41.0867C47.7264 41.205 47.7217 41.3292 47.7449 41.4497C47.7681 41.5701 47.8186 41.6834 47.8926 41.7807C47.9665 41.878 48.0617 41.9566 48.1708 42.0102C48.2799 42.0639 48.3998 42.0912 48.5211 42.0899H52.4491L52.3242 42.5645ZM54.5189 42.0899H61.2102C61.496 42.0896 61.7739 41.9939 62.0006 41.8176C62.2273 41.6414 62.3903 41.3945 62.4643 41.1151L63.364 37.7185H57.2744L58.3297 33.7262C58.4311 33.3455 58.6535 33.0091 58.9626 32.7691C59.2718 32.529 59.6504 32.3986 60.0401 32.398H66.7262L66.2572 32.8725H60.0401C59.754 32.8732 59.476 32.9689 59.2489 33.1451C59.0219 33.3213 58.8583 33.568 58.7835 33.8474L57.8836 37.244H63.9758L62.9179 41.2363C62.8171 41.6168 62.5952 41.9531 62.2865 42.1932C61.9778 42.4333 61.5995 42.5638 61.2102 42.5645H54.394L54.5189 42.0899ZM6.95396 29.0505C6.56482 29.0506 6.18658 29.1806 5.87783 29.4202C5.56908 29.6598 5.34704 29.9958 5.2461 30.3761L2.44219 40.963C2.39156 41.1514 2.38477 41.3491 2.42236 41.5407C2.45995 41.7322 2.54089 41.9123 2.65884 42.0668C2.77558 42.2222 2.92636 42.3479 3.0993 42.4343C3.27224 42.5207 3.46263 42.5653 3.6555 42.5646H10.5888L12.4599 35.5007H8.35088L7.88181 35.9726H11.8507L10.2295 42.0926H3.6555C3.53462 42.0931 3.41527 42.0652 3.30689 42.011C3.1985 41.9569 3.10404 41.878 3.03096 41.7806C2.95623 41.6837 2.90488 41.5706 2.88099 41.4502C2.85709 41.3297 2.86132 41.2053 2.89334 41.0868L5.69725 30.4999C5.77137 30.2201 5.93473 29.9728 6.16197 29.7965C6.38921 29.6203 6.66761 29.5248 6.95396 29.525H14.2569L14.7234 29.0505L6.95396 29.0505Z" fill="white"/>
<path d="M30.3623 25.4004C29.2815 25.4004 28.7257 26.0709 28.7257 26.8292C28.7257 27.5849 29.3095 28.2581 30.3623 28.2581C31.3946 28.2581 32.0012 27.5849 32.0012 26.8292C32.0012 26.0709 31.4456 25.4004 30.3623 25.4004ZM32.4218 25.5114V25.8259H33.4414V28.1419H34.2393V25.826H35.2615V25.5114H32.4218ZM35.6184 25.5114V25.8259H36.638V28.1419H37.4358V25.826H38.4556V25.5114H35.6184ZM26.0825 25.514V27.7963C26.0825 28.0336 26.2047 28.1445 26.4189 28.1445H28.3689V27.8274H27.0306C26.898 27.8274 26.8726 27.7525 26.8726 27.6468V25.514H26.0825ZM39.3042 25.514C39.1156 25.514 38.9347 25.5525 38.9347 25.8956V27.7629C38.9347 28.1111 39.1055 28.1471 39.3298 28.1471H41.3996V27.83H39.9084C39.73 27.83 39.725 27.7499 39.725 27.6442V26.9014H41.3741V26.5894L39.725 26.5893V26.0168C39.725 25.8491 39.7861 25.8285 39.9289 25.8285H41.3996V25.514H39.3042ZM30.3623 25.6945C30.8541 25.6945 31.2289 26.2102 31.2289 26.8292C31.2289 27.4507 30.8542 27.9563 30.3623 27.9563C29.8703 27.9563 29.4956 27.4507 29.4956 26.8292C29.4956 26.2102 29.8702 25.6945 30.3623 25.6945ZM6.7863 27.6106C6.09638 27.6105 5.42571 27.8407 4.87823 28.2655C4.33075 28.6903 3.93704 29.2859 3.75811 29.9601L0.847094 40.9519C0.752089 41.311 0.739998 41.6875 0.811757 42.0521C0.883517 42.4167 1.0372 42.7598 1.26093 43.0547C1.48466 43.3496 1.77244 43.5885 2.10201 43.753C2.43158 43.9174 2.79411 44.0029 3.16157 44.0029H11.8054L14.3723 34.311H9.52148L8.35143 35.4973H12.4604L10.5893 42.5638H3.65612C3.46278 42.5654 3.27172 42.5215 3.098 42.4356C2.92428 42.3497 2.77263 42.2242 2.655 42.069C2.53738 41.9137 2.45698 41.7329 2.42015 41.5409C2.38331 41.3489 2.39105 41.1508 2.44274 40.9623L5.24666 30.3753C5.34762 29.9951 5.56969 29.6591 5.87847 29.4195C6.18725 29.1799 6.56551 29.0499 6.95465 29.0498H14.7239L16.1462 27.6107L6.7863 27.6106ZM49.2456 27.6107L45.71 40.9545C45.6155 41.3135 45.6038 41.6896 45.6758 42.0539C45.7478 42.4182 45.9016 42.7608 46.1253 43.0554C46.3489 43.35 46.6366 43.5887 46.9659 43.7529C47.2952 43.9172 47.6575 44.0027 48.0246 44.0028H51.9425L52.3223 42.5637H48.5192C48.3263 42.5644 48.1359 42.5199 47.9629 42.4335C47.79 42.3472 47.6392 42.2214 47.5224 42.0661C47.4044 41.9116 47.3235 41.7315 47.2859 41.54C47.2484 41.3484 47.2552 41.1507 47.3058 40.9623L50.8412 27.6107H49.2456ZM51.3255 27.6107L50.056 32.3998H55.5645L56.9869 30.9609H52.0341L52.9213 27.6107H51.3255ZM6.95444 29.5217C6.66811 29.5215 6.38972 29.6169 6.16248 29.7932C5.93525 29.9694 5.77188 30.2167 5.69773 30.4965L2.89396 41.0835C2.86195 41.202 2.85771 41.3264 2.88159 41.4468C2.90547 41.5672 2.95681 41.6804 3.03151 41.7772C3.10459 41.8746 3.19906 41.9535 3.30744 42.0077C3.41583 42.0618 3.53517 42.0897 3.65605 42.0892H10.23L11.8512 35.9693H7.88243L6.70979 37.1555H9.93945L9.01412 40.6501H4.60686L7.17375 30.9609H12.8351L14.2575 29.5217H6.95444ZM17.3367 30.9582L13.8827 44.0003H15.481L18.9349 30.9582H17.3367ZM19.4192 30.9582L15.9652 44.0003H17.561L21.015 30.9582H19.4192ZM25.4962 30.9609C24.8067 30.9614 24.1366 31.1918 23.5896 31.6166C23.0426 32.0413 22.6493 32.6366 22.4705 33.3103L20.4466 40.9519C20.3517 41.3108 20.3396 41.687 20.4112 42.0514C20.4828 42.4159 20.6362 42.7588 20.8597 43.0536C21.0831 43.3485 21.3706 43.5875 21.6998 43.7521C22.029 43.9167 22.3913 44.0025 22.7585 44.0029H24.4842L25.9066 42.5638H23.2555C23.062 42.5658 22.8706 42.5222 22.6966 42.4365C22.5225 42.3507 22.3706 42.2253 22.2526 42.07C22.1347 41.9147 22.0541 41.7338 22.0171 41.5415C21.9802 41.3493 21.9879 41.151 22.0396 40.9623L23.9564 33.7254C24.0574 33.3452 24.2794 33.0092 24.5882 32.7696C24.8969 32.5299 25.2752 32.4 25.6644 32.3998H31.6699L28.5957 44.0028H30.194L33.6479 30.9609H25.4962ZM38.1266 30.9609C37.4371 30.9614 36.767 31.1918 36.22 31.6166C35.6731 32.0413 35.2797 32.6366 35.1009 33.3103L32.2689 44.0027H33.8646L36.5871 33.7256C36.688 33.3454 36.91 33.0092 37.2187 32.7696C37.5275 32.5299 37.9057 32.3999 38.2948 32.3998H44.3004L41.2262 44.0027H42.8244L46.2783 30.9608L38.1266 30.9609ZM59.8724 30.9609C59.1829 30.9614 58.5128 31.1918 57.9658 31.6166C57.4189 32.0413 57.0255 32.6366 56.8467 33.3103L55.3658 38.899H61.4579L60.9941 40.6527H54.9019L54.5221 42.0919H61.2108C61.4974 42.0919 61.7761 41.996 62.0033 41.8192C62.2306 41.6424 62.3937 41.3946 62.4673 41.1143L63.3672 37.7204H57.275L58.3328 33.7281C58.4336 33.3476 58.6556 33.0113 58.9643 32.7712C59.273 32.5311 59.6513 32.4006 60.0407 32.3998H66.7294L68.1518 30.9609H59.8724ZM38.2948 32.8718C38.0089 32.8722 37.731 32.9679 37.5043 33.1441C37.2776 33.3204 37.1147 33.5673 37.0407 33.8468L34.3514 44.0002H35.9472L38.5141 34.311H41.7132L39.1463 44.0003H40.7419L43.6886 32.8719L38.2948 32.8718ZM25.6645 32.8744C25.3784 32.8751 25.1004 32.9708 24.8733 33.147C24.6462 33.3231 24.4827 33.5698 24.4078 33.8492C23.9311 35.6597 22.4908 41.0861 22.4908 41.0861C22.4591 41.2044 22.4547 41.3286 22.4782 41.449C22.5016 41.5693 22.5521 41.6825 22.6259 41.7799C22.6997 41.8772 22.7946 41.956 22.9034 42.0101C23.0122 42.0642 23.1319 42.0922 23.2531 42.0919H26.3731L27.2576 41.1969L26.5132 44.0029H28.1115L31.0582 32.8745L25.6645 32.8744ZM49.9338 32.8744L47.7594 41.0861C47.7271 41.2045 47.7223 41.3288 47.7456 41.4494C47.7688 41.57 47.8193 41.6834 47.8932 41.7809C47.967 41.8784 48.0622 41.9572 48.1713 42.0111C48.2804 42.0651 48.4003 42.0927 48.5217 42.0919H52.4497L52.8319 40.6527H49.4724L51.1496 34.3136H53.6782L55.1006 32.8745L49.9338 32.8744ZM60.0407 32.8744C59.7548 32.8748 59.477 32.9705 59.2503 33.1467C59.0236 33.3229 58.8606 33.5698 58.7866 33.8492L57.8867 37.2459H63.9764L62.9185 41.2381C62.8176 41.6183 62.5956 41.9543 62.2869 42.194C61.9781 42.4336 61.5999 42.5636 61.2108 42.5638H54.3945L54.0147 44.0028H61.3788C62.0688 44.0028 62.7394 43.7726 63.2869 43.3479C63.8344 42.9231 64.2281 42.3275 64.407 41.6534L65.8854 36.0647H59.7959L60.2598 34.3136H64.8378L66.2602 32.8745L60.0407 32.8744ZM25.8835 34.3136H29.0801L27.4003 40.6529H24.2038L25.8835 34.3136Z" fill="#D01031"/>
<path d="M16.625 48.6965L18.9675 46.7158L20.4001 48.4516L19.954 48.828L18.965 47.6288L18.4628 48.0518L19.3193 49.0885L18.8783 49.4625L18.0244 48.4257L17.5094 48.8616L18.4985 50.0582L18.0575 50.4322L16.625 48.6965ZM19.2836 51.6908C18.97 51.3942 18.812 51.0176 18.789 50.4889L19.4085 50.4141C19.4085 50.8165 19.4901 51.0331 19.7093 51.2369C19.9565 51.4819 20.1809 51.5205 20.3363 51.3607C20.423 51.2678 20.4434 51.0744 20.2726 50.8629L20.0509 50.5766C19.7653 50.2182 19.6379 49.6998 20.0049 49.3052C20.4001 48.8822 20.9915 48.908 21.4987 49.3929C21.7884 49.6794 21.9628 50.0644 21.9881 50.4735L21.3865 50.556C21.3662 50.1176 21.2107 49.95 21.0806 49.8262C20.8691 49.6224 20.6804 49.6147 20.5148 49.7875C20.4026 49.9087 20.4332 50.0479 20.5734 50.2362C20.6401 50.323 20.709 50.4082 20.7799 50.4915C21.1418 50.9299 21.2132 51.4793 20.8589 51.8533C20.4587 52.2814 19.8164 52.2014 19.2836 51.6908ZM23.4691 51.7398L22.0901 53.8133L21.5038 53.4136L22.8828 51.34L22.1334 50.8294L22.4596 50.342L24.5474 51.7655L24.2211 52.253L23.4691 51.7398ZM22.8854 54.5999L23.6093 55.0048L23.9916 54.2981L23.2677 53.8933L22.8854 54.5999ZM26.3903 53.2252L26.1303 53.9216L26.8924 53.7462L26.0946 55.8893L26.7293 56.1318L27.8203 53.2046L27.3028 53.0086L26.3903 53.2252ZM29.3982 53.643C30.0583 53.8056 30.3821 54.3704 30.2546 54.8965C30.1736 55.1659 30.0353 55.4142 29.8493 55.6238L28.8552 56.7457L28.1006 56.56L29.0005 55.5825C28.8541 55.5842 28.7093 55.5524 28.5769 55.4893C28.4445 55.4263 28.3279 55.3337 28.2359 55.2185C28.1439 55.1034 28.0789 54.9686 28.0458 54.8244C28.0127 54.6802 28.0123 54.5302 28.0446 54.3858C28.1771 53.8391 28.6997 53.4702 29.3982 53.643ZM29.0489 55.0305C29.3727 55.1106 29.5256 54.9584 29.5791 54.7314C29.6327 54.5122 29.5256 54.293 29.2579 54.226C28.9725 54.1563 28.7812 54.2956 28.7227 54.5432C28.664 54.783 28.7838 54.9661 29.0489 55.0305ZM31.4858 57.2588C30.7262 57.179 30.3744 56.6992 30.4305 56.1499C30.4475 56.0072 30.5021 55.8718 30.5887 55.7579C30.6752 55.644 30.7905 55.5558 30.9225 55.5026C30.8203 55.4295 30.7395 55.3297 30.6888 55.2139C30.6381 55.0981 30.6193 54.9706 30.6344 54.8449C30.6905 54.3008 31.1545 53.9913 31.8045 54.0609C32.5054 54.1331 32.8597 54.5535 32.8088 55.0667C32.8006 55.1942 32.7576 55.3168 32.6847 55.4211C32.6118 55.5253 32.5118 55.6071 32.3958 55.6573C32.5101 55.7385 32.602 55.848 32.6627 55.9753C32.7234 56.1026 32.7508 56.2435 32.7425 56.3846C32.689 56.9081 32.2607 57.3414 31.4858 57.2588ZM31.6158 55.892C31.3635 55.8636 31.1596 56.0364 31.1391 56.2247C31.1188 56.4233 31.2309 56.6167 31.5419 56.6476C31.8657 56.6838 32.0109 56.5161 32.0313 56.3175C32.0517 56.1267 31.8937 55.9203 31.6158 55.892ZM31.7432 54.6411C31.4935 54.6154 31.3431 54.7366 31.3227 54.93C31.3049 55.1079 31.4527 55.2653 31.677 55.2911C31.9268 55.3169 32.0925 55.1879 32.1154 55.0048C32.1384 54.8166 32.0033 54.6695 31.7433 54.6411M33.2829 57.3156L33.2676 56.8127L34.4708 55.5025C34.6084 55.3453 34.6823 55.1879 34.6798 55.0615C34.6746 54.8887 34.5472 54.7469 34.2974 54.7547C34.0043 54.7624 33.8768 54.9868 33.8615 55.2524L33.186 55.273C33.1784 54.5896 33.7162 54.177 34.277 54.1615C34.8556 54.146 35.3655 54.4606 35.3808 55.046C35.3884 55.304 35.2991 55.5645 35.0392 55.8507L34.2592 56.6915L35.4521 56.658L35.4699 57.2537L33.2829 57.3156ZM39.031 56.627L37.6851 56.9571L36.9637 53.9551L38.2331 53.6431C38.8933 53.4806 39.3827 53.7359 39.5127 54.2749C39.5431 54.493 39.4991 54.715 39.3878 54.9043C39.5841 55.0254 39.7905 55.2189 39.8491 55.4639C39.9868 56.0312 39.6682 56.4697 39.031 56.627ZM38.4345 54.2001L37.7692 54.3651L37.9196 54.9893L38.6078 54.8191C38.8117 54.7701 38.8729 54.5741 38.8398 54.4348C38.8289 54.3922 38.8097 54.3522 38.7833 54.3172C38.7569 54.2823 38.7238 54.253 38.686 54.2311C38.6483 54.2092 38.6066 54.1952 38.5634 54.1899C38.5202 54.1846 38.4764 54.1881 38.4345 54.2001ZM38.7454 55.3761L38.0522 55.5464L38.2179 56.2299L38.9291 56.0544C39.1406 56.0029 39.2018 55.812 39.161 55.6418C39.1202 55.469 38.9698 55.322 38.7454 55.3761ZM42.8724 54.1641C43.1374 54.8011 42.7373 55.3349 42.0643 55.6212C41.4092 55.9024 40.7388 55.825 40.4737 55.1879L39.6708 53.264L40.3208 52.988L41.1314 54.93C41.2435 55.1931 41.5341 55.206 41.8374 55.0744C42.1459 54.9429 42.3396 54.7237 42.23 54.4606L41.4194 52.5186L42.0694 52.2401L42.8724 54.1641ZM44.9116 54.1847C44.542 54.4065 44.1417 54.4529 43.632 54.3292L43.7339 53.705C44.1188 53.8185 44.3457 53.8004 44.6006 53.6457C44.9014 53.4728 45.0034 53.2639 44.8937 53.0706C44.83 52.957 44.6515 52.8849 44.4043 52.9932L44.0704 53.1273C43.6498 53.3027 43.1196 53.282 42.8494 52.8153C42.5614 52.3123 42.75 51.7475 43.3516 51.389C43.7044 51.1874 44.1187 51.1258 44.5139 51.2162L44.4247 51.8223C44.0015 51.7217 43.8002 51.8249 43.6473 51.9151C43.3949 52.0647 43.3311 52.2453 43.451 52.4542C43.535 52.5986 43.6753 52.6089 43.8945 52.5238C43.9948 52.483 44.0942 52.44 44.1927 52.3948C44.7102 52.1653 45.2506 52.253 45.508 52.7017C45.8037 53.2073 45.5463 53.8107 44.9116 54.1847ZM48.1387 51.6856L47.5473 51.3632L46.7035 52.0828L46.9279 52.7172L46.3696 53.1943L45.3347 50.035L45.791 49.6456L48.6918 51.2162L48.1387 51.6856ZM46.2193 50.6308L46.5047 51.5076L47.0273 51.0615L46.2193 50.6308ZM50.4888 49.1504L48.2101 48.957L49.6171 50.1794L49.1659 50.7107L46.8488 48.7017L47.1955 48.2916L49.482 48.4825L48.0699 47.26L48.5236 46.7236L50.8432 48.7327L50.4888 49.1504Z" fill="white"/>
</g>
<defs>
<clipPath id="clip0_2788_6062">
<rect width="70" height="53.2" fill="white" transform="translate(0 9.7998)"/>
</clipPath>
</defs>
</svg>
