<svg width="24" height="24" viewBox="0 0 24 24" fill="none" xmlns="http://www.w3.org/2000/svg">
<path d="M14 4H15H14ZM14 5.29102H13C13 5.73342 13.2907 6.12324 13.7147 6.24946L14 5.29102ZM15.3291 5.84082L14.8528 6.72012C15.2418 6.93078 15.7229 6.86091 16.0358 6.54831L15.3291 5.84082ZM16.2422 4.92871L16.9489 5.6362L16.9492 5.63589L16.2422 4.92871ZM17.6562 4.92871L18.3634 4.2216L18.3633 4.22153L17.6562 4.92871ZM19.0703 6.34277L19.7774 5.63567V5.63567L19.0703 6.34277ZM19.0703 7.75684L19.7767 8.4647L19.7775 8.46387L19.0703 7.75684ZM18.1572 8.66797L17.4509 7.96011C17.1372 8.27309 17.0669 8.75517 17.2782 9.14468L18.1572 8.66797ZM18.709 10L17.7505 10.2853C17.8768 10.7093 18.2666 11 18.709 11V10ZM20 10V9V9V10ZM21 11H22V11L21 11ZM21 13H22V13H21ZM20 14V15V15V14ZM18.709 14V13C18.2666 13 17.8768 13.2907 17.7505 13.7147L18.709 14ZM18.1582 15.3301L17.279 14.8536C17.0681 15.2428 17.1381 15.7242 17.4511 16.0372L18.1582 15.3301ZM19.0703 17.6572L18.3632 16.9501L19.0703 17.6572ZM17.6562 19.0713L18.3633 19.7784L18.3634 19.7784L17.6562 19.0713ZM16.2422 19.0713L15.5351 19.7784L15.5354 19.7787L16.2422 19.0713ZM15.3291 18.1582L16.0362 17.4511C15.7233 17.1382 15.2419 17.0681 14.8528 17.2789L15.3291 18.1582ZM14 18.708L13.7147 17.7496C13.2907 17.8758 13 18.2656 13 18.708H14ZM14 20H15V20H14ZM11 21L11 22H11V21ZM10 20H9H10ZM10 18.708H11C11 18.2656 10.7093 17.8758 10.2853 17.7496L10 18.708ZM8.66895 18.1582L9.14549 17.2791C8.75618 17.068 8.27443 17.1382 7.96146 17.4515L8.66895 18.1582ZM7.75684 19.0713L8.46377 19.7786L8.46432 19.778L7.75684 19.0713ZM6.34277 19.0713L5.63542 19.7782L5.63592 19.7787L6.34277 19.0713ZM4.92871 17.6562L5.63606 16.9494L5.63589 16.9492L4.92871 17.6562ZM4.92871 16.2422L5.63582 16.9493L5.6362 16.9489L4.92871 16.2422ZM5.84082 15.3291L6.54831 16.0358C6.86091 15.7229 6.93078 15.2418 6.72012 14.8528L5.84082 15.3291ZM5.29102 14L6.24946 13.7147C6.12324 13.2907 5.73342 13 5.29102 13V14ZM4 14L4 15H4V14ZM3 13H2V13L3 13ZM3 11H2V11H3ZM4 10L4 11H4V10ZM5.29102 10V11C5.73342 11 6.12324 10.7093 6.24946 10.2853L5.29102 10ZM5.84082 8.66992L6.72006 9.1463C6.93089 8.75718 6.86087 8.27576 6.54793 7.96282L5.84082 8.66992ZM4.92773 7.75684L4.22021 8.46353L4.22063 8.46394L4.92773 7.75684ZM4.92773 6.34277L4.22087 5.63542L4.22061 5.63568L4.92773 6.34277ZM6.34277 4.92871L5.63598 4.22129L5.63591 4.22136L6.34277 4.92871ZM8.66895 5.84082L7.96184 6.54793C8.27481 6.8609 8.7563 6.9309 9.14544 6.72L8.66895 5.84082ZM10 5.29102L10.2853 6.24945C10.7093 6.12324 11 5.73342 11 5.29102H10ZM10 4L9 4V4H10ZM11 3V2H11L11 3ZM13 3V4V4H14H15C15 2.89543 14.1046 2 13 2V3ZM14 4H13V5.29102H14H15V4H14ZM14 5.29102L13.7147 6.24946C14.1141 6.36835 14.4951 6.52637 14.8528 6.72012L15.3291 5.84082L15.8054 4.96152C15.3251 4.70136 14.8159 4.49053 14.2853 4.33258L14 5.29102ZM15.3291 5.84082L16.0358 6.54831L16.9489 5.6362L16.2422 4.92871L15.5355 4.22123L14.6224 5.13334L15.3291 5.84082ZM16.2422 4.92871L16.9492 5.63589L16.9492 5.63589L17.6562 4.92871L18.3633 4.22153C17.5823 3.44068 16.3162 3.44068 15.5352 4.22153L16.2422 4.92871ZM17.6562 4.92871L16.9491 5.63582L18.3632 7.04988L19.0703 6.34277L19.7774 5.63567L18.3634 4.2216L17.6562 4.92871ZM19.0703 6.34277L18.3632 7.04988L18.3631 7.0498L19.0703 7.75684L19.7775 8.46387C20.5583 7.6829 20.5585 6.41676 19.7774 5.63567L19.0703 6.34277ZM19.0703 7.75684L18.364 7.04897L17.4509 7.96011L18.1572 8.66797L18.8636 9.37583L19.7767 8.4647L19.0703 7.75684ZM18.1572 8.66797L17.2782 9.14468C17.4728 9.50354 17.6315 9.88533 17.7505 10.2853L18.709 10L19.6674 9.7147C19.509 9.18233 19.2971 8.67221 19.0363 8.19125L18.1572 8.66797ZM18.709 10V11H20V10V9H18.709V10ZM20 10V11V11L21 11L22 11C22 9.89543 21.1046 9 20 9V10ZM21 11H20V13H21H22V11H21ZM21 13H20V13V14V15C21.1046 15 22 14.1046 22 13H21ZM20 14V13H18.709V14V15H20V14ZM18.709 14L17.7505 13.7147C17.6317 14.114 17.4732 14.4952 17.279 14.8536L18.1582 15.3301L19.0374 15.8065C19.2976 15.3263 19.5092 14.8169 19.6674 14.2853L18.709 14ZM18.1582 15.3301L17.4511 16.0372L18.3632 16.9493L19.0703 16.2422L19.7774 15.5351L18.8653 14.623L18.1582 15.3301ZM19.0703 16.2422L18.3632 16.9493V16.9501L19.0703 17.6572L19.7774 18.3643C20.5585 17.5833 20.5585 16.3161 19.7774 15.5351L19.0703 16.2422ZM19.0703 17.6572L18.3632 16.9501L16.9491 18.3642L17.6562 19.0713L18.3634 19.7784L19.7774 18.3643L19.0703 17.6572ZM17.6562 19.0713L16.9492 18.3642L16.949 18.3639L16.2422 19.0713L15.5354 19.7787C16.3161 20.5587 17.5821 20.5596 18.3633 19.7784L17.6562 19.0713ZM16.2422 19.0713L16.9493 18.3642L16.0362 17.4511L15.3291 18.1582L14.622 18.8653L15.5351 19.7784L16.2422 19.0713ZM15.3291 18.1582L14.8528 17.2789C14.4951 17.4727 14.1142 17.6306 13.7147 17.7496L14 18.708L14.2853 19.6664C14.8159 19.5085 15.325 19.2978 15.8054 19.0375L15.3291 18.1582ZM14 18.708H13V20H14H15V18.708H14ZM14 20H13V20V21V22C14.1046 22 15 21.1046 15 20H14ZM13 21V20H11V21V22H13V21ZM11 21L11 20H11H10H9C9 21.1046 9.89545 22 11 22L11 21ZM10 20H11V18.708H10H9V20H10ZM10 18.708L10.2853 17.7496C9.88404 17.6301 9.50238 17.4725 9.14549 17.2791L8.66895 18.1582L8.1924 19.0374C8.67448 19.2987 9.18468 19.5087 9.71466 19.6664L10 18.708ZM8.66895 18.1582L7.96146 17.4515L7.04935 18.3646L7.75684 19.0713L8.46432 19.778L9.37643 18.8649L8.66895 18.1582ZM7.75684 19.0713L7.04991 18.364L7.04962 18.3639L6.34277 19.0713L5.63592 19.7787C6.41679 20.559 7.68275 20.5592 8.46377 19.7786L7.75684 19.0713ZM6.34277 19.0713L7.05012 18.3644L5.63606 16.9494L4.92871 17.6562L4.22136 18.3631L5.63542 19.7782L6.34277 19.0713ZM4.92871 17.6562L5.63589 16.9492L5.63582 16.9493L4.92871 16.2422L4.2216 15.5351C3.44051 16.3162 3.44073 17.5823 4.22153 18.3633L4.92871 17.6562ZM4.92871 16.2422L5.6362 16.9489L6.54831 16.0358L5.84082 15.3291L5.13334 14.6224L4.22123 15.5355L4.92871 16.2422ZM5.84082 15.3291L6.72012 14.8528C6.52638 14.4951 6.36835 14.1141 6.24946 13.7147L5.29102 14L4.33258 14.2853C4.49053 14.8159 4.70136 15.3251 4.96152 15.8054L5.84082 15.3291ZM5.29102 14V13H4V14V15H5.29102V14ZM4 14L4 13L4 13L3 13L2 13C2 14.1046 2.89543 15 4 15L4 14ZM3 13H4V11H3H2V13H3ZM3 11H4H4L4 10V9C2.89543 9 2 9.89543 2 11H3ZM4 10V11H5.29102V10V9H4V10ZM5.29102 10L6.24946 10.2853C6.3686 9.88502 6.52646 9.50362 6.72006 9.1463L5.84082 8.66992L4.96158 8.19354C4.7009 8.67468 4.49044 9.18437 4.33258 9.71471L5.29102 10ZM5.84082 8.66992L6.54793 7.96282L5.63484 7.04973L4.92773 7.75684L4.22063 8.46394L5.13371 9.37703L5.84082 8.66992ZM4.92773 7.75684L5.63526 7.05015L5.63486 7.04986L4.92773 6.34277L4.22061 5.63568C3.43935 6.41699 3.44055 7.68294 4.22021 8.46353L4.92773 7.75684ZM4.92773 6.34277L5.6346 7.05012L7.04964 5.63606L6.34277 4.92871L5.63591 4.22136L4.22087 5.63542L4.92773 6.34277ZM6.34277 4.92871L7.04957 5.63613L7.04973 5.63582L7.75684 4.92871L8.46394 4.2216C7.68269 3.44035 6.41667 3.44129 5.63598 4.22129L6.34277 4.92871ZM7.75684 4.92871L7.04973 5.63582L7.96184 6.54793L8.66895 5.84082L9.37605 5.13371L8.46394 4.2216L7.75684 4.92871ZM8.66895 5.84082L9.14544 6.72C9.50238 6.52655 9.88415 6.36886 10.2853 6.24945L10 5.29102L9.7147 4.33258C9.18468 4.49035 8.6744 4.70044 8.19245 4.96164L8.66895 5.84082ZM10 5.29102H11V4H10H9V5.29102H10ZM10 4L11 4L11 4L11 3L11 2C9.89545 2.00002 9 2.89542 9 4L10 4ZM11 3V4H13V3V2H11V3Z" fill="white"/>
<circle cx="12" cy="12" r="3" stroke="white" stroke-width="2" stroke-linecap="round" stroke-linejoin="round"/>
</svg>
