<svg width="24" height="24" viewBox="0 0 24 24" fill="none" xmlns="http://www.w3.org/2000/svg">
<path d="M4.6123 4.85254C6.7714 2.99075 9.66492 3.49148 11.459 5.6084C11.592 5.76533 11.7875 5.85547 11.9932 5.85547C12.1989 5.85547 12.3943 5.76533 12.5273 5.6084C14.3161 3.4977 17.1725 3.00504 19.3818 4.8584C21.6343 6.74792 21.9119 9.95643 20.167 12.2227C19.3871 13.2354 17.78 14.8509 16.1299 16.4229C14.4931 17.9821 12.8566 19.4587 12.0479 20.1816C12.0278 20.1996 12.0096 20.2159 11.9932 20.2305C11.9767 20.2159 11.9585 20.1996 11.9385 20.1816C11.1297 19.4588 9.49318 17.9821 7.85645 16.4229C6.20612 14.8507 4.59815 13.2354 3.81836 12.2227C2.07955 9.96435 2.38642 6.77207 4.6123 4.85254Z" stroke="white" stroke-width="1.4" stroke-linecap="round" stroke-linejoin="round"/>
</svg>
