<svg width="100" height="80" viewBox="0 0 100 80" fill="none" xmlns="http://www.w3.org/2000/svg">
<g opacity="0.9">
<path d="M77.6923 43.2244V42.4295L80.2625 39.0013L86.4497 43.2244H77.6923ZM94.9999 28.409H86.3185L89.4345 24.255L87.6209 21.9534C83.2225 16.3438 77.6035 11.8113 71.1911 8.70029C64.7786 5.58933 57.7416 3.98185 50.6149 4.00007C43.4882 3.98185 36.4511 5.58933 30.0387 8.70029C23.6263 11.8113 18.0073 16.3438 13.6089 21.9534L11.7952 24.255L14.9148 28.4124H5V35.1169H10.6414V49.9668H18.3141V35.4659L29.4898 50.3642H24.5255L32.4401 59.8057H38.465L50.6149 76L62.7614 59.8057H68.7897L77.0462 49.9668H94.9999V40.4804L87.0232 35.0339H94.9999V28.409Z" fill="white"/>
<path d="M50.7188 48.6387H55.8454V29.7382H50.7188V48.6387Z" fill="#C00C3F"/>
<path d="M71.3868 39.9293L63.7487 29.7379H58.0312L59.5824 31.808V48.6416H64.557V38.4467L72.1952 48.6416H76.3615V29.7379H71.3868V39.9293Z" fill="#C00C3F"/>
<path d="M42.4147 29.7384V41.2984L40.4663 43.8937L38.5179 41.2984V29.7384H33.64V41.2984L31.695 43.8937L29.7466 41.2984V29.7384H24.8652V41.9861L29.8572 48.6387H33.5294L36.0789 45.2381L38.6319 48.6387H42.3007L47.2961 41.9861V29.7384H42.4147Z" fill="#C00C3F"/>
<path d="M50.6172 65.5251V73.7847L64.9643 54.6632H58.7667L50.6172 65.5251Z" fill="#231F20"/>
<path d="M50.6146 73.7856V65.5261L42.4652 54.6608H36.2676L50.6146 73.7856Z" fill="#C00C3F"/>
<path d="M49.7311 23.6852H45.5026V16.5695H43.4609V25.4097H49.7311V23.6852Z" fill="#6D6E71"/>
<path d="M54.3303 25.5405C55.7052 25.5405 57.0422 25.1915 57.7711 24.68V20.3878H54.2301V22.0397H55.8918V23.588C55.4152 23.7418 54.9174 23.82 54.4167 23.8195C52.5823 23.8195 51.9673 22.8864 51.9673 20.9891C51.9673 19.1782 52.5477 18.1138 54.389 18.1138C55.4081 18.1138 55.992 18.4352 56.4722 19.0469L57.7435 17.8788C56.9731 16.7729 55.6154 16.4343 54.3441 16.4343C51.4871 16.4343 49.9844 17.9963 49.9844 20.9718C49.9844 23.937 51.3386 25.5405 54.3303 25.5405Z" fill="#6D6E71"/>
<path d="M27.373 51.6917L33.0594 58.4756H68.1722L73.8585 51.6917H27.373Z" fill="#6D6E71"/>
<path d="M40.0934 56.0504C40.3639 56.2016 40.668 56.2824 40.9778 56.2854C41.4303 56.2854 41.5996 56.1161 41.5996 55.8984C41.5996 55.6945 41.4338 55.5908 41.3543 55.5493C41.0987 55.418 40.7981 55.3282 40.5218 55.2141C40.1141 55.0068 39.9068 54.8132 39.9068 54.3018C39.9068 53.697 40.3387 53.3341 41.1367 53.3341C41.5073 53.3242 41.874 53.4112 42.2007 53.5864L41.9796 54.0909C41.7234 53.9434 41.4323 53.867 41.1367 53.8698C40.7221 53.8698 40.5563 54.0218 40.5563 54.2465C40.5563 54.3571 40.5909 54.4434 40.6565 54.5022C40.7184 54.5564 40.7883 54.6006 40.8638 54.6335C41.078 54.7337 41.3958 54.8443 41.6583 54.9687C41.9762 55.1277 42.2387 55.3247 42.2387 55.8604C42.2387 56.4617 41.7689 56.8384 40.9881 56.8384C40.5928 56.837 40.2034 56.7423 39.8516 56.5619L40.0934 56.0504Z" fill="white"/>
<path d="M44.6973 53.3836H46.77V53.9227H45.3467V54.7694H46.7217V55.2947H45.3467V56.2486H46.8253V56.7808H44.6973V53.3836Z" fill="white"/>
<path d="M49.9216 55.1233C49.9216 55.773 50.0908 56.3087 50.6608 56.3087C51.331 56.3087 51.5314 55.8559 51.5314 55.0334C51.5314 54.3906 51.369 53.8481 50.7921 53.8481C50.1426 53.8481 49.9216 54.3111 49.9216 55.1233ZM52.2051 55.0991C52.2051 56.2568 51.7041 56.8374 50.6747 56.8374C49.6141 56.8374 49.2617 56.1497 49.2617 55.0645C49.2617 53.9034 49.7523 53.3331 50.7852 53.3331C51.832 53.3331 52.2051 54.007 52.2051 55.0991Z" fill="white"/>
<path d="M54.6836 53.384H55.3296V55.4782C55.3296 56.0001 55.492 56.3145 55.9169 56.3145C56.4178 56.3145 56.5975 56.0657 56.5975 55.3884V53.384H57.2435V55.4333C57.2435 56.4148 56.7667 56.8398 55.9238 56.8398C55.0878 56.8398 54.6836 56.4217 54.6836 55.3953V53.384Z" fill="white"/>
<path d="M59.8516 53.3836H60.501V56.2486H61.8172V56.7808H59.8516V53.3836Z" fill="white"/>
<path d="M50.6148 10.2849V5.32573C43.6887 5.30876 36.8498 6.87177 30.6182 9.8959C24.3865 12.92 18.9262 17.3257 14.6522 22.778L13.4707 24.2744L15.2775 26.6831H21.4751L19.7512 24.3884C23.5746 19.95 28.3125 16.3915 33.6398 13.9571C38.9672 11.5227 44.758 10.27 50.6148 10.2849Z" fill="#C00C3F"/>
<path d="M87.7609 24.2753L86.5794 22.7789C82.3044 17.327 76.8433 12.9216 70.6112 9.89752C64.3791 6.87344 57.5399 5.31024 50.6133 5.3267V10.2859C62.5559 10.2859 73.7006 15.4006 81.4769 24.3859L79.7565 26.6841H85.9541L87.7609 24.2753Z" fill="#231F20"/>
<path d="M6.32617 33.7882H11.971V48.6416H16.9871V33.7882H22.6286V29.7379H6.32617V33.7882Z" fill="#C00C3F"/>
<path d="M93.6743 33.7048V29.7374H79.645V36.974L88.6616 43.1255V44.5528H79.3203V48.6411H93.6743V41.1799L84.599 34.9869V33.7048H93.6743Z" fill="#C00C3F"/>
</g>
</svg>
