<svg width="96" height="32" viewBox="0 0 96 32" fill="none" xmlns="http://www.w3.org/2000/svg">
<g clip-path="url(#clip0_4226_2568)">
<path d="M89.6133 18.6817C88.5447 18.1782 87.0287 17.4732 85.811 16.9193C84.8418 16.4662 83.9223 16.0382 83.7732 15.9878C83.4999 15.8367 83.475 15.8367 83.475 15.585V14.4016C84.4691 14.452 91.5019 14.7793 91.5765 14.7793L91.9244 14.8045L95.9752 9.54248H71.8695C71.795 9.54248 71.7453 9.54248 71.6707 9.54248H59.444H59.2949H44.9309H41.576C41.5014 9.54248 41.4269 9.54248 41.3523 9.54248H28.1564H27.4605H27.1126H19.7567H19.5082H0L3.97618 14.8045L9.54284 14.5275V31.2703L10.3629 31.0437C11.854 30.6157 13.4942 30.2128 15.4574 29.7596L15.9793 29.6337V14.2002L19.7318 14.0492V10.8517C19.9555 10.902 21.0986 11.3049 21.0986 13.0169V28.526L21.869 28.3749C23.6334 28.0476 25.3233 27.7706 26.9138 27.5441L27.4854 27.4685V10.6754C27.6345 10.7006 27.8084 10.751 28.0072 10.8265C28.0072 10.8265 28.38 10.9272 28.7279 11.2042C29.2001 11.5818 29.4486 12.1105 29.4486 12.7651L29.4238 24.0193C29.4238 24.6991 29.6971 25.3537 30.1942 25.832C30.5918 26.2348 31.3373 26.7132 32.6047 26.7132C32.7538 26.7132 32.9278 26.7132 33.0769 26.688C38.1714 26.2348 41.402 26.0334 44.6327 25.9579H45.2788V16.4913H44.6078C40.8801 16.5165 37.6246 16.6424 37.5998 16.6424L36.9785 16.6676V20.7714L38.9666 20.6707V22.1562C37.5004 22.2065 36.4566 22.3072 35.8851 22.3576V13.6212C36.1336 13.6212 36.5809 13.6212 37.0282 13.596C37.7489 13.596 38.4944 13.5708 38.8424 13.5708V15.585L45.3037 15.5094V12.5889C45.3037 11.8839 45.1048 11.3049 44.6824 10.8013C44.7321 10.8013 44.7569 10.8265 44.8066 10.8265C45.4031 10.9776 46.422 11.3804 46.422 12.463V25.9327H47.0681C52.262 25.9327 58.8724 26.3607 58.9469 26.3607L59.6428 26.4111V22.4079L59.0463 22.3576C56.1139 22.1058 53.753 22.0303 52.6844 22.0303V19.9154L58.8475 20.0161V15.8871L52.6844 15.7612V13.5456L59.4688 13.6212V10.8517C59.7173 10.9272 60.9599 11.3049 60.9599 12.4127V26.5621L61.5563 26.6125C61.5812 26.6125 63.7184 26.8139 66.6259 27.2168L67.3715 27.3175V21.4009C67.7442 21.426 68.2164 21.4764 68.7631 21.5267L71.1489 27.8714L71.5216 27.9217C73.3606 28.2238 75.0753 28.5763 76.6161 28.9288L77.8338 29.2057L74.9014 21.7785C75.9203 21.3757 76.5664 20.3938 76.5664 19.1853V13.2435C76.5664 12.2616 76.293 11.4559 75.7463 10.8517C75.8954 10.9272 76.3179 11.1035 76.641 11.4056C77.0386 11.7832 77.2622 12.2616 77.2622 12.8155V15.7109C77.2622 15.736 77.2622 15.7612 77.2622 15.7864C77.2622 16.441 77.2374 18.153 79.8965 19.3363C80.7911 19.7392 81.7354 20.1672 82.5804 20.5448C83.9969 21.1743 85.2146 21.703 85.488 21.854C85.6619 21.9296 85.7116 21.9799 85.7365 22.0051C85.7365 22.0051 85.7862 22.0806 85.7862 22.4079V26.2097C85.5128 26.1593 85.1649 26.0838 84.8418 26.0083C84.3945 25.9075 83.7732 25.7817 83.649 25.7565C83.649 25.7061 83.6241 25.6306 83.6241 25.5047C83.6241 24.7998 83.649 23.1129 83.649 23.0877V22.5086L77.3865 21.5267V25.3033C77.3865 25.9075 77.5853 28.9791 81.4124 29.9862C83.9721 30.666 86.2832 31.3206 87.4015 31.6479C87.6749 31.7234 87.8985 31.799 87.9979 31.8241C88.2216 31.8745 88.6689 32.0004 89.2156 32.0004C89.8121 32.0004 90.3339 31.8745 90.7316 31.6227C91.6511 31.0437 92.1232 29.9862 92.1232 28.3749V22.3828C92.0487 20.8973 91.8747 19.7644 89.6133 18.6817ZM70.13 17.4732C69.7075 17.4481 68.1916 17.3222 67.3466 17.2718V13.7974C68.2164 13.8226 69.7075 13.8729 70.13 13.8729V17.4732Z" fill="#D71819"/>
<path d="M19.085 10.1973H1.31641L4.29854 14.0997L10.2131 13.7976V30.3641C11.903 29.8857 13.6177 29.4577 15.3573 29.08V13.571L19.1098 13.4199V10.1973H19.085Z" fill="#06141F"/>
<path d="M26.8386 10.1973H19.8555C19.8555 10.1973 21.769 10.5749 21.769 13.0171C21.769 15.0564 21.769 24.5985 21.769 27.7205C23.4837 27.4184 25.1736 27.1414 26.8386 26.8896V10.1973Z" fill="#06141F"/>
<path d="M37.6491 17.2972V20.0667L39.6371 19.966V22.811C37.6988 22.8361 36.3568 22.9872 35.8101 23.0375C35.2633 23.0879 35.2633 22.7606 35.2633 22.5088C35.2633 22.2571 35.2633 13.6717 35.2633 13.4199C35.2633 13.1933 35.3379 12.9667 35.6858 12.9667C36.0089 12.9667 38.5437 12.9416 38.991 12.9164C39.4632 12.9164 39.5377 13.0423 39.5377 13.294C39.5377 13.5458 39.5377 14.9305 39.5377 14.9305L44.6819 14.8802V12.5891C44.6819 10.7008 42.7187 10.1973 41.4264 10.1973H28.2305C28.2305 10.1973 30.1689 10.7008 30.1689 12.7905L30.144 24.0446C30.144 25.0014 30.9392 26.235 33.0764 26.0588C38.3449 25.5804 41.5507 25.379 44.6819 25.3287V17.1461C40.8797 17.1965 37.6491 17.2972 37.6491 17.2972Z" fill="#06141F"/>
<path d="M52.0382 22.6851V19.2358L58.2013 19.3365V16.5419L52.0382 16.416V12.8912L58.8226 12.9667V10.1973H44.9805C46.6952 10.6253 47.0928 11.7079 47.0928 12.4632C47.0928 13.2185 47.0928 25.2783 47.0928 25.2783C52.3613 25.2783 58.9965 25.7063 58.9965 25.7063V23.0124C54.9209 22.6599 52.0382 22.6851 52.0382 22.6851Z" fill="#06141F"/>
<path d="M73.9572 21.3001C75.1252 21.2246 75.8707 20.3182 75.8707 19.1601C75.8707 18.153 75.8707 13.2183 75.8707 13.2183C75.8707 10.5747 73.6838 10.1719 71.6957 10.1719H59.5684C59.5684 10.1719 61.631 10.6251 61.631 12.3875C61.631 14.9555 61.631 25.9327 61.631 25.9327C61.631 25.9327 63.7682 26.1341 66.7006 26.5369V20.6707C66.7006 20.6707 67.8438 20.7714 69.2106 20.9225L71.5963 27.2923C73.3359 27.5944 75.1003 27.9217 76.7157 28.2993L73.9572 21.3001ZM70.8011 17.5991C70.8011 18.0775 70.5774 18.153 70.1798 18.1278C69.7822 18.1026 66.7006 17.8509 66.7006 17.8509V13.1176C66.7006 13.1176 69.6828 13.1931 70.2047 13.2183C70.7265 13.2183 70.8011 13.4952 70.8011 13.8225C70.8011 14.1247 70.8011 17.1207 70.8011 17.5991Z" fill="#06141F"/>
<path d="M82.9277 23.0627L77.9824 22.2822C77.9824 22.2822 77.9824 24.4978 77.9824 25.2783C77.9824 26.084 78.3303 28.4758 81.5112 29.3318C84.717 30.1626 87.5252 30.9935 88.0968 31.1697C88.6684 31.3208 89.6873 31.4215 90.3085 31.0438C90.9298 30.641 91.3771 29.8857 91.3771 28.3499C91.3771 26.8141 91.3771 23.6418 91.3771 22.3829C91.3771 21.1241 91.3026 20.2177 89.3145 19.2862C87.3512 18.3546 83.7975 16.7433 83.4496 16.5671C83.1017 16.3908 82.8035 16.2146 82.8035 15.56C82.8035 14.9054 82.8035 14.5277 82.8035 14.2256C82.8035 13.8983 82.9029 13.6969 83.3751 13.6969C83.8721 13.722 91.5759 14.0997 91.5759 14.0997L94.5829 10.1973H75.8203C75.8203 10.1973 76.4913 10.4239 76.9883 10.9022C77.4853 11.3554 77.8084 12.01 77.8084 12.8157C77.8084 13.6465 77.8084 15.1823 77.8084 15.711C77.8084 16.2649 77.6593 17.6748 80.0699 18.7323C82.4804 19.8149 85.2389 20.9982 85.7111 21.25C86.1832 21.5018 86.3572 21.6276 86.3572 22.3829C86.3572 23.1383 86.3572 26.0336 86.3572 26.3861C86.3572 26.7386 86.3572 27.0155 85.7608 26.8645C85.1643 26.7134 83.5739 26.4113 83.3254 26.3357C83.0768 26.2602 82.878 26.1847 82.878 25.4545C82.9277 24.7748 82.9277 23.0627 82.9277 23.0627Z" fill="#06141F"/>
<path d="M80.8898 5.56434C80.8898 5.61469 80.8898 5.63987 80.9395 5.63987C80.9644 5.63987 80.9892 5.61469 81.0141 5.61469L89.2398 0.20163C89.3889 0.100922 89.5132 0.0505677 89.712 0.0505677H91.5261C91.7995 0.0505677 91.9983 0.226807 91.9983 0.528931V4.02854C91.9983 4.45655 91.8989 4.70832 91.5261 4.90973L89.3392 6.24412C89.3143 6.26929 89.2895 6.26929 89.2646 6.26929C89.2398 6.26929 89.2149 6.24412 89.2149 6.16859V2.11508C89.2149 2.06473 89.2149 2.03955 89.1652 2.03955C89.1404 2.03955 89.1155 2.06473 89.0907 2.06473L83.0767 6.01752C82.9027 6.11823 82.7785 6.16859 82.6294 6.16859H78.6532C78.3798 6.16859 78.181 5.99235 78.181 5.69022V0.654816C78.181 0.604462 78.1562 0.579285 78.1313 0.579285C78.1065 0.579285 78.1065 0.579285 78.0568 0.604462L74.0806 3.02146C74.0309 3.04663 74.0309 3.04663 74.0309 3.07181C74.0309 3.09699 74.0309 3.09699 74.0806 3.12216L76.9136 5.99235C76.9633 6.01752 76.9882 6.06788 76.9882 6.09305C76.9882 6.11823 76.9385 6.14341 76.8888 6.14341H74.3042C74.1054 6.14341 73.9563 6.11823 73.8321 6.01752L72.1174 4.28031C72.0925 4.25513 72.0925 4.25513 72.0676 4.25513C72.0428 4.25513 72.0428 4.25513 72.0179 4.28031L69.1352 6.0427C68.9613 6.14341 68.837 6.16859 68.663 6.16859H66.0288C65.7555 6.16859 65.5566 5.99235 65.5566 5.69022V2.26615C65.5566 1.83814 65.6561 1.61154 66.0288 1.38495L68.2406 0.0505677C68.2654 0.0253906 68.2903 0.0253906 68.2903 0.0253906C68.3151 0.0253906 68.34 0.0757447 68.34 0.126099V4.73349C68.34 4.78385 68.3648 4.80903 68.3897 4.80903C68.4145 4.80903 68.4394 4.78385 68.4642 4.78385L75.9196 0.251984C76.0935 0.151276 76.1929 0.126099 76.4166 0.126099H80.4425C80.7159 0.126099 80.9147 0.302338 80.9147 0.604462V5.56434H80.8898Z" fill="#06141F"/>
</g>
<defs>
<clipPath id="clip0_4226_2568">
<rect width="96" height="32" fill="white"/>
</clipPath>
</defs>
</svg>
