<svg width="100" height="80" viewBox="0 0 100 80" fill="none" xmlns="http://www.w3.org/2000/svg">
<path d="M51.6231 75.405C36.1623 75.6095 22.7578 66.1588 17.044 52.5996C17.2939 52.4976 17.5329 52.365 17.7619 52.2111C23.3227 65.5169 36.4401 74.7794 51.6121 74.5775C68.0388 74.353 81.7628 63.1254 86 47.931C86.2545 48.028 86.519 48.0958 86.7885 48.1332C82.4509 63.6642 68.3974 75.1756 51.6231 75.405ZM14.1047 38.4955C13.841 17.882 30.2362 0.87963 50.6524 0.594826C70.6952 0.342747 87.2787 16.2911 88.1358 36.3693C87.8686 36.3016 87.5927 36.2647 87.3114 36.2608C86.4007 16.6566 70.2486 1.17609 50.6626 1.42234C30.6586 1.70131 14.666 18.2874 14.9249 38.4851C14.9361 39.3405 14.9788 40.1881 15.0474 41.0283C14.7716 41.0767 14.502 41.1565 14.2439 41.2661C14.1636 40.3446 14.1172 39.4205 14.1047 38.4955ZM91.8299 42.2103C91.8299 39.5955 90.533 37.3796 88.7321 36.5796C87.9818 16.0728 71.0836 -0.254075 50.6447 0.00318859C29.9054 0.292529 13.2511 17.5635 13.5186 38.5033C13.5324 39.5343 13.5885 40.5555 13.6828 41.5648C12.154 42.5288 11.0977 44.5613 11.0977 46.9204C11.0977 50.2084 13.1452 52.8741 15.671 52.8741C15.9479 52.8741 16.2177 52.8368 16.4813 52.7749C22.2718 66.5787 35.9038 76.2056 51.6311 75.9967C68.7204 75.7634 83.0306 64.0022 87.3916 48.1552C89.8542 48.0615 91.8299 45.439 91.8299 42.2103Z" fill="#BEC0C2"/>
<path d="M26.8633 30.8755C30.7643 17.3876 44.7582 9.64252 58.1207 13.586C71.4784 17.5257 79.1422 31.658 75.2415 45.1504C71.3385 58.6392 57.3441 66.3795 43.9835 62.4405C30.628 58.4979 22.9604 44.3689 26.8633 30.8755Z" fill="white"/>
<path d="M64.5457 20.7968L65.2886 18.2171L65.9786 17.9135L63.4265 16.5611C63.1933 16.434 63.0088 16.5134 62.9456 16.6375L62.8696 16.8008C62.8022 16.9333 62.8783 17.1401 63.0858 17.2492L65.0689 18.3058L64.3917 18.6078L63.838 20.5788C63.7691 20.8072 63.8605 21.0029 64.0032 21.0512L64.1662 21.1014C64.2955 21.1403 64.4764 21.0551 64.5457 20.7968Z" fill="#BEC0C2"/>
<path d="M61.9384 21.703L62.8504 19.1884L63.5561 18.9373L61.1034 17.3995C60.8779 17.2573 60.6899 17.3224 60.6177 17.4417L60.5311 17.593C60.4564 17.7262 60.5157 17.9348 60.7162 18.0592L62.6236 19.2568L61.9303 19.5085L61.2387 21.4318C61.1579 21.6586 61.2349 21.8612 61.3709 21.9172L61.5332 21.9788C61.6612 22.028 61.8473 21.9545 61.9384 21.703Z" fill="#BEC0C2"/>
<path d="M59.2707 22.4147L60.3485 19.9759L61.0741 19.7741L58.7276 18.063C58.514 17.9065 58.3209 17.9538 58.2416 18.0688L58.1416 18.2188C58.061 18.3416 58.1063 18.5542 58.2971 18.6932L60.1185 20.0271L59.4115 20.2283L58.5919 22.0962C58.496 22.3159 58.5608 22.5226 58.6914 22.59L58.8492 22.6626C58.9749 22.7216 59.1661 22.6616 59.2707 22.4147Z" fill="#BEC0C2"/>
<path d="M56.56 22.9351L57.8011 20.5773L58.536 20.4289L56.3108 18.5532C56.1119 18.377 55.9149 18.4159 55.8264 18.527L55.7176 18.6644C55.6252 18.7801 55.6592 18.9984 55.8408 19.1488L57.5702 20.6117L56.8477 20.763L55.9046 22.5674C55.7943 22.7741 55.8437 22.9883 55.9727 23.0592L56.1247 23.1506C56.2444 23.2148 56.4381 23.1736 56.56 22.9351Z" fill="#BEC0C2"/>
<path d="M53.8218 23.2522L55.2214 20.9919L55.9647 20.9006L53.8661 18.8638C53.6788 18.6756 53.4834 18.6976 53.3875 18.801L53.2698 18.9316C53.1707 19.0437 53.1909 19.2598 53.358 19.4244L54.986 21.0101L54.2559 21.1079L53.1963 22.8342C53.0706 23.0406 53.1059 23.2564 53.2239 23.3378L53.3737 23.4333C53.4876 23.5105 53.6833 23.479 53.8218 23.2522Z" fill="#BEC0C2"/>
<path d="M51.0698 23.3657L52.6124 21.2153L53.3659 21.1809L51.4095 18.9968C51.235 18.7969 51.0309 18.8017 50.9337 18.8973L50.8048 19.0195C50.7018 19.1231 50.7044 19.3428 50.8619 19.5162L52.3789 21.2205L51.6462 21.2626L50.4686 22.9092C50.3307 23.1 50.3522 23.3168 50.4686 23.4091L50.6065 23.5177C50.7153 23.5997 50.9145 23.5864 51.0698 23.3657Z" fill="#BEC0C2"/>
<path d="M48.3131 23.2833L50.0001 21.2507L50.752 21.2666L48.9489 18.9474C48.7866 18.7335 48.5851 18.7274 48.4802 18.8145L48.3465 18.9279C48.2335 19.0229 48.222 19.2422 48.3683 19.4272L49.764 21.2368L49.0278 21.2245L47.7485 22.7814C47.5961 22.9609 47.6013 23.1796 47.7094 23.281L47.8419 23.3983C47.9423 23.4906 48.1424 23.4893 48.3131 23.2833Z" fill="#BEC0C2"/>
<path d="M45.5696 22.9972L47.3901 21.094L48.1394 21.1636L46.4951 18.7196C46.3498 18.4964 46.1518 18.4744 46.0418 18.5524L45.8978 18.6558C45.7765 18.7404 45.7499 18.9613 45.8865 19.1561L47.1556 21.0596L46.4258 20.9964L45.0394 22.4525C44.8751 22.623 44.8671 22.8443 44.9698 22.9544L45.092 23.0746C45.1901 23.1757 45.3871 23.1916 45.5696 22.9972Z" fill="#BEC0C2"/>
<path d="M42.8502 22.5109L44.7948 20.7487L45.538 20.8724L44.0644 18.3134C43.9328 18.0791 43.7359 18.0422 43.6194 18.1145L43.468 18.2029C43.3455 18.2839 43.3073 18.4987 43.4263 18.7035L44.5657 20.6965L43.8382 20.5779L42.3578 21.9336C42.1849 22.0878 42.1615 22.3055 42.2564 22.4186L42.3706 22.5563C42.4598 22.6619 42.6584 22.6917 42.8502 22.5109Z" fill="#BEC0C2"/>
<path d="M40.1708 21.8276L42.2299 20.2101L42.96 20.3883L41.6611 17.7311C41.5505 17.4839 41.3535 17.4353 41.2326 17.4972L41.0783 17.5779C40.9503 17.6479 40.8967 17.8568 41.0013 18.0723L42.0053 20.1447L41.2865 19.97L39.7185 21.2133C39.5331 21.3574 39.4978 21.5739 39.5831 21.6931L39.688 21.837C39.7695 21.952 39.968 21.9948 40.1708 21.8276Z" fill="#BEC0C2"/>
<path d="M37.5449 20.9529L39.7077 19.4884L40.4262 19.7227L39.3096 16.9718C39.2108 16.7233 39.0209 16.6582 38.8951 16.7117L38.7357 16.7791C38.6042 16.8387 38.5317 17.0447 38.626 17.2677L39.4857 19.4035L38.7864 19.1822L37.1343 20.3069C36.9396 20.4352 36.8845 20.6474 36.9663 20.7773L37.0612 20.9241C37.1343 21.0424 37.3291 21.101 37.5449 20.9529Z" fill="#BEC0C2"/>
<path d="M34.9811 19.8845L37.2397 18.5803L37.9384 18.8684L37.0101 16.0475C36.9299 15.788 36.7461 15.7076 36.6133 15.753L36.4519 15.8104C36.3156 15.8616 36.2302 16.0621 36.3079 16.287L37.0229 18.4844L36.3351 18.2084L34.6177 19.2108C34.4149 19.3246 34.3492 19.5329 34.4156 19.6625L34.5006 19.8196C34.5676 19.9476 34.7562 20.017 34.9811 19.8845ZM36.0888 55.7831L35.7058 58.2481L35.0873 58.6243L37.6699 59.5241C37.9047 59.6096 38.0706 59.5134 38.1132 59.3886L38.1684 59.2318C38.2133 59.1012 38.1196 58.925 37.9086 58.8482L35.9008 58.1409L36.5019 57.7718L36.79 55.8903C36.824 55.6693 36.7133 55.5005 36.5757 55.4782L36.4131 55.4516C36.2838 55.4331 36.1218 55.5371 36.0888 55.7831Z" fill="#BEC0C2"/>
<path d="M38.4488 54.6037L37.891 57.0387L37.252 57.3653L39.764 58.4481C39.9937 58.5508 40.165 58.4663 40.2182 58.3454L40.2817 58.1908C40.3382 58.0632 40.2538 57.8782 40.0498 57.7897L38.0953 56.9415L38.7247 56.6178L39.1369 54.7596C39.1901 54.5438 39.0916 54.3675 38.9511 54.3322L38.7933 54.2975C38.6682 54.2684 38.5008 54.3604 38.4488 54.6037Z" fill="#BEC0C2"/>
<path d="M40.8845 53.5944L40.1608 55.981L39.502 56.259L41.9335 57.5207C42.1555 57.639 42.3306 57.5661 42.3932 57.451L42.4663 57.3052C42.5305 57.1773 42.4615 56.9877 42.2639 56.8866L40.3735 55.9026L41.0209 55.6243L41.5665 53.7998C41.6313 53.5846 41.5453 53.4025 41.4129 53.3604L41.255 53.3141C41.1293 53.2755 40.9541 53.3559 40.8845 53.5944Z" fill="#BEC0C2"/>
<path d="M43.3854 52.7618L42.5017 55.0888L41.8203 55.3241L44.1598 56.7526C44.3715 56.8832 44.5521 56.8268 44.6204 56.7167L44.7077 56.5705C44.7782 56.4513 44.7215 56.2582 44.5322 56.1412L42.7169 55.0263L43.379 54.7933L44.0501 53.0126C44.1299 52.8029 44.0562 52.6157 43.9285 52.5616L43.7723 52.5058C43.6507 52.4592 43.4707 52.5266 43.3854 52.7618Z" fill="#BEC0C2"/>
<path d="M45.9398 52.1039L44.8957 54.3651L44.2031 54.5508L46.4338 56.1394C46.6353 56.2907 46.821 56.2431 46.898 56.1339L46.9933 56.0001C47.0741 55.8873 47.0295 55.6871 46.8477 55.5598L45.1119 54.3191L45.792 54.1332L46.5859 52.4C46.678 52.203 46.6202 52.007 46.4935 51.9497L46.3424 51.8761C46.225 51.8233 46.0419 51.8755 45.9398 52.1039Z" fill="#BEC0C2"/>
<path d="M48.5331 51.6308L47.3317 53.813L46.6289 53.9471L48.7467 55.6936C48.9379 55.8556 49.1233 55.8245 49.208 55.7195L49.3122 55.5918C49.4008 55.4823 49.3693 55.2843 49.199 55.1408L47.555 53.7793L48.2453 53.6442L49.1547 51.9768C49.2619 51.7789 49.2157 51.5812 49.0983 51.5135L48.9507 51.4354C48.8365 51.3706 48.6521 51.4118 48.5331 51.6308Z" fill="#BEC0C2"/>
<path d="M51.1508 51.3452L49.8048 53.4366L49.0879 53.5189L51.0816 55.4105C51.2596 55.5852 51.4533 55.5667 51.5419 55.4724L51.6564 55.3515C51.7488 55.2492 51.734 55.0437 51.5733 54.8947L50.0278 53.4172L50.722 53.3301L51.7491 51.7317C51.8694 51.5454 51.8367 51.3442 51.7206 51.2684L51.5829 51.1757C51.4726 51.1067 51.2853 51.1339 51.1508 51.3452Z" fill="#BEC0C2"/>
<path d="M53.7834 51.2421L52.2944 53.2331L51.5742 53.2694L53.4319 55.2942C53.599 55.4824 53.7899 55.4759 53.8855 55.3878L54.007 55.2734C54.1084 55.1795 54.1055 54.9757 53.956 54.8133L52.5192 53.2315L53.2221 53.1933L54.3525 51.6708C54.486 51.4958 54.4674 51.292 54.3602 51.2048L54.2261 51.1064C54.1244 51.026 53.9345 51.0406 53.7834 51.2421Z" fill="#BEC0C2"/>
<path d="M56.4165 51.3285L54.7924 53.2081L54.0723 53.1935L55.7843 55.3482C55.9363 55.5435 56.1272 55.552 56.2266 55.4723L56.3594 55.3663C56.4691 55.2814 56.481 55.0744 56.3399 54.903L55.017 53.2233L55.7176 53.2363L56.9545 51.798C57.1004 51.6305 57.0953 51.4238 56.9917 51.3291L56.8672 51.2255C56.7681 51.1389 56.5785 51.137 56.4165 51.3285Z" fill="#BEC0C2"/>
<path d="M59.0381 51.5989L57.2892 53.3573L56.5742 53.2919L58.1268 55.5635C58.2667 55.7712 58.4556 55.7923 58.564 55.7171L58.7029 55.6257C58.8158 55.5437 58.8389 55.3438 58.7135 55.1611L57.509 53.3904L58.2096 53.4532L59.5427 52.1034C59.6977 51.9482 59.7076 51.746 59.6117 51.6469L59.4933 51.5283C59.4032 51.434 59.2123 51.4204 59.0381 51.5989Z" fill="#BEC0C2"/>
<path d="M61.6345 52.0586L59.7653 53.69L59.0586 53.5701L60.4527 55.946C60.5733 56.166 60.7642 56.1988 60.8765 56.1327L61.0179 56.0487C61.1366 55.9762 61.1758 55.7792 61.0632 55.5867L59.9847 53.736L60.6798 53.849L62.1022 52.5971C62.2706 52.4529 62.2921 52.2501 62.2029 52.1435L62.0951 52.0174C62.0114 51.9167 61.8186 51.8907 61.6345 52.0586Z" fill="#BEC0C2"/>
<path d="M64.1903 52.6971L62.2117 54.193L61.5137 54.022L62.7413 56.4935C62.8494 56.7177 63.0361 56.7673 63.1513 56.709L63.2995 56.6351C63.4214 56.5706 63.4778 56.3765 63.3768 56.1773L62.4298 54.2562L63.1099 54.414L64.6185 53.2661C64.7982 53.1358 64.8367 52.9356 64.7523 52.8218L64.6532 52.6906C64.5768 52.5853 64.3872 52.5448 64.1903 52.6971Z" fill="#BEC0C2"/>
<path d="M66.6956 53.5175L64.6198 54.8706L63.9355 54.6496L64.9871 57.1996C65.0795 57.4348 65.2585 57.4951 65.3829 57.4452L65.5321 57.382C65.6604 57.3253 65.73 57.1361 65.6424 56.9319L64.8325 54.9458L65.5045 55.1551L67.0837 54.116C67.2691 53.9977 67.3211 53.8001 67.2489 53.6844L67.1591 53.5447C67.0879 53.431 66.9025 53.3801 66.6956 53.5175Z" fill="#BEC0C2"/>
<path d="M69.1417 54.5143L66.9765 55.7112L66.3086 55.4465L67.1792 58.0642C67.2559 58.304 67.4297 58.3794 67.5532 58.3386L67.712 58.2842C67.8426 58.2408 67.9231 58.0538 67.8525 57.8445L67.1827 55.8068L67.8352 56.0634L69.4879 55.1358C69.6807 55.0311 69.7464 54.8396 69.6797 54.7175L69.6014 54.5707C69.5363 54.456 69.356 54.3893 69.1417 54.5143Z" fill="#BEC0C2"/>
<path d="M33.7928 21.0028C31.2086 21.4655 29.0655 23.6496 28.9134 25.9757C28.9076 26.0649 28.9048 26.1543 28.9051 26.2436C28.9051 27.2831 29.3092 28.2169 30.0599 28.8973C30.9966 29.7446 32.3682 30.0825 33.8217 29.822C36.4046 29.3626 38.5491 27.1787 38.7027 24.8498C38.7765 23.7015 38.371 22.6646 37.5566 21.9275C36.6189 21.0789 35.2479 20.7423 33.7928 21.0028ZM8.84013 27.608L7.69269 32.1063C7.69269 32.1063 8.57034 31.8684 9.18657 31.7006C8.42439 35.1319 4.50186 52.8202 4.4762 52.9391C4.27315 53.6095 3.4035 54.1023 2.65063 54.3427L2.01099 54.5468L0 61.27L2.47901 60.2299C10.5954 56.8269 22.7329 53.5421 22.8551 53.5097L23.496 53.3367L26.3096 45.4882L23.275 46.2107C22.8631 46.3076 22.6059 46.4851 22.4387 46.6867C22.0586 47.1571 20.831 48.4454 19.6765 48.8277L14.3326 50.3143L14.3069 50.3204C14.3326 50.2048 20.3973 23.4925 20.3973 23.4925L8.84013 27.608Z" fill="#A1A1A4"/>
<path d="M27.3615 31.7757L26.2567 36.1417C26.2567 36.1417 26.9227 35.9664 27.5283 35.8051C26.8155 38.5569 25.2546 44.5922 25.2546 44.5922C25.0778 45.3212 24.9922 46.0282 24.9922 46.695C24.9922 48.1654 25.4118 49.4413 26.223 50.3492C26.9865 51.2036 28.4602 52.1452 31.1467 51.7719C33.2305 51.4849 35.1658 50.4665 36.9016 48.7428L38.0727 47.5799L34.4704 45.3958L33.7688 46.0713C33.7178 46.1215 33.6655 46.164 33.6161 46.2061C33.636 46.049 33.6674 45.8636 33.7178 45.6495C33.7143 45.6598 37.4366 30.261 37.4366 30.261L37.9951 27.9488L27.3615 31.7757Z" fill="#A1A1A4"/>
<path d="M50.0814 28.965C50.2315 28.9478 50.3929 28.9459 50.5443 28.9543L47.2864 42.2558C47.1617 42.7428 46.4251 43.164 45.576 43.2246C45.5398 43.2272 45.5029 43.2178 45.4644 43.2084C45.6347 42.5257 48.8339 29.6205 48.8506 29.5518C48.9705 29.3658 49.5794 29.022 50.0814 28.965ZM50.8715 23.9739C44.7311 24.738 40.1028 28.4398 38.7979 33.6327L36.9694 41.1053L36.9765 41.0739C36.3285 43.4599 36.58 45.344 37.7258 46.6744C39.0494 48.2092 41.3609 48.7704 44.598 48.3437C50.7685 47.5291 55.3368 44.1357 56.5237 39.4862C56.5243 39.481 58.5911 31.2181 58.5911 31.2181C59.1714 28.8111 58.8789 26.9341 57.7282 25.6257C56.4047 24.1278 54.0989 23.5706 50.8715 23.9739ZM76.1796 18.6531C74.9065 18.8608 73.4244 19.3853 72.0845 20.055C72.2003 19.5901 72.3254 19.0914 72.3254 19.0914L61.5917 23.1231L60.5636 27.4603L61.8387 27.0715L57.5534 44.799L66.6171 42.5585L70.2856 27.2257C70.4931 26.3191 70.9406 25.7511 71.7159 25.4087L69.542 34.6501C69.5455 34.6377 69.4224 35.1225 69.4224 35.1225C68.9389 36.9939 68.2784 39.5585 69.6713 41.1416C70.4405 42.0167 71.6341 42.3501 73.2185 42.1311C76.0212 41.7423 78.4867 40.2668 80.5493 37.7421L81.4668 36.6207C81.4668 36.6207 78.3802 34.6436 78.0886 34.4582C78.7757 31.5622 80.4704 24.4117 80.4704 24.4117C80.6424 23.7024 80.7302 23.0505 80.7302 22.456C80.7302 21.3197 80.4117 20.3969 79.7798 19.7028C78.9528 18.7969 77.6414 18.4159 76.1796 18.6531ZM6.96986 66.1395L6.40625 64.5023L8.31715 63.6262C18.518 59.2278 32.5863 54.2827 46.915 50.0567C61.6135 45.7227 74.6713 42.7357 82.7422 41.8625L84.1767 41.7063L84.0956 45.8481L83.0861 46.0461C76.1238 47.4027 51.4974 53.1299 26.9379 69.8721L26.2531 70.3384L25.5525 69.8951C20.2249 66.5284 12.7844 66.0663 8.82367 66.0896C8.23696 66.0806 6.96986 66.1395 6.96986 66.1395Z" fill="#A1A1A4"/>
<path d="M89.6218 16.2458C84.428 17.3468 81.5121 21.1073 81.6243 26.5681C81.6907 29.8361 83.7005 32.5315 85.6447 35.1382C87.3128 37.3735 88.8881 39.486 88.9404 41.6093C89.0363 45.5547 87.3141 46.1101 86.7427 46.2407C85.7365 46.4688 84.9922 45.8535 84.7825 45.5952C86.5304 44.7716 88.2864 43.2037 88.2864 40.9541C88.2864 40.8074 88.279 40.6583 88.2642 40.506C88.1186 39.0548 87.4234 38.2603 86.8666 37.8472C85.6271 36.9319 84.1582 37.1506 83.738 37.239C80.68 37.8825 78.736 40.9331 79.3118 44.1845C80.244 49.449 85.1157 51.0723 89.2487 50.3497C92.2397 49.8268 94.7389 48.3075 96.2844 46.0696C97.8133 43.8524 98.3304 41.0802 97.778 38.0536C97.207 34.9188 95.5473 32.4476 93.9427 30.0554C92.2778 27.5748 90.7028 25.23 90.5873 22.4153C90.5498 21.5175 90.8074 20.8461 91.0784 20.5798C91.184 20.4764 91.252 20.4706 91.3165 20.4748C91.4137 20.4816 91.6408 20.4981 91.8833 20.8698C92.4235 21.7005 92.4976 23.42 92.0504 24.7038L91.9016 25.1318L92.6711 27.3289L99.9991 23.8678L99.8964 22.9535C99.6565 20.7528 98.569 18.8463 96.8391 17.5785C94.882 16.1483 92.3196 15.6752 89.6218 16.2458Z" fill="#A1A1A4"/>
<path d="M33.9506 21.9104C31.7991 22.2947 29.947 24.1464 29.8241 26.0373C29.8191 26.1045 29.8169 26.1718 29.8174 26.2392C29.8174 27.0149 30.115 27.7082 30.6681 28.2092C31.3946 28.8672 32.4853 29.1242 33.6616 28.9132C35.8137 28.5302 37.6659 26.6795 37.7907 24.7873C37.8465 23.93 37.5463 23.1578 36.9455 22.6145C36.2195 21.9554 35.1282 21.6995 33.9506 21.9104ZM9.60229 28.3138L8.96682 30.8035C8.96682 30.8035 9.99846 30.5239 10.4065 30.4118C10.1611 31.5209 5.36379 53.1511 5.35545 53.1864C4.99264 54.4393 3.53437 55.0281 2.92456 55.2218L2.74396 55.2798L1.43164 59.6695L2.1287 59.3776C10.3019 55.9512 22.4955 52.6508 22.6174 52.6184L22.7986 52.5682L24.8744 46.7772L23.7879 47.0344C23.3209 47.1456 23.148 47.188 23.0934 47.3319C22.8105 47.6662 21.4366 49.2225 19.9466 49.7085L14.5439 51.2109C14.005 51.3421 13.6098 51.322 13.4446 51.1532C13.2961 50.9996 13.2801 50.6549 13.3997 50.1793C13.4026 50.1702 19.135 24.9201 19.135 24.9201L9.60229 28.3138ZM28.1233 32.478L27.5231 34.8523C27.5231 34.8523 28.4604 34.6048 28.8046 34.5134C28.5281 35.5791 26.1415 44.8046 26.1415 44.8046C25.9805 45.4678 25.9025 46.1048 25.9025 46.7007C25.9025 47.9387 26.2419 48.9947 26.9005 49.7318C27.5151 50.4197 28.7315 51.1749 31.0209 50.8584C32.9042 50.5979 34.6679 49.6647 36.2603 48.0845L36.5904 47.7583L34.5948 46.5481L34.3994 46.7386C33.9731 47.1478 33.5474 47.384 33.1317 47.4404C32.9386 47.4683 32.8757 47.3986 32.8478 47.3688C32.6746 47.1773 32.5665 46.5588 32.8276 45.4383L36.7042 29.3915L28.1233 32.478ZM47.9724 29.2897C48.1283 28.6543 49.2625 28.1307 49.9766 28.0478C50.5778 27.9794 51.4028 28.0724 51.6027 28.3025C51.6225 28.3242 51.6335 28.3426 51.6209 28.3971L48.1716 42.4772C47.9435 43.3673 46.9026 44.0535 45.639 44.1446C45.2573 44.1715 44.8409 44.0153 44.6205 43.7648C44.5268 43.6569 44.4822 43.5465 44.4822 43.4285C44.4822 43.3984 44.4858 43.367 44.4922 43.3342C44.498 43.308 47.9724 29.2897 47.9724 29.2897ZM50.9835 24.8884C45.2233 25.6061 40.8924 29.0425 39.6817 33.8602L37.8552 41.3263C37.2938 43.388 37.4815 44.9847 38.4134 46.0676C39.5082 47.3374 41.6048 47.8075 44.4794 47.4291C50.2717 46.6634 54.5478 43.5341 55.6378 39.2556L57.7062 30.9914C58.2076 28.9042 57.9862 27.3065 57.0444 26.2405C55.9342 24.9798 53.8934 24.5255 50.9835 24.8884ZM76.3257 19.563C74.5293 19.8565 72.2152 20.86 70.661 21.9632L71.0116 20.5697L62.3655 23.8159L61.8205 26.1135C61.8205 26.1135 62.7617 25.8277 63.104 25.7227L58.7962 43.5416L65.8601 41.7968L69.3981 27.0074C69.6964 25.6981 70.4486 24.8544 71.6949 24.4244C72.1783 24.2592 72.5507 24.3288 72.7056 24.4733C72.7406 24.5054 72.8474 24.6052 72.7797 24.8706L70.4294 34.8627C70.4316 34.8598 70.3046 35.3542 70.3046 35.3542C69.8744 37.0261 69.2855 39.3146 70.3517 40.5286C70.9073 41.1611 71.829 41.3911 73.0938 41.2162C75.6617 40.8611 77.9334 39.4947 79.8447 37.1547L80.1026 36.8398L78.0573 35.5295L77.8622 35.8091C77.4009 36.4649 76.8819 36.7588 76.6705 36.7296C76.6584 36.6923 76.6528 36.6532 76.6542 36.614C76.6542 36.5537 76.6625 36.4772 76.6891 36.3923L76.6933 36.38L79.5803 24.1969C79.7372 23.5574 79.8142 22.9764 79.8142 22.4586C79.8142 21.5585 79.5797 20.8451 79.1078 20.3279C78.4929 19.655 77.4786 19.3754 76.3257 19.563ZM82.8379 42.7795C74.819 43.6466 61.8196 46.6223 47.1698 50.9423C32.8757 55.1573 18.844 60.0904 8.67523 64.4739L8.29382 64.6408L8.44202 65.1582L8.81702 65.167C12.8775 65.1414 20.5124 65.6225 26.0363 69.1144L26.2342 69.2397L26.4254 69.1079C51.1289 52.2668 75.9054 46.5047 82.9113 45.1403L83.1962 45.0845L83.2418 42.7355L82.8379 42.7795Z" fill="white"/>
<path d="M89.8098 17.1497C85.0173 18.1645 82.4347 21.5024 82.5373 26.5495C82.5976 29.52 84.5181 32.0939 86.3748 34.5827C88.134 36.9398 89.7947 39.168 89.8524 41.5881C89.9281 44.6918 88.9591 46.5289 86.9715 47.0479C86.2128 47.2446 85.2444 47.0479 84.5027 46.5418C83.9667 46.177 83.6132 45.6809 83.4608 45.1272C85.1372 44.6046 87.3731 43.1384 87.3731 40.9352C87.3731 40.824 87.3676 40.7136 87.3564 40.6002C87.2666 39.7062 86.9195 39.0303 86.328 38.5916C85.5851 38.0434 84.5999 37.9997 83.9257 38.1422C81.3119 38.6924 79.7147 41.2197 80.2113 44.0204C81.0341 48.6664 85.3919 50.0865 89.0928 49.4414C91.8426 48.9615 94.1297 47.5771 95.5341 45.5419C96.9228 43.5308 97.3886 41.001 96.8801 38.2203C96.3435 35.277 94.7392 32.8865 93.1866 30.5721C91.4461 27.98 89.8001 25.5321 89.6744 22.4547C89.6304 21.3987 89.9249 20.427 90.4407 19.9196C90.7118 19.6536 91.0284 19.5318 91.3803 19.5557C91.8948 19.5927 92.3205 19.8632 92.6461 20.3632C93.3454 21.4405 93.4606 23.4374 92.9114 25.0105L92.8703 25.1303L93.1963 26.0625L99.0185 23.312L98.9899 23.0547C98.7776 21.1162 97.8229 19.4381 96.3021 18.3265C94.5577 17.0502 92.2525 16.6319 89.8098 17.1497Z" fill="white"/>
<path d="M37.4348 24.7652C37.3193 26.5022 35.6035 28.2026 33.6011 28.5574C31.5972 28.9171 30.0664 27.7976 30.1809 26.0609C30.2945 24.321 32.0117 22.6229 34.0149 22.2665C36.0176 21.9071 37.548 23.0266 37.4348 24.7652ZM23.4285 47.4919L24.3151 47.2806L22.5268 52.2704C22.5268 52.2704 10.2841 55.5681 1.99219 59.0435L3.03345 55.5681C4.16581 55.2065 5.36201 54.4613 5.7014 53.2839L10.8862 29.9079L9.46738 30.2954L9.90044 28.5898L18.6427 25.4771L13.0553 50.0904C12.7281 51.3832 13.2898 51.8858 14.641 51.5592L20.0583 50.0519C21.8457 49.468 23.4285 47.4919 23.4285 47.4919ZM34.6459 46.9991C34.1872 47.4423 33.6967 47.7287 33.1793 47.799C32.2747 47.928 32.1557 46.7564 32.4806 45.356L36.2017 29.9562L28.424 32.7553L28.0221 34.3491L29.3068 34.0076L26.4884 44.8959C25.7323 48.0291 26.7553 51.0848 30.9726 50.5006C32.8954 50.234 34.5737 49.2519 36.0108 47.8272L34.6459 46.9991ZM57.3605 30.9036C58.4926 26.196 55.6886 24.6657 51.0276 25.2464C45.6536 25.9174 41.2582 29.0629 40.0293 33.9483L38.2037 41.4135C36.9309 46.0899 39.7781 47.6843 44.4336 47.0713C49.7718 46.3666 54.1777 43.5412 55.2931 39.1665L57.3605 30.9036ZM45.6658 44.5061C44.8891 44.5602 43.9903 44.0172 44.1424 43.261L47.627 29.2028C47.8298 28.3714 49.1337 27.7814 49.9376 27.6897C50.6392 27.609 52.1513 27.7037 51.9691 28.4797L48.5201 42.5647C48.2307 43.6945 46.9813 44.4112 45.6658 44.5061ZM62.6708 24.0887L62.3144 25.5856L63.6001 25.1949L59.2839 43.0504L65.5652 41.4987L69.0514 26.9231C69.413 25.3484 70.3625 24.5024 71.5805 24.0816C72.5271 23.7566 73.3336 24.1415 73.1276 24.9596L70.7779 34.9462C70.2431 37.1184 68.8121 41.4452 73.0465 40.8591C76.2068 40.422 78.3079 38.4698 79.5699 36.9246L78.1543 36.0187C77.6372 36.7545 76.9613 37.2023 76.5388 37.0704C76.2883 36.9901 76.2476 36.6142 76.3499 36.2847L79.2328 24.1123C80.1361 20.418 78.1245 19.6352 76.3829 19.9206C74.2228 20.2719 71.3883 21.656 70.0561 22.9138L70.5001 21.1473L62.6708 24.0887Z" fill="#0066B3"/>
<path d="M89.5019 22.5706C89.4288 20.7889 90.2439 19.2048 91.5899 19.2988C93.7318 19.4495 94.2489 22.8946 93.4344 25.2333L93.5855 25.6695L98.8194 23.1992C98.3799 19.2064 94.6906 16.6273 90.0659 17.6055C85.0854 18.6595 82.9888 22.2094 83.0783 26.6441C83.1935 32.2375 90.2686 36.5027 90.3947 41.6807C90.489 45.5458 88.9611 47.0518 87.2449 47.5009C85.7055 47.902 83.4636 46.8862 83.2153 44.9756C85.0004 44.5388 87.4127 42.9994 87.184 40.7391C86.9597 38.5018 85.0296 38.4192 84.1831 38.5974C82.0341 39.0494 80.4844 41.0738 80.6804 43.5376C62.8035 46.0454 28.9623 56.3029 9 64.9099C14.6044 64.8749 21.4627 65.7831 26.4102 68.9114C46.2467 55.3892 67.4225 48.214 81.0795 45.2908C82.3155 48.6187 85.8377 49.7777 89.2168 49.189C94.2893 48.3038 97.7833 44.2601 96.7128 38.3904C95.6016 32.2886 89.7506 28.5755 89.5019 22.5706ZM34.0743 16.3973C32.8027 17.3901 31.9863 16.8195 31.3842 15.9187L32.411 15.1171C32.7738 15.5908 33.0991 15.9741 33.664 15.5335C34.0104 15.2626 34.0072 14.903 33.7496 14.5666C33.0664 13.6733 30.9566 15.2312 29.8271 13.7543C29.233 12.9777 29.1275 12.0727 30.3789 11.0962C31.3794 10.3163 32.2224 10.3824 32.9483 11.4727L31.9478 12.2532C31.6639 11.8819 31.3143 11.5517 30.8989 11.8757C30.5659 12.1353 30.5107 12.4751 30.7728 12.8186C31.4933 13.7598 33.4978 12.0646 34.6905 13.6241C35.6731 14.9094 34.8567 15.7875 34.0743 16.3973ZM36.4705 8.79182L36.4551 8.79894L37.1166 11.4918L38.2249 10.9358L36.4705 8.79182ZM36.4593 14.448L35.2381 8.06182L36.7705 7.29392L41.0394 12.1505L39.8153 12.7645L38.8963 11.6752L37.3103 12.4703L37.6071 13.8726L36.4593 14.448ZM41.9982 11.7439L40.6352 5.62819L42.6735 5.16615L44.5475 9.10901L44.5639 9.10513L44.6444 4.71772L46.615 4.26994L47.9776 10.3856L46.7449 10.6656L45.6937 5.94733L45.6767 5.95122L45.5618 10.9342L44.3547 11.2083L42.1965 6.74245L42.1798 6.7457L43.231 11.4636L41.9982 11.7439ZM51.1739 10.4747C49.5662 10.4647 49.2717 9.50755 49.3464 8.42244L50.6446 8.43152C50.6411 9.03029 50.6642 9.53348 51.377 9.53898C51.8155 9.54125 52.0317 9.25644 52.0349 8.83037C52.0413 7.70249 49.4292 7.61566 49.4407 5.74937C49.4465 4.76826 49.9158 3.99 51.4969 4.00004C52.7605 4.00782 53.3844 4.58552 53.2908 5.89549L52.0275 5.88675C52.0304 5.41856 51.9557 4.93999 51.4315 4.93739C51.0097 4.9348 50.7595 5.16712 50.7569 5.60129C50.7492 6.79073 53.3632 6.70325 53.3511 8.67387C53.3411 10.2978 52.1622 10.4812 51.1739 10.4747ZM60.0621 5.23483L59.1749 9.58855C58.9872 10.5068 58.276 11.3696 56.7273 11.0476C55.3293 10.7566 54.8052 9.88503 55.0409 8.72896L55.9282 4.37524L57.1992 4.63964L56.3295 8.9078C56.1746 9.66501 56.4341 10.0292 56.8973 10.1254C57.4529 10.2408 57.7817 9.91936 57.9206 9.23894L58.7906 4.97045L60.0621 5.23483ZM60.2591 11.821L62.7737 6.09055L64.3767 6.8079L64.1444 11.4513L64.1601 11.4587L65.9017 7.49059L67.0093 7.98665L64.495 13.7171L62.9309 13.0169L63.2222 8.13343L63.2061 8.1263L61.3674 12.317L60.2591 11.821ZM70.6284 12.6861C70.9739 12.2211 71.1965 11.7507 70.6403 11.3418C69.9868 10.8619 69.3446 11.7536 68.636 12.736C67.4931 14.322 67.4433 14.7157 68.0419 15.155C68.2155 15.2827 68.4333 15.3783 68.6335 15.4402L69.4428 14.3168L68.8728 13.8979L69.4341 13.1183L71.0534 14.309L69.2028 16.8784C68.8769 16.7245 68.0804 16.3108 67.6631 16.0046C65.8978 14.7066 66.2269 13.8211 67.6137 11.8987C68.5343 10.6205 69.5323 9.3679 71.2488 10.6299C72.2775 11.3862 72.497 12.4395 71.6703 13.453L70.6284 12.6861ZM41.4507 67.2739L42.0682 67.4722C42.2703 67.5373 42.5939 67.4919 42.73 67.0594C42.8332 66.7321 42.6886 66.4201 42.3771 66.3203L41.8083 66.1379L41.4507 67.2739ZM40.8364 69.2254L41.3499 69.3903C41.5456 69.4532 41.988 69.5886 42.184 68.9649C42.3084 68.5696 42.2376 68.2812 41.7731 68.1322L41.2348 67.9592L40.8364 69.2254ZM39.697 69.6142L41.101 65.1558L42.7396 65.682C43.4424 65.9075 43.9592 66.2983 43.6599 67.2493C43.4985 67.7622 43.1312 68.0515 42.5987 67.9896L42.5949 68.0019C43.2201 68.3049 43.257 68.7857 43.0645 69.3974C42.7088 70.5273 41.7211 70.2642 41.3297 70.1384L39.697 69.6142ZM45.8512 67.3821L45.8387 67.3795L45.0447 69.2889L45.9538 69.4558L45.8512 67.3821ZM43.3449 70.7615L45.4364 66.3906L46.6923 66.6213L47.1006 71.4517L46.0969 71.267L46.0286 70.2007L44.7281 69.9615L44.2857 70.9342L43.3449 70.7615ZM49.0651 71.6551C47.8676 71.5855 47.6841 70.8607 47.7813 70.0549L48.7485 70.1112C48.7231 70.5577 48.7209 70.9339 49.2524 70.9653C49.5793 70.9841 49.7516 70.7797 49.7698 70.4628C49.8176 69.622 47.8737 69.4564 47.9533 68.0658C47.9943 67.3345 48.3738 66.7726 49.5523 66.8413C50.4938 66.8961 50.9372 67.3503 50.8172 68.3233L49.8757 68.2686C49.8956 67.9193 49.8584 67.5606 49.4677 67.5376C49.1539 67.5192 48.9579 67.6831 48.9397 68.0065C48.889 68.8926 50.8406 68.9286 50.7566 70.3973C50.6876 71.6069 49.8019 71.6979 49.0651 71.6551ZM51.6365 71.6577L51.3914 66.9858L53.9156 66.8507L53.9538 67.5694L52.3967 67.6523L52.457 68.8045L53.8919 68.7277L53.9297 69.4457L52.4946 69.5225L52.5661 70.8879L54.1742 70.802L54.2117 71.5203L51.6365 71.6577ZM55.9423 70.558L56.4739 70.4676C56.6763 70.4333 57.1308 70.3494 57.0231 69.7039C56.9547 69.295 56.7616 69.0718 56.2808 69.1535L55.7239 69.2484L55.9423 70.558ZM55.6055 68.5388L56.2445 68.4303C56.4537 68.3946 56.7212 68.2041 56.6465 67.7573C56.59 67.4187 56.3209 67.2081 55.9982 67.2632L55.4095 67.363L55.6055 68.5388ZM55.1051 71.4296L54.3359 66.8161L56.0312 66.5277C56.7591 66.4042 57.3952 66.5128 57.5594 67.4971C57.6476 68.0272 57.4523 68.4549 56.9506 68.6451L56.9528 68.658C57.6457 68.6389 57.8965 69.0495 58.0018 69.6826C58.1971 70.8519 57.1995 71.0742 56.7943 71.1426L55.1051 71.4296ZM59.5707 66.6055L59.5585 66.609L59.7138 68.6736L60.5982 68.404L59.5707 66.6055ZM58.8653 70.767L58.754 65.9137L59.9765 65.5408L62.5197 69.6521L61.5432 69.9502L61.0004 69.0329L59.7353 69.4188L59.7805 70.4881L58.8653 70.767ZM63.1792 69.3566L61.3562 65.0557L62.2467 64.6708L63.7669 68.2569L65.1004 67.6805L65.4029 68.3953L63.1792 69.3566ZM66.0111 68.0761L63.7925 63.9693L64.6429 63.5008L66.4929 66.9252L67.7657 66.2241L68.1346 66.9061L66.0111 68.0761ZM68.671 63.7704C67.9226 62.7896 67.2105 61.8555 68.4756 60.8705C69.2587 60.2617 69.9063 60.4528 70.4828 61.2723L69.7305 61.8574C69.3546 61.3646 69.1271 61.2473 68.8987 61.4252C68.4666 61.7612 68.7242 62.2154 69.4482 63.1648C70.1729 64.1148 70.5421 64.4819 70.9742 64.1459C71.3299 63.8689 70.962 63.4188 70.749 63.1185L71.5064 62.5288C72.2621 63.5193 72.1136 64.1423 71.3973 64.7003C70.1315 65.6853 69.4113 64.7405 68.671 63.7704ZM73.1016 63.1794L69.906 59.7919L70.6076 59.1173L73.272 61.9417L74.3219 60.9311L74.8528 61.4945L73.1016 63.1794ZM73.7993 55.5632L76.313 57.6988C76.8432 58.1498 77.1512 58.9277 76.3909 59.8401C75.7054 60.6631 74.9529 60.701 74.285 60.1337L71.7717 57.9978L72.3953 57.2494L74.8595 59.3434C75.2967 59.7144 75.6252 59.6723 75.8527 59.3992C76.1253 59.0726 76.0333 58.7395 75.6403 58.4061L73.1757 56.3117L73.7993 55.5632Z" fill="#0066B3"/>
<path d="M77.7151 56.3992L78.0073 55.942C78.1186 55.768 78.3643 55.3724 77.8197 55.017C77.4745 54.7921 77.181 54.7856 76.9163 55.1997L76.61 55.6783L77.7151 56.3992ZM76.012 55.2882L76.3636 54.7387C76.4785 54.5585 76.5198 54.2313 76.1426 53.985C75.8568 53.7987 75.5212 53.857 75.3439 54.135L75.0202 54.6411L76.012 55.2882ZM77.7879 57.6113L73.8965 55.0724L74.829 53.614C75.2297 52.9884 75.7378 52.5866 76.568 53.1287C77.0151 53.4206 77.1961 53.8544 76.9968 54.357L77.0074 54.3641C77.4607 53.8344 77.93 53.9248 78.4638 54.2724C79.4499 54.9159 78.9398 55.8098 78.7169 56.1581L77.7879 57.6113Z" fill="#0066B3"/>
</svg>
