<svg width="100" height="80" viewBox="0 0 100 80" fill="none" xmlns="http://www.w3.org/2000/svg">
<g opacity="0.9">
<g clip-path="url(#clip0_4391_1887)">
<path d="M80.7693 43.5826V42.6994L83.6251 38.8903L90.4998 43.5826H80.7693ZM100 27.121H90.354L93.8163 22.5055L91.8011 19.9481C86.914 13.7153 80.6706 8.67908 73.5457 5.22245C66.4208 1.76581 58.6019 -0.0202719 50.6833 -2.35271e-05C42.7647 -0.0202719 34.9458 1.76581 27.8208 5.22245C20.6959 8.67908 14.4526 13.7153 9.56549 19.9481L7.55029 22.5055L11.0164 27.1249H0V34.5742H6.26823V51.0742H14.7935V34.9621L27.211 51.5158H21.6951L30.489 62.0063H37.1833L50.6833 80L64.1794 62.0063H70.8775L80.0515 51.0742H100V40.5337L91.137 34.4821H100V27.121Z" fill="white"/>
<path d="M50.8008 49.5986H56.4971V28.5981H50.8008V49.5986Z" fill="#C00C3F"/>
<path d="M73.7653 39.9212L65.2785 28.5974H58.9258L60.6493 30.8975V49.6016H66.1767V38.2739L74.6635 49.6016H79.2927V28.5974H73.7653V39.9212Z" fill="#C00C3F"/>
<path d="M41.5717 28.5983V41.4427L39.4068 44.3265L37.2419 41.4427V28.5983H31.822V41.4427L29.6609 44.3265L27.496 41.4427V28.5983H22.0723V42.2069L27.6189 49.5986H31.6992L34.532 45.8202L37.3686 49.5986H41.4451L46.9955 42.2069V28.5983H41.5717Z" fill="#C00C3F"/>
<path d="M50.6836 68.3613V77.5386L66.6248 56.2925H59.7386L50.6836 68.3613Z" fill="#231F20"/>
<path d="M50.6834 77.5396V68.3622L41.6284 56.2897H34.7422L50.6834 77.5396Z" fill="#C00C3F"/>
<path d="M49.7012 21.8725H45.0029V13.9662H42.7344V23.7886H49.7012V21.8725Z" fill="#6D6E71"/>
<path d="M54.8093 23.9341C56.337 23.9341 57.8225 23.5463 58.6324 22.978V18.2088H54.698V20.0443H56.5443V21.7646C56.0147 21.9355 55.4617 22.0223 54.9052 22.0218C52.867 22.0218 52.1838 20.9851 52.1838 18.877C52.1838 16.8649 52.8286 15.6822 54.8745 15.6822C56.0069 15.6822 56.6556 16.0393 57.1891 16.7189L58.6017 15.4211C57.7457 14.1923 56.2372 13.816 54.8246 13.816C51.6502 13.816 49.9805 15.5516 49.9805 18.8578C49.9805 22.1524 51.4852 23.9341 54.8093 23.9341Z" fill="#6D6E71"/>
<path d="M24.8594 52.9916L31.1775 60.5293H70.1918L76.51 52.9916H24.8594Z" fill="#6D6E71"/>
<path d="M38.9933 57.834C39.2939 58.0019 39.6317 58.0917 39.976 58.0951C40.4788 58.0951 40.6669 57.9069 40.6669 57.665C40.6669 57.4385 40.4826 57.3233 40.3943 57.2772C40.1103 57.1313 39.7764 57.0314 39.4693 56.9047C39.0163 56.6743 38.786 56.4593 38.786 55.891C38.786 55.219 39.2658 54.8158 40.1525 54.8158C40.5643 54.8048 40.9718 54.9015 41.3348 55.0961L41.0891 55.6568C40.8044 55.4928 40.481 55.4079 40.1525 55.411C39.6919 55.411 39.5077 55.58 39.5077 55.8296C39.5077 55.9524 39.546 56.0484 39.619 56.1137C39.6878 56.1739 39.7655 56.2231 39.8493 56.2596C40.0873 56.371 40.4404 56.4939 40.7321 56.6321C41.0853 56.8087 41.377 57.0276 41.377 57.6228C41.377 58.2909 40.855 58.7095 39.9875 58.7095C39.5482 58.7079 39.1155 58.6027 38.7246 58.4023L38.9933 57.834Z" fill="white"/>
<path d="M44.1074 54.8709H46.4105V55.4699H44.8291V56.4107H46.3568V56.9944H44.8291V58.0542H46.4719V58.6455H44.1074V54.8709Z" fill="white"/>
<path d="M49.9128 56.8039C49.9128 57.5258 50.1009 58.121 50.7343 58.121C51.4789 58.121 51.7016 57.618 51.7016 56.7041C51.7016 55.9899 51.5212 55.387 50.8801 55.387C50.1585 55.387 49.9128 55.9015 49.9128 56.8039ZM52.4501 56.777C52.4501 58.0634 51.8935 58.7085 50.7496 58.7085C49.5712 58.7085 49.1797 57.9444 49.1797 56.7386C49.1797 55.4484 49.7248 54.8149 50.8725 54.8149C52.0355 54.8149 52.4501 55.5636 52.4501 56.777Z" fill="white"/>
<path d="M55.2051 54.8706H55.9229V57.1975C55.9229 57.7774 56.1033 58.1268 56.5754 58.1268C57.132 58.1268 57.3316 57.8503 57.3316 57.0977V54.8706H58.0494V57.1476C58.0494 58.2381 57.5197 58.7104 56.5831 58.7104C55.6542 58.7104 55.2051 58.2458 55.2051 57.1054V54.8706Z" fill="white"/>
<path d="M60.9473 54.8709H61.6689V58.0542H63.1314V58.6455H60.9473V54.8709Z" fill="white"/>
<path d="M50.6834 6.9829V1.47267C42.9877 1.45383 35.3889 3.1905 28.4649 6.55065C21.5408 9.91081 15.4737 14.806 10.7249 20.8641L9.41211 22.5267L11.4196 25.2031H18.3059L16.3905 22.6534C20.6386 17.7219 25.903 13.768 31.8223 11.0631C37.7416 8.35822 44.1758 6.96631 50.6834 6.9829Z" fill="#C00C3F"/>
<path d="M91.9568 22.5282L90.644 20.8655C85.894 14.8078 79.8262 9.91293 72.9016 6.55283C65.977 3.19274 58.3779 1.45585 50.6816 1.47414V6.98436C63.9513 6.98436 76.3342 12.6674 84.9746 22.6511L83.0631 25.2046H89.9493L91.9568 22.5282Z" fill="#231F20"/>
<path d="M1.47266 33.0982H7.74473V49.6021H13.3182V33.0982H19.5864V28.5979H1.47266V33.0982Z" fill="#C00C3F"/>
<path d="M98.527 33.0051V28.5969H82.9389V36.6376L92.9574 43.4726V45.0585H82.5781V49.6011H98.527V41.3108L88.4433 34.4297V33.0051H98.527Z" fill="#C00C3F"/>
</g>
</g>
<defs>
<clipPath id="clip0_4391_1887">
<rect width="100" height="80" fill="white"/>
</clipPath>
</defs>
</svg>
