<svg width="100" height="80" viewBox="0 0 100 80" fill="none" xmlns="http://www.w3.org/2000/svg">
<g clip-path="url(#clip0_4172_1823)">
<path d="M22.3826 3V19.4176L0 19.3996L5.98577 27.4242L10.7872 27.1763L10.7825 44.4147L22.3826 41.6095V58.2155L49.9855 78.0001L77.6056 58.2069V41.6413L89.623 44.926C93.2681 45.0165 94.2064 42.9694 94.447 41.6009C94.5634 40.9235 94.6355 40.1972 94.6612 39.6079C94.6865 39.1901 94.6919 38.7751 94.6923 38.3667C94.6927 37.8071 94.6915 37.0706 94.69 36.3364C94.6872 34.8681 94.6822 33.4099 94.6822 33.4091V33.4084C94.6802 32.5794 94.6 31.6307 94.0943 30.6957C93.7419 30.0457 93.2023 29.4991 92.563 29.0707L99.9998 19.4298L77.606 19.4286V3H22.3826Z" fill="white"/>
<path d="M49.9888 69.8557L24.3984 55.2412V57.1755L49.9888 75.5043L75.5785 57.1755V55.2412L49.9888 69.8557Z" fill="#06141F"/>
<path d="M45.5063 58.37H54.4764L56.6307 62.898L75.5788 53.0828V41.961C58.7178 38.2539 41.2592 38.2545 24.3984 41.963V53.0832L43.3459 62.8984L45.5063 58.37Z" fill="#06141F"/>
<path d="M43.2366 21.4844H30.6094C30.8068 21.5729 32.4132 22.1308 32.4132 23.7554L32.4031 34.7879C32.3786 36.3632 33.5333 37.1204 35.7639 36.8906C39.3799 36.5298 43.0085 36.3107 46.6414 36.234V28.2732C44.2578 28.2963 42.2091 28.3476 39.8275 28.4298V31.1042C40.5988 31.0681 41.0103 31.0384 41.7835 31.0082V33.7765C40.4337 33.8376 39.2964 33.9175 37.9427 34.0111C37.5888 34.0346 37.4264 33.9171 37.4264 33.6352V24.5377C37.4264 24.3001 37.5962 24.181 37.9442 24.1767C39.0542 24.1583 40.0568 24.1442 41.1664 24.1321C41.513 24.1293 41.6543 24.255 41.6543 24.5225V26.1153C43.3257 26.0852 45.0038 26.0632 46.6737 26.0519L46.6819 23.82C46.6846 22.3603 45.4399 21.4844 43.2374 21.4844" fill="#EA0029"/>
<path d="M72.3978 24.9262V28.8171C72.3978 29.1053 72.237 29.2725 71.8909 29.2458C70.6302 29.1511 69.6222 29.0638 68.3565 28.9804V24.322C69.6203 24.3533 70.6146 24.3893 71.8761 24.4211C72.225 24.4344 72.3978 24.589 72.3978 24.9262ZM77.4204 30.0571V24.2629C77.3869 22.5224 75.9615 21.4859 73.7586 21.4844H61.5332C61.747 21.5744 63.4001 22.1109 63.4001 23.6963L63.4052 36.8875C65.0268 37.0449 66.7418 37.2363 68.3565 37.4505V31.7025C69.1686 31.7706 70.0287 31.845 70.8409 31.9245C71.7025 33.9645 72.3441 35.983 73.2038 38.1322C74.8324 38.4102 76.6063 38.7869 78.2263 39.1237C77.347 36.858 76.4427 34.6023 75.5138 32.3568C76.7503 32.1265 77.4402 31.298 77.4204 30.0571Z" fill="#EA0029"/>
<path d="M7.04086 25.3032C9.0051 25.1944 10.8743 25.0898 12.8444 24.9966V41.1601C14.4614 40.7193 16.2333 40.3066 17.8631 39.9209V24.7715C19.0416 24.7218 20.416 24.6748 21.5922 24.6329V21.4848H4.14453C5.08565 22.7759 6.05127 24.0493 7.04086 25.3032ZM90.8323 30.4503C89.3256 29.7709 85.8682 28.1898 84.8014 27.6917C84.4105 27.5069 84.2653 27.1917 84.2653 26.976V25.3855C84.2602 25.0479 84.4335 24.8827 84.7772 24.8999C87.3419 25.0166 90.341 25.1466 92.8954 25.2895L95.8295 21.4848H77.4697C77.7223 21.6218 79.3716 22.1915 79.3716 24.064C79.3716 24.064 79.3852 26.0726 79.3852 27.1436C79.3852 28.2176 79.9365 29.081 81.2704 29.6946C82.6004 30.3077 86.9295 32.1755 87.2601 32.356C87.6923 32.5862 87.7647 32.8121 87.7647 33.4519V37.4008C87.7666 37.9372 87.382 37.8507 87.2566 37.8221C86.3767 37.6216 85.6463 37.4717 84.7617 37.2837C84.6363 37.2571 84.3217 37.1714 84.3159 36.6619V34.0495C82.7116 33.7807 81.1042 33.5318 79.4938 33.3028V36.3115C79.525 38.2434 80.9138 39.6785 83.1124 40.2294C85.1783 40.7377 87.1639 41.2913 89.2064 41.8955C91.3805 42.5572 92.6463 41.6543 92.642 39.3112C92.6576 39.2525 92.6381 33.4151 92.6381 33.4151C92.6342 32.0525 92.3391 31.1351 90.8323 30.4503ZM24.2004 23.9406V38.5723C25.8614 38.2665 27.5499 37.985 29.2222 37.736V21.4844H22.4059C22.8583 21.6175 24.2004 22.3713 24.2004 23.9406ZM47.2025 21.4844C47.4524 21.5995 49.111 22.1289 49.111 23.5996C49.1067 27.8029 49.1067 32.004 49.104 36.2046C53.0189 36.185 56.8671 36.3346 60.7699 36.642V33.9535C58.5105 33.8034 56.2482 33.7013 53.9844 33.6473V30.2729C56.0012 30.3132 58.0114 30.3582 60.0251 30.446V27.68C58.012 27.6171 55.9984 27.5738 53.9844 27.5504C53.9899 24.1959 53.9844 24.1959 53.9844 24.1113C56.2368 24.1274 58.3498 24.1481 60.6002 24.1795V21.4848L47.2025 21.4844Z" fill="#EA0029"/>
<path d="M33.1915 47.2916C33.353 47.2704 33.4679 47.2156 33.5353 47.1271C33.6014 47.041 33.6345 46.9286 33.6345 46.7935C33.6345 46.6392 33.5968 46.5296 33.5142 46.4724C33.4364 46.4168 33.3289 46.3961 33.1911 46.4125C32.9606 46.445 32.7289 46.4767 32.4965 46.5085V47.3836C32.7289 47.3523 32.9606 47.3217 33.1915 47.2916ZM33.1019 45.9062C33.2627 45.8839 33.3776 45.8303 33.4438 45.7457C33.5119 45.6623 33.5458 45.555 33.5458 45.4231C33.5434 45.2684 33.5072 45.1635 33.4309 45.1086C33.3542 45.0538 33.2448 45.0366 33.1019 45.0558C32.8999 45.0816 32.6981 45.109 32.4965 45.138V45.9889C32.7013 45.9614 32.8995 45.9317 33.1019 45.9062ZM33.1148 44.5346C33.3055 44.5088 33.4632 44.5056 33.5968 44.526C33.7307 44.5468 33.8351 44.5898 33.9219 44.6556C34.0036 44.7245 34.0679 44.8134 34.1025 44.9262C34.1384 45.0385 34.1586 45.1768 34.1586 45.3412C34.1586 45.4853 34.1356 45.6141 34.0947 45.7234C34.0519 45.8303 33.9857 45.9246 33.8993 46.0108C34.0079 46.055 34.0947 46.131 34.1563 46.2391C34.217 46.3471 34.2478 46.5061 34.2478 46.7164C34.2478 46.8926 34.2252 47.0414 34.1738 47.1694C34.1283 47.2918 34.0554 47.4021 33.9608 47.4917C33.8611 47.5837 33.7444 47.6553 33.6174 47.7023C33.4713 47.7582 33.319 47.7962 33.1638 47.8155C32.7441 47.8703 32.3244 47.929 31.9043 47.9866V44.7014C32.3061 44.6446 32.7114 44.5886 33.1148 44.5346ZM35.7748 46.1842C36.0368 46.1549 36.3035 46.1247 36.5659 46.0961C36.4355 45.6889 36.3062 45.2813 36.1735 44.8741C36.0419 45.3095 35.9032 45.7461 35.7748 46.1842ZM36.7353 46.5997C36.3592 46.6388 35.9819 46.6803 35.6085 46.7234C35.5248 46.9952 35.443 47.2669 35.3621 47.5406C35.1506 47.5653 34.9423 47.5907 34.7333 47.615C35.0845 46.4767 35.4403 45.3412 35.7899 44.2049C36.0442 44.1767 36.3015 44.1497 36.555 44.1219L37.6094 47.3014C37.4003 47.3217 37.192 47.3425 36.9837 47.366C36.8972 47.1091 36.8178 46.8542 36.7353 46.5997ZM40.1588 44.4023C39.9949 44.372 39.8289 44.3549 39.6624 44.351C39.5066 44.3443 39.3626 44.351 39.2263 44.3588C39.1531 44.3656 39.0803 44.3766 39.0083 44.3917C38.9374 44.4034 38.879 44.4273 38.8249 44.461C38.7735 44.4898 38.7305 44.5316 38.7003 44.5824C38.6664 44.6341 38.6524 44.6998 38.6524 44.7817C38.6477 44.8447 38.6598 44.9078 38.6874 44.9645C38.7112 45.0129 38.7499 45.0523 38.7976 45.0769C38.8506 45.1086 38.9164 45.1321 39.0009 45.1505C39.0818 45.1701 39.1839 45.1873 39.3026 45.2077C39.4689 45.2375 39.6141 45.2711 39.7406 45.3087C39.8703 45.3447 39.9758 45.3976 40.0618 45.4634C40.1459 45.5296 40.2117 45.6102 40.2573 45.7069C40.3001 45.806 40.3262 45.9266 40.3262 46.0703C40.3262 46.4168 40.2199 46.6803 40.0085 46.8675C39.7998 47.0547 39.5062 47.158 39.1367 47.1851C38.9752 47.1941 38.8039 47.1941 38.622 47.1815C38.4432 47.1707 38.2653 47.1472 38.0898 47.1111V46.6271C38.2899 46.6494 38.4741 46.6623 38.6423 46.6678C38.807 46.678 38.9693 46.6745 39.1329 46.6616C39.3314 46.6439 39.4794 46.5926 39.5681 46.5108C39.6624 46.4286 39.7056 46.3005 39.7056 46.1294C39.707 46.0752 39.6928 46.0218 39.6647 45.9755C39.6367 45.9291 39.596 45.8919 39.5475 45.8683C39.4849 45.8373 39.4181 45.8156 39.3493 45.804C39.2715 45.7876 39.171 45.7704 39.0663 45.7539C38.9166 45.7317 38.769 45.6974 38.6248 45.6513C38.5069 45.6149 38.3964 45.5576 38.2985 45.4822C38.2115 45.4135 38.1424 45.3245 38.0972 45.223C38.0491 45.1019 38.0253 44.9724 38.0271 44.842C38.0271 44.5601 38.1182 44.3306 38.3039 44.1548C38.4869 43.9786 38.7766 43.876 39.1839 43.84C39.5107 43.8123 39.8398 43.8374 40.1588 43.9144V44.4023ZM41.0126 43.7296C41.7485 43.6779 42.4867 43.6332 43.2241 43.5913C43.2221 43.7668 43.2221 43.9414 43.2241 44.1156C42.695 44.145 42.1631 44.1752 41.6344 44.2108V45.0511C42.1456 45.0194 42.6568 44.9884 43.1688 44.9606C43.1026 45.1388 43.0329 45.3181 42.9652 45.4959C42.5229 45.5217 42.0775 45.546 41.6344 45.5769V46.4482C42.1631 46.4129 42.695 46.3828 43.2241 46.355C43.2221 46.5284 43.2221 46.7046 43.2241 46.8797C42.4867 46.9168 41.7485 46.9638 41.0126 47.0159V43.7296ZM45.2549 46.2673C45.418 46.2633 45.5321 46.2175 45.5975 46.138C45.6653 46.055 45.7003 45.9501 45.7003 45.8127C45.7003 45.656 45.6622 45.5448 45.5796 45.4794C45.5017 45.4168 45.3896 45.3855 45.2549 45.3917C45.0205 45.4007 44.7892 45.4094 44.5545 45.4172V46.2943C44.7892 46.2857 45.0201 46.2759 45.2549 46.2673ZM45.1626 44.8745C45.3258 44.8682 45.4402 44.8255 45.5091 44.7457C45.5745 44.6705 45.6084 44.5632 45.6084 44.4332C45.6084 44.2805 45.5734 44.1709 45.4936 44.1098C45.418 44.0463 45.3086 44.0185 45.1626 44.0232C44.9598 44.0311 44.7589 44.0385 44.5545 44.0479V44.8976C44.7589 44.8894 44.9594 44.8804 45.1626 44.8745ZM45.179 43.5017C45.3666 43.4954 45.527 43.5103 45.6622 43.542C45.7941 43.5733 45.9063 43.6297 45.99 43.7037C46.0717 43.7773 46.1348 43.8721 46.1714 43.9888C46.2092 44.1062 46.2259 44.2449 46.2259 44.4077C46.2259 44.555 46.2065 44.6818 46.1632 44.7856C46.1204 44.8894 46.0534 44.9782 45.9674 45.0534C46.0791 45.1086 46.1632 45.1963 46.2244 45.3087C46.2867 45.4211 46.3178 45.5828 46.3178 45.7923C46.3178 45.9697 46.2929 46.1149 46.2442 46.2387C46.198 46.3555 46.1238 46.4591 46.0281 46.5402C45.9261 46.6239 45.808 46.6856 45.6812 46.7215C45.5338 46.7619 45.382 46.7843 45.2292 46.788C44.8044 46.8045 44.3793 46.8229 43.9572 46.8421V43.5553C44.3645 43.5338 44.7694 43.5185 45.179 43.5017ZM47.8522 45.4066L48.6492 45.3933C48.5145 44.9735 48.3852 44.5538 48.2497 44.1325C48.117 44.5573 47.9823 44.981 47.8522 45.4066ZM48.8139 45.9117C48.4382 45.916 48.0617 45.9231 47.6821 45.9266C47.6003 46.1929 47.5174 46.4599 47.4352 46.7246C47.2242 46.7281 47.0128 46.7332 46.8045 46.7375C47.1576 45.6349 47.5146 44.533 47.8678 43.4285C48.1228 43.4253 48.3798 43.4226 48.6332 43.4191C48.9875 44.5115 49.3379 45.604 49.6942 46.6999C49.484 46.6999 49.2725 46.6999 49.0611 46.7023C48.9798 46.438 48.8988 46.1756 48.8139 45.9117ZM50.2058 46.6999V43.4097C50.4129 43.4097 50.6208 43.4144 50.8299 43.4144V46.1768C51.326 46.1801 51.822 46.1866 52.318 46.1964C52.2483 46.3679 52.1809 46.5425 52.1144 46.7164C51.4782 46.7059 50.842 46.7004 50.2058 46.6999ZM52.8677 46.7281V43.4414C53.0741 43.4484 53.2785 43.4531 53.4872 43.4602V46.2203C53.9848 46.234 54.48 46.2516 54.9741 46.2696C54.9079 46.4438 54.8417 46.6142 54.7732 46.7865C54.1378 46.7653 53.5 46.7442 52.8677 46.7281ZM59.2024 46.884C59.0362 46.9228 58.8678 46.9516 58.6982 46.9701C58.5307 46.9905 58.368 46.9936 58.213 46.9846C57.9767 46.9681 57.7789 46.9165 57.6127 46.8229C57.4518 46.732 57.3142 46.6046 57.2109 46.4509C57.1041 46.2853 57.028 46.1017 56.9862 45.909C56.9368 45.6874 56.9128 45.461 56.9146 45.2339C56.9146 44.9782 56.9387 44.7457 56.9862 44.5436C57.0329 44.3384 57.1069 44.1693 57.2109 44.0283C57.3148 43.8913 57.4468 43.7867 57.6127 43.721C57.7789 43.6536 57.9818 43.627 58.213 43.6419C58.3863 43.6536 58.5518 43.6783 58.7075 43.7135C58.8597 43.7488 59.0283 43.8024 59.202 43.8721V44.3443C59.1058 44.3196 59.0201 44.295 58.9415 44.2734C58.8617 44.255 58.7865 44.2362 58.7149 44.2218C58.6452 44.2092 58.5747 44.199 58.5054 44.1904C58.4361 44.1838 58.3614 44.1748 58.2847 44.1709C58.0215 44.1552 57.8291 44.2429 57.7178 44.4332C57.6029 44.6282 57.5465 44.9058 57.5465 45.27C57.5465 45.4446 57.5574 45.6043 57.5878 45.7461C57.6127 45.8894 57.6555 46.0147 57.7178 46.1149C57.7789 46.2203 57.8568 46.3009 57.9514 46.362C58.0429 46.4219 58.1546 46.4568 58.2886 46.4638C58.3614 46.4693 58.4326 46.4693 58.4977 46.4693C58.5677 46.4693 58.6359 46.4693 58.7098 46.4638C58.7799 46.4568 58.8543 46.4497 58.9361 46.4403C59.0147 46.4317 59.1058 46.42 59.2024 46.4004V46.884ZM59.853 47.0778V43.7903C60.0562 43.8055 60.261 43.8224 60.4728 43.84V46.602C60.9653 46.6439 61.4609 46.687 61.957 46.7312C61.8865 46.8996 61.8203 47.0699 61.7537 47.2371C61.1206 47.1787 60.487 47.1258 59.853 47.0778ZM63.1472 46.2986C63.1472 46.5061 63.2025 46.6576 63.3131 46.752C63.4236 46.8511 63.5646 46.9082 63.7452 46.9243C63.9333 46.9462 64.0804 46.9212 64.1899 46.8487C64.2993 46.7763 64.3538 46.6361 64.3538 46.4278V44.2174C64.5621 44.2398 64.7696 44.2648 64.9826 44.2911V46.5049C64.9826 46.7023 64.9502 46.8691 64.9008 47.0022C64.8447 47.1346 64.7645 47.2375 64.6606 47.3135C64.5543 47.3898 64.4223 47.4364 64.2712 47.4584C64.0968 47.4829 63.9198 47.4833 63.7452 47.4595C63.5667 47.4431 63.3908 47.4053 63.2212 47.3472C63.0804 47.2974 62.9513 47.2194 62.8416 47.1177C62.7361 47.0162 62.656 46.891 62.6079 46.7524C62.5524 46.5871 62.5256 46.4135 62.5285 46.2391V44.0256C62.7349 44.0463 62.9432 44.0655 63.1472 44.0863V46.2986ZM67.0831 47.3217C67.2427 47.3425 67.3583 47.3194 67.4237 47.2501C67.4915 47.1815 67.5265 47.0778 67.5265 46.9435C67.5265 46.7865 67.4864 46.6682 67.4066 46.5903C67.3241 46.512 67.2174 46.4638 67.0835 46.445C66.8514 46.4125 66.6174 46.3824 66.3854 46.3526V47.2293C66.6174 47.2583 66.8514 47.292 67.0831 47.3217ZM66.992 45.9121C67.1516 45.9344 67.2684 45.9121 67.333 45.8444C67.4012 45.7802 67.4343 45.6819 67.4343 45.546C67.437 45.3933 67.3984 45.2797 67.3225 45.203C67.2454 45.1298 67.1368 45.0816 66.992 45.0632C66.79 45.0352 66.5878 45.0089 66.3854 44.9841V45.8338C66.5878 45.86 66.7887 45.8867 66.992 45.9121ZM67.006 44.5436C67.1952 44.571 67.3525 44.611 67.488 44.667C67.62 44.7218 67.7302 44.7962 67.8112 44.8823C67.8921 44.9704 67.9556 45.0769 67.9922 45.1995C68.03 45.3236 68.0475 45.4673 68.0498 45.6282C68.0498 45.7766 68.0245 45.8984 67.9848 45.9951C67.9392 46.0914 67.8766 46.1709 67.789 46.2277C67.9003 46.3068 67.9848 46.4051 68.0475 46.5284C68.1059 46.6525 68.1355 46.8182 68.1355 47.0304C68.1355 47.2046 68.1121 47.3476 68.065 47.4619C68.0195 47.569 67.945 47.6611 67.8501 47.7278C67.7547 47.7932 67.6398 47.8335 67.5051 47.8472C67.3554 47.8635 67.2042 47.8601 67.0554 47.837C66.6349 47.7814 66.2141 47.7258 65.7901 47.6741V44.3878C66.1958 44.4379 66.6018 44.4908 67.006 44.5436Z" fill="white"/>
<path d="M27.4898 18.0543V8.13299H33.7248L38.1294 18.0543H61.6641L66.2661 8.13299H72.4878V18.0543H75.5792V5.02441H24.3984V18.0543H27.4898Z" fill="#06141F"/>
<path d="M51.7895 14.5488C51.7895 14.5879 51.8012 14.6102 51.8242 14.6102C51.842 14.6078 51.8589 14.6008 51.8732 14.5899L58.2363 10.4355C58.3438 10.3599 58.4722 10.3211 58.6034 10.3246H60.002C60.2161 10.3246 60.3613 10.4683 60.3613 10.6841V13.3702C60.3613 13.6944 60.2897 13.8831 60.0039 14.0558L58.3075 15.0825C58.2906 15.0944 58.2709 15.1015 58.2503 15.1032C58.2301 15.1032 58.2094 15.0868 58.2094 15.0272V11.8936C58.2094 11.8564 58.1993 11.8317 58.1748 11.8317C58.1568 11.8339 58.1398 11.8411 58.1257 11.8525L53.4758 14.8918C53.3705 14.9639 53.2458 15.0019 53.1184 15.0006H50.0359C49.8195 15.0006 49.6766 14.8569 49.6766 14.6392V10.7683C49.6766 10.7393 49.6645 10.7127 49.64 10.7127C49.6221 10.7148 49.6051 10.7219 49.5909 10.733L46.5229 12.5855C46.4917 12.6059 46.484 12.6207 46.484 12.6348C46.484 12.647 46.4902 12.6595 46.5104 12.6818L48.7028 14.8855C48.7316 14.9141 48.7519 14.9368 48.7519 14.9615C48.7519 14.9818 48.7192 14.9983 48.6806 14.9983H46.7004C46.5451 14.9983 46.4248 14.976 46.3411 14.8918L45.0122 13.5566C45.0072 13.5505 45.0009 13.5456 44.9939 13.5421C44.9869 13.5386 44.9792 13.5366 44.9714 13.5362C44.9569 13.537 44.9429 13.5413 44.9305 13.5487L42.7093 14.8918C42.5746 14.974 42.4827 14.9963 42.3499 14.9963H40.3066C40.0886 14.9987 39.9453 14.8526 39.9453 14.6369V12.0025C39.9453 11.6759 40.017 11.4887 40.3047 11.3165L42.0112 10.2855C42.0246 10.2766 42.0402 10.2716 42.0563 10.271C42.0828 10.271 42.0968 10.298 42.0968 10.3571V13.8851C42.0968 13.9223 42.105 13.9387 42.1319 13.9387C42.15 13.9358 42.1673 13.9289 42.1825 13.9184L47.9475 10.4296C48.0577 10.3532 48.1928 10.316 48.3271 10.3227H51.4302C51.6443 10.3227 51.7895 10.4664 51.7895 10.6817L51.7876 14.5488H51.7895Z" fill="white"/>
</g>
<defs>
<clipPath id="clip0_4172_1823">
<rect width="100" height="75" fill="white" transform="translate(0 3)"/>
</clipPath>
</defs>
</svg>
