<svg width="24" height="24" viewBox="0 0 24 24" fill="none" xmlns="http://www.w3.org/2000/svg">
<path d="M15.4287 4V6.28571" stroke="white" stroke-width="2.28571" stroke-linecap="round" stroke-linejoin="round"/>
<path d="M15.4287 10.8569V13.1426" stroke="white" stroke-width="2.28571" stroke-linecap="round" stroke-linejoin="round"/>
<path d="M15.4287 17.7144V20.0001" stroke="white" stroke-width="2.28571" stroke-linecap="round" stroke-linejoin="round"/>
<path d="M3.99958 4H19.9996C20.6058 4 21.1872 4.24082 21.6158 4.66947C22.0445 5.09812 22.2853 5.67951 22.2853 6.28571V9.71429C21.6791 9.71429 21.0977 9.9551 20.6691 10.3838C20.2404 10.8124 19.9996 11.3938 19.9996 12C19.9996 12.6062 20.2404 13.1876 20.6691 13.6162C21.0977 14.0449 21.6791 14.2857 22.2853 14.2857V17.7143C22.2853 18.3205 22.0445 18.9019 21.6158 19.3305C21.1872 19.7592 20.6058 20 19.9996 20H3.99958C3.39337 20 2.81199 19.7592 2.38334 19.3305C1.95468 18.9019 1.71387 18.3205 1.71387 17.7143V14.2857C2.32008 14.2857 2.90146 14.0449 3.33011 13.6162C3.75877 13.1876 3.99958 12.6062 3.99958 12C3.99958 11.3938 3.75877 10.8124 3.33011 10.3838C2.90146 9.9551 2.32008 9.71429 1.71387 9.71429V6.28571C1.71387 5.67951 1.95468 5.09812 2.38334 4.66947C2.81199 4.24082 3.39337 4 3.99958 4Z" stroke="white" stroke-width="2.28571" stroke-linecap="round" stroke-linejoin="round"/>
</svg>
