<svg width="100" height="80" viewBox="0 0 100 80" fill="none" xmlns="http://www.w3.org/2000/svg">
<g clip-path="url(#clip0_4391_1926)">
<path d="M94.4907 43.404C95 42.6737 95.3704 41.8257 95.6018 40.9541L96.1111 38.9988C96.2963 38.2921 96.3889 37.5618 96.3889 36.8551C96.3889 36.384 96.3426 35.9128 96.25 35.4653L97.0602 35.3946L99.1667 27.3852L95.3704 22.7915L80.8333 24.0872C80 23.0506 79.0741 22.0377 78.0787 21.0954C77.6852 16.7373 74.0741 13.298 69.6759 13.298C68.6343 13.298 67.662 13.4865 66.7361 13.8398C60.9722 11.3899 54.3056 10 47.1759 10C34.7222 10 23.6111 14.2638 16.5278 20.8834L2.56944 22.1555L9.3287 28.3746L0 63.8045L4.12037 68.3746L31.3426 63.404C36.1806 64.9823 41.5278 65.8539 47.1759 65.8539C56.9444 65.8539 65.8796 63.2391 72.7083 58.9046L74.6296 70L82.1991 52.662L99.9768 44.6761L94.4907 43.404Z" fill="#D5D5D6"/>
<path d="M97.8004 27.7148L94.8375 24.1106L80.2773 25.4062C79.2819 24.087 78.1245 22.815 76.8513 21.6371C76.7356 17.7031 73.5643 14.5464 69.6523 14.5464C68.6106 14.5464 67.6152 14.782 66.7125 15.1825C61.018 12.709 54.3282 11.272 47.1754 11.272C34.8143 11.272 23.8421 15.5358 17.0134 22.1083L5.4856 23.1683L10.6939 27.974L1.36523 63.451L4.58283 67.0081L31.4347 62.1082C36.2263 63.6866 41.5736 64.5817 47.1986 64.5817C57.4995 64.5817 66.8513 61.6135 73.6337 56.8079L75.1847 65.7125L81.2958 51.696L96.0643 45.0529L92.1523 44.1577C93.2171 43.2625 94.0504 42.014 94.3976 40.6242L94.9069 38.6689C95.0689 38.0564 95.1384 37.4439 95.1384 36.855C95.1384 36.219 95.0226 35.6065 94.8375 35.0411C94.768 34.8055 94.6523 34.57 94.5597 34.358L96.0875 34.2166L97.8004 27.7148Z" fill="#CF0022"/>
<path d="M71.1804 53.6986C66.5045 56.9495 60.6712 59.1167 54.3054 60.059C57.523 58.8576 60.5091 57.3264 63.1711 55.4889C63.3332 55.3712 63.5184 55.2534 63.6804 55.1356L58.31 56.1014C52.361 59.211 44.9767 61.0484 36.9443 61.0484C36.1804 61.0484 35.4165 61.0249 34.6758 61.0013C38.5647 62.0143 42.7776 62.5796 47.1526 62.5796C57.4536 62.5796 66.7128 59.5408 73.1943 54.688L72.8008 52.4736C72.3147 52.8741 71.7591 53.2981 71.1804 53.6986Z" fill="white"/>
<path d="M4.67578 62.5797L5.67115 63.7104L74.5137 51.2487L74.3054 50.0002L4.67578 62.5797ZM79.0276 49.3877L75.5786 57.2794L76.5276 58.2452L79.9767 50.3536L87.523 46.9613L86.5739 45.9955L79.0276 49.3877ZM93.5415 27.2676L92.7545 30.2122L87.7313 30.6598C87.523 30.6834 87.3147 30.8718 87.2684 31.0838L86.7128 33.1569C86.6665 33.3689 86.7823 33.5338 86.9675 33.5102L87.9165 33.416L88.2406 32.191C88.2869 31.979 88.4489 31.8848 88.611 31.8612L93.7036 31.4136L94.4906 28.469L93.5415 27.2676ZM62.2221 40.7894L63.1712 40.6951L63.5647 39.1639L70.3008 38.575L71.4813 34.0756C71.5739 33.7222 71.6202 33.3924 71.6202 33.0862C71.6202 32.7799 71.5739 32.4737 71.4813 32.2146C71.3887 31.9554 71.273 31.7199 71.0878 31.5079C70.9258 31.3194 70.3239 30.5891 70.1387 30.3771C70.6017 30.9896 70.7637 31.8848 70.486 32.8977L69.3054 37.3971L62.5693 37.9861L61.9212 40.436C61.898 40.648 62.0137 40.8129 62.2221 40.7894Z" fill="#970022"/>
<path d="M78.4961 32.756L82.9174 32.3555L83.5887 29.7642C83.6118 29.6465 83.6581 29.5522 83.7044 29.4344L82.6859 28.2095L81.922 31.1541L77.6165 31.531C77.4081 31.5546 77.1998 31.743 77.1535 31.9551L74.3526 42.5793L70.2554 42.9562L70.6257 41.5664L69.4452 43.0505L60.4637 43.8514C59.0979 43.9692 58.1257 43.2625 57.8711 42.1082L56.1581 44.2519L53.6813 44.4639C53.0563 44.511 52.547 44.3461 52.2461 43.9927C51.9683 44.3697 51.5285 44.6523 51.1118 44.6759L47.1766 45.0293C45.8109 45.147 44.8387 44.4403 44.5841 43.286L42.8711 45.4297L40.6257 45.6417C39.6998 45.7124 38.9591 45.4297 38.4961 44.8644C38.6813 45.0999 39.2831 45.8302 39.4452 46.0187C39.6072 46.2071 39.7924 46.372 40.0007 46.5134C40.2091 46.6311 40.4637 46.7489 40.7183 46.796C40.9961 46.8432 41.2739 46.8667 41.5979 46.8432L43.4961 46.6783L45.2322 44.511C45.4868 44.8172 45.8804 45.2884 45.9961 45.4297C46.1581 45.6182 46.3433 45.7831 46.5516 45.9244C46.76 46.0422 47.0146 46.16 47.2692 46.2071C47.547 46.2542 47.8248 46.2778 48.1489 46.2542L52.0841 45.9009C52.5007 45.8538 52.9405 45.5946 53.2183 45.2177C53.5192 45.5475 54.0054 45.736 54.6535 45.6889L56.7831 45.5004L58.5192 43.3331C58.7739 43.6394 59.1674 44.1105 59.2831 44.2519C59.4452 44.4403 59.6304 44.6052 59.8387 44.7466C60.047 44.8644 60.3016 44.9821 60.5563 45.0293C60.8341 45.0764 61.1118 45.0999 61.4359 45.0764L70.4174 44.2754L70.8109 43.7807L71.2276 44.2048L75.3248 43.8279L78.1489 33.1094C78.1952 32.8973 78.3572 32.7796 78.4961 32.756ZM91.6442 35.3237C91.4822 35.1353 90.8803 34.405 90.6952 34.193C91.1581 34.8055 91.3202 35.7006 91.0424 36.7136L90.3016 39.5405C90.0702 40.4592 89.1905 41.2837 88.3803 41.3544L79.3294 42.1553L79.7229 44.4403L81.0424 44.7466L80.7878 43.3096L88.4729 42.6264C89.8155 42.5086 91.1118 41.3072 91.4822 39.8703L91.9915 37.915C92.0841 37.5617 92.1304 37.2319 92.1304 36.9256C92.1304 36.6194 92.0841 36.3131 91.9915 36.054C91.922 35.7713 91.8063 35.5357 91.6442 35.3237Z" fill="#970022"/>
<path d="M78.8419 39.3049L80.0919 39.2107L79.9993 38.716L78.4716 37.1612L78.8419 39.3049ZM83.2401 35.1824C83.4021 35.3944 84.0503 36.1482 84.2123 36.3602C84.3743 36.5487 84.5595 36.7136 84.7679 36.8549C84.9762 36.9727 85.2308 37.0905 85.4854 37.1376C85.7632 37.1847 86.041 37.2083 86.3651 37.1847L86.9438 37.1376L87.1984 36.2189C87.2447 36.0069 87.129 35.842 86.9438 35.8655L85.416 36.0069C84.4438 36.054 83.703 35.7478 83.2401 35.1824ZM55.6475 41.3779L56.5966 41.2837L61.5734 22.3673L60.6012 21.1895L55.3697 41.0246C55.3234 41.2366 55.4392 41.4015 55.6475 41.3779ZM64.8373 34.3343C64.8836 34.1223 65.0919 33.9339 65.3003 33.9103L66.2262 33.8161L66.4808 32.8973C66.5271 32.6853 66.4114 32.5204 66.2262 32.544L64.328 32.7089C64.1197 32.7324 63.9114 32.9209 63.8651 33.1329L63.2169 35.5829L64.5364 35.4651L64.8373 34.3343ZM20.3234 26.1364L19.3512 24.935L12.291 51.743L13.6105 51.6253L20.3234 26.1364ZM25.6706 46.3485C25.3929 46.7254 24.9531 47.0081 24.5364 47.0316L20.6012 47.385C19.7216 47.4556 18.9808 47.1965 18.5179 46.6547L19.4206 47.7619C19.5827 47.9503 19.7679 48.1152 19.9762 48.2566C20.1845 48.3744 20.4392 48.4922 20.6938 48.5393C20.9716 48.5864 21.2493 48.6099 21.5734 48.5864L25.5086 48.233C25.9253 48.1859 26.3651 47.9268 26.6429 47.5499C26.9438 47.8797 27.4299 48.0681 28.0781 48.021L30.5549 47.809L30.9947 47.2672L31.3651 47.7383L35.4623 47.3614L38.3558 36.3602L39.6521 36.2425L39.9068 35.3237C39.953 35.1117 39.8373 34.9468 39.6521 34.9704L37.4068 35.1824L34.4901 46.1364L30.3929 46.5134L30.7632 45.1235L29.5827 46.584L27.1058 46.796C26.4577 46.8667 25.9484 46.6783 25.6706 46.3485ZM26.3882 37.3968L26.6429 36.478C26.6892 36.266 26.5734 36.1011 26.3882 36.1247L20.0225 36.69L20.9947 37.8679L26.3882 37.3968Z" fill="#970022"/>
<path d="M22.3608 44.3461L23.3098 44.2519L23.6571 42.9798C23.7033 42.7678 23.9117 42.5793 24.12 42.5557L25.0459 42.4615L25.3932 41.1659L23.1478 41.3779C22.9395 41.4014 22.7311 41.5899 22.6848 41.8019L22.1061 44.0163C22.0367 44.2047 22.1524 44.3696 22.3608 44.3461ZM48.9348 41.9668L49.8839 41.8726L51.5506 35.5122C51.5969 35.3001 51.8052 35.1117 52.0135 35.0881L52.9395 34.9939L53.2867 33.6983L51.0413 33.9103C50.833 33.9338 50.6246 34.1223 50.5783 34.3343L48.657 41.6135C48.6108 41.8255 48.7265 41.9904 48.9348 41.9668ZM29.0737 43.7336L30.0228 43.6394L31.62 37.6087C31.7126 37.2554 31.7589 36.9256 31.7589 36.6193C31.7589 36.3131 31.7126 36.0069 31.62 35.7477C31.5274 35.4886 31.4117 35.253 31.2265 35.041C31.0645 34.8526 30.4626 34.1223 30.2774 33.9103C30.7404 34.5228 30.9024 35.4179 30.6246 36.4309L28.7959 43.3802C28.7496 43.5923 28.8654 43.7572 29.0737 43.7336ZM42.3608 42.5557L43.3098 42.4615L44.907 36.4309C44.9996 36.0775 45.0459 35.7477 45.0459 35.4415C45.0459 35.1352 44.9996 34.829 44.907 34.5699C44.8145 34.3108 44.6987 34.0752 44.5135 33.8632C44.3515 33.6747 43.7496 32.9444 43.5645 32.7324C44.0274 33.3449 44.1895 34.2401 43.9117 35.253L42.083 42.2024C42.0367 42.4144 42.1524 42.5793 42.3608 42.5557Z" fill="#970022"/>
<path d="M87.2684 31.0835C87.3147 30.8715 87.523 30.683 87.7313 30.6594L92.7545 30.2119L93.5415 27.2672L85.5323 27.9739C84.6989 28.0446 83.8425 28.8691 83.611 29.7878L82.8702 32.6147C82.3378 34.6406 83.4721 36.1483 85.3934 35.9598L86.9212 35.8185C87.1295 35.7949 87.2452 35.9598 87.1758 36.1718L86.6202 38.2448C86.5739 38.4569 86.3656 38.6453 86.1573 38.6689L78.8193 39.3285L78.4489 37.1612L74.9999 45.0528L71.9212 46.4427L12.2915 51.7431L19.3517 24.9351L11.8517 25.6182L13.9119 27.5263L4.67578 62.5793L74.3054 49.9998L75.5786 57.279L79.0276 49.3874L86.5971 45.9951L79.7452 44.4404L79.3517 42.1553L88.4026 41.3544C89.236 41.2837 90.0925 40.4592 90.3239 39.5405L91.0647 36.7136C91.5971 34.6877 90.4628 33.1801 88.5415 33.345L87.0137 33.4863C86.8054 33.5099 86.6897 33.345 86.7591 33.1329L87.2684 31.0835Z" fill="white"/>
<path d="M69.6522 27.9267C72.9378 27.9267 75.6013 25.2162 75.6013 21.8725C75.6013 18.5289 72.9378 15.8184 69.6522 15.8184C66.3666 15.8184 63.7031 18.5289 63.7031 21.8725C63.7031 25.2162 66.3666 27.9267 69.6522 27.9267Z" fill="white"/>
<path d="M66.0411 17.0436C60.5781 14.6643 54.1198 13.2744 47.1754 13.2744C44.6754 13.2744 42.2448 13.4629 39.9069 13.7927C49.305 14.2167 57.7078 17.1849 63.7032 21.7314C63.7494 19.8233 64.6522 18.1272 66.0411 17.0436ZM81.9207 31.1778L82.6846 28.2332L75.4161 28.8928C74.5828 28.9635 73.7263 29.788 73.4948 30.7067L71.0411 40.0353L62.2217 40.8127C62.0133 40.8363 61.8976 40.6714 61.967 40.4593L62.6152 38.0094L69.3513 37.4205L70.5319 32.9211C71.0643 30.8951 69.93 29.3875 68.0087 29.5524L62.1522 30.0706C61.3189 30.1413 60.4624 30.9658 60.2309 31.8845L57.9624 40.5065C57.893 40.742 57.8698 40.9776 57.8467 41.2132L55.6939 41.4016C55.4856 41.4252 55.3698 41.2603 55.4393 41.0483L60.6707 21.2132L53.9346 21.8257L55.9948 23.7338L54.143 30.8009L48.9115 31.2721C48.0781 31.3427 47.2217 32.1672 46.9902 33.086L44.7217 41.7079C44.6522 41.9434 44.6291 42.179 44.6059 42.4146L42.4531 42.603C42.2448 42.6266 42.1291 42.4617 42.1985 42.2497L44.0272 35.3003C44.5596 33.2744 43.4254 31.7668 41.5041 31.9317L34.1661 32.5913L31.2726 43.5924L29.1661 43.7809C28.9578 43.8045 28.842 43.6395 28.9115 43.4275L30.7402 36.4782C31.2726 34.4523 30.1383 32.9446 28.217 33.1095L20.8791 33.7691L20.092 36.7138L26.4578 36.1484C26.6661 36.1248 26.7819 36.2897 26.7124 36.5017L26.1106 38.8103L20.9254 39.2815C20.092 39.3522 19.2124 40.1295 18.9809 41.0247L18.1939 44.0636C17.6615 46.0895 18.7957 47.5971 20.717 47.4322L24.6522 47.0789C25.0689 47.0318 25.5087 46.7726 25.7865 46.3957C26.0874 46.7255 26.5735 46.914 27.2217 46.8669L29.6985 46.6549L30.8791 45.1943L30.5087 46.5842L34.6059 46.2073L37.4994 35.2061L39.7448 34.9941C39.9531 34.9705 40.0689 35.1354 39.9994 35.3474L38.1707 42.2968C37.6383 44.3227 38.7726 45.8304 40.6939 45.6655L42.9393 45.4535L44.6522 43.3097C44.9069 44.464 45.8791 45.1708 47.2448 45.053L51.18 44.6996C51.5967 44.6525 52.0365 44.3934 52.3143 44.0165C52.6152 44.3463 53.1013 44.5347 53.7494 44.4876L56.2263 44.2756L57.9393 42.1319C58.1939 43.2862 59.1661 43.9929 60.5319 43.8751L69.5133 43.0742L70.6939 41.5901L70.3235 42.98L74.4207 42.603L77.2217 31.9788C77.268 31.7668 77.4763 31.5783 77.6846 31.5547L81.9207 31.1778ZM63.8652 33.1566C63.9115 32.9446 64.1198 32.7562 64.3281 32.7326L66.2263 32.5677C66.4346 32.5441 66.5504 32.709 66.4809 32.9211L65.8328 35.371L63.217 35.6066L63.8652 33.1566ZM24.6985 43.7573C24.6522 43.9694 24.4439 44.1578 24.2356 44.1814L22.3374 44.3463C22.1291 44.3698 22.0133 44.2049 22.0828 43.9929L22.6615 41.7785C22.7078 41.5665 22.9161 41.3781 23.1244 41.3545L25.3698 41.1425L24.6985 43.7573ZM51.2726 41.4016C51.2263 41.6136 51.018 41.8021 50.8096 41.8257L48.9115 41.9906C48.7031 42.0141 48.5874 41.8492 48.6569 41.6372L50.5781 34.358C50.6244 34.146 50.8328 33.9576 51.0411 33.934L53.2865 33.722L51.2726 41.4016Z" fill="white"/>
<path d="M21.4817 45.8536C20.4169 45.9478 19.7919 45.1233 20.0928 43.9926L20.7873 41.3777C20.8567 41.095 21.0419 40.8359 21.2502 40.6475L19.6299 39.7994C19.2826 40.1056 19.0049 40.5297 18.8891 40.9773L18.1021 44.0161C17.5697 46.042 18.7039 47.5497 20.6252 47.3848L24.5604 47.0314C24.9771 46.9843 25.4169 46.7252 25.6947 46.3483C25.9956 46.6781 26.4817 46.8665 27.1299 46.8194L29.5604 46.6074L29.0049 45.2175L21.4817 45.8536ZM35.741 33.8394L34.0743 32.5438L30.3938 46.5132L34.491 46.1363L32.8243 44.8406L35.741 33.8394ZM53.8891 21.8018L55.9493 23.6863L54.0743 30.777L55.741 32.0727L58.1484 22.9325L53.8891 21.8018ZM67.5697 36.3836L60.8567 36.9725L62.5928 37.9855L69.3289 37.3966L67.5697 36.3836ZM74.2364 29.4578C73.8891 29.7876 73.6114 30.2117 73.4956 30.6828L70.2549 42.9561L74.3521 42.5791L72.6854 41.2835L75.3012 31.3188C75.3706 31.0362 75.5558 30.777 75.7641 30.565L74.2364 29.4578ZM76.528 30.2117C76.2734 30.2352 76.0188 30.3766 75.7873 30.565L77.3382 31.6722C77.4308 31.6015 77.5234 31.5544 77.616 31.5309L81.9215 31.1539L80.6252 29.8347L76.528 30.2117ZM42.2919 44.0161L41.4817 44.0868C40.4169 44.181 39.7919 43.3565 40.0928 42.2258L41.9215 35.2764C42.2225 34.1693 41.5975 33.3212 40.5326 33.4154L35.741 33.8394L37.4076 35.1351L39.653 34.9231C39.8614 34.8995 39.9771 35.0644 39.9076 35.2764L38.0789 42.2258C37.5465 44.2517 38.6808 45.7594 40.6021 45.5945L42.8475 45.3824L42.2919 44.0161Z" fill="#D5D5D6"/>
<path d="M27.7546 39.7995L21.9676 40.3178C21.713 40.3413 21.4352 40.4827 21.2269 40.6711L22.8472 41.5192C22.9398 41.4485 23.0324 41.4014 23.125 41.3779L25.3704 41.1658L24.6991 43.7571C24.6759 43.8514 24.6065 43.9691 24.5139 44.0398L25.7176 45.4768C26.0185 45.4532 26.3194 45.1706 26.3889 44.8643L27.7546 39.7995ZM27.2454 34.5934L22.0833 35.041L20.787 33.7218L20 36.6664L26.3657 36.1011C26.5741 36.0775 26.6898 36.2424 26.6204 36.4544L26.0185 38.763L27.7546 39.776L28.6343 36.4309C28.9352 35.3472 28.3102 34.4992 27.2454 34.5934ZM67.1065 31.0598L63.2407 31.4132C62.9861 31.4367 62.7315 31.5781 62.5 31.7665L64.0509 32.8737C64.1435 32.8031 64.2361 32.7559 64.3287 32.7324L66.2269 32.5675C66.4352 32.5439 66.5509 32.7088 66.4815 32.9208L65.8333 35.3708L67.5694 36.3837L68.4954 32.8973C68.7963 31.7901 68.1713 30.9656 67.1065 31.0598ZM91.4583 28.8926L86.6204 29.3166C86.3657 29.3402 86.1111 29.4815 85.8796 29.67L87.4306 30.7771C87.5232 30.7065 87.6157 30.6594 87.7083 30.6358L92.7315 30.1882L91.4583 28.8926Z" fill="#D5D5D6"/>
<path d="M84.3511 28.563L85.9021 29.6702C85.6937 29.8822 85.5086 30.1413 85.4391 30.424L84.791 32.8739C84.49 33.9811 85.115 34.8292 86.1799 34.735L87.7076 34.5936C88.7724 34.4994 89.3974 35.3239 89.0965 36.4546L88.4484 38.9046C88.3789 39.1873 88.1937 39.4464 87.9854 39.6584L86.4345 38.5512C86.5271 38.4805 86.5734 38.3863 86.6197 38.2685L87.1752 36.1955C87.2215 35.9835 87.1058 35.8186 86.9206 35.8421L85.3928 35.9835C83.4715 36.1484 82.3373 34.6643 82.8697 32.6384L83.6104 29.788" fill="#D5D5D6"/>
<path d="M88.0094 39.6346C87.801 39.8466 87.5232 39.9644 87.2686 39.9879L80.3936 40.6004L78.8195 39.3048L79.3057 42.1552L88.3566 41.3542C88.7732 41.3071 89.1899 41.0951 89.5371 40.7653L88.0094 39.6346ZM55.5788 42.8148L48.0557 43.4744C46.9908 43.5686 46.3658 42.7441 46.6668 41.6134L48.7501 33.6746C48.8195 33.3919 49.0047 33.1328 49.2131 32.9208L47.6621 31.8136C47.3149 32.1434 47.0371 32.5674 46.9214 33.0386L44.6529 41.6605C44.1205 43.6864 45.2547 45.194 47.176 45.0291L51.1112 44.6758C51.5279 44.6287 51.9677 44.3695 52.2455 43.9926C52.5464 44.3224 53.0325 44.5109 53.6807 44.4638L56.1575 44.2518L55.5788 42.8148ZM68.8658 41.6369L61.3427 42.2965C60.2779 42.3907 59.6529 41.5662 59.9538 40.4355L62.0371 32.4968C62.1066 32.2141 62.2918 31.9549 62.5001 31.7429L60.9492 30.6357C60.6019 30.9655 60.3242 31.3896 60.2084 31.8607L57.9399 40.4826C57.4075 42.5085 58.5418 44.0162 60.4631 43.8513L69.4445 43.0503L68.8658 41.6369Z" fill="#D5D5D6"/>
<path d="M74.3054 49.9998L70.9952 49.246L7.84708 59.6111L16.4582 26.8667L11.8517 25.6182L13.9119 27.5263L4.67578 62.5793L74.3054 49.9998Z" fill="#D5D5D6"/>
<path d="M49.9536 32.5908C49.699 32.6143 49.4444 32.7557 49.2129 32.9441L50.7638 34.0513C50.8564 33.9806 50.949 33.9335 51.0416 33.91L53.287 33.6979L51.2731 41.354C51.2499 41.4482 51.1805 41.566 51.0879 41.6367L52.2916 43.0737C52.5925 43.0501 52.8934 42.7674 52.9629 42.4612L55.7175 32.0254L49.9536 32.5908Z" fill="#D5D5D6"/>
<path d="M78.8664 45.3357L78.0099 40.3887L75.6719 45.7361L72.0608 47.3616L10.834 54.358L13.1025 56.4546L71.621 48.3039L75.1858 49.1048L76.0423 54.0518L78.3803 48.7043L83.5192 46.3957L78.8664 45.3357Z" fill="#FAC109"/>
<path d="M77.4778 44.0161L78.0796 46.1363L80.0704 46.8194L77.8019 48.0679L76.575 50.4237L75.9732 48.28L73.9824 47.5968L76.2509 46.3718L77.4778 44.0161Z" fill="#004537"/>
<path d="M64.908 18.1977C62.0376 16.9963 58.9358 16.0776 55.6719 15.5122C58.7043 16.7136 61.5052 18.2213 63.9821 20.0116C64.1904 19.352 64.5145 18.7395 64.908 18.1977Z" fill="#FAC109"/>
<path d="M70.9485 26.0895C67.9392 26.0895 65.5087 23.616 65.5087 20.5536C65.5087 18.7633 66.342 17.1614 67.6383 16.1484C65.3466 16.9965 63.7031 19.2344 63.7031 21.8493C63.7031 25.1944 66.3652 27.9034 69.6522 27.9034C72.2216 27.9034 74.4207 26.2309 75.2541 23.8987C74.2587 25.2415 72.7078 26.0895 70.9485 26.0895Z" fill="#D5D5D6"/>
<path d="M71.1577 23.9459L70.8105 23.145L70.5558 23.4512L70.8568 24.158L70.6253 24.4171L71.5049 24.7704L71.7364 24.4878L70.9725 24.158L71.1577 23.9459ZM71.991 23.1214L71.829 22.2734L71.5049 22.5325L71.667 23.2628L71.3892 23.4984L72.1762 24.0166L72.4771 23.781L71.7827 23.3099L71.991 23.1214ZM72.9864 22.509L72.9633 21.6373L72.6392 21.8022V22.5796L72.3151 22.7445L72.9864 23.4041L73.3336 23.2157L72.7318 22.6267L72.9864 22.509ZM74.0744 22.0849L74.2364 21.2369L73.866 21.3311L73.7271 22.0849L73.3799 22.1792L73.8892 22.9565L74.2595 22.8623L73.7966 22.1556L74.0744 22.0849ZM75.2318 21.8965L75.5327 21.0955L75.1623 21.1191L74.8845 21.8258L74.5142 21.8494L74.8845 22.721L75.2549 22.6974L74.954 21.92L75.2318 21.8965ZM70.4864 24.9118L70.0003 24.2051L69.8151 24.5584L70.2318 25.1709L70.0697 25.5007L70.9725 25.6656L71.1577 25.3123L70.3475 25.1709L70.4864 24.9118ZM70.0234 25.9954L69.3984 25.4065L69.2827 25.7834L69.8383 26.3016L69.7225 26.655L70.6484 26.6314L70.7642 26.2545L69.9308 26.2781L70.0234 25.9954ZM69.7688 27.1497L69.0512 26.7021L69.0049 27.079L69.6299 27.4795L69.6068 27.8564L70.5095 27.6444L70.5558 27.2675L69.7457 27.4324L69.7688 27.1497ZM68.6114 19.1167L67.7549 18.7634L67.5234 19.0696L68.2873 19.3994L68.1021 19.6114L68.4494 20.3888L68.704 20.1061L68.3799 19.3994L68.6114 19.1167ZM67.0836 19.5408L66.7827 19.7763L67.4771 20.2475L67.2457 20.4124L67.4308 21.2604L67.7318 21.0249L67.5697 20.271L67.8707 20.059L67.0836 19.5408ZM66.2734 20.1532L65.9262 20.3181L66.5281 20.9306L66.2734 21.0484V21.92L66.6207 21.7316V20.9777L66.9447 20.8128L66.2734 20.1532ZM65.3707 20.5773L64.9771 20.6951L65.4401 21.4018L65.1855 21.4724L65.0234 22.3205L65.3938 22.2263L65.5327 21.4724L65.8799 21.3782L65.3707 20.5773ZM64.4447 20.8364L64.0512 20.86L64.3753 21.6373L64.0975 21.6609L63.7734 22.4618L64.167 22.4383L64.4447 21.7316L64.792 21.708L64.4447 20.8364ZM69.2596 19.3523L69.4447 18.9989L69.0049 18.3865L69.1901 18.0567L68.2873 17.8918L68.079 18.2216L68.9123 18.3865L68.7734 18.6456L69.2596 19.3523ZM69.2133 17.6326L69.8383 18.2451L69.954 17.8682L69.3984 17.3264L69.5142 16.9966H68.5882L68.4725 17.3735H69.3058L69.2133 17.6326ZM69.491 16.549L70.2086 16.9966L70.2549 16.6197L69.6068 16.2192L69.6531 15.8423L68.7503 16.0543L68.704 16.4312L69.5142 16.2663L69.491 16.549Z" fill="#CF0022"/>
<path d="M23.0781 27.6912L24.0503 26.4898C24.7216 27.0552 25.4392 27.4321 26.2957 27.4321C26.967 27.4321 27.3837 27.1494 27.3837 26.7018V26.6782C27.3837 26.2542 27.1291 26.0422 25.8559 25.7124C24.3281 25.3119 23.3559 24.8879 23.3559 23.3567V23.3331C23.3559 21.9433 24.4439 21.0245 25.9948 21.0245C27.0828 21.0245 28.0318 21.3779 28.7957 21.9904L27.9392 23.2625C27.2679 22.7913 26.6198 22.5086 25.9716 22.5086C25.3466 22.5086 24.9994 22.8149 24.9994 23.1682V23.1918C24.9994 23.6865 25.3235 23.8514 26.6198 24.2047C28.1476 24.6052 29.0041 25.1706 29.0041 26.5133V26.5369C29.0041 28.0681 27.8698 28.9162 26.2263 28.9162C25.1383 28.9162 23.9809 28.5157 23.0781 27.6912ZM29.5133 27.6912L30.4855 26.4898C31.1568 27.0552 31.8744 27.4321 32.7309 27.4321C33.4022 27.4321 33.8189 27.1494 33.8189 26.7018V26.6782C33.8189 26.2542 33.5642 26.0422 32.2911 25.7124C30.7633 25.3119 29.7911 24.8879 29.7911 23.3567V23.3331C29.7911 21.9433 30.8791 21.0245 32.43 21.0245C33.5179 21.0245 34.467 21.3779 35.2309 21.9904L34.3744 23.2625C33.7031 22.7913 33.055 22.5086 32.4068 22.5086C31.7587 22.5086 31.4346 22.8149 31.4346 23.1682V23.1918C31.4346 23.6865 31.7587 23.8514 33.055 24.2047C34.5828 24.6052 35.4392 25.1706 35.4392 26.5133V26.5369C35.4392 28.0681 34.305 28.9162 32.6615 28.9162C31.5735 28.9162 30.4161 28.5157 29.5133 27.6912ZM36.1337 24.9821C36.1337 22.7913 37.8003 21.001 40.092 21.001C41.4578 21.001 42.2679 21.3779 43.055 22.061L42.0133 23.3331C41.4346 22.8384 40.9253 22.5557 40.0457 22.5557C38.842 22.5557 37.8929 23.6394 37.8929 24.935V24.9586C37.8929 26.372 38.842 27.385 40.1846 27.385C40.7865 27.385 41.3189 27.2201 41.7355 26.9138V25.8066H40.0457V24.3461H43.3096V27.6676C42.5457 28.3272 41.4578 28.8926 40.092 28.8926C37.7541 28.9397 36.1337 27.2672 36.1337 24.9821Z" fill="white"/>
</g>
<defs>
<clipPath id="clip0_4391_1926">
<rect width="100" height="60" fill="white" transform="translate(0 10)"/>
</clipPath>
</defs>
</svg>
