<svg width="32" height="32" viewBox="0 0 32 32" fill="none" xmlns="http://www.w3.org/2000/svg">
<path d="M28 12L28 4M28 4H20M28 4L17.3333 14.6667M13.3333 6.66667H10.4C8.15979 6.66667 7.03969 6.66667 6.18404 7.10264C5.43139 7.48613 4.81947 8.09806 4.43597 8.8507C4 9.70635 4 10.8265 4 13.0667V21.6C4 23.8402 4 24.9603 4.43597 25.816C4.81947 26.5686 5.43139 27.1805 6.18404 27.564C7.03969 28 8.15979 28 10.4 28H18.9333C21.1735 28 22.2936 28 23.1493 27.564C23.9019 27.1805 24.5139 26.5686 24.8974 25.816C25.3333 24.9603 25.3333 23.8402 25.3333 21.6V18.6667" stroke="white" stroke-width="2" stroke-linecap="round" stroke-linejoin="round"/>
</svg>
